<svg width="1920" height="9" viewBox="0 0 1920 9" fill="none" xmlns="http://www.w3.org/2000/svg">
<path d="M-2.03488e-07 4.65526C1.70083 4.90167 3.73933 5.56864 6.40314 5.55221C7.99142 5.54235 10.6927 4.80968 11.2055 4.29056C11.7808 3.70574 3.80186 4.45813 5.65277 3.36076C3.55174 2.97306 6.10299 2.38167 7.01594 3.09463C14.1319 3.85359 23.399 3.83388 30.1898 3.49547C30.9902 3.45604 32.0282 2.86464 32.6285 2.80222C33.554 2.70694 33.9667 2.95992 33.8791 3.1932C33.5415 4.09343 28.4515 3.79773 27.601 4.8951C27.2384 5.36822 27.6135 5.78548 29.1143 6.27503C29.3644 6.42616 28.0638 6.89599 30.4649 7.11284C33.4289 5.04624 41.4078 7.11941 42.5959 4.93782C41.708 4.57312 42.9711 4.28399 43.8465 4.41213C46.6979 5.42736 48.974 4.59284 51.2001 4.44827C56.1525 4.12629 60.8048 4.34642 64.9944 4.41213C65.0194 4.48441 64.8568 4.60926 64.3566 4.66183C62.4806 4.64212 60.5797 4.56327 58.7788 4.77025C60.6923 5.51936 62.6932 5.82491 64.4191 5.99904C66.8328 6.24217 68.9088 5.5555 70.5846 5.52593C74.449 5.46022 74.8492 4.79982 77.1253 4.26757C79.1013 3.80759 85.2293 4.24128 86.1548 3.06506L95.2217 3.51847C94.4213 4.85568 97.1476 5.49964 100.612 5.66064C107.253 5.96619 105.939 3.41662 121.147 3.33448C120.459 3.90288 118.483 4.19857 117.583 4.42856C118.983 5.49965 122.297 4.99696 123.948 5.20395C126.587 5.5325 129.088 5.96948 131.339 5.46679C132.803 5.14152 132.765 4.37271 132.39 3.63018C135.204 3.8076 137.105 4.07701 140.156 3.97187C141.107 4.00144 141.419 4.25771 140.431 4.43842C139.581 4.92468 138.455 5.60807 138.918 6.04833C139.293 6.40645 141.619 6.86972 143.695 7.07013C148.923 7.57611 154.088 6.26846 157.115 5.19738C160.216 5.28937 163.28 5.04624 166.557 4.74397L176.224 5.02653C175.136 5.52265 174.636 5.90377 175.098 6.39989C175.686 7.02414 181.451 7.63853 185.879 7.05042C186.754 6.93543 192.082 4.67169 191.094 5.76906L190.719 6.18304C191.319 6.88615 194.558 7.22127 196.634 6.72187C198.385 6.30132 199.098 5.52922 200.198 4.99696C206.064 4.81626 210.141 4.54027 212.729 5.06596C215.656 5.66064 216.794 7.82581 224.585 7.06357C228.024 6.72844 229.938 6.17319 230.688 5.15796C230.838 4.96082 233.327 4.66184 233.364 4.44828C233.402 4.23472 231.889 3.92916 233.552 3.5579C235.178 3.95873 238.479 4.39571 239.167 4.82612C240.38 5.90377 241.543 6.97157 245.62 7.32969C246.996 6.70216 247.484 6.25532 247.621 5.78549C247.746 5.38137 246.408 5.03311 244.908 4.74069C257.814 4.1723 255.725 6.76458 259.515 6.6463C268.919 6.35718 266.681 5.08239 272.196 4.75055C273.246 5.16781 274.622 5.7395 276.861 5.6935C278.662 5.65407 280.638 5.63107 280.975 4.94768C278.912 4.42857 281.813 3.91274 283.276 4.6487C287.453 4.49099 292.931 4.00473 295.657 5.1481C296.583 5.53908 296.058 6.38675 298.696 6.51488C300.222 6.59045 302.136 6.70873 303.849 6.31118L312.153 4.39243C312.628 5.23681 313.916 5.7395 315.717 5.90706C316.968 6.02205 319.119 5.71322 320.307 5.23353C321.145 4.89512 320.62 4.48443 318.431 4.03759C325.059 4.13616 330.975 3.31477 337.065 2.91065C338.554 2.88765 340.955 3.60062 343.881 3.3772C341.33 4.53042 344.344 5.30252 347.22 5.56865C354.286 6.22247 353.098 4.32672 359.551 3.40349C360.889 3.21292 363.066 3.3312 363.153 3.88974C363.191 4.14602 362.253 4.63228 362.465 4.81627C363.391 5.60479 369.781 4.06716 374.284 2.4014C375.834 2.66753 379.161 3.50862 377.835 4.00474C376.66 4.44829 374.771 4.71441 374.834 5.16453C374.896 5.61465 376.097 5.84135 377.035 5.93663C377.973 6.03191 380.949 6.11077 381.8 5.68036C383.988 4.56985 392.392 3.51191 395.644 4.7177C397.607 5.4438 396.645 6.56089 402.085 6.5576C404.723 6.5576 406.487 5.91692 408.951 5.36824C412.027 4.68156 414.328 4.68156 414.316 2.97637C416.042 4.41543 424.683 5.08897 428.61 5.00683C435.013 4.87541 433.85 6.96172 439.353 7.3067C441.654 7.45127 443.805 6.95515 445.944 6.74816C447.032 6.83359 448.82 7.25414 449.996 7.13586C451.759 6.95844 452.997 6.78759 451.546 6.15677C450.996 5.91692 451.284 5.70008 452.284 5.64422L470.093 4.66514C471.694 4.57643 472.544 4.75713 472.482 5.07254C472.419 5.35838 470.681 5.60808 469.155 5.30253C467.929 5.89393 470.218 6.26519 471.969 6.57732C475.258 7.16543 480.848 6.0812 481.061 5.73294C481.261 5.40767 480.573 5.07911 479.798 4.39244C487.764 5.1284 491.316 3.29178 497.056 5.39452C498.019 5.74608 500.308 5.70337 501.196 5.49309C502.084 5.28282 501.971 4.7867 503.272 4.49429L508.724 3.26878C507.774 2.93695 509.212 2.48683 510.35 2.92709C509.175 3.64662 510.45 4.85898 512.439 4.8097C514.427 4.76042 515.215 4.79327 516.278 5.10211C516.803 5.25325 516.841 5.5588 516.929 5.89064C517.129 6.62003 519.705 6.82702 521.731 6.93873C525.283 7.13257 525.258 6.86316 527.359 6.19948C530.573 5.18425 540.478 4.73413 545.33 5.47995C546.993 6.10092 549.932 7.80282 553.934 7.00115C557.048 6.3769 558.674 5.12183 564.552 4.95098C563.701 5.84793 566.003 6.83359 569.554 6.98473L573.819 5.00026C577.633 5.01669 580.547 4.87213 584.036 4.77028C585.137 5.55881 587.738 6.60689 590.502 6.52475C591.515 6.34405 593.041 5.62123 594.504 5.6508C595.455 5.66723 596.643 6.0155 598.068 6.16992C600.044 6.38676 601.858 5.72637 602.27 5.36496C602.771 4.92798 601.72 4.45158 601.307 3.93904C600.995 3.56449 604.597 3.46921 604.797 3.83062C604.909 4.02118 604.959 4.59943 605.922 4.74728C608.911 5.21054 613.301 4.45487 614.376 3.61377C616.64 4.40887 617.953 5.37153 621.405 5.59495C625.269 5.84793 628.146 4.721 629.209 3.91275L632.135 4.56658C632.66 4.68486 634.198 4.55343 634.824 4.11317C633.123 3.81747 630.797 3.15051 633.811 2.45398C634.999 3.02566 634.311 3.5152 635.499 3.6532C637.15 3.84047 638.275 3.84047 640.752 3.67291C640.214 4.56986 640.477 5.91365 643.628 6.5839C645.392 6.95845 648.668 6.87302 650.557 6.87631C652.495 5.89722 655.284 5.5391 658.285 5.00355C658.048 5.51938 659.286 6.0155 660.449 5.97279C660.887 5.95636 667.377 4.97727 667.09 5.14483C667.352 4.99041 666.564 4.54029 666.114 4.31359C665.339 3.93247 666.452 3.6072 667.402 3.77805C667.702 3.83062 668.165 3.97518 668.103 4.11975L667.903 4.56658C673.93 5.77237 670.316 7.02087 678.595 7.14572C682.385 7.20158 685.536 7.38228 688.4 6.50504C690.776 5.77894 694.678 5.4701 698.555 5.61467C707.397 5.9465 711.837 4.53044 715.213 4.744C718.59 4.95756 717.327 6.75475 723.242 6.86317C728.432 6.95845 727.119 4.56987 732.972 4.39245C731.346 3.92262 729.996 3.64663 730.371 3.25237C733.285 3.42321 733.685 3.95219 734.785 4.12303C736.111 4.32674 740.175 3.6992 743.89 4.03432C745.778 4.20517 746.429 5.94651 750.506 5.95308C754.583 5.95965 756.571 3.65977 763.049 3.53492C764.012 4.93128 767.864 6.21264 773.642 6.22249C775.918 6.22578 777.144 5.36825 778.507 4.80643C779.92 5.26312 781.746 5.98265 783.484 5.87094C787.774 5.59167 791.025 4.88199 793.677 3.80434C798.329 6.07464 809.585 3.88648 806.145 6.27506C808.009 7.27058 812.936 7.29358 816.488 6.8336C817.926 6.64633 821.24 7.03402 821.916 6.6759L824.292 5.40768C827.956 5.25326 832.984 5.10213 835.41 3.95219C838.899 4.76372 839.949 5.86766 841.988 7.06031C850.98 6.39991 857.008 3.39365 861.973 4.69144C863.761 5.16127 864.174 5.93008 866.838 6.00894C869.051 6.07465 871.265 5.36497 872.853 5.12184C873.979 4.94771 877.518 5.6081 878.568 4.77029C878.781 4.37603 876.605 3.65649 878.006 2.95667C879.006 4.01462 882.195 4.34974 886.547 4.4286C885.547 5.05285 884.734 5.67053 885.522 5.91694C886.26 6.14364 888.136 6.57734 889.961 6.72847C894.414 7.09974 900.179 5.84138 900.667 4.55345C902.63 4.76701 902.793 5.1087 902.955 5.61467C908.133 5.14813 912.948 5.26641 919.051 5.3124C921.189 5.01671 921.552 5.83809 919.113 5.62453C916.887 5.82823 916.975 6.35063 917.462 6.74161C917.7 6.93217 918.625 7.15559 919.951 7.2443C925.416 7.61885 928.368 6.75804 930.669 5.4044C933.295 5.95637 934.246 6.95517 936.434 7.0866C938.986 7.24102 943.175 6.2915 942.262 5.71653L941.299 5.1087C940.749 4.75715 944.163 5.51282 951.467 5.01342C954.731 4.79001 955.469 6.01551 956.407 6.44592C958.17 7.26402 961.309 6.92232 963.31 6.71533C965.761 6.46234 965.986 5.82167 966.837 5.06928C967.237 4.71773 970.413 4.36289 969.3 3.72878C968.05 3.48236 969.663 3.06839 970.576 3.42651C975.166 4.22161 980.693 4.46145 985.896 3.97191C986.796 5.01014 988.597 5.66068 992.174 5.90052C993.9 5.42083 995.15 4.87215 997.252 4.71773C996.514 7.14902 1003.54 4.88529 1007.27 6.43606C1010.45 5.88409 1007.84 4.87543 1008.91 4.52717C1010.25 4.0869 1014.72 4.23147 1016.3 4.37932C1018.49 4.57973 1017.56 6.42621 1024.23 6.33093C1026.4 6.30136 1026.4 5.36498 1028.12 5.17113L1032.09 4.73087L1032.91 3.64993L1035.77 4.56659L1039.48 4.54031C1041.86 4.95757 1043.94 4.93786 1047.6 4.62902C1045.3 5.25327 1044.56 5.67711 1045.78 6.20608C1046.73 6.61677 1048.43 7.0406 1050.8 7.12603C1056.37 7.32644 1060.08 6.08451 1063.22 4.76373C1065.21 5.2697 1065.82 5.78553 1066.92 5.92681C1068.14 6.08451 1070.81 5.99909 1070.93 5.74939C1069.11 5.08571 1076.43 3.52508 1079.19 3.68936C1081.36 3.81749 1085.83 3.78792 1086.17 4.54031C1086.53 5.37155 1087.38 5.91367 1089.83 6.16337C1096.09 6.79419 1101.28 2.81212 1109.17 4.19533C1110.69 4.46146 1111.06 5.38798 1112.85 5.37484C1118.75 5.33541 1115.45 3.95877 1121.91 3.48894C1121.7 3.28524 1121.04 2.93697 1121.21 2.82198C1121.46 2.66427 1122.51 2.56899 1123.01 2.67084C1123.73 2.81869 1123.64 3.01582 1123.84 3.2951C1124.4 4.10005 1128.04 4.15919 1131.12 3.93249C1130.18 4.5206 1129.58 4.89515 1130.02 5.38798C1130.34 5.75925 1131.45 6.08452 1133.47 6.43278C1130.44 7.02746 1131.18 8.61438 1134.32 8.9265C1136.69 9.16306 1138.93 8.77865 1138.67 8.47639C1138.32 8.06241 1134.26 7.65829 1135.44 7.25088C1137.37 6.5872 1144.15 7.8817 1147.26 5.66068C1150.51 5.48655 1152.5 5.17114 1153.24 4.03763L1155.9 5.21056C1156.47 5.45698 1158.71 5.3387 1159.74 5.28613C1165.83 4.98386 1163.87 7.61886 1171.64 7.27717C1175.66 7.09975 1177.92 5.47998 1180.44 5.61469C1181.57 5.67383 1178.73 6.57735 1182.37 7.10632C1183.09 7.21146 1184.69 7.10632 1185.83 6.82705C1187.74 6.3605 1187.68 5.78553 1187.42 4.84916C1192.17 5.59826 1197.16 5.10214 1201.86 5.4077C1203.62 5.90053 1205.13 7.28702 1208.83 7.20817C1211.66 7.14903 1214.51 6.56749 1217.27 6.23894C1217.43 5.47669 1216.95 4.84587 1218.05 4.21834C1219.91 4.20519 1220.16 4.6356 1218.9 4.85244C1217.86 5.3157 1220.94 5.60483 1221.04 4.92801L1227.75 4.7933C1236.56 3.92592 1238.61 6.79748 1243.56 5.81839C1244.51 5.63112 1244.89 5.09886 1245.35 4.68817C1247.7 4.97401 1249.46 5.04301 1251.58 4.95101C1252.93 4.89187 1253.58 4.1822 1253.99 3.7715L1260.94 4.03106C1261.24 5.56212 1264.32 6.71534 1269.99 6.89605L1279.04 4.91159C1280.78 5.4767 1282.48 5.66726 1284.24 5.66397C1285.73 5.66397 1287.11 5.34199 1289.38 4.81959C1290.95 6.26523 1295.05 7.3626 1301.04 7.19832C1305.83 7.0669 1306.14 4.7276 1309.15 4.95101C1310.59 5.05615 1308.45 5.46356 1309.08 5.81511C1309.87 6.25866 1312.97 6.70878 1314.27 6.55436C1315.93 6.35722 1316.73 5.58184 1315.98 4.72103L1328.03 5.10872C1329.13 5.62784 1330.26 6.52479 1332.72 6.73177C1335.17 6.93876 1337.96 7.0209 1340.34 6.30137C1341.25 6.02867 1340.76 5.21386 1341.48 4.74074C1344.08 4.76374 1345.97 4.30705 1346.94 3.71237C1350.7 4.07706 1354.89 3.9555 1358.83 3.81422C1360.47 4.48118 1362.31 5.58512 1365.66 5.64098C1369.71 4.56661 1372.07 3.25568 1377.61 2.57886C1375.62 3.78465 1373.12 5.18757 1377.98 5.88082C1379.91 6.15681 1382.79 5.0463 1382.49 4.37276L1395.81 4.38262C1397.36 4.86888 1394.42 5.51942 1393.96 5.78554C1394.3 6.30794 1397.55 6.43279 1399.14 6.30137C1400.31 6.20281 1401.17 5.89068 1401.66 5.40114C1405.91 5.87425 1409.05 5.06601 1412.46 4.75389C1415.21 4.5009 1416.43 5.70012 1416.41 6.18967C1422.47 5.87754 1424.57 7.40531 1429.5 6.70878C1430.93 6.50836 1432.03 6.28166 1432.6 5.58184C1433.14 4.93788 1439.62 4.30377 1440.73 4.88531C1442.27 5.68698 1443 6.50508 1445.56 6.62007C1448.12 6.73506 1450.42 6.49522 1452.27 5.77569L1448.55 4.75389C1453.93 4.07707 1457.74 4.91488 1461.63 4.41548C1462.29 4.33005 1463.61 4.2742 1464.16 4.29391C1464.67 4.31034 1465.12 4.60604 1464.88 4.76046C1464.69 4.87874 1464.16 5.17115 1463.21 5.12515L1460.44 4.98716C1458.27 4.87874 1462.44 6.64964 1465.47 6.60036C1466.63 6.58065 1468.9 6.28166 1469.83 5.87426C1473.57 4.25777 1481.91 3.49881 1488.2 4.77032C1489.32 4.99702 1489.48 5.77569 1491.91 5.6607C1493.46 5.58842 1494.37 5.65413 1496.42 5.24343C1497.42 5.04302 1500.72 5.12187 1501.05 4.55347C1500.32 4.29063 1499.96 4.06393 1499.92 3.8208C1499.9 3.69266 1500.55 3.64338 1501.12 3.80766L1502.59 4.21835C1503.39 4.44176 1504.61 4.68161 1505.28 4.6389C1509.39 4.37605 1504.53 3.70252 1504.83 2.83842C1505.03 2.25031 1506.01 3.8438 1512.44 3.73866C1510.85 4.10335 1510.68 4.89188 1512.7 5.11858L1519.9 5.92683C1524.56 6.45251 1526.87 3.2754 1538.94 3.7518L1540.77 5.71655C1544.08 6.79749 1550.32 6.14696 1553.05 5.14487C1555.19 4.35634 1560.97 4.40234 1562.42 5.17773C1564.97 6.54451 1568.72 6.68907 1573.96 6.53794C1576.5 6.46566 1579.05 6.39995 1579.74 5.69027C1580.43 4.9806 1577.64 4.63561 1576.14 3.93908C1580.5 4.47134 1583.5 5.04631 1588.13 4.30049L1597.03 5.71656C1598.95 6.01882 1600.61 5.9794 1601.85 5.64756C1604.11 5.04302 1602.52 3.80766 1607.2 3.89308C1607.64 3.35754 1610.38 3.63681 1609.28 3.99494C1608.43 4.77361 1609.44 5.47343 1610.34 6.16339C1611 6.66936 1613.72 6.75807 1615.44 6.56422C1617.84 6.29481 1613.38 4.80646 1615.62 3.87337C1622.18 4.97074 1626.6 3.48239 1627.22 4.35963C1628.54 5.07588 1631.54 6.02868 1633.83 6.38681C1639.27 7.23448 1642.02 6.17653 1644.83 5.28615C1646.95 4.6159 1650.61 4.37606 1650.11 3.2754L1653.2 4.15264C1653.47 4.22821 1654.45 4.33663 1654.47 4.47134C1654.5 4.57976 1653.76 4.74733 1653.4 4.85575C1651.4 5.44057 1652.56 5.80527 1654.32 6.23896C1655.5 6.5248 1657.46 6.62337 1659.21 6.03526L1662.23 5.02003C1664.02 4.41877 1670.93 5.92355 1675.98 4.56991C1678.05 4.36292 1679.21 4.92475 1677.21 5.15145L1673.03 5.94655C1671.59 6.21925 1674.73 7.12605 1676.31 7.34619C1678.09 7.5926 1679.81 7.22133 1682 7.14248C1687.57 6.93878 1685.94 4.6389 1689.35 5.04631C1693.74 5.572 1701.41 4.03437 1704.09 5.80198C1705.04 6.42624 1707.15 6.64308 1709.19 6.64637C1711.81 6.64965 1718.31 4.9116 1716.25 4.21507C1715.78 4.05408 1716.1 3.69924 1716.6 3.67296C1717.8 3.60725 1720.58 5.36172 1723.48 4.65862C1725.16 4.25121 1726.92 3.89309 1728.64 4.08365C1730.49 4.29064 1731.51 4.7539 1732.27 5.29601C1733.48 6.15354 1737.13 6.0714 1739.57 5.70671C1741.73 5.38472 1741.6 4.67833 1739.75 3.97851C1748.56 4.40892 1748.02 1.82977 1750.72 3.76167C1747.67 4.08037 1747.12 5.02331 1748.13 5.54243C1749.7 6.34081 1755.19 6.56094 1757.22 5.88084C1759.65 5.06931 1762.64 4.46806 1766.38 4.86232C1765.87 5.2763 1764.82 5.84141 1765.04 6.08126C1765.3 6.36053 1766.77 6.67923 1767.95 6.6168C1772.09 6.39338 1772.97 4.83604 1776.38 5.503C1776.93 5.61143 1777.56 5.88413 1777.93 5.91698C1778.31 5.94984 1779.21 5.65742 1779.34 5.48658L1779.8 4.80976C1779.9 4.66191 1781.17 4.54034 1781.05 4.93789C1785.36 5.10874 1786.05 5.77899 1787.45 6.5708C1788.85 7.36262 1793.27 7.01435 1795.33 6.94864C1798.63 6.84022 1799.16 5.92355 1801.06 5.27959C1803.1 5.19416 1808.31 5.572 1809.44 4.8229C1809.34 4.57977 1808.27 4.05408 1809.26 3.95552C1810.71 3.81096 1812.41 4.0508 1812.3 4.22822C1811.66 5.17774 1815.08 5.41101 1815.79 5.88413C1816.39 6.27839 1814.61 6.97493 1815.33 7.22463C1816.04 7.47433 1817.13 7.7076 1818.03 7.86859C1821.37 7.06035 1821.81 6.16011 1823.29 5.16788C1824.74 4.73091 1829.36 4.92475 1831.24 5.18102L1835.06 4.35307C1835.88 4.17894 1837.06 4.30379 1837.19 4.44178C1837.29 4.55349 1836.29 4.77362 1835.8 4.85247C1832.66 5.37159 1833.57 5.90384 1835.38 6.31125C1836.93 6.65951 1839.8 6.79751 1840.78 6.18968L1845.28 3.37069C1851.7 4.48449 1857.99 3.90624 1858.61 4.11323C1860.4 4.69148 1860.17 6.08455 1865.39 5.96627C1868.92 5.88413 1869.88 4.08366 1872.64 4.34321C1874.12 4.48121 1876.03 5.2336 1877.7 4.91161C1878.11 4.83276 1878.48 4.58963 1878.73 4.29065C1879.22 3.71239 1880.8 4.07709 1881.5 4.3465L1883.21 5.01018C1884.6 5.54901 1884.55 6.19297 1886.06 6.44924C1887.45 6.68252 1890.16 6.77123 1891.29 6.33096C1892.42 5.8907 1893.2 5.38801 1894.47 5.31245C1899.31 5.02989 1902.23 5.92356 1903.1 5.1646L1903.81 4.53378C1902.55 4.26436 1904.02 3.83396 1904.87 4.11651C1904.52 5.29274 1910.46 4.84919 1910.56 5.40116C1910.6 5.618 1909.92 5.98927 1910.44 6.33096C1911.52 7.05378 1914.46 7.31663 1916.4 7.19506C1919.43 7.00779 1920.34 6.56424 1919.89 5.53915C1919.75 5.22703 1920.52 4.49435 1919 4.33993C1916.98 4.13294 1908.11 4.04095 1911.37 3.47912L1913.58 3.10128C1914.16 2.99943 1913.29 2.62817 1912.8 2.64131C1906.99 2.79244 1905.42 1.69836 1901.01 2.09919C1898.37 2.33904 1895.67 2.59202 1894.52 3.53497L1885.59 3.14728C1883.29 1.31395 1873.66 0.617416 1871.34 1.2121L1866.63 2.42446C1864.21 3.04543 1859.14 2.73659 1855.81 2.87458C1851.85 1.13982 1844.04 0.827689 1838.16 1.90206C1836.4 2.22404 1838.79 3.89309 1835.16 3.55468C1819.53 4.64548 1816.14 0.203437 1806.3 1.81992C1803.71 2.24375 1802.1 2.914 1803.67 3.95552C1792.98 3.88981 1791.07 5.02003 1785.6 2.84501C1783.45 1.98748 1779 1.8692 1775.86 2.03348C1772.72 2.19775 1771.26 2.7563 1770.26 3.71239C1757.52 3.63353 1754.66 -0.0922641 1743.1 1.33694C1741.38 1.5505 1740.35 2.27332 1739.32 2.81543C1734.63 3.16699 1727.98 3.37069 1723.88 2.56902C1719.68 1.74763 1714.79 1.10038 1709.94 2.06633C1708.75 2.30289 1708.53 3.07828 1708.28 3.64339L1696.62 3.74852L1687.3 2.01048C1684.24 1.91848 1681.64 1.92834 1679.42 2.36531C1678.14 2.62158 1677.42 3.24255 1677.05 4.02779C1672.17 3.6171 1667.84 3.58753 1662.7 3.61382C1659.4 1.5735 1651.03 0.614121 1643.97 1.7772C1641.48 2.18789 1641.43 2.98628 1640.59 3.65324C1636.8 2.68401 1631.09 3.50539 1627.67 3.2754C1622.16 2.39488 1617.93 1.05767 1611.13 0.978814C1606.36 0.92296 1603.12 1.6852 1602.16 2.88771C1597.2 2.90414 1592.26 3.57439 1587.48 3.20641C1583.43 2.89099 1577.44 0.804679 1570.91 1.3895C1566.12 1.81662 1566.61 3.35754 1564.55 3.24912C1558.9 2.95013 1553.12 3.78137 1550.14 2.94028C1545.82 1.7312 1541.37 0.637115 1534.55 1.03138C1531.4 1.21208 1532.16 3.08155 1519.12 2.78586C1514.07 2.67086 1510.25 0.380842 1502.15 0.715966C1498.36 0.873672 1496.56 1.33036 1494.57 2.36202C1492.17 2.82199 1484.55 3.19983 1481.46 2.88113C1477.79 2.1156 1475.6 1.47821 1470.51 1.58992C1466.54 1.67863 1464.79 2.27988 1462.62 3.30168L1453.19 3.5251C1450.5 1.83633 1444.43 1.02809 1438.69 1.54392C1434.52 1.91847 1434.14 2.753 1432.94 3.44296C1429.41 3.88979 1420.42 3.79451 1417.63 3.02569C1414.33 2.1156 1412.73 1.55049 1407.98 1.61291C1404.24 1.6622 1401.76 2.22402 1400.36 3.41996L1388.22 2.73657C1385.37 1.17922 1375.66 -0.154706 1370.46 1.09051C1367.05 1.90861 1366.47 2.3653 1361.37 2.50001C1356.57 2.62486 1353.54 2.81542 1349.99 1.57677C1348.1 0.916377 1342.65 0.804669 1340.04 1.16608C1336.92 1.59977 1335.63 2.46715 1336.09 3.56452C1332.05 3.56123 1328.16 4.08692 1324.4 3.76494L1318.05 2.20431C1315.04 1.90861 1312.54 1.55377 1309.9 1.79361C1303.41 2.38172 1307.02 3.72551 1301.23 4.17234C1299.61 4.29719 1298.82 3.6368 1297.67 3.30167L1294.16 3.98506C1292.18 4.36947 1291.47 2.20102 1283.02 2.03346C1279.48 1.96446 1277.3 2.93369 1275.03 3.6138C1272.52 3.50866 1269.05 3.22611 1266.23 3.63351C1263.38 2.29958 1259.29 1.29421 1253.68 1.00508C1248.06 0.715956 1243.87 1.33035 1243.08 2.85484L1228.68 3.37724C1224.81 2.41458 1220.15 1.78375 1214.88 1.63262C1210.42 1.50448 1207.74 2.49671 1208.09 3.54151C1192.17 5.14157 1192.76 2.33901 1186.47 2.30287C1183.21 2.28644 1179.52 2.1123 1177.93 3.10125C1177.31 3.48237 1177.51 4.22162 1176.59 4.23805L1172.61 4.31033C1160.77 5.3387 1161.97 1.72461 1151.96 1.9776C1148.74 2.05973 1146.24 2.63799 1144.79 3.63679C1140.92 3.33452 1137.9 3.20967 1133.48 3.30824C1132.77 1.68518 1127.83 1.16607 1122.55 0.939366C1116.9 0.696236 1114.58 1.51433 1111.83 2.46385L1094.85 3.05197C1091.5 1.33692 1083.61 0.837513 1077.63 1.65561C1076.49 2.10573 1075.68 2.72341 1074.23 2.96983C1072.01 2.24372 1069.42 2.02688 1066.84 1.93817C1063.42 1.82317 1057.27 4.57317 1043.3 3.43309C1037.75 0.909793 1028.05 0.972217 1026.82 1.57018L1024.35 2.76612C1017.97 3.81421 1010.97 2.87454 1006.34 1.68846C1004.39 1.18906 1000.48 1.21863 998.64 1.16935C996.076 1.10035 994.825 2.19115 993.162 2.39157C989.198 2.86468 984.47 2.86797 980.343 2.98296C975.566 1.19563 966.712 0.758655 962.885 1.94802C961.134 2.49013 960.884 3.0421 961.084 4.04419C957.495 3.3838 953.443 3.8142 949.766 4.00148C945.539 2.80883 939.673 1.61946 933.295 2.55913C931.069 2.88768 930.169 3.72549 929.131 4.28403L917.613 4.22489C916.775 3.01582 913.16 2.26671 909.321 2.15501C905.181 2.03344 902.343 2.69383 900.367 3.77477L889.023 2.8154C886.36 1.30405 879.219 0.545092 873.416 1.22848C871.052 1.50775 870.077 2.49999 868.689 2.7924C865.762 2.64783 863.561 3.2458 860.897 3.20966L852.643 3.10124C849.267 2.36199 845.064 1.4289 840.024 1.28105C835.797 1.1562 832.696 1.70488 831.433 2.69712C827.981 5.41425 812.436 0.18368 809.71 3.92591L801.38 3.66963C801.656 2.86139 800.805 2.25685 799.242 2.00387C796.278 1.52089 790.425 1.45518 787.986 1.94144C786.811 2.178 786.561 2.71026 785.735 3.22937C785.248 3.50207 782.759 2.95667 782.134 2.80882C779.057 2.9731 775.505 2.86467 773.404 2.01701C769.953 0.63051 761.073 0.121252 756.671 1.40261C755.558 1.72788 755.245 2.46712 754.17 2.59526C753.094 2.7234 750.543 2.3357 749.255 2.4277C747.354 2.5624 745.778 2.94353 744.34 2.96653C741.013 3.02238 739.463 0.811214 728.745 1.43546C724.793 1.66545 724.093 2.78253 722.842 3.60392C719.34 3.54806 714.976 3.29508 711.449 3.70577C708.535 2.18785 703.595 1.42561 697.667 1.68188C695.391 1.78044 693.903 2.07286 692.515 2.49341C691.639 2.75953 692.227 3.38707 691.964 3.82733C687.825 4.4023 679.096 4.48115 675.794 3.46921C672.117 2.34884 665.989 0.886778 661.124 2.25356C658.398 3.01909 656.034 3.5612 651.795 3.58092C648.13 3.59734 647.142 2.79239 644.466 2.08928C640.201 0.968915 631.585 0.564794 626.495 1.35004C625.157 1.55703 625.244 2.5394 624.081 2.62482C622.63 2.72996 620.392 2.38498 618.378 2.38827C615.852 2.38827 611.925 2.98952 609.249 2.4934C603.458 1.4256 598.694 0.27238 592.265 1.41903C590.79 1.68187 590.702 2.7201 589.289 3.05523C584.912 4.09674 578.196 3.35093 574.569 2.46712C571.905 1.81987 568.254 1.83958 565.165 2.12871C562.889 2.34227 562.263 3.13079 560.362 3.79447C557.924 4.64214 550.17 4.40887 547.756 3.62034C544.942 2.70039 543.366 2.21084 539.327 2.24698C535.65 2.28312 532.949 2.51968 530.835 3.63019C527.846 3.46263 522.769 3.45935 520.793 2.78581C517.441 1.64902 512.964 0.748779 507.336 0.873629C502.609 0.978766 500.771 1.89872 500.008 2.87452C496.844 2.65439 492.692 2.57225 489.728 3.26221L479.385 1.81C475.958 1.33032 473.707 1.22846 470.681 1.6523C468.23 1.99728 467.792 2.83181 467.067 3.44292C463.615 3.82404 459.175 3.90946 455.323 3.97189C452.209 2.56568 447.182 2.31598 441.504 2.75952L438.69 4.20844C435.088 3.90289 431.599 3.95217 427.635 3.91603C423.083 1.32374 413.578 0.610781 408.275 1.59316C406.749 1.87571 405.674 2.52953 404.798 3.22278C396.444 2.6511 393.33 3.63347 383.826 1.67201C380.224 0.929477 378.786 0.574639 374.421 0.591067C370.757 0.604209 368.956 1.38945 366.542 2.03999L350.309 2.31597C348.421 1.23832 345.494 0.738914 342.33 0.472786C339.166 0.206657 333.926 0.354507 331.675 1.12004C329.649 1.81 330.037 2.3554 325.872 2.44082C319.707 2.56567 317.906 0.400503 306.225 1.63915L302.673 3.00265C298.084 2.85151 294.344 3.06507 290.092 3.36734C282.914 0.830907 270.795 0.00623713 266.168 1.47487C264.767 1.91842 264.955 2.60838 264.892 3.28849L255.938 3.07821C249.998 3.65975 247.909 3.15378 243.82 2.31268C239.73 1.47158 226.661 0.791478 223.71 1.787C222.384 2.23383 222.434 2.79237 222.359 3.78132C218.557 3.10778 213.305 3.78789 210.341 3.75503C204.65 3.09135 199.961 1.54058 193.157 1.75742C188.668 1.90199 185.666 2.63466 186.216 3.89631C182.852 3.94888 180.401 4.12629 177.324 4.27414C170.984 4.57313 170.258 2.24368 167.507 1.80342C164.943 1.39601 154.326 1.86256 154.738 3.6926C151.599 3.23591 148.523 3.3969 145.184 3.21291C139.256 2.10569 136.267 0.27893 129.764 0.416923C125.849 0.499061 122.835 1.26788 120.884 2.1484C116.032 1.83956 111.855 3.07492 103.438 2.60509C101.25 1.11674 91.845 -0.0693383 86.7675 1.10031C84.4789 1.626 85.2793 2.30939 81.5775 2.37839C75.9372 2.48352 76.8377 1.40915 66.195 1.34016C62.9184 1.31716 61.9679 2.47695 59.8544 2.72665C51.8004 3.67946 44.2467 2.3291 39.1817 0.988602C36.5179 0.282211 32.9787 0.413633 30.4274 0.508913C27.0258 0.633764 26.8757 1.36972 24.9122 1.92498C20.6726 3.12091 13.6067 2.42109 10.4426 1.27773C7.72879 0.298638 3.92693 -0.0956262 0.0750368 0.0193673L0.0750366 4.61583L-2.03488e-07 4.65526Z" fill="#141414"/>
</svg>
