<svg width="214" height="44" viewBox="0 0 214 44" fill="none" xmlns="http://www.w3.org/2000/svg">
<path d="M197.93 3.6875L197.935 8.3291L197.936 8.77441L198.377 8.8252C204.663 9.55213 209.27 15.424 209.124 22.46C208.985 29.1438 204.421 34.6454 198.464 35.3184L198.299 35.3379L198.178 35.4512L198.056 35.5664L197.897 35.7148V40.3115H16.0664L16.0586 35.8389L16.0576 35.3936L15.6152 35.3428C14.0484 35.1643 12.5542 34.6698 11.2021 33.8359L11.1943 33.8311C6.09752 30.8141 3.70269 24.2779 5.42773 18.1592C6.85901 13.0823 10.8327 9.39374 15.6309 8.83594L16.0713 8.78516L16.0732 8.3418L16.0908 3.6875H197.93Z" fill="#FD6500" stroke="#FD6500"/>
<path d="M200.948 43.5L13.1424 43.4968C12.4765 43.4944 11.9639 42.9872 11.9643 42.3214L11.9669 38.0722C9.07534 37.2592 6.53683 35.5753 4.57621 33.283C0.419113 28.4228 -0.639241 21.5618 1.77498 15.5985C3.5855 11.1263 7.33292 7.37353 12.0126 6.03076L12.0267 1.65521C12.0285 1.0734 12.5244 0.5 13.1479 0.5L200.776 0.502146C201.467 0.499163 201.995 1.03387 201.995 1.71946L201.998 6.04614C203.451 6.43127 204.771 7.01896 205.996 7.84413C210.783 11.0687 213.566 16.5254 213.499 22.3697C213.437 27.8007 210.838 32.8781 206.454 35.9763C205.087 36.9419 203.629 37.6492 201.981 38.0591L201.966 42.3805C201.964 42.9398 201.56 43.4062 200.948 43.5ZM200.696 42.6975C200.978 42.7142 201.175 42.5779 201.175 42.3244L201.179 37.4462C202.535 37.1406 203.766 36.671 204.96 35.9678C209.689 33.1828 212.607 28.0062 212.7 22.4457C212.795 16.7962 210.084 11.4963 205.424 8.43138C204.142 7.58823 202.753 7.00326 201.216 6.67366L201.206 1.64226C201.205 1.46672 200.958 1.29846 200.773 1.31925L13.2223 1.31649C12.9674 1.34641 12.8185 1.49116 12.8185 1.71425L12.8182 6.66652C7.49701 7.91192 3.46069 12.3716 1.94364 17.6106C-0.17636 24.932 3.08146 33.0292 9.81897 36.3907C10.7733 36.8668 11.6985 37.2057 12.7467 37.4384L12.7456 42.1715C12.7456 42.4762 12.8629 42.696 13.2239 42.696L200.696 42.6975Z" fill="#FD6500" stroke="#FD6500"/>
<path d="M31.8695 26.6389L28.4955 16.6289H30.6235L32.3875 22.4249C32.5835 23.0829 32.8215 24.0209 32.8215 24.0209H32.8495C32.8495 24.0209 33.0875 23.0689 33.2835 22.4249L35.0335 16.6289H37.0915L33.7175 26.6389H31.8695ZM42.6356 26.8629C39.6816 26.8629 37.8056 24.6509 37.8056 21.6549C37.8056 18.6589 39.6816 16.4329 42.6356 16.4329C45.5896 16.4329 47.4516 18.6589 47.4516 21.6549C47.4516 24.6509 45.5896 26.8629 42.6356 26.8629ZM42.6496 25.1969C44.4836 25.1969 45.3796 23.6429 45.3796 21.6549C45.3796 19.6529 44.4836 18.0989 42.6496 18.0989C40.8156 18.0989 39.8776 19.6529 39.8776 21.6549C39.8776 23.6429 40.8156 25.1969 42.6496 25.1969ZM49.4019 26.6389V16.6289H51.4319V24.9449H56.1359V26.6389H49.4019ZM59.5047 26.6389L56.1307 16.6289H58.2587L60.0227 22.4249C60.2187 23.0829 60.4567 24.0209 60.4567 24.0209H60.4847C60.4847 24.0209 60.7227 23.0689 60.9187 22.4249L62.6687 16.6289H64.7267L61.3527 26.6389H59.5047ZM66.367 26.6389V16.6289H73.731V18.3369H68.397V20.5769H73.073V22.2429H68.397V24.9449H73.773V26.6389H66.367ZM75.875 26.6389V16.6289H80.467C82.399 16.6289 83.687 17.7489 83.687 19.4149C83.687 20.5909 83.141 21.4869 81.853 21.8369V21.8789C82.777 22.1449 83.253 22.6769 83.379 23.8949C83.519 25.3089 83.463 26.3869 83.813 26.5409V26.6389H81.867C81.615 26.5269 81.587 25.4069 81.503 24.3289C81.419 23.2369 80.803 22.6209 79.543 22.6209H77.905V26.6389H75.875ZM77.905 18.2669V21.0529H80.061C81.167 21.0529 81.713 20.4789 81.713 19.6809C81.713 18.8689 81.195 18.2669 80.117 18.2669H77.905ZM88.2977 26.6389L91.7837 16.6289H93.8837L97.4117 26.6389H95.2977L94.6257 24.5109H91.0137L90.3557 26.6389H88.2977ZM92.3857 20.0729L91.4897 22.9569H94.1357L93.2397 20.0729C93.0717 19.5409 92.8337 18.5329 92.8337 18.5329H92.8057C92.8057 18.5329 92.5537 19.5409 92.3857 20.0729ZM102.286 26.6389V16.6289H104.316V24.9449H109.02V26.6389H102.286ZM110.286 26.6389L113.772 16.6289H115.872L119.4 26.6389H117.286L116.614 24.5109H113.002L112.344 26.6389H110.286ZM114.374 20.0729L113.478 22.9569H116.124L115.228 20.0729C115.06 19.5409 114.822 18.5329 114.822 18.5329H114.794C114.794 18.5329 114.542 19.5409 114.374 20.0729ZM131.611 26.6389L131.541 25.2949H131.513C130.827 26.4429 129.889 26.8489 128.699 26.8489C127.187 26.8489 126.011 26.3029 125.185 25.3929C124.359 24.4689 123.883 23.1809 123.883 21.6689C123.883 20.0029 124.471 18.5469 125.521 17.5809C126.333 16.8389 127.397 16.4329 128.741 16.4329C131.261 16.4329 132.703 17.8189 133.025 19.7789H131.037C130.813 18.8129 130.071 18.1129 128.783 18.1129C126.893 18.1129 125.955 19.6809 125.955 21.6689C125.955 23.7129 127.033 25.2109 128.755 25.2109C130.309 25.2109 131.331 24.0489 131.331 22.9429V22.8869H128.923V21.3189H133.137V26.6389H131.611ZM134.668 26.6389L138.154 16.6289H140.254L143.782 26.6389H141.668L140.996 24.5109H137.384L136.726 26.6389H134.668ZM138.756 20.0729L137.86 22.9569H140.506L139.61 20.0729C139.442 19.5409 139.204 18.5329 139.204 18.5329H139.176C139.176 18.5329 138.924 19.5409 138.756 20.0729ZM145.464 26.6389V16.6289H147.494V24.9449H152.198V26.6389H145.464ZM154.125 26.6389V16.6289H161.489V18.3369H156.155V20.5769H160.831V22.2429H156.155V24.9449H161.531V26.6389H154.125ZM163.633 26.6389V16.6289H168.225C170.157 16.6289 171.445 17.7489 171.445 19.4149C171.445 20.5909 170.899 21.4869 169.611 21.8369V21.8789C170.535 22.1449 171.011 22.6769 171.137 23.8949C171.277 25.3089 171.221 26.3869 171.571 26.5409V26.6389H169.625C169.373 26.5269 169.345 25.4069 169.261 24.3289C169.177 23.2369 168.561 22.6209 167.301 22.6209H165.663V26.6389H163.633ZM165.663 18.2669V21.0529H167.819C168.925 21.0529 169.471 20.4789 169.471 19.6809C169.471 18.8689 168.953 18.2669 167.875 18.2669H165.663ZM173.606 26.6389V16.6289H175.636V26.6389H173.606ZM176.672 14.3469L175.342 16.0969H173.858L174.446 14.3469H176.672ZM177.299 26.6389L180.785 16.6289H182.885L186.413 26.6389H184.299L183.627 24.5109H180.015L179.357 26.6389H177.299ZM181.387 20.0729L180.491 22.9569H183.137L182.241 20.0729C182.073 19.5409 181.835 18.5329 181.835 18.5329H181.807C181.807 18.5329 181.555 19.5409 181.387 20.0729Z" fill="#F3EEE1"/>
</svg>
