<svg width="263" height="46" viewBox="0 0 263 46" fill="none" xmlns="http://www.w3.org/2000/svg">
<path d="M247.501 45.3251L15.6101 45.3217C14.7879 45.3192 14.1549 44.7845 14.1555 44.0828L14.1586 39.6038C10.5883 38.7468 7.45393 36.9718 5.03307 34.5556C-0.0998743 29.4326 -1.40667 22.2006 1.57427 15.9149C3.80979 11.2009 8.43689 7.24519 14.2151 5.82981L14.2325 1.21768C14.2348 0.604403 14.8471 0 15.6169 0L247.289 0.00226191C248.142 -0.000882133 248.794 0.562734 248.795 1.2854L248.798 5.84603C250.593 6.25198 252.222 6.87145 253.734 7.74124C259.645 11.1401 263.081 16.8919 262.999 23.0522C262.922 28.7769 259.713 34.1289 254.3 37.3946C252.613 38.4123 250.812 39.1579 248.777 39.59L248.759 44.145C248.757 44.7346 248.257 45.2262 247.501 45.3251ZM247.19 44.4792C247.539 44.4968 247.781 44.3531 247.782 44.0859L247.787 38.944C249.461 38.6218 250.981 38.1268 252.455 37.3856C258.294 34.45 261.897 28.9935 262.013 23.1324C262.13 17.1774 258.782 11.5908 253.028 8.36025C251.445 7.4715 249.731 6.8549 247.833 6.50748L247.82 1.20403C247.819 1.01899 247.514 0.84163 247.285 0.863546L15.7087 0.860643C15.394 0.892176 15.2102 1.04475 15.2102 1.27991L15.2098 6.49996C8.6395 7.81269 3.65568 12.5135 1.78253 18.0358C-0.83513 25.7531 3.18744 34.2881 11.5065 37.8314C12.6849 38.3332 13.8272 38.6904 15.1215 38.9358L15.1202 43.9247C15.1202 44.2459 15.2649 44.4776 15.7107 44.4776L247.19 44.4792Z" fill="#B9D6FE"/>
<path d="M54.402 27.001L51.028 16.991H53.156L54.92 22.787C55.116 23.445 55.354 24.383 55.354 24.383H55.382C55.382 24.383 55.62 23.431 55.816 22.787L57.566 16.991H59.624L56.25 27.001H54.402ZM61.2643 27.001V16.991H68.6283V18.699H63.2943V20.939H67.9703V22.605H63.2943V25.307H68.6703V27.001H61.2643ZM70.7723 27.001V16.991H75.3643C77.2963 16.991 78.5843 18.111 78.5843 19.777C78.5843 20.953 78.0383 21.849 76.7503 22.199V22.241C77.6743 22.507 78.1503 23.039 78.2763 24.257C78.4163 25.671 78.3603 26.749 78.7103 26.903V27.001H76.7643C76.5123 26.889 76.4843 25.769 76.4003 24.691C76.3163 23.599 75.7003 22.983 74.4403 22.983H72.8023V27.001H70.7723ZM72.8023 18.629V21.415H74.9583C76.0643 21.415 76.6103 20.841 76.6103 20.043C76.6103 19.231 76.0923 18.629 75.0143 18.629H72.8023ZM83.923 27.001V16.991H91.091V18.713H85.953V21.121H90.307V22.857H85.953V27.001H83.923ZM93.0895 27.001V16.991H95.1195V27.001H93.0895ZM101.893 27.211C99.0792 27.211 97.0772 25.041 97.0772 22.031C97.0772 19.063 98.9252 16.795 101.879 16.795C104.343 16.795 105.799 18.265 106.009 20.169H103.993C103.811 19.161 103.055 18.503 101.879 18.503C100.031 18.503 99.1492 20.043 99.1492 22.031C99.1492 24.075 100.213 25.545 101.893 25.545C103.083 25.545 103.923 24.831 104.049 23.781H106.037C105.981 24.663 105.603 25.517 104.931 26.147C104.245 26.791 103.279 27.211 101.893 27.211ZM107.921 27.001V16.991H109.951V20.911H113.885V16.991H115.915V27.001H113.885V22.591H109.951V27.001H107.921ZM117.563 27.001L121.049 16.991H123.149L126.677 27.001H124.563L123.891 24.873H120.279L119.621 27.001H117.563ZM121.651 20.435L120.755 23.319H123.401L122.505 20.435C122.337 19.903 122.099 18.895 122.099 18.895H122.071C122.071 18.895 121.819 19.903 121.651 20.435ZM135.933 27.211C133.119 27.211 131.117 25.041 131.117 22.031C131.117 19.063 132.965 16.795 135.919 16.795C138.383 16.795 139.839 18.265 140.049 20.169H138.033C137.851 19.161 137.095 18.503 135.919 18.503C134.071 18.503 133.189 20.043 133.189 22.031C133.189 24.075 134.253 25.545 135.933 25.545C137.123 25.545 137.963 24.831 138.089 23.781H140.077C140.021 24.663 139.643 25.517 138.971 26.147C138.285 26.791 137.319 27.211 135.933 27.211ZM146.357 27.225C143.403 27.225 141.527 25.013 141.527 22.017C141.527 19.021 143.403 16.795 146.357 16.795C149.311 16.795 151.173 19.021 151.173 22.017C151.173 25.013 149.311 27.225 146.357 27.225ZM146.371 25.559C148.205 25.559 149.101 24.005 149.101 22.017C149.101 20.015 148.205 18.461 146.371 18.461C144.537 18.461 143.599 20.015 143.599 22.017C143.599 24.005 144.537 25.559 146.371 25.559ZM153.123 27.001V16.991H155.979L157.393 22.017C157.743 23.277 158.023 24.719 158.023 24.719H158.051C158.051 24.719 158.317 23.277 158.667 22.017L160.081 16.991H162.979V27.001H161.089V21.261C161.089 20.449 161.173 19.189 161.173 19.189H161.145C161.145 19.189 160.921 20.365 160.711 21.093L158.989 27.001H157.043L155.363 21.093C155.153 20.365 154.929 19.189 154.929 19.189H154.901C154.901 19.189 154.985 20.449 154.985 21.261V27.001H153.123ZM165.366 27.001V16.991H169.762C170.924 16.991 171.792 17.327 172.38 17.929C172.94 18.503 173.276 19.287 173.276 20.211C173.276 22.101 172.03 23.375 169.93 23.375H167.466V27.001H165.366ZM167.466 18.755V21.723H169.566C170.63 21.723 171.19 21.135 171.19 20.225C171.19 19.287 170.602 18.755 169.594 18.755H167.466ZM175.12 27.001V16.991H177.15V25.307H181.854V27.001H175.12ZM183.78 27.001V16.991H191.144V18.699H185.81V20.939H190.486V22.605H185.81V25.307H191.186V27.001H183.78ZM192.77 18.699V16.991H200.82V18.699H197.81V27.001H195.78V18.699H192.77ZM200.701 27.001L204.187 16.991H206.287L209.815 27.001H207.701L207.029 24.873H203.417L202.759 27.001H200.701ZM204.789 20.435L203.893 23.319H206.539L205.643 20.435C205.475 19.903 205.237 18.895 205.237 18.895H205.209C205.209 18.895 204.957 19.903 204.789 20.435Z" fill="#B9D6FE"/>
</svg>
