<svg width="585" height="33" viewBox="0 0 585 33" fill="none" xmlns="http://www.w3.org/2000/svg">
<path d="M104.512 4L104.515 7.05273V7.48242L104.94 7.54688C106.48 7.78134 107.856 8.85068 108.85 10.5146C109.843 12.1764 110.429 14.3946 110.391 16.8174C110.355 19.1178 109.738 21.2097 108.754 22.7725C107.769 24.3381 106.441 25.3364 104.986 25.5527L104.793 25.5811L104.671 25.7324L104.607 25.8115L104.496 25.9492V28.999H9.48584L9.48193 26.0625L9.48096 25.6328L9.05615 25.5693L8.76904 25.5166C8.10415 25.3709 7.46435 25.066 6.87158 24.585L6.86377 24.5791L6.62451 24.3818C4.19233 22.2794 3.01859 17.9627 3.89795 13.8574C4.65338 10.3312 6.71982 7.91349 9.06494 7.55469L9.48877 7.49023L9.48975 7.06152L9.49854 4H104.512Z" fill="#F3EEE1" stroke="#F3EEE1"/>
<path d="M106.841 32.5L7.20701 32.4976C6.85375 32.4958 6.58178 32.1184 6.58202 31.6229L6.58337 28.4607C5.04936 27.8557 3.70264 26.6025 2.6625 24.8967C0.457088 21.2797 -0.104386 16.1739 1.1764 11.7361C2.13691 8.40796 4.12497 5.61518 6.60763 4.61591L6.61509 1.35969C6.61608 0.926715 6.87915 0.5 7.20991 0.5L106.749 0.501597C107.116 0.499377 107.396 0.897297 107.397 1.40751L107.398 4.62736C108.169 4.91397 108.869 5.35132 109.519 5.9654C112.058 8.36506 113.535 12.4259 113.499 16.7751C113.466 20.8168 112.088 24.5953 109.762 26.901C109.037 27.6195 108.263 28.1459 107.389 28.451L107.381 31.6669C107.38 32.0831 107.166 32.4302 106.841 32.5ZM106.707 31.9028C106.857 31.9152 106.961 31.8138 106.961 31.6251L106.964 27.9949C107.683 27.7674 108.336 27.4179 108.969 26.8947C111.478 24.8221 113.026 20.9697 113.076 16.8317C113.126 12.6274 111.688 8.68326 109.215 6.40243C108.535 5.77496 107.799 5.33963 106.983 5.09435L106.978 1.35006C106.978 1.21942 106.846 1.0942 106.748 1.10967L7.24937 1.10762C7.11416 1.12989 7.03516 1.23761 7.03516 1.40363L7.035 5.08904C4.21203 6.01584 2.07069 9.33469 1.26588 13.2335C0.14118 18.682 1.86951 24.7078 5.44387 27.2094C5.95016 27.5637 6.44098 27.8159 6.99705 27.9891L6.9965 31.5113C6.9965 31.7381 7.0587 31.9017 7.25024 31.9017L106.707 31.9028Z" stroke="#F3EEE1"/>
<path d="M21.8658 13.198V11.49H29.9158V13.198H26.9058V21.5H24.8758V13.198H21.8658ZM35.6862 21.724C32.7322 21.724 30.8562 19.512 30.8562 16.516C30.8562 13.52 32.7322 11.294 35.6862 11.294C38.6402 11.294 40.5022 13.52 40.5022 16.516C40.5022 19.512 38.6402 21.724 35.6862 21.724ZM35.7002 20.058C37.5342 20.058 38.4302 18.504 38.4302 16.516C38.4302 14.514 37.5342 12.96 35.7002 12.96C33.8662 12.96 32.9282 14.514 32.9282 16.516C32.9282 18.504 33.8662 20.058 35.7002 20.058ZM42.4525 21.5V11.49H46.3585C49.0325 11.49 50.7545 13.646 50.7545 16.6C50.7545 18.224 50.2085 19.652 49.1585 20.534C48.4165 21.15 47.4505 21.5 46.1905 21.5H42.4525ZM44.4825 19.75H46.0505C47.9545 19.75 48.6965 18.588 48.6965 16.6C48.6965 14.612 47.8285 13.226 46.1065 13.226H44.4825V19.75ZM57.0947 21.724C54.1407 21.724 52.2647 19.512 52.2647 16.516C52.2647 13.52 54.1407 11.294 57.0947 11.294C60.0487 11.294 61.9107 13.52 61.9107 16.516C61.9107 19.512 60.0487 21.724 57.0947 21.724ZM57.1087 20.058C58.9427 20.058 59.8387 18.504 59.8387 16.516C59.8387 14.514 58.9427 12.96 57.1087 12.96C55.2747 12.96 54.3367 14.514 54.3367 16.516C54.3367 18.504 55.2747 20.058 57.1087 20.058ZM69.3485 23.334C68.2145 21.78 67.2205 19.75 67.2205 17.188C67.2205 14.542 68.2285 12.414 69.3345 10.944H70.9585C69.9365 12.554 69.2085 14.486 69.2085 17.188C69.2085 19.708 69.9785 21.668 70.9445 23.334H69.3485ZM74.1549 21.5V14.808H71.9849V13.548C73.1609 13.506 74.2109 13.072 74.4069 11.84H76.0729V21.5H74.1549ZM82.3533 21.724C79.9033 21.724 78.3493 19.764 78.3493 16.712C78.3493 13.646 79.9313 11.7 82.3673 11.7C84.8453 11.7 86.3573 13.632 86.3573 16.712C86.3573 19.764 84.8453 21.724 82.3533 21.724ZM82.3673 20.1C83.7953 20.1 84.3693 18.77 84.3693 16.712C84.3693 14.682 83.7813 13.324 82.3673 13.324C80.9393 13.324 80.3373 14.668 80.3373 16.712C80.3373 18.742 80.9393 20.1 82.3673 20.1ZM87.7287 23.334C88.6947 21.668 89.4647 19.708 89.4647 17.188C89.4647 14.486 88.7367 12.554 87.7147 10.944H89.3387C90.4447 12.414 91.4527 14.542 91.4527 17.188C91.4527 19.75 90.4587 21.78 89.3247 23.334H87.7287Z" fill="#520345"/>
<path d="M420.189 32.5L280.878 32.4976C280.384 32.4958 280.004 32.1184 280.004 31.6229L280.006 28.4607C277.861 27.8557 275.978 26.6025 274.524 24.8967C271.44 21.2797 270.655 16.1739 272.446 11.7361C273.789 8.40796 276.569 5.61518 280.04 4.61591L280.05 1.35969C280.052 0.926715 280.42 0.5 280.882 0.5L420.061 0.501597C420.574 0.499377 420.966 0.897297 420.966 1.40751L420.968 4.62736C422.046 4.91397 423.025 5.35132 423.934 5.9654C427.484 8.36506 429.549 12.4259 429.499 16.7751C429.453 20.8168 427.525 24.5953 424.273 26.901C423.26 27.6195 422.178 28.1459 420.955 28.451L420.944 31.6669C420.943 32.0831 420.643 32.4302 420.189 32.5ZM420.002 31.9028C420.212 31.9152 420.357 31.8138 420.357 31.6251L420.361 27.9949C421.367 27.7674 422.279 27.4179 423.165 26.8947C426.673 24.8221 428.837 20.9697 428.907 16.8317C428.977 12.6274 426.966 8.68326 423.509 6.40243C422.558 5.77496 421.528 5.33963 420.388 5.09435L420.38 1.35006C420.38 1.21942 420.197 1.0942 420.059 1.10967L280.937 1.10762C280.748 1.12989 280.638 1.23761 280.638 1.40363L280.637 5.08904C276.69 6.01584 273.696 9.33469 272.571 13.2335C270.998 18.682 273.415 24.7078 278.413 27.2094C279.121 27.5637 279.807 27.8159 280.584 27.9891L280.584 31.5113C280.584 31.7381 280.671 31.9017 280.938 31.9017L420.002 31.9028Z" stroke="#F3EEE1"/>
<path d="M287.498 21.5V11.49H291.404C294.078 11.49 295.8 13.646 295.8 16.6C295.8 18.224 295.254 19.652 294.204 20.534C293.462 21.15 292.496 21.5 291.236 21.5H287.498ZM289.528 19.75H291.096C293 19.75 293.742 18.588 293.742 16.6C293.742 14.612 292.874 13.226 291.152 13.226H289.528V19.75ZM302.141 21.724C299.187 21.724 297.311 19.512 297.311 16.516C297.311 13.52 299.187 11.294 302.141 11.294C305.095 11.294 306.957 13.52 306.957 16.516C306.957 19.512 305.095 21.724 302.141 21.724ZM302.155 20.058C303.989 20.058 304.885 18.504 304.885 16.516C304.885 14.514 303.989 12.96 302.155 12.96C300.321 12.96 299.383 14.514 299.383 16.516C299.383 18.504 300.321 20.058 302.155 20.058ZM313.289 21.71C310.475 21.71 308.473 19.54 308.473 16.53C308.473 13.562 310.321 11.294 313.275 11.294C315.739 11.294 317.195 12.764 317.405 14.668H315.389C315.207 13.66 314.451 13.002 313.275 13.002C311.427 13.002 310.545 14.542 310.545 16.53C310.545 18.574 311.609 20.044 313.289 20.044C314.479 20.044 315.319 19.33 315.445 18.28H317.433C317.377 19.162 316.999 20.016 316.327 20.646C315.641 21.29 314.675 21.71 313.289 21.71ZM323.181 21.668C320.591 21.668 319.233 20.45 319.233 18.28V11.49H321.263V18.28C321.263 19.316 321.781 20.044 323.139 20.044C324.427 20.044 325.029 19.288 325.029 18.252V11.49H327.059V18.28C327.059 20.422 325.743 21.668 323.181 21.668ZM329.358 21.5V11.49H332.214L333.628 16.516C333.978 17.776 334.258 19.218 334.258 19.218H334.286C334.286 19.218 334.552 17.776 334.902 16.516L336.316 11.49H339.214V21.5H337.324V15.76C337.324 14.948 337.408 13.688 337.408 13.688H337.38C337.38 13.688 337.156 14.864 336.946 15.592L335.224 21.5H333.278L331.598 15.592C331.388 14.864 331.164 13.688 331.164 13.688H331.136C331.136 13.688 331.22 14.948 331.22 15.76V21.5H329.358ZM341.601 21.5V11.49H348.965V13.198H343.631V15.438H348.307V17.104H343.631V19.806H349.007V21.5H341.601ZM351.109 21.5V11.49H353.167L356.499 17.076C356.821 17.622 357.199 18.476 357.199 18.476H357.227C357.227 18.476 357.171 17.44 357.171 16.74V11.49H359.173V21.5H357.213L353.797 15.97C353.475 15.438 353.083 14.584 353.083 14.584H353.055C353.055 14.584 353.111 15.634 353.111 16.334V21.5H351.109ZM361.028 13.198V11.49H369.078V13.198H366.068V21.5H364.038V13.198H361.028ZM374.849 21.724C371.895 21.724 370.019 19.512 370.019 16.516C370.019 13.52 371.895 11.294 374.849 11.294C377.803 11.294 379.665 13.52 379.665 16.516C379.665 19.512 377.803 21.724 374.849 21.724ZM374.863 20.058C376.697 20.058 377.593 18.504 377.593 16.516C377.593 14.514 376.697 12.96 374.863 12.96C373.029 12.96 372.091 14.514 372.091 16.516C372.091 18.504 373.029 20.058 374.863 20.058ZM385.493 21.724C382.777 21.724 381.237 20.52 381.167 18.406H383.155C383.295 19.61 383.981 20.086 385.409 20.086C386.445 20.086 387.355 19.722 387.355 18.798C387.355 17.818 386.403 17.622 384.877 17.272C383.085 16.866 381.447 16.39 381.447 14.304C381.447 12.33 383.057 11.308 385.283 11.308C387.537 11.308 388.993 12.414 389.147 14.43H387.201C387.089 13.422 386.305 12.918 385.269 12.918C384.177 12.918 383.463 13.38 383.463 14.094C383.463 14.906 384.163 15.144 385.647 15.466C387.705 15.914 389.385 16.404 389.385 18.56C389.385 20.59 387.747 21.724 385.493 21.724ZM396.925 23.334C395.791 21.78 394.797 19.75 394.797 17.188C394.797 14.542 395.805 12.414 396.911 10.944H398.535C397.513 12.554 396.785 14.486 396.785 17.188C396.785 19.708 397.555 21.668 398.521 23.334H396.925ZM404.026 21.5V19.414H399.602V17.356L403.956 11.798H405.888V17.888H407.344V19.414H405.888V21.5H404.026ZM401.142 17.846V17.888H404.026V14.164H403.998L401.142 17.846ZM408.614 23.334C409.58 21.668 410.35 19.708 410.35 17.188C410.35 14.486 409.622 12.554 408.6 10.944H410.224C411.33 12.414 412.338 14.542 412.338 17.188C412.338 19.75 411.344 21.78 410.21 23.334H408.614Z" fill="#F3EEE1"/>
<path d="M576.191 32.5L451.869 32.4976C451.428 32.4958 451.089 32.1184 451.089 31.6229L451.091 28.4607C449.177 27.8557 447.496 26.6025 446.198 24.8967C443.446 21.2797 442.746 16.1739 444.344 11.7361C445.543 8.40796 448.023 5.61518 451.121 4.61591L451.13 1.35969C451.132 0.926715 451.46 0.5 451.873 0.5L576.077 0.501597C576.534 0.499377 576.884 0.897297 576.884 1.40751L576.886 4.62736C577.848 4.91397 578.722 5.35132 579.532 5.9654C582.701 8.36506 584.544 12.4259 584.499 16.7751C584.458 20.8168 582.738 24.5953 579.836 26.901C578.931 27.6195 577.966 28.1459 576.874 28.451L576.865 31.6669C576.864 32.0831 576.596 32.4302 576.191 32.5ZM576.024 31.9028C576.211 31.9152 576.341 31.8138 576.341 31.6251L576.344 27.9949C577.242 27.7674 578.056 27.4179 578.847 26.8947C581.977 24.8221 583.909 20.9697 583.971 16.8317C584.034 12.6274 582.239 8.68326 579.154 6.40243C578.305 5.77496 577.386 5.33963 576.369 5.09435L576.362 1.35006C576.361 1.21942 576.198 1.0942 576.075 1.10967L451.922 1.10762C451.753 1.12989 451.654 1.23761 451.654 1.40363L451.654 5.08904C448.132 6.01584 445.46 9.33469 444.456 13.2335C443.052 18.682 445.209 24.7078 449.669 27.2094C450.301 27.5637 450.913 27.8159 451.607 27.9891L451.606 31.5113C451.606 31.7381 451.684 31.9017 451.923 31.9017L576.024 31.9028Z" stroke="#F3EEE1"/>
<path d="M464.713 21.5V11.49H469.305C471.237 11.49 472.525 12.61 472.525 14.276C472.525 15.452 471.979 16.348 470.691 16.698V16.74C471.615 17.006 472.091 17.538 472.217 18.756C472.357 20.17 472.301 21.248 472.651 21.402V21.5H470.705C470.453 21.388 470.425 20.268 470.341 19.19C470.257 18.098 469.641 17.482 468.381 17.482H466.743V21.5H464.713ZM466.743 13.128V15.914H468.899C470.005 15.914 470.551 15.34 470.551 14.542C470.551 13.73 470.033 13.128 468.955 13.128H466.743ZM474.672 21.5V11.49H482.036V13.198H476.702V15.438H481.378V17.104H476.702V19.806H482.078V21.5H474.672ZM483.662 13.198V11.49H491.712V13.198H488.702V21.5H486.672V13.198H483.662ZM493.578 21.5V11.49H498.17C500.102 11.49 501.39 12.61 501.39 14.276C501.39 15.452 500.844 16.348 499.556 16.698V16.74C500.48 17.006 500.956 17.538 501.082 18.756C501.222 20.17 501.166 21.248 501.516 21.402V21.5H499.57C499.318 21.388 499.29 20.268 499.206 19.19C499.122 18.098 498.506 17.482 497.246 17.482H495.608V21.5H493.578ZM495.608 13.128V15.914H497.764C498.87 15.914 499.416 15.34 499.416 14.542C499.416 13.73 498.898 13.128 497.82 13.128H495.608ZM502.878 21.5L506.364 11.49H508.464L511.992 21.5H509.878L509.206 19.372H505.594L504.936 21.5H502.878ZM506.966 14.934L506.07 17.818H508.716L507.82 14.934C507.652 14.402 507.414 13.394 507.414 13.394H507.386C507.386 13.394 507.134 14.402 506.966 14.934ZM511.898 13.198V11.49H519.948V13.198H516.938V21.5H514.908V13.198H511.898ZM525.719 21.724C522.765 21.724 520.889 19.512 520.889 16.516C520.889 13.52 522.765 11.294 525.719 11.294C528.673 11.294 530.535 13.52 530.535 16.516C530.535 19.512 528.673 21.724 525.719 21.724ZM525.733 20.058C527.567 20.058 528.463 18.504 528.463 16.516C528.463 14.514 527.567 12.96 525.733 12.96C523.899 12.96 522.961 14.514 522.961 16.516C522.961 18.504 523.899 20.058 525.733 20.058ZM536.363 21.724C533.647 21.724 532.107 20.52 532.037 18.406H534.025C534.165 19.61 534.851 20.086 536.279 20.086C537.315 20.086 538.225 19.722 538.225 18.798C538.225 17.818 537.273 17.622 535.747 17.272C533.955 16.866 532.317 16.39 532.317 14.304C532.317 12.33 533.927 11.308 536.153 11.308C538.407 11.308 539.863 12.414 540.017 14.43H538.071C537.959 13.422 537.175 12.918 536.139 12.918C535.047 12.918 534.333 13.38 534.333 14.094C534.333 14.906 535.033 15.144 536.517 15.466C538.575 15.914 540.255 16.404 540.255 18.56C540.255 20.59 538.617 21.724 536.363 21.724ZM547.795 23.334C546.661 21.78 545.667 19.75 545.667 17.188C545.667 14.542 546.675 12.414 547.781 10.944H549.405C548.383 12.554 547.655 14.486 547.655 17.188C547.655 19.708 548.425 21.668 549.391 23.334H547.795ZM554.399 21.71C551.921 21.71 550.647 20.338 550.619 18.238H552.439C552.509 19.386 553.013 20.184 554.329 20.184C555.393 20.184 556.023 19.61 556.023 18.63C556.023 17.706 555.435 17.146 554.259 17.146H553.671V15.704H554.217C555.127 15.704 555.771 15.242 555.771 14.43C555.771 13.674 555.253 13.17 554.413 13.17C553.321 13.17 552.789 13.884 552.747 14.878H550.927C550.997 12.988 552.187 11.714 554.413 11.714C556.415 11.714 557.703 12.708 557.703 14.304C557.703 15.382 557.017 16.012 556.065 16.32V16.348C557.283 16.642 558.011 17.426 558.011 18.756C558.011 20.744 556.373 21.71 554.399 21.71ZM559.374 23.334C560.34 21.668 561.11 19.708 561.11 17.188C561.11 14.486 560.382 12.554 559.36 10.944H560.984C562.09 12.414 563.098 14.542 563.098 17.188C563.098 19.75 562.104 21.78 560.97 23.334H559.374Z" fill="#F3EEE1"/>
<path d="M249.839 32.5L135.216 32.4976C134.81 32.4958 134.497 32.1184 134.497 31.6229L134.499 28.4607C132.734 27.8557 131.184 26.6025 129.988 24.8967C127.451 21.2797 126.805 16.1739 128.278 11.7361C129.383 8.40796 131.67 5.61518 134.526 4.61591L134.535 1.35969C134.536 0.926715 134.839 0.5 135.219 0.5L249.734 0.501597C250.156 0.499377 250.478 0.897297 250.478 1.40751L250.48 4.62736C251.367 4.91397 252.172 5.35132 252.92 5.9654C255.841 8.36506 257.54 12.4259 257.499 16.7751C257.461 20.8168 255.875 24.5953 253.199 26.901C252.366 27.6195 251.475 28.1459 250.469 28.451L250.461 31.6669C250.459 32.0831 250.213 32.4302 249.839 32.5ZM249.685 31.9028C249.858 31.9152 249.977 31.8138 249.978 31.6251L249.98 27.9949C250.808 27.7674 251.559 27.4179 252.288 26.8947C255.174 24.8221 256.955 20.9697 257.012 16.8317C257.07 12.6274 255.415 8.68326 252.571 6.40243C251.788 5.77496 250.941 5.33963 250.003 5.09435L249.996 1.35006C249.996 1.21942 249.845 1.0942 249.732 1.10967L135.265 1.10762C135.109 1.12989 135.018 1.23761 135.018 1.40363L135.018 5.08904C131.77 6.01584 129.307 9.33469 128.381 13.2335C127.087 18.682 129.076 24.7078 133.188 27.2094C133.77 27.5637 134.335 27.8159 134.974 27.9891L134.974 31.5113C134.974 31.7381 135.045 31.9017 135.266 31.9017L249.685 31.9028Z" fill="#FD6500" stroke="#F3EEE1"/>
<path d="M147.473 21.5V11.49H151.869C153.031 11.49 153.899 11.826 154.487 12.428C155.047 13.002 155.383 13.786 155.383 14.71C155.383 16.6 154.137 17.874 152.037 17.874H149.573V21.5H147.473ZM149.573 13.254V16.222H151.673C152.737 16.222 153.297 15.634 153.297 14.724C153.297 13.786 152.709 13.254 151.701 13.254H149.573ZM157.227 21.5V11.49H161.819C163.751 11.49 165.039 12.61 165.039 14.276C165.039 15.452 164.493 16.348 163.205 16.698V16.74C164.129 17.006 164.605 17.538 164.731 18.756C164.871 20.17 164.815 21.248 165.165 21.402V21.5H163.219C162.967 21.388 162.939 20.268 162.855 19.19C162.771 18.098 162.155 17.482 160.895 17.482H159.257V21.5H157.227ZM159.257 13.128V15.914H161.413C162.519 15.914 163.065 15.34 163.065 14.542C163.065 13.73 162.547 13.128 161.469 13.128H159.257ZM167.186 21.5V11.49H174.55V13.198H169.216V15.438H173.892V17.104H169.216V19.806H174.592V21.5H167.186ZM176.694 21.5V11.49H178.752L182.084 17.076C182.406 17.622 182.784 18.476 182.784 18.476H182.812C182.812 18.476 182.756 17.44 182.756 16.74V11.49H184.758V21.5H182.798L179.382 15.97C179.06 15.438 178.668 14.584 178.668 14.584H178.64C178.64 14.584 178.696 15.634 178.696 16.334V21.5H176.694ZM187.132 21.5V11.49H191.038C193.712 11.49 195.434 13.646 195.434 16.6C195.434 18.224 194.888 19.652 193.838 20.534C193.096 21.15 192.13 21.5 190.87 21.5H187.132ZM189.162 19.75H190.73C192.634 19.75 193.376 18.588 193.376 16.6C193.376 14.612 192.508 13.226 190.786 13.226H189.162V19.75ZM196.09 21.5L199.576 11.49H201.676L205.204 21.5H203.09L202.418 19.372H198.806L198.148 21.5H196.09ZM200.178 14.934L199.282 17.818H201.928L201.032 14.934C200.864 14.402 200.626 13.394 200.626 13.394H200.598C200.598 13.394 200.346 14.402 200.178 14.934ZM210.628 21.724C207.912 21.724 206.372 20.52 206.302 18.406H208.29C208.43 19.61 209.116 20.086 210.544 20.086C211.58 20.086 212.49 19.722 212.49 18.798C212.49 17.818 211.538 17.622 210.012 17.272C208.22 16.866 206.582 16.39 206.582 14.304C206.582 12.33 208.192 11.308 210.418 11.308C212.672 11.308 214.128 12.414 214.282 14.43H212.336C212.224 13.422 211.44 12.918 210.404 12.918C209.312 12.918 208.598 13.38 208.598 14.094C208.598 14.906 209.298 15.144 210.782 15.466C212.84 15.914 214.52 16.404 214.52 18.56C214.52 20.59 212.882 21.724 210.628 21.724ZM222.059 23.334C220.925 21.78 219.931 19.75 219.931 17.188C219.931 14.542 220.939 12.414 222.045 10.944H223.67C222.647 12.554 221.919 14.486 221.919 17.188C221.919 19.708 222.689 21.668 223.655 23.334H222.059ZM228.663 21.71C226.185 21.71 224.911 20.338 224.883 18.238H226.703C226.773 19.386 227.277 20.184 228.593 20.184C229.657 20.184 230.287 19.61 230.287 18.63C230.287 17.706 229.699 17.146 228.523 17.146H227.935V15.704H228.481C229.391 15.704 230.035 15.242 230.035 14.43C230.035 13.674 229.517 13.17 228.677 13.17C227.585 13.17 227.053 13.884 227.011 14.878H225.191C225.261 12.988 226.451 11.714 228.677 11.714C230.679 11.714 231.967 12.708 231.967 14.304C231.967 15.382 231.281 16.012 230.329 16.32V16.348C231.547 16.642 232.275 17.426 232.275 18.756C232.275 20.744 230.637 21.71 228.663 21.71ZM233.639 23.334C234.605 21.668 235.375 19.708 235.375 17.188C235.375 14.486 234.647 12.554 233.625 10.944H235.249C236.355 12.414 237.363 14.542 237.363 17.188C237.363 19.75 236.369 21.78 235.235 23.334H233.639Z" fill="#F3EEE1"/>
</svg>
