<svg width="585" height="33" viewBox="0 0 585 33" fill="none" xmlns="http://www.w3.org/2000/svg">
<path d="M245.235 4L245.238 7.05273V7.49121L245.673 7.54883C249.31 8.03015 252.086 11.9608 251.998 16.8164C251.914 21.4264 249.169 25.1058 245.726 25.5508L245.547 25.5742L245.424 25.7061L245.35 25.7861L245.216 25.9297V28.999H135.762L135.758 26.0625L135.757 25.624L135.322 25.5674L134.983 25.5137C134.197 25.3639 133.445 25.0517 132.755 24.5645H132.756L132.747 24.5596L132.471 24.3613C129.66 22.2498 128.328 17.946 129.332 13.8721C130.192 10.3834 132.558 7.92461 135.332 7.55566L135.765 7.49805L135.767 7.06152L135.776 4H245.235Z" fill="#F3EEE1" stroke="#F3EEE1"/>
<path d="M247.839 32.5L133.216 32.4976C132.81 32.4958 132.497 32.1184 132.497 31.6229L132.499 28.4607C130.734 27.8557 129.184 26.6025 127.988 24.8967C125.451 21.2797 124.805 16.1739 126.278 11.7361C127.383 8.40796 129.67 5.61518 132.526 4.61591L132.535 1.35969C132.536 0.926715 132.839 0.5 133.219 0.5L247.734 0.501597C248.156 0.499377 248.478 0.897297 248.478 1.40751L248.48 4.62736C249.367 4.91397 250.172 5.35132 250.92 5.9654C253.841 8.36506 255.54 12.4259 255.499 16.7751C255.461 20.8168 253.875 24.5953 251.199 26.901C250.366 27.6195 249.475 28.1459 248.469 28.451L248.461 31.6669C248.459 32.0831 248.213 32.4302 247.839 32.5ZM247.685 31.9028C247.858 31.9152 247.977 31.8138 247.978 31.6251L247.98 27.9949C248.808 27.7674 249.559 27.4179 250.288 26.8947C253.174 24.8221 254.955 20.9697 255.012 16.8317C255.07 12.6274 253.415 8.68326 250.571 6.40243C249.788 5.77496 248.941 5.33963 248.003 5.09435L247.996 1.35006C247.996 1.21942 247.845 1.0942 247.732 1.10967L133.265 1.10762C133.109 1.12989 133.018 1.23761 133.018 1.40363L133.018 5.08904C129.77 6.01584 127.307 9.33469 126.381 13.2335C125.087 18.682 127.076 24.7078 131.188 27.2094C131.77 27.5637 132.335 27.8159 132.974 27.9891L132.974 31.5113C132.974 31.7381 133.045 31.9017 133.266 31.9017L247.685 31.9028Z" stroke="#F3EEE1"/>
<path d="M145.473 21.5V11.49H149.869C151.031 11.49 151.899 11.826 152.487 12.428C153.047 13.002 153.383 13.786 153.383 14.71C153.383 16.6 152.137 17.874 150.037 17.874H147.573V21.5H145.473ZM147.573 13.254V16.222H149.673C150.737 16.222 151.297 15.634 151.297 14.724C151.297 13.786 150.709 13.254 149.701 13.254H147.573ZM155.227 21.5V11.49H159.819C161.751 11.49 163.039 12.61 163.039 14.276C163.039 15.452 162.493 16.348 161.205 16.698V16.74C162.129 17.006 162.605 17.538 162.731 18.756C162.871 20.17 162.815 21.248 163.165 21.402V21.5H161.219C160.967 21.388 160.939 20.268 160.855 19.19C160.771 18.098 160.155 17.482 158.895 17.482H157.257V21.5H155.227ZM157.257 13.128V15.914H159.413C160.519 15.914 161.065 15.34 161.065 14.542C161.065 13.73 160.547 13.128 159.469 13.128H157.257ZM165.186 21.5V11.49H172.55V13.198H167.216V15.438H171.892V17.104H167.216V19.806H172.592V21.5H165.186ZM174.694 21.5V11.49H176.752L180.084 17.076C180.406 17.622 180.784 18.476 180.784 18.476H180.812C180.812 18.476 180.756 17.44 180.756 16.74V11.49H182.758V21.5H180.798L177.382 15.97C177.06 15.438 176.668 14.584 176.668 14.584H176.64C176.64 14.584 176.696 15.634 176.696 16.334V21.5H174.694ZM185.132 21.5V11.49H189.038C191.712 11.49 193.434 13.646 193.434 16.6C193.434 18.224 192.888 19.652 191.838 20.534C191.096 21.15 190.13 21.5 188.87 21.5H185.132ZM187.162 19.75H188.73C190.634 19.75 191.376 18.588 191.376 16.6C191.376 14.612 190.508 13.226 188.786 13.226H187.162V19.75ZM194.09 21.5L197.576 11.49H199.676L203.204 21.5H201.09L200.418 19.372H196.806L196.148 21.5H194.09ZM198.178 14.934L197.282 17.818H199.928L199.032 14.934C198.864 14.402 198.626 13.394 198.626 13.394H198.598C198.598 13.394 198.346 14.402 198.178 14.934ZM208.628 21.724C205.912 21.724 204.372 20.52 204.302 18.406H206.29C206.43 19.61 207.116 20.086 208.544 20.086C209.58 20.086 210.49 19.722 210.49 18.798C210.49 17.818 209.538 17.622 208.012 17.272C206.22 16.866 204.582 16.39 204.582 14.304C204.582 12.33 206.192 11.308 208.418 11.308C210.672 11.308 212.128 12.414 212.282 14.43H210.336C210.224 13.422 209.44 12.918 208.404 12.918C207.312 12.918 206.598 13.38 206.598 14.094C206.598 14.906 207.298 15.144 208.782 15.466C210.84 15.914 212.52 16.404 212.52 18.56C212.52 20.59 210.882 21.724 208.628 21.724ZM220.059 23.334C218.925 21.78 217.931 19.75 217.931 17.188C217.931 14.542 218.939 12.414 220.045 10.944H221.67C220.647 12.554 219.919 14.486 219.919 17.188C219.919 19.708 220.689 21.668 221.655 23.334H220.059ZM226.663 21.71C224.185 21.71 222.911 20.338 222.883 18.238H224.703C224.773 19.386 225.277 20.184 226.593 20.184C227.657 20.184 228.287 19.61 228.287 18.63C228.287 17.706 227.699 17.146 226.523 17.146H225.935V15.704H226.481C227.391 15.704 228.035 15.242 228.035 14.43C228.035 13.674 227.517 13.17 226.677 13.17C225.585 13.17 225.053 13.884 225.011 14.878H223.191C223.261 12.988 224.451 11.714 226.677 11.714C228.679 11.714 229.967 12.708 229.967 14.304C229.967 15.382 229.281 16.012 228.329 16.32V16.348C229.547 16.642 230.275 17.426 230.275 18.756C230.275 20.744 228.637 21.71 226.663 21.71ZM231.639 23.334C232.605 21.668 233.375 19.708 233.375 17.188C233.375 14.486 232.647 12.554 231.625 10.944H233.249C234.355 12.414 235.363 14.542 235.363 17.188C235.363 19.75 234.369 21.78 233.235 23.334H231.639Z" fill="#520345"/>
<path d="M104.018 32.5L7.02895 32.4976C6.68506 32.4958 6.42032 32.1184 6.42055 31.6229L6.42187 28.4607C4.92858 27.8557 3.61761 26.6025 2.60508 24.8967C0.458227 21.2797 -0.0883405 16.1739 1.15844 11.7361C2.09345 8.40796 4.02874 5.61518 6.44548 4.61591L6.45274 1.35969C6.45371 0.926715 6.7098 0.5 7.03177 0.5L103.929 0.501597C104.286 0.499377 104.558 0.897297 104.559 1.40751L104.56 4.62736C105.311 4.91397 105.992 5.35132 106.625 5.9654C109.097 8.36506 110.534 12.4259 110.499 16.7751C110.467 20.8168 109.125 24.5953 106.861 26.901C106.156 27.6195 105.402 28.1459 104.551 28.451L104.544 31.6669C104.543 32.0831 104.334 32.4302 104.018 32.5ZM103.888 31.9028C104.033 31.9152 104.135 31.8138 104.135 31.6251L104.137 27.9949C104.837 27.7674 105.473 27.4179 106.09 26.8947C108.532 24.8221 110.039 20.9697 110.087 16.8317C110.136 12.6274 108.736 8.68326 106.329 6.40243C105.667 5.77496 104.95 5.33963 104.156 5.09435L104.151 1.35006C104.151 1.21942 104.023 1.0942 103.927 1.10967L7.07018 1.10762C6.93856 1.12989 6.86166 1.23761 6.86166 1.40363L6.86151 5.08904C4.11348 6.01584 2.02899 9.33469 1.24554 13.2335C0.150706 18.682 1.83315 24.7078 5.31261 27.2094C5.80547 27.5637 6.28325 27.8159 6.82457 27.9891L6.82402 31.5113C6.82402 31.7381 6.88458 31.9017 7.07103 31.9017L103.888 31.9028Z" fill="#FD6500" stroke="#F3EEE1"/>
<path d="M20.3656 13.198V11.49H28.4156V13.198H25.4056V21.5H23.3756V13.198H20.3656ZM34.186 21.724C31.232 21.724 29.356 19.512 29.356 16.516C29.356 13.52 31.232 11.294 34.186 11.294C37.14 11.294 39.002 13.52 39.002 16.516C39.002 19.512 37.14 21.724 34.186 21.724ZM34.2 20.058C36.034 20.058 36.93 18.504 36.93 16.516C36.93 14.514 36.034 12.96 34.2 12.96C32.366 12.96 31.428 14.514 31.428 16.516C31.428 18.504 32.366 20.058 34.2 20.058ZM40.9523 21.5V11.49H44.8583C47.5323 11.49 49.2543 13.646 49.2543 16.6C49.2543 18.224 48.7083 19.652 47.6583 20.534C46.9163 21.15 45.9503 21.5 44.6903 21.5H40.9523ZM42.9823 19.75H44.5503C46.4543 19.75 47.1963 18.588 47.1963 16.6C47.1963 14.612 46.3283 13.226 44.6063 13.226H42.9823V19.75ZM55.5946 21.724C52.6406 21.724 50.7646 19.512 50.7646 16.516C50.7646 13.52 52.6406 11.294 55.5946 11.294C58.5486 11.294 60.4106 13.52 60.4106 16.516C60.4106 19.512 58.5486 21.724 55.5946 21.724ZM55.6086 20.058C57.4426 20.058 58.3386 18.504 58.3386 16.516C58.3386 14.514 57.4426 12.96 55.6086 12.96C53.7746 12.96 52.8366 14.514 52.8366 16.516C52.8366 18.504 53.7746 20.058 55.6086 20.058ZM67.8484 23.334C66.7144 21.78 65.7204 19.75 65.7204 17.188C65.7204 14.542 66.7284 12.414 67.8344 10.944H69.4584C68.4364 12.554 67.7084 14.486 67.7084 17.188C67.7084 19.708 68.4784 21.668 69.4444 23.334H67.8484ZM72.6548 21.5V14.808H70.4848V13.548C71.6608 13.506 72.7108 13.072 72.9068 11.84H74.5728V21.5H72.6548ZM80.8532 21.724C78.4032 21.724 76.8492 19.764 76.8492 16.712C76.8492 13.646 78.4312 11.7 80.8672 11.7C83.3452 11.7 84.8572 13.632 84.8572 16.712C84.8572 19.764 83.3452 21.724 80.8532 21.724ZM80.8672 20.1C82.2952 20.1 82.8692 18.77 82.8692 16.712C82.8692 14.682 82.2812 13.324 80.8672 13.324C79.4392 13.324 78.8372 14.668 78.8372 16.712C78.8372 18.742 79.4392 20.1 80.8672 20.1ZM86.2285 23.334C87.1945 21.668 87.9645 19.708 87.9645 17.188C87.9645 14.486 87.2365 12.554 86.2145 10.944H87.8385C88.9445 12.414 89.9525 14.542 89.9525 17.188C89.9525 19.75 88.9585 21.78 87.8245 23.334H86.2285Z" fill="#F3EEE1"/>
<path d="M576.191 32.5L451.869 32.4976C451.428 32.4958 451.089 32.1184 451.089 31.6229L451.091 28.4607C449.177 27.8557 447.496 26.6025 446.198 24.8967C443.446 21.2797 442.746 16.1739 444.344 11.7361C445.543 8.40796 448.023 5.61518 451.121 4.61591L451.13 1.35969C451.132 0.926715 451.46 0.5 451.873 0.5L576.077 0.501597C576.534 0.499377 576.884 0.897297 576.884 1.40751L576.886 4.62736C577.848 4.91397 578.722 5.35132 579.532 5.9654C582.701 8.36506 584.544 12.4259 584.499 16.7751C584.458 20.8168 582.738 24.5953 579.836 26.901C578.931 27.6195 577.966 28.1459 576.874 28.451L576.865 31.6669C576.864 32.0831 576.596 32.4302 576.191 32.5ZM576.024 31.9028C576.211 31.9152 576.341 31.8138 576.341 31.6251L576.344 27.9949C577.242 27.7674 578.056 27.4179 578.847 26.8947C581.977 24.8221 583.909 20.9697 583.971 16.8317C584.034 12.6274 582.239 8.68326 579.154 6.40243C578.305 5.77496 577.386 5.33963 576.369 5.09435L576.362 1.35006C576.361 1.21942 576.198 1.0942 576.075 1.10967L451.922 1.10762C451.753 1.12989 451.654 1.23761 451.654 1.40363L451.654 5.08904C448.132 6.01584 445.46 9.33469 444.456 13.2335C443.052 18.682 445.209 24.7078 449.669 27.2094C450.301 27.5637 450.913 27.8159 451.607 27.9891L451.606 31.5113C451.606 31.7381 451.684 31.9017 451.923 31.9017L576.024 31.9028Z" stroke="#F3EEE1"/>
<path d="M464.713 21.5V11.49H469.305C471.237 11.49 472.525 12.61 472.525 14.276C472.525 15.452 471.979 16.348 470.691 16.698V16.74C471.615 17.006 472.091 17.538 472.217 18.756C472.357 20.17 472.301 21.248 472.651 21.402V21.5H470.705C470.453 21.388 470.425 20.268 470.341 19.19C470.257 18.098 469.641 17.482 468.381 17.482H466.743V21.5H464.713ZM466.743 13.128V15.914H468.899C470.005 15.914 470.551 15.34 470.551 14.542C470.551 13.73 470.033 13.128 468.955 13.128H466.743ZM474.672 21.5V11.49H482.036V13.198H476.702V15.438H481.378V17.104H476.702V19.806H482.078V21.5H474.672ZM483.662 13.198V11.49H491.712V13.198H488.702V21.5H486.672V13.198H483.662ZM493.578 21.5V11.49H498.17C500.102 11.49 501.39 12.61 501.39 14.276C501.39 15.452 500.844 16.348 499.556 16.698V16.74C500.48 17.006 500.956 17.538 501.082 18.756C501.222 20.17 501.166 21.248 501.516 21.402V21.5H499.57C499.318 21.388 499.29 20.268 499.206 19.19C499.122 18.098 498.506 17.482 497.246 17.482H495.608V21.5H493.578ZM495.608 13.128V15.914H497.764C498.87 15.914 499.416 15.34 499.416 14.542C499.416 13.73 498.898 13.128 497.82 13.128H495.608ZM502.878 21.5L506.364 11.49H508.464L511.992 21.5H509.878L509.206 19.372H505.594L504.936 21.5H502.878ZM506.966 14.934L506.07 17.818H508.716L507.82 14.934C507.652 14.402 507.414 13.394 507.414 13.394H507.386C507.386 13.394 507.134 14.402 506.966 14.934ZM511.898 13.198V11.49H519.948V13.198H516.938V21.5H514.908V13.198H511.898ZM525.719 21.724C522.765 21.724 520.889 19.512 520.889 16.516C520.889 13.52 522.765 11.294 525.719 11.294C528.673 11.294 530.535 13.52 530.535 16.516C530.535 19.512 528.673 21.724 525.719 21.724ZM525.733 20.058C527.567 20.058 528.463 18.504 528.463 16.516C528.463 14.514 527.567 12.96 525.733 12.96C523.899 12.96 522.961 14.514 522.961 16.516C522.961 18.504 523.899 20.058 525.733 20.058ZM536.363 21.724C533.647 21.724 532.107 20.52 532.037 18.406H534.025C534.165 19.61 534.851 20.086 536.279 20.086C537.315 20.086 538.225 19.722 538.225 18.798C538.225 17.818 537.273 17.622 535.747 17.272C533.955 16.866 532.317 16.39 532.317 14.304C532.317 12.33 533.927 11.308 536.153 11.308C538.407 11.308 539.863 12.414 540.017 14.43H538.071C537.959 13.422 537.175 12.918 536.139 12.918C535.047 12.918 534.333 13.38 534.333 14.094C534.333 14.906 535.033 15.144 536.517 15.466C538.575 15.914 540.255 16.404 540.255 18.56C540.255 20.59 538.617 21.724 536.363 21.724ZM547.795 23.334C546.661 21.78 545.667 19.75 545.667 17.188C545.667 14.542 546.675 12.414 547.781 10.944H549.405C548.383 12.554 547.655 14.486 547.655 17.188C547.655 19.708 548.425 21.668 549.391 23.334H547.795ZM554.399 21.71C551.921 21.71 550.647 20.338 550.619 18.238H552.439C552.509 19.386 553.013 20.184 554.329 20.184C555.393 20.184 556.023 19.61 556.023 18.63C556.023 17.706 555.435 17.146 554.259 17.146H553.671V15.704H554.217C555.127 15.704 555.771 15.242 555.771 14.43C555.771 13.674 555.253 13.17 554.413 13.17C553.321 13.17 552.789 13.884 552.747 14.878H550.927C550.997 12.988 552.187 11.714 554.413 11.714C556.415 11.714 557.703 12.708 557.703 14.304C557.703 15.382 557.017 16.012 556.065 16.32V16.348C557.283 16.642 558.011 17.426 558.011 18.756C558.011 20.744 556.373 21.71 554.399 21.71ZM559.374 23.334C560.34 21.668 561.11 19.708 561.11 17.188C561.11 14.486 560.382 12.554 559.36 10.944H560.984C562.09 12.414 563.098 14.542 563.098 17.188C563.098 19.75 562.104 21.78 560.97 23.334H559.374Z" fill="#F3EEE1"/>
<path d="M419.189 32.5L279.878 32.4976C279.384 32.4958 279.004 32.1184 279.004 31.6229L279.006 28.4607C276.861 27.8557 274.978 26.6025 273.524 24.8967C270.44 21.2797 269.655 16.1739 271.446 11.7361C272.789 8.40796 275.569 5.61518 279.04 4.61591L279.05 1.35969C279.052 0.926715 279.42 0.5 279.882 0.5L419.061 0.501597C419.574 0.499377 419.966 0.897297 419.966 1.40751L419.968 4.62736C421.046 4.91397 422.025 5.35132 422.934 5.9654C426.484 8.36506 428.549 12.4259 428.499 16.7751C428.453 20.8168 426.525 24.5953 423.273 26.901C422.26 27.6195 421.178 28.1459 419.955 28.451L419.944 31.6669C419.943 32.0831 419.643 32.4302 419.189 32.5ZM419.002 31.9028C419.212 31.9152 419.357 31.8138 419.357 31.6251L419.361 27.9949C420.367 27.7674 421.279 27.4179 422.165 26.8947C425.673 24.8221 427.837 20.9697 427.907 16.8317C427.977 12.6274 425.966 8.68326 422.509 6.40243C421.558 5.77496 420.528 5.33963 419.388 5.09435L419.38 1.35006C419.38 1.21942 419.197 1.0942 419.059 1.10967L279.937 1.10762C279.748 1.12989 279.638 1.23761 279.638 1.40363L279.637 5.08904C275.69 6.01584 272.696 9.33469 271.571 13.2335C269.998 18.682 272.415 24.7078 277.413 27.2094C278.121 27.5637 278.807 27.8159 279.584 27.9891L279.584 31.5113C279.584 31.7381 279.671 31.9017 279.938 31.9017L419.002 31.9028Z" stroke="#F3EEE1"/>
<path d="M286.498 21.5V11.49H290.404C293.078 11.49 294.8 13.646 294.8 16.6C294.8 18.224 294.254 19.652 293.204 20.534C292.462 21.15 291.496 21.5 290.236 21.5H286.498ZM288.528 19.75H290.096C292 19.75 292.742 18.588 292.742 16.6C292.742 14.612 291.874 13.226 290.152 13.226H288.528V19.75ZM301.141 21.724C298.187 21.724 296.311 19.512 296.311 16.516C296.311 13.52 298.187 11.294 301.141 11.294C304.095 11.294 305.957 13.52 305.957 16.516C305.957 19.512 304.095 21.724 301.141 21.724ZM301.155 20.058C302.989 20.058 303.885 18.504 303.885 16.516C303.885 14.514 302.989 12.96 301.155 12.96C299.321 12.96 298.383 14.514 298.383 16.516C298.383 18.504 299.321 20.058 301.155 20.058ZM312.289 21.71C309.475 21.71 307.473 19.54 307.473 16.53C307.473 13.562 309.321 11.294 312.275 11.294C314.739 11.294 316.195 12.764 316.405 14.668H314.389C314.207 13.66 313.451 13.002 312.275 13.002C310.427 13.002 309.545 14.542 309.545 16.53C309.545 18.574 310.609 20.044 312.289 20.044C313.479 20.044 314.319 19.33 314.445 18.28H316.433C316.377 19.162 315.999 20.016 315.327 20.646C314.641 21.29 313.675 21.71 312.289 21.71ZM322.181 21.668C319.591 21.668 318.233 20.45 318.233 18.28V11.49H320.263V18.28C320.263 19.316 320.781 20.044 322.139 20.044C323.427 20.044 324.029 19.288 324.029 18.252V11.49H326.059V18.28C326.059 20.422 324.743 21.668 322.181 21.668ZM328.358 21.5V11.49H331.214L332.628 16.516C332.978 17.776 333.258 19.218 333.258 19.218H333.286C333.286 19.218 333.552 17.776 333.902 16.516L335.316 11.49H338.214V21.5H336.324V15.76C336.324 14.948 336.408 13.688 336.408 13.688H336.38C336.38 13.688 336.156 14.864 335.946 15.592L334.224 21.5H332.278L330.598 15.592C330.388 14.864 330.164 13.688 330.164 13.688H330.136C330.136 13.688 330.22 14.948 330.22 15.76V21.5H328.358ZM340.601 21.5V11.49H347.965V13.198H342.631V15.438H347.307V17.104H342.631V19.806H348.007V21.5H340.601ZM350.109 21.5V11.49H352.167L355.499 17.076C355.821 17.622 356.199 18.476 356.199 18.476H356.227C356.227 18.476 356.171 17.44 356.171 16.74V11.49H358.173V21.5H356.213L352.797 15.97C352.475 15.438 352.083 14.584 352.083 14.584H352.055C352.055 14.584 352.111 15.634 352.111 16.334V21.5H350.109ZM360.028 13.198V11.49H368.078V13.198H365.068V21.5H363.038V13.198H360.028ZM373.849 21.724C370.895 21.724 369.019 19.512 369.019 16.516C369.019 13.52 370.895 11.294 373.849 11.294C376.803 11.294 378.665 13.52 378.665 16.516C378.665 19.512 376.803 21.724 373.849 21.724ZM373.863 20.058C375.697 20.058 376.593 18.504 376.593 16.516C376.593 14.514 375.697 12.96 373.863 12.96C372.029 12.96 371.091 14.514 371.091 16.516C371.091 18.504 372.029 20.058 373.863 20.058ZM384.493 21.724C381.777 21.724 380.237 20.52 380.167 18.406H382.155C382.295 19.61 382.981 20.086 384.409 20.086C385.445 20.086 386.355 19.722 386.355 18.798C386.355 17.818 385.403 17.622 383.877 17.272C382.085 16.866 380.447 16.39 380.447 14.304C380.447 12.33 382.057 11.308 384.283 11.308C386.537 11.308 387.993 12.414 388.147 14.43H386.201C386.089 13.422 385.305 12.918 384.269 12.918C383.177 12.918 382.463 13.38 382.463 14.094C382.463 14.906 383.163 15.144 384.647 15.466C386.705 15.914 388.385 16.404 388.385 18.56C388.385 20.59 386.747 21.724 384.493 21.724ZM395.925 23.334C394.791 21.78 393.797 19.75 393.797 17.188C393.797 14.542 394.805 12.414 395.911 10.944H397.535C396.513 12.554 395.785 14.486 395.785 17.188C395.785 19.708 396.555 21.668 397.521 23.334H395.925ZM403.026 21.5V19.414H398.602V17.356L402.956 11.798H404.888V17.888H406.344V19.414H404.888V21.5H403.026ZM400.142 17.846V17.888H403.026V14.164H402.998L400.142 17.846ZM407.614 23.334C408.58 21.668 409.35 19.708 409.35 17.188C409.35 14.486 408.622 12.554 407.6 10.944H409.224C410.33 12.414 411.338 14.542 411.338 17.188C411.338 19.75 410.344 21.78 409.21 23.334H407.614Z" fill="#F3EEE1"/>
</svg>
