<svg width="436" height="493" viewBox="0 0 436 493" fill="none" xmlns="http://www.w3.org/2000/svg">
<path d="M0 218C0 97.6019 97.6019 0 218 0V0C338.398 0 436 97.6019 436 218V493H0V218Z" fill="#FD6500"/>
<path d="M175.424 168.224C172.974 168.224 171.42 166.264 171.42 163.212C171.42 160.146 173.002 158.2 175.438 158.2C177.916 158.2 179.428 160.132 179.428 163.212C179.428 166.264 177.916 168.224 175.424 168.224ZM175.438 166.6C176.866 166.6 177.44 165.27 177.44 163.212C177.44 161.182 176.852 159.824 175.438 159.824C174.01 159.824 173.408 161.168 173.408 163.212C173.408 165.242 174.01 166.6 175.438 166.6ZM184.676 168.21C182.198 168.21 180.924 166.838 180.896 164.738H182.716C182.786 165.886 183.29 166.684 184.606 166.684C185.67 166.684 186.3 166.11 186.3 165.13C186.3 164.206 185.712 163.646 184.536 163.646H183.948V162.204H184.494C185.404 162.204 186.048 161.742 186.048 160.93C186.048 160.174 185.53 159.67 184.69 159.67C183.598 159.67 183.066 160.384 183.024 161.378H181.204C181.274 159.488 182.464 158.214 184.69 158.214C186.692 158.214 187.98 159.208 187.98 160.804C187.98 161.882 187.294 162.512 186.342 162.82V162.848C187.56 163.142 188.288 163.926 188.288 165.256C188.288 167.244 186.65 168.21 184.676 168.21ZM189.583 168L193.503 157.99H195.015L191.095 168H189.583ZM204.381 168.21C201.567 168.21 199.565 166.04 199.565 163.03C199.565 160.062 201.413 157.794 204.367 157.794C206.831 157.794 208.287 159.264 208.497 161.168H206.481C206.299 160.16 205.543 159.502 204.367 159.502C202.519 159.502 201.637 161.042 201.637 163.03C201.637 165.074 202.701 166.544 204.381 166.544C205.571 166.544 206.411 165.83 206.537 164.78H208.525C208.469 165.662 208.091 166.516 207.419 167.146C206.733 167.79 205.767 168.21 204.381 168.21ZM210.423 168V157.99H212.453V168H210.423ZM214.845 168V157.99H216.903L220.235 163.576C220.557 164.122 220.935 164.976 220.935 164.976H220.963C220.963 164.976 220.907 163.94 220.907 163.24V157.99H222.909V168H220.949L217.533 162.47C217.211 161.938 216.819 161.084 216.819 161.084H216.791C216.791 161.084 216.847 162.134 216.847 162.834V168H214.845ZM224.765 159.698V157.99H232.815V159.698H229.805V168H227.775V159.698H224.765ZM238.545 168.168C235.955 168.168 234.597 166.95 234.597 164.78V157.99H236.627V164.78C236.627 165.816 237.145 166.544 238.503 166.544C239.791 166.544 240.393 165.788 240.393 164.752V157.99H242.423V164.78C242.423 166.922 241.107 168.168 238.545 168.168ZM244.723 168V157.99H249.315C251.247 157.99 252.535 159.11 252.535 160.776C252.535 161.952 251.989 162.848 250.701 163.198V163.24C251.625 163.506 252.101 164.038 252.227 165.256C252.367 166.67 252.311 167.748 252.661 167.902V168H250.715C250.463 167.888 250.435 166.768 250.351 165.69C250.267 164.598 249.651 163.982 248.391 163.982H246.753V168H244.723ZM246.753 159.628V162.414H248.909C250.015 162.414 250.561 161.84 250.561 161.042C250.561 160.23 250.043 159.628 248.965 159.628H246.753ZM254.022 168L257.508 157.99H259.608L263.136 168H261.022L260.35 165.872H256.738L256.08 168H254.022ZM258.11 161.434L257.214 164.318H259.86L258.964 161.434C258.796 160.902 258.558 159.894 258.558 159.894H258.53C258.53 159.894 258.278 160.902 258.11 161.434Z" fill="#F3EEE1"/>
<path d="M31.1839 323L35.9179 310.13H37.7359L42.4879 323H40.7239L39.3559 319.076H34.2259L32.8399 323H31.1839ZM36.2239 313.442L34.6939 317.762H38.9059L37.4299 313.442C37.1779 312.722 36.8539 311.624 36.8539 311.624H36.8179C36.8179 311.624 36.4759 312.704 36.2239 313.442ZM42.9818 325.646C42.6578 325.646 42.4058 325.61 42.1718 325.574V324.386H42.2078C42.3878 324.422 42.5498 324.44 42.7118 324.44C43.3418 324.44 43.6658 324.17 43.6658 323.54V313.694H45.1238V323.612C45.1238 325.34 44.1698 325.646 42.9818 325.646ZM43.6658 311.93V310.13H45.1238V311.93H43.6658ZM54.4911 323H53.0331V321.722H52.9971C52.3311 322.622 51.5391 323.216 50.1891 323.216C48.2811 323.216 47.0571 322.064 47.0571 320.138V313.694H48.5151V320.102C48.5151 321.308 49.2891 322.01 50.6031 322.01C52.0791 322.01 53.0331 320.894 53.0331 319.418V313.694H54.4911V323ZM59.9907 323.27C57.4347 323.27 56.0127 322.064 55.8687 319.976H57.3627C57.5607 321.596 58.6407 322.046 60.0267 322.046C61.5567 322.046 62.1867 321.38 62.1867 320.516C62.1867 319.472 61.4667 319.202 59.7567 318.842C57.9207 318.464 56.2827 318.086 56.2827 316.052C56.2827 314.504 57.4707 313.496 59.6307 313.496C61.9347 313.496 63.0687 314.594 63.2847 316.412H61.7907C61.6467 315.188 60.9807 314.648 59.5947 314.648C58.2627 314.648 57.7227 315.242 57.7227 315.98C57.7227 316.988 58.6227 317.186 60.2247 317.51C62.0967 317.888 63.6627 318.302 63.6627 320.444C63.6627 322.316 62.1327 323.27 59.9907 323.27ZM64.2886 314.882V313.694H65.6386V310.76H67.0966V313.694H68.8966V314.882H67.0966V320.93C67.0966 321.578 67.4386 321.794 68.0326 321.794C68.3206 321.794 68.6446 321.722 68.8066 321.668H68.8606V322.928C68.5186 323 68.1226 323.054 67.6906 323.054C66.5026 323.054 65.6386 322.568 65.6386 321.254V314.882H64.2886ZM74.2922 323.252C71.4482 323.252 69.7922 321.056 69.7922 318.356C69.7922 315.656 71.5562 313.46 74.2022 313.46C76.9922 313.46 78.4862 315.62 78.4862 318.698H71.2862C71.3942 320.588 72.4202 322.028 74.2922 322.028C75.6422 322.028 76.5422 321.38 76.8662 320.12H78.2882C77.8562 322.118 76.3982 323.252 74.2922 323.252ZM74.2022 314.612C72.4742 314.612 71.5382 315.908 71.3222 317.6H76.9202C76.8302 315.746 75.8762 314.612 74.2022 314.612ZM86.7551 323.252C83.9111 323.252 82.2551 321.056 82.2551 318.356C82.2551 315.656 84.0191 313.46 86.6651 313.46C89.4551 313.46 90.9491 315.62 90.9491 318.698H83.7491C83.8571 320.588 84.8831 322.028 86.7551 322.028C88.1051 322.028 89.0051 321.38 89.3291 320.12H90.7511C90.3191 322.118 88.8611 323.252 86.7551 323.252ZM86.6651 314.612C84.9371 314.612 84.0011 315.908 83.7851 317.6H89.3831C89.2931 315.746 88.3391 314.612 86.6651 314.612ZM91.0357 323L94.5457 318.122L91.4497 313.694H93.1417L95.3557 317.078H95.3917L97.6957 313.694H99.2977L96.2377 317.96L99.8737 323H98.1637L95.4097 319.004H95.3737L92.6737 323H91.0357ZM100.025 314.882V313.694H101.375V310.76H102.833V313.694H104.633V314.882H102.833V320.93C102.833 321.578 103.175 321.794 103.769 321.794C104.057 321.794 104.381 321.722 104.543 321.668H104.597V322.928C104.255 323 103.859 323.054 103.427 323.054C102.239 323.054 101.375 322.568 101.375 321.254V314.882H100.025ZM107.596 313.694V315.242H107.632C108.19 314.342 109.162 313.586 110.404 313.586C110.674 313.586 110.818 313.622 110.998 313.694V315.098H110.944C110.728 315.026 110.584 315.008 110.296 315.008C108.856 315.008 107.596 316.088 107.596 317.834V323H106.138V313.694H107.596ZM115.935 323.252C113.091 323.252 111.435 321.056 111.435 318.356C111.435 315.656 113.199 313.46 115.845 313.46C118.635 313.46 120.129 315.62 120.129 318.698H112.929C113.037 320.588 114.063 322.028 115.935 322.028C117.285 322.028 118.185 321.38 118.509 320.12H119.931C119.499 322.118 118.041 323.252 115.935 323.252ZM115.845 314.612C114.117 314.612 113.181 315.908 112.965 317.6H118.563C118.473 315.746 117.519 314.612 115.845 314.612ZM121.554 323V313.694H123.012V315.026H123.048C123.624 314.126 124.614 313.478 125.784 313.478C126.918 313.478 127.818 314.054 128.214 315.134H128.25C128.844 314.072 129.96 313.478 131.094 313.478C132.75 313.478 133.92 314.54 133.92 316.466V323H132.462V316.538C132.462 315.386 131.688 314.702 130.752 314.702C129.546 314.702 128.466 315.746 128.466 317.204V323H127.008V316.538C127.008 315.386 126.36 314.702 125.406 314.702C124.272 314.702 123.012 315.746 123.012 317.204V323H121.554ZM139.823 323.252C137.051 323.252 135.323 321.056 135.323 318.356C135.323 315.656 137.051 313.46 139.823 313.46C142.613 313.46 144.305 315.656 144.305 318.356C144.305 321.056 142.613 323.252 139.823 323.252ZM139.823 322.028C141.803 322.028 142.811 320.408 142.811 318.356C142.811 316.304 141.803 314.666 139.823 314.666C137.843 314.666 136.817 316.304 136.817 318.356C136.817 320.408 137.843 322.028 139.823 322.028ZM145.105 323V321.218H146.851V323H145.105ZM151.706 323V310.13H153.326V321.506H160.076V323H151.706ZM168.765 323.09C167.811 323.09 167.307 322.658 167.163 321.704H167.145C166.587 322.424 165.633 323.18 164.049 323.18C162.285 323.18 160.899 322.352 160.899 320.588C160.899 318.392 162.627 317.942 164.949 317.582C166.263 317.384 167.181 317.258 167.181 316.25C167.181 315.206 166.425 314.612 165.093 314.612C163.581 314.612 162.825 315.26 162.771 316.664H161.367C161.421 314.864 162.609 313.514 165.075 313.514C167.055 313.514 168.513 314.252 168.513 316.466V320.894C168.513 321.65 168.693 322.064 169.503 321.884H169.557V322.946C169.377 323.018 169.143 323.09 168.765 323.09ZM164.373 322.064C166.317 322.064 167.199 320.642 167.199 319.562V317.978C166.713 318.284 165.867 318.518 165.075 318.662C163.617 318.932 162.447 319.184 162.447 320.552C162.447 321.794 163.419 322.064 164.373 322.064ZM174.161 323.27C171.605 323.27 170.183 322.064 170.039 319.976H171.533C171.731 321.596 172.811 322.046 174.197 322.046C175.727 322.046 176.357 321.38 176.357 320.516C176.357 319.472 175.637 319.202 173.927 318.842C172.091 318.464 170.453 318.086 170.453 316.052C170.453 314.504 171.641 313.496 173.801 313.496C176.105 313.496 177.239 314.594 177.455 316.412H175.961C175.817 315.188 175.151 314.648 173.765 314.648C172.433 314.648 171.893 315.242 171.893 315.98C171.893 316.988 172.793 317.186 174.395 317.51C176.267 317.888 177.833 318.302 177.833 320.444C177.833 322.316 176.303 323.27 174.161 323.27ZM186.072 323.252C183.3 323.252 181.572 321.056 181.572 318.356C181.572 315.656 183.3 313.46 186.072 313.46C188.268 313.46 189.726 314.72 190.05 316.7H188.574C188.358 315.44 187.476 314.666 186.072 314.666C184.092 314.666 183.066 316.304 183.066 318.356C183.066 320.408 184.092 322.028 186.072 322.028C187.584 322.028 188.484 321.164 188.61 319.724H190.05C189.852 321.956 188.394 323.252 186.072 323.252ZM191.482 323V310.13H192.94V323H191.482ZM194.978 323V313.694H196.436V323H194.978ZM194.978 311.93V310.13H196.436V311.93H194.978ZM202.402 323.252C199.558 323.252 197.902 321.056 197.902 318.356C197.902 315.656 199.666 313.46 202.312 313.46C205.102 313.46 206.596 315.62 206.596 318.698H199.396C199.504 320.588 200.53 322.028 202.402 322.028C203.752 322.028 204.652 321.38 204.976 320.12H206.398C205.966 322.118 204.508 323.252 202.402 323.252ZM202.312 314.612C200.584 314.612 199.648 315.908 199.432 317.6H205.03C204.94 315.746 203.986 314.612 202.312 314.612ZM209.479 313.694V314.918H209.515C210.181 314.036 211.117 313.478 212.467 313.478C214.411 313.478 215.599 314.54 215.599 316.466V323H214.141V316.592C214.141 315.386 213.349 314.702 212.035 314.702C210.559 314.702 209.479 315.746 209.479 317.276V323H208.021V313.694H209.479ZM216.761 314.882V313.694H218.111V310.76H219.569V313.694H221.369V314.882H219.569V320.93C219.569 321.578 219.911 321.794 220.505 321.794C220.793 321.794 221.117 321.722 221.279 321.668H221.333V322.928C220.991 323 220.595 323.054 220.163 323.054C218.975 323.054 218.111 322.568 218.111 321.254V314.882H216.761ZM230.183 323.09C229.229 323.09 228.725 322.658 228.581 321.704H228.563C228.005 322.424 227.051 323.18 225.467 323.18C223.703 323.18 222.317 322.352 222.317 320.588C222.317 318.392 224.045 317.942 226.367 317.582C227.681 317.384 228.599 317.258 228.599 316.25C228.599 315.206 227.843 314.612 226.511 314.612C224.999 314.612 224.243 315.26 224.189 316.664H222.785C222.839 314.864 224.027 313.514 226.493 313.514C228.473 313.514 229.931 314.252 229.931 316.466V320.894C229.931 321.65 230.111 322.064 230.921 321.884H230.975V322.946C230.795 323.018 230.561 323.09 230.183 323.09ZM225.791 322.064C227.735 322.064 228.617 320.642 228.617 319.562V317.978C228.131 318.284 227.285 318.518 226.493 318.662C225.035 318.932 223.865 319.184 223.865 320.552C223.865 321.794 224.837 322.064 225.791 322.064ZM235.579 323.27C233.023 323.27 231.601 322.064 231.457 319.976H232.951C233.149 321.596 234.229 322.046 235.615 322.046C237.145 322.046 237.775 321.38 237.775 320.516C237.775 319.472 237.055 319.202 235.345 318.842C233.509 318.464 231.871 318.086 231.871 316.052C231.871 314.504 233.059 313.496 235.219 313.496C237.523 313.496 238.657 314.594 238.873 316.412H237.379C237.235 315.188 236.569 314.648 235.183 314.648C233.851 314.648 233.311 315.242 233.311 315.98C233.311 316.988 234.211 317.186 235.813 317.51C237.685 317.888 239.251 318.302 239.251 320.444C239.251 322.316 237.721 323.27 235.579 323.27ZM247.111 323.27C244.573 323.27 242.989 321.362 242.989 318.374C242.989 315.278 244.771 313.478 247.075 313.478C248.389 313.478 249.397 314.126 249.991 315.008H250.027V310.13H251.485V323H250.027V321.866H249.991C249.289 322.766 248.425 323.27 247.111 323.27ZM247.165 322.046C249.235 322.046 250.117 320.498 250.117 318.392C250.117 316.232 249.073 314.72 247.147 314.72C245.383 314.72 244.483 316.304 244.483 318.392C244.483 320.498 245.383 322.046 247.165 322.046ZM257.439 323.252C254.595 323.252 252.939 321.056 252.939 318.356C252.939 315.656 254.703 313.46 257.349 313.46C260.139 313.46 261.633 315.62 261.633 318.698H254.433C254.541 320.588 255.567 322.028 257.439 322.028C258.789 322.028 259.689 321.38 260.013 320.12H261.435C261.003 322.118 259.545 323.252 257.439 323.252ZM257.349 314.612C255.621 314.612 254.685 315.908 254.469 317.6H260.067C259.977 315.746 259.023 314.612 257.349 314.612ZM267.486 323.27C266.226 323.27 265.308 322.82 264.552 321.776H264.516V323H263.058V310.13H264.516V315.026H264.552C265.254 314.072 266.19 313.478 267.54 313.478C269.898 313.478 271.5 315.278 271.5 318.374C271.5 321.362 270.006 323.27 267.486 323.27ZM267.378 322.046C269.16 322.046 270.006 320.498 270.006 318.392C270.006 316.304 269.16 314.72 267.396 314.72C265.362 314.72 264.426 316.376 264.426 318.392C264.426 320.48 265.398 322.046 267.378 322.046ZM273.099 312.236L273.927 309.95H275.709L274.323 312.236H273.099ZM272.955 323V313.694H274.413V323H272.955ZM283.708 323.09C282.754 323.09 282.25 322.658 282.106 321.704H282.088C281.53 322.424 280.576 323.18 278.992 323.18C277.228 323.18 275.842 322.352 275.842 320.588C275.842 318.392 277.57 317.942 279.892 317.582C281.206 317.384 282.124 317.258 282.124 316.25C282.124 315.206 281.368 314.612 280.036 314.612C278.524 314.612 277.768 315.26 277.714 316.664H276.31C276.364 314.864 277.552 313.514 280.018 313.514C281.998 313.514 283.456 314.252 283.456 316.466V320.894C283.456 321.65 283.636 322.064 284.446 321.884H284.5V322.946C284.32 323.018 284.086 323.09 283.708 323.09ZM279.316 322.064C281.26 322.064 282.142 320.642 282.142 319.562V317.978C281.656 318.284 280.81 318.518 280.018 318.662C278.56 318.932 277.39 319.184 277.39 320.552C277.39 321.794 278.362 322.064 279.316 322.064ZM287.034 313.694V314.918H287.07C287.736 314.036 288.672 313.478 290.022 313.478C291.966 313.478 293.154 314.54 293.154 316.466V323H291.696V316.592C291.696 315.386 290.904 314.702 289.59 314.702C288.114 314.702 287.034 315.746 287.034 317.276V323H285.576V313.694H287.034ZM305.331 323H303.873V321.722H303.837C303.171 322.622 302.379 323.216 301.029 323.216C299.121 323.216 297.897 322.064 297.897 320.138V313.694H299.355V320.102C299.355 321.308 300.129 322.01 301.443 322.01C302.919 322.01 303.873 320.894 303.873 319.418V313.694H305.331V323ZM310.831 323.27C308.275 323.27 306.853 322.064 306.709 319.976H308.203C308.401 321.596 309.481 322.046 310.867 322.046C312.397 322.046 313.027 321.38 313.027 320.516C313.027 319.472 312.307 319.202 310.597 318.842C308.761 318.464 307.123 318.086 307.123 316.052C307.123 314.504 308.311 313.496 310.471 313.496C312.775 313.496 313.909 314.594 314.125 316.412H312.631C312.487 315.188 311.821 314.648 310.435 314.648C309.103 314.648 308.562 315.242 308.562 315.98C308.562 316.988 309.463 317.186 311.064 317.51C312.937 317.888 314.503 318.302 314.503 320.444C314.503 322.316 312.973 323.27 310.831 323.27ZM323.294 323.09C322.34 323.09 321.836 322.658 321.692 321.704H321.674C321.116 322.424 320.162 323.18 318.578 323.18C316.814 323.18 315.428 322.352 315.428 320.588C315.428 318.392 317.156 317.942 319.478 317.582C320.792 317.384 321.71 317.258 321.71 316.25C321.71 315.206 320.954 314.612 319.622 314.612C318.11 314.612 317.354 315.26 317.3 316.664H315.896C315.95 314.864 317.138 313.514 319.604 313.514C321.584 313.514 323.042 314.252 323.042 316.466V320.894C323.042 321.65 323.222 322.064 324.032 321.884H324.086V322.946C323.906 323.018 323.672 323.09 323.294 323.09ZM318.902 322.064C320.846 322.064 321.728 320.642 321.728 319.562V317.978C321.242 318.284 320.396 318.518 319.604 318.662C318.146 318.932 316.976 319.184 316.976 320.552C316.976 321.794 317.948 322.064 318.902 322.064ZM326.62 313.694V315.242H326.656C327.214 314.342 328.186 313.586 329.428 313.586C329.698 313.586 329.842 313.622 330.022 313.694V315.098H329.968C329.752 315.026 329.608 315.008 329.32 315.008C327.88 315.008 326.62 316.088 326.62 317.834V323H325.162V313.694H326.62ZM338.175 323.252C335.403 323.252 333.675 321.056 333.675 318.356C333.675 315.656 335.403 313.46 338.175 313.46C340.371 313.46 341.829 314.72 342.153 316.7H340.677C340.461 315.44 339.579 314.666 338.175 314.666C336.195 314.666 335.169 316.304 335.169 318.356C335.169 320.408 336.195 322.028 338.175 322.028C339.687 322.028 340.587 321.164 340.713 319.724H342.153C341.955 321.956 340.497 323.252 338.175 323.252ZM347.509 323.252C344.737 323.252 343.009 321.056 343.009 318.356C343.009 315.656 344.737 313.46 347.509 313.46C350.299 313.46 351.991 315.656 351.991 318.356C351.991 321.056 350.299 323.252 347.509 323.252ZM347.509 322.028C349.489 322.028 350.497 320.408 350.497 318.356C350.497 316.304 349.489 314.666 347.509 314.666C345.529 314.666 344.503 316.304 344.503 318.356C344.503 320.408 345.529 322.028 347.509 322.028ZM354.903 313.694V315.242H354.939C355.497 314.342 356.469 313.586 357.711 313.586C357.981 313.586 358.125 313.622 358.305 313.694V315.098H358.251C358.035 315.026 357.891 315.008 357.603 315.008C356.163 315.008 354.903 316.088 354.903 317.834V323H353.445V313.694H354.903ZM363.143 323.27C360.587 323.27 359.165 322.064 359.021 319.976H360.515C360.713 321.596 361.793 322.046 363.179 322.046C364.709 322.046 365.339 321.38 365.339 320.516C365.339 319.472 364.619 319.202 362.909 318.842C361.073 318.464 359.435 318.086 359.435 316.052C359.435 314.504 360.623 313.496 362.783 313.496C365.087 313.496 366.221 314.594 366.437 316.412H364.943C364.799 315.188 364.133 314.648 362.747 314.648C361.415 314.648 360.875 315.242 360.875 315.98C360.875 316.988 361.775 317.186 363.377 317.51C365.249 317.888 366.815 318.302 366.815 320.444C366.815 322.316 365.285 323.27 363.143 323.27ZM372.364 323.252C369.52 323.252 367.864 321.056 367.864 318.356C367.864 315.656 369.628 313.46 372.274 313.46C375.064 313.46 376.558 315.62 376.558 318.698H369.358C369.466 320.588 370.492 322.028 372.364 322.028C373.714 322.028 374.614 321.38 374.938 320.12H376.36C375.928 322.118 374.47 323.252 372.364 323.252ZM372.274 314.612C370.546 314.612 369.61 315.908 369.394 317.6H374.992C374.902 315.746 373.948 314.612 372.274 314.612ZM378.038 323V310.13H379.496V323H378.038ZM385.513 323.252C382.669 323.252 381.013 321.056 381.013 318.356C381.013 315.656 382.777 313.46 385.423 313.46C388.213 313.46 389.707 315.62 389.707 318.698H382.507C382.615 320.588 383.641 322.028 385.513 322.028C386.863 322.028 387.763 321.38 388.087 320.12H389.509C389.077 322.118 387.619 323.252 385.513 323.252ZM385.423 314.612C383.695 314.612 382.759 315.908 382.543 317.6H388.141C388.051 315.746 387.097 314.612 385.423 314.612ZM390.363 314.882V313.694H391.713V310.76H393.171V313.694H394.971V314.882H393.171V320.93C393.171 321.578 393.513 321.794 394.107 321.794C394.395 321.794 394.719 321.722 394.881 321.668H394.935V322.928C394.593 323 394.197 323.054 393.765 323.054C392.577 323.054 391.713 322.568 391.713 321.254V314.882H390.363ZM400.366 323.252C397.522 323.252 395.866 321.056 395.866 318.356C395.866 315.656 397.63 313.46 400.276 313.46C403.066 313.46 404.56 315.62 404.56 318.698H397.36C397.468 320.588 398.494 322.028 400.366 322.028C401.716 322.028 402.616 321.38 402.94 320.12H404.362C403.93 322.118 402.472 323.252 400.366 323.252ZM400.276 314.612C398.548 314.612 397.612 315.908 397.396 317.6H402.994C402.904 315.746 401.95 314.612 400.276 314.612ZM57.1623 344.27C54.6243 344.27 53.0403 342.362 53.0403 339.374C53.0403 336.278 54.8223 334.478 57.1263 334.478C58.4403 334.478 59.4483 335.126 60.0423 336.008H60.0783V331.13H61.5363V344H60.0783V342.866H60.0423C59.3403 343.766 58.4763 344.27 57.1623 344.27ZM57.2163 343.046C59.2863 343.046 60.1683 341.498 60.1683 339.392C60.1683 337.232 59.1243 335.72 57.1983 335.72C55.4343 335.72 54.5343 337.304 54.5343 339.392C54.5343 341.498 55.4343 343.046 57.2163 343.046ZM67.4895 344.252C64.6455 344.252 62.9895 342.056 62.9895 339.356C62.9895 336.656 64.7535 334.46 67.3995 334.46C70.1895 334.46 71.6835 336.62 71.6835 339.698H64.4835C64.5915 341.588 65.6175 343.028 67.4895 343.028C68.8395 343.028 69.7395 342.38 70.0635 341.12H71.4855C71.0535 343.118 69.5955 344.252 67.4895 344.252ZM67.3995 335.612C65.6715 335.612 64.7355 336.908 64.5195 338.6H70.1175C70.0275 336.746 69.0735 335.612 67.3995 335.612ZM77.5371 344.27C76.2771 344.27 75.3591 343.82 74.6031 342.776H74.5671V344H73.1091V331.13H74.5671V336.026H74.6031C75.3051 335.072 76.2411 334.478 77.5911 334.478C79.9491 334.478 81.5511 336.278 81.5511 339.374C81.5511 342.362 80.0571 344.27 77.5371 344.27ZM77.4291 343.046C79.2111 343.046 80.0571 341.498 80.0571 339.392C80.0571 337.304 79.2111 335.72 77.4471 335.72C75.4131 335.72 74.4771 337.376 74.4771 339.392C74.4771 341.48 75.4491 343.046 77.4291 343.046ZM90.3136 344.09C89.3596 344.09 88.8556 343.658 88.7116 342.704H88.6936C88.1356 343.424 87.1816 344.18 85.5976 344.18C83.8336 344.18 82.4476 343.352 82.4476 341.588C82.4476 339.392 84.1756 338.942 86.4976 338.582C87.8116 338.384 88.7296 338.258 88.7296 337.25C88.7296 336.206 87.9736 335.612 86.6416 335.612C85.1296 335.612 84.3736 336.26 84.3196 337.664H82.9156C82.9696 335.864 84.1576 334.514 86.6236 334.514C88.6036 334.514 90.0616 335.252 90.0616 337.466V341.894C90.0616 342.65 90.2416 343.064 91.0516 342.884H91.1056V343.946C90.9256 344.018 90.6916 344.09 90.3136 344.09ZM85.9216 343.064C87.8656 343.064 88.7476 341.642 88.7476 340.562V338.978C88.2616 339.284 87.4156 339.518 86.6236 339.662C85.1656 339.932 83.9956 340.184 83.9956 341.552C83.9956 342.794 84.9676 343.064 85.9216 343.064ZM91.4974 346.646C91.1734 346.646 90.9214 346.61 90.6874 346.574V345.386H90.7234C90.9034 345.422 91.0654 345.44 91.2274 345.44C91.8574 345.44 92.1814 345.17 92.1814 344.54V334.694H93.6394V344.612C93.6394 346.34 92.6854 346.646 91.4974 346.646ZM92.1814 332.93V331.13H93.6394V332.93H92.1814ZM99.6047 344.252C96.8327 344.252 95.1047 342.056 95.1047 339.356C95.1047 336.656 96.8327 334.46 99.6047 334.46C102.395 334.46 104.087 336.656 104.087 339.356C104.087 342.056 102.395 344.252 99.6047 344.252ZM99.6047 343.028C101.585 343.028 102.593 341.408 102.593 339.356C102.593 337.304 101.585 335.666 99.6047 335.666C97.6247 335.666 96.5987 337.304 96.5987 339.356C96.5987 341.408 97.6247 343.028 99.6047 343.028ZM104.886 344V342.218H106.632V344H104.886ZM116.203 344.198C113.395 344.198 111.271 342.956 111.271 339.842V331.13H112.891V339.68C112.891 341.876 114.133 342.812 116.257 342.812C118.291 342.812 119.515 341.876 119.515 339.68V331.13H121.135V339.842C121.135 342.956 118.957 344.198 116.203 344.198ZM124.577 334.694V335.918H124.613C125.279 335.036 126.215 334.478 127.565 334.478C129.509 334.478 130.697 335.54 130.697 337.466V344H129.239V337.592C129.239 336.386 128.447 335.702 127.133 335.702C125.657 335.702 124.577 336.746 124.577 338.276V344H123.119V334.694H124.577ZM139.937 344.09C138.983 344.09 138.479 343.658 138.335 342.704H138.317C137.759 343.424 136.805 344.18 135.221 344.18C133.457 344.18 132.071 343.352 132.071 341.588C132.071 339.392 133.799 338.942 136.121 338.582C137.435 338.384 138.353 338.258 138.353 337.25C138.353 336.206 137.597 335.612 136.265 335.612C134.753 335.612 133.997 336.26 133.943 337.664H132.539C132.593 335.864 133.781 334.514 136.247 334.514C138.227 334.514 139.685 335.252 139.685 337.466V341.894C139.685 342.65 139.865 343.064 140.675 342.884H140.729V343.946C140.549 344.018 140.315 344.09 139.937 344.09ZM135.545 343.064C137.489 343.064 138.371 341.642 138.371 340.562V338.978C137.885 339.284 137.039 339.518 136.247 339.662C134.789 339.932 133.619 340.184 133.619 341.552C133.619 342.794 134.591 343.064 135.545 343.064ZM148.648 344.252C145.876 344.252 144.148 342.056 144.148 339.356C144.148 336.656 145.876 334.46 148.648 334.46C150.844 334.46 152.302 335.72 152.626 337.7H151.15C150.934 336.44 150.052 335.666 148.648 335.666C146.668 335.666 145.642 337.304 145.642 339.356C145.642 341.408 146.668 343.028 148.648 343.028C150.16 343.028 151.06 342.164 151.186 340.724H152.626C152.428 342.956 150.97 344.252 148.648 344.252ZM154.004 344V334.694H155.462V344H154.004ZM154.004 332.93V331.13H155.462V332.93H154.004ZM158.907 334.694V335.918H158.943C159.609 335.036 160.545 334.478 161.895 334.478C163.839 334.478 165.027 335.54 165.027 337.466V344H163.569V337.592C163.569 336.386 162.777 335.702 161.463 335.702C159.987 335.702 158.907 336.746 158.907 338.276V344H157.449V334.694H158.907ZM166.189 335.882V334.694H167.539V331.76H168.997V334.694H170.797V335.882H168.997V341.93C168.997 342.578 169.339 342.794 169.933 342.794C170.221 342.794 170.545 342.722 170.707 342.668H170.761V343.928C170.419 344 170.023 344.054 169.591 344.054C168.403 344.054 167.539 343.568 167.539 342.254V335.882H166.189ZM179.683 344H178.225V342.722H178.189C177.523 343.622 176.731 344.216 175.381 344.216C173.473 344.216 172.249 343.064 172.249 341.138V334.694H173.707V341.102C173.707 342.308 174.481 343.01 175.795 343.01C177.271 343.01 178.225 341.894 178.225 340.418V334.694H179.683V344ZM183.112 334.694V336.242H183.148C183.706 335.342 184.678 334.586 185.92 334.586C186.19 334.586 186.334 334.622 186.514 334.694V336.098H186.46C186.244 336.026 186.1 336.008 185.812 336.008C184.372 336.008 183.112 337.088 183.112 338.834V344H181.654V334.694H183.112ZM194.78 344.09C193.826 344.09 193.322 343.658 193.178 342.704H193.16C192.602 343.424 191.648 344.18 190.064 344.18C188.3 344.18 186.914 343.352 186.914 341.588C186.914 339.392 188.642 338.942 190.964 338.582C192.278 338.384 193.196 338.258 193.196 337.25C193.196 336.206 192.44 335.612 191.108 335.612C189.596 335.612 188.84 336.26 188.786 337.664H187.382C187.436 335.864 188.624 334.514 191.09 334.514C193.07 334.514 194.528 335.252 194.528 337.466V341.894C194.528 342.65 194.708 343.064 195.518 342.884H195.572V343.946C195.392 344.018 195.158 344.09 194.78 344.09ZM190.388 343.064C192.332 343.064 193.214 341.642 193.214 340.562V338.978C192.728 339.284 191.882 339.518 191.09 339.662C189.632 339.932 188.462 340.184 188.462 341.552C188.462 342.794 189.434 343.064 190.388 343.064ZM203.113 344.27C200.575 344.27 198.991 342.362 198.991 339.374C198.991 336.278 200.773 334.478 203.077 334.478C204.391 334.478 205.399 335.126 205.993 336.008H206.029V331.13H207.487V344H206.029V342.866H205.993C205.291 343.766 204.427 344.27 203.113 344.27ZM203.167 343.046C205.237 343.046 206.119 341.498 206.119 339.392C206.119 337.232 205.075 335.72 203.149 335.72C201.385 335.72 200.485 337.304 200.485 339.392C200.485 341.498 201.385 343.046 203.167 343.046ZM213.441 344.252C210.597 344.252 208.941 342.056 208.941 339.356C208.941 336.656 210.705 334.46 213.351 334.46C216.141 334.46 217.635 336.62 217.635 339.698H210.435C210.543 341.588 211.569 343.028 213.441 343.028C214.791 343.028 215.691 342.38 216.015 341.12H217.437C217.005 343.118 215.547 344.252 213.441 344.252ZM213.351 335.612C211.623 335.612 210.687 336.908 210.471 338.6H216.069C215.979 336.746 215.025 335.612 213.351 335.612ZM225.886 344.27C223.33 344.27 221.458 342.722 221.35 340.436H222.844C223.042 341.966 224.122 342.938 225.868 342.938C227.632 342.938 228.766 341.75 228.766 339.95C228.766 338.096 227.488 337.016 225.868 337.016C224.536 337.016 223.618 337.556 223.096 338.294H221.638L223.006 331.67H229.576V333.02H224.068L223.258 336.728H223.294C223.996 336.062 224.932 335.684 226.12 335.684C228.316 335.684 230.314 337.25 230.314 339.986C230.314 342.614 228.442 344.27 225.886 344.27ZM235.835 344.27C233.279 344.27 231.407 342.722 231.299 340.436H232.793C232.991 341.966 234.071 342.938 235.817 342.938C237.581 342.938 238.715 341.75 238.715 339.95C238.715 338.096 237.437 337.016 235.817 337.016C234.485 337.016 233.567 337.556 233.045 338.294H231.587L232.955 331.67H239.525V333.02H234.017L233.207 336.728H233.243C233.945 336.062 234.881 335.684 236.069 335.684C238.265 335.684 240.263 337.25 240.263 339.986C240.263 342.614 238.391 344.27 235.835 344.27ZM248.667 344.252C245.895 344.252 244.167 342.056 244.167 339.356C244.167 336.656 245.895 334.46 248.667 334.46C250.863 334.46 252.321 335.72 252.645 337.7H251.169C250.953 336.44 250.071 335.666 248.667 335.666C246.687 335.666 245.661 337.304 245.661 339.356C245.661 341.408 246.687 343.028 248.667 343.028C250.179 343.028 251.079 342.164 251.205 340.724H252.645C252.447 342.956 250.989 344.252 248.667 344.252ZM254.023 344V334.694H255.481V336.026H255.517C256.093 335.126 257.083 334.478 258.253 334.478C259.387 334.478 260.287 335.054 260.683 336.134H260.719C261.313 335.072 262.429 334.478 263.563 334.478C265.219 334.478 266.389 335.54 266.389 337.466V344H264.931V337.538C264.931 336.386 264.157 335.702 263.221 335.702C262.015 335.702 260.935 336.746 260.935 338.204V344H259.477V337.538C259.477 336.386 258.829 335.702 257.875 335.702C256.741 335.702 255.481 336.746 255.481 338.204V344H254.023ZM275.157 344.252C272.313 344.252 270.657 342.056 270.657 339.356C270.657 336.656 272.421 334.46 275.067 334.46C277.857 334.46 279.351 336.62 279.351 339.698H272.151C272.259 341.588 273.285 343.028 275.157 343.028C276.507 343.028 277.407 342.38 277.731 341.12H279.153C278.721 343.118 277.263 344.252 275.157 344.252ZM275.067 335.612C273.339 335.612 272.403 336.908 272.187 338.6H277.785C277.695 336.746 276.741 335.612 275.067 335.612ZM282.235 334.694V336.242H282.271C282.829 335.342 283.801 334.586 285.043 334.586C285.313 334.586 285.457 334.622 285.637 334.694V336.098H285.583C285.367 336.026 285.223 336.008 284.935 336.008C283.495 336.008 282.235 337.088 282.235 338.834V344H280.777V334.694H282.235ZM293.903 344.09C292.949 344.09 292.445 343.658 292.301 342.704H292.283C291.725 343.424 290.771 344.18 289.187 344.18C287.423 344.18 286.037 343.352 286.037 341.588C286.037 339.392 287.765 338.942 290.087 338.582C291.401 338.384 292.319 338.258 292.319 337.25C292.319 336.206 291.563 335.612 290.231 335.612C288.719 335.612 287.963 336.26 287.909 337.664H286.505C286.559 335.864 287.747 334.514 290.213 334.514C292.193 334.514 293.651 335.252 293.651 337.466V341.894C293.651 342.65 293.831 343.064 294.641 342.884H294.695V343.946C294.515 344.018 294.281 344.09 293.903 344.09ZM289.511 343.064C291.455 343.064 292.337 341.642 292.337 340.562V338.978C291.851 339.284 291.005 339.518 290.213 339.662C288.755 339.932 287.585 340.184 287.585 341.552C287.585 342.794 288.557 343.064 289.511 343.064ZM302.614 344.252C299.77 344.252 298.114 342.056 298.114 339.356C298.114 336.656 299.878 334.46 302.524 334.46C305.314 334.46 306.808 336.62 306.808 339.698H299.608C299.716 341.588 300.742 343.028 302.614 343.028C303.964 343.028 304.864 342.38 305.188 341.12H306.61C306.178 343.118 304.72 344.252 302.614 344.252ZM302.524 335.612C300.796 335.612 299.86 336.908 299.644 338.6H305.242C305.152 336.746 304.198 335.612 302.524 335.612ZM308.288 344V331.13H309.746V344H308.288ZM318.628 344.252C315.784 344.252 314.128 342.056 314.128 339.356C314.128 336.656 315.892 334.46 318.538 334.46C321.328 334.46 322.822 336.62 322.822 339.698H315.622C315.73 341.588 316.756 343.028 318.628 343.028C319.978 343.028 320.878 342.38 321.202 341.12H322.624C322.192 343.118 320.734 344.252 318.628 344.252ZM318.538 335.612C316.81 335.612 315.874 336.908 315.658 338.6H321.256C321.166 336.746 320.212 335.612 318.538 335.612ZM327.776 344.27C325.22 344.27 323.798 343.064 323.654 340.976H325.148C325.346 342.596 326.426 343.046 327.812 343.046C329.342 343.046 329.972 342.38 329.972 341.516C329.972 340.472 329.252 340.202 327.542 339.842C325.706 339.464 324.068 339.086 324.068 337.052C324.068 335.504 325.256 334.496 327.416 334.496C329.72 334.496 330.854 335.594 331.07 337.412H329.576C329.432 336.188 328.766 335.648 327.38 335.648C326.048 335.648 325.508 336.242 325.508 336.98C325.508 337.988 326.408 338.186 328.01 338.51C329.882 338.888 331.448 339.302 331.448 341.444C331.448 343.316 329.918 344.27 327.776 344.27ZM332.074 335.882V334.694H333.424V331.76H334.882V334.694H336.682V335.882H334.882V341.93C334.882 342.578 335.224 342.794 335.818 342.794C336.106 342.794 336.43 342.722 336.592 342.668H336.646V343.928C336.304 344 335.908 344.054 335.476 344.054C334.288 344.054 333.424 343.568 333.424 342.254V335.882H332.074ZM345.495 344.09C344.541 344.09 344.037 343.658 343.893 342.704H343.875C343.317 343.424 342.363 344.18 340.779 344.18C339.015 344.18 337.629 343.352 337.629 341.588C337.629 339.392 339.357 338.942 341.679 338.582C342.993 338.384 343.911 338.258 343.911 337.25C343.911 336.206 343.155 335.612 341.823 335.612C340.311 335.612 339.555 336.26 339.501 337.664H338.097C338.151 335.864 339.339 334.514 341.805 334.514C343.785 334.514 345.243 335.252 345.243 337.466V341.894C345.243 342.65 345.423 343.064 346.233 342.884H346.287V343.946C346.107 344.018 345.873 344.09 345.495 344.09ZM341.103 343.064C343.047 343.064 343.929 341.642 343.929 340.562V338.978C343.443 339.284 342.597 339.518 341.805 339.662C340.347 339.932 339.177 340.184 339.177 341.552C339.177 342.794 340.149 343.064 341.103 343.064ZM341.229 333.236L342.147 330.95H343.947L342.471 333.236H341.229ZM348.821 334.694V335.918H348.857C349.523 335.036 350.459 334.478 351.809 334.478C353.753 334.478 354.941 335.54 354.941 337.466V344H353.483V337.592C353.483 336.386 352.691 335.702 351.377 335.702C349.901 335.702 348.821 336.746 348.821 338.276V344H347.363V334.694H348.821ZM360.473 344.27C357.935 344.27 356.351 342.362 356.351 339.374C356.351 336.278 358.133 334.478 360.437 334.478C361.751 334.478 362.759 335.126 363.353 336.008H363.389V331.13H364.847V344H363.389V342.866H363.353C362.651 343.766 361.787 344.27 360.473 344.27ZM360.527 343.046C362.597 343.046 363.479 341.498 363.479 339.392C363.479 337.232 362.435 335.72 360.509 335.72C358.745 335.72 357.845 337.304 357.845 339.392C357.845 341.498 358.745 343.046 360.527 343.046ZM374.13 344.09C373.176 344.09 372.672 343.658 372.528 342.704H372.51C371.952 343.424 370.998 344.18 369.414 344.18C367.65 344.18 366.264 343.352 366.264 341.588C366.264 339.392 367.992 338.942 370.314 338.582C371.628 338.384 372.546 338.258 372.546 337.25C372.546 336.206 371.79 335.612 370.458 335.612C368.946 335.612 368.19 336.26 368.136 337.664H366.732C366.786 335.864 367.974 334.514 370.44 334.514C372.42 334.514 373.878 335.252 373.878 337.466V341.894C373.878 342.65 374.058 343.064 374.868 342.884H374.922V343.946C374.742 344.018 374.508 344.09 374.13 344.09ZM369.738 343.064C371.682 343.064 372.564 341.642 372.564 340.562V338.978C372.078 339.284 371.232 339.518 370.44 339.662C368.982 339.932 367.812 340.184 367.812 341.552C367.812 342.794 368.784 343.064 369.738 343.064ZM377.456 334.694V336.242H377.492C378.05 335.342 379.022 334.586 380.264 334.586C380.534 334.586 380.678 334.622 380.858 334.694V336.098H380.804C380.588 336.026 380.444 336.008 380.156 336.008C378.716 336.008 377.456 337.088 377.456 338.834V344H375.998V334.694H377.456ZM380.897 344V342.218H382.643V344H380.897Z" fill="#F3EEE1"/>
<path d="M119.968 254.768C108.896 254.768 102.752 247.6 102.752 236.464C102.752 222.64 112.288 206.64 128.8 206.64C135.328 206.64 139.808 209.136 142.048 210.608L141.152 216.432H140.768C138.784 210.16 134.624 207.536 128.992 207.536C115.168 207.536 106.784 223.472 106.784 237.04C106.784 246.832 111.136 253.872 119.904 253.872C126.112 253.872 131.296 250.224 135.136 243.952H135.52L133.024 251.376C129.824 252.912 125.664 254.768 119.968 254.768ZM149.645 213.808C148.109 213.808 146.829 212.528 146.829 210.992C146.829 209.456 148.109 208.176 149.645 208.176C151.181 208.176 152.461 209.456 152.461 210.992C152.461 212.528 151.181 213.808 149.645 213.808ZM142.477 254.768C139.917 254.768 140.365 251.312 140.941 248.752L145.677 226.48C146.061 224.688 146.445 222.896 145.293 222.896C144.333 222.896 142.541 224.816 139.981 228.144L139.661 227.888C142.605 222.384 145.613 219.696 147.533 219.696C149.709 219.696 149.837 222 149.069 225.712L144.333 247.984C144.141 248.88 143.629 251.248 144.781 251.248C146.061 251.248 148.813 248.304 151.309 244.912L151.629 245.168C148.429 251.184 145.037 254.768 142.477 254.768ZM184.066 244.912L184.386 245.168C181.186 251.184 177.73 254.768 175.362 254.768C173.058 254.768 172.738 252.592 173.634 248.752L177.538 231.856C178.69 226.864 179.458 222.512 175.81 222.512C169.41 222.512 160.45 237.296 156.866 254H153.666L159.49 226.48C159.874 224.688 160.258 222.896 159.106 222.896C158.146 222.896 156.354 224.816 153.794 228.144L153.474 227.888C156.418 222.384 159.426 219.696 161.345 219.696C163.522 219.696 163.65 222 162.882 225.712L159.362 242.096C164.29 228.784 171.714 219.696 177.73 219.696C183.17 219.696 182.21 225.648 180.674 232.304L177.09 247.984C176.706 249.776 176.258 251.568 177.346 251.568C178.306 251.568 180.482 249.776 184.066 244.912ZM193.395 254.768C188.659 254.768 185.331 251.632 185.331 244.656C185.331 233.776 193.587 219.696 204.019 219.696C208.627 219.696 210.931 222.448 210.931 226.032L208.115 228.912H207.731C208.371 223.024 206.707 220.592 203.571 220.592C196.531 220.592 188.786 232.688 188.786 243.888C188.786 249.776 190.963 252.336 194.675 252.336C198.899 252.336 202.611 249.2 206.451 244.464L206.835 244.72C202.291 251.568 198.259 254.768 193.395 254.768ZM239.903 244.912L240.223 245.168C237.023 251.184 233.567 254.768 231.199 254.768C228.895 254.768 228.575 252.592 229.471 248.752L233.375 231.856C234.527 226.864 235.295 222.512 231.647 222.512C225.183 222.512 216.223 237.296 212.703 254H209.503L218.335 212.016C219.167 207.92 218.463 206.384 216.351 206L216.479 205.616L223.007 203.952H223.263L215.263 241.84C220.191 228.72 227.551 219.696 233.567 219.696C239.007 219.696 238.047 225.648 236.511 232.304L232.927 247.984C232.543 249.776 232.095 251.568 233.183 251.568C234.143 251.568 236.319 249.776 239.903 244.912ZM271.222 244.912L271.542 245.168C268.342 251.184 264.95 254.768 262.39 254.768C259.83 254.768 260.278 251.312 260.854 248.752L262.838 239.472C258.87 249.328 252.534 254.768 247.222 254.768C243.254 254.768 240.95 251.632 240.95 245.744C240.95 234.288 249.59 219.696 260.982 219.696C263.734 219.696 265.91 220.528 267.126 222.384L269.814 220.08H270.198L264.246 247.984C264.054 248.88 263.542 251.248 264.694 251.248C265.974 251.248 268.726 248.304 271.222 244.912ZM249.27 252.464C254.582 252.464 262.134 243.184 264.758 230.448C264.95 229.552 265.078 228.72 265.078 227.44C265.078 223.6 263.99 220.592 260.086 220.592C251.958 220.592 244.534 233.776 244.534 244.464C244.534 249.584 246.262 252.464 249.27 252.464ZM296.006 251.248C297.286 251.248 300.038 248.304 302.534 244.912L302.854 245.168C299.654 251.184 296.262 254.768 293.702 254.768C291.142 254.768 291.59 251.312 292.166 248.752L294.086 239.6C290.182 249.328 283.846 254.768 278.534 254.768C274.566 254.768 272.262 251.632 272.262 245.744C272.262 234.288 280.902 219.696 292.294 219.696C294.662 219.696 296.646 220.336 297.926 221.68L299.974 212.016C300.87 207.92 300.102 206.384 298.054 206L298.118 205.616L304.646 203.952H304.902L295.558 247.984C295.366 248.88 294.854 251.248 296.006 251.248ZM280.582 252.464C285.702 252.464 292.87 243.824 295.75 231.856L296.198 229.744C296.326 229.04 296.39 228.4 296.39 227.44C296.39 223.6 295.302 220.592 291.398 220.592C283.27 220.592 275.846 233.776 275.846 244.464C275.846 249.584 277.574 252.464 280.582 252.464ZM333.847 244.912L334.167 245.168C330.967 251.184 327.575 254.768 325.015 254.768C322.455 254.768 322.903 251.312 323.479 248.752L325.463 239.472C321.495 249.328 315.159 254.768 309.847 254.768C305.879 254.768 303.575 251.632 303.575 245.744C303.575 234.288 312.215 219.696 323.607 219.696C326.359 219.696 328.535 220.528 329.751 222.384L332.439 220.08H332.823L326.871 247.984C326.679 248.88 326.167 251.248 327.319 251.248C328.599 251.248 331.351 248.304 333.847 244.912ZM311.895 252.464C317.207 252.464 324.759 243.184 327.383 230.448C327.575 229.552 327.703 228.72 327.703 227.44C327.703 223.6 326.615 220.592 322.711 220.592C314.583 220.592 307.159 233.776 307.159 244.464C307.159 249.584 308.887 252.464 311.895 252.464Z" fill="#B9D6FE"/>
</svg>
