<svg width="436" height="493" viewBox="0 0 436 493" fill="none" xmlns="http://www.w3.org/2000/svg">
<path d="M0 218C0 97.6019 97.6019 0 218 0V0C338.398 0 436 97.6019 436 218V493H0V218Z" fill="#FD6500"/>
<path d="M173.424 168.224C170.974 168.224 169.42 166.264 169.42 163.212C169.42 160.146 171.002 158.2 173.438 158.2C175.916 158.2 177.428 160.132 177.428 163.212C177.428 166.264 175.916 168.224 173.424 168.224ZM173.438 166.6C174.866 166.6 175.44 165.27 175.44 163.212C175.44 161.182 174.852 159.824 173.438 159.824C172.01 159.824 171.408 161.168 171.408 163.212C171.408 165.242 172.01 166.6 173.438 166.6ZM183.446 168V165.914H179.022V163.856L183.376 158.298H185.308V164.388H186.764V165.914H185.308V168H183.446ZM180.562 164.346V164.388H183.446V160.664H183.418L180.562 164.346ZM188.034 168L191.954 157.99H193.466L189.546 168H188.034ZM202.832 168.21C200.018 168.21 198.016 166.04 198.016 163.03C198.016 160.062 199.864 157.794 202.818 157.794C205.282 157.794 206.738 159.264 206.948 161.168H204.932C204.75 160.16 203.994 159.502 202.818 159.502C200.97 159.502 200.088 161.042 200.088 163.03C200.088 165.074 201.152 166.544 202.832 166.544C204.022 166.544 204.862 165.83 204.988 164.78H206.976C206.92 165.662 206.542 166.516 205.87 167.146C205.184 167.79 204.218 168.21 202.832 168.21ZM207.859 168L211.345 157.99H213.445L216.973 168H214.859L214.187 165.872H210.575L209.917 168H207.859ZM211.947 161.434L211.051 164.318H213.697L212.801 161.434C212.633 160.902 212.395 159.894 212.395 159.894H212.367C212.367 159.894 212.115 160.902 211.947 161.434ZM218.656 168V157.99H222.562C225.236 157.99 226.958 160.146 226.958 163.1C226.958 164.724 226.412 166.152 225.362 167.034C224.62 167.65 223.654 168 222.394 168H218.656ZM220.686 166.25H222.254C224.158 166.25 224.9 165.088 224.9 163.1C224.9 161.112 224.032 159.726 222.31 159.726H220.686V166.25ZM228.902 168V157.99H236.266V159.698H230.932V161.938H235.608V163.604H230.932V166.306H236.308V168H228.902ZM238.41 168V157.99H243.002C244.934 157.99 246.222 159.11 246.222 160.776C246.222 161.952 245.676 162.848 244.388 163.198V163.24C245.312 163.506 245.788 164.038 245.914 165.256C246.054 166.67 245.998 167.748 246.348 167.902V168H244.402C244.15 167.888 244.122 166.768 244.038 165.69C243.954 164.598 243.338 163.982 242.078 163.982H240.44V168H238.41ZM240.44 159.628V162.414H242.596C243.702 162.414 244.248 161.84 244.248 161.042C244.248 160.23 243.73 159.628 242.652 159.628H240.44ZM247.709 168L251.195 157.99H253.295L256.823 168H254.709L254.037 165.872H250.425L249.767 168H247.709ZM251.797 161.434L250.901 164.318H253.547L252.651 161.434C252.483 160.902 252.245 159.894 252.245 159.894H252.217C252.217 159.894 251.965 160.902 251.797 161.434ZM262.247 168.224C259.531 168.224 257.991 167.02 257.921 164.906H259.909C260.049 166.11 260.735 166.586 262.163 166.586C263.199 166.586 264.109 166.222 264.109 165.298C264.109 164.318 263.157 164.122 261.631 163.772C259.839 163.366 258.201 162.89 258.201 160.804C258.201 158.83 259.811 157.808 262.037 157.808C264.291 157.808 265.747 158.914 265.901 160.93H263.955C263.843 159.922 263.059 159.418 262.023 159.418C260.931 159.418 260.217 159.88 260.217 160.594C260.217 161.406 260.917 161.644 262.401 161.966C264.459 162.414 266.139 162.904 266.139 165.06C266.139 167.09 264.501 168.224 262.247 168.224Z" fill="#F3EEE1"/>
<path d="M45.541 323.252C41.887 323.252 39.511 320.462 39.511 316.556C39.511 312.776 41.779 309.842 45.613 309.842C48.619 309.842 50.437 311.57 50.779 313.946H49.195C48.889 312.344 47.611 311.246 45.577 311.246C42.751 311.246 41.167 313.532 41.167 316.556C41.167 319.706 42.913 321.83 45.595 321.83C48.025 321.83 49.177 320.174 49.339 318.284H50.941C50.923 319.562 50.311 321.002 49.393 321.902C48.493 322.784 47.179 323.252 45.541 323.252ZM59.8507 323.09C58.8967 323.09 58.3927 322.658 58.2487 321.704H58.2307C57.6727 322.424 56.7187 323.18 55.1347 323.18C53.3707 323.18 51.9847 322.352 51.9847 320.588C51.9847 318.392 53.7127 317.942 56.0347 317.582C57.3487 317.384 58.2667 317.258 58.2667 316.25C58.2667 315.206 57.5107 314.612 56.1787 314.612C54.6667 314.612 53.9107 315.26 53.8567 316.664H52.4527C52.5067 314.864 53.6947 313.514 56.1607 313.514C58.1407 313.514 59.5987 314.252 59.5987 316.466V320.894C59.5987 321.65 59.7787 322.064 60.5887 321.884H60.6427V322.946C60.4627 323.018 60.2287 323.09 59.8507 323.09ZM55.4587 322.064C57.4027 322.064 58.2847 320.642 58.2847 319.562V317.978C57.7987 318.284 56.9527 318.518 56.1607 318.662C54.7027 318.932 53.5327 319.184 53.5327 320.552C53.5327 321.794 54.5047 322.064 55.4587 322.064ZM65.3185 323.27C62.7805 323.27 61.1965 321.362 61.1965 318.374C61.1965 315.278 62.9785 313.478 65.2825 313.478C66.5965 313.478 67.6045 314.126 68.1985 315.008H68.2345V310.13H69.6925V323H68.2345V321.866H68.1985C67.4965 322.766 66.6325 323.27 65.3185 323.27ZM65.3725 322.046C67.4425 322.046 68.3245 320.498 68.3245 318.392C68.3245 316.232 67.2805 314.72 65.3545 314.72C63.5905 314.72 62.6905 316.304 62.6905 318.392C62.6905 320.498 63.5905 322.046 65.3725 322.046ZM75.6457 323.252C72.8017 323.252 71.1457 321.056 71.1457 318.356C71.1457 315.656 72.9097 313.46 75.5557 313.46C78.3457 313.46 79.8397 315.62 79.8397 318.698H72.6397C72.7477 320.588 73.7737 322.028 75.6457 322.028C76.9957 322.028 77.8957 321.38 78.2197 320.12H79.6417C79.2097 322.118 77.7517 323.252 75.6457 323.252ZM75.5557 314.612C73.8277 314.612 72.8917 315.908 72.6757 317.6H78.2737C78.1837 315.746 77.2297 314.612 75.5557 314.612ZM82.7234 313.694V315.242H82.7594C83.3174 314.342 84.2894 313.586 85.5314 313.586C85.8014 313.586 85.9454 313.622 86.1254 313.694V315.098H86.0714C85.8554 315.026 85.7114 315.008 85.4234 315.008C83.9834 315.008 82.7234 316.088 82.7234 317.834V323H81.2654V313.694H82.7234ZM94.3918 323.09C93.4378 323.09 92.9338 322.658 92.7898 321.704H92.7718C92.2138 322.424 91.2598 323.18 89.6758 323.18C87.9118 323.18 86.5258 322.352 86.5258 320.588C86.5258 318.392 88.2538 317.942 90.5758 317.582C91.8898 317.384 92.8078 317.258 92.8078 316.25C92.8078 315.206 92.0518 314.612 90.7197 314.612C89.2078 314.612 88.4518 315.26 88.3978 316.664H86.9938C87.0478 314.864 88.2358 313.514 90.7018 313.514C92.6818 313.514 94.1398 314.252 94.1398 316.466V320.894C94.1398 321.65 94.3198 322.064 95.1298 321.884H95.1837V322.946C95.0038 323.018 94.7698 323.09 94.3918 323.09ZM89.9998 322.064C91.9438 322.064 92.8258 320.642 92.8258 319.562V317.978C92.3398 318.284 91.4938 318.518 90.7018 318.662C89.2438 318.932 88.0738 319.184 88.0738 320.552C88.0738 321.794 89.0458 322.064 89.9998 322.064ZM99.7875 323.27C97.2315 323.27 95.8095 322.064 95.6655 319.976H97.1595C97.3575 321.596 98.4375 322.046 99.8235 322.046C101.354 322.046 101.984 321.38 101.984 320.516C101.984 319.472 101.264 319.202 99.5535 318.842C97.7175 318.464 96.0795 318.086 96.0795 316.052C96.0795 314.504 97.2675 313.496 99.4275 313.496C101.732 313.496 102.866 314.594 103.082 316.412H101.588C101.444 315.188 100.778 314.648 99.3915 314.648C98.0595 314.648 97.5195 315.242 97.5195 315.98C97.5195 316.988 98.4195 317.186 100.022 317.51C101.894 317.888 103.46 318.302 103.46 320.444C103.46 322.316 101.93 323.27 99.7875 323.27ZM109.178 313.694V315.242H109.214C109.772 314.342 110.744 313.586 111.986 313.586C112.256 313.586 112.4 313.622 112.58 313.694V315.098H112.526C112.31 315.026 112.166 315.008 111.878 315.008C110.438 315.008 109.178 316.088 109.178 317.834V323H107.72V313.694H109.178ZM117.517 323.252C114.673 323.252 113.017 321.056 113.017 318.356C113.017 315.656 114.781 313.46 117.427 313.46C120.217 313.46 121.711 315.62 121.711 318.698H114.511C114.619 320.588 115.645 322.028 117.517 322.028C118.867 322.028 119.767 321.38 120.091 320.12H121.513C121.081 322.118 119.623 323.252 117.517 323.252ZM117.427 314.612C115.699 314.612 114.763 315.908 114.547 317.6H120.145C120.055 315.746 119.101 314.612 117.427 314.612ZM126.736 323.27C124.198 323.27 122.614 321.362 122.614 318.374C122.614 315.278 124.396 313.478 126.7 313.478C128.014 313.478 129.022 314.126 129.616 315.008H129.652V310.13H131.11V323H129.652V321.866H129.616C128.914 322.766 128.05 323.27 126.736 323.27ZM126.79 322.046C128.86 322.046 129.742 320.498 129.742 318.392C129.742 316.232 128.698 314.72 126.772 314.72C125.008 314.72 124.108 316.304 124.108 318.392C124.108 320.498 125.008 322.046 126.79 322.046ZM137.064 323.252C134.292 323.252 132.564 321.056 132.564 318.356C132.564 315.656 134.292 313.46 137.064 313.46C139.854 313.46 141.546 315.656 141.546 318.356C141.546 321.056 139.854 323.252 137.064 323.252ZM137.064 322.028C139.044 322.028 140.052 320.408 140.052 318.356C140.052 316.304 139.044 314.666 137.064 314.666C135.084 314.666 134.058 316.304 134.058 318.356C134.058 320.408 135.084 322.028 137.064 322.028ZM144.458 313.694V314.918H144.494C145.16 314.036 146.096 313.478 147.446 313.478C149.39 313.478 150.578 314.54 150.578 316.466V323H149.12V316.592C149.12 315.386 148.328 314.702 147.014 314.702C145.538 314.702 144.458 315.746 144.458 317.276V323H143V313.694H144.458ZM156.11 323.27C153.572 323.27 151.988 321.362 151.988 318.374C151.988 315.278 153.77 313.478 156.074 313.478C157.388 313.478 158.396 314.126 158.99 315.008H159.026V310.13H160.484V323H159.026V321.866H158.99C158.288 322.766 157.424 323.27 156.11 323.27ZM156.164 322.046C158.234 322.046 159.116 320.498 159.116 318.392C159.116 316.232 158.072 314.72 156.146 314.72C154.382 314.72 153.482 316.304 153.482 318.392C153.482 320.498 154.382 322.046 156.164 322.046ZM166.437 323.252C163.593 323.252 161.937 321.056 161.937 318.356C161.937 315.656 163.701 313.46 166.347 313.46C169.137 313.46 170.631 315.62 170.631 318.698H163.431C163.539 320.588 164.565 322.028 166.437 322.028C167.787 322.028 168.687 321.38 169.011 320.12H170.433C170.001 322.118 168.543 323.252 166.437 323.252ZM166.347 314.612C164.619 314.612 163.683 315.908 163.467 317.6H169.065C168.975 315.746 168.021 314.612 166.347 314.612ZM179.364 323.09C178.41 323.09 177.906 322.658 177.762 321.704H177.744C177.186 322.424 176.232 323.18 174.648 323.18C172.884 323.18 171.498 322.352 171.498 320.588C171.498 318.392 173.226 317.942 175.548 317.582C176.862 317.384 177.78 317.258 177.78 316.25C177.78 315.206 177.024 314.612 175.692 314.612C174.18 314.612 173.424 315.26 173.37 316.664H171.966C172.02 314.864 173.208 313.514 175.674 313.514C177.654 313.514 179.112 314.252 179.112 316.466V320.894C179.112 321.65 179.292 322.064 180.102 321.884H180.156V322.946C179.976 323.018 179.742 323.09 179.364 323.09ZM174.972 322.064C176.916 322.064 177.798 320.642 177.798 319.562V317.978C177.312 318.284 176.466 318.518 175.674 318.662C174.216 318.932 173.046 319.184 173.046 320.552C173.046 321.794 174.018 322.064 174.972 322.064ZM184.832 323.27C182.294 323.27 180.71 321.362 180.71 318.374C180.71 315.278 182.492 313.478 184.796 313.478C186.11 313.478 187.118 314.126 187.712 315.008H187.748V310.13H189.206V323H187.748V321.866H187.712C187.01 322.766 186.146 323.27 184.832 323.27ZM184.886 322.046C186.956 322.046 187.838 320.498 187.838 318.392C187.838 316.232 186.794 314.72 184.868 314.72C183.104 314.72 182.204 316.304 182.204 318.392C182.204 320.498 183.104 322.046 184.886 322.046ZM198.489 323.09C197.535 323.09 197.031 322.658 196.887 321.704H196.869C196.311 322.424 195.357 323.18 193.773 323.18C192.009 323.18 190.623 322.352 190.623 320.588C190.623 318.392 192.351 317.942 194.673 317.582C195.987 317.384 196.905 317.258 196.905 316.25C196.905 315.206 196.149 314.612 194.817 314.612C193.305 314.612 192.549 315.26 192.495 316.664H191.091C191.145 314.864 192.333 313.514 194.799 313.514C196.779 313.514 198.237 314.252 198.237 316.466V320.894C198.237 321.65 198.417 322.064 199.227 321.884H199.281V322.946C199.101 323.018 198.867 323.09 198.489 323.09ZM194.097 322.064C196.041 322.064 196.923 320.642 196.923 319.562V317.978C196.437 318.284 195.591 318.518 194.799 318.662C193.341 318.932 192.171 319.184 192.171 320.552C192.171 321.794 193.143 322.064 194.097 322.064ZM203.885 323.27C201.329 323.27 199.907 322.064 199.763 319.976H201.257C201.455 321.596 202.535 322.046 203.921 322.046C205.451 322.046 206.081 321.38 206.081 320.516C206.081 319.472 205.361 319.202 203.651 318.842C201.815 318.464 200.177 318.086 200.177 316.052C200.177 314.504 201.365 313.496 203.525 313.496C205.829 313.496 206.963 314.594 207.179 316.412H205.685C205.541 315.188 204.875 314.648 203.489 314.648C202.157 314.648 201.617 315.242 201.617 315.98C201.617 316.988 202.517 317.186 204.119 317.51C205.991 317.888 207.557 318.302 207.557 320.444C207.557 322.316 206.027 323.27 203.885 323.27ZM211.818 325.988V313.694H213.276V315.008H213.312C214.014 314.054 214.95 313.478 216.3 313.478C218.658 313.478 220.296 315.278 220.296 318.374C220.296 321.362 218.766 323.27 216.246 323.27C214.986 323.27 214.086 322.892 213.312 321.902H213.276V325.988H211.818ZM216.138 322.046C217.92 322.046 218.802 320.498 218.802 318.392C218.802 316.304 217.92 314.72 216.156 314.72C214.122 314.72 213.186 316.376 213.186 318.392C213.186 320.408 213.996 322.046 216.138 322.046ZM225.728 323.252C222.956 323.252 221.228 321.056 221.228 318.356C221.228 315.656 222.956 313.46 225.728 313.46C228.518 313.46 230.21 315.656 230.21 318.356C230.21 321.056 228.518 323.252 225.728 323.252ZM225.728 322.028C227.708 322.028 228.716 320.408 228.716 318.356C228.716 316.304 227.708 314.666 225.728 314.666C223.748 314.666 222.722 316.304 222.722 318.356C222.722 320.408 223.748 322.028 225.728 322.028ZM233.122 313.694V315.242H233.158C233.716 314.342 234.688 313.586 235.93 313.586C236.2 313.586 236.344 313.622 236.524 313.694V315.098H236.47C236.254 315.026 236.11 315.008 235.822 315.008C234.382 315.008 233.122 316.088 233.122 317.834V323H231.664V313.694H233.122ZM248.079 323H246.621V321.722H246.585C245.919 322.622 245.127 323.216 243.777 323.216C241.869 323.216 240.645 322.064 240.645 320.138V313.694H242.103V320.102C242.103 321.308 242.877 322.01 244.191 322.01C245.667 322.01 246.621 320.894 246.621 319.418V313.694H248.079V323ZM251.509 313.694V314.918H251.545C252.211 314.036 253.147 313.478 254.497 313.478C256.441 313.478 257.629 314.54 257.629 316.466V323H256.171V316.592C256.171 315.386 255.379 314.702 254.065 314.702C252.589 314.702 251.509 315.746 251.509 317.276V323H250.051V313.694H251.509ZM265.954 323.27C263.398 323.27 261.976 322.064 261.832 319.976H263.326C263.524 321.596 264.604 322.046 265.99 322.046C267.52 322.046 268.15 321.38 268.15 320.516C268.15 319.472 267.43 319.202 265.72 318.842C263.884 318.464 262.246 318.086 262.246 316.052C262.246 314.504 263.434 313.496 265.594 313.496C267.898 313.496 269.032 314.594 269.248 316.412H267.754C267.61 315.188 266.944 314.648 265.558 314.648C264.226 314.648 263.686 315.242 263.686 315.98C263.686 316.988 264.586 317.186 266.188 317.51C268.06 317.888 269.626 318.302 269.626 320.444C269.626 322.316 268.096 323.27 265.954 323.27ZM271.021 323V313.694H272.479V323H271.021ZM271.021 311.93V310.13H272.479V311.93H271.021ZM277.995 323.27C275.439 323.27 274.017 322.064 273.873 319.976H275.367C275.565 321.596 276.645 322.046 278.031 322.046C279.561 322.046 280.191 321.38 280.191 320.516C280.191 319.472 279.471 319.202 277.761 318.842C275.925 318.464 274.287 318.086 274.287 316.052C274.287 314.504 275.475 313.496 277.635 313.496C279.939 313.496 281.073 314.594 281.289 316.412H279.795C279.651 315.188 278.985 314.648 277.599 314.648C276.267 314.648 275.727 315.242 275.727 315.98C275.727 316.988 276.627 317.186 278.229 317.51C280.101 317.888 281.667 318.302 281.667 320.444C281.667 322.316 280.137 323.27 277.995 323.27ZM282.292 314.882V313.694H283.642V310.76H285.1V313.694H286.9V314.882H285.1V320.93C285.1 321.578 285.442 321.794 286.036 321.794C286.324 321.794 286.648 321.722 286.81 321.668H286.864V322.928C286.522 323 286.126 323.054 285.694 323.054C284.506 323.054 283.642 322.568 283.642 321.254V314.882H282.292ZM292.296 323.252C289.452 323.252 287.796 321.056 287.796 318.356C287.796 315.656 289.56 313.46 292.206 313.46C294.996 313.46 296.49 315.62 296.49 318.698H289.29C289.398 320.588 290.424 322.028 292.296 322.028C293.646 322.028 294.546 321.38 294.87 320.12H296.292C295.86 322.118 294.402 323.252 292.296 323.252ZM292.206 314.612C290.478 314.612 289.542 315.908 289.326 317.6H294.924C294.834 315.746 293.88 314.612 292.206 314.612ZM297.916 323V313.694H299.374V315.026H299.41C299.986 314.126 300.976 313.478 302.146 313.478C303.28 313.478 304.18 314.054 304.576 315.134H304.612C305.206 314.072 306.322 313.478 307.456 313.478C309.112 313.478 310.282 314.54 310.282 316.466V323H308.824V316.538C308.824 315.386 308.05 314.702 307.114 314.702C305.908 314.702 304.828 315.746 304.828 317.204V323H303.37V316.538C303.37 315.386 302.722 314.702 301.768 314.702C300.634 314.702 299.374 315.746 299.374 317.204V323H297.916ZM319.515 323.09C318.561 323.09 318.057 322.658 317.913 321.704H317.895C317.337 322.424 316.383 323.18 314.799 323.18C313.035 323.18 311.649 322.352 311.649 320.588C311.649 318.392 313.377 317.942 315.699 317.582C317.013 317.384 317.931 317.258 317.931 316.25C317.931 315.206 317.175 314.612 315.843 314.612C314.331 314.612 313.575 315.26 313.521 316.664H312.117C312.171 314.864 313.359 313.514 315.825 313.514C317.805 313.514 319.263 314.252 319.263 316.466V320.894C319.263 321.65 319.443 322.064 320.253 321.884H320.307V322.946C320.127 323.018 319.893 323.09 319.515 323.09ZM315.123 322.064C317.067 322.064 317.949 320.642 317.949 319.562V317.978C317.463 318.284 316.617 318.518 315.825 318.662C314.367 318.932 313.197 319.184 313.197 320.552C313.197 321.794 314.169 322.064 315.123 322.064ZM327.848 323.27C325.31 323.27 323.726 321.362 323.726 318.374C323.726 315.278 325.508 313.478 327.812 313.478C329.126 313.478 330.134 314.126 330.728 315.008H330.764V310.13H332.222V323H330.764V321.866H330.728C330.026 322.766 329.162 323.27 327.848 323.27ZM327.902 322.046C329.972 322.046 330.854 320.498 330.854 318.392C330.854 316.232 329.81 314.72 327.884 314.72C326.12 314.72 325.22 316.304 325.22 318.392C325.22 320.498 326.12 322.046 327.902 322.046ZM338.175 323.252C335.331 323.252 333.675 321.056 333.675 318.356C333.675 315.656 335.439 313.46 338.085 313.46C340.875 313.46 342.369 315.62 342.369 318.698H335.169C335.277 320.588 336.303 322.028 338.175 322.028C339.525 322.028 340.425 321.38 340.749 320.12H342.171C341.739 322.118 340.281 323.252 338.175 323.252ZM338.085 314.612C336.357 314.612 335.421 315.908 335.205 317.6H340.803C340.713 315.746 339.759 314.612 338.085 314.612ZM348.118 313.694V315.242H348.154C348.712 314.342 349.684 313.586 350.926 313.586C351.196 313.586 351.34 313.622 351.52 313.694V315.098H351.466C351.25 315.026 351.106 315.008 350.818 315.008C349.378 315.008 348.118 316.088 348.118 317.834V323H346.66V313.694H348.118ZM356.456 323.252C353.612 323.252 351.956 321.056 351.956 318.356C351.956 315.656 353.72 313.46 356.366 313.46C359.156 313.46 360.65 315.62 360.65 318.698H353.45C353.558 320.588 354.584 322.028 356.456 322.028C357.806 322.028 358.706 321.38 359.03 320.12H360.452C360.02 322.118 358.562 323.252 356.456 323.252ZM356.366 314.612C354.638 314.612 353.702 315.908 353.486 317.6H359.084C358.994 315.746 358.04 314.612 356.366 314.612ZM362.13 323V310.13H363.588V323H362.13ZM365.681 323V310.13H367.139V323H365.681ZM373.156 323.252C370.312 323.252 368.656 321.056 368.656 318.356C368.656 315.656 370.42 313.46 373.066 313.46C375.856 313.46 377.35 315.62 377.35 318.698H370.15C370.258 320.588 371.284 322.028 373.156 322.028C374.506 322.028 375.406 321.38 375.73 320.12H377.152C376.72 322.118 375.262 323.252 373.156 323.252ZM373.066 314.612C371.338 314.612 370.402 315.908 370.186 317.6H375.784C375.694 315.746 374.74 314.612 373.066 314.612ZM380.233 313.694V314.918H380.269C380.935 314.036 381.871 313.478 383.221 313.478C385.165 313.478 386.353 314.54 386.353 316.466V323H384.895V316.592C384.895 315.386 384.103 314.702 382.789 314.702C381.313 314.702 380.233 315.746 380.233 317.276V323H378.775V313.694H380.233ZM392.263 323.252C389.491 323.252 387.763 321.056 387.763 318.356C387.763 315.656 389.491 313.46 392.263 313.46C395.053 313.46 396.745 315.656 396.745 318.356C396.745 321.056 395.053 323.252 392.263 323.252ZM392.263 322.028C394.243 322.028 395.251 320.408 395.251 318.356C395.251 316.304 394.243 314.666 392.263 314.666C390.283 314.666 389.257 316.304 389.257 318.356C389.257 320.408 390.283 322.028 392.263 322.028ZM44.8259 344V334.694H46.2839V344H44.8259ZM44.8259 332.93V331.13H46.2839V332.93H44.8259ZM49.7293 334.694V335.918H49.7653C50.4313 335.036 51.3673 334.478 52.7173 334.478C54.6613 334.478 55.8493 335.54 55.8493 337.466V344H54.3913V337.592C54.3913 336.386 53.5993 335.702 52.2853 335.702C50.8093 335.702 49.7293 336.746 49.7293 338.276V344H48.2713V334.694H49.7293ZM57.0112 335.882V334.694H58.3612V331.76H59.8192V334.694H61.6192V335.882H59.8192V341.93C59.8192 342.578 60.1612 342.794 60.7552 342.794C61.0432 342.794 61.3672 342.722 61.5292 342.668H61.5832V343.928C61.2412 344 60.8452 344.054 60.4132 344.054C59.2252 344.054 58.3612 343.568 58.3612 342.254V335.882H57.0112ZM67.0149 344.252C64.1709 344.252 62.5149 342.056 62.5149 339.356C62.5149 336.656 64.2789 334.46 66.9249 334.46C69.7149 334.46 71.2089 336.62 71.2089 339.698H64.0089C64.1169 341.588 65.1429 343.028 67.0149 343.028C68.3649 343.028 69.2649 342.38 69.5889 341.12H71.0109C70.5789 343.118 69.1209 344.252 67.0149 344.252ZM66.9249 335.612C65.1969 335.612 64.2609 336.908 64.0449 338.6H69.6429C69.5529 336.746 68.5989 335.612 66.9249 335.612ZM74.0925 334.694V336.242H74.1285C74.6865 335.342 75.6585 334.586 76.9005 334.586C77.1705 334.586 77.3145 334.622 77.4945 334.694V336.098H77.4405C77.2245 336.026 77.0805 336.008 76.7925 336.008C75.3525 336.008 74.0925 337.088 74.0925 338.834V344H72.6345V334.694H74.0925ZM80.2625 334.694V335.918H80.2985C80.9645 335.036 81.9005 334.478 83.2505 334.478C85.1945 334.478 86.3825 335.54 86.3825 337.466V344H84.9245V337.592C84.9245 336.386 84.1325 335.702 82.8185 335.702C81.3425 335.702 80.2625 336.746 80.2625 338.276V344H78.8045V334.694H80.2625ZM92.2922 344.252C89.5202 344.252 87.7922 342.056 87.7922 339.356C87.7922 336.656 89.5202 334.46 92.2922 334.46C95.0822 334.46 96.7742 336.656 96.7742 339.356C96.7742 342.056 95.0822 344.252 92.2922 344.252ZM92.2922 343.028C94.2722 343.028 95.2802 341.408 95.2802 339.356C95.2802 337.304 94.2722 335.666 92.2922 335.666C90.3122 335.666 89.2862 337.304 89.2862 339.356C89.2862 341.408 90.3122 343.028 92.2922 343.028ZM97.5913 346.304V345.494C97.9873 345.35 98.4013 345.008 98.4013 344H97.5733V342.218H99.3193V344.054C99.3193 345.368 98.6173 346.106 97.5913 346.304ZM103.959 344V334.694H105.417V344H103.959ZM103.959 332.93V331.13H105.417V332.93H103.959ZM108.862 334.694V335.918H108.898C109.564 335.036 110.5 334.478 111.85 334.478C113.794 334.478 114.982 335.54 114.982 337.466V344H113.524V337.592C113.524 336.386 112.732 335.702 111.418 335.702C109.942 335.702 108.862 336.746 108.862 338.276V344H107.404V334.694H108.862ZM119.042 344L115.784 334.694H117.35L119.276 340.598C119.546 341.426 119.888 342.56 119.888 342.56H119.924C119.924 342.56 120.266 341.408 120.536 340.598L122.498 334.694H124.01L120.662 344H119.042ZM125.035 344V334.694H126.493V344H125.035ZM125.035 332.93V331.13H126.493V332.93H125.035ZM132.008 344.27C129.452 344.27 128.03 343.064 127.886 340.976H129.38C129.578 342.596 130.658 343.046 132.044 343.046C133.574 343.046 134.204 342.38 134.204 341.516C134.204 340.472 133.484 340.202 131.774 339.842C129.938 339.464 128.3 339.086 128.3 337.052C128.3 335.504 129.488 334.496 131.648 334.496C133.952 334.496 135.086 335.594 135.302 337.412H133.808C133.664 336.188 132.998 335.648 131.612 335.648C130.28 335.648 129.74 336.242 129.74 336.98C129.74 337.988 130.64 338.186 132.242 338.51C134.114 338.888 135.68 339.302 135.68 341.444C135.68 343.316 134.15 344.27 132.008 344.27ZM137.076 344V334.694H138.534V344H137.076ZM137.076 332.93V331.13H138.534V332.93H137.076ZM144.949 344.27C143.689 344.27 142.771 343.82 142.015 342.776H141.979V344H140.521V331.13H141.979V336.026H142.015C142.717 335.072 143.653 334.478 145.003 334.478C147.361 334.478 148.963 336.278 148.963 339.374C148.963 342.362 147.469 344.27 144.949 344.27ZM144.841 343.046C146.623 343.046 147.469 341.498 147.469 339.392C147.469 337.304 146.623 335.72 144.859 335.72C142.825 335.72 141.889 337.376 141.889 339.392C141.889 341.48 142.861 343.046 144.841 343.046ZM150.472 344V331.13H151.93V344H150.472ZM157.947 344.252C155.103 344.252 153.447 342.056 153.447 339.356C153.447 336.656 155.211 334.46 157.857 334.46C160.647 334.46 162.141 336.62 162.141 339.698H154.941C155.049 341.588 156.075 343.028 157.947 343.028C159.297 343.028 160.197 342.38 160.521 341.12H161.943C161.511 343.118 160.053 344.252 157.947 344.252ZM157.857 335.612C156.129 335.612 155.193 336.908 154.977 338.6H160.575C160.485 336.746 159.531 335.612 157.857 335.612ZM170.031 344.27C167.493 344.27 165.909 342.362 165.909 339.374C165.909 336.278 167.691 334.478 169.995 334.478C171.309 334.478 172.317 335.126 172.911 336.008H172.947V331.13H174.405V344H172.947V342.866H172.911C172.209 343.766 171.345 344.27 170.031 344.27ZM170.085 343.046C172.155 343.046 173.037 341.498 173.037 339.392C173.037 337.232 171.993 335.72 170.067 335.72C168.303 335.72 167.403 337.304 167.403 339.392C167.403 341.498 168.303 343.046 170.085 343.046ZM180.359 344.252C177.515 344.252 175.859 342.056 175.859 339.356C175.859 336.656 177.623 334.46 180.269 334.46C183.059 334.46 184.553 336.62 184.553 339.698H177.353C177.461 341.588 178.487 343.028 180.359 343.028C181.709 343.028 182.609 342.38 182.933 341.12H184.355C183.923 343.118 182.465 344.252 180.359 344.252ZM180.269 335.612C178.541 335.612 177.605 336.908 177.389 338.6H182.987C182.897 336.746 181.943 335.612 180.269 335.612ZM189.506 344.27C186.95 344.27 185.528 343.064 185.384 340.976H186.878C187.076 342.596 188.156 343.046 189.542 343.046C191.072 343.046 191.702 342.38 191.702 341.516C191.702 340.472 190.982 340.202 189.272 339.842C187.436 339.464 185.798 339.086 185.798 337.052C185.798 335.504 186.986 334.496 189.146 334.496C191.45 334.496 192.584 335.594 192.8 337.412H191.306C191.162 336.188 190.496 335.648 189.11 335.648C187.778 335.648 187.238 336.242 187.238 336.98C187.238 337.988 188.138 338.186 189.74 338.51C191.612 338.888 193.178 339.302 193.178 341.444C193.178 343.316 191.648 344.27 189.506 344.27ZM198.35 344.27C195.812 344.27 194.228 342.362 194.228 339.374C194.228 336.278 196.01 334.478 198.314 334.478C199.628 334.478 200.636 335.126 201.23 336.008H201.266V331.13H202.724V344H201.266V342.866H201.23C200.528 343.766 199.664 344.27 198.35 344.27ZM198.404 343.046C200.474 343.046 201.356 341.498 201.356 339.392C201.356 337.232 200.312 335.72 198.386 335.72C196.622 335.72 195.722 337.304 195.722 339.392C195.722 341.498 196.622 343.046 198.404 343.046ZM208.677 344.252C205.833 344.252 204.177 342.056 204.177 339.356C204.177 336.656 205.941 334.46 208.587 334.46C211.377 334.46 212.871 336.62 212.871 339.698H205.671C205.779 341.588 206.805 343.028 208.677 343.028C210.027 343.028 210.927 342.38 211.251 341.12H212.673C212.241 343.118 210.783 344.252 208.677 344.252ZM208.587 335.612C206.859 335.612 205.923 336.908 205.707 338.6H211.305C211.215 336.746 210.261 335.612 208.587 335.612ZM224.47 344.09C223.516 344.09 223.012 343.658 222.868 342.704H222.85C222.292 343.424 221.338 344.18 219.754 344.18C217.99 344.18 216.604 343.352 216.604 341.588C216.604 339.392 218.332 338.942 220.654 338.582C221.968 338.384 222.886 338.258 222.886 337.25C222.886 336.206 222.13 335.612 220.798 335.612C219.286 335.612 218.53 336.26 218.476 337.664H217.072C217.126 335.864 218.314 334.514 220.78 334.514C222.76 334.514 224.218 335.252 224.218 337.466V341.894C224.218 342.65 224.398 343.064 225.208 342.884H225.262V343.946C225.082 344.018 224.848 344.09 224.47 344.09ZM220.078 343.064C222.022 343.064 222.904 341.642 222.904 340.562V338.978C222.418 339.284 221.572 339.518 220.78 339.662C219.322 339.932 218.152 340.184 218.152 341.552C218.152 342.794 219.124 343.064 220.078 343.064ZM225.656 335.882V334.694H226.934V333.2C226.934 331.598 227.852 331.022 229.4 331.022C229.706 331.022 229.94 331.04 230.138 331.058V332.3C229.886 332.282 229.814 332.282 229.67 332.282C228.734 332.282 228.392 332.516 228.392 333.272V334.694H230.12V335.882H228.392V344H226.934V335.882H225.656ZM238.921 344H237.463V342.722H237.427C236.761 343.622 235.969 344.216 234.619 344.216C232.711 344.216 231.487 343.064 231.487 341.138V334.694H232.945V341.102C232.945 342.308 233.719 343.01 235.033 343.01C236.509 343.01 237.463 341.894 237.463 340.418V334.694H238.921V344ZM244.87 344.252C242.026 344.252 240.37 342.056 240.37 339.356C240.37 336.656 242.134 334.46 244.78 334.46C247.57 334.46 249.064 336.62 249.064 339.698H241.864C241.972 341.588 242.998 343.028 244.87 343.028C246.22 343.028 247.12 342.38 247.444 341.12H248.866C248.434 343.118 246.976 344.252 244.87 344.252ZM244.78 335.612C243.052 335.612 242.116 336.908 241.9 338.6H247.498C247.408 336.746 246.454 335.612 244.78 335.612ZM251.948 334.694V336.242H251.984C252.542 335.342 253.514 334.586 254.756 334.586C255.026 334.586 255.17 334.622 255.35 334.694V336.098H255.296C255.08 336.026 254.936 336.008 254.648 336.008C253.208 336.008 251.948 337.088 251.948 338.834V344H250.49V334.694H251.948ZM263.616 344.09C262.662 344.09 262.158 343.658 262.014 342.704H261.996C261.438 343.424 260.484 344.18 258.9 344.18C257.136 344.18 255.75 343.352 255.75 341.588C255.75 339.392 257.478 338.942 259.8 338.582C261.114 338.384 262.032 338.258 262.032 337.25C262.032 336.206 261.276 335.612 259.944 335.612C258.432 335.612 257.676 336.26 257.622 337.664H256.218C256.272 335.864 257.46 334.514 259.926 334.514C261.906 334.514 263.364 335.252 263.364 337.466V341.894C263.364 342.65 263.544 343.064 264.354 342.884H264.408V343.946C264.228 344.018 263.994 344.09 263.616 344.09ZM259.224 343.064C261.168 343.064 262.05 341.642 262.05 340.562V338.978C261.564 339.284 260.718 339.518 259.926 339.662C258.468 339.932 257.298 340.184 257.298 341.552C257.298 342.794 258.27 343.064 259.224 343.064ZM265.55 344V342.218H267.296V344H265.55ZM272.151 344V331.13H273.771V342.506H280.521V344H272.151ZM289.21 344.09C288.256 344.09 287.752 343.658 287.608 342.704H287.59C287.032 343.424 286.078 344.18 284.494 344.18C282.73 344.18 281.344 343.352 281.344 341.588C281.344 339.392 283.072 338.942 285.394 338.582C286.708 338.384 287.626 338.258 287.626 337.25C287.626 336.206 286.87 335.612 285.538 335.612C284.026 335.612 283.27 336.26 283.216 337.664H281.812C281.866 335.864 283.054 334.514 285.52 334.514C287.5 334.514 288.958 335.252 288.958 337.466V341.894C288.958 342.65 289.138 343.064 289.948 342.884H290.002V343.946C289.822 344.018 289.588 344.09 289.21 344.09ZM284.818 343.064C286.762 343.064 287.644 341.642 287.644 340.562V338.978C287.158 339.284 286.312 339.518 285.52 339.662C284.062 339.932 282.892 340.184 282.892 341.552C282.892 342.794 283.864 343.064 284.818 343.064ZM297.921 344.252C295.149 344.252 293.421 342.056 293.421 339.356C293.421 336.656 295.149 334.46 297.921 334.46C300.117 334.46 301.575 335.72 301.899 337.7H300.423C300.207 336.44 299.325 335.666 297.921 335.666C295.941 335.666 294.915 337.304 294.915 339.356C294.915 341.408 295.941 343.028 297.921 343.028C299.433 343.028 300.333 342.164 300.459 340.724H301.899C301.701 342.956 300.243 344.252 297.921 344.252ZM310.657 344H309.199V342.722H309.163C308.497 343.622 307.705 344.216 306.355 344.216C304.447 344.216 303.223 343.064 303.223 341.138V334.694H304.681V341.102C304.681 342.308 305.455 343.01 306.769 343.01C308.245 343.01 309.199 341.894 309.199 340.418V334.694H310.657V344ZM314.087 334.694V336.242H314.123C314.681 335.342 315.653 334.586 316.895 334.586C317.165 334.586 317.309 334.622 317.489 334.694V336.098H317.435C317.219 336.026 317.075 336.008 316.787 336.008C315.347 336.008 314.087 337.088 314.087 338.834V344H312.629V334.694H314.087ZM321.103 344L317.845 334.694H319.411L321.337 340.598C321.607 341.426 321.949 342.56 321.949 342.56H321.985C321.985 342.56 322.327 341.408 322.597 340.598L324.559 334.694H326.071L322.723 344H321.103ZM334.14 344.09C333.186 344.09 332.682 343.658 332.538 342.704H332.52C331.962 343.424 331.008 344.18 329.424 344.18C327.66 344.18 326.274 343.352 326.274 341.588C326.274 339.392 328.002 338.942 330.324 338.582C331.638 338.384 332.556 338.258 332.556 337.25C332.556 336.206 331.8 335.612 330.468 335.612C328.956 335.612 328.2 336.26 328.146 337.664H326.742C326.796 335.864 327.984 334.514 330.45 334.514C332.43 334.514 333.888 335.252 333.888 337.466V341.894C333.888 342.65 334.068 343.064 334.878 342.884H334.932V343.946C334.752 344.018 334.518 344.09 334.14 344.09ZM329.748 343.064C331.692 343.064 332.574 341.642 332.574 340.562V338.978C332.088 339.284 331.242 339.518 330.45 339.662C328.992 339.932 327.822 340.184 327.822 341.552C327.822 342.794 328.794 343.064 329.748 343.064ZM335.238 335.882V334.694H336.588V331.76H338.046V334.694H339.846V335.882H338.046V341.93C338.046 342.578 338.388 342.794 338.982 342.794C339.27 342.794 339.594 342.722 339.756 342.668H339.81V343.928C339.468 344 339.072 344.054 338.64 344.054C337.452 344.054 336.588 343.568 336.588 342.254V335.882H335.238ZM348.731 344H347.273V342.722H347.237C346.571 343.622 345.779 344.216 344.429 344.216C342.521 344.216 341.297 343.064 341.297 341.138V334.694H342.755V341.102C342.755 342.308 343.529 343.01 344.843 343.01C346.319 343.01 347.273 341.894 347.273 340.418V334.694H348.731V344ZM352.161 334.694V336.242H352.197C352.755 335.342 353.727 334.586 354.969 334.586C355.239 334.586 355.383 334.622 355.563 334.694V336.098H355.509C355.293 336.026 355.149 336.008 354.861 336.008C353.421 336.008 352.161 337.088 352.161 338.834V344H350.703V334.694H352.161ZM363.829 344.09C362.875 344.09 362.371 343.658 362.227 342.704H362.209C361.651 343.424 360.697 344.18 359.113 344.18C357.349 344.18 355.963 343.352 355.963 341.588C355.963 339.392 357.691 338.942 360.013 338.582C361.327 338.384 362.245 338.258 362.245 337.25C362.245 336.206 361.489 335.612 360.157 335.612C358.645 335.612 357.889 336.26 357.835 337.664H356.431C356.485 335.864 357.673 334.514 360.139 334.514C362.119 334.514 363.577 335.252 363.577 337.466V341.894C363.577 342.65 363.757 343.064 364.567 342.884H364.621V343.946C364.441 344.018 364.207 344.09 363.829 344.09ZM359.437 343.064C361.381 343.064 362.263 341.642 362.263 340.562V338.978C361.777 339.284 360.931 339.518 360.139 339.662C358.681 339.932 357.511 340.184 357.511 341.552C357.511 342.794 358.483 343.064 359.437 343.064ZM372.54 344.252C369.696 344.252 368.04 342.056 368.04 339.356C368.04 336.656 369.804 334.46 372.45 334.46C375.24 334.46 376.734 336.62 376.734 339.698H369.534C369.642 341.588 370.668 343.028 372.54 343.028C373.89 343.028 374.79 342.38 375.114 341.12H376.536C376.104 343.118 374.646 344.252 372.54 344.252ZM372.45 335.612C370.722 335.612 369.786 336.908 369.57 338.6H375.168C375.078 336.746 374.124 335.612 372.45 335.612ZM379.618 334.694V336.242H379.654C380.212 335.342 381.184 334.586 382.426 334.586C382.696 334.586 382.84 334.622 383.02 334.694V336.098H382.966C382.75 336.026 382.606 336.008 382.318 336.008C380.878 336.008 379.618 337.088 379.618 338.834V344H378.16V334.694H379.618ZM391.286 344.09C390.332 344.09 389.828 343.658 389.684 342.704H389.666C389.108 343.424 388.154 344.18 386.57 344.18C384.806 344.18 383.42 343.352 383.42 341.588C383.42 339.392 385.148 338.942 387.47 338.582C388.784 338.384 389.702 338.258 389.702 337.25C389.702 336.206 388.946 335.612 387.614 335.612C386.102 335.612 385.346 336.26 385.292 337.664H383.888C383.942 335.864 385.13 334.514 387.596 334.514C389.576 334.514 391.034 335.252 391.034 337.466V341.894C391.034 342.65 391.214 343.064 392.024 342.884H392.078V343.946C391.898 344.018 391.664 344.09 391.286 344.09ZM386.894 343.064C388.838 343.064 389.72 341.642 389.72 340.562V338.978C389.234 339.284 388.388 339.518 387.596 339.662C386.138 339.932 384.968 340.184 384.968 341.552C384.968 342.794 385.94 343.064 386.894 343.064ZM195.457 365.09C194.503 365.09 193.999 364.658 193.855 363.704H193.837C193.279 364.424 192.325 365.18 190.741 365.18C188.977 365.18 187.591 364.352 187.591 362.588C187.591 360.392 189.319 359.942 191.641 359.582C192.955 359.384 193.873 359.258 193.873 358.25C193.873 357.206 193.117 356.612 191.785 356.612C190.273 356.612 189.517 357.26 189.463 358.664H188.059C188.113 356.864 189.301 355.514 191.767 355.514C193.747 355.514 195.205 356.252 195.205 358.466V362.894C195.205 363.65 195.385 364.064 196.195 363.884H196.249V364.946C196.069 365.018 195.835 365.09 195.457 365.09ZM191.065 364.064C193.009 364.064 193.891 362.642 193.891 361.562V359.978C193.405 360.284 192.559 360.518 191.767 360.662C190.309 360.932 189.139 361.184 189.139 362.552C189.139 363.794 190.111 364.064 191.065 364.064ZM198.783 355.694V357.242H198.819C199.377 356.342 200.349 355.586 201.591 355.586C201.861 355.586 202.005 355.622 202.185 355.694V357.098H202.131C201.915 357.026 201.771 357.008 201.483 357.008C200.043 357.008 198.783 358.088 198.783 359.834V365H197.325V355.694H198.783ZM202.901 356.882V355.694H204.251V352.76H205.709V355.694H207.509V356.882H205.709V362.93C205.709 363.578 206.051 363.794 206.645 363.794C206.933 363.794 207.257 363.722 207.419 363.668H207.473V364.928C207.131 365 206.735 365.054 206.303 365.054C205.115 365.054 204.251 364.568 204.251 363.254V356.882H202.901ZM209.014 365V355.694H210.472V365H209.014ZM209.014 353.93V352.13H210.472V353.93H209.014ZM211.866 356.882V355.694H213.144V354.2C213.144 352.598 214.062 352.022 215.61 352.022C215.916 352.022 216.15 352.04 216.348 352.058V353.3C216.096 353.282 216.024 353.282 215.88 353.282C214.944 353.282 214.602 353.516 214.602 354.272V355.694H216.33V356.882H214.602V365H213.144V356.882H211.866ZM217.572 365V355.694H219.03V365H217.572ZM217.572 353.93V352.13H219.03V353.93H217.572ZM224.981 365.252C222.209 365.252 220.481 363.056 220.481 360.356C220.481 357.656 222.209 355.46 224.981 355.46C227.177 355.46 228.635 356.72 228.959 358.7H227.483C227.267 357.44 226.385 356.666 224.981 356.666C223.001 356.666 221.975 358.304 221.975 360.356C221.975 362.408 223.001 364.028 224.981 364.028C226.493 364.028 227.393 363.164 227.519 361.724H228.959C228.761 363.956 227.303 365.252 224.981 365.252ZM230.337 365V355.694H231.795V365H230.337ZM230.337 353.93V352.13H231.795V353.93H230.337ZM241.09 365.09C240.136 365.09 239.632 364.658 239.488 363.704H239.47C238.912 364.424 237.958 365.18 236.374 365.18C234.61 365.18 233.224 364.352 233.224 362.588C233.224 360.392 234.952 359.942 237.274 359.582C238.588 359.384 239.506 359.258 239.506 358.25C239.506 357.206 238.75 356.612 237.418 356.612C235.906 356.612 235.15 357.26 235.096 358.664H233.692C233.746 356.864 234.934 355.514 237.4 355.514C239.38 355.514 240.838 356.252 240.838 358.466V362.894C240.838 363.65 241.018 364.064 241.828 363.884H241.882V364.946C241.702 365.018 241.468 365.09 241.09 365.09ZM236.698 364.064C238.642 364.064 239.524 362.642 239.524 361.562V359.978C239.038 360.284 238.192 360.518 237.4 360.662C235.942 360.932 234.772 361.184 234.772 362.552C234.772 363.794 235.744 364.064 236.698 364.064ZM243.012 365V352.13H244.47V365H243.012ZM246.311 365V363.218H248.057V365H246.311Z" fill="#F3EEE1"/>
<path d="M151.968 232.176C155.872 244.08 160.992 252.976 164.256 253.616L164.192 254C163.552 254.128 162.08 254.256 160.544 254.256C156.832 254.256 153.248 248.048 148.32 232.368C145.696 232.368 144.224 232.176 142.688 231.856L139.552 246.448C138.528 251.376 138.08 253.616 142.432 253.616L142.368 254H129.76L129.824 253.616C134.176 253.616 134.944 251.184 135.968 246.448L142.688 214.96C143.648 210.032 143.84 207.792 139.616 207.792L139.68 207.408H153.12C161.696 207.408 166.304 212.016 166.304 217.968C166.304 225.904 159.136 231.216 151.968 232.176ZM147.168 210.736L143.264 229.04C143.072 230.064 143.584 231.28 148.768 231.28C157.92 231.28 162.464 225.968 162.464 217.584C162.464 212.592 159.584 208.432 152.544 208.432H150.048C148.512 208.432 147.488 209.2 147.168 210.736ZM191.498 224.24C191.498 230.128 182.922 233.776 169.866 237.872C169.418 239.856 169.161 241.84 169.161 243.888C169.161 249.776 171.338 252.336 175.05 252.336C179.21 252.336 183.753 249.2 187.594 244.464L187.978 244.72C183.434 251.568 178.57 254.768 173.77 254.768C169.034 254.768 165.706 251.632 165.706 244.656C165.706 234.032 173.514 219.696 185.354 219.696C189.77 219.696 191.498 221.616 191.498 224.24ZM184.33 220.592C178.762 220.592 172.554 228.016 170.122 236.72C181.706 232.752 187.914 230.064 187.914 224.432C187.914 222.384 187.082 220.592 184.33 220.592ZM193.507 254.768C190.947 254.768 191.395 251.312 191.971 248.752L199.779 212.016C200.675 207.92 199.907 206.384 197.859 206L197.923 205.616L204.451 203.952H204.707L195.363 247.984C195.171 248.88 194.659 251.248 195.811 251.248C197.091 251.248 199.843 248.304 202.339 244.912L202.659 245.168C199.459 251.184 196.067 254.768 193.507 254.768ZM205.944 254.768C203.384 254.768 203.832 251.312 204.408 248.752L212.216 212.016C213.112 207.92 212.344 206.384 210.296 206L210.36 205.616L216.888 203.952H217.144L207.8 247.984C207.608 248.88 207.096 251.248 208.248 251.248C209.528 251.248 212.28 248.304 214.776 244.912L215.096 245.168C211.896 251.184 208.504 254.768 205.944 254.768ZM241.998 224.24C241.998 230.128 233.422 233.776 220.366 237.872C219.918 239.856 219.661 241.84 219.661 243.888C219.661 249.776 221.838 252.336 225.55 252.336C229.71 252.336 234.253 249.2 238.094 244.464L238.478 244.72C233.934 251.568 229.07 254.768 224.27 254.768C219.534 254.768 216.206 251.632 216.206 244.656C216.206 234.032 224.014 219.696 235.854 219.696C240.27 219.696 241.998 221.616 241.998 224.24ZM234.83 220.592C229.262 220.592 223.054 228.016 220.622 236.72C232.206 232.752 238.414 230.064 238.414 224.432C238.414 222.384 237.582 220.592 234.83 220.592ZM273.191 244.912L273.511 245.168C270.311 251.184 266.855 254.768 264.487 254.768C262.183 254.768 261.863 252.592 262.759 248.752L266.663 231.856C267.815 226.864 268.583 222.512 264.935 222.512C258.535 222.512 249.575 237.296 245.991 254H242.791L248.615 226.48C248.999 224.688 249.383 222.896 248.231 222.896C247.271 222.896 245.479 224.816 242.919 228.144L242.599 227.888C245.543 222.384 248.551 219.696 250.47 219.696C252.647 219.696 252.775 222 252.007 225.712L248.487 242.096C253.415 228.784 260.839 219.696 266.855 219.696C272.295 219.696 271.335 225.648 269.799 232.304L266.215 247.984C265.831 249.776 265.383 251.568 266.471 251.568C267.431 251.568 269.607 249.776 273.191 244.912ZM285.848 254.768C279.192 254.768 274.968 249.904 274.968 241.968C274.968 231.472 282.264 219.696 291.736 219.696C298.392 219.696 302.616 224.56 302.616 232.496C302.616 242.992 295.32 254.768 285.848 254.768ZM285.976 253.872C294.04 253.872 299.16 240.816 299.16 231.216C299.16 224.944 296.728 220.592 291.608 220.592C283.544 220.592 278.424 233.648 278.424 243.248C278.424 249.52 280.856 253.872 285.976 253.872Z" fill="#B9D6FE"/>
</svg>
