<svg width="436" height="493" viewBox="0 0 436 493" fill="none" xmlns="http://www.w3.org/2000/svg">
<path d="M0 218C0 97.6019 97.6019 0 218 0V0C338.398 0 436 97.6019 436 218V493H0V218Z" fill="#FD6500"/>
<path d="M173.424 168.224C170.974 168.224 169.42 166.264 169.42 163.212C169.42 160.146 171.002 158.2 173.438 158.2C175.916 158.2 177.428 160.132 177.428 163.212C177.428 166.264 175.916 168.224 173.424 168.224ZM173.438 166.6C174.866 166.6 175.44 165.27 175.44 163.212C175.44 161.182 174.852 159.824 173.438 159.824C172.01 159.824 171.408 161.168 171.408 163.212C171.408 165.242 172.01 166.6 173.438 166.6ZM182.663 168.21C180.535 168.21 178.981 167.09 178.799 165.228H180.675C180.843 166.166 181.627 166.614 182.621 166.614C183.713 166.614 184.399 165.83 184.399 164.808C184.399 163.674 183.629 163.044 182.621 163.044C181.893 163.044 181.333 163.324 181.053 163.646H179.219L180.143 158.41H185.799V159.992H181.473L181.109 162.064H181.137C181.557 161.7 182.243 161.462 183.125 161.462C184.819 161.462 186.373 162.736 186.373 164.808C186.373 166.81 184.763 168.21 182.663 168.21ZM187.596 168L191.516 157.99H193.028L189.108 168H187.596ZM198.013 168V157.99H202.409C203.571 157.99 204.439 158.326 205.027 158.928C205.587 159.502 205.923 160.286 205.923 161.21C205.923 163.1 204.677 164.374 202.577 164.374H200.113V168H198.013ZM200.113 159.754V162.722H202.213C203.277 162.722 203.837 162.134 203.837 161.224C203.837 160.286 203.249 159.754 202.241 159.754H200.113ZM212.3 168.224C209.346 168.224 207.47 166.012 207.47 163.016C207.47 160.02 209.346 157.794 212.3 157.794C215.254 157.794 217.116 160.02 217.116 163.016C217.116 166.012 215.254 168.224 212.3 168.224ZM212.314 166.558C214.148 166.558 215.044 165.004 215.044 163.016C215.044 161.014 214.148 159.46 212.314 159.46C210.48 159.46 209.542 161.014 209.542 163.016C209.542 165.004 210.48 166.558 212.314 166.558ZM219.066 168V157.99H221.096V166.306H225.8V168H219.066ZM227.726 168V157.99H229.756V166.306H234.46V168H227.726ZM236.386 168V157.99H243.75V159.698H238.416V161.938H243.092V163.604H238.416V166.306H243.792V168H236.386ZM245.894 168V157.99H250.486C252.418 157.99 253.706 159.11 253.706 160.776C253.706 161.952 253.16 162.848 251.872 163.198V163.24C252.796 163.506 253.272 164.038 253.398 165.256C253.538 166.67 253.482 167.748 253.832 167.902V168H251.886C251.634 167.888 251.606 166.768 251.522 165.69C251.438 164.598 250.822 163.982 249.562 163.982H247.924V168H245.894ZM247.924 159.628V162.414H250.08C251.186 162.414 251.732 161.84 251.732 161.042C251.732 160.23 251.214 159.628 250.136 159.628H247.924ZM255.194 168L258.68 157.99H260.78L264.308 168H262.194L261.522 165.872H257.91L257.252 168H255.194ZM259.282 161.434L258.386 164.318H261.032L260.136 161.434C259.968 160.902 259.73 159.894 259.73 159.894H259.702C259.702 159.894 259.45 160.902 259.282 161.434Z" fill="#F3EEE1"/>
<path d="M34.5126 323V310.13H36.1326V321.506H42.8826V323H34.5126ZM51.5714 323.09C50.6174 323.09 50.1134 322.658 49.9694 321.704H49.9514C49.3934 322.424 48.4394 323.18 46.8554 323.18C45.0914 323.18 43.7054 322.352 43.7054 320.588C43.7054 318.392 45.4334 317.942 47.7554 317.582C49.0694 317.384 49.9874 317.258 49.9874 316.25C49.9874 315.206 49.2314 314.612 47.8994 314.612C46.3874 314.612 45.6314 315.26 45.5774 316.664H44.1734C44.2274 314.864 45.4154 313.514 47.8814 313.514C49.8614 313.514 51.3194 314.252 51.3194 316.466V320.894C51.3194 321.65 51.4994 322.064 52.3094 321.884H52.3634V322.946C52.1834 323.018 51.9494 323.09 51.5714 323.09ZM47.1794 322.064C49.1234 322.064 50.0054 320.642 50.0054 319.562V317.978C49.5194 318.284 48.6734 318.518 47.8814 318.662C46.4234 318.932 45.2534 319.184 45.2534 320.552C45.2534 321.794 46.2254 322.064 47.1794 322.064ZM54.8972 313.694V314.918H54.9332C55.5992 314.036 56.5352 313.478 57.8852 313.478C59.8292 313.478 61.0172 314.54 61.0172 316.466V323H59.5592V316.592C59.5592 315.386 58.7672 314.702 57.4532 314.702C55.9772 314.702 54.8972 315.746 54.8972 317.276V323H53.4392V313.694H54.8972ZM70.257 323.09C69.303 323.09 68.799 322.658 68.655 321.704H68.637C68.079 322.424 67.125 323.18 65.541 323.18C63.777 323.18 62.391 322.352 62.391 320.588C62.391 318.392 64.119 317.942 66.441 317.582C67.755 317.384 68.673 317.258 68.673 316.25C68.673 315.206 67.917 314.612 66.585 314.612C65.073 314.612 64.317 315.26 64.263 316.664H62.859C62.913 314.864 64.101 313.514 66.567 313.514C68.547 313.514 70.005 314.252 70.005 316.466V320.894C70.005 321.65 70.185 322.064 70.995 321.884H71.049V322.946C70.869 323.018 70.635 323.09 70.257 323.09ZM65.865 322.064C67.809 322.064 68.691 320.642 68.691 319.562V317.978C68.205 318.284 67.359 318.518 66.567 318.662C65.109 318.932 63.939 319.184 63.939 320.552C63.939 321.794 64.911 322.064 65.865 322.064ZM76.448 313.694V314.918H76.484C77.15 314.036 78.086 313.478 79.436 313.478C81.38 313.478 82.568 314.54 82.568 316.466V323H81.11V316.592C81.11 315.386 80.318 314.702 79.004 314.702C77.528 314.702 76.448 315.746 76.448 317.276V323H74.99V313.694H76.448ZM88.4778 323.252C85.6338 323.252 83.9778 321.056 83.9778 318.356C83.9778 315.656 85.7418 313.46 88.3878 313.46C91.1778 313.46 92.6718 315.62 92.6718 318.698H85.4718C85.5798 320.588 86.6058 322.028 88.4778 322.028C89.8278 322.028 90.7278 321.38 91.0518 320.12H92.4738C92.0418 322.118 90.5838 323.252 88.4778 323.252ZM88.3878 314.612C86.6598 314.612 85.7238 315.908 85.5078 317.6H91.1058C91.0158 315.746 90.0618 314.612 88.3878 314.612ZM97.8054 326.096C95.3934 326.096 94.0254 325.124 93.8634 323.522H95.2134C95.3574 324.548 96.3294 324.944 97.7694 324.944C99.4794 324.944 100.433 324.17 100.433 322.55V321.236H100.397C99.7134 322.118 98.9754 322.676 97.6434 322.676C95.2314 322.676 93.5754 320.75 93.5754 318.068C93.5754 315.17 95.3934 313.478 97.5534 313.478C98.9034 313.478 99.7674 314 100.397 314.882H100.433V313.694H101.891V322.496C101.891 324.944 100.271 326.096 97.8054 326.096ZM97.7154 321.452C99.8574 321.452 100.541 319.958 100.541 317.996C100.541 315.962 99.6774 314.702 97.6974 314.702C95.9514 314.702 95.0694 316.07 95.0694 318.086C95.0694 320.12 95.9874 321.452 97.7154 321.452ZM105.329 313.694V315.242H105.365C105.923 314.342 106.895 313.586 108.137 313.586C108.407 313.586 108.551 313.622 108.731 313.694V315.098H108.677C108.461 315.026 108.317 315.008 108.029 315.008C106.589 315.008 105.329 316.088 105.329 317.834V323H103.871V313.694H105.329ZM116.997 323.09C116.043 323.09 115.539 322.658 115.395 321.704H115.377C114.819 322.424 113.865 323.18 112.281 323.18C110.517 323.18 109.131 322.352 109.131 320.588C109.131 318.392 110.859 317.942 113.181 317.582C114.495 317.384 115.413 317.258 115.413 316.25C115.413 315.206 114.657 314.612 113.325 314.612C111.813 314.612 111.057 315.26 111.003 316.664H109.599C109.653 314.864 110.841 313.514 113.307 313.514C115.287 313.514 116.745 314.252 116.745 316.466V320.894C116.745 321.65 116.925 322.064 117.735 321.884H117.789V322.946C117.609 323.018 117.375 323.09 116.997 323.09ZM112.605 322.064C114.549 322.064 115.431 320.642 115.431 319.562V317.978C114.945 318.284 114.099 318.518 113.307 318.662C111.849 318.932 110.679 319.184 110.679 320.552C110.679 321.794 111.651 322.064 112.605 322.064ZM118.949 325.304V324.494C119.345 324.35 119.759 324.008 119.759 323H118.931V321.218H120.677V323.054C120.677 324.368 119.975 325.106 118.949 325.304ZM125.316 325.988V313.694H126.774V315.008H126.81C127.512 314.054 128.448 313.478 129.798 313.478C132.156 313.478 133.794 315.278 133.794 318.374C133.794 321.362 132.264 323.27 129.744 323.27C128.484 323.27 127.584 322.892 126.81 321.902H126.774V325.988H125.316ZM129.636 322.046C131.418 322.046 132.3 320.498 132.3 318.392C132.3 316.304 131.418 314.72 129.654 314.72C127.62 314.72 126.684 316.376 126.684 318.392C126.684 320.408 127.494 322.046 129.636 322.046ZM135.302 323V310.13H136.76V323H135.302ZM138.799 323V313.694H140.257V323H138.799ZM138.799 311.93V310.13H140.257V311.93H138.799ZM145.772 323.27C143.216 323.27 141.794 322.064 141.65 319.976H143.144C143.342 321.596 144.422 322.046 145.808 322.046C147.338 322.046 147.968 321.38 147.968 320.516C147.968 319.472 147.248 319.202 145.538 318.842C143.702 318.464 142.064 318.086 142.064 316.052C142.064 314.504 143.252 313.496 145.412 313.496C147.716 313.496 148.85 314.594 149.066 316.412H147.572C147.428 315.188 146.762 314.648 145.376 314.648C144.044 314.648 143.504 315.242 143.504 315.98C143.504 316.988 144.404 317.186 146.006 317.51C147.878 317.888 149.444 318.302 149.444 320.444C149.444 322.316 147.914 323.27 145.772 323.27ZM158.236 323.09C157.282 323.09 156.778 322.658 156.634 321.704H156.616C156.058 322.424 155.104 323.18 153.52 323.18C151.756 323.18 150.37 322.352 150.37 320.588C150.37 318.392 152.098 317.942 154.42 317.582C155.734 317.384 156.652 317.258 156.652 316.25C156.652 315.206 155.896 314.612 154.563 314.612C153.052 314.612 152.296 315.26 152.242 316.664H150.838C150.892 314.864 152.08 313.514 154.546 313.514C156.526 313.514 157.984 314.252 157.984 316.466V320.894C157.984 321.65 158.164 322.064 158.974 321.884H159.027V322.946C158.848 323.018 158.614 323.09 158.236 323.09ZM153.844 322.064C155.788 322.064 156.67 320.642 156.67 319.562V317.978C156.184 318.284 155.338 318.518 154.546 318.662C153.088 318.932 151.918 319.184 151.918 320.552C151.918 321.794 152.89 322.064 153.844 322.064ZM163.703 323.27C161.165 323.27 159.581 321.362 159.581 318.374C159.581 315.278 161.363 313.478 163.667 313.478C164.981 313.478 165.989 314.126 166.583 315.008H166.619V310.13H168.077V323H166.619V321.866H166.583C165.881 322.766 165.017 323.27 163.703 323.27ZM163.757 322.046C165.827 322.046 166.709 320.498 166.709 318.392C166.709 316.232 165.665 314.72 163.739 314.72C161.975 314.72 161.075 316.304 161.075 318.392C161.075 320.498 161.975 322.046 163.757 322.046ZM177.361 323.09C176.407 323.09 175.903 322.658 175.759 321.704H175.741C175.183 322.424 174.229 323.18 172.645 323.18C170.881 323.18 169.495 322.352 169.495 320.588C169.495 318.392 171.223 317.942 173.545 317.582C174.859 317.384 175.777 317.258 175.777 316.25C175.777 315.206 175.021 314.612 173.688 314.612C172.177 314.612 171.421 315.26 171.367 316.664H169.963C170.017 314.864 171.205 313.514 173.671 313.514C175.651 313.514 177.109 314.252 177.109 316.466V320.894C177.109 321.65 177.289 322.064 178.099 321.884H178.152V322.946C177.973 323.018 177.739 323.09 177.361 323.09ZM172.969 322.064C174.913 322.064 175.795 320.642 175.795 319.562V317.978C175.309 318.284 174.463 318.518 173.671 318.662C172.213 318.932 171.043 319.184 171.043 320.552C171.043 321.794 172.015 322.064 172.969 322.064ZM183.552 313.694V315.242H183.588C184.146 314.342 185.118 313.586 186.36 313.586C186.63 313.586 186.774 313.622 186.954 313.694V315.098H186.9C186.684 315.026 186.54 315.008 186.252 315.008C184.812 315.008 183.552 316.088 183.552 317.834V323H182.094V313.694H183.552ZM195.22 323.09C194.266 323.09 193.762 322.658 193.618 321.704H193.6C193.042 322.424 192.088 323.18 190.504 323.18C188.74 323.18 187.354 322.352 187.354 320.588C187.354 318.392 189.082 317.942 191.404 317.582C192.718 317.384 193.636 317.258 193.636 316.25C193.636 315.206 192.88 314.612 191.548 314.612C190.036 314.612 189.28 315.26 189.226 316.664H187.822C187.876 314.864 189.064 313.514 191.53 313.514C193.51 313.514 194.968 314.252 194.968 316.466V320.894C194.968 321.65 195.148 322.064 195.958 321.884H196.012V322.946C195.832 323.018 195.598 323.09 195.22 323.09ZM190.828 322.064C192.772 322.064 193.654 320.642 193.654 319.562V317.978C193.168 318.284 192.322 318.518 191.53 318.662C190.072 318.932 188.902 319.184 188.902 320.552C188.902 321.794 189.874 322.064 190.828 322.064ZM200.688 323.27C198.15 323.27 196.566 321.362 196.566 318.374C196.566 315.278 198.348 313.478 200.652 313.478C201.966 313.478 202.974 314.126 203.568 315.008H203.604V310.13H205.062V323H203.604V321.866H203.568C202.866 322.766 202.002 323.27 200.688 323.27ZM200.742 322.046C202.812 322.046 203.694 320.498 203.694 318.392C203.694 316.232 202.65 314.72 200.724 314.72C198.96 314.72 198.06 316.304 198.06 318.392C198.06 320.498 198.96 322.046 200.742 322.046ZM207.037 323V313.694H208.495V323H207.037ZM207.037 311.93V310.13H208.495V311.93H207.037ZM217.79 323.09C216.836 323.09 216.332 322.658 216.188 321.704H216.17C215.612 322.424 214.658 323.18 213.074 323.18C211.31 323.18 209.924 322.352 209.924 320.588C209.924 318.392 211.652 317.942 213.974 317.582C215.288 317.384 216.206 317.258 216.206 316.25C216.206 315.206 215.45 314.612 214.118 314.612C212.606 314.612 211.85 315.26 211.796 316.664H210.392C210.446 314.864 211.634 313.514 214.1 313.514C216.08 313.514 217.538 314.252 217.538 316.466V320.894C217.538 321.65 217.718 322.064 218.528 321.884H218.582V322.946C218.402 323.018 218.168 323.09 217.79 323.09ZM213.398 322.064C215.342 322.064 216.224 320.642 216.224 319.562V317.978C215.738 318.284 214.892 318.518 214.1 318.662C212.642 318.932 211.472 319.184 211.472 320.552C211.472 321.794 212.444 322.064 213.398 322.064ZM219.712 323V310.13H221.17V323H219.712ZM223.209 323V313.694H224.667V315.026H224.703C225.279 314.126 226.269 313.478 227.439 313.478C228.573 313.478 229.473 314.054 229.869 315.134H229.905C230.499 314.072 231.615 313.478 232.749 313.478C234.405 313.478 235.575 314.54 235.575 316.466V323H234.117V316.538C234.117 315.386 233.343 314.702 232.407 314.702C231.201 314.702 230.121 315.746 230.121 317.204V323H228.663V316.538C228.663 315.386 228.015 314.702 227.061 314.702C225.927 314.702 224.667 315.746 224.667 317.204V323H223.209ZM241.478 323.252C238.634 323.252 236.978 321.056 236.978 318.356C236.978 315.656 238.742 313.46 241.388 313.46C244.178 313.46 245.672 315.62 245.672 318.698H238.472C238.58 320.588 239.606 322.028 241.478 322.028C242.828 322.028 243.728 321.38 244.052 320.12H245.474C245.042 322.118 243.584 323.252 241.478 323.252ZM241.388 314.612C239.66 314.612 238.724 315.908 238.508 317.6H244.106C244.016 315.746 243.062 314.612 241.388 314.612ZM248.555 313.694V314.918H248.591C249.257 314.036 250.193 313.478 251.543 313.478C253.487 313.478 254.675 314.54 254.675 316.466V323H253.217V316.592C253.217 315.386 252.425 314.702 251.111 314.702C249.635 314.702 248.555 315.746 248.555 317.276V323H247.097V313.694H248.555ZM255.837 314.882V313.694H257.187V310.76H258.645V313.694H260.445V314.882H258.645V320.93C258.645 321.578 258.987 321.794 259.581 321.794C259.869 321.794 260.193 321.722 260.355 321.668H260.409V322.928C260.067 323 259.671 323.054 259.239 323.054C258.051 323.054 257.187 322.568 257.187 321.254V314.882H255.837ZM265.841 323.252C262.997 323.252 261.341 321.056 261.341 318.356C261.341 315.656 263.105 313.46 265.751 313.46C268.541 313.46 270.035 315.62 270.035 318.698H262.835C262.943 320.588 263.969 322.028 265.841 322.028C267.191 322.028 268.091 321.38 268.415 320.12H269.837C269.405 322.118 267.947 323.252 265.841 323.252ZM265.751 314.612C264.023 314.612 263.087 315.908 262.871 317.6H268.469C268.379 315.746 267.425 314.612 265.751 314.612ZM271.087 323V321.218H272.833V323H271.087ZM281.144 323L276.662 310.13H278.408L281.576 319.706C281.774 320.3 282.08 321.434 282.08 321.434H282.116C282.116 321.434 282.422 320.282 282.62 319.706L285.752 310.13H287.444L282.926 323H281.144ZM291.417 323.252C288.573 323.252 286.917 321.056 286.917 318.356C286.917 315.656 288.681 313.46 291.327 313.46C294.117 313.46 295.611 315.62 295.611 318.698H288.411C288.519 320.588 289.545 322.028 291.417 322.028C292.767 322.028 293.667 321.38 293.991 320.12H295.413C294.981 322.118 293.523 323.252 291.417 323.252ZM291.327 314.612C289.599 314.612 288.663 315.908 288.447 317.6H294.045C293.955 315.746 293.001 314.612 291.327 314.612ZM297.037 323V313.694H298.495V323H297.037ZM297.037 311.93V310.13H298.495V311.93H297.037ZM301.94 313.694V314.918H301.976C302.642 314.036 303.578 313.478 304.928 313.478C306.872 313.478 308.06 314.54 308.06 316.466V323H306.602V316.592C306.602 315.386 305.81 314.702 304.496 314.702C303.02 314.702 301.94 315.746 301.94 317.276V323H300.482V313.694H301.94ZM309.222 314.882V313.694H310.572V310.76H312.03V313.694H313.83V314.882H312.03V320.93C312.03 321.578 312.372 321.794 312.966 321.794C313.254 321.794 313.578 321.722 313.74 321.668H313.794V322.928C313.452 323 313.056 323.054 312.624 323.054C311.436 323.054 310.572 322.568 310.572 321.254V314.882H309.222ZM319.226 323.252C316.382 323.252 314.726 321.056 314.726 318.356C314.726 315.656 316.49 313.46 319.136 313.46C321.926 313.46 323.42 315.62 323.42 318.698H316.22C316.328 320.588 317.354 322.028 319.226 322.028C320.576 322.028 321.476 321.38 321.8 320.12H323.222C322.79 322.118 321.332 323.252 319.226 323.252ZM319.136 314.612C317.408 314.612 316.472 315.908 316.256 317.6H321.854C321.764 315.746 320.81 314.612 319.136 314.612ZM327.711 323V313.694H329.169V315.026H329.205C329.781 314.126 330.771 313.478 331.941 313.478C333.075 313.478 333.975 314.054 334.371 315.134H334.407C335.001 314.072 336.117 313.478 337.251 313.478C338.907 313.478 340.077 314.54 340.077 316.466V323H338.619V316.538C338.619 315.386 337.845 314.702 336.909 314.702C335.703 314.702 334.623 315.746 334.623 317.204V323H333.165V316.538C333.165 315.386 332.517 314.702 331.563 314.702C330.429 314.702 329.169 315.746 329.169 317.204V323H327.711ZM345.98 323.252C343.136 323.252 341.48 321.056 341.48 318.356C341.48 315.656 343.244 313.46 345.89 313.46C348.68 313.46 350.174 315.62 350.174 318.698H342.974C343.082 320.588 344.108 322.028 345.98 322.028C347.33 322.028 348.23 321.38 348.554 320.12H349.976C349.544 322.118 348.086 323.252 345.98 323.252ZM345.89 314.612C344.162 314.612 343.226 315.908 343.01 317.6H348.608C348.518 315.746 347.564 314.612 345.89 314.612ZM350.83 314.882V313.694H352.18V310.76H353.638V313.694H355.438V314.882H353.638V320.93C353.638 321.578 353.98 321.794 354.574 321.794C354.862 321.794 355.186 321.722 355.348 321.668H355.402V322.928C355.06 323 354.664 323.054 354.232 323.054C353.044 323.054 352.18 322.568 352.18 321.254V314.882H350.83ZM358.401 313.694V315.242H358.437C358.995 314.342 359.967 313.586 361.209 313.586C361.479 313.586 361.623 313.622 361.803 313.694V315.098H361.749C361.533 315.026 361.389 315.008 361.101 315.008C359.661 315.008 358.401 316.088 358.401 317.834V323H356.943V313.694H358.401ZM366.739 323.252C363.967 323.252 362.239 321.056 362.239 318.356C362.239 315.656 363.967 313.46 366.739 313.46C369.529 313.46 371.221 315.656 371.221 318.356C371.221 321.056 369.529 323.252 366.739 323.252ZM366.739 322.028C368.719 322.028 369.727 320.408 369.727 318.356C369.727 316.304 368.719 314.666 366.739 314.666C364.759 314.666 363.733 316.304 363.733 318.356C363.733 320.408 364.759 322.028 366.739 322.028ZM376.204 323.27C373.648 323.27 372.226 322.064 372.082 319.976H373.576C373.774 321.596 374.854 322.046 376.24 322.046C377.77 322.046 378.4 321.38 378.4 320.516C378.4 319.472 377.68 319.202 375.97 318.842C374.134 318.464 372.496 318.086 372.496 316.052C372.496 314.504 373.684 313.496 375.844 313.496C378.148 313.496 379.282 314.594 379.498 316.412H378.004C377.86 315.188 377.194 314.648 375.808 314.648C374.476 314.648 373.936 315.242 373.936 315.98C373.936 316.988 374.836 317.186 376.438 317.51C378.31 317.888 379.876 318.302 379.876 320.444C379.876 322.316 378.346 323.27 376.204 323.27ZM387.736 323.27C385.198 323.27 383.614 321.362 383.614 318.374C383.614 315.278 385.396 313.478 387.7 313.478C389.014 313.478 390.022 314.126 390.616 315.008H390.652V310.13H392.11V323H390.652V321.866H390.616C389.914 322.766 389.05 323.27 387.736 323.27ZM387.79 322.046C389.86 322.046 390.742 320.498 390.742 318.392C390.742 316.232 389.698 314.72 387.772 314.72C386.008 314.72 385.108 316.304 385.108 318.392C385.108 320.498 386.008 322.046 387.79 322.046ZM398.064 323.252C395.22 323.252 393.564 321.056 393.564 318.356C393.564 315.656 395.328 313.46 397.974 313.46C400.764 313.46 402.258 315.62 402.258 318.698H395.058C395.166 320.588 396.192 322.028 398.064 322.028C399.414 322.028 400.314 321.38 400.638 320.12H402.06C401.628 322.118 400.17 323.252 398.064 323.252ZM397.974 314.612C396.246 314.612 395.31 315.908 395.094 317.6H400.692C400.602 315.746 399.648 314.612 397.974 314.612ZM36.9282 335.882V334.694H38.2782V331.76H39.7362V334.694H41.5362V335.882H39.7362V341.93C39.7362 342.578 40.0782 342.794 40.6722 342.794C40.9602 342.794 41.2842 342.722 41.4462 342.668H41.5002V343.928C41.1582 344 40.7622 344.054 40.3302 344.054C39.1422 344.054 38.2782 343.568 38.2782 342.254V335.882H36.9282ZM46.9319 344.252C44.0879 344.252 42.4319 342.056 42.4319 339.356C42.4319 336.656 44.1959 334.46 46.8419 334.46C49.6319 334.46 51.1259 336.62 51.1259 339.698H43.9259C44.0339 341.588 45.0599 343.028 46.9319 343.028C48.2819 343.028 49.1819 342.38 49.5059 341.12H50.9279C50.4959 343.118 49.0379 344.252 46.9319 344.252ZM46.8419 335.612C45.1139 335.612 44.1779 336.908 43.9619 338.6H49.5599C49.4699 336.746 48.5159 335.612 46.8419 335.612ZM52.6055 344V331.13H54.0635V344H52.6055ZM63.4103 344.09C62.4563 344.09 61.9523 343.658 61.8083 342.704H61.7903C61.2323 343.424 60.2783 344.18 58.6943 344.18C56.9303 344.18 55.5443 343.352 55.5443 341.588C55.5443 339.392 57.2723 338.942 59.5943 338.582C60.9083 338.384 61.8263 338.258 61.8263 337.25C61.8263 336.206 61.0703 335.612 59.7383 335.612C58.2263 335.612 57.4703 336.26 57.4163 337.664H56.0123C56.0663 335.864 57.2543 334.514 59.7203 334.514C61.7003 334.514 63.1583 335.252 63.1583 337.466V341.894C63.1583 342.65 63.3383 343.064 64.1483 342.884H64.2023V343.946C64.0223 344.018 63.7883 344.09 63.4103 344.09ZM59.0183 343.064C60.9623 343.064 61.8443 341.642 61.8443 340.562V338.978C61.3583 339.284 60.5123 339.518 59.7203 339.662C58.2623 339.932 57.0923 340.184 57.0923 341.552C57.0923 342.794 58.0643 343.064 59.0183 343.064ZM68.1433 346.988V334.694H69.6013V336.008H69.6373C70.3393 335.054 71.2753 334.478 72.6253 334.478C74.9833 334.478 76.6213 336.278 76.6213 339.374C76.6213 342.362 75.0913 344.27 72.5713 344.27C71.3113 344.27 70.4113 343.892 69.6373 342.902H69.6013V346.988H68.1433ZM72.4633 343.046C74.2453 343.046 75.1273 341.498 75.1273 339.392C75.1273 337.304 74.2453 335.72 72.4813 335.72C70.4473 335.72 69.5113 337.376 69.5113 339.392C69.5113 341.408 70.3213 343.046 72.4633 343.046ZM82.053 344.252C79.281 344.252 77.553 342.056 77.553 339.356C77.553 336.656 79.281 334.46 82.053 334.46C84.843 334.46 86.535 336.656 86.535 339.356C86.535 342.056 84.843 344.252 82.053 344.252ZM82.053 343.028C84.033 343.028 85.041 341.408 85.041 339.356C85.041 337.304 84.033 335.666 82.053 335.666C80.073 335.666 79.047 337.304 79.047 339.356C79.047 341.408 80.073 343.028 82.053 343.028ZM89.447 334.694V336.242H89.483C90.041 335.342 91.013 334.586 92.255 334.586C92.525 334.586 92.669 334.622 92.849 334.694V336.098H92.795C92.579 336.026 92.435 336.008 92.147 336.008C90.707 336.008 89.447 337.088 89.447 338.834V344H87.989V334.694H89.447ZM99.3282 344L96.0702 334.694H97.6362L99.5622 340.598C99.8322 341.426 100.174 342.56 100.174 342.56H100.21C100.21 342.56 100.552 341.408 100.822 340.598L102.784 334.694H104.296L100.948 344H99.3282ZM109.123 344.252C106.279 344.252 104.623 342.056 104.623 339.356C104.623 336.656 106.387 334.46 109.033 334.46C111.823 334.46 113.317 336.62 113.317 339.698H106.117C106.225 341.588 107.251 343.028 109.123 343.028C110.473 343.028 111.373 342.38 111.697 341.12H113.119C112.687 343.118 111.229 344.252 109.123 344.252ZM109.033 335.612C107.305 335.612 106.369 336.908 106.153 338.6H111.751C111.661 336.746 110.707 335.612 109.033 335.612ZM118.271 344.27C115.715 344.27 114.293 343.064 114.149 340.976H115.643C115.841 342.596 116.921 343.046 118.307 343.046C119.837 343.046 120.467 342.38 120.467 341.516C120.467 340.472 119.747 340.202 118.037 339.842C116.201 339.464 114.563 339.086 114.563 337.052C114.563 335.504 115.751 334.496 117.911 334.496C120.215 334.496 121.349 335.594 121.565 337.412H120.071C119.927 336.188 119.261 335.648 117.875 335.648C116.543 335.648 116.003 336.242 116.003 336.98C116.003 337.988 116.903 338.186 118.505 338.51C120.377 338.888 121.943 339.302 121.943 341.444C121.943 343.316 120.413 344.27 118.271 344.27ZM122.569 335.882V334.694H123.919V331.76H125.377V334.694H127.177V335.882H125.377V341.93C125.377 342.578 125.719 342.794 126.313 342.794C126.601 342.794 126.925 342.722 127.087 342.668H127.141V343.928C126.799 344 126.403 344.054 125.971 344.054C124.783 344.054 123.919 343.568 123.919 342.254V335.882H122.569ZM128.682 344V334.694H130.14V344H128.682ZM128.682 332.93V331.13H130.14V332.93H128.682ZM135.728 344.27C133.19 344.27 131.606 342.362 131.606 339.374C131.606 336.278 133.388 334.478 135.692 334.478C137.006 334.478 138.014 335.126 138.608 336.008H138.644V331.13H140.102V344H138.644V342.866H138.608C137.906 343.766 137.042 344.27 135.728 344.27ZM135.782 343.046C137.852 343.046 138.734 341.498 138.734 339.392C138.734 337.232 137.69 335.72 135.764 335.72C134 335.72 133.1 337.304 133.1 339.392C133.1 341.498 134 343.046 135.782 343.046ZM146.055 344.252C143.283 344.252 141.555 342.056 141.555 339.356C141.555 336.656 143.283 334.46 146.055 334.46C148.845 334.46 150.537 336.656 150.537 339.356C150.537 342.056 148.845 344.252 146.055 344.252ZM146.055 343.028C148.035 343.028 149.043 341.408 149.043 339.356C149.043 337.304 148.035 335.666 146.055 335.666C144.075 335.666 143.049 337.304 143.049 339.356C143.049 341.408 144.075 343.028 146.055 343.028ZM155.666 340.04V338.798H170.066V340.04H155.666ZM180.236 344H178.778V342.722H178.742C178.076 343.622 177.284 344.216 175.934 344.216C174.026 344.216 172.802 343.064 172.802 341.138V334.694H174.26V341.102C174.26 342.308 175.034 343.01 176.348 343.01C177.824 343.01 178.778 341.894 178.778 340.418V334.694H180.236V344ZM183.666 334.694V335.918H183.702C184.368 335.036 185.304 334.478 186.654 334.478C188.598 334.478 189.786 335.54 189.786 337.466V344H188.328V337.592C188.328 336.386 187.536 335.702 186.222 335.702C184.746 335.702 183.666 336.746 183.666 338.276V344H182.208V334.694H183.666ZM198.561 344.252C195.717 344.252 194.061 342.056 194.061 339.356C194.061 336.656 195.825 334.46 198.471 334.46C201.261 334.46 202.755 336.62 202.755 339.698H195.555C195.663 341.588 196.689 343.028 198.561 343.028C199.911 343.028 200.811 342.38 201.135 341.12H202.557C202.125 343.118 200.667 344.252 198.561 344.252ZM198.471 335.612C196.743 335.612 195.807 336.908 195.591 338.6H201.189C201.099 336.746 200.145 335.612 198.471 335.612ZM207.708 344.27C205.152 344.27 203.73 343.064 203.586 340.976H205.08C205.278 342.596 206.358 343.046 207.744 343.046C209.274 343.046 209.904 342.38 209.904 341.516C209.904 340.472 209.184 340.202 207.474 339.842C205.638 339.464 204 339.086 204 337.052C204 335.504 205.188 334.496 207.348 334.496C209.652 334.496 210.786 335.594 211.002 337.412H209.508C209.364 336.188 208.698 335.648 207.312 335.648C205.98 335.648 205.44 336.242 205.44 336.98C205.44 337.988 206.34 338.186 207.942 338.51C209.814 338.888 211.38 339.302 211.38 341.444C211.38 343.316 209.85 344.27 207.708 344.27ZM216.93 344.252C214.158 344.252 212.43 342.056 212.43 339.356C212.43 336.656 214.158 334.46 216.93 334.46C219.126 334.46 220.584 335.72 220.908 337.7H219.432C219.216 336.44 218.334 335.666 216.93 335.666C214.95 335.666 213.924 337.304 213.924 339.356C213.924 341.408 214.95 343.028 216.93 343.028C218.442 343.028 219.342 342.164 219.468 340.724H220.908C220.71 342.956 219.252 344.252 216.93 344.252ZM229.77 344.09C228.816 344.09 228.312 343.658 228.168 342.704H228.15C227.592 343.424 226.638 344.18 225.054 344.18C223.29 344.18 221.904 343.352 221.904 341.588C221.904 339.392 223.632 338.942 225.954 338.582C227.268 338.384 228.186 338.258 228.186 337.25C228.186 336.206 227.43 335.612 226.098 335.612C224.586 335.612 223.83 336.26 223.776 337.664H222.372C222.426 335.864 223.614 334.514 226.08 334.514C228.06 334.514 229.518 335.252 229.518 337.466V341.894C229.518 342.65 229.698 343.064 230.508 342.884H230.562V343.946C230.382 344.018 230.148 344.09 229.77 344.09ZM225.378 343.064C227.322 343.064 228.204 341.642 228.204 340.562V338.978C227.718 339.284 226.872 339.518 226.08 339.662C224.622 339.932 223.452 340.184 223.452 341.552C223.452 342.794 224.424 343.064 225.378 343.064ZM225.504 333.236L226.422 330.95H228.222L226.746 333.236H225.504ZM233.095 334.694V335.918H233.131C233.797 335.036 234.733 334.478 236.083 334.478C238.027 334.478 239.215 335.54 239.215 337.466V344H237.757V337.592C237.757 336.386 236.965 335.702 235.651 335.702C234.175 335.702 233.095 336.746 233.095 338.276V344H231.637V334.694H233.095ZM244.747 344.27C242.209 344.27 240.625 342.362 240.625 339.374C240.625 336.278 242.407 334.478 244.711 334.478C246.025 334.478 247.033 335.126 247.627 336.008H247.663V331.13H249.121V344H247.663V342.866H247.627C246.925 343.766 246.061 344.27 244.747 344.27ZM244.801 343.046C246.871 343.046 247.753 341.498 247.753 339.392C247.753 337.232 246.709 335.72 244.783 335.72C243.019 335.72 242.119 337.304 242.119 339.392C242.119 341.498 243.019 343.046 244.801 343.046ZM258.404 344.09C257.45 344.09 256.946 343.658 256.802 342.704H256.784C256.226 343.424 255.272 344.18 253.688 344.18C251.924 344.18 250.538 343.352 250.538 341.588C250.538 339.392 252.266 338.942 254.588 338.582C255.902 338.384 256.82 338.258 256.82 337.25C256.82 336.206 256.064 335.612 254.732 335.612C253.22 335.612 252.464 336.26 252.41 337.664H251.006C251.06 335.864 252.248 334.514 254.714 334.514C256.694 334.514 258.152 335.252 258.152 337.466V341.894C258.152 342.65 258.332 343.064 259.142 342.884H259.196V343.946C259.016 344.018 258.782 344.09 258.404 344.09ZM254.012 343.064C255.956 343.064 256.838 341.642 256.838 340.562V338.978C256.352 339.284 255.506 339.518 254.714 339.662C253.256 339.932 252.086 340.184 252.086 341.552C252.086 342.794 253.058 343.064 254.012 343.064ZM260.326 344V331.13H261.784V344H260.326ZM267.801 344.252C265.029 344.252 263.301 342.056 263.301 339.356C263.301 336.656 265.029 334.46 267.801 334.46C270.591 334.46 272.283 336.656 272.283 339.356C272.283 342.056 270.591 344.252 267.801 344.252ZM267.801 343.028C269.781 343.028 270.789 341.408 270.789 339.356C270.789 337.304 269.781 335.666 267.801 335.666C265.821 335.666 264.795 337.304 264.795 339.356C264.795 341.408 265.821 343.028 267.801 343.028ZM276.602 344V334.694H278.06V336.026H278.096C278.672 335.126 279.662 334.478 280.832 334.478C281.966 334.478 282.866 335.054 283.262 336.134H283.298C283.892 335.072 285.008 334.478 286.142 334.478C287.798 334.478 288.968 335.54 288.968 337.466V344H287.51V337.538C287.51 336.386 286.736 335.702 285.8 335.702C284.594 335.702 283.514 336.746 283.514 338.204V344H282.056V337.538C282.056 336.386 281.408 335.702 280.454 335.702C279.32 335.702 278.06 336.746 278.06 338.204V344H276.602ZM290.893 344V334.694H292.351V344H290.893ZM290.893 332.93V331.13H292.351V332.93H290.893ZM298.317 344.252C295.473 344.252 293.817 342.056 293.817 339.356C293.817 336.656 295.581 334.46 298.227 334.46C301.017 334.46 302.511 336.62 302.511 339.698H295.311C295.419 341.588 296.445 343.028 298.317 343.028C299.667 343.028 300.567 342.38 300.891 341.12H302.313C301.881 343.118 300.423 344.252 298.317 344.252ZM298.227 335.612C296.499 335.612 295.563 336.908 295.347 338.6H300.945C300.855 336.746 299.901 335.612 298.227 335.612ZM305.394 334.694V335.918H305.43C306.096 335.036 307.032 334.478 308.382 334.478C310.326 334.478 311.514 335.54 311.514 337.466V344H310.056V337.592C310.056 336.386 309.264 335.702 307.95 335.702C306.474 335.702 305.394 336.746 305.394 338.276V344H303.936V334.694H305.394ZM312.676 335.882V334.694H314.026V331.76H315.484V334.694H317.284V335.882H315.484V341.93C315.484 342.578 315.826 342.794 316.42 342.794C316.708 342.794 317.032 342.722 317.194 342.668H317.248V343.928C316.906 344 316.51 344.054 316.078 344.054C314.89 344.054 314.026 343.568 314.026 342.254V335.882H312.676ZM320.248 334.694V336.242H320.284C320.842 335.342 321.814 334.586 323.056 334.586C323.326 334.586 323.47 334.622 323.65 334.694V336.098H323.596C323.38 336.026 323.236 336.008 322.948 336.008C321.508 336.008 320.248 337.088 320.248 338.834V344H318.79V334.694H320.248ZM331.916 344.09C330.962 344.09 330.458 343.658 330.314 342.704H330.296C329.738 343.424 328.784 344.18 327.2 344.18C325.436 344.18 324.05 343.352 324.05 341.588C324.05 339.392 325.778 338.942 328.1 338.582C329.414 338.384 330.332 338.258 330.332 337.25C330.332 336.206 329.576 335.612 328.244 335.612C326.732 335.612 325.976 336.26 325.922 337.664H324.518C324.572 335.864 325.76 334.514 328.226 334.514C330.206 334.514 331.664 335.252 331.664 337.466V341.894C331.664 342.65 331.844 343.064 332.654 342.884H332.708V343.946C332.528 344.018 332.294 344.09 331.916 344.09ZM327.524 343.064C329.468 343.064 330.35 341.642 330.35 340.562V338.978C329.864 339.284 329.018 339.518 328.226 339.662C326.768 339.932 325.598 340.184 325.598 341.552C325.598 342.794 326.57 343.064 327.524 343.064ZM337.312 344.27C334.756 344.27 333.334 343.064 333.19 340.976H334.684C334.882 342.596 335.962 343.046 337.348 343.046C338.878 343.046 339.508 342.38 339.508 341.516C339.508 340.472 338.788 340.202 337.078 339.842C335.242 339.464 333.604 339.086 333.604 337.052C333.604 335.504 334.792 334.496 336.952 334.496C339.256 334.496 340.39 335.594 340.606 337.412H339.112C338.968 336.188 338.302 335.648 336.916 335.648C335.584 335.648 335.044 336.242 335.044 336.98C335.044 337.988 335.944 338.186 337.546 338.51C339.418 338.888 340.984 339.302 340.984 341.444C340.984 343.316 339.454 344.27 337.312 344.27ZM345.461 344V331.13H354.551V332.552H347.081V336.62H353.867V337.988H347.081V342.506H354.767V344H345.461ZM363.646 344H362.188V342.722H362.152C361.486 343.622 360.694 344.216 359.344 344.216C357.436 344.216 356.212 343.064 356.212 341.138V334.694H357.67V341.102C357.67 342.308 358.444 343.01 359.758 343.01C361.234 343.01 362.188 341.894 362.188 340.418V334.694H363.646V344ZM367.076 334.694V336.242H367.112C367.67 335.342 368.642 334.586 369.884 334.586C370.154 334.586 370.298 334.622 370.478 334.694V336.098H370.424C370.208 336.026 370.064 336.008 369.776 336.008C368.336 336.008 367.076 337.088 367.076 338.834V344H365.618V334.694H367.076ZM375.414 344.252C372.642 344.252 370.914 342.056 370.914 339.356C370.914 336.656 372.642 334.46 375.414 334.46C378.204 334.46 379.896 336.656 379.896 339.356C379.896 342.056 378.204 344.252 375.414 344.252ZM375.414 343.028C377.394 343.028 378.402 341.408 378.402 339.356C378.402 337.304 377.394 335.666 375.414 335.666C373.434 335.666 372.408 337.304 372.408 339.356C372.408 341.408 373.434 343.028 375.414 343.028ZM381.35 346.988V334.694H382.808V336.008H382.844C383.546 335.054 384.482 334.478 385.832 334.478C388.19 334.478 389.828 336.278 389.828 339.374C389.828 342.362 388.298 344.27 385.778 344.27C384.518 344.27 383.618 343.892 382.844 342.902H382.808V346.988H381.35ZM385.67 343.046C387.452 343.046 388.334 341.498 388.334 339.392C388.334 337.304 387.452 335.72 385.688 335.72C383.654 335.72 382.718 337.376 382.718 339.392C382.718 341.408 383.528 343.046 385.67 343.046ZM398.59 344.09C397.636 344.09 397.132 343.658 396.988 342.704H396.97C396.412 343.424 395.458 344.18 393.874 344.18C392.11 344.18 390.724 343.352 390.724 341.588C390.724 339.392 392.452 338.942 394.774 338.582C396.088 338.384 397.006 338.258 397.006 337.25C397.006 336.206 396.25 335.612 394.918 335.612C393.406 335.612 392.65 336.26 392.596 337.664H391.192C391.246 335.864 392.434 334.514 394.9 334.514C396.88 334.514 398.338 335.252 398.338 337.466V341.894C398.338 342.65 398.518 343.064 399.328 342.884H399.382V343.946C399.202 344.018 398.968 344.09 398.59 344.09ZM394.198 343.064C396.142 343.064 397.024 341.642 397.024 340.562V338.978C396.538 339.284 395.692 339.518 394.9 339.662C393.442 339.932 392.272 340.184 392.272 341.552C392.272 342.794 393.244 343.064 394.198 343.064ZM171.331 365.09C170.377 365.09 169.873 364.658 169.729 363.704H169.711C169.153 364.424 168.199 365.18 166.615 365.18C164.851 365.18 163.465 364.352 163.465 362.588C163.465 360.392 165.193 359.942 167.515 359.582C168.829 359.384 169.747 359.258 169.747 358.25C169.747 357.206 168.991 356.612 167.659 356.612C166.147 356.612 165.391 357.26 165.337 358.664H163.933C163.987 356.864 165.175 355.514 167.641 355.514C169.621 355.514 171.079 356.252 171.079 358.466V362.894C171.079 363.65 171.259 364.064 172.069 363.884H172.123V364.946C171.943 365.018 171.709 365.09 171.331 365.09ZM166.939 364.064C168.883 364.064 169.765 362.642 169.765 361.562V359.978C169.279 360.284 168.433 360.518 167.641 360.662C166.183 360.932 165.013 361.184 165.013 362.552C165.013 363.794 165.985 364.064 166.939 364.064ZM180.579 365H179.121V363.722H179.085C178.419 364.622 177.627 365.216 176.277 365.216C174.369 365.216 173.145 364.064 173.145 362.138V355.694H174.603V362.102C174.603 363.308 175.377 364.01 176.691 364.01C178.167 364.01 179.121 362.894 179.121 361.418V355.694H180.579V365ZM176.349 354.236L177.267 351.95H179.067L177.591 354.236H176.349ZM184.009 355.694V356.918H184.045C184.711 356.036 185.647 355.478 186.997 355.478C188.941 355.478 190.129 356.54 190.129 358.466V365H188.671V358.592C188.671 357.386 187.879 356.702 186.565 356.702C185.089 356.702 184.009 357.746 184.009 359.276V365H182.551V355.694H184.009ZM196.384 355.694V357.242H196.42C196.978 356.342 197.95 355.586 199.192 355.586C199.462 355.586 199.606 355.622 199.786 355.694V357.098H199.732C199.516 357.026 199.372 357.008 199.084 357.008C197.644 357.008 196.384 358.088 196.384 359.834V365H194.926V355.694H196.384ZM208.052 365.09C207.098 365.09 206.594 364.658 206.45 363.704H206.432C205.874 364.424 204.92 365.18 203.336 365.18C201.572 365.18 200.186 364.352 200.186 362.588C200.186 360.392 201.914 359.942 204.236 359.582C205.55 359.384 206.468 359.258 206.468 358.25C206.468 357.206 205.712 356.612 204.38 356.612C202.868 356.612 202.112 357.26 202.058 358.664H200.654C200.708 356.864 201.896 355.514 204.362 355.514C206.342 355.514 207.8 356.252 207.8 358.466V362.894C207.8 363.65 207.98 364.064 208.79 363.884H208.844V364.946C208.664 365.018 208.43 365.09 208.052 365.09ZM203.66 364.064C205.604 364.064 206.486 362.642 206.486 361.562V359.978C206 360.284 205.154 360.518 204.362 360.662C202.904 360.932 201.734 361.184 201.734 362.552C201.734 363.794 202.706 364.064 203.66 364.064ZM213.898 365.252C211.126 365.252 209.398 363.056 209.398 360.356C209.398 357.656 211.126 355.46 213.898 355.46C216.094 355.46 217.552 356.72 217.876 358.7H216.4C216.184 357.44 215.302 356.666 213.898 356.666C211.918 356.666 210.892 358.304 210.892 360.356C210.892 362.408 211.918 364.028 213.898 364.028C215.41 364.028 216.31 363.164 216.436 361.724H217.876C217.678 363.956 216.22 365.252 213.898 365.252ZM219.254 365V355.694H220.712V365H219.254ZM219.254 353.93V352.13H220.712V353.93H219.254ZM226.677 365.252C223.905 365.252 222.177 363.056 222.177 360.356C222.177 357.656 223.905 355.46 226.677 355.46C229.467 355.46 231.159 357.656 231.159 360.356C231.159 363.056 229.467 365.252 226.677 365.252ZM226.677 364.028C228.657 364.028 229.665 362.408 229.665 360.356C229.665 358.304 228.657 356.666 226.677 356.666C224.697 356.666 223.671 358.304 223.671 360.356C223.671 362.408 224.697 364.028 226.677 364.028ZM234.071 355.694V356.918H234.107C234.773 356.036 235.709 355.478 237.059 355.478C239.003 355.478 240.191 356.54 240.191 358.466V365H238.733V358.592C238.733 357.386 237.941 356.702 236.627 356.702C235.151 356.702 234.071 357.746 234.071 359.276V365H232.613V355.694H234.071ZM249.431 365.09C248.477 365.09 247.973 364.658 247.829 363.704H247.811C247.253 364.424 246.299 365.18 244.715 365.18C242.951 365.18 241.565 364.352 241.565 362.588C241.565 360.392 243.293 359.942 245.615 359.582C246.929 359.384 247.847 359.258 247.847 358.25C247.847 357.206 247.091 356.612 245.759 356.612C244.247 356.612 243.491 357.26 243.437 358.664H242.033C242.087 356.864 243.275 355.514 245.741 355.514C247.721 355.514 249.179 356.252 249.179 358.466V362.894C249.179 363.65 249.359 364.064 250.169 363.884H250.223V364.946C250.043 365.018 249.809 365.09 249.431 365.09ZM245.039 364.064C246.983 364.064 247.865 362.642 247.865 361.562V359.978C247.379 360.284 246.533 360.518 245.741 360.662C244.283 360.932 243.113 361.184 243.113 362.552C243.113 363.794 244.085 364.064 245.039 364.064ZM255.727 365.27C254.467 365.27 253.549 364.82 252.793 363.776H252.757V365H251.299V352.13H252.757V357.026H252.793C253.495 356.072 254.431 355.478 255.781 355.478C258.139 355.478 259.741 357.278 259.741 360.374C259.741 363.362 258.247 365.27 255.727 365.27ZM255.619 364.046C257.401 364.046 258.247 362.498 258.247 360.392C258.247 358.304 257.401 356.72 255.637 356.72C253.603 356.72 252.667 358.376 252.667 360.392C252.667 362.48 253.639 364.046 255.619 364.046ZM268.503 365.09C267.549 365.09 267.045 364.658 266.901 363.704H266.883C266.325 364.424 265.371 365.18 263.787 365.18C262.023 365.18 260.637 364.352 260.637 362.588C260.637 360.392 262.365 359.942 264.687 359.582C266.001 359.384 266.919 359.258 266.919 358.25C266.919 357.206 266.163 356.612 264.831 356.612C263.319 356.612 262.563 357.26 262.509 358.664H261.105C261.159 356.864 262.347 355.514 264.813 355.514C266.793 355.514 268.251 356.252 268.251 358.466V362.894C268.251 363.65 268.431 364.064 269.241 363.884H269.295V364.946C269.115 365.018 268.881 365.09 268.503 365.09ZM264.111 364.064C266.055 364.064 266.937 362.642 266.937 361.562V359.978C266.451 360.284 265.605 360.518 264.813 360.662C263.355 360.932 262.185 361.184 262.185 362.552C262.185 363.794 263.157 364.064 264.111 364.064ZM270.437 365V363.218H272.183V365H270.437Z" fill="#F3EEE1"/>
<path d="M56.968 254.768C45.896 254.768 39.752 247.6 39.752 236.464C39.752 222.64 49.288 206.64 65.8 206.64C72.328 206.64 76.808 209.136 79.048 210.608L78.152 216.432H77.768C75.784 210.16 71.624 207.536 65.992 207.536C52.168 207.536 43.784 223.472 43.784 237.04C43.784 246.832 48.136 253.872 56.904 253.872C63.112 253.872 68.296 250.224 72.136 243.952H72.52L70.024 251.376C66.824 252.912 62.664 254.768 56.968 254.768ZM87.285 254.768C80.629 254.768 76.405 249.904 76.405 241.968C76.405 231.472 83.701 219.696 93.173 219.696C99.829 219.696 104.053 224.56 104.053 232.496C104.053 242.992 96.757 254.768 87.285 254.768ZM87.413 253.872C95.477 253.872 100.597 240.816 100.597 231.216C100.597 224.944 98.165 220.592 93.045 220.592C84.981 220.592 79.861 233.648 79.861 243.248C79.861 249.52 82.293 253.872 87.413 253.872ZM127.455 219.696C128.287 219.696 129.183 219.76 130.015 220.208L128.223 224.176H127.839C127.071 223.792 126.431 223.664 125.663 223.664C119.071 223.664 113.375 239.664 110.303 254H107.103L112.927 226.48C113.311 224.688 113.695 222.896 112.543 222.896C111.583 222.896 109.791 224.816 107.231 228.144L106.911 227.888C109.855 222.384 112.863 219.696 114.783 219.696C116.959 219.696 117.087 222 116.319 225.712L113.439 239.152C116.959 228.528 121.951 219.696 127.455 219.696ZM137.41 254.768C130.754 254.768 126.53 249.904 126.53 241.968C126.53 231.472 133.826 219.696 143.298 219.696C149.954 219.696 154.178 224.56 154.178 232.496C154.178 242.992 146.882 254.768 137.41 254.768ZM137.538 253.872C145.602 253.872 150.722 240.816 150.722 231.216C150.722 224.944 148.29 220.592 143.17 220.592C135.106 220.592 129.986 233.648 129.986 243.248C129.986 249.52 132.418 253.872 137.538 253.872ZM158.444 254.768C155.884 254.768 156.332 251.312 156.908 248.752L164.716 212.016C165.612 207.92 164.844 206.384 162.796 206L162.86 205.616L169.388 203.952H169.644L160.3 247.984C160.108 248.88 159.596 251.248 160.748 251.248C162.028 251.248 164.78 248.304 167.276 244.912L167.596 245.168C164.396 251.184 161.004 254.768 158.444 254.768ZM170.882 254.768C168.322 254.768 168.77 251.312 169.346 248.752L177.154 212.016C178.05 207.92 177.282 206.384 175.234 206L175.298 205.616L181.826 203.952H182.082L172.738 247.984C172.546 248.88 172.034 251.248 173.186 251.248C174.466 251.248 177.218 248.304 179.714 244.912L180.034 245.168C176.834 251.184 173.442 254.768 170.882 254.768ZM211.159 244.912L211.479 245.168C208.279 251.184 204.887 254.768 202.327 254.768C199.767 254.768 200.215 251.312 200.791 248.752L202.775 239.472C198.807 249.328 192.471 254.768 187.159 254.768C183.191 254.768 180.887 251.632 180.887 245.744C180.887 234.288 189.527 219.696 200.919 219.696C203.671 219.696 205.847 220.528 207.063 222.384L209.751 220.08H210.135L204.183 247.984C203.991 248.88 203.479 251.248 204.631 251.248C205.911 251.248 208.663 248.304 211.159 244.912ZM189.207 252.464C194.519 252.464 202.071 243.184 204.695 230.448C204.887 229.552 205.015 228.72 205.015 227.44C205.015 223.6 203.927 220.592 200.023 220.592C191.895 220.592 184.471 233.776 184.471 244.464C184.471 249.584 186.199 252.464 189.207 252.464ZM242.003 219.696C249.556 219.696 252.82 225.328 252.82 232.24C252.82 243.056 244.884 254.768 233.748 254.768C231.124 254.768 229.14 254.128 227.796 252.784L225.876 261.936C225.044 265.968 224.788 268.208 227.348 268.208L227.284 268.592H218.451L218.515 268.208C221.203 268.208 221.907 265.712 222.675 261.936L230.484 224.688C228.436 225.776 226.196 227.12 223.828 228.656L223.572 228.272C226.068 226.16 228.5 224.368 230.868 223.024L231.956 217.84L235.412 214.832H235.796L234.452 221.296C237.012 220.208 239.572 219.696 242.003 219.696ZM234.708 253.872C242.708 253.872 249.364 244.08 249.364 233.584C249.364 226.864 246.612 221.872 240.34 221.872C238.356 221.872 236.308 222.32 234.068 223.152L229.716 243.824C229.524 244.72 229.332 245.744 229.332 247.344C229.332 251.056 230.42 253.872 234.708 253.872ZM257.007 254.768C254.447 254.768 254.895 251.312 255.471 248.752L263.279 212.016C264.175 207.92 263.407 206.384 261.359 206L261.423 205.616L267.951 203.952H268.207L258.863 247.984C258.671 248.88 258.159 251.248 259.311 251.248C260.591 251.248 263.343 248.304 265.839 244.912L266.159 245.168C262.959 251.184 259.567 254.768 257.007 254.768ZM278.02 213.808C276.484 213.808 275.204 212.528 275.204 210.992C275.204 209.456 276.484 208.176 278.02 208.176C279.556 208.176 280.836 209.456 280.836 210.992C280.836 212.528 279.556 213.808 278.02 213.808ZM270.852 254.768C268.292 254.768 268.74 251.312 269.316 248.752L274.052 226.48C274.436 224.688 274.82 222.896 273.668 222.896C272.708 222.896 270.916 224.816 268.356 228.144L268.036 227.888C270.98 222.384 273.988 219.696 275.908 219.696C278.084 219.696 278.212 222 277.444 225.712L272.708 247.984C272.516 248.88 272.004 251.248 273.156 251.248C274.436 251.248 277.188 248.304 279.684 244.912L280.004 245.168C276.804 251.184 273.412 254.768 270.852 254.768ZM287.481 254.768C283.641 254.768 280.184 253.104 278.776 251.312L280.312 247.088H280.697C281.593 250.672 284.857 253.616 288.953 253.616C293.049 253.616 295.801 250.224 295.801 246.32C295.801 242.864 293.625 241.136 290.553 238.64L288.76 237.168C286.457 235.248 284.345 233.456 284.345 229.296C284.345 224.048 288.505 219.696 294.137 219.696C297.721 219.696 300.537 221.36 301.945 222.512L300.857 226.608H300.473C299.449 223.728 297.017 220.848 293.049 220.848C289.209 220.848 287.033 224.496 287.033 227.632C287.033 230.896 288.825 232.56 291.065 234.416L292.857 235.888C296.441 238.832 298.553 240.816 298.553 244.784C298.553 250.416 293.753 254.768 287.481 254.768ZM332.347 244.912L332.667 245.168C329.467 251.184 326.075 254.768 323.515 254.768C320.955 254.768 321.403 251.312 321.979 248.752L323.963 239.472C319.995 249.328 313.659 254.768 308.347 254.768C304.379 254.768 302.075 251.632 302.075 245.744C302.075 234.288 310.715 219.696 322.107 219.696C324.859 219.696 327.035 220.528 328.251 222.384L330.939 220.08H331.323L325.371 247.984C325.179 248.88 324.667 251.248 325.819 251.248C327.099 251.248 329.851 248.304 332.347 244.912ZM310.395 252.464C315.707 252.464 323.259 243.184 325.883 230.448C326.075 229.552 326.203 228.72 326.203 227.44C326.203 223.6 325.115 220.592 321.211 220.592C313.083 220.592 305.659 233.776 305.659 244.464C305.659 249.584 307.387 252.464 310.395 252.464ZM357.131 251.248C358.411 251.248 361.163 248.304 363.659 244.912L363.979 245.168C360.779 251.184 357.387 254.768 354.827 254.768C352.267 254.768 352.715 251.312 353.291 248.752L355.211 239.6C351.307 249.328 344.971 254.768 339.659 254.768C335.691 254.768 333.387 251.632 333.387 245.744C333.387 234.288 342.027 219.696 353.419 219.696C355.787 219.696 357.771 220.336 359.051 221.68L361.099 212.016C361.995 207.92 361.227 206.384 359.179 206L359.243 205.616L365.771 203.952H366.027L356.683 247.984C356.491 248.88 355.979 251.248 357.131 251.248ZM341.707 252.464C346.827 252.464 353.995 243.824 356.875 231.856L357.323 229.744C357.451 229.04 357.515 228.4 357.515 227.44C357.515 223.6 356.427 220.592 352.523 220.592C344.395 220.592 336.971 233.776 336.971 244.464C336.971 249.584 338.699 252.464 341.707 252.464ZM394.972 244.912L395.292 245.168C392.092 251.184 388.7 254.768 386.14 254.768C383.58 254.768 384.028 251.312 384.604 248.752L386.588 239.472C382.62 249.328 376.284 254.768 370.972 254.768C367.004 254.768 364.7 251.632 364.7 245.744C364.7 234.288 373.34 219.696 384.732 219.696C387.484 219.696 389.66 220.528 390.876 222.384L393.564 220.08H393.948L387.996 247.984C387.804 248.88 387.292 251.248 388.444 251.248C389.724 251.248 392.476 248.304 394.972 244.912ZM373.02 252.464C378.332 252.464 385.884 243.184 388.508 230.448C388.7 229.552 388.828 228.72 388.828 227.44C388.828 223.6 387.74 220.592 383.836 220.592C375.708 220.592 368.284 233.776 368.284 244.464C368.284 249.584 370.012 252.464 373.02 252.464Z" fill="#B9D6FE"/>
</svg>
