<svg width="436" height="493" viewBox="0 0 436 493" fill="none" xmlns="http://www.w3.org/2000/svg">
<path d="M0 218C0 97.6019 97.6019 0 218 0V0C338.398 0 436 97.6019 436 218V493H0V218Z" fill="#FD6500"/>
<path d="M166.424 168.224C163.974 168.224 162.42 166.264 162.42 163.212C162.42 160.146 164.002 158.2 166.438 158.2C168.916 158.2 170.428 160.132 170.428 163.212C170.428 166.264 168.916 168.224 166.424 168.224ZM166.438 166.6C167.866 166.6 168.44 165.27 168.44 163.212C168.44 161.182 167.852 159.824 166.438 159.824C165.01 159.824 164.408 161.168 164.408 163.212C164.408 165.242 165.01 166.6 166.438 166.6ZM174.097 168V161.308H171.927V160.048C173.103 160.006 174.153 159.572 174.349 158.34H176.015V168H174.097ZM178.053 168L181.973 157.99H183.485L179.565 168H178.053ZM192.348 168.224C189.632 168.224 188.092 167.02 188.022 164.906H190.01C190.15 166.11 190.836 166.586 192.264 166.586C193.3 166.586 194.21 166.222 194.21 165.298C194.21 164.318 193.258 164.122 191.732 163.772C189.94 163.366 188.302 162.89 188.302 160.804C188.302 158.83 189.912 157.808 192.138 157.808C194.392 157.808 195.848 158.914 196.002 160.93H194.056C193.944 159.922 193.16 159.418 192.124 159.418C191.032 159.418 190.318 159.88 190.318 160.594C190.318 161.406 191.018 161.644 192.502 161.966C194.56 162.414 196.24 162.904 196.24 165.06C196.24 167.09 194.602 168.224 192.348 168.224ZM202.688 168.224C199.734 168.224 197.858 166.012 197.858 163.016C197.858 160.02 199.734 157.794 202.688 157.794C205.642 157.794 207.504 160.02 207.504 163.016C207.504 166.012 205.642 168.224 202.688 168.224ZM202.702 166.558C204.536 166.558 205.432 165.004 205.432 163.016C205.432 161.014 204.536 159.46 202.702 159.46C200.868 159.46 199.93 161.014 199.93 163.016C199.93 165.004 200.868 166.558 202.702 166.558ZM209.455 168V157.99H212.311L213.725 163.016C214.075 164.276 214.355 165.718 214.355 165.718H214.383C214.383 165.718 214.649 164.276 214.999 163.016L216.413 157.99H219.311V168H217.421V162.26C217.421 161.448 217.505 160.188 217.505 160.188H217.477C217.477 160.188 217.253 161.364 217.043 162.092L215.321 168H213.375L211.695 162.092C211.485 161.364 211.261 160.188 211.261 160.188H211.233C211.233 160.188 211.317 161.448 211.317 162.26V168H209.455ZM221.697 168V157.99H226.177C227.255 157.99 228.081 158.256 228.599 158.718C229.145 159.208 229.397 159.81 229.397 160.594C229.397 161.616 228.767 162.274 227.829 162.596V162.638C228.935 162.96 229.691 163.884 229.691 165.116C229.691 166.054 229.397 166.698 228.809 167.202C228.235 167.706 227.353 168 226.289 168H221.697ZM223.727 163.52V166.32H226.065C227.045 166.32 227.633 165.774 227.633 164.962C227.633 164.01 226.933 163.52 226.009 163.52H223.727ZM223.727 162.022H225.925C226.807 162.022 227.409 161.602 227.409 160.818C227.409 160.076 226.863 159.642 225.967 159.642H223.727V162.022ZM231.724 168V157.99H236.316C238.248 157.99 239.536 159.11 239.536 160.776C239.536 161.952 238.99 162.848 237.702 163.198V163.24C238.626 163.506 239.102 164.038 239.228 165.256C239.368 166.67 239.312 167.748 239.662 167.902V168H237.716C237.464 167.888 237.436 166.768 237.352 165.69C237.268 164.598 236.652 163.982 235.392 163.982H233.754V168H231.724ZM233.754 159.628V162.414H235.91C237.016 162.414 237.562 161.84 237.562 161.042C237.562 160.23 237.044 159.628 235.966 159.628H233.754ZM241.684 168V157.99H249.048V159.698H243.714V161.938H248.39V163.604H243.714V166.306H249.09V168H241.684ZM251.191 168V157.99H255.783C257.715 157.99 259.003 159.11 259.003 160.776C259.003 161.952 258.457 162.848 257.169 163.198V163.24C258.093 163.506 258.569 164.038 258.695 165.256C258.835 166.67 258.779 167.748 259.129 167.902V168H257.183C256.931 167.888 256.903 166.768 256.819 165.69C256.735 164.598 256.119 163.982 254.859 163.982H253.221V168H251.191ZM253.221 159.628V162.414H255.377C256.483 162.414 257.029 161.84 257.029 161.042C257.029 160.23 256.511 159.628 255.433 159.628H253.221ZM265.547 168.224C262.593 168.224 260.717 166.012 260.717 163.016C260.717 160.02 262.593 157.794 265.547 157.794C268.501 157.794 270.363 160.02 270.363 163.016C270.363 166.012 268.501 168.224 265.547 168.224ZM265.561 166.558C267.395 166.558 268.291 165.004 268.291 163.016C268.291 161.014 267.395 159.46 265.561 159.46C263.727 159.46 262.789 161.014 262.789 163.016C262.789 165.004 263.727 166.558 265.561 166.558Z" fill="#F3EEE1"/>
<path d="M79.218 323.252C75.6 323.252 73.872 321.236 73.728 318.644H75.312C75.528 320.822 76.86 321.956 79.29 321.956C81.072 321.956 82.35 321.146 82.35 319.544C82.35 317.78 80.802 317.366 78.498 316.862C76.23 316.358 74.286 315.71 74.286 313.28C74.286 311.156 76.05 309.878 78.66 309.878C81.882 309.878 83.214 311.516 83.538 313.892H82.008C81.774 312.056 80.586 311.138 78.696 311.138C76.95 311.138 75.798 311.876 75.798 313.208C75.798 314.666 77.238 315.098 79.164 315.476C81.666 315.98 83.952 316.592 83.952 319.49C83.952 321.902 81.99 323.252 79.218 323.252ZM89.5676 323.252C86.7956 323.252 85.0676 321.056 85.0676 318.356C85.0676 315.656 86.7956 313.46 89.5676 313.46C92.3576 313.46 94.0496 315.656 94.0496 318.356C94.0496 321.056 92.3576 323.252 89.5676 323.252ZM89.5676 322.028C91.5476 322.028 92.5556 320.408 92.5556 318.356C92.5556 316.304 91.5476 314.666 89.5676 314.666C87.5876 314.666 86.5616 316.304 86.5616 318.356C86.5616 320.408 87.5876 322.028 89.5676 322.028ZM95.5037 323V313.694H96.9617V315.026H96.9977C97.5737 314.126 98.5637 313.478 99.7337 313.478C100.868 313.478 101.768 314.054 102.164 315.134H102.2C102.794 314.072 103.91 313.478 105.044 313.478C106.7 313.478 107.87 314.54 107.87 316.466V323H106.412V316.538C106.412 315.386 105.638 314.702 104.702 314.702C103.496 314.702 102.416 315.746 102.416 317.204V323H100.958V316.538C100.958 315.386 100.31 314.702 99.3557 314.702C98.2217 314.702 96.9617 315.746 96.9617 317.204V323H95.5037ZM114.223 323.27C112.963 323.27 112.045 322.82 111.289 321.776H111.253V323H109.795V310.13H111.253V315.026H111.289C111.991 314.072 112.927 313.478 114.277 313.478C116.635 313.478 118.237 315.278 118.237 318.374C118.237 321.362 116.743 323.27 114.223 323.27ZM114.115 322.046C115.897 322.046 116.743 320.498 116.743 318.392C116.743 316.304 115.897 314.72 114.133 314.72C112.099 314.72 111.163 316.376 111.163 318.392C111.163 320.48 112.135 322.046 114.115 322.046ZM121.149 313.694V315.242H121.185C121.743 314.342 122.715 313.586 123.957 313.586C124.227 313.586 124.371 313.622 124.551 313.694V315.098H124.497C124.281 315.026 124.137 315.008 123.849 315.008C122.409 315.008 121.149 316.088 121.149 317.834V323H119.691V313.694H121.149ZM129.488 323.252C126.644 323.252 124.988 321.056 124.988 318.356C124.988 315.656 126.752 313.46 129.398 313.46C132.188 313.46 133.682 315.62 133.682 318.698H126.482C126.59 320.588 127.616 322.028 129.488 322.028C130.838 322.028 131.738 321.38 132.062 320.12H133.484C133.052 322.118 131.594 323.252 129.488 323.252ZM129.398 314.612C127.67 314.612 126.734 315.908 126.518 317.6H132.116C132.026 315.746 131.072 314.612 129.398 314.612ZM136.565 313.694V315.242H136.601C137.159 314.342 138.131 313.586 139.373 313.586C139.643 313.586 139.787 313.622 139.967 313.694V315.098H139.913C139.697 315.026 139.553 315.008 139.265 315.008C137.825 315.008 136.565 316.088 136.565 317.834V323H135.107V313.694H136.565ZM144.904 323.252C142.132 323.252 140.404 321.056 140.404 318.356C140.404 315.656 142.132 313.46 144.904 313.46C147.694 313.46 149.386 315.656 149.386 318.356C149.386 321.056 147.694 323.252 144.904 323.252ZM144.904 322.028C146.884 322.028 147.892 320.408 147.892 318.356C147.892 316.304 146.884 314.666 144.904 314.666C142.924 314.666 141.898 316.304 141.898 318.356C141.898 320.408 142.924 322.028 144.904 322.028ZM157.305 323.27C154.767 323.27 153.183 321.362 153.183 318.374C153.183 315.278 154.965 313.478 157.269 313.478C158.583 313.478 159.591 314.126 160.185 315.008H160.221V310.13H161.679V323H160.221V321.866H160.185C159.483 322.766 158.619 323.27 157.305 323.27ZM157.359 322.046C159.429 322.046 160.311 320.498 160.311 318.392C160.311 316.232 159.267 314.72 157.341 314.72C155.577 314.72 154.677 316.304 154.677 318.392C154.677 320.498 155.577 322.046 157.359 322.046ZM167.632 323.252C164.788 323.252 163.132 321.056 163.132 318.356C163.132 315.656 164.896 313.46 167.542 313.46C170.332 313.46 171.826 315.62 171.826 318.698H164.626C164.734 320.588 165.76 322.028 167.632 322.028C168.982 322.028 169.882 321.38 170.206 320.12H171.628C171.196 322.118 169.738 323.252 167.632 323.252ZM167.542 314.612C165.814 314.612 164.878 315.908 164.662 317.6H170.26C170.17 315.746 169.216 314.612 167.542 314.612ZM177.575 313.694V315.242H177.611C178.169 314.342 179.141 313.586 180.383 313.586C180.653 313.586 180.797 313.622 180.977 313.694V315.098H180.923C180.707 315.026 180.563 315.008 180.275 315.008C178.835 315.008 177.575 316.088 177.575 317.834V323H176.117V313.694H177.575ZM189.243 323.09C188.289 323.09 187.785 322.658 187.641 321.704H187.623C187.065 322.424 186.111 323.18 184.527 323.18C182.763 323.18 181.377 322.352 181.377 320.588C181.377 318.392 183.105 317.942 185.427 317.582C186.741 317.384 187.659 317.258 187.659 316.25C187.659 315.206 186.903 314.612 185.571 314.612C184.059 314.612 183.303 315.26 183.249 316.664H181.845C181.899 314.864 183.087 313.514 185.553 313.514C187.533 313.514 188.991 314.252 188.991 316.466V320.894C188.991 321.65 189.171 322.064 189.981 321.884H190.035V322.946C189.855 323.018 189.621 323.09 189.243 323.09ZM184.851 322.064C186.795 322.064 187.677 320.642 187.677 319.562V317.978C187.191 318.284 186.345 318.518 185.553 318.662C184.095 318.932 182.925 319.184 182.925 320.552C182.925 321.794 183.897 322.064 184.851 322.064ZM190.429 314.882V313.694H191.707V312.2C191.707 310.598 192.625 310.022 194.173 310.022C194.479 310.022 194.713 310.04 194.911 310.058V311.3C194.659 311.282 194.587 311.282 194.443 311.282C193.507 311.282 193.165 311.516 193.165 312.272V313.694H194.893V314.882H193.165V323H191.707V314.882H190.429ZM196.135 323V313.694H197.593V323H196.135ZM196.135 311.93V310.13H197.593V311.93H196.135ZM206.874 323.09C205.92 323.09 205.416 322.658 205.272 321.704H205.254C204.696 322.424 203.742 323.18 202.158 323.18C200.394 323.18 199.008 322.352 199.008 320.588C199.008 318.392 200.736 317.942 203.058 317.582C204.372 317.384 205.29 317.258 205.29 316.25C205.29 315.206 204.534 314.612 203.202 314.612C201.69 314.612 200.934 315.26 200.88 316.664H199.476C199.53 314.864 200.718 313.514 203.184 313.514C205.164 313.514 206.622 314.252 206.622 316.466V320.894C206.622 321.65 206.802 322.064 207.612 321.884H207.666V322.946C207.486 323.018 207.252 323.09 206.874 323.09ZM202.482 322.064C204.426 322.064 205.308 320.642 205.308 319.562V317.978C204.822 318.284 203.976 318.518 203.184 318.662C201.726 318.932 200.556 319.184 200.556 320.552C200.556 321.794 201.528 322.064 202.482 322.064ZM215.585 323.252C212.813 323.252 211.085 321.056 211.085 318.356C211.085 315.656 212.813 313.46 215.585 313.46C217.781 313.46 219.239 314.72 219.563 316.7H218.087C217.871 315.44 216.989 314.666 215.585 314.666C213.605 314.666 212.579 316.304 212.579 318.356C212.579 320.408 213.605 322.028 215.585 322.028C217.097 322.028 217.997 321.164 218.123 319.724H219.563C219.365 321.956 217.907 323.252 215.585 323.252ZM224.919 323.252C222.147 323.252 220.419 321.056 220.419 318.356C220.419 315.656 222.147 313.46 224.919 313.46C227.709 313.46 229.401 315.656 229.401 318.356C229.401 321.056 227.709 323.252 224.919 323.252ZM224.919 322.028C226.899 322.028 227.907 320.408 227.907 318.356C227.907 316.304 226.899 314.666 224.919 314.666C222.939 314.666 221.913 316.304 221.913 318.356C221.913 320.408 222.939 322.028 224.919 322.028ZM232.313 313.694V314.918H232.349C233.015 314.036 233.951 313.478 235.301 313.478C237.245 313.478 238.433 314.54 238.433 316.466V323H236.975V316.592C236.975 315.386 236.183 314.702 234.869 314.702C233.393 314.702 232.313 315.746 232.313 317.276V323H230.855V313.694H232.313ZM250.538 323.09C249.584 323.09 249.08 322.658 248.936 321.704H248.918C248.36 322.424 247.406 323.18 245.822 323.18C244.058 323.18 242.672 322.352 242.672 320.588C242.672 318.392 244.4 317.942 246.722 317.582C248.036 317.384 248.954 317.258 248.954 316.25C248.954 315.206 248.198 314.612 246.866 314.612C245.354 314.612 244.598 315.26 244.544 316.664H243.14C243.194 314.864 244.382 313.514 246.848 313.514C248.828 313.514 250.286 314.252 250.286 316.466V320.894C250.286 321.65 250.466 322.064 251.276 321.884H251.33V322.946C251.15 323.018 250.916 323.09 250.538 323.09ZM246.146 322.064C248.09 322.064 248.972 320.642 248.972 319.562V317.978C248.486 318.284 247.64 318.518 246.848 318.662C245.39 318.932 244.22 319.184 244.22 320.552C244.22 321.794 245.192 322.064 246.146 322.064ZM252.46 323V310.13H253.918V323H252.46ZM263.265 323.09C262.311 323.09 261.807 322.658 261.663 321.704H261.645C261.087 322.424 260.133 323.18 258.549 323.18C256.785 323.18 255.399 322.352 255.399 320.588C255.399 318.392 257.127 317.942 259.449 317.582C260.763 317.384 261.681 317.258 261.681 316.25C261.681 315.206 260.925 314.612 259.593 314.612C258.081 314.612 257.325 315.26 257.271 316.664H255.867C255.921 314.864 257.109 313.514 259.575 313.514C261.555 313.514 263.013 314.252 263.013 316.466V320.894C263.013 321.65 263.193 322.064 264.003 321.884H264.057V322.946C263.877 323.018 263.643 323.09 263.265 323.09ZM258.873 322.064C260.817 322.064 261.699 320.642 261.699 319.562V317.978C261.213 318.284 260.367 318.518 259.575 318.662C258.117 318.932 256.947 319.184 256.947 320.552C256.947 321.794 257.919 322.064 258.873 322.064ZM269.456 313.694V315.242H269.492C270.05 314.342 271.022 313.586 272.264 313.586C272.534 313.586 272.678 313.622 272.858 313.694V315.098H272.804C272.588 315.026 272.444 315.008 272.156 315.008C270.716 315.008 269.456 316.088 269.456 317.834V323H267.998V313.694H269.456ZM277.794 323.252C274.95 323.252 273.294 321.056 273.294 318.356C273.294 315.656 275.058 313.46 277.704 313.46C280.494 313.46 281.988 315.62 281.988 318.698H274.788C274.896 320.588 275.922 322.028 277.794 322.028C279.144 322.028 280.044 321.38 280.368 320.12H281.79C281.358 322.118 279.9 323.252 277.794 323.252ZM277.704 314.612C275.976 314.612 275.04 315.908 274.824 317.6H280.422C280.332 315.746 279.378 314.612 277.704 314.612ZM287.014 323.27C284.476 323.27 282.892 321.362 282.892 318.374C282.892 315.278 284.674 313.478 286.978 313.478C288.292 313.478 289.3 314.126 289.894 315.008H289.93V310.13H291.388V323H289.93V321.866H289.894C289.192 322.766 288.328 323.27 287.014 323.27ZM287.068 322.046C289.138 322.046 290.02 320.498 290.02 318.392C290.02 316.232 288.976 314.72 287.05 314.72C285.286 314.72 284.386 316.304 284.386 318.392C284.386 320.498 285.286 322.046 287.068 322.046ZM297.341 323.252C294.569 323.252 292.841 321.056 292.841 318.356C292.841 315.656 294.569 313.46 297.341 313.46C300.131 313.46 301.823 315.656 301.823 318.356C301.823 321.056 300.131 323.252 297.341 323.252ZM297.341 322.028C299.321 322.028 300.329 320.408 300.329 318.356C300.329 316.304 299.321 314.666 297.341 314.666C295.361 314.666 294.335 316.304 294.335 318.356C294.335 320.408 295.361 322.028 297.341 322.028ZM304.735 313.694V314.918H304.771C305.437 314.036 306.373 313.478 307.723 313.478C309.667 313.478 310.855 314.54 310.855 316.466V323H309.397V316.592C309.397 315.386 308.605 314.702 307.291 314.702C305.815 314.702 304.735 315.746 304.735 317.276V323H303.277V313.694H304.735ZM316.387 323.27C313.849 323.27 312.265 321.362 312.265 318.374C312.265 315.278 314.047 313.478 316.351 313.478C317.665 313.478 318.673 314.126 319.267 315.008H319.303V310.13H320.761V323H319.303V321.866H319.267C318.565 322.766 317.701 323.27 316.387 323.27ZM316.441 322.046C318.511 322.046 319.393 320.498 319.393 318.392C319.393 316.232 318.349 314.72 316.423 314.72C314.659 314.72 313.759 316.304 313.759 318.392C313.759 320.498 314.659 322.046 316.441 322.046ZM330.044 323.09C329.09 323.09 328.586 322.658 328.442 321.704H328.424C327.866 322.424 326.912 323.18 325.328 323.18C323.564 323.18 322.178 322.352 322.178 320.588C322.178 318.392 323.906 317.942 326.228 317.582C327.542 317.384 328.46 317.258 328.46 316.25C328.46 315.206 327.704 314.612 326.372 314.612C324.86 314.612 324.104 315.26 324.05 316.664H322.646C322.7 314.864 323.888 313.514 326.354 313.514C328.334 313.514 329.792 314.252 329.792 316.466V320.894C329.792 321.65 329.972 322.064 330.782 321.884H330.836V322.946C330.656 323.018 330.422 323.09 330.044 323.09ZM325.652 322.064C327.596 322.064 328.478 320.642 328.478 319.562V317.978C327.992 318.284 327.146 318.518 326.354 318.662C324.896 318.932 323.726 319.184 323.726 320.552C323.726 321.794 324.698 322.064 325.652 322.064ZM341.275 325.988V321.866H341.239C340.537 322.766 339.691 323.27 338.359 323.27C335.839 323.27 334.309 321.362 334.309 318.374C334.309 315.278 336.037 313.478 338.305 313.478C339.655 313.478 340.591 314.018 341.239 314.936H341.275V313.694H342.733V325.988H341.275ZM338.431 322.046C340.573 322.046 341.365 320.498 341.365 318.392C341.365 316.232 340.447 314.72 338.413 314.72C336.649 314.72 335.803 316.304 335.803 318.392C335.803 320.498 336.649 322.046 338.431 322.046ZM352.089 323H350.631V321.722H350.595C349.929 322.622 349.137 323.216 347.787 323.216C345.879 323.216 344.655 322.064 344.655 320.138V313.694H346.113V320.102C346.113 321.308 346.887 322.01 348.201 322.01C349.677 322.01 350.631 320.894 350.631 319.418V313.694H352.089V323ZM358.038 323.252C355.194 323.252 353.538 321.056 353.538 318.356C353.538 315.656 355.302 313.46 357.948 313.46C360.738 313.46 362.232 315.62 362.232 318.698H355.032C355.14 320.588 356.166 322.028 358.038 322.028C359.388 322.028 360.288 321.38 360.612 320.12H362.034C361.602 322.118 360.144 323.252 358.038 323.252ZM357.948 314.612C356.22 314.612 355.284 315.908 355.068 317.6H360.666C360.576 315.746 359.622 314.612 357.948 314.612ZM55.1672 344.252C52.3232 344.252 50.6672 342.056 50.6672 339.356C50.6672 336.656 52.4312 334.46 55.0772 334.46C57.8672 334.46 59.3612 336.62 59.3612 339.698H52.1612C52.2692 341.588 53.2952 343.028 55.1672 343.028C56.5172 343.028 57.4172 342.38 57.7412 341.12H59.1632C58.7312 343.118 57.2732 344.252 55.1672 344.252ZM55.0772 335.612C53.3492 335.612 52.4132 336.908 52.1972 338.6H57.7952C57.7052 336.746 56.7512 335.612 55.0772 335.612ZM62.2449 334.694V335.918H62.2809C62.9469 335.036 63.8829 334.478 65.2329 334.478C67.1769 334.478 68.3649 335.54 68.3649 337.466V344H66.9069V337.592C66.9069 336.386 66.1149 335.702 64.8009 335.702C63.3249 335.702 62.2449 336.746 62.2449 338.276V344H60.7869V334.694H62.2449ZM70.2966 344V334.694H71.7546V336.026H71.7906C72.3666 335.126 73.3566 334.478 74.5266 334.478C75.6606 334.478 76.5606 335.054 76.9566 336.134H76.9926C77.5866 335.072 78.7026 334.478 79.8366 334.478C81.4926 334.478 82.6626 335.54 82.6626 337.466V344H81.2046V337.538C81.2046 336.386 80.4306 335.702 79.4946 335.702C78.2886 335.702 77.2086 336.746 77.2086 338.204V344H75.7506V337.538C75.7506 336.386 75.1026 335.702 74.1486 335.702C73.0146 335.702 71.7546 336.746 71.7546 338.204V344H70.2966ZM91.8957 344.09C90.9417 344.09 90.4377 343.658 90.2937 342.704H90.2757C89.7177 343.424 88.7637 344.18 87.1797 344.18C85.4157 344.18 84.0297 343.352 84.0297 341.588C84.0297 339.392 85.7577 338.942 88.0797 338.582C89.3937 338.384 90.3117 338.258 90.3117 337.25C90.3117 336.206 89.5557 335.612 88.2237 335.612C86.7117 335.612 85.9557 336.26 85.9017 337.664H84.4977C84.5517 335.864 85.7397 334.514 88.2057 334.514C90.1857 334.514 91.6437 335.252 91.6437 337.466V341.894C91.6437 342.65 91.8237 343.064 92.6337 342.884H92.6877V343.946C92.5077 344.018 92.2737 344.09 91.8957 344.09ZM87.5037 343.064C89.4477 343.064 90.3297 341.642 90.3297 340.562V338.978C89.8437 339.284 88.9977 339.518 88.2057 339.662C86.7477 339.932 85.5777 340.184 85.5777 341.552C85.5777 342.794 86.5497 343.064 87.5037 343.064ZM95.2214 334.694V336.242H95.2574C95.8154 335.342 96.7874 334.586 98.0294 334.586C98.2994 334.586 98.4434 334.622 98.6234 334.694V336.098H98.5694C98.3534 336.026 98.2094 336.008 97.9214 336.008C96.4814 336.008 95.2214 337.088 95.2214 338.834V344H93.7634V334.694H95.2214ZM103.56 344.252C100.788 344.252 99.0598 342.056 99.0598 339.356C99.0598 336.656 100.788 334.46 103.56 334.46C105.756 334.46 107.214 335.72 107.538 337.7H106.062C105.846 336.44 104.964 335.666 103.56 335.666C101.58 335.666 100.554 337.304 100.554 339.356C100.554 341.408 101.58 343.028 103.56 343.028C105.072 343.028 105.972 342.164 106.098 340.724H107.538C107.34 342.956 105.882 344.252 103.56 344.252ZM116.4 344.09C115.446 344.09 114.942 343.658 114.798 342.704H114.78C114.222 343.424 113.268 344.18 111.684 344.18C109.92 344.18 108.534 343.352 108.534 341.588C108.534 339.392 110.262 338.942 112.584 338.582C113.898 338.384 114.816 338.258 114.816 337.25C114.816 336.206 114.06 335.612 112.728 335.612C111.216 335.612 110.46 336.26 110.406 337.664H109.002C109.056 335.864 110.244 334.514 112.71 334.514C114.69 334.514 116.148 335.252 116.148 337.466V341.894C116.148 342.65 116.328 343.064 117.138 342.884H117.192V343.946C117.012 344.018 116.778 344.09 116.4 344.09ZM112.008 343.064C113.952 343.064 114.834 341.642 114.834 340.562V338.978C114.348 339.284 113.502 339.518 112.71 339.662C111.252 339.932 110.082 340.184 110.082 341.552C110.082 342.794 111.054 343.064 112.008 343.064ZM122.695 344.27C121.435 344.27 120.517 343.82 119.761 342.776H119.725V344H118.267V331.13H119.725V336.026H119.761C120.463 335.072 121.399 334.478 122.749 334.478C125.107 334.478 126.709 336.278 126.709 339.374C126.709 342.362 125.215 344.27 122.695 344.27ZM122.587 343.046C124.369 343.046 125.215 341.498 125.215 339.392C125.215 337.304 124.369 335.72 122.605 335.72C120.571 335.72 119.635 337.376 119.635 339.392C119.635 341.48 120.607 343.046 122.587 343.046ZM135.472 344.09C134.518 344.09 134.014 343.658 133.87 342.704H133.852C133.294 343.424 132.34 344.18 130.756 344.18C128.992 344.18 127.606 343.352 127.606 341.588C127.606 339.392 129.334 338.942 131.656 338.582C132.97 338.384 133.888 338.258 133.888 337.25C133.888 336.206 133.132 335.612 131.8 335.612C130.288 335.612 129.532 336.26 129.478 337.664H128.074C128.128 335.864 129.316 334.514 131.782 334.514C133.762 334.514 135.22 335.252 135.22 337.466V341.894C135.22 342.65 135.4 343.064 136.21 342.884H136.264V343.946C136.084 344.018 135.85 344.09 135.472 344.09ZM131.08 343.064C133.024 343.064 133.906 341.642 133.906 340.562V338.978C133.42 339.284 132.574 339.518 131.782 339.662C130.324 339.932 129.154 340.184 129.154 341.552C129.154 342.794 130.126 343.064 131.08 343.064ZM140.259 344V331.13H141.717V344H140.259ZM151.064 344.09C150.11 344.09 149.606 343.658 149.462 342.704H149.444C148.886 343.424 147.932 344.18 146.348 344.18C144.584 344.18 143.198 343.352 143.198 341.588C143.198 339.392 144.926 338.942 147.248 338.582C148.562 338.384 149.48 338.258 149.48 337.25C149.48 336.206 148.724 335.612 147.392 335.612C145.88 335.612 145.124 336.26 145.07 337.664H143.666C143.72 335.864 144.908 334.514 147.374 334.514C149.354 334.514 150.812 335.252 150.812 337.466V341.894C150.812 342.65 150.992 343.064 151.802 342.884H151.856V343.946C151.676 344.018 151.442 344.09 151.064 344.09ZM146.672 343.064C148.616 343.064 149.498 341.642 149.498 340.562V338.978C149.012 339.284 148.166 339.518 147.374 339.662C145.916 339.932 144.746 340.184 144.746 341.552C144.746 342.794 145.718 343.064 146.672 343.064ZM159.775 344.252C157.003 344.252 155.275 342.056 155.275 339.356C155.275 336.656 157.003 334.46 159.775 334.46C161.971 334.46 163.429 335.72 163.753 337.7H162.277C162.061 336.44 161.179 335.666 159.775 335.666C157.795 335.666 156.769 337.304 156.769 339.356C156.769 341.408 157.795 343.028 159.775 343.028C161.287 343.028 162.187 342.164 162.313 340.724H163.753C163.555 342.956 162.097 344.252 159.775 344.252ZM172.614 344.09C171.66 344.09 171.156 343.658 171.012 342.704H170.994C170.436 343.424 169.482 344.18 167.898 344.18C166.134 344.18 164.748 343.352 164.748 341.588C164.748 339.392 166.476 338.942 168.798 338.582C170.112 338.384 171.03 338.258 171.03 337.25C171.03 336.206 170.274 335.612 168.942 335.612C167.43 335.612 166.674 336.26 166.62 337.664H165.216C165.27 335.864 166.458 334.514 168.924 334.514C170.904 334.514 172.362 335.252 172.362 337.466V341.894C172.362 342.65 172.542 343.064 173.352 342.884H173.406V343.946C173.226 344.018 172.992 344.09 172.614 344.09ZM168.222 343.064C170.166 343.064 171.048 341.642 171.048 340.562V338.978C170.562 339.284 169.716 339.518 168.924 339.662C167.466 339.932 166.296 340.184 166.296 341.552C166.296 342.794 167.268 343.064 168.222 343.064ZM178.91 344.27C177.65 344.27 176.732 343.82 175.976 342.776H175.94V344H174.482V331.13H175.94V336.026H175.976C176.678 335.072 177.614 334.478 178.964 334.478C181.322 334.478 182.924 336.278 182.924 339.374C182.924 342.362 181.43 344.27 178.91 344.27ZM178.802 343.046C180.584 343.046 181.43 341.498 181.43 339.392C181.43 337.304 180.584 335.72 178.82 335.72C176.786 335.72 175.85 337.376 175.85 339.392C175.85 341.48 176.822 343.046 178.802 343.046ZM188.357 344.252C185.513 344.252 183.857 342.056 183.857 339.356C183.857 336.656 185.621 334.46 188.267 334.46C191.057 334.46 192.551 336.62 192.551 339.698H185.351C185.459 341.588 186.485 343.028 188.357 343.028C189.707 343.028 190.607 342.38 190.931 341.12H192.353C191.921 343.118 190.463 344.252 188.357 344.252ZM188.267 335.612C186.539 335.612 185.603 336.908 185.387 338.6H190.985C190.895 336.746 189.941 335.612 188.267 335.612ZM193.247 344V342.848L198.431 336.026V335.972H193.553V334.694H200.465V335.558L195.119 342.614V342.668H200.663V344H193.247ZM209.405 344.09C208.451 344.09 207.947 343.658 207.803 342.704H207.785C207.227 343.424 206.273 344.18 204.689 344.18C202.925 344.18 201.539 343.352 201.539 341.588C201.539 339.392 203.267 338.942 205.589 338.582C206.903 338.384 207.821 338.258 207.821 337.25C207.821 336.206 207.065 335.612 205.733 335.612C204.221 335.612 203.465 336.26 203.411 337.664H202.007C202.061 335.864 203.249 334.514 205.715 334.514C207.695 334.514 209.153 335.252 209.153 337.466V341.894C209.153 342.65 209.333 343.064 210.143 342.884H210.197V343.946C210.017 344.018 209.783 344.09 209.405 344.09ZM205.013 343.064C206.957 343.064 207.839 341.642 207.839 340.562V338.978C207.353 339.284 206.507 339.518 205.715 339.662C204.257 339.932 203.087 340.184 203.087 341.552C203.087 342.794 204.059 343.064 205.013 343.064ZM215.326 347.078C214.768 347.078 214.408 347.042 214.012 346.88V345.584H214.084C214.282 345.692 214.588 345.782 215.074 345.782C215.686 345.782 216.1 345.548 216.46 344.648L216.82 343.73L213.184 334.694H214.768L216.964 340.49C217.252 341.264 217.594 342.308 217.594 342.308H217.63C217.63 342.308 217.954 341.264 218.242 340.49L220.366 334.694H221.914L217.936 344.756C217.18 346.682 216.46 347.078 215.326 347.078ZM229.41 344.27C226.872 344.27 225.288 342.362 225.288 339.374C225.288 336.278 227.07 334.478 229.374 334.478C230.688 334.478 231.696 335.126 232.29 336.008H232.326V331.13H233.784V344H232.326V342.866H232.29C231.588 343.766 230.724 344.27 229.41 344.27ZM229.464 343.046C231.534 343.046 232.416 341.498 232.416 339.392C232.416 337.232 231.372 335.72 229.446 335.72C227.682 335.72 226.782 337.304 226.782 339.392C226.782 341.498 227.682 343.046 229.464 343.046ZM239.738 344.252C236.894 344.252 235.238 342.056 235.238 339.356C235.238 336.656 237.002 334.46 239.648 334.46C242.438 334.46 243.932 336.62 243.932 339.698H236.732C236.84 341.588 237.866 343.028 239.738 343.028C241.088 343.028 241.988 342.38 242.312 341.12H243.734C243.302 343.118 241.844 344.252 239.738 344.252ZM239.648 335.612C237.92 335.612 236.984 336.908 236.768 338.6H242.366C242.276 336.746 241.322 335.612 239.648 335.612ZM247.485 344L244.227 334.694H245.793L247.719 340.598C247.989 341.426 248.331 342.56 248.331 342.56H248.367C248.367 342.56 248.709 341.408 248.979 340.598L250.941 334.694H252.453L249.105 344H247.485ZM257.281 344.252C254.509 344.252 252.781 342.056 252.781 339.356C252.781 336.656 254.509 334.46 257.281 334.46C260.071 334.46 261.763 336.656 261.763 339.356C261.763 342.056 260.071 344.252 257.281 344.252ZM257.281 343.028C259.261 343.028 260.269 341.408 260.269 339.356C260.269 337.304 259.261 335.666 257.281 335.666C255.301 335.666 254.275 337.304 254.275 339.356C254.275 341.408 255.301 343.028 257.281 343.028ZM263.271 344V331.13H264.729V344H263.271ZM269.071 344L265.813 334.694H267.379L269.305 340.598C269.575 341.426 269.917 342.56 269.917 342.56H269.953C269.953 342.56 270.295 341.408 270.565 340.598L272.527 334.694H274.039L270.691 344H269.071ZM275.208 333.236L276.036 330.95H277.818L276.432 333.236H275.208ZM275.064 344V334.694H276.522V344H275.064ZM285.818 344.09C284.864 344.09 284.36 343.658 284.216 342.704H284.198C283.64 343.424 282.686 344.18 281.102 344.18C279.338 344.18 277.952 343.352 277.952 341.588C277.952 339.392 279.68 338.942 282.002 338.582C283.316 338.384 284.234 338.258 284.234 337.25C284.234 336.206 283.478 335.612 282.146 335.612C280.634 335.612 279.878 336.26 279.824 337.664H278.42C278.474 335.864 279.662 334.514 282.128 334.514C284.108 334.514 285.566 335.252 285.566 337.466V341.894C285.566 342.65 285.746 343.064 286.556 342.884H286.61V343.946C286.43 344.018 286.196 344.09 285.818 344.09ZM281.426 343.064C283.37 343.064 284.252 341.642 284.252 340.562V338.978C283.766 339.284 282.92 339.518 282.128 339.662C280.67 339.932 279.5 340.184 279.5 341.552C279.5 342.794 280.472 343.064 281.426 343.064ZM290.605 344V331.13H292.063V344H290.605ZM301.409 344.09C300.455 344.09 299.951 343.658 299.807 342.704H299.789C299.231 343.424 298.277 344.18 296.693 344.18C294.929 344.18 293.543 343.352 293.543 341.588C293.543 339.392 295.271 338.942 297.593 338.582C298.907 338.384 299.825 338.258 299.825 337.25C299.825 336.206 299.069 335.612 297.737 335.612C296.225 335.612 295.469 336.26 295.415 337.664H294.011C294.065 335.864 295.253 334.514 297.719 334.514C299.699 334.514 301.157 335.252 301.157 337.466V341.894C301.157 342.65 301.337 343.064 302.147 342.884H302.201V343.946C302.021 344.018 301.787 344.09 301.409 344.09ZM297.017 343.064C298.961 343.064 299.843 341.642 299.843 340.562V338.978C299.357 339.284 298.511 339.518 297.719 339.662C296.261 339.932 295.091 340.184 295.091 341.552C295.091 342.794 296.063 343.064 297.017 343.064ZM305.548 335.882V334.694H306.826V333.2C306.826 331.598 307.744 331.022 309.292 331.022C309.598 331.022 309.832 331.04 310.03 331.058V332.3C309.778 332.282 309.706 332.282 309.562 332.282C308.626 332.282 308.284 332.516 308.284 333.272V334.694H310.012V335.882H308.284V344H306.826V335.882H305.548ZM315.148 344.252C312.376 344.252 310.648 342.056 310.648 339.356C310.648 336.656 312.376 334.46 315.148 334.46C317.938 334.46 319.63 336.656 319.63 339.356C319.63 342.056 317.938 344.252 315.148 344.252ZM315.148 343.028C317.128 343.028 318.136 341.408 318.136 339.356C318.136 337.304 317.128 335.666 315.148 335.666C313.168 335.666 312.142 337.304 312.142 339.356C312.142 341.408 313.168 343.028 315.148 343.028ZM322.542 334.694V336.242H322.578C323.136 335.342 324.108 334.586 325.35 334.586C325.62 334.586 325.764 334.622 325.944 334.694V336.098H325.89C325.674 336.026 325.53 336.008 325.242 336.008C323.802 336.008 322.542 337.088 322.542 338.834V344H321.084V334.694H322.542ZM327.254 344V334.694H328.712V336.026H328.748C329.324 335.126 330.314 334.478 331.484 334.478C332.618 334.478 333.518 335.054 333.914 336.134H333.95C334.544 335.072 335.66 334.478 336.794 334.478C338.45 334.478 339.62 335.54 339.62 337.466V344H338.162V337.538C338.162 336.386 337.388 335.702 336.452 335.702C335.246 335.702 334.166 336.746 334.166 338.204V344H332.708V337.538C332.708 336.386 332.06 335.702 331.106 335.702C329.972 335.702 328.712 336.746 328.712 338.204V344H327.254ZM348.853 344.09C347.899 344.09 347.395 343.658 347.251 342.704H347.233C346.675 343.424 345.721 344.18 344.137 344.18C342.373 344.18 340.987 343.352 340.987 341.588C340.987 339.392 342.715 338.942 345.037 338.582C346.351 338.384 347.269 338.258 347.269 337.25C347.269 336.206 346.513 335.612 345.181 335.612C343.669 335.612 342.913 336.26 342.859 337.664H341.455C341.509 335.864 342.697 334.514 345.163 334.514C347.143 334.514 348.601 335.252 348.601 337.466V341.894C348.601 342.65 348.781 343.064 349.591 342.884H349.645V343.946C349.465 344.018 349.231 344.09 348.853 344.09ZM344.461 343.064C346.405 343.064 347.287 341.642 347.287 340.562V338.978C346.801 339.284 345.955 339.518 345.163 339.662C343.705 339.932 342.535 340.184 342.535 341.552C342.535 342.794 343.507 343.064 344.461 343.064ZM350.774 344V331.13H352.232V344H350.774ZM354.271 344V334.694H355.729V344H354.271ZM354.271 332.93V331.13H355.729V332.93H354.271ZM361.317 344.27C358.779 344.27 357.195 342.362 357.195 339.374C357.195 336.278 358.977 334.478 361.281 334.478C362.595 334.478 363.603 335.126 364.197 336.008H364.233V331.13H365.691V344H364.233V342.866H364.197C363.495 343.766 362.631 344.27 361.317 344.27ZM361.371 343.046C363.441 343.046 364.323 341.498 364.323 339.392C364.323 337.232 363.279 335.72 361.353 335.72C359.589 335.72 358.689 337.304 358.689 339.392C358.689 341.498 359.589 343.046 361.371 343.046ZM374.974 344.09C374.02 344.09 373.516 343.658 373.372 342.704H373.354C372.796 343.424 371.842 344.18 370.258 344.18C368.494 344.18 367.108 343.352 367.108 341.588C367.108 339.392 368.836 338.942 371.158 338.582C372.472 338.384 373.39 338.258 373.39 337.25C373.39 336.206 372.634 335.612 371.302 335.612C369.79 335.612 369.034 336.26 368.98 337.664H367.576C367.63 335.864 368.818 334.514 371.284 334.514C373.264 334.514 374.722 335.252 374.722 337.466V341.894C374.722 342.65 374.902 343.064 375.712 342.884H375.766V343.946C375.586 344.018 375.352 344.09 374.974 344.09ZM370.582 343.064C372.526 343.064 373.408 341.642 373.408 340.562V338.978C372.922 339.284 372.076 339.518 371.284 339.662C369.826 339.932 368.656 340.184 368.656 341.552C368.656 342.794 369.628 343.064 370.582 343.064ZM380.442 344.27C377.904 344.27 376.32 342.362 376.32 339.374C376.32 336.278 378.102 334.478 380.406 334.478C381.72 334.478 382.728 335.126 383.322 336.008H383.358V331.13H384.816V344H383.358V342.866H383.322C382.62 343.766 381.756 344.27 380.442 344.27ZM380.496 343.046C382.566 343.046 383.448 341.498 383.448 339.392C383.448 337.232 382.404 335.72 380.478 335.72C378.714 335.72 377.814 337.304 377.814 339.392C377.814 341.498 378.714 343.046 380.496 343.046ZM116.72 367.988V355.694H118.178V357.008H118.214C118.916 356.054 119.852 355.478 121.202 355.478C123.56 355.478 125.198 357.278 125.198 360.374C125.198 363.362 123.668 365.27 121.148 365.27C119.888 365.27 118.988 364.892 118.214 363.902H118.178V367.988H116.72ZM121.04 364.046C122.822 364.046 123.704 362.498 123.704 360.392C123.704 358.304 122.822 356.72 121.058 356.72C119.024 356.72 118.088 358.376 118.088 360.392C118.088 362.408 118.898 364.046 121.04 364.046ZM128.11 355.694V357.242H128.146C128.704 356.342 129.676 355.586 130.918 355.586C131.188 355.586 131.332 355.622 131.512 355.694V357.098H131.458C131.242 357.026 131.098 357.008 130.81 357.008C129.37 357.008 128.11 358.088 128.11 359.834V365H126.652V355.694H128.11ZM136.448 365.252C133.676 365.252 131.948 363.056 131.948 360.356C131.948 357.656 133.676 355.46 136.448 355.46C139.238 355.46 140.93 357.656 140.93 360.356C140.93 363.056 139.238 365.252 136.448 365.252ZM136.448 364.028C138.428 364.028 139.436 362.408 139.436 360.356C139.436 358.304 138.428 356.666 136.448 356.666C134.468 356.666 133.442 358.304 133.442 360.356C133.442 362.408 134.468 364.028 136.448 364.028ZM143.843 352.13V356.918H143.879C144.545 356.036 145.481 355.478 146.831 355.478C148.775 355.478 149.963 356.54 149.963 358.466V365H148.505V358.592C148.505 357.386 147.713 356.702 146.399 356.702C144.923 356.702 143.843 357.746 143.843 359.276V365H142.385V352.13H143.843ZM151.894 365V355.694H153.352V365H151.894ZM151.894 353.93V352.13H153.352V353.93H151.894ZM159.768 365.27C158.508 365.27 157.59 364.82 156.834 363.776H156.798V365H155.34V352.13H156.798V357.026H156.834C157.536 356.072 158.472 355.478 159.822 355.478C162.18 355.478 163.782 357.278 163.782 360.374C163.782 363.362 162.288 365.27 159.768 365.27ZM159.66 364.046C161.442 364.046 162.288 362.498 162.288 360.392C162.288 358.304 161.442 356.72 159.678 356.72C157.644 356.72 156.708 358.376 156.708 360.392C156.708 362.48 157.68 364.046 159.66 364.046ZM165.236 365V355.694H166.694V365H165.236ZM165.236 353.93V352.13H166.694V353.93H165.236ZM172.281 365.27C169.743 365.27 168.159 363.362 168.159 360.374C168.159 357.278 169.941 355.478 172.245 355.478C173.559 355.478 174.567 356.126 175.161 357.008H175.197V352.13H176.655V365H175.197V363.866H175.161C174.459 364.766 173.595 365.27 172.281 365.27ZM172.335 364.046C174.405 364.046 175.287 362.498 175.287 360.392C175.287 358.232 174.243 356.72 172.317 356.72C170.553 356.72 169.653 358.304 169.653 360.392C169.653 362.498 170.553 364.046 172.335 364.046ZM185.939 365.09C184.985 365.09 184.481 364.658 184.337 363.704H184.319C183.761 364.424 182.807 365.18 181.223 365.18C179.459 365.18 178.073 364.352 178.073 362.588C178.073 360.392 179.801 359.942 182.123 359.582C183.437 359.384 184.355 359.258 184.355 358.25C184.355 357.206 183.599 356.612 182.267 356.612C180.755 356.612 179.999 357.26 179.945 358.664H178.541C178.595 356.864 179.783 355.514 182.249 355.514C184.229 355.514 185.687 356.252 185.687 358.466V362.894C185.687 363.65 185.867 364.064 186.677 363.884H186.731V364.946C186.551 365.018 186.317 365.09 185.939 365.09ZM181.547 364.064C183.491 364.064 184.373 362.642 184.373 361.562V359.978C183.887 360.284 183.041 360.518 182.249 360.662C180.791 360.932 179.621 361.184 179.621 362.552C179.621 363.794 180.593 364.064 181.547 364.064ZM194.272 365.27C191.734 365.27 190.15 363.362 190.15 360.374C190.15 357.278 191.932 355.478 194.236 355.478C195.55 355.478 196.558 356.126 197.152 357.008H197.188V352.13H198.646V365H197.188V363.866H197.152C196.45 364.766 195.586 365.27 194.272 365.27ZM194.326 364.046C196.396 364.046 197.278 362.498 197.278 360.392C197.278 358.232 196.234 356.72 194.308 356.72C192.544 356.72 191.644 358.304 191.644 360.392C191.644 362.498 192.544 364.046 194.326 364.046ZM208.001 365H206.543V363.722H206.507C205.841 364.622 205.049 365.216 203.699 365.216C201.791 365.216 200.567 364.064 200.567 362.138V355.694H202.025V362.102C202.025 363.308 202.799 364.01 204.113 364.01C205.589 364.01 206.543 362.894 206.543 361.418V355.694H208.001V365ZM211.43 355.694V357.242H211.466C212.024 356.342 212.996 355.586 214.238 355.586C214.508 355.586 214.652 355.622 214.832 355.694V357.098H214.778C214.562 357.026 214.418 357.008 214.13 357.008C212.69 357.008 211.43 358.088 211.43 359.834V365H209.972V355.694H211.43ZM223.099 365.09C222.145 365.09 221.641 364.658 221.497 363.704H221.479C220.921 364.424 219.967 365.18 218.383 365.18C216.619 365.18 215.233 364.352 215.233 362.588C215.233 360.392 216.961 359.942 219.283 359.582C220.597 359.384 221.515 359.258 221.515 358.25C221.515 357.206 220.759 356.612 219.427 356.612C217.915 356.612 217.159 357.26 217.105 358.664H215.701C215.755 356.864 216.943 355.514 219.409 355.514C221.389 355.514 222.847 356.252 222.847 358.466V362.894C222.847 363.65 223.027 364.064 223.837 363.884H223.891V364.946C223.711 365.018 223.477 365.09 223.099 365.09ZM218.707 364.064C220.651 364.064 221.533 362.642 221.533 361.562V359.978C221.047 360.284 220.201 360.518 219.409 360.662C217.951 360.932 216.781 361.184 216.781 362.552C216.781 363.794 217.753 364.064 218.707 364.064ZM226.425 355.694V356.918H226.461C227.127 356.036 228.063 355.478 229.413 355.478C231.357 355.478 232.545 356.54 232.545 358.466V365H231.087V358.592C231.087 357.386 230.295 356.702 228.981 356.702C227.505 356.702 226.425 357.746 226.425 359.276V365H224.967V355.694H226.425ZM233.707 356.882V355.694H235.057V352.76H236.515V355.694H238.315V356.882H236.515V362.93C236.515 363.578 236.857 363.794 237.451 363.794C237.739 363.794 238.063 363.722 238.225 363.668H238.279V364.928C237.937 365 237.541 365.054 237.109 365.054C235.921 365.054 235.057 364.568 235.057 363.254V356.882H233.707ZM243.71 365.252C240.866 365.252 239.21 363.056 239.21 360.356C239.21 357.656 240.974 355.46 243.62 355.46C246.41 355.46 247.904 357.62 247.904 360.698H240.704C240.812 362.588 241.838 364.028 243.71 364.028C245.06 364.028 245.96 363.38 246.284 362.12H247.706C247.274 364.118 245.816 365.252 243.71 365.252ZM243.62 356.612C241.892 356.612 240.956 357.908 240.74 359.6H246.338C246.248 357.746 245.294 356.612 243.62 356.612ZM252.249 365V352.13H253.707V365H252.249ZM263.054 365.09C262.1 365.09 261.596 364.658 261.452 363.704H261.434C260.876 364.424 259.922 365.18 258.338 365.18C256.574 365.18 255.188 364.352 255.188 362.588C255.188 360.392 256.916 359.942 259.238 359.582C260.552 359.384 261.47 359.258 261.47 358.25C261.47 357.206 260.714 356.612 259.382 356.612C257.87 356.612 257.114 357.26 257.06 358.664H255.656C255.71 356.864 256.898 355.514 259.364 355.514C261.344 355.514 262.802 356.252 262.802 358.466V362.894C262.802 363.65 262.982 364.064 263.792 363.884H263.846V364.946C263.666 365.018 263.432 365.09 263.054 365.09ZM258.662 364.064C260.606 364.064 261.488 362.642 261.488 361.562V359.978C261.002 360.284 260.156 360.518 259.364 360.662C257.906 360.932 256.736 361.184 256.736 362.552C256.736 363.794 257.708 364.064 258.662 364.064ZM271.495 368.096C269.083 368.096 267.715 367.124 267.553 365.522H268.903C269.047 366.548 270.019 366.944 271.459 366.944C273.169 366.944 274.123 366.17 274.123 364.55V363.236H274.087C273.403 364.118 272.665 364.676 271.333 364.676C268.921 364.676 267.265 362.75 267.265 360.068C267.265 357.17 269.083 355.478 271.243 355.478C272.593 355.478 273.457 356 274.087 356.882H274.123V355.694H275.581V364.496C275.581 366.944 273.961 368.096 271.495 368.096ZM271.405 363.452C273.547 363.452 274.231 361.958 274.231 359.996C274.231 357.962 273.367 356.702 271.387 356.702C269.641 356.702 268.759 358.07 268.759 360.086C268.759 362.12 269.677 363.452 271.405 363.452ZM284.94 365H283.482V363.722H283.446C282.78 364.622 281.988 365.216 280.638 365.216C278.73 365.216 277.506 364.064 277.506 362.138V355.694H278.964V362.102C278.964 363.308 279.738 364.01 281.052 364.01C282.528 364.01 283.482 362.894 283.482 361.418V355.694H284.94V365ZM290.89 365.252C288.046 365.252 286.39 363.056 286.39 360.356C286.39 357.656 288.154 355.46 290.8 355.46C293.59 355.46 295.084 357.62 295.084 360.698H287.884C287.992 362.588 289.018 364.028 290.89 364.028C292.24 364.028 293.14 363.38 293.464 362.12H294.886C294.454 364.118 292.996 365.252 290.89 365.252ZM290.8 356.612C289.072 356.612 288.136 357.908 287.92 359.6H293.518C293.428 357.746 292.474 356.612 290.8 356.612ZM297.968 355.694V357.242H298.004C298.562 356.342 299.534 355.586 300.776 355.586C301.046 355.586 301.19 355.622 301.37 355.694V357.098H301.316C301.1 357.026 300.956 357.008 300.668 357.008C299.228 357.008 297.968 358.088 297.968 359.834V365H296.51V355.694H297.968ZM304.137 355.694V357.242H304.173C304.731 356.342 305.703 355.586 306.945 355.586C307.215 355.586 307.359 355.622 307.539 355.694V357.098H307.485C307.269 357.026 307.125 357.008 306.837 357.008C305.397 357.008 304.137 358.088 304.137 359.834V365H302.679V355.694H304.137ZM315.806 365.09C314.852 365.09 314.348 364.658 314.204 363.704H314.186C313.628 364.424 312.674 365.18 311.09 365.18C309.326 365.18 307.94 364.352 307.94 362.588C307.94 360.392 309.668 359.942 311.99 359.582C313.304 359.384 314.222 359.258 314.222 358.25C314.222 357.206 313.466 356.612 312.134 356.612C310.622 356.612 309.866 357.26 309.812 358.664H308.408C308.462 356.864 309.65 355.514 312.116 355.514C314.096 355.514 315.554 356.252 315.554 358.466V362.894C315.554 363.65 315.734 364.064 316.544 363.884H316.598V364.946C316.418 365.018 316.184 365.09 315.806 365.09ZM311.414 364.064C313.358 364.064 314.24 362.642 314.24 361.562V359.978C313.754 360.284 312.908 360.518 312.116 360.662C310.658 360.932 309.488 361.184 309.488 362.552C309.488 363.794 310.46 364.064 311.414 364.064ZM317.739 365V363.218H319.485V365H317.739Z" fill="#F3EEE1"/>
<path d="M119.472 206.896L124.592 245.808C125.36 251.312 126.064 253.36 128.752 253.616L128.688 254H116.4L116.464 253.616C120.112 253.36 121.712 251.632 121.136 247.152L119.792 237.04H103.6L100.592 242.544C96.432 250.096 94.832 253.36 99.76 253.616L99.696 254H89.392L89.456 253.616C92.592 253.36 94.96 249.968 99.312 242.224L118.96 206.896H119.472ZM116.72 213.36L104.496 235.504H119.6L116.72 213.36ZM134.444 254.768C131.884 254.768 132.332 251.312 132.908 248.752L140.716 212.016C141.612 207.92 140.844 206.384 138.796 206L138.86 205.616L145.388 203.952H145.644L136.3 247.984C136.108 248.88 135.596 251.248 136.748 251.248C138.028 251.248 140.78 248.304 143.276 244.912L143.596 245.168C140.396 251.184 137.004 254.768 134.444 254.768ZM174.722 244.912L175.042 245.168C171.842 251.184 168.45 254.768 165.89 254.768C163.33 254.768 163.778 251.312 164.354 248.752L166.338 239.472C162.37 249.328 156.034 254.768 150.722 254.768C146.754 254.768 144.45 251.632 144.45 245.744C144.45 234.288 153.09 219.696 164.482 219.696C167.234 219.696 169.41 220.528 170.626 222.384L173.314 220.08H173.698L167.746 247.984C167.554 248.88 167.042 251.248 168.194 251.248C169.474 251.248 172.226 248.304 174.722 244.912ZM152.77 252.464C158.082 252.464 165.634 243.184 168.258 230.448C168.45 229.552 168.578 228.72 168.578 227.44C168.578 223.6 167.49 220.592 163.586 220.592C155.458 220.592 148.034 233.776 148.034 244.464C148.034 249.584 149.762 252.464 152.77 252.464ZM218.784 244.912L219.104 245.168C215.904 251.184 212.512 254.768 209.952 254.768C207.392 254.768 207.84 251.312 208.416 248.752L210.4 239.472C206.432 249.328 200.096 254.768 194.784 254.768C190.816 254.768 188.512 251.632 188.512 245.744C188.512 234.288 197.152 219.696 208.544 219.696C211.296 219.696 213.472 220.528 214.688 222.384L217.376 220.08H217.76L211.808 247.984C211.616 248.88 211.104 251.248 212.256 251.248C213.536 251.248 216.288 248.304 218.784 244.912ZM196.832 252.464C202.144 252.464 209.696 243.184 212.32 230.448C212.512 229.552 212.64 228.72 212.64 227.44C212.64 223.6 211.552 220.592 207.648 220.592C199.52 220.592 192.096 233.776 192.096 244.464C192.096 249.584 193.824 252.464 196.832 252.464ZM251.441 244.912L251.761 245.168C248.561 251.184 245.105 254.768 242.737 254.768C240.433 254.768 240.113 252.592 241.009 248.752L244.913 231.856C246.065 226.864 246.833 222.512 243.185 222.512C236.785 222.512 227.825 237.296 224.241 254H221.041L226.865 226.48C227.249 224.688 227.633 222.896 226.481 222.896C225.521 222.896 223.729 224.816 221.169 228.144L220.849 227.888C223.793 222.384 226.801 219.696 228.72 219.696C230.897 219.696 231.025 222 230.257 225.712L226.737 242.096C231.665 228.784 239.089 219.696 245.105 219.696C250.545 219.696 249.585 225.648 248.049 232.304L244.465 247.984C244.081 249.776 243.633 251.568 244.721 251.568C245.681 251.568 247.857 249.776 251.441 244.912ZM260.77 254.768C256.034 254.768 252.706 251.632 252.706 244.656C252.706 233.776 260.962 219.696 271.394 219.696C276.002 219.696 278.306 222.448 278.306 226.032L275.49 228.912H275.106C275.746 223.024 274.082 220.592 270.946 220.592C263.906 220.592 256.161 232.688 256.161 243.888C256.161 249.776 258.338 252.336 262.05 252.336C266.274 252.336 269.986 249.2 273.826 244.464L274.21 244.72C269.666 251.568 265.634 254.768 260.77 254.768ZM307.278 244.912L307.598 245.168C304.398 251.184 300.942 254.768 298.574 254.768C296.27 254.768 295.95 252.592 296.846 248.752L300.75 231.856C301.902 226.864 302.67 222.512 299.022 222.512C292.558 222.512 283.598 237.296 280.078 254H276.878L285.71 212.016C286.542 207.92 285.838 206.384 283.726 206L283.854 205.616L290.382 203.952H290.638L282.638 241.84C287.566 228.72 294.926 219.696 300.942 219.696C306.382 219.696 305.422 225.648 303.886 232.304L300.302 247.984C299.918 249.776 299.47 251.568 300.558 251.568C301.518 251.568 303.694 249.776 307.278 244.912ZM338.597 244.912L338.917 245.168C335.717 251.184 332.325 254.768 329.765 254.768C327.205 254.768 327.653 251.312 328.229 248.752L330.213 239.472C326.245 249.328 319.909 254.768 314.597 254.768C310.629 254.768 308.325 251.632 308.325 245.744C308.325 234.288 316.965 219.696 328.357 219.696C331.109 219.696 333.285 220.528 334.501 222.384L337.189 220.08H337.573L331.621 247.984C331.429 248.88 330.917 251.248 332.069 251.248C333.349 251.248 336.101 248.304 338.597 244.912ZM316.645 252.464C321.957 252.464 329.509 243.184 332.133 230.448C332.325 229.552 332.453 228.72 332.453 227.44C332.453 223.6 331.365 220.592 327.461 220.592C319.333 220.592 311.909 233.776 311.909 244.464C311.909 249.584 313.637 252.464 316.645 252.464Z" fill="#B9D6FE"/>
</svg>
