<svg width="436" height="493" viewBox="0 0 436 493" fill="none" xmlns="http://www.w3.org/2000/svg">
<path d="M0 218C0 97.6019 97.6019 0 218 0V0C338.398 0 436 97.6019 436 218V493H0V218Z" fill="#FD6500"/>
<path d="M182.424 168.224C179.974 168.224 178.42 166.264 178.42 163.212C178.42 160.146 180.002 158.2 182.438 158.2C184.916 158.2 186.428 160.132 186.428 163.212C186.428 166.264 184.916 168.224 182.424 168.224ZM182.438 166.6C183.866 166.6 184.44 165.27 184.44 163.212C184.44 161.182 183.852 159.824 182.438 159.824C181.01 159.824 180.408 161.168 180.408 163.212C180.408 165.242 181.01 166.6 182.438 166.6ZM192.096 168.21C189.352 168.21 188.148 165.956 188.12 163.352C188.106 161.658 188.442 160.286 189.296 159.32C189.912 158.62 190.752 158.214 192.054 158.214C193.972 158.214 195.12 159.264 195.358 160.692H193.524C193.384 160.104 192.964 159.67 192.124 159.67C190.724 159.67 190.052 160.72 190.052 162.414H190.08C190.584 161.826 191.214 161.42 192.334 161.42C194.112 161.42 195.666 162.806 195.666 164.85C195.666 166.824 194.098 168.21 192.096 168.21ZM192.026 166.712C193.062 166.712 193.846 165.914 193.846 164.878C193.846 163.786 193.076 162.96 192.04 162.96C190.864 162.96 190.178 163.758 190.178 164.864C190.178 165.942 190.948 166.712 192.026 166.712ZM196.815 168L200.735 157.99H202.247L198.327 168H196.815ZM207.232 168V157.99H209.262V166.306H213.966V168H207.232ZM215.232 168L218.718 157.99H220.818L224.346 168H222.232L221.56 165.872H217.948L217.29 168H215.232ZM219.32 161.434L218.424 164.318H221.07L220.174 161.434C220.006 160.902 219.768 159.894 219.768 159.894H219.74C219.74 159.894 219.488 160.902 219.32 161.434ZM226.029 168V157.99H230.621C232.553 157.99 233.841 159.11 233.841 160.776C233.841 161.952 233.295 162.848 232.007 163.198V163.24C232.931 163.506 233.407 164.038 233.533 165.256C233.673 166.67 233.617 167.748 233.967 167.902V168H232.021C231.769 167.888 231.741 166.768 231.657 165.69C231.573 164.598 230.957 163.982 229.697 163.982H228.059V168H226.029ZM228.059 159.628V162.414H230.215C231.321 162.414 231.867 161.84 231.867 161.042C231.867 160.23 231.349 159.628 230.271 159.628H228.059ZM243.324 168L243.254 166.656H243.226C242.54 167.804 241.602 168.21 240.412 168.21C238.9 168.21 237.724 167.664 236.898 166.754C236.072 165.83 235.596 164.542 235.596 163.03C235.596 161.364 236.184 159.908 237.234 158.942C238.046 158.2 239.11 157.794 240.454 157.794C242.974 157.794 244.416 159.18 244.738 161.14H242.75C242.526 160.174 241.784 159.474 240.496 159.474C238.606 159.474 237.668 161.042 237.668 163.03C237.668 165.074 238.746 166.572 240.468 166.572C242.022 166.572 243.044 165.41 243.044 164.304V164.248H240.636V162.68H244.85V168H243.324ZM251.505 168.224C248.551 168.224 246.675 166.012 246.675 163.016C246.675 160.02 248.551 157.794 251.505 157.794C254.459 157.794 256.321 160.02 256.321 163.016C256.321 166.012 254.459 168.224 251.505 168.224ZM251.519 166.558C253.353 166.558 254.249 165.004 254.249 163.016C254.249 161.014 253.353 159.46 251.519 159.46C249.685 159.46 248.747 161.014 248.747 163.016C248.747 165.004 249.685 166.558 251.519 166.558Z" fill="#F3EEE1"/>
<path d="M53.8906 323.252C50.2366 323.252 47.8606 320.462 47.8606 316.556C47.8606 312.776 50.1286 309.842 53.9626 309.842C56.9686 309.842 58.7866 311.57 59.1286 313.946H57.5446C57.2386 312.344 55.9606 311.246 53.9266 311.246C51.1006 311.246 49.5166 313.532 49.5166 316.556C49.5166 319.706 51.2626 321.83 53.9446 321.83C56.3746 321.83 57.5266 320.174 57.6886 318.284H59.2906C59.2726 319.562 58.6606 321.002 57.7426 321.902C56.8426 322.784 55.5286 323.252 53.8906 323.252ZM64.8703 323.252C62.0983 323.252 60.3703 321.056 60.3703 318.356C60.3703 315.656 62.0983 313.46 64.8703 313.46C67.6603 313.46 69.3523 315.656 69.3523 318.356C69.3523 321.056 67.6603 323.252 64.8703 323.252ZM64.8703 322.028C66.8503 322.028 67.8583 320.408 67.8583 318.356C67.8583 316.304 66.8503 314.666 64.8703 314.666C62.8903 314.666 61.8643 316.304 61.8643 318.356C61.8643 320.408 62.8903 322.028 64.8703 322.028ZM72.2644 313.694V315.242H72.3004C72.8584 314.342 73.8304 313.586 75.0724 313.586C75.3424 313.586 75.4864 313.622 75.6664 313.694V315.098H75.6124C75.3964 315.026 75.2524 315.008 74.9644 315.008C73.5244 315.008 72.2644 316.088 72.2644 317.834V323H70.8064V313.694H72.2644ZM76.3823 314.882V313.694H77.7323V310.76H79.1903V313.694H80.9903V314.882H79.1903V320.93C79.1903 321.578 79.5323 321.794 80.1263 321.794C80.4143 321.794 80.7383 321.722 80.9003 321.668H80.9543V322.928C80.6123 323 80.2163 323.054 79.7843 323.054C78.5963 323.054 77.7323 322.568 77.7323 321.254V314.882H76.3823ZM86.386 323.252C83.542 323.252 81.886 321.056 81.886 318.356C81.886 315.656 83.65 313.46 86.296 313.46C89.086 313.46 90.58 315.62 90.58 318.698H83.38C83.488 320.588 84.514 322.028 86.386 322.028C87.736 322.028 88.636 321.38 88.96 320.12H90.382C89.95 322.118 88.492 323.252 86.386 323.252ZM86.296 314.612C84.568 314.612 83.632 315.908 83.416 317.6H89.014C88.924 315.746 87.97 314.612 86.296 314.612ZM102.179 323.09C101.225 323.09 100.721 322.658 100.577 321.704H100.559C100.001 322.424 99.0469 323.18 97.4629 323.18C95.6989 323.18 94.3129 322.352 94.3129 320.588C94.3129 318.392 96.0409 317.942 98.3629 317.582C99.6769 317.384 100.595 317.258 100.595 316.25C100.595 315.206 99.8389 314.612 98.5069 314.612C96.9949 314.612 96.2389 315.26 96.1849 316.664H94.7809C94.8349 314.864 96.0229 313.514 98.4889 313.514C100.469 313.514 101.927 314.252 101.927 316.466V320.894C101.927 321.65 102.107 322.064 102.917 321.884H102.971V322.946C102.791 323.018 102.557 323.09 102.179 323.09ZM97.7869 322.064C99.7309 322.064 100.613 320.642 100.613 319.562V317.978C100.127 318.284 99.2809 318.518 98.4889 318.662C97.0309 318.932 95.8609 319.184 95.8609 320.552C95.8609 321.794 96.8329 322.064 97.7869 322.064ZM106.912 323V313.694H108.37V315.026H108.406C108.982 314.126 109.972 313.478 111.142 313.478C112.276 313.478 113.176 314.054 113.572 315.134H113.608C114.202 314.072 115.318 313.478 116.452 313.478C118.108 313.478 119.278 314.54 119.278 316.466V323H117.82V316.538C117.82 315.386 117.046 314.702 116.11 314.702C114.904 314.702 113.824 315.746 113.824 317.204V323H112.366V316.538C112.366 315.386 111.718 314.702 110.764 314.702C109.63 314.702 108.37 315.746 108.37 317.204V323H106.912ZM125.181 323.252C122.337 323.252 120.681 321.056 120.681 318.356C120.681 315.656 122.445 313.46 125.091 313.46C127.881 313.46 129.375 315.62 129.375 318.698H122.175C122.283 320.588 123.309 322.028 125.181 322.028C126.531 322.028 127.431 321.38 127.755 320.12H129.177C128.745 322.118 127.287 323.252 125.181 323.252ZM125.091 314.612C123.363 314.612 122.427 315.908 122.211 317.6H127.809C127.719 315.746 126.765 314.612 125.091 314.612ZM134.401 323.27C131.863 323.27 130.279 321.362 130.279 318.374C130.279 315.278 132.061 313.478 134.365 313.478C135.679 313.478 136.687 314.126 137.281 315.008H137.317V310.13H138.775V323H137.317V321.866H137.281C136.579 322.766 135.715 323.27 134.401 323.27ZM134.455 322.046C136.525 322.046 137.407 320.498 137.407 318.392C137.407 316.232 136.363 314.72 134.437 314.72C132.673 314.72 131.773 316.304 131.773 318.392C131.773 320.498 132.673 322.046 134.455 322.046ZM140.75 323V313.694H142.208V323H140.75ZM140.75 311.93V310.13H142.208V311.93H140.75ZM151.503 323.09C150.549 323.09 150.045 322.658 149.901 321.704H149.883C149.325 322.424 148.371 323.18 146.787 323.18C145.023 323.18 143.637 322.352 143.637 320.588C143.637 318.392 145.365 317.942 147.687 317.582C149.001 317.384 149.919 317.258 149.919 316.25C149.919 315.206 149.163 314.612 147.831 314.612C146.319 314.612 145.563 315.26 145.509 316.664H144.105C144.159 314.864 145.347 313.514 147.813 313.514C149.793 313.514 151.251 314.252 151.251 316.466V320.894C151.251 321.65 151.431 322.064 152.241 321.884H152.295V322.946C152.115 323.018 151.881 323.09 151.503 323.09ZM147.111 322.064C149.055 322.064 149.937 320.642 149.937 319.562V317.978C149.451 318.284 148.605 318.518 147.813 318.662C146.355 318.932 145.185 319.184 145.185 320.552C145.185 321.794 146.157 322.064 147.111 322.064ZM156.236 325.988V313.694H157.694V315.008H157.73C158.432 314.054 159.368 313.478 160.718 313.478C163.076 313.478 164.714 315.278 164.714 318.374C164.714 321.362 163.184 323.27 160.664 323.27C159.404 323.27 158.504 322.892 157.73 321.902H157.694V325.988H156.236ZM160.556 322.046C162.338 322.046 163.22 320.498 163.22 318.392C163.22 316.304 162.338 314.72 160.574 314.72C158.54 314.72 157.604 316.376 157.604 318.392C157.604 320.408 158.414 322.046 160.556 322.046ZM173.476 323.09C172.522 323.09 172.018 322.658 171.874 321.704H171.856C171.298 322.424 170.344 323.18 168.76 323.18C166.996 323.18 165.61 322.352 165.61 320.588C165.61 318.392 167.338 317.942 169.66 317.582C170.974 317.384 171.892 317.258 171.892 316.25C171.892 315.206 171.136 314.612 169.804 314.612C168.292 314.612 167.536 315.26 167.482 316.664H166.078C166.132 314.864 167.32 313.514 169.786 313.514C171.766 313.514 173.224 314.252 173.224 316.466V320.894C173.224 321.65 173.404 322.064 174.214 321.884H174.268V322.946C174.088 323.018 173.854 323.09 173.476 323.09ZM169.084 322.064C171.028 322.064 171.91 320.642 171.91 319.562V317.978C171.424 318.284 170.578 318.518 169.786 318.662C168.328 318.932 167.158 319.184 167.158 320.552C167.158 321.794 168.13 322.064 169.084 322.064ZM176.802 313.694V314.918H176.838C177.504 314.036 178.44 313.478 179.79 313.478C181.734 313.478 182.922 314.54 182.922 316.466V323H181.464V316.592C181.464 315.386 180.672 314.702 179.358 314.702C177.882 314.702 176.802 315.746 176.802 317.276V323H175.344V313.694H176.802ZM184.084 314.882V313.694H185.434V310.76H186.892V313.694H188.692V314.882H186.892V320.93C186.892 321.578 187.234 321.794 187.828 321.794C188.116 321.794 188.439 321.722 188.602 321.668H188.656V322.928C188.313 323 187.918 323.054 187.486 323.054C186.298 323.054 185.434 322.568 185.434 321.254V314.882H184.084ZM194.087 323.252C191.315 323.252 189.587 321.056 189.587 318.356C189.587 315.656 191.315 313.46 194.087 313.46C196.877 313.46 198.569 315.656 198.569 318.356C198.569 321.056 196.877 323.252 194.087 323.252ZM194.087 322.028C196.067 322.028 197.075 320.408 197.075 318.356C197.075 316.304 196.067 314.666 194.087 314.666C192.107 314.666 191.081 316.304 191.081 318.356C191.081 320.408 192.107 322.028 194.087 322.028ZM201.481 313.694V315.242H201.517C202.075 314.342 203.047 313.586 204.289 313.586C204.559 313.586 204.703 313.622 204.883 313.694V315.098H204.829C204.613 315.026 204.469 315.008 204.181 315.008C202.741 315.008 201.481 316.088 201.481 317.834V323H200.023V313.694H201.481ZM207.651 313.694V315.242H207.687C208.245 314.342 209.217 313.586 210.459 313.586C210.729 313.586 210.873 313.622 211.053 313.694V315.098H210.999C210.783 315.026 210.639 315.008 210.351 315.008C208.911 315.008 207.651 316.088 207.651 317.834V323H206.193V313.694H207.651ZM212.363 323V313.694H213.821V323H212.363ZM212.363 311.93V310.13H213.821V311.93H212.363ZM215.862 323V310.13H217.32V323H215.862ZM219.413 323V310.13H220.871V323H219.413ZM230.218 323.09C229.264 323.09 228.76 322.658 228.616 321.704H228.598C228.04 322.424 227.086 323.18 225.502 323.18C223.738 323.18 222.352 322.352 222.352 320.588C222.352 318.392 224.08 317.942 226.402 317.582C227.716 317.384 228.634 317.258 228.634 316.25C228.634 315.206 227.878 314.612 226.546 314.612C225.034 314.612 224.278 315.26 224.224 316.664H222.82C222.874 314.864 224.062 313.514 226.528 313.514C228.508 313.514 229.966 314.252 229.966 316.466V320.894C229.966 321.65 230.146 322.064 230.956 321.884H231.01V322.946C230.83 323.018 230.596 323.09 230.218 323.09ZM225.826 322.064C227.77 322.064 228.652 320.642 228.652 319.562V317.978C228.166 318.284 227.32 318.518 226.528 318.662C225.07 318.932 223.9 319.184 223.9 320.552C223.9 321.794 224.872 322.064 225.826 322.064ZM232.151 323V321.218H233.897V323H232.151ZM238.753 323V310.13H240.463L246.331 319.076C246.763 319.742 247.267 320.732 247.267 320.732H247.303V310.13H248.815V323H247.159L241.255 314.036C240.841 313.406 240.301 312.434 240.301 312.434H240.265V323H238.753ZM251.017 323V313.694H252.475V323H251.017ZM251.017 311.93V310.13H252.475V311.93H251.017ZM261.306 323.252C258.534 323.252 256.806 321.056 256.806 318.356C256.806 315.656 258.534 313.46 261.306 313.46C263.502 313.46 264.96 314.72 265.284 316.7H263.808C263.592 315.44 262.71 314.666 261.306 314.666C259.326 314.666 258.3 316.304 258.3 318.356C258.3 320.408 259.326 322.028 261.306 322.028C262.818 322.028 263.718 321.164 263.844 319.724H265.284C265.086 321.956 263.628 323.252 261.306 323.252ZM270.64 323.252C267.868 323.252 266.14 321.056 266.14 318.356C266.14 315.656 267.868 313.46 270.64 313.46C273.43 313.46 275.122 315.656 275.122 318.356C275.122 321.056 273.43 323.252 270.64 323.252ZM270.64 322.028C272.62 322.028 273.628 320.408 273.628 318.356C273.628 316.304 272.62 314.666 270.64 314.666C268.66 314.666 267.634 316.304 267.634 318.356C267.634 320.408 268.66 322.028 270.64 322.028ZM278.034 313.694V315.242H278.07C278.628 314.342 279.6 313.586 280.842 313.586C281.112 313.586 281.256 313.622 281.436 313.694V315.098H281.382C281.166 315.026 281.022 315.008 280.734 315.008C279.294 315.008 278.034 316.088 278.034 317.834V323H276.576V313.694H278.034ZM282.152 314.882V313.694H283.502V310.76H284.96V313.694H286.76V314.882H284.96V320.93C284.96 321.578 285.302 321.794 285.896 321.794C286.184 321.794 286.508 321.722 286.67 321.668H286.724V322.928C286.382 323 285.986 323.054 285.554 323.054C284.366 323.054 283.502 322.568 283.502 321.254V314.882H282.152ZM295.573 323.09C294.619 323.09 294.115 322.658 293.971 321.704H293.953C293.395 322.424 292.441 323.18 290.857 323.18C289.093 323.18 287.707 322.352 287.707 320.588C287.707 318.392 289.435 317.942 291.757 317.582C293.071 317.384 293.989 317.258 293.989 316.25C293.989 315.206 293.233 314.612 291.901 314.612C290.389 314.612 289.633 315.26 289.579 316.664H288.175C288.229 314.864 289.417 313.514 291.883 313.514C293.863 313.514 295.321 314.252 295.321 316.466V320.894C295.321 321.65 295.501 322.064 296.311 321.884H296.365V322.946C296.185 323.018 295.951 323.09 295.573 323.09ZM291.181 322.064C293.125 322.064 294.007 320.642 294.007 319.562V317.978C293.521 318.284 292.675 318.518 291.883 318.662C290.425 318.932 289.255 319.184 289.255 320.552C289.255 321.794 290.227 322.064 291.181 322.064ZM300.969 323.27C298.413 323.27 296.991 322.064 296.847 319.976H298.341C298.539 321.596 299.619 322.046 301.005 322.046C302.535 322.046 303.165 321.38 303.165 320.516C303.165 319.472 302.445 319.202 300.735 318.842C298.899 318.464 297.261 318.086 297.261 316.052C297.261 314.504 298.449 313.496 300.609 313.496C302.913 313.496 304.047 314.594 304.263 316.412H302.769C302.625 315.188 301.959 314.648 300.573 314.648C299.241 314.648 298.701 315.242 298.701 315.98C298.701 316.988 299.601 317.186 301.203 317.51C303.075 317.888 304.641 318.302 304.641 320.444C304.641 322.316 303.111 323.27 300.969 323.27ZM310.36 313.694V314.918H310.396C311.062 314.036 311.998 313.478 313.348 313.478C315.292 313.478 316.48 314.54 316.48 316.466V323H315.022V316.592C315.022 315.386 314.23 314.702 312.916 314.702C311.44 314.702 310.36 315.746 310.36 317.276V323H308.902V313.694H310.36ZM318.412 323V313.694H319.87V323H318.412ZM318.412 311.93V310.13H319.87V311.93H318.412ZM324.776 323V310.13H326.234V323H324.776ZM335.581 323.09C334.627 323.09 334.123 322.658 333.979 321.704H333.961C333.403 322.424 332.449 323.18 330.865 323.18C329.101 323.18 327.715 322.352 327.715 320.588C327.715 318.392 329.443 317.942 331.765 317.582C333.079 317.384 333.997 317.258 333.997 316.25C333.997 315.206 333.241 314.612 331.909 314.612C330.397 314.612 329.641 315.26 329.587 316.664H328.183C328.237 314.864 329.425 313.514 331.891 313.514C333.871 313.514 335.329 314.252 335.329 316.466V320.894C335.329 321.65 335.509 322.064 336.319 321.884H336.373V322.946C336.193 323.018 335.959 323.09 335.581 323.09ZM331.189 322.064C333.133 322.064 334.015 320.642 334.015 319.562V317.978C333.529 318.284 332.683 318.518 331.891 318.662C330.433 318.932 329.263 319.184 329.263 320.552C329.263 321.794 330.235 322.064 331.189 322.064ZM338.907 313.694V315.242H338.943C339.501 314.342 340.473 313.586 341.715 313.586C341.985 313.586 342.129 313.622 342.309 313.694V315.098H342.255C342.039 315.026 341.895 315.008 341.607 315.008C340.167 315.008 338.907 316.088 338.907 317.834V323H337.449V313.694H338.907ZM346.975 326.096C344.563 326.096 343.195 325.124 343.033 323.522H344.383C344.527 324.548 345.499 324.944 346.939 324.944C348.649 324.944 349.603 324.17 349.603 322.55V321.236H349.567C348.883 322.118 348.145 322.676 346.813 322.676C344.401 322.676 342.745 320.75 342.745 318.068C342.745 315.17 344.563 313.478 346.723 313.478C348.073 313.478 348.937 314 349.567 314.882H349.603V313.694H351.061V322.496C351.061 324.944 349.441 326.096 346.975 326.096ZM346.885 321.452C349.027 321.452 349.711 319.958 349.711 317.996C349.711 315.962 348.847 314.702 346.867 314.702C345.121 314.702 344.239 316.07 344.239 318.086C344.239 320.12 345.157 321.452 346.885 321.452ZM360.349 323.09C359.395 323.09 358.891 322.658 358.747 321.704H358.729C358.171 322.424 357.217 323.18 355.633 323.18C353.869 323.18 352.483 322.352 352.483 320.588C352.483 318.392 354.211 317.942 356.533 317.582C357.847 317.384 358.765 317.258 358.765 316.25C358.765 315.206 358.009 314.612 356.677 314.612C355.165 314.612 354.409 315.26 354.355 316.664H352.951C353.005 314.864 354.193 313.514 356.659 313.514C358.639 313.514 360.097 314.252 360.097 316.466V320.894C360.097 321.65 360.277 322.064 361.087 321.884H361.141V322.946C360.961 323.018 360.727 323.09 360.349 323.09ZM355.957 322.064C357.901 322.064 358.783 320.642 358.783 319.562V317.978C358.297 318.284 357.451 318.518 356.659 318.662C355.201 318.932 354.031 319.184 354.031 320.552C354.031 321.794 355.003 322.064 355.957 322.064ZM365.745 323.27C363.189 323.27 361.767 322.064 361.623 319.976H363.117C363.315 321.596 364.395 322.046 365.781 322.046C367.311 322.046 367.941 321.38 367.941 320.516C367.941 319.472 367.221 319.202 365.511 318.842C363.675 318.464 362.037 318.086 362.037 316.052C362.037 314.504 363.225 313.496 365.385 313.496C367.689 313.496 368.823 314.594 369.039 316.412H367.545C367.401 315.188 366.735 314.648 365.349 314.648C364.017 314.648 363.477 315.242 363.477 315.98C363.477 316.988 364.377 317.186 365.979 317.51C367.851 317.888 369.417 318.302 369.417 320.444C369.417 322.316 367.887 323.27 365.745 323.27ZM370.668 317.546V315.764H372.414V317.546H370.668ZM370.668 323V321.218H372.414V323H370.668ZM377.177 323V310.13H378.635V323H377.177ZM387.982 323.09C387.028 323.09 386.524 322.658 386.38 321.704H386.362C385.804 322.424 384.85 323.18 383.266 323.18C381.502 323.18 380.116 322.352 380.116 320.588C380.116 318.392 381.844 317.942 384.166 317.582C385.48 317.384 386.398 317.258 386.398 316.25C386.398 315.206 385.642 314.612 384.31 314.612C382.798 314.612 382.042 315.26 381.988 316.664H380.584C380.638 314.864 381.826 313.514 384.292 313.514C386.272 313.514 387.73 314.252 387.73 316.466V320.894C387.73 321.65 387.91 322.064 388.72 321.884H388.774V322.946C388.594 323.018 388.36 323.09 387.982 323.09ZM383.59 322.064C385.534 322.064 386.416 320.642 386.416 319.562V317.978C385.93 318.284 385.084 318.518 384.292 318.662C382.834 318.932 381.664 319.184 381.664 320.552C381.664 321.794 382.636 322.064 383.59 322.064ZM75.49 334.694V335.918H75.526C76.192 335.036 77.128 334.478 78.478 334.478C80.422 334.478 81.61 335.54 81.61 337.466V344H80.152V337.592C80.152 336.386 79.36 335.702 78.046 335.702C76.57 335.702 75.49 336.746 75.49 338.276V344H74.032V334.694H75.49ZM90.9218 344H89.4638V342.722H89.4278C88.7618 343.622 87.9698 344.216 86.6198 344.216C84.7118 344.216 83.4878 343.064 83.4878 341.138V334.694H84.9458V341.102C84.9458 342.308 85.7198 343.01 87.0338 343.01C88.5098 343.01 89.4638 341.894 89.4638 340.418V334.694H90.9218V344ZM96.8713 344.252C94.0273 344.252 92.3713 342.056 92.3713 339.356C92.3713 336.656 94.1353 334.46 96.7813 334.46C99.5713 334.46 101.065 336.62 101.065 339.698H93.8653C93.9733 341.588 94.9993 343.028 96.8713 343.028C98.2213 343.028 99.1213 342.38 99.4453 341.12H100.867C100.435 343.118 98.9773 344.252 96.8713 344.252ZM96.7813 335.612C95.0533 335.612 94.1173 336.908 93.9013 338.6H99.4993C99.4093 336.746 98.4553 335.612 96.7813 335.612ZM104.619 344L101.361 334.694H102.927L104.853 340.598C105.123 341.426 105.465 342.56 105.465 342.56H105.501C105.501 342.56 105.843 341.408 106.113 340.598L108.075 334.694H109.587L106.239 344H104.619ZM117.656 344.09C116.702 344.09 116.198 343.658 116.054 342.704H116.036C115.478 343.424 114.524 344.18 112.94 344.18C111.176 344.18 109.79 343.352 109.79 341.588C109.79 339.392 111.518 338.942 113.84 338.582C115.154 338.384 116.072 338.258 116.072 337.25C116.072 336.206 115.316 335.612 113.984 335.612C112.472 335.612 111.716 336.26 111.662 337.664H110.258C110.312 335.864 111.5 334.514 113.966 334.514C115.946 334.514 117.404 335.252 117.404 337.466V341.894C117.404 342.65 117.584 343.064 118.394 342.884H118.448V343.946C118.268 344.018 118.034 344.09 117.656 344.09ZM113.264 343.064C115.208 343.064 116.09 341.642 116.09 340.562V338.978C115.604 339.284 114.758 339.518 113.966 339.662C112.508 339.932 111.338 340.184 111.338 341.552C111.338 342.794 112.31 343.064 113.264 343.064ZM122.389 344V334.694H123.847V336.026H123.883C124.459 335.126 125.449 334.478 126.619 334.478C127.753 334.478 128.653 335.054 129.049 336.134H129.085C129.679 335.072 130.795 334.478 131.929 334.478C133.585 334.478 134.755 335.54 134.755 337.466V344H133.297V337.538C133.297 336.386 132.523 335.702 131.587 335.702C130.381 335.702 129.301 336.746 129.301 338.204V344H127.843V337.538C127.843 336.386 127.195 335.702 126.241 335.702C125.107 335.702 123.847 336.746 123.847 338.204V344H122.389ZM140.658 344.252C137.814 344.252 136.158 342.056 136.158 339.356C136.158 336.656 137.922 334.46 140.568 334.46C143.358 334.46 144.852 336.62 144.852 339.698H137.652C137.76 341.588 138.786 343.028 140.658 343.028C142.008 343.028 142.908 342.38 143.232 341.12H144.654C144.222 343.118 142.764 344.252 140.658 344.252ZM140.568 335.612C138.84 335.612 137.904 336.908 137.688 338.6H143.286C143.196 336.746 142.242 335.612 140.568 335.612ZM149.878 344.27C147.34 344.27 145.756 342.362 145.756 339.374C145.756 336.278 147.538 334.478 149.842 334.478C151.156 334.478 152.164 335.126 152.758 336.008H152.794V331.13H154.252V344H152.794V342.866H152.758C152.056 343.766 151.192 344.27 149.878 344.27ZM149.932 343.046C152.002 343.046 152.884 341.498 152.884 339.392C152.884 337.232 151.84 335.72 149.914 335.72C148.15 335.72 147.25 337.304 147.25 339.392C147.25 341.498 148.15 343.046 149.932 343.046ZM156.227 344V334.694H157.685V344H156.227ZM156.227 332.93V331.13H157.685V332.93H156.227ZM163.273 344.27C160.735 344.27 159.151 342.362 159.151 339.374C159.151 336.278 160.933 334.478 163.237 334.478C164.551 334.478 165.559 335.126 166.153 336.008H166.189V331.13H167.647V344H166.189V342.866H166.153C165.451 343.766 164.587 344.27 163.273 344.27ZM163.327 343.046C165.397 343.046 166.279 341.498 166.279 339.392C166.279 337.232 165.235 335.72 163.309 335.72C161.545 335.72 160.645 337.304 160.645 339.392C160.645 341.498 161.545 343.046 163.327 343.046ZM176.93 344.09C175.976 344.09 175.472 343.658 175.328 342.704H175.31C174.752 343.424 173.798 344.18 172.214 344.18C170.45 344.18 169.064 343.352 169.064 341.588C169.064 339.392 170.792 338.942 173.114 338.582C174.428 338.384 175.346 338.258 175.346 337.25C175.346 336.206 174.59 335.612 173.258 335.612C171.746 335.612 170.99 336.26 170.936 337.664H169.532C169.586 335.864 170.774 334.514 173.24 334.514C175.22 334.514 176.678 335.252 176.678 337.466V341.894C176.678 342.65 176.858 343.064 177.668 342.884H177.722V343.946C177.542 344.018 177.308 344.09 176.93 344.09ZM172.538 343.064C174.482 343.064 175.364 341.642 175.364 340.562V338.978C174.878 339.284 174.032 339.518 173.24 339.662C171.782 339.932 170.612 340.184 170.612 341.552C170.612 342.794 171.584 343.064 172.538 343.064ZM188.161 346.988V342.866H188.125C187.423 343.766 186.577 344.27 185.245 344.27C182.725 344.27 181.195 342.362 181.195 339.374C181.195 336.278 182.923 334.478 185.191 334.478C186.541 334.478 187.477 335.018 188.125 335.936H188.161V334.694H189.619V346.988H188.161ZM185.317 343.046C187.459 343.046 188.251 341.498 188.251 339.392C188.251 337.232 187.333 335.72 185.299 335.72C183.535 335.72 182.689 337.304 182.689 339.392C182.689 341.498 183.535 343.046 185.317 343.046ZM198.974 344H197.516V342.722H197.48C196.814 343.622 196.022 344.216 194.672 344.216C192.764 344.216 191.54 343.064 191.54 341.138V334.694H192.998V341.102C192.998 342.308 193.772 343.01 195.086 343.01C196.562 343.01 197.516 341.894 197.516 340.418V334.694H198.974V344ZM204.924 344.252C202.08 344.252 200.424 342.056 200.424 339.356C200.424 336.656 202.188 334.46 204.834 334.46C207.624 334.46 209.118 336.62 209.118 339.698H201.918C202.026 341.588 203.052 343.028 204.924 343.028C206.274 343.028 207.174 342.38 207.498 341.12H208.92C208.488 343.118 207.03 344.252 204.924 344.252ZM204.834 335.612C203.106 335.612 202.17 336.908 201.954 338.6H207.552C207.462 336.746 206.508 335.612 204.834 335.612ZM214.867 334.694V335.918H214.903C215.569 335.036 216.505 334.478 217.855 334.478C219.799 334.478 220.987 335.54 220.987 337.466V344H219.529V337.592C219.529 336.386 218.737 335.702 217.423 335.702C215.947 335.702 214.867 336.746 214.867 338.276V344H213.409V334.694H214.867ZM222.919 344V334.694H224.377V344H222.919ZM222.919 332.93V331.13H224.377V332.93H222.919ZM227.822 334.694V335.918H227.858C228.524 335.036 229.46 334.478 230.81 334.478C232.754 334.478 233.942 335.54 233.942 337.466V344H232.484V337.592C232.484 336.386 231.692 335.702 230.378 335.702C228.902 335.702 227.822 336.746 227.822 338.276V344H226.364V334.694H227.822ZM239.582 347.096C237.17 347.096 235.802 346.124 235.64 344.522H236.99C237.134 345.548 238.106 345.944 239.546 345.944C241.256 345.944 242.21 345.17 242.21 343.55V342.236H242.174C241.49 343.118 240.752 343.676 239.42 343.676C237.008 343.676 235.352 341.75 235.352 339.068C235.352 336.17 237.17 334.478 239.33 334.478C240.68 334.478 241.544 335 242.174 335.882H242.21V334.694H243.668V343.496C243.668 345.944 242.048 347.096 239.582 347.096ZM239.492 342.452C241.634 342.452 242.318 340.958 242.318 338.996C242.318 336.962 241.454 335.702 239.474 335.702C237.728 335.702 236.846 337.07 236.846 339.086C236.846 341.12 237.764 342.452 239.492 342.452ZM253.027 344H251.569V342.722H251.533C250.867 343.622 250.075 344.216 248.725 344.216C246.817 344.216 245.593 343.064 245.593 341.138V334.694H247.051V341.102C247.051 342.308 247.825 343.01 249.139 343.01C250.615 343.01 251.569 341.894 251.569 340.418V334.694H253.027V344ZM256.457 334.694V335.918H256.493C257.159 335.036 258.095 334.478 259.445 334.478C261.389 334.478 262.577 335.54 262.577 337.466V344H261.119V337.592C261.119 336.386 260.327 335.702 259.013 335.702C257.537 335.702 256.457 336.746 256.457 338.276V344H254.999V334.694H256.457ZM271.817 344.09C270.863 344.09 270.359 343.658 270.215 342.704H270.197C269.639 343.424 268.685 344.18 267.101 344.18C265.337 344.18 263.951 343.352 263.951 341.588C263.951 339.392 265.679 338.942 268.001 338.582C269.315 338.384 270.233 338.258 270.233 337.25C270.233 336.206 269.477 335.612 268.145 335.612C266.633 335.612 265.877 336.26 265.823 337.664H264.419C264.473 335.864 265.661 334.514 268.127 334.514C270.107 334.514 271.565 335.252 271.565 337.466V341.894C271.565 342.65 271.745 343.064 272.555 342.884H272.609V343.946C272.429 344.018 272.195 344.09 271.817 344.09ZM267.425 343.064C269.369 343.064 270.251 341.642 270.251 340.562V338.978C269.765 339.284 268.919 339.518 268.127 339.662C266.669 339.932 265.499 340.184 265.499 341.552C265.499 342.794 266.471 343.064 267.425 343.064ZM276.55 344V334.694H278.008V336.026H278.044C278.62 335.126 279.61 334.478 280.78 334.478C281.914 334.478 282.814 335.054 283.21 336.134H283.246C283.84 335.072 284.956 334.478 286.09 334.478C287.746 334.478 288.916 335.54 288.916 337.466V344H287.458V337.538C287.458 336.386 286.684 335.702 285.748 335.702C284.542 335.702 283.462 336.746 283.462 338.204V344H282.004V337.538C282.004 336.386 281.356 335.702 280.402 335.702C279.268 335.702 278.008 336.746 278.008 338.204V344H276.55ZM294.819 344.252C292.047 344.252 290.319 342.056 290.319 339.356C290.319 336.656 292.047 334.46 294.819 334.46C297.609 334.46 299.301 336.656 299.301 339.356C299.301 342.056 297.609 344.252 294.819 344.252ZM294.819 343.028C296.799 343.028 297.807 341.408 297.807 339.356C297.807 337.304 296.799 335.666 294.819 335.666C292.839 335.666 291.813 337.304 291.813 339.356C291.813 341.408 292.839 343.028 294.819 343.028ZM304.355 344.27C301.817 344.27 300.233 342.362 300.233 339.374C300.233 336.278 302.015 334.478 304.319 334.478C305.633 334.478 306.641 335.126 307.235 336.008H307.271V331.13H308.729V344H307.271V342.866H307.235C306.533 343.766 305.669 344.27 304.355 344.27ZM304.409 343.046C306.479 343.046 307.361 341.498 307.361 339.392C307.361 337.232 306.317 335.72 304.391 335.72C302.627 335.72 301.727 337.304 301.727 339.392C301.727 341.498 302.627 343.046 304.409 343.046ZM318.012 344.09C317.058 344.09 316.554 343.658 316.41 342.704H316.392C315.834 343.424 314.88 344.18 313.296 344.18C311.532 344.18 310.146 343.352 310.146 341.588C310.146 339.392 311.874 338.942 314.196 338.582C315.51 338.384 316.428 338.258 316.428 337.25C316.428 336.206 315.672 335.612 314.34 335.612C312.828 335.612 312.072 336.26 312.018 337.664H310.614C310.668 335.864 311.856 334.514 314.322 334.514C316.302 334.514 317.76 335.252 317.76 337.466V341.894C317.76 342.65 317.94 343.064 318.75 342.884H318.804V343.946C318.624 344.018 318.39 344.09 318.012 344.09ZM313.62 343.064C315.564 343.064 316.446 341.642 316.446 340.562V338.978C315.96 339.284 315.114 339.518 314.322 339.662C312.864 339.932 311.694 340.184 311.694 341.552C311.694 342.794 312.666 343.064 313.62 343.064ZM324.203 331.13V335.918H324.239C324.905 335.036 325.841 334.478 327.191 334.478C329.135 334.478 330.323 335.54 330.323 337.466V344H328.865V337.592C328.865 336.386 328.073 335.702 326.759 335.702C325.283 335.702 324.203 336.746 324.203 338.276V344H322.745V331.13H324.203ZM339.563 344.09C338.609 344.09 338.105 343.658 337.961 342.704H337.943C337.385 343.424 336.431 344.18 334.847 344.18C333.083 344.18 331.697 343.352 331.697 341.588C331.697 339.392 333.425 338.942 335.747 338.582C337.061 338.384 337.979 338.258 337.979 337.25C337.979 336.206 337.223 335.612 335.891 335.612C334.379 335.612 333.623 336.26 333.569 337.664H332.165C332.219 335.864 333.407 334.514 335.873 334.514C337.853 334.514 339.311 335.252 339.311 337.466V341.894C339.311 342.65 339.491 343.064 340.301 342.884H340.355V343.946C340.175 344.018 339.941 344.09 339.563 344.09ZM335.171 343.064C337.115 343.064 337.997 341.642 337.997 340.562V338.978C337.511 339.284 336.665 339.518 335.873 339.662C334.415 339.932 333.245 340.184 333.245 341.552C333.245 342.794 334.217 343.064 335.171 343.064ZM345.858 344.27C344.598 344.27 343.68 343.82 342.924 342.776H342.888V344H341.43V331.13H342.888V336.026H342.924C343.626 335.072 344.562 334.478 345.912 334.478C348.27 334.478 349.872 336.278 349.872 339.374C349.872 342.362 348.378 344.27 345.858 344.27ZM345.75 343.046C347.532 343.046 348.378 341.498 348.378 339.392C348.378 337.304 347.532 335.72 345.768 335.72C343.734 335.72 342.798 337.376 342.798 339.392C342.798 341.48 343.77 343.046 345.75 343.046ZM351.471 333.236L352.299 330.95H354.081L352.695 333.236H351.471ZM351.327 344V334.694H352.785V344H351.327ZM362.08 344.09C361.126 344.09 360.622 343.658 360.478 342.704H360.46C359.902 343.424 358.948 344.18 357.364 344.18C355.6 344.18 354.214 343.352 354.214 341.588C354.214 339.392 355.942 338.942 358.264 338.582C359.578 338.384 360.496 338.258 360.496 337.25C360.496 336.206 359.74 335.612 358.408 335.612C356.896 335.612 356.14 336.26 356.086 337.664H354.682C354.736 335.864 355.924 334.514 358.39 334.514C360.37 334.514 361.828 335.252 361.828 337.466V341.894C361.828 342.65 362.008 343.064 362.818 342.884H362.872V343.946C362.692 344.018 362.458 344.09 362.08 344.09ZM357.688 343.064C359.632 343.064 360.514 341.642 360.514 340.562V338.978C360.028 339.284 359.182 339.518 358.39 339.662C356.932 339.932 355.762 340.184 355.762 341.552C355.762 342.794 356.734 343.064 357.688 343.064ZM154.607 365.252C151.763 365.252 150.107 363.056 150.107 360.356C150.107 357.656 151.871 355.46 154.517 355.46C157.307 355.46 158.801 357.62 158.801 360.698H151.601C151.709 362.588 152.735 364.028 154.607 364.028C155.957 364.028 156.857 363.38 157.181 362.12H158.603C158.171 364.118 156.713 365.252 154.607 365.252ZM154.517 356.612C152.789 356.612 151.853 357.908 151.637 359.6H157.235C157.145 357.746 156.191 356.612 154.517 356.612ZM163.754 365.27C161.198 365.27 159.776 364.064 159.632 361.976H161.126C161.324 363.596 162.404 364.046 163.79 364.046C165.32 364.046 165.95 363.38 165.95 362.516C165.95 361.472 165.23 361.202 163.52 360.842C161.684 360.464 160.046 360.086 160.046 358.052C160.046 356.504 161.234 355.496 163.394 355.496C165.698 355.496 166.832 356.594 167.048 358.412H165.554C165.41 357.188 164.744 356.648 163.358 356.648C162.026 356.648 161.486 357.242 161.486 357.98C161.486 358.988 162.386 359.186 163.988 359.51C165.86 359.888 167.426 360.302 167.426 362.444C167.426 364.316 165.896 365.27 163.754 365.27ZM168.052 356.882V355.694H169.402V352.76H170.86V355.694H172.66V356.882H170.86V362.93C170.86 363.578 171.202 363.794 171.796 363.794C172.084 363.794 172.408 363.722 172.57 363.668H172.624V364.928C172.282 365 171.886 365.054 171.454 365.054C170.266 365.054 169.402 364.568 169.402 363.254V356.882H168.052ZM181.474 365.09C180.52 365.09 180.016 364.658 179.872 363.704H179.854C179.296 364.424 178.342 365.18 176.758 365.18C174.994 365.18 173.608 364.352 173.608 362.588C173.608 360.392 175.336 359.942 177.658 359.582C178.972 359.384 179.89 359.258 179.89 358.25C179.89 357.206 179.134 356.612 177.802 356.612C176.29 356.612 175.534 357.26 175.48 358.664H174.076C174.13 356.864 175.318 355.514 177.784 355.514C179.764 355.514 181.222 356.252 181.222 358.466V362.894C181.222 363.65 181.402 364.064 182.212 363.884H182.266V364.946C182.086 365.018 181.852 365.09 181.474 365.09ZM177.082 364.064C179.026 364.064 179.908 362.642 179.908 361.562V359.978C179.422 360.284 178.576 360.518 177.784 360.662C176.326 360.932 175.156 361.184 175.156 362.552C175.156 363.794 176.128 364.064 177.082 364.064ZM187.77 365.27C186.51 365.27 185.592 364.82 184.836 363.776H184.8V365H183.342V352.13H184.8V357.026H184.836C185.538 356.072 186.474 355.478 187.824 355.478C190.182 355.478 191.784 357.278 191.784 360.374C191.784 363.362 190.29 365.27 187.77 365.27ZM187.662 364.046C189.444 364.046 190.29 362.498 190.29 360.392C190.29 358.304 189.444 356.72 187.68 356.72C185.646 356.72 184.71 358.376 184.71 360.392C184.71 362.48 185.682 364.046 187.662 364.046ZM193.292 365V352.13H194.75V365H193.292ZM200.767 365.252C197.923 365.252 196.267 363.056 196.267 360.356C196.267 357.656 198.031 355.46 200.677 355.46C203.467 355.46 204.961 357.62 204.961 360.698H197.761C197.869 362.588 198.895 364.028 200.767 364.028C202.117 364.028 203.017 363.38 203.341 362.12H204.763C204.331 364.118 202.873 365.252 200.767 365.252ZM200.677 356.612C198.949 356.612 198.013 357.908 197.797 359.6H203.395C203.305 357.746 202.351 356.612 200.677 356.612ZM210.364 365.252C207.592 365.252 205.864 363.056 205.864 360.356C205.864 357.656 207.592 355.46 210.364 355.46C212.56 355.46 214.018 356.72 214.342 358.7H212.866C212.65 357.44 211.768 356.666 210.364 356.666C208.384 356.666 207.358 358.304 207.358 360.356C207.358 362.408 208.384 364.028 210.364 364.028C211.876 364.028 212.776 363.164 212.902 361.724H214.342C214.144 363.956 212.686 365.252 210.364 365.252ZM215.72 365V355.694H217.178V365H215.72ZM215.72 353.93V352.13H217.178V353.93H215.72ZM222.766 365.27C220.228 365.27 218.644 363.362 218.644 360.374C218.644 357.278 220.426 355.478 222.73 355.478C224.044 355.478 225.052 356.126 225.646 357.008H225.682V352.13H227.14V365H225.682V363.866H225.646C224.944 364.766 224.08 365.27 222.766 365.27ZM222.82 364.046C224.89 364.046 225.772 362.498 225.772 360.392C225.772 358.232 224.728 356.72 222.802 356.72C221.038 356.72 220.138 358.304 220.138 360.392C220.138 362.498 221.038 364.046 222.82 364.046ZM233.093 365.252C230.321 365.252 228.593 363.056 228.593 360.356C228.593 357.656 230.321 355.46 233.093 355.46C235.883 355.46 237.575 357.656 237.575 360.356C237.575 363.056 235.883 365.252 233.093 365.252ZM233.093 364.028C235.073 364.028 236.081 362.408 236.081 360.356C236.081 358.304 235.073 356.666 233.093 356.666C231.113 356.666 230.087 358.304 230.087 360.356C230.087 362.408 231.113 364.028 233.093 364.028ZM249.202 365.09C248.248 365.09 247.744 364.658 247.6 363.704H247.582C247.024 364.424 246.07 365.18 244.486 365.18C242.722 365.18 241.336 364.352 241.336 362.588C241.336 360.392 243.064 359.942 245.386 359.582C246.7 359.384 247.618 359.258 247.618 358.25C247.618 357.206 246.862 356.612 245.53 356.612C244.018 356.612 243.262 357.26 243.208 358.664H241.804C241.858 356.864 243.046 355.514 245.512 355.514C247.492 355.514 248.95 356.252 248.95 358.466V362.894C248.95 363.65 249.13 364.064 249.94 363.884H249.994V364.946C249.814 365.018 249.58 365.09 249.202 365.09ZM244.81 364.064C246.754 364.064 247.636 362.642 247.636 361.562V359.978C247.15 360.284 246.304 360.518 245.512 360.662C244.054 360.932 242.884 361.184 242.884 362.552C242.884 363.794 243.856 364.064 244.81 364.064ZM252.528 355.694V356.918H252.564C253.23 356.036 254.166 355.478 255.516 355.478C257.46 355.478 258.648 356.54 258.648 358.466V365H257.19V358.592C257.19 357.386 256.398 356.702 255.084 356.702C253.608 356.702 252.528 357.746 252.528 359.276V365H251.07V355.694H252.528ZM259.81 356.882V355.694H261.16V352.76H262.618V355.694H264.418V356.882H262.618V362.93C262.618 363.578 262.96 363.794 263.554 363.794C263.842 363.794 264.166 363.722 264.328 363.668H264.382V364.928C264.04 365 263.644 365.054 263.212 365.054C262.024 365.054 261.16 364.568 261.16 363.254V356.882H259.81ZM269.814 365.252C266.97 365.252 265.314 363.056 265.314 360.356C265.314 357.656 267.078 355.46 269.724 355.46C272.514 355.46 274.008 357.62 274.008 360.698H266.808C266.916 362.588 267.942 364.028 269.814 364.028C271.164 364.028 272.064 363.38 272.388 362.12H273.81C273.378 364.118 271.92 365.252 269.814 365.252ZM269.724 356.612C267.996 356.612 267.06 357.908 266.844 359.6H272.442C272.352 357.746 271.398 356.612 269.724 356.612ZM278.961 365.27C276.405 365.27 274.983 364.064 274.839 361.976H276.333C276.531 363.596 277.611 364.046 278.997 364.046C280.527 364.046 281.157 363.38 281.157 362.516C281.157 361.472 280.437 361.202 278.727 360.842C276.891 360.464 275.253 360.086 275.253 358.052C275.253 356.504 276.441 355.496 278.601 355.496C280.905 355.496 282.039 356.594 282.255 358.412H280.761C280.617 357.188 279.951 356.648 278.565 356.648C277.233 356.648 276.693 357.242 276.693 357.98C276.693 358.988 277.593 359.186 279.195 359.51C281.067 359.888 282.633 360.302 282.633 362.444C282.633 364.316 281.103 365.27 278.961 365.27ZM283.831 365V363.218H285.577V365H283.831Z" fill="#F3EEE1"/>
<path d="M44.248 215.664L47.064 207.408H73.24V207.664C61.72 222.512 51.096 238.448 48.344 254H44.12C48.664 238.64 58.648 224.24 70.232 210.48H55.448C48.408 210.48 47.704 210.8 44.632 215.664H44.248ZM86.303 229.168L87.135 229.616C89.951 231.216 95.519 234.416 95.519 240.816C95.519 248.048 88.863 254.768 79.263 254.768C72.159 254.768 66.335 251.12 66.335 244.016C66.335 236.464 72.863 232.56 80.479 230C77.407 228.08 73.823 224.752 73.823 219.632C73.823 212.464 80.223 206.64 87.903 206.64C93.791 206.64 98.655 210.096 98.655 216.24C98.655 222.96 92.895 226.864 86.303 229.168ZM76.895 218.288C76.895 223.6 81.567 226.48 84.063 227.888L85.599 228.72C91.679 225.904 95.839 221.616 95.839 215.664C95.839 210.928 93.151 207.536 87.967 207.536C81.503 207.536 76.895 212.72 76.895 218.288ZM79.455 253.872C87.327 253.872 92.383 248.432 92.383 242.352C92.383 236.912 87.967 234.288 84.703 232.432L81.631 230.704L81.183 230.448C74.335 233.136 69.215 237.808 69.215 244.592C69.215 250.928 73.631 253.872 79.455 253.872ZM121.582 254.768C116.846 254.768 113.518 251.632 113.518 244.656C113.518 233.776 121.774 219.696 132.206 219.696C136.814 219.696 139.118 222.448 139.118 226.032L136.302 228.912H135.918C136.558 223.024 134.894 220.592 131.758 220.592C124.718 220.592 116.974 232.688 116.974 243.888C116.974 249.776 119.15 252.336 122.862 252.336C127.086 252.336 130.798 249.2 134.638 244.464L135.022 244.72C130.478 251.568 126.446 254.768 121.582 254.768ZM164.123 224.24C164.123 230.128 155.547 233.776 142.491 237.872C142.043 239.856 141.786 241.84 141.786 243.888C141.786 249.776 143.963 252.336 147.675 252.336C151.835 252.336 156.378 249.2 160.219 244.464L160.603 244.72C156.059 251.568 151.195 254.768 146.395 254.768C141.659 254.768 138.331 251.632 138.331 244.656C138.331 234.032 146.139 219.696 157.979 219.696C162.395 219.696 164.123 221.616 164.123 224.24ZM156.955 220.592C151.387 220.592 145.179 228.016 142.747 236.72C154.331 232.752 160.539 230.064 160.539 224.432C160.539 222.384 159.707 220.592 156.955 220.592ZM195.316 244.912L195.636 245.168C192.436 251.184 188.98 254.768 186.612 254.768C184.308 254.768 183.988 252.592 184.884 248.752L188.788 231.856C189.94 226.864 190.708 222.512 187.06 222.512C180.66 222.512 171.7 237.296 168.116 254H164.916L170.74 226.48C171.124 224.688 171.508 222.896 170.356 222.896C169.396 222.896 167.604 224.816 165.044 228.144L164.724 227.888C167.668 222.384 170.676 219.696 172.595 219.696C174.772 219.696 174.9 222 174.132 225.712L170.612 242.096C175.54 228.784 182.964 219.696 188.98 219.696C194.42 219.696 193.46 225.648 191.924 232.304L188.34 247.984C187.956 249.776 187.508 251.568 188.596 251.568C189.556 251.568 191.732 249.776 195.316 244.912ZM217.317 222.512H206.501L201.381 246.448C200.869 248.88 200.741 251.568 202.725 251.568C204.709 251.568 208.357 248.56 212.517 242.992L212.837 243.248C209.189 250.096 203.749 254.768 200.421 254.768C197.413 254.768 197.157 251.056 197.989 247.216L203.301 222.512H199.909L200.036 222L200.997 221.616C203.621 220.592 205.861 218.16 208.165 212.656H208.549L206.885 220.464H218.533L217.317 222.512ZM222.575 216.496L222.383 216.304C224.751 213.104 230.575 204.08 231.279 203.376C231.663 202.992 232.111 202.736 232.623 202.736C233.519 202.736 234.223 203.312 234.223 204.272C234.223 204.976 233.775 205.488 233.391 205.872C231.727 207.472 225.135 213.936 222.575 216.496ZM218.415 254.768C215.855 254.768 216.303 251.312 216.879 248.752L221.615 226.48C221.999 224.688 222.383 222.896 221.231 222.896C220.271 222.896 218.479 224.816 215.919 228.144L215.599 227.888C218.543 222.384 221.551 219.696 223.47 219.696C225.647 219.696 225.775 222 225.007 225.712L220.271 247.984C220.079 248.88 219.567 251.248 220.719 251.248C221.999 251.248 224.751 248.304 227.247 244.912L227.567 245.168C224.367 251.184 220.975 254.768 218.415 254.768ZM279.203 244.912L279.523 245.168C276.323 251.184 272.867 254.768 270.499 254.768C268.195 254.768 267.875 252.592 268.771 248.752L272.675 231.856C273.827 226.864 274.595 222.512 270.947 222.512C264.483 222.512 255.587 237.232 252.003 254H248.803L253.475 231.856C254.499 226.864 255.395 222.512 251.747 222.512C245.347 222.512 236.387 237.296 232.803 254H229.603L235.427 226.48C235.811 224.688 236.195 222.896 235.043 222.896C234.083 222.896 232.291 224.816 229.731 228.144L229.411 227.888C232.355 222.384 235.363 219.696 237.283 219.696C239.459 219.696 239.587 222 238.819 225.712L235.299 242.096C240.227 228.784 247.651 219.696 253.667 219.696C259.107 219.696 258.019 225.648 256.611 232.304L254.499 242.096C259.427 228.784 266.851 219.696 272.867 219.696C278.307 219.696 277.347 225.648 275.811 232.304L272.227 247.984C271.843 249.776 271.395 251.568 272.483 251.568C273.443 251.568 275.619 249.776 279.203 244.912ZM306.248 224.24C306.248 230.128 297.672 233.776 284.616 237.872C284.168 239.856 283.911 241.84 283.911 243.888C283.911 249.776 286.088 252.336 289.8 252.336C293.96 252.336 298.503 249.2 302.344 244.464L302.728 244.72C298.184 251.568 293.32 254.768 288.52 254.768C283.784 254.768 280.456 251.632 280.456 244.656C280.456 234.032 288.264 219.696 300.104 219.696C304.52 219.696 306.248 221.616 306.248 224.24ZM299.08 220.592C293.512 220.592 287.304 228.016 284.872 236.72C296.456 232.752 302.664 230.064 302.664 224.432C302.664 222.384 301.832 220.592 299.08 220.592ZM326.817 222.512H316.001L310.881 246.448C310.369 248.88 310.241 251.568 312.225 251.568C314.209 251.568 317.857 248.56 322.017 242.992L322.337 243.248C318.689 250.096 313.249 254.768 309.921 254.768C306.913 254.768 306.657 251.056 307.489 247.216L312.801 222.512H309.409L309.536 222L310.497 221.616C313.121 220.592 315.361 218.16 317.665 212.656H318.049L316.385 220.464H328.033L326.817 222.512ZM345.643 219.696C346.475 219.696 347.371 219.76 348.203 220.208L346.411 224.176H346.027C345.259 223.792 344.619 223.664 343.851 223.664C337.259 223.664 331.562 239.664 328.491 254H325.291L331.115 226.48C331.499 224.688 331.883 222.896 330.731 222.896C329.771 222.896 327.979 224.816 325.419 228.144L325.099 227.888C328.043 222.384 331.051 219.696 332.97 219.696C335.147 219.696 335.275 222 334.507 225.712L331.627 239.152C335.147 228.528 340.139 219.696 345.643 219.696ZM355.598 254.768C348.942 254.768 344.718 249.904 344.718 241.968C344.718 231.472 352.014 219.696 361.486 219.696C368.142 219.696 372.366 224.56 372.366 232.496C372.366 242.992 365.07 254.768 355.598 254.768ZM355.726 253.872C363.79 253.872 368.91 240.816 368.91 231.216C368.91 224.944 366.478 220.592 361.358 220.592C353.294 220.592 348.174 233.648 348.174 243.248C348.174 249.52 350.606 253.872 355.726 253.872ZM380.606 254.768C376.766 254.768 373.309 253.104 371.901 251.312L373.438 247.088H373.822C374.718 250.672 377.982 253.616 382.078 253.616C386.174 253.616 388.926 250.224 388.926 246.32C388.926 242.864 386.75 241.136 383.678 238.64L381.885 237.168C379.582 235.248 377.47 233.456 377.47 229.296C377.47 224.048 381.63 219.696 387.262 219.696C390.846 219.696 393.662 221.36 395.07 222.512L393.982 226.608H393.598C392.574 223.728 390.142 220.848 386.174 220.848C382.334 220.848 380.158 224.496 380.158 227.632C380.158 230.896 381.95 232.56 384.19 234.416L385.982 235.888C389.566 238.832 391.678 240.816 391.678 244.784C391.678 250.416 386.878 254.768 380.606 254.768Z" fill="#B9D6FE"/>
</svg>
