<svg width="436" height="493" viewBox="0 0 436 493" fill="none" xmlns="http://www.w3.org/2000/svg">
<path d="M0 218C0 97.6019 97.6019 0 218 0V0C338.398 0 436 97.6019 436 218V493H0V218Z" fill="#FD6500"/>
<path d="M168.424 168.224C165.974 168.224 164.42 166.264 164.42 163.212C164.42 160.146 166.002 158.2 168.438 158.2C170.916 158.2 172.428 160.132 172.428 163.212C172.428 166.264 170.916 168.224 168.424 168.224ZM168.438 166.6C169.866 166.6 170.44 165.27 170.44 163.212C170.44 161.182 169.852 159.824 168.438 159.824C167.01 159.824 166.408 161.168 166.408 163.212C166.408 165.242 167.01 166.6 168.438 166.6ZM173.981 168C174.051 166.166 175.199 165.046 176.291 164.192C177.495 163.24 178.811 162.568 178.811 161.336C178.811 160.44 178.335 159.838 177.481 159.838C176.515 159.838 175.941 160.538 175.913 161.784H174.121C174.121 159.6 175.241 158.214 177.523 158.214C179.609 158.214 180.785 159.628 180.785 161.28C180.785 163.086 179.553 163.94 178.377 164.724C177.635 165.2 176.767 165.816 176.445 166.432H180.869V168H173.981ZM182.227 168L186.147 157.99H187.659L183.739 168H182.227ZM197.026 168.21C194.212 168.21 192.21 166.04 192.21 163.03C192.21 160.062 194.058 157.794 197.012 157.794C199.476 157.794 200.932 159.264 201.142 161.168H199.126C198.944 160.16 198.188 159.502 197.012 159.502C195.164 159.502 194.282 161.042 194.282 163.03C194.282 165.074 195.346 166.544 197.026 166.544C198.216 166.544 199.056 165.83 199.182 164.78H201.17C201.114 165.662 200.736 166.516 200.064 167.146C199.378 167.79 198.412 168.21 197.026 168.21ZM203.054 168V157.99H205.084V161.91H209.018V157.99H211.048V168H209.018V163.59H205.084V168H203.054ZM212.695 168L216.181 157.99H218.281L221.809 168H219.695L219.023 165.872H215.411L214.753 168H212.695ZM216.783 161.434L215.887 164.318H218.533L217.637 161.434C217.469 160.902 217.231 159.894 217.231 159.894H217.203C217.203 159.894 216.951 160.902 216.783 161.434ZM231.023 168.588L229.861 167.538C229.147 167.972 228.279 168.224 227.299 168.224C224.345 168.224 222.497 166.012 222.497 163.016C222.497 160.02 224.345 157.794 227.299 157.794C230.253 157.794 232.087 160.02 232.087 163.016C232.087 164.388 231.695 165.592 230.995 166.502L232.059 167.454L231.023 168.588ZM227.313 166.558C227.761 166.558 228.153 166.474 228.489 166.292L227.607 165.48L228.643 164.36L229.553 165.2C229.861 164.598 230.015 163.842 230.015 163.016C230.015 161.014 229.147 159.46 227.313 159.46C225.479 159.46 224.569 161.014 224.569 163.016C224.569 165.004 225.479 166.558 227.313 166.558ZM237.903 168.168C235.313 168.168 233.955 166.95 233.955 164.78V157.99H235.985V164.78C235.985 165.816 236.503 166.544 237.861 166.544C239.149 166.544 239.751 165.788 239.751 164.752V157.99H241.781V164.78C241.781 166.922 240.465 168.168 237.903 168.168ZM244.08 168V157.99H251.444V159.698H246.11V161.938H250.786V163.604H246.11V166.306H251.486V168H244.08ZM253.07 159.698V157.99H261.12V159.698H258.11V168H256.08V159.698H253.07ZM261.001 168L264.487 157.99H266.587L270.115 168H268.001L267.329 165.872H263.717L263.059 168H261.001ZM265.089 161.434L264.193 164.318H266.839L265.943 161.434C265.775 160.902 265.537 159.894 265.537 159.894H265.509C265.509 159.894 265.257 160.902 265.089 161.434Z" fill="#F3EEE1"/>
<path d="M38.8411 323.252C35.2231 323.252 33.4951 321.236 33.3511 318.644H34.9351C35.1511 320.822 36.4831 321.956 38.9131 321.956C40.6951 321.956 41.9731 321.146 41.9731 319.544C41.9731 317.78 40.4251 317.366 38.1211 316.862C35.8531 316.358 33.9091 315.71 33.9091 313.28C33.9091 311.156 35.6731 309.878 38.2831 309.878C41.5051 309.878 42.8371 311.516 43.1611 313.892H41.6311C41.3971 312.056 40.2091 311.138 38.3191 311.138C36.5731 311.138 35.4211 311.876 35.4211 313.208C35.4211 314.666 36.8611 315.098 38.7871 315.476C41.2891 315.98 43.5751 316.592 43.5751 319.49C43.5751 321.902 41.6131 323.252 38.8411 323.252ZM49.1907 323.252C46.3467 323.252 44.6907 321.056 44.6907 318.356C44.6907 315.656 46.4547 313.46 49.1007 313.46C51.8907 313.46 53.3847 315.62 53.3847 318.698H46.1847C46.2927 320.588 47.3187 322.028 49.1907 322.028C50.5407 322.028 51.4407 321.38 51.7647 320.12H53.1867C52.7547 322.118 51.2967 323.252 49.1907 323.252ZM49.1007 314.612C47.3727 314.612 46.4367 315.908 46.2207 317.6H51.8187C51.7287 315.746 50.7747 314.612 49.1007 314.612ZM58.4103 323.27C55.8723 323.27 54.2883 321.362 54.2883 318.374C54.2883 315.278 56.0703 313.478 58.3743 313.478C59.6883 313.478 60.6963 314.126 61.2903 315.008H61.3263V310.13H62.7843V323H61.3263V321.866H61.2903C60.5883 322.766 59.7243 323.27 58.4103 323.27ZM58.4643 322.046C60.5343 322.046 61.4163 320.498 61.4163 318.392C61.4163 316.232 60.3723 314.72 58.4463 314.72C56.6823 314.72 55.7823 316.304 55.7823 318.392C55.7823 320.498 56.6823 322.046 58.4643 322.046ZM72.0675 323.09C71.1135 323.09 70.6095 322.658 70.4655 321.704H70.4475C69.8895 322.424 68.9355 323.18 67.3515 323.18C65.5875 323.18 64.2015 322.352 64.2015 320.588C64.2015 318.392 65.9295 317.942 68.2515 317.582C69.5655 317.384 70.4835 317.258 70.4835 316.25C70.4835 315.206 69.7275 314.612 68.3955 314.612C66.8835 314.612 66.1275 315.26 66.0735 316.664H64.6695C64.7235 314.864 65.9115 313.514 68.3775 313.514C70.3575 313.514 71.8155 314.252 71.8155 316.466V320.894C71.8155 321.65 71.9955 322.064 72.8055 321.884H72.8595V322.946C72.6795 323.018 72.4455 323.09 72.0675 323.09ZM67.6755 322.064C69.6195 322.064 70.5015 320.642 70.5015 319.562V317.978C70.0155 318.284 69.1695 318.518 68.3775 318.662C66.9195 318.932 65.7495 319.184 65.7495 320.552C65.7495 321.794 66.7215 322.064 67.6755 322.064ZM80.3285 323.27C77.7725 323.27 76.3505 322.064 76.2065 319.976H77.7005C77.8985 321.596 78.9785 322.046 80.3645 322.046C81.8945 322.046 82.5245 321.38 82.5245 320.516C82.5245 319.472 81.8045 319.202 80.0945 318.842C78.2585 318.464 76.6205 318.086 76.6205 316.052C76.6205 314.504 77.8085 313.496 79.9685 313.496C82.2725 313.496 83.4065 314.594 83.6225 316.412H82.1285C81.9845 315.188 81.3185 314.648 79.9325 314.648C78.6005 314.648 78.0605 315.242 78.0605 315.98C78.0605 316.988 78.9605 317.186 80.5625 317.51C82.4345 317.888 84.0005 318.302 84.0005 320.444C84.0005 322.316 82.4705 323.27 80.3285 323.27ZM92.7921 323.09C91.8381 323.09 91.3341 322.658 91.1901 321.704H91.1721C90.6141 322.424 89.6601 323.18 88.0761 323.18C86.3121 323.18 84.9261 322.352 84.9261 320.588C84.9261 318.392 86.6541 317.942 88.9761 317.582C90.2901 317.384 91.2081 317.258 91.2081 316.25C91.2081 315.206 90.4521 314.612 89.1201 314.612C87.6081 314.612 86.8521 315.26 86.7981 316.664H85.3941C85.4481 314.864 86.6361 313.514 89.1021 313.514C91.0821 313.514 92.5401 314.252 92.5401 316.466V320.894C92.5401 321.65 92.7201 322.064 93.5301 321.884H93.5841V322.946C93.4041 323.018 93.1701 323.09 92.7921 323.09ZM88.4001 322.064C90.3441 322.064 91.2261 320.642 91.2261 319.562V317.978C90.7401 318.284 89.8941 318.518 89.1021 318.662C87.6441 318.932 86.4741 319.184 86.4741 320.552C86.4741 321.794 87.4461 322.064 88.4001 322.064ZM94.7139 323V310.13H96.1719V323H94.7139ZM100.515 323L97.2567 313.694H98.8227L100.749 319.598C101.019 320.426 101.361 321.56 101.361 321.56H101.397C101.397 321.56 101.739 320.408 102.009 319.598L103.971 313.694H105.483L102.135 323H100.515ZM113.552 323.09C112.598 323.09 112.094 322.658 111.95 321.704H111.932C111.374 322.424 110.42 323.18 108.836 323.18C107.072 323.18 105.686 322.352 105.686 320.588C105.686 318.392 107.414 317.942 109.736 317.582C111.05 317.384 111.968 317.258 111.968 316.25C111.968 315.206 111.212 314.612 109.88 314.612C108.368 314.612 107.612 315.26 107.558 316.664H106.154C106.208 314.864 107.396 313.514 109.862 313.514C111.842 313.514 113.3 314.252 113.3 316.466V320.894C113.3 321.65 113.48 322.064 114.29 321.884H114.344V322.946C114.164 323.018 113.93 323.09 113.552 323.09ZM109.16 322.064C111.104 322.064 111.986 320.642 111.986 319.562V317.978C111.5 318.284 110.654 318.518 109.862 318.662C108.404 318.932 107.234 319.184 107.234 320.552C107.234 321.794 108.206 322.064 109.16 322.064ZM114.736 325.646C114.412 325.646 114.16 325.61 113.926 325.574V324.386H113.962C114.142 324.422 114.304 324.44 114.466 324.44C115.096 324.44 115.42 324.17 115.42 323.54V313.694H116.878V323.612C116.878 325.34 115.924 325.646 114.736 325.646ZM115.42 311.93V310.13H116.878V311.93H115.42ZM122.843 323.252C119.999 323.252 118.343 321.056 118.343 318.356C118.343 315.656 120.107 313.46 122.753 313.46C125.543 313.46 127.037 315.62 127.037 318.698H119.837C119.945 320.588 120.971 322.028 122.843 322.028C124.193 322.028 125.093 321.38 125.417 320.12H126.839C126.407 322.118 124.949 323.252 122.843 323.252ZM122.753 314.612C121.025 314.612 120.089 315.908 119.873 317.6H125.471C125.381 315.746 124.427 314.612 122.753 314.612ZM135.306 323.252C132.534 323.252 130.806 321.056 130.806 318.356C130.806 315.656 132.534 313.46 135.306 313.46C137.502 313.46 138.96 314.72 139.284 316.7H137.808C137.592 315.44 136.71 314.666 135.306 314.666C133.326 314.666 132.3 316.304 132.3 318.356C132.3 320.408 133.326 322.028 135.306 322.028C136.818 322.028 137.718 321.164 137.844 319.724H139.284C139.086 321.956 137.628 323.252 135.306 323.252ZM142.12 313.694V315.242H142.156C142.714 314.342 143.686 313.586 144.928 313.586C145.198 313.586 145.342 313.622 145.522 313.694V315.098H145.468C145.252 315.026 145.108 315.008 144.82 315.008C143.38 315.008 142.12 316.088 142.12 317.834V323H140.662V313.694H142.12ZM154.212 323H152.754V321.722H152.718C152.052 322.622 151.26 323.216 149.91 323.216C148.002 323.216 146.778 322.064 146.778 320.138V313.694H148.236V320.102C148.236 321.308 149.01 322.01 150.324 322.01C151.8 322.01 152.754 320.894 152.754 319.418V313.694H154.212V323ZM159.783 323.27C157.245 323.27 155.661 321.362 155.661 318.374C155.661 315.278 157.443 313.478 159.747 313.478C161.061 313.478 162.069 314.126 162.663 315.008H162.699V310.13H164.157V323H162.699V321.866H162.663C161.961 322.766 161.097 323.27 159.783 323.27ZM159.837 322.046C161.907 322.046 162.789 320.498 162.789 318.392C162.789 316.232 161.745 314.72 159.819 314.72C158.055 314.72 157.155 316.304 157.155 318.392C157.155 320.498 158.055 322.046 159.837 322.046ZM173.441 323.09C172.487 323.09 171.983 322.658 171.839 321.704H171.821C171.263 322.424 170.309 323.18 168.725 323.18C166.961 323.18 165.575 322.352 165.575 320.588C165.575 318.392 167.303 317.942 169.625 317.582C170.939 317.384 171.857 317.258 171.857 316.25C171.857 315.206 171.101 314.612 169.769 314.612C168.257 314.612 167.501 315.26 167.447 316.664H166.043C166.097 314.864 167.285 313.514 169.751 313.514C171.731 313.514 173.189 314.252 173.189 316.466V320.894C173.189 321.65 173.369 322.064 174.179 321.884H174.233V322.946C174.053 323.018 173.819 323.09 173.441 323.09ZM169.049 322.064C170.993 322.064 171.875 320.642 171.875 319.562V317.978C171.389 318.284 170.543 318.518 169.751 318.662C168.293 318.932 167.123 319.184 167.123 320.552C167.123 321.794 168.095 322.064 169.049 322.064ZM175.392 325.304V324.494C175.788 324.35 176.202 324.008 176.202 323H175.374V321.218H177.12V323.054C177.12 324.368 176.418 325.106 175.392 325.304ZM185.738 323.252C182.966 323.252 181.238 321.056 181.238 318.356C181.238 315.656 182.966 313.46 185.738 313.46C187.934 313.46 189.392 314.72 189.716 316.7H188.24C188.024 315.44 187.142 314.666 185.738 314.666C183.758 314.666 182.732 316.304 182.732 318.356C182.732 320.408 183.758 322.028 185.738 322.028C187.25 322.028 188.15 321.164 188.276 319.724H189.716C189.518 321.956 188.06 323.252 185.738 323.252ZM195.072 323.252C192.228 323.252 190.572 321.056 190.572 318.356C190.572 315.656 192.336 313.46 194.982 313.46C197.772 313.46 199.266 315.62 199.266 318.698H192.066C192.174 320.588 193.2 322.028 195.072 322.028C196.422 322.028 197.322 321.38 197.646 320.12H199.068C198.636 322.118 197.178 323.252 195.072 323.252ZM194.982 314.612C193.254 314.612 192.318 315.908 192.102 317.6H197.7C197.61 315.746 196.656 314.612 194.982 314.612ZM202.149 313.694V314.918H202.185C202.851 314.036 203.787 313.478 205.137 313.478C207.081 313.478 208.269 314.54 208.269 316.466V323H206.811V316.592C206.811 315.386 206.019 314.702 204.705 314.702C203.229 314.702 202.149 315.746 202.149 317.276V323H200.691V313.694H202.149ZM205.623 312.182C204.759 312.182 203.949 311.606 203.463 311.606C203.211 311.606 203.067 311.822 203.049 312.146H201.969C202.059 311.12 202.509 310.49 203.355 310.49C204.327 310.49 204.795 311.066 205.461 311.066C205.803 311.066 205.911 310.814 205.947 310.526H206.991C206.937 311.444 206.559 312.182 205.623 312.182ZM210.201 323V313.694H211.659V323H210.201ZM210.201 311.93V310.13H211.659V311.93H210.201ZM217.246 323.27C214.708 323.27 213.124 321.362 213.124 318.374C213.124 315.278 214.906 313.478 217.21 313.478C218.524 313.478 219.532 314.126 220.126 315.008H220.162V310.13H221.62V323H220.162V321.866H220.126C219.424 322.766 218.56 323.27 217.246 323.27ZM217.3 322.046C219.37 322.046 220.252 320.498 220.252 318.392C220.252 316.232 219.208 314.72 217.282 314.72C215.518 314.72 214.618 316.304 214.618 318.392C214.618 320.498 215.518 322.046 217.3 322.046ZM230.903 323.09C229.949 323.09 229.445 322.658 229.301 321.704H229.283C228.725 322.424 227.771 323.18 226.187 323.18C224.423 323.18 223.037 322.352 223.037 320.588C223.037 318.392 224.765 317.942 227.087 317.582C228.401 317.384 229.319 317.258 229.319 316.25C229.319 315.206 228.563 314.612 227.231 314.612C225.719 314.612 224.963 315.26 224.909 316.664H223.505C223.559 314.864 224.747 313.514 227.213 313.514C229.193 313.514 230.651 314.252 230.651 316.466V320.894C230.651 321.65 230.831 322.064 231.641 321.884H231.695V322.946C231.515 323.018 231.281 323.09 230.903 323.09ZM226.511 322.064C228.455 322.064 229.337 320.642 229.337 319.562V317.978C228.851 318.284 228.005 318.518 227.213 318.662C225.755 318.932 224.585 319.184 224.585 320.552C224.585 321.794 225.557 322.064 226.511 322.064ZM242.944 323.09C241.99 323.09 241.486 322.658 241.342 321.704H241.324C240.766 322.424 239.812 323.18 238.228 323.18C236.464 323.18 235.078 322.352 235.078 320.588C235.078 318.392 236.806 317.942 239.128 317.582C240.442 317.384 241.36 317.258 241.36 316.25C241.36 315.206 240.604 314.612 239.272 314.612C237.76 314.612 237.004 315.26 236.95 316.664H235.546C235.6 314.864 236.788 313.514 239.254 313.514C241.234 313.514 242.692 314.252 242.692 316.466V320.894C242.692 321.65 242.872 322.064 243.682 321.884H243.736V322.946C243.556 323.018 243.322 323.09 242.944 323.09ZM238.552 322.064C240.496 322.064 241.378 320.642 241.378 319.562V317.978C240.892 318.284 240.046 318.518 239.254 318.662C237.796 318.932 236.626 319.184 236.626 320.552C236.626 321.794 237.598 322.064 238.552 322.064ZM244.866 323V310.13H246.324V323H244.866ZM250.634 314.882V313.694H251.984V310.76H253.442V313.694H255.242V314.882H253.442V320.93C253.442 321.578 253.784 321.794 254.378 321.794C254.666 321.794 254.99 321.722 255.152 321.668H255.206V322.928C254.864 323 254.468 323.054 254.036 323.054C252.848 323.054 251.984 322.568 251.984 321.254V314.882H250.634ZM260.638 323.252C257.866 323.252 256.138 321.056 256.138 318.356C256.138 315.656 257.866 313.46 260.638 313.46C263.428 313.46 265.12 315.656 265.12 318.356C265.12 321.056 263.428 323.252 260.638 323.252ZM260.638 322.028C262.618 322.028 263.626 320.408 263.626 318.356C263.626 316.304 262.618 314.666 260.638 314.666C258.658 314.666 257.632 316.304 257.632 318.356C257.632 320.408 258.658 322.028 260.638 322.028ZM268.032 313.694V315.242H268.068C268.626 314.342 269.598 313.586 270.84 313.586C271.11 313.586 271.254 313.622 271.434 313.694V315.098H271.38C271.164 315.026 271.02 315.008 270.732 315.008C269.292 315.008 268.032 316.088 268.032 317.834V323H266.574V313.694H268.032ZM276.272 323.27C273.716 323.27 272.294 322.064 272.15 319.976H273.644C273.842 321.596 274.922 322.046 276.308 322.046C277.838 322.046 278.468 321.38 278.468 320.516C278.468 319.472 277.748 319.202 276.038 318.842C274.202 318.464 272.564 318.086 272.564 316.052C272.564 314.504 273.752 313.496 275.912 313.496C278.216 313.496 279.35 314.594 279.566 316.412H278.072C277.928 315.188 277.262 314.648 275.876 314.648C274.544 314.648 274.004 315.242 274.004 315.98C274.004 316.988 274.904 317.186 276.506 317.51C278.378 317.888 279.944 318.302 279.944 320.444C279.944 322.316 278.414 323.27 276.272 323.27ZM285.493 323.252C282.721 323.252 280.993 321.056 280.993 318.356C280.993 315.656 282.721 313.46 285.493 313.46C288.283 313.46 289.975 315.656 289.975 318.356C289.975 321.056 288.283 323.252 285.493 323.252ZM285.493 322.028C287.473 322.028 288.481 320.408 288.481 318.356C288.481 316.304 287.473 314.666 285.493 314.666C283.513 314.666 282.487 316.304 282.487 318.356C282.487 320.408 283.513 322.028 285.493 322.028ZM290.774 323V321.218H292.52V323H290.774ZM296.35 323L301.084 310.13H302.902L307.654 323H305.89L304.522 319.076H299.392L298.006 323H296.35ZM301.39 313.442L299.86 317.762H304.072L302.596 313.442C302.344 312.722 302.02 311.624 302.02 311.624H301.984C301.984 311.624 301.642 312.704 301.39 313.442ZM315.948 323H314.49V321.722H314.454C313.788 322.622 312.996 323.216 311.646 323.216C309.738 323.216 308.514 322.064 308.514 320.138V313.694H309.972V320.102C309.972 321.308 310.746 322.01 312.06 322.01C313.536 322.01 314.49 320.894 314.49 319.418V313.694H315.948V323ZM321.448 323.27C318.892 323.27 317.47 322.064 317.326 319.976H318.82C319.018 321.596 320.098 322.046 321.484 322.046C323.014 322.046 323.644 321.38 323.644 320.516C323.644 319.472 322.924 319.202 321.214 318.842C319.378 318.464 317.74 318.086 317.74 316.052C317.74 314.504 318.928 313.496 321.088 313.496C323.392 313.496 324.526 314.594 324.742 316.412H323.248C323.104 315.188 322.438 314.648 321.052 314.648C319.72 314.648 319.18 315.242 319.18 315.98C319.18 316.988 320.08 317.186 321.682 317.51C323.554 317.888 325.12 318.302 325.12 320.444C325.12 322.316 323.59 323.27 321.448 323.27ZM330.669 323.252C327.825 323.252 326.169 321.056 326.169 318.356C326.169 315.656 327.933 313.46 330.579 313.46C333.369 313.46 334.863 315.62 334.863 318.698H327.663C327.771 320.588 328.797 322.028 330.669 322.028C332.019 322.028 332.919 321.38 333.243 320.12H334.665C334.233 322.118 332.775 323.252 330.669 323.252ZM330.579 314.612C328.851 314.612 327.915 315.908 327.699 317.6H333.297C333.207 315.746 332.253 314.612 330.579 314.612ZM337.747 313.694V314.918H337.783C338.449 314.036 339.385 313.478 340.735 313.478C342.679 313.478 343.867 314.54 343.867 316.466V323H342.409V316.592C342.409 315.386 341.617 314.702 340.303 314.702C338.827 314.702 337.747 315.746 337.747 317.276V323H336.289V313.694H337.747ZM349.777 323.252C347.005 323.252 345.277 321.056 345.277 318.356C345.277 315.656 347.005 313.46 349.777 313.46C351.973 313.46 353.431 314.72 353.755 316.7H352.279C352.063 315.44 351.181 314.666 349.777 314.666C347.797 314.666 346.771 316.304 346.771 318.356C346.771 320.408 347.797 322.028 349.777 322.028C351.289 322.028 352.189 321.164 352.315 319.724H353.755C353.557 321.956 352.099 323.252 349.777 323.252ZM355.133 323V313.694H356.591V323H355.133ZM355.133 311.93V310.13H356.591V311.93H355.133ZM365.886 323.09C364.932 323.09 364.428 322.658 364.284 321.704H364.266C363.708 322.424 362.754 323.18 361.17 323.18C359.406 323.18 358.02 322.352 358.02 320.588C358.02 318.392 359.748 317.942 362.07 317.582C363.384 317.384 364.302 317.258 364.302 316.25C364.302 315.206 363.546 314.612 362.214 314.612C360.702 314.612 359.946 315.26 359.892 316.664H358.488C358.542 314.864 359.73 313.514 362.196 313.514C364.176 313.514 365.634 314.252 365.634 316.466V320.894C365.634 321.65 365.814 322.064 366.624 321.884H366.678V322.946C366.498 323.018 366.264 323.09 365.886 323.09ZM361.494 322.064C363.438 322.064 364.32 320.642 364.32 319.562V317.978C363.834 318.284 362.988 318.518 362.196 318.662C360.738 318.932 359.568 319.184 359.568 320.552C359.568 321.794 360.54 322.064 361.494 322.064ZM370.025 314.882V313.694H371.375V310.76H372.833V313.694H374.633V314.882H372.833V320.93C372.833 321.578 373.175 321.794 373.769 321.794C374.057 321.794 374.381 321.722 374.543 321.668H374.597V322.928C374.255 323 373.859 323.054 373.427 323.054C372.239 323.054 371.375 322.568 371.375 321.254V314.882H370.025ZM380.029 323.252C377.257 323.252 375.529 321.056 375.529 318.356C375.529 315.656 377.257 313.46 380.029 313.46C382.819 313.46 384.511 315.656 384.511 318.356C384.511 321.056 382.819 323.252 380.029 323.252ZM380.029 322.028C382.009 322.028 383.017 320.408 383.017 318.356C383.017 316.304 382.009 314.666 380.029 314.666C378.049 314.666 377.023 316.304 377.023 318.356C377.023 320.408 378.049 322.028 380.029 322.028ZM385.195 314.882V313.694H386.545V310.76H388.003V313.694H389.803V314.882H388.003V320.93C388.003 321.578 388.345 321.794 388.939 321.794C389.227 321.794 389.551 321.722 389.713 321.668H389.767V322.928C389.425 323 389.029 323.054 388.597 323.054C387.409 323.054 386.545 322.568 386.545 321.254V314.882H385.195ZM398.616 323.09C397.662 323.09 397.158 322.658 397.014 321.704H396.996C396.438 322.424 395.484 323.18 393.9 323.18C392.136 323.18 390.75 322.352 390.75 320.588C390.75 318.392 392.478 317.942 394.8 317.582C396.114 317.384 397.032 317.258 397.032 316.25C397.032 315.206 396.276 314.612 394.944 314.612C393.432 314.612 392.676 315.26 392.622 316.664H391.218C391.272 314.864 392.46 313.514 394.926 313.514C396.906 313.514 398.364 314.252 398.364 316.466V320.894C398.364 321.65 398.544 322.064 399.354 321.884H399.408V322.946C399.228 323.018 398.994 323.09 398.616 323.09ZM394.224 322.064C396.168 322.064 397.05 320.642 397.05 319.562V317.978C396.564 318.284 395.718 318.518 394.926 318.662C393.468 318.932 392.298 319.184 392.298 320.552C392.298 321.794 393.27 322.064 394.224 322.064ZM400.538 323V310.13H401.996V323H400.538ZM35.55 344.27C33.012 344.27 31.428 342.362 31.428 339.374C31.428 336.278 33.21 334.478 35.514 334.478C36.828 334.478 37.836 335.126 38.43 336.008H38.466V331.13H39.924V344H38.466V342.866H38.43C37.728 343.766 36.864 344.27 35.55 344.27ZM35.604 343.046C37.674 343.046 38.556 341.498 38.556 339.392C38.556 337.232 37.512 335.72 35.586 335.72C33.822 335.72 32.922 337.304 32.922 339.392C32.922 341.498 33.822 343.046 35.604 343.046ZM45.8772 344.252C43.0332 344.252 41.3772 342.056 41.3772 339.356C41.3772 336.656 43.1412 334.46 45.7872 334.46C48.5772 334.46 50.0712 336.62 50.0712 339.698H42.8712C42.9792 341.588 44.0052 343.028 45.8772 343.028C47.2272 343.028 48.1272 342.38 48.4512 341.12H49.8732C49.4412 343.118 47.9832 344.252 45.8772 344.252ZM45.7872 335.612C44.0592 335.612 43.1232 336.908 42.9072 338.6H48.5052C48.4152 336.746 47.4612 335.612 45.7872 335.612ZM55.8201 331.13V335.918H55.8561C56.5221 335.036 57.4581 334.478 58.8081 334.478C60.7521 334.478 61.9401 335.54 61.9401 337.466V344H60.4821V337.592C60.4821 336.386 59.6901 335.702 58.3761 335.702C56.9001 335.702 55.8201 336.746 55.8201 338.276V344H54.3621V331.13H55.8201ZM67.8498 344.252C65.0778 344.252 63.3498 342.056 63.3498 339.356C63.3498 336.656 65.0778 334.46 67.8498 334.46C70.6398 334.46 72.3318 336.656 72.3318 339.356C72.3318 342.056 70.6398 344.252 67.8498 344.252ZM67.8498 343.028C69.8298 343.028 70.8378 341.408 70.8378 339.356C70.8378 337.304 69.8298 335.666 67.8498 335.666C65.8698 335.666 64.8438 337.304 64.8438 339.356C64.8438 341.408 65.8698 343.028 67.8498 343.028ZM73.7859 344V334.694H75.2439V336.026H75.2799C75.8559 335.126 76.8459 334.478 78.0159 334.478C79.1499 334.478 80.0499 335.054 80.4459 336.134H80.4819C81.0759 335.072 82.1919 334.478 83.3259 334.478C84.9819 334.478 86.1519 335.54 86.1519 337.466V344H84.6939V337.538C84.6939 336.386 83.9199 335.702 82.9839 335.702C81.7779 335.702 80.6979 336.746 80.6979 338.204V344H79.2399V337.538C79.2399 336.386 78.5919 335.702 77.6379 335.702C76.5039 335.702 75.2439 336.746 75.2439 338.204V344H73.7859ZM92.5049 344.27C91.2449 344.27 90.3269 343.82 89.5709 342.776H89.5349V344H88.0769V331.13H89.5349V336.026H89.5709C90.2729 335.072 91.2089 334.478 92.5589 334.478C94.9169 334.478 96.5189 336.278 96.5189 339.374C96.5189 342.362 95.0249 344.27 92.5049 344.27ZM92.3969 343.046C94.1789 343.046 95.0249 341.498 95.0249 339.392C95.0249 337.304 94.1789 335.72 92.4149 335.72C90.3809 335.72 89.4449 337.376 89.4449 339.392C89.4449 341.48 90.4169 343.046 92.3969 343.046ZM99.4314 334.694V336.242H99.4674C100.025 335.342 100.997 334.586 102.239 334.586C102.509 334.586 102.653 334.622 102.833 334.694V336.098H102.779C102.563 336.026 102.419 336.008 102.131 336.008C100.691 336.008 99.4314 337.088 99.4314 338.834V344H97.9734V334.694H99.4314ZM107.77 344.252C104.926 344.252 103.27 342.056 103.27 339.356C103.27 336.656 105.034 334.46 107.68 334.46C110.47 334.46 111.964 336.62 111.964 339.698H104.764C104.872 341.588 105.898 343.028 107.77 343.028C109.12 343.028 110.02 342.38 110.344 341.12H111.766C111.334 343.118 109.876 344.252 107.77 344.252ZM107.68 335.612C105.952 335.612 105.016 336.908 104.8 338.6H110.398C110.308 336.746 109.354 335.612 107.68 335.612ZM114.847 334.694V336.242H114.883C115.441 335.342 116.413 334.586 117.655 334.586C117.925 334.586 118.069 334.622 118.249 334.694V336.098H118.195C117.979 336.026 117.835 336.008 117.547 336.008C116.107 336.008 114.847 337.088 114.847 338.834V344H113.389V334.694H114.847ZM126.516 344.09C125.562 344.09 125.058 343.658 124.914 342.704H124.896C124.338 343.424 123.384 344.18 121.8 344.18C120.036 344.18 118.65 343.352 118.65 341.588C118.65 339.392 120.378 338.942 122.7 338.582C124.014 338.384 124.932 338.258 124.932 337.25C124.932 336.206 124.176 335.612 122.844 335.612C121.332 335.612 120.576 336.26 120.522 337.664H119.118C119.172 335.864 120.36 334.514 122.826 334.514C124.806 334.514 126.264 335.252 126.264 337.466V341.894C126.264 342.65 126.444 343.064 127.254 342.884H127.308V343.946C127.128 344.018 126.894 344.09 126.516 344.09ZM122.124 343.064C124.068 343.064 124.95 341.642 124.95 340.562V338.978C124.464 339.284 123.618 339.518 122.826 339.662C121.368 339.932 120.198 340.184 120.198 341.552C120.198 342.794 121.17 343.064 122.124 343.064ZM131.912 344.27C129.356 344.27 127.934 343.064 127.79 340.976H129.284C129.482 342.596 130.562 343.046 131.948 343.046C133.478 343.046 134.108 342.38 134.108 341.516C134.108 340.472 133.388 340.202 131.678 339.842C129.842 339.464 128.204 339.086 128.204 337.052C128.204 335.504 129.392 334.496 131.552 334.496C133.856 334.496 134.99 335.594 135.206 337.412H133.712C133.568 336.188 132.902 335.648 131.516 335.648C130.184 335.648 129.644 336.242 129.644 336.98C129.644 337.988 130.544 338.186 132.146 338.51C134.018 338.888 135.584 339.302 135.584 341.444C135.584 343.316 134.054 344.27 131.912 344.27ZM139.844 344V334.694H141.302V336.026H141.338C141.914 335.126 142.904 334.478 144.074 334.478C145.208 334.478 146.108 335.054 146.504 336.134H146.54C147.134 335.072 148.25 334.478 149.384 334.478C151.04 334.478 152.21 335.54 152.21 337.466V344H150.752V337.538C150.752 336.386 149.978 335.702 149.042 335.702C147.836 335.702 146.756 336.746 146.756 338.204V344H145.298V337.538C145.298 336.386 144.65 335.702 143.696 335.702C142.562 335.702 141.302 336.746 141.302 338.204V344H139.844ZM154.136 344V334.694H155.594V344H154.136ZM154.136 332.93V331.13H155.594V332.93H154.136ZM157.635 344V331.13H159.093V344H157.635ZM161.132 344V334.694H162.59V344H161.132ZM161.132 332.93V331.13H162.59V332.93H161.132ZM163.983 335.882V334.694H165.333V331.76H166.791V334.694H168.591V335.882H166.791V341.93C166.791 342.578 167.133 342.794 167.727 342.794C168.015 342.794 168.339 342.722 168.501 342.668H168.555V343.928C168.213 344 167.817 344.054 167.385 344.054C166.197 344.054 165.333 343.568 165.333 342.254V335.882H163.983ZM177.404 344.09C176.45 344.09 175.946 343.658 175.802 342.704H175.784C175.226 343.424 174.272 344.18 172.688 344.18C170.924 344.18 169.538 343.352 169.538 341.588C169.538 339.392 171.266 338.942 173.588 338.582C174.902 338.384 175.82 338.258 175.82 337.25C175.82 336.206 175.064 335.612 173.732 335.612C172.22 335.612 171.464 336.26 171.41 337.664H170.006C170.06 335.864 171.248 334.514 173.714 334.514C175.694 334.514 177.152 335.252 177.152 337.466V341.894C177.152 342.65 177.332 343.064 178.142 342.884H178.196V343.946C178.016 344.018 177.782 344.09 177.404 344.09ZM173.012 343.064C174.956 343.064 175.838 341.642 175.838 340.562V338.978C175.352 339.284 174.506 339.518 173.714 339.662C172.256 339.932 171.086 340.184 171.086 341.552C171.086 342.794 172.058 343.064 173.012 343.064ZM180.73 334.694V336.242H180.766C181.324 335.342 182.296 334.586 183.538 334.586C183.808 334.586 183.952 334.622 184.132 334.694V336.098H184.078C183.862 336.026 183.718 336.008 183.43 336.008C181.99 336.008 180.73 337.088 180.73 338.834V344H179.272V334.694H180.73ZM189.069 344.252C186.225 344.252 184.569 342.056 184.569 339.356C184.569 336.656 186.333 334.46 188.979 334.46C191.769 334.46 193.263 336.62 193.263 339.698H186.063C186.171 341.588 187.197 343.028 189.069 343.028C190.419 343.028 191.319 342.38 191.643 341.12H193.065C192.633 343.118 191.175 344.252 189.069 344.252ZM188.979 335.612C187.251 335.612 186.315 336.908 186.099 338.6H191.697C191.607 336.746 190.653 335.612 188.979 335.612ZM198.216 344.27C195.66 344.27 194.238 343.064 194.094 340.976H195.588C195.786 342.596 196.866 343.046 198.252 343.046C199.782 343.046 200.412 342.38 200.412 341.516C200.412 340.472 199.692 340.202 197.982 339.842C196.146 339.464 194.508 339.086 194.508 337.052C194.508 335.504 195.696 334.496 197.856 334.496C200.16 334.496 201.294 335.594 201.51 337.412H200.016C199.872 336.188 199.206 335.648 197.82 335.648C196.488 335.648 195.948 336.242 195.948 336.98C195.948 337.988 196.848 338.186 198.45 338.51C200.322 338.888 201.888 339.302 201.888 341.444C201.888 343.316 200.358 344.27 198.216 344.27ZM206.959 340.04V338.798H221.359V340.04H206.959ZM228.127 344.252C225.283 344.252 223.627 342.056 223.627 339.356C223.627 336.656 225.391 334.46 228.037 334.46C230.827 334.46 232.321 336.62 232.321 339.698H225.121C225.229 341.588 226.255 343.028 228.127 343.028C229.477 343.028 230.377 342.38 230.701 341.12H232.123C231.691 343.118 230.233 344.252 228.127 344.252ZM228.037 335.612C226.309 335.612 225.373 336.908 225.157 338.6H230.755C230.665 336.746 229.711 335.612 228.037 335.612ZM233.801 344V331.13H235.259V344H233.801ZM243.871 347.096C241.459 347.096 240.091 346.124 239.929 344.522H241.279C241.423 345.548 242.395 345.944 243.835 345.944C245.545 345.944 246.499 345.17 246.499 343.55V342.236H246.463C245.779 343.118 245.041 343.676 243.709 343.676C241.297 343.676 239.641 341.75 239.641 339.068C239.641 336.17 241.459 334.478 243.619 334.478C244.969 334.478 245.833 335 246.463 335.882H246.499V334.694H247.957V343.496C247.957 345.944 246.337 347.096 243.871 347.096ZM243.781 342.452C245.923 342.452 246.607 340.958 246.607 338.996C246.607 336.962 245.743 335.702 243.763 335.702C242.017 335.702 241.135 337.07 241.135 339.086C241.135 341.12 242.053 342.452 243.781 342.452ZM251.394 334.694V336.242H251.43C251.988 335.342 252.96 334.586 254.202 334.586C254.472 334.586 254.616 334.622 254.796 334.694V336.098H254.742C254.526 336.026 254.382 336.008 254.094 336.008C252.654 336.008 251.394 337.088 251.394 338.834V344H249.936V334.694H251.394ZM263.063 344.09C262.109 344.09 261.605 343.658 261.461 342.704H261.443C260.885 343.424 259.931 344.18 258.347 344.18C256.583 344.18 255.197 343.352 255.197 341.588C255.197 339.392 256.925 338.942 259.247 338.582C260.561 338.384 261.479 338.258 261.479 337.25C261.479 336.206 260.723 335.612 259.391 335.612C257.879 335.612 257.123 336.26 257.069 337.664H255.665C255.719 335.864 256.907 334.514 259.373 334.514C261.353 334.514 262.811 335.252 262.811 337.466V341.894C262.811 342.65 262.991 343.064 263.801 342.884H263.855V343.946C263.675 344.018 263.441 344.09 263.063 344.09ZM258.671 343.064C260.615 343.064 261.497 341.642 261.497 340.562V338.978C261.011 339.284 260.165 339.518 259.373 339.662C257.915 339.932 256.745 340.184 256.745 341.552C256.745 342.794 257.717 343.064 258.671 343.064ZM266.388 334.694V335.918H266.424C267.09 335.036 268.026 334.478 269.376 334.478C271.32 334.478 272.508 335.54 272.508 337.466V344H271.05V337.592C271.05 336.386 270.258 335.702 268.944 335.702C267.468 335.702 266.388 336.746 266.388 338.276V344H264.93V334.694H266.388ZM283.803 346.988V342.866H283.767C283.065 343.766 282.219 344.27 280.887 344.27C278.367 344.27 276.837 342.362 276.837 339.374C276.837 336.278 278.565 334.478 280.833 334.478C282.183 334.478 283.119 335.018 283.767 335.936H283.803V334.694H285.261V346.988H283.803ZM280.959 343.046C283.101 343.046 283.893 341.498 283.893 339.392C283.893 337.232 282.975 335.72 280.941 335.72C279.177 335.72 278.331 337.304 278.331 339.392C278.331 341.498 279.177 343.046 280.959 343.046ZM294.617 344H293.159V342.722H293.123C292.457 343.622 291.665 344.216 290.315 344.216C288.407 344.216 287.183 343.064 287.183 341.138V334.694H288.641V341.102C288.641 342.308 289.415 343.01 290.729 343.01C292.205 343.01 293.159 341.894 293.159 340.418V334.694H294.617V344ZM296.589 344V334.694H298.047V344H296.589ZM296.589 332.93V331.13H298.047V332.93H296.589ZM304.012 344.252C301.168 344.252 299.512 342.056 299.512 339.356C299.512 336.656 301.276 334.46 303.922 334.46C306.712 334.46 308.206 336.62 308.206 339.698H301.006C301.114 341.588 302.14 343.028 304.012 343.028C305.362 343.028 306.262 342.38 306.586 341.12H308.008C307.576 343.118 306.118 344.252 304.012 344.252ZM303.922 335.612C302.194 335.612 301.258 336.908 301.042 338.6H306.64C306.55 336.746 305.596 335.612 303.922 335.612ZM314.06 344.27C312.8 344.27 311.882 343.82 311.126 342.776H311.09V344H309.632V331.13H311.09V336.026H311.126C311.828 335.072 312.764 334.478 314.114 334.478C316.472 334.478 318.074 336.278 318.074 339.374C318.074 342.362 316.58 344.27 314.06 344.27ZM313.952 343.046C315.734 343.046 316.58 341.498 316.58 339.392C316.58 337.304 315.734 335.72 313.97 335.72C311.936 335.72 311 337.376 311 339.392C311 341.48 311.972 343.046 313.952 343.046ZM320.986 334.694V336.242H321.022C321.58 335.342 322.552 334.586 323.794 334.586C324.064 334.586 324.208 334.622 324.388 334.694V336.098H324.334C324.118 336.026 323.974 336.008 323.686 336.008C322.246 336.008 320.986 337.088 320.986 338.834V344H319.528V334.694H320.986ZM329.324 344.252C326.48 344.252 324.824 342.056 324.824 339.356C324.824 336.656 326.588 334.46 329.234 334.46C332.024 334.46 333.518 336.62 333.518 339.698H326.318C326.426 341.588 327.452 343.028 329.324 343.028C330.674 343.028 331.574 342.38 331.898 341.12H333.32C332.888 343.118 331.43 344.252 329.324 344.252ZM329.234 335.612C327.506 335.612 326.57 336.908 326.354 338.6H331.952C331.862 336.746 330.908 335.612 329.234 335.612ZM339.267 334.694V336.242H339.303C339.861 335.342 340.833 334.586 342.075 334.586C342.345 334.586 342.489 334.622 342.669 334.694V336.098H342.615C342.399 336.026 342.255 336.008 341.967 336.008C340.527 336.008 339.267 337.088 339.267 338.834V344H337.809V334.694H339.267ZM347.606 344.252C344.762 344.252 343.106 342.056 343.106 339.356C343.106 336.656 344.87 334.46 347.516 334.46C350.306 334.46 351.8 336.62 351.8 339.698H344.6C344.708 341.588 345.734 343.028 347.606 343.028C348.956 343.028 349.856 342.38 350.18 341.12H351.602C351.17 343.118 349.712 344.252 347.606 344.252ZM347.516 335.612C345.788 335.612 344.852 336.908 344.636 338.6H350.234C350.144 336.746 349.19 335.612 347.516 335.612ZM356.753 344.27C354.197 344.27 352.775 343.064 352.631 340.976H354.125C354.323 342.596 355.403 343.046 356.789 343.046C358.319 343.046 358.949 342.38 358.949 341.516C358.949 340.472 358.229 340.202 356.519 339.842C354.683 339.464 353.045 339.086 353.045 337.052C353.045 335.504 354.233 334.496 356.393 334.496C358.697 334.496 359.831 335.594 360.047 337.412H358.553C358.409 336.188 357.743 335.648 356.357 335.648C355.025 335.648 354.485 336.242 354.485 336.98C354.485 337.988 355.385 338.186 356.987 338.51C358.859 338.888 360.425 339.302 360.425 341.444C360.425 343.316 358.895 344.27 356.753 344.27ZM361.821 346.988V334.694H363.279V336.008H363.315C364.017 335.054 364.953 334.478 366.303 334.478C368.661 334.478 370.299 336.278 370.299 339.374C370.299 342.362 368.769 344.27 366.249 344.27C364.989 344.27 364.089 343.892 363.315 342.902H363.279V346.988H361.821ZM366.141 343.046C367.923 343.046 368.805 341.498 368.805 339.392C368.805 337.304 367.923 335.72 366.159 335.72C364.125 335.72 363.189 337.376 363.189 339.392C363.189 341.408 363.999 343.046 366.141 343.046ZM375.731 344.252C372.887 344.252 371.231 342.056 371.231 339.356C371.231 336.656 372.995 334.46 375.641 334.46C378.431 334.46 379.925 336.62 379.925 339.698H372.725C372.833 341.588 373.859 343.028 375.731 343.028C377.081 343.028 377.981 342.38 378.305 341.12H379.727C379.295 343.118 377.837 344.252 375.731 344.252ZM375.641 335.612C373.913 335.612 372.977 336.908 372.761 338.6H378.359C378.269 336.746 377.315 335.612 375.641 335.612ZM385.328 344.252C382.556 344.252 380.828 342.056 380.828 339.356C380.828 336.656 382.556 334.46 385.328 334.46C387.524 334.46 388.982 335.72 389.306 337.7H387.83C387.614 336.44 386.732 335.666 385.328 335.666C383.348 335.666 382.322 337.304 382.322 339.356C382.322 341.408 383.348 343.028 385.328 343.028C386.84 343.028 387.74 342.164 387.866 340.724H389.306C389.108 342.956 387.65 344.252 385.328 344.252ZM390.09 335.882V334.694H391.44V331.76H392.898V334.694H394.698V335.882H392.898V341.93C392.898 342.578 393.24 342.794 393.834 342.794C394.122 342.794 394.446 342.722 394.608 342.668H394.662V343.928C394.32 344 393.924 344.054 393.492 344.054C392.304 344.054 391.44 343.568 391.44 342.254V335.882H390.09ZM400.094 344.252C397.322 344.252 395.594 342.056 395.594 339.356C395.594 336.656 397.322 334.46 400.094 334.46C402.884 334.46 404.576 336.656 404.576 339.356C404.576 342.056 402.884 344.252 400.094 344.252ZM400.094 343.028C402.074 343.028 403.082 341.408 403.082 339.356C403.082 337.304 402.074 335.666 400.094 335.666C398.114 335.666 397.088 337.304 397.088 339.356C397.088 341.408 398.114 343.028 400.094 343.028ZM149.842 365.09C148.888 365.09 148.384 364.658 148.24 363.704H148.222C147.664 364.424 146.71 365.18 145.126 365.18C143.362 365.18 141.976 364.352 141.976 362.588C141.976 360.392 143.704 359.942 146.026 359.582C147.34 359.384 148.258 359.258 148.258 358.25C148.258 357.206 147.502 356.612 146.17 356.612C144.658 356.612 143.902 357.26 143.848 358.664H142.444C142.498 356.864 143.686 355.514 146.152 355.514C148.132 355.514 149.59 356.252 149.59 358.466V362.894C149.59 363.65 149.77 364.064 150.58 363.884H150.634V364.946C150.454 365.018 150.22 365.09 149.842 365.09ZM145.45 364.064C147.394 364.064 148.276 362.642 148.276 361.562V359.978C147.79 360.284 146.944 360.518 146.152 360.662C144.694 360.932 143.524 361.184 143.524 362.552C143.524 363.794 144.496 364.064 145.45 364.064ZM154.629 365V352.13H156.087V365H154.629ZM162.104 365.252C159.332 365.252 157.604 363.056 157.604 360.356C157.604 357.656 159.332 355.46 162.104 355.46C164.894 355.46 166.586 357.656 166.586 360.356C166.586 363.056 164.894 365.252 162.104 365.252ZM162.104 364.028C164.084 364.028 165.092 362.408 165.092 360.356C165.092 358.304 164.084 356.666 162.104 356.666C160.124 356.666 159.098 358.304 159.098 360.356C159.098 362.408 160.124 364.028 162.104 364.028ZM171.568 365.27C169.012 365.27 167.59 364.064 167.446 361.976H168.94C169.138 363.596 170.218 364.046 171.604 364.046C173.134 364.046 173.764 363.38 173.764 362.516C173.764 361.472 173.044 361.202 171.334 360.842C169.498 360.464 167.86 360.086 167.86 358.052C167.86 356.504 169.048 355.496 171.208 355.496C173.512 355.496 174.646 356.594 174.862 358.412H173.368C173.224 357.188 172.558 356.648 171.172 356.648C169.84 356.648 169.3 357.242 169.3 357.98C169.3 358.988 170.2 359.186 171.802 359.51C173.674 359.888 175.24 360.302 175.24 362.444C175.24 364.316 173.71 365.27 171.568 365.27ZM186.809 365.09C185.855 365.09 185.351 364.658 185.207 363.704H185.189C184.631 364.424 183.677 365.18 182.093 365.18C180.329 365.18 178.943 364.352 178.943 362.588C178.943 360.392 180.671 359.942 182.993 359.582C184.307 359.384 185.225 359.258 185.225 358.25C185.225 357.206 184.469 356.612 183.137 356.612C181.625 356.612 180.869 357.26 180.815 358.664H179.411C179.465 356.864 180.653 355.514 183.119 355.514C185.099 355.514 186.557 356.252 186.557 358.466V362.894C186.557 363.65 186.737 364.064 187.547 363.884H187.601V364.946C187.421 365.018 187.187 365.09 186.809 365.09ZM182.417 364.064C184.361 364.064 185.243 362.642 185.243 361.562V359.978C184.757 360.284 183.911 360.518 183.119 360.662C181.661 360.932 180.491 361.184 180.491 362.552C180.491 363.794 181.463 364.064 182.417 364.064ZM190.135 355.694V356.918H190.171C190.837 356.036 191.773 355.478 193.123 355.478C195.067 355.478 196.255 356.54 196.255 358.466V365H194.797V358.592C194.797 357.386 194.005 356.702 192.691 356.702C191.215 356.702 190.135 357.746 190.135 359.276V365H188.677V355.694H190.135ZM193.609 354.182C192.745 354.182 191.935 353.606 191.449 353.606C191.197 353.606 191.053 353.822 191.035 354.146H189.955C190.045 353.12 190.495 352.49 191.341 352.49C192.313 352.49 192.781 353.066 193.447 353.066C193.789 353.066 193.897 352.814 193.933 352.526H194.977C194.923 353.444 194.545 354.182 193.609 354.182ZM202.164 365.252C199.392 365.252 197.664 363.056 197.664 360.356C197.664 357.656 199.392 355.46 202.164 355.46C204.954 355.46 206.646 357.656 206.646 360.356C206.646 363.056 204.954 365.252 202.164 365.252ZM202.164 364.028C204.144 364.028 205.152 362.408 205.152 360.356C205.152 358.304 204.144 356.666 202.164 356.666C200.184 356.666 199.158 358.304 199.158 360.356C199.158 362.408 200.184 364.028 202.164 364.028ZM211.628 365.27C209.072 365.27 207.65 364.064 207.506 361.976H209C209.198 363.596 210.278 364.046 211.664 364.046C213.194 364.046 213.824 363.38 213.824 362.516C213.824 361.472 213.104 361.202 211.394 360.842C209.558 360.464 207.92 360.086 207.92 358.052C207.92 356.504 209.108 355.496 211.268 355.496C213.572 355.496 214.706 356.594 214.922 358.412H213.428C213.284 357.188 212.618 356.648 211.232 356.648C209.9 356.648 209.36 357.242 209.36 357.98C209.36 358.988 210.26 359.186 211.862 359.51C213.734 359.888 215.3 360.302 215.3 362.444C215.3 364.316 213.77 365.27 211.628 365.27ZM223.161 365.27C220.623 365.27 219.039 363.362 219.039 360.374C219.039 357.278 220.821 355.478 223.125 355.478C224.439 355.478 225.447 356.126 226.041 357.008H226.077V352.13H227.535V365H226.077V363.866H226.041C225.339 364.766 224.475 365.27 223.161 365.27ZM223.215 364.046C225.285 364.046 226.167 362.498 226.167 360.392C226.167 358.232 225.123 356.72 223.197 356.72C221.433 356.72 220.533 358.304 220.533 360.392C220.533 362.498 221.433 364.046 223.215 364.046ZM233.489 365.252C230.645 365.252 228.989 363.056 228.989 360.356C228.989 357.656 230.753 355.46 233.399 355.46C236.189 355.46 237.683 357.62 237.683 360.698H230.483C230.591 362.588 231.617 364.028 233.489 364.028C234.839 364.028 235.739 363.38 236.063 362.12H237.485C237.053 364.118 235.595 365.252 233.489 365.252ZM233.399 356.612C231.671 356.612 230.735 357.908 230.519 359.6H236.117C236.027 357.746 235.073 356.612 233.399 356.612ZM245.681 368.096C243.269 368.096 241.901 367.124 241.739 365.522H243.089C243.233 366.548 244.205 366.944 245.645 366.944C247.355 366.944 248.309 366.17 248.309 364.55V363.236H248.273C247.589 364.118 246.851 364.676 245.519 364.676C243.107 364.676 241.451 362.75 241.451 360.068C241.451 357.17 243.269 355.478 245.429 355.478C246.779 355.478 247.643 356 248.273 356.882H248.309V355.694H249.767V364.496C249.767 366.944 248.147 368.096 245.681 368.096ZM245.591 363.452C247.733 363.452 248.417 361.958 248.417 359.996C248.417 357.962 247.553 356.702 245.573 356.702C243.827 356.702 242.945 358.07 242.945 360.086C242.945 362.12 243.863 363.452 245.591 363.452ZM259.127 365H257.669V363.722H257.633C256.967 364.622 256.175 365.216 254.825 365.216C252.917 365.216 251.693 364.064 251.693 362.138V355.694H253.151V362.102C253.151 363.308 253.925 364.01 255.239 364.01C256.715 364.01 257.669 362.894 257.669 361.418V355.694H259.127V365ZM265.076 365.252C262.232 365.252 260.576 363.056 260.576 360.356C260.576 357.656 262.34 355.46 264.986 355.46C267.776 355.46 269.27 357.62 269.27 360.698H262.07C262.178 362.588 263.204 364.028 265.076 364.028C266.426 364.028 267.326 363.38 267.65 362.12H269.072C268.64 364.118 267.182 365.252 265.076 365.252ZM264.986 356.612C263.258 356.612 262.322 357.908 262.106 359.6H267.704C267.614 357.746 266.66 356.612 264.986 356.612ZM272.154 355.694V357.242H272.19C272.748 356.342 273.72 355.586 274.962 355.586C275.232 355.586 275.376 355.622 275.556 355.694V357.098H275.502C275.286 357.026 275.142 357.008 274.854 357.008C273.414 357.008 272.154 358.088 272.154 359.834V365H270.696V355.694H272.154ZM278.324 355.694V357.242H278.36C278.918 356.342 279.89 355.586 281.132 355.586C281.402 355.586 281.546 355.622 281.726 355.694V357.098H281.672C281.456 357.026 281.312 357.008 281.024 357.008C279.584 357.008 278.324 358.088 278.324 359.834V365H276.866V355.694H278.324ZM289.992 365.09C289.038 365.09 288.534 364.658 288.39 363.704H288.372C287.814 364.424 286.86 365.18 285.276 365.18C283.512 365.18 282.126 364.352 282.126 362.588C282.126 360.392 283.854 359.942 286.176 359.582C287.49 359.384 288.408 359.258 288.408 358.25C288.408 357.206 287.652 356.612 286.32 356.612C284.808 356.612 284.052 357.26 283.998 358.664H282.594C282.648 356.864 283.836 355.514 286.302 355.514C288.282 355.514 289.74 356.252 289.74 358.466V362.894C289.74 363.65 289.92 364.064 290.73 363.884H290.784V364.946C290.604 365.018 290.37 365.09 289.992 365.09ZM285.6 364.064C287.544 364.064 288.426 362.642 288.426 361.562V359.978C287.94 360.284 287.094 360.518 286.302 360.662C284.844 360.932 283.674 361.184 283.674 362.552C283.674 363.794 284.646 364.064 285.6 364.064ZM291.926 365V363.218H293.672V365H291.926Z" fill="#F3EEE1"/>
<path d="M32.2 254.768C27.528 254.768 23.24 253.104 20.168 250.736L21.64 242.928H22.024C23.496 250.608 28.104 253.616 33.608 253.616C40.072 253.616 44.616 249.392 44.616 243.568C44.616 238 40.456 235.056 36.296 231.6L34.056 229.744C31.816 227.888 27.656 224.176 27.656 218.544C27.656 211.696 34.184 206.64 41.736 206.64C45.96 206.64 49.544 208.176 52.872 210.48L51.464 217.136H51.08C50.12 211.76 45.704 207.792 40.136 207.792C34.76 207.792 30.792 211.44 30.792 216.816C30.792 222.064 34.568 225.2 36.808 227.056L39.048 228.912C43.464 232.56 47.752 236.08 47.752 241.84C47.752 249.2 40.712 254.768 32.2 254.768ZM80.903 244.912L81.223 245.168C78.023 251.184 74.567 254.768 72.199 254.768C69.895 254.768 69.575 252.592 70.471 248.752L74.375 231.856C75.527 226.864 76.295 222.512 72.647 222.512C66.183 222.512 57.223 237.296 53.703 254H50.503L59.335 212.016C60.167 207.92 59.463 206.384 57.351 206L57.479 205.616L64.007 203.952H64.263L56.263 241.84C61.191 228.72 68.551 219.696 74.567 219.696C80.007 219.696 79.047 225.648 77.511 232.304L73.927 247.984C73.543 249.776 73.095 251.568 74.183 251.568C75.143 251.568 77.319 249.776 80.903 244.912ZM112.222 244.912L112.542 245.168C109.342 251.184 105.95 254.768 103.39 254.768C100.83 254.768 101.278 251.312 101.854 248.752L103.838 239.472C99.8695 249.328 93.5335 254.768 88.2215 254.768C84.2535 254.768 81.9495 251.632 81.9495 245.744C81.9495 234.288 90.5895 219.696 101.982 219.696C104.734 219.696 106.91 220.528 108.126 222.384L110.814 220.08H111.198L105.246 247.984C105.054 248.88 104.542 251.248 105.694 251.248C106.974 251.248 109.726 248.304 112.222 244.912ZM90.2695 252.464C95.5815 252.464 103.134 243.184 105.758 230.448C105.95 229.552 106.078 228.72 106.078 227.44C106.078 223.6 104.99 220.592 101.086 220.592C92.9575 220.592 85.5335 233.776 85.5335 244.464C85.5335 249.584 87.2615 252.464 90.2695 252.464ZM144.878 244.912L145.198 245.168C141.998 251.184 138.542 254.768 136.174 254.768C133.87 254.768 133.55 252.592 134.446 248.752L138.35 231.856C139.502 226.864 140.27 222.512 136.622 222.512C130.222 222.512 121.262 237.296 117.678 254H114.478L120.302 226.48C120.686 224.688 121.07 222.896 119.918 222.896C118.958 222.896 117.166 224.816 114.606 228.144L114.286 227.888C117.23 222.384 120.238 219.696 122.158 219.696C124.334 219.696 124.462 222 123.694 225.712L120.174 242.096C125.102 228.784 132.526 219.696 138.542 219.696C143.982 219.696 143.022 225.648 141.486 232.304L137.902 247.984C137.518 249.776 137.07 251.568 138.158 251.568C139.118 251.568 141.294 249.776 144.878 244.912ZM166.879 222.512H156.063L150.943 246.448C150.431 248.88 150.303 251.568 152.287 251.568C154.271 251.568 157.919 248.56 162.079 242.992L162.399 243.248C158.751 250.096 153.311 254.768 149.983 254.768C146.975 254.768 146.719 251.056 147.551 247.216L152.863 222.512H149.471L149.599 222L150.559 221.616C153.183 220.592 155.423 218.16 157.727 212.656H158.111L156.447 220.464H168.095L166.879 222.512ZM195.689 244.912L196.009 245.168C192.809 251.184 189.353 254.768 186.793 254.768C184.617 254.768 184.489 252.464 185.257 248.752L188.777 232.368C183.849 245.68 176.425 254.768 170.409 254.768C164.969 254.768 165.929 248.816 167.465 242.16L171.049 226.48C171.433 224.688 171.881 222.896 170.793 222.896C169.769 222.896 167.977 224.816 165.417 228.144L165.097 227.888C168.041 222.384 170.985 219.696 172.777 219.696C175.081 219.696 175.401 221.872 174.505 225.712L170.601 242.608C169.449 247.6 168.681 251.952 172.329 251.952C177.897 251.952 187.177 239.408 191.081 221.168L194.217 220.336H194.473L188.649 247.984C188.265 249.776 187.881 251.568 189.033 251.568C189.993 251.568 192.105 249.776 195.689 244.912ZM228.253 244.912L228.573 245.168C225.373 251.184 221.917 254.768 219.549 254.768C217.245 254.768 216.925 252.592 217.821 248.752L221.725 231.856C222.877 226.864 223.645 222.512 219.997 222.512C213.597 222.512 204.637 237.296 201.053 254H197.853L203.677 226.48C204.061 224.688 204.445 222.896 203.293 222.896C202.333 222.896 200.541 224.816 197.981 228.144L197.661 227.888C200.605 222.384 203.613 219.696 205.533 219.696C207.709 219.696 207.837 222 207.069 225.712L203.549 242.096C208.477 228.784 215.901 219.696 221.917 219.696C227.357 219.696 226.397 225.648 224.861 232.304L221.277 247.984C220.893 249.776 220.445 251.568 221.533 251.568C222.493 251.568 224.669 249.776 228.253 244.912ZM249.943 221.616L259.287 220.08L257.943 223.024L250.711 222.32C252.247 223.92 253.143 226.224 253.143 229.04C253.143 236.016 247.767 242.352 240.599 242.416C236.759 243.632 235.607 244.272 235.607 245.68C235.607 246.448 236.055 247.088 237.463 247.472L244.055 249.264C250.391 250.992 254.423 252.464 254.423 256.816C254.423 263.856 245.655 269.36 236.119 269.36C228.759 269.36 224.919 266.096 224.919 261.168C224.919 257.072 227.735 253.104 233.687 251.248L234.583 251.056L234.839 251.12C229.975 253.296 227.863 256.624 227.863 259.888C227.863 264.112 231.511 267.44 238.679 267.44C246.359 267.44 252.119 263.6 252.119 259.12C252.119 255.152 247.639 253.808 243.799 252.784L235.991 250.672C233.431 249.968 232.407 248.688 232.407 247.024C232.407 244.272 235.159 243.056 238.679 242.288C234.199 241.52 231.319 238.064 231.319 233.008C231.319 226.096 236.695 219.696 243.991 219.696C246.359 219.696 248.343 220.336 249.943 221.616ZM240.407 241.52C246.487 241.52 249.751 233.776 249.751 227.888C249.751 223.408 247.895 220.592 244.183 220.592C237.975 220.592 234.775 228.272 234.775 234.16C234.775 238.704 236.695 241.52 240.407 241.52ZM279.082 254.768C274.346 254.768 271.018 251.632 271.018 244.656C271.018 233.776 279.274 219.696 289.706 219.696C294.314 219.696 296.618 222.448 296.618 226.032L293.802 228.912H293.418C294.058 223.024 292.394 220.592 289.258 220.592C282.218 220.592 274.474 232.688 274.474 243.888C274.474 249.776 276.65 252.336 280.362 252.336C284.586 252.336 288.298 249.2 292.138 244.464L292.522 244.72C287.978 251.568 283.946 254.768 279.082 254.768ZM317.143 219.696C317.975 219.696 318.871 219.76 319.703 220.208L317.911 224.176H317.527C316.759 223.792 316.119 223.664 315.351 223.664C308.759 223.664 303.062 239.664 299.991 254H296.791L302.615 226.48C302.999 224.688 303.383 222.896 302.231 222.896C301.271 222.896 299.479 224.816 296.919 228.144L296.599 227.888C299.543 222.384 302.551 219.696 304.47 219.696C306.647 219.696 306.775 222 306.007 225.712L303.127 239.152C306.647 228.528 311.639 219.696 317.143 219.696ZM348.377 244.912L348.697 245.168C345.497 251.184 342.041 254.768 339.481 254.768C337.305 254.768 337.177 252.464 337.945 248.752L341.465 232.368C336.537 245.68 329.113 254.768 323.097 254.768C317.657 254.768 318.617 248.816 320.153 242.16L323.737 226.48C324.121 224.688 324.569 222.896 323.481 222.896C322.457 222.896 320.665 224.816 318.105 228.144L317.785 227.888C320.729 222.384 323.673 219.696 325.465 219.696C327.769 219.696 328.089 221.872 327.193 225.712L323.289 242.608C322.137 247.6 321.369 251.952 325.017 251.952C330.585 251.952 339.865 239.408 343.769 221.168L346.905 220.336H347.161L341.337 247.984C340.953 249.776 340.569 251.568 341.721 251.568C342.681 251.568 344.793 249.776 348.377 244.912ZM373.069 251.248C374.349 251.248 377.101 248.304 379.597 244.912L379.917 245.168C376.717 251.184 373.325 254.768 370.765 254.768C368.205 254.768 368.653 251.312 369.229 248.752L371.149 239.6C367.245 249.328 360.909 254.768 355.597 254.768C351.629 254.768 349.325 251.632 349.325 245.744C349.325 234.288 357.965 219.696 369.357 219.696C371.725 219.696 373.709 220.336 374.989 221.68L377.037 212.016C377.933 207.92 377.165 206.384 375.117 206L375.181 205.616L381.708 203.952H381.965L372.621 247.984C372.429 248.88 371.917 251.248 373.069 251.248ZM357.645 252.464C362.765 252.464 369.933 243.824 372.813 231.856L373.261 229.744C373.389 229.04 373.453 228.4 373.453 227.44C373.453 223.6 372.365 220.592 368.461 220.592C360.333 220.592 352.909 233.776 352.909 244.464C352.909 249.584 354.637 252.464 357.645 252.464ZM392.285 254.768C385.629 254.768 381.405 249.904 381.405 241.968C381.405 231.472 388.701 219.696 398.173 219.696C404.829 219.696 409.053 224.56 409.053 232.496C409.053 242.992 401.757 254.768 392.285 254.768ZM392.413 253.872C400.477 253.872 405.597 240.816 405.597 231.216C405.597 224.944 403.165 220.592 398.045 220.592C389.981 220.592 384.861 233.648 384.861 243.248C384.861 249.52 387.293 253.872 392.413 253.872Z" fill="#B9D6FE"/>
</svg>
