<svg width="263" height="46" viewBox="0 0 263 46" fill="none" xmlns="http://www.w3.org/2000/svg">
<path d="M247.501 45.3251L15.6101 45.3217C14.7879 45.3192 14.1549 44.7845 14.1555 44.0828L14.1586 39.6038C10.5883 38.7468 7.45393 36.9718 5.03307 34.5556C-0.0998743 29.4326 -1.40667 22.2006 1.57427 15.9149C3.80979 11.2009 8.43689 7.24519 14.2151 5.82981L14.2325 1.21768C14.2348 0.604403 14.8471 0 15.6169 0L247.289 0.00226191C248.142 -0.000882133 248.794 0.562734 248.795 1.2854L248.798 5.84603C250.593 6.25198 252.222 6.87145 253.734 7.74124C259.645 11.1401 263.081 16.8919 262.999 23.0522C262.922 28.7769 259.713 34.1289 254.3 37.3946C252.613 38.4123 250.812 39.1579 248.777 39.59L248.759 44.145C248.757 44.7346 248.257 45.2262 247.501 45.3251ZM247.19 44.4792C247.539 44.4968 247.781 44.3531 247.782 44.0859L247.787 38.944C249.461 38.6218 250.981 38.1268 252.455 37.3856C258.294 34.45 261.897 28.9935 262.013 23.1324C262.13 17.1774 258.782 11.5908 253.028 8.36025C251.445 7.4715 249.731 6.8549 247.833 6.50748L247.82 1.20403C247.819 1.01899 247.514 0.84163 247.285 0.863546L15.7087 0.860643C15.394 0.892176 15.2102 1.04475 15.2102 1.27991L15.2098 6.49996C8.6395 7.81269 3.65568 12.5135 1.78253 18.0358C-0.83513 25.7531 3.18744 34.2881 11.5065 37.8314C12.6849 38.3332 13.8272 38.6904 15.1215 38.9358L15.1202 43.9247C15.1202 44.2459 15.2649 44.4776 15.7107 44.4776L247.19 44.4792Z" fill="#B9D6FE"/>
<path d="M245.438 41.9927L17.6189 41.9928L17.5993 37.0375C15.8025 36.7345 14.1178 36.2579 12.5067 35.4947C8.78847 33.6968 5.97438 30.8491 4.61871 27.3748C3.30379 23.9277 3.53819 20.2502 5.22813 16.9323C7.42476 12.52 12.0806 9.33113 17.6336 8.45635L17.6436 3.33691H245.478L245.494 8.45441C249.157 8.97595 252.39 10.5475 254.892 12.8529C257.972 15.7263 259.538 19.5255 259.304 23.433C259.254 25.3272 258.736 27.076 257.846 28.7901C255.595 33.1247 250.994 36.2589 245.46 37.0411L245.438 41.9927ZM244.056 40.7614L244.055 36.065L244.206 35.9542C251.925 35.2752 257.75 29.7435 257.927 23.1128C258.113 16.14 252.239 10.2382 244.101 9.50526L244.095 4.5581L19.0453 4.5581L19.0211 9.51534C12.8081 10.0778 7.71681 13.7888 5.89049 18.8336C3.69128 24.9084 6.73117 31.4326 13.2954 34.4583C15.048 35.3 16.9819 35.7974 19.0028 35.9767L19.0137 40.7618L244.056 40.7614Z" fill="#B9D6FE"/>
<path d="M244.929 40.8945L19.015 40.8955L19.0041 36.0579C16.9832 35.8766 15.0492 35.3737 13.2967 34.5228C6.73235 31.4638 3.69246 24.868 5.89177 18.7265C7.71808 13.6264 12.8094 9.87455 19.0224 9.30603L19.0466 4.29433L244.968 4.29395L244.974 9.29538C253.112 10.0364 258.986 16.0029 258.8 23.0523C258.623 29.7557 252.798 35.3481 245.08 36.0346L244.928 36.1467L244.929 40.8945Z" fill="#B9D6FE"/>
<path d="M54.3596 27.225C51.6436 27.225 50.1036 26.021 50.0336 23.907H52.0216C52.1616 25.111 52.8476 25.587 54.2756 25.587C55.3116 25.587 56.2216 25.223 56.2216 24.299C56.2216 23.319 55.2696 23.123 53.7436 22.773C51.9516 22.367 50.3136 21.891 50.3136 19.805C50.3136 17.831 51.9236 16.809 54.1496 16.809C56.4036 16.809 57.8596 17.915 58.0136 19.931H56.0676C55.9556 18.923 55.1716 18.419 54.1356 18.419C53.0436 18.419 52.3296 18.881 52.3296 19.595C52.3296 20.407 53.0296 20.645 54.5136 20.967C56.5716 21.415 58.2516 21.905 58.2516 24.061C58.2516 26.091 56.6136 27.225 54.3596 27.225ZM60.304 27.001V16.991H67.668V18.699H62.334V20.939H67.01V22.605H62.334V25.307H67.71V27.001H60.304ZM76.9429 27.001L76.8729 25.657H76.8449C76.1589 26.805 75.2209 27.211 74.0309 27.211C72.5189 27.211 71.3429 26.665 70.5169 25.755C69.6909 24.831 69.2149 23.543 69.2149 22.031C69.2149 20.365 69.8029 18.909 70.8529 17.943C71.6649 17.201 72.7289 16.795 74.0729 16.795C76.5929 16.795 78.0349 18.181 78.3569 20.141H76.3689C76.1449 19.175 75.4029 18.475 74.1149 18.475C72.2249 18.475 71.2869 20.043 71.2869 22.031C71.2869 24.075 72.3649 25.573 74.0869 25.573C75.6409 25.573 76.6629 24.411 76.6629 23.305V23.249H74.2549V21.681H78.4689V27.001H76.9429ZM84.5921 27.169C82.0021 27.169 80.6441 25.951 80.6441 23.781V16.991H82.6741V23.781C82.6741 24.817 83.1921 25.545 84.5501 25.545C85.8381 25.545 86.4401 24.789 86.4401 23.753V16.991H88.4701V23.781C88.4701 25.923 87.1541 27.169 84.5921 27.169ZM90.7833 27.001V16.991H92.8133V27.001H90.7833ZM95.205 27.001V16.991H99.797C101.729 16.991 103.017 18.111 103.017 19.777C103.017 20.953 102.471 21.849 101.183 22.199V22.241C102.107 22.507 102.583 23.039 102.709 24.257C102.849 25.671 102.793 26.749 103.143 26.903V27.001H101.197C100.945 26.889 100.917 25.769 100.833 24.691C100.749 23.599 100.133 22.983 98.873 22.983H97.235V27.001H95.205ZM97.235 18.629V21.415H99.391C100.497 21.415 101.043 20.841 101.043 20.043C101.043 19.231 100.525 18.629 99.447 18.629H97.235ZM108.356 27.001V16.991H112.948C114.88 16.991 116.168 18.111 116.168 19.777C116.168 20.953 115.622 21.849 114.334 22.199V22.241C115.258 22.507 115.734 23.039 115.86 24.257C116 25.671 115.944 26.749 116.294 26.903V27.001H114.348C114.096 26.889 114.068 25.769 113.984 24.691C113.9 23.599 113.284 22.983 112.024 22.983H110.386V27.001H108.356ZM110.386 18.629V21.415H112.542C113.648 21.415 114.194 20.841 114.194 20.043C114.194 19.231 113.676 18.629 112.598 18.629H110.386ZM118.315 27.001V16.991H125.679V18.699H120.345V20.939H125.021V22.605H120.345V25.307H125.721V27.001H118.315ZM132 27.211C129.186 27.211 127.184 25.041 127.184 22.031C127.184 19.063 129.032 16.795 131.986 16.795C134.45 16.795 135.906 18.265 136.116 20.169H134.1C133.918 19.161 133.162 18.503 131.986 18.503C130.138 18.503 129.256 20.043 129.256 22.031C129.256 24.075 130.32 25.545 132 25.545C133.19 25.545 134.03 24.831 134.156 23.781H136.144C136.088 24.663 135.71 25.517 135.038 26.147C134.352 26.791 133.386 27.211 132 27.211ZM142.424 27.225C139.47 27.225 137.594 25.013 137.594 22.017C137.594 19.021 139.47 16.795 142.424 16.795C145.378 16.795 147.24 19.021 147.24 22.017C147.24 25.013 145.378 27.225 142.424 27.225ZM142.438 25.559C144.272 25.559 145.168 24.005 145.168 22.017C145.168 20.015 144.272 18.461 142.438 18.461C140.604 18.461 139.666 20.015 139.666 22.017C139.666 24.005 140.604 25.559 142.438 25.559ZM149.19 27.001V16.991H153.782C155.714 16.991 157.002 18.111 157.002 19.777C157.002 20.953 156.456 21.849 155.168 22.199V22.241C156.092 22.507 156.568 23.039 156.694 24.257C156.834 25.671 156.778 26.749 157.128 26.903V27.001H155.182C154.93 26.889 154.902 25.769 154.818 24.691C154.734 23.599 154.118 22.983 152.858 22.983H151.22V27.001H149.19ZM151.22 18.629V21.415H153.376C154.482 21.415 155.028 20.841 155.028 20.043C155.028 19.231 154.51 18.629 153.432 18.629H151.22ZM159.149 27.001V16.991H163.741C165.673 16.991 166.961 18.111 166.961 19.777C166.961 20.953 166.415 21.849 165.127 22.199V22.241C166.051 22.507 166.527 23.039 166.653 24.257C166.793 25.671 166.737 26.749 167.087 26.903V27.001H165.141C164.889 26.889 164.861 25.769 164.777 24.691C164.693 23.599 164.077 22.983 162.817 22.983H161.179V27.001H159.149ZM161.179 18.629V21.415H163.335C164.441 21.415 164.987 20.841 164.987 20.043C164.987 19.231 164.469 18.629 163.391 18.629H161.179ZM169.123 27.001V16.991H171.153V27.001H169.123ZM173.544 27.001V16.991H180.908V18.699H175.574V20.939H180.25V22.605H175.574V25.307H180.95V27.001H173.544ZM183.052 27.001V16.991H185.11L188.442 22.577C188.764 23.123 189.142 23.977 189.142 23.977H189.17C189.17 23.977 189.114 22.941 189.114 22.241V16.991H191.116V27.001H189.156L185.74 21.471C185.418 20.939 185.026 20.085 185.026 20.085H184.998C184.998 20.085 185.054 21.135 185.054 21.835V27.001H183.052ZM193.49 27.001V16.991H197.396C200.07 16.991 201.792 19.147 201.792 22.101C201.792 23.725 201.246 25.153 200.196 26.035C199.454 26.651 198.488 27.001 197.228 27.001H193.49ZM195.52 25.251H197.088C198.992 25.251 199.734 24.089 199.734 22.101C199.734 20.113 198.866 18.727 197.144 18.727H195.52V25.251ZM208.132 27.225C205.178 27.225 203.302 25.013 203.302 22.017C203.302 19.021 205.178 16.795 208.132 16.795C211.086 16.795 212.948 19.021 212.948 22.017C212.948 25.013 211.086 27.225 208.132 27.225ZM208.146 25.559C209.98 25.559 210.876 24.005 210.876 22.017C210.876 20.015 209.98 18.461 208.146 18.461C206.312 18.461 205.374 20.015 205.374 22.017C205.374 24.005 206.312 25.559 208.146 25.559Z" fill="#141414"/>
</svg>
