<svg width="263" height="46" viewBox="0 0 263 46" fill="none" xmlns="http://www.w3.org/2000/svg">
<path d="M247.501 45.3251L15.6101 45.3217C14.7879 45.3192 14.1549 44.7845 14.1555 44.0828L14.1586 39.6038C10.5883 38.7468 7.45393 36.9718 5.03307 34.5556C-0.0998743 29.4326 -1.40667 22.2006 1.57427 15.9149C3.80979 11.2009 8.43689 7.24519 14.2151 5.82981L14.2325 1.21768C14.2348 0.604403 14.8471 0 15.6169 0L247.289 0.00226191C248.142 -0.000882133 248.794 0.562734 248.795 1.2854L248.798 5.84603C250.593 6.25198 252.222 6.87145 253.734 7.74124C259.645 11.1401 263.081 16.8919 262.999 23.0522C262.922 28.7769 259.713 34.1289 254.3 37.3946C252.613 38.4123 250.812 39.1579 248.777 39.59L248.759 44.145C248.757 44.7346 248.257 45.2262 247.501 45.3251ZM247.19 44.4792C247.539 44.4968 247.781 44.3531 247.782 44.0859L247.787 38.944C249.461 38.6218 250.981 38.1268 252.455 37.3856C258.294 34.45 261.897 28.9935 262.013 23.1324C262.13 17.1774 258.782 11.5908 253.028 8.36025C251.445 7.4715 249.731 6.8549 247.833 6.50748L247.82 1.20403C247.819 1.01899 247.514 0.84163 247.285 0.863546L15.7087 0.860643C15.394 0.892176 15.2102 1.04475 15.2102 1.27991L15.2098 6.49996C8.6395 7.81269 3.65568 12.5135 1.78253 18.0358C-0.83513 25.7531 3.18744 34.2881 11.5065 37.8314C12.6849 38.3332 13.8272 38.6904 15.1215 38.9358L15.1202 43.9247C15.1202 44.2459 15.2649 44.4776 15.7107 44.4776L247.19 44.4792Z" fill="#B9D6FE"/>
<path d="M245.438 41.9927L17.6189 41.9928L17.5993 37.0375C15.8025 36.7345 14.1178 36.2579 12.5067 35.4947C8.78847 33.6968 5.97438 30.8491 4.61871 27.3748C3.30379 23.9277 3.53819 20.2502 5.22813 16.9323C7.42476 12.52 12.0806 9.33113 17.6336 8.45635L17.6436 3.33691H245.478L245.494 8.45441C249.157 8.97595 252.39 10.5475 254.892 12.8529C257.972 15.7263 259.538 19.5255 259.304 23.433C259.254 25.3272 258.736 27.076 257.846 28.7901C255.595 33.1247 250.994 36.2589 245.46 37.0411L245.438 41.9927ZM244.056 40.7614L244.055 36.065L244.206 35.9542C251.925 35.2752 257.75 29.7435 257.927 23.1128C258.113 16.14 252.239 10.2382 244.101 9.50526L244.095 4.5581L19.0453 4.5581L19.0211 9.51534C12.8081 10.0778 7.71681 13.7888 5.89049 18.8336C3.69128 24.9084 6.73117 31.4326 13.2954 34.4583C15.048 35.3 16.9819 35.7974 19.0028 35.9767L19.0137 40.7618L244.056 40.7614Z" fill="#B9D6FE"/>
<path d="M244.929 40.8945L19.015 40.8955L19.0041 36.0579C16.9832 35.8766 15.0492 35.3737 13.2967 34.5228C6.73235 31.4638 3.69246 24.868 5.89177 18.7265C7.71808 13.6264 12.8094 9.87455 19.0224 9.30603L19.0466 4.29433L244.968 4.29395L244.974 9.29538C253.112 10.0364 258.986 16.0029 258.8 23.0523C258.623 29.7557 252.798 35.3481 245.08 36.0346L244.928 36.1467L244.929 40.8945Z" fill="#B9D6FE"/>
<path d="M34.402 27.001L31.028 16.991H33.156L34.92 22.787C35.116 23.445 35.354 24.383 35.354 24.383H35.382C35.382 24.383 35.62 23.431 35.816 22.787L37.566 16.991H39.624L36.25 27.001H34.402ZM41.2643 27.001V16.991H48.6283V18.699H43.2943V20.939H47.9703V22.605H43.2943V25.307H48.6703V27.001H41.2643ZM50.7723 27.001V16.991H55.3643C57.2963 16.991 58.5843 18.111 58.5843 19.777C58.5843 20.953 58.0383 21.849 56.7503 22.199V22.241C57.6743 22.507 58.1503 23.039 58.2763 24.257C58.4163 25.671 58.3603 26.749 58.7103 26.903V27.001H56.7643C56.5123 26.889 56.4843 25.769 56.4003 24.691C56.3163 23.599 55.7003 22.983 54.4403 22.983H52.8023V27.001H50.7723ZM52.8023 18.629V21.415H54.9583C56.0643 21.415 56.6103 20.841 56.6103 20.043C56.6103 19.231 56.0923 18.629 55.0143 18.629H52.8023ZM68.305 27.211C65.491 27.211 63.489 25.041 63.489 22.031C63.489 19.063 65.337 16.795 68.291 16.795C70.755 16.795 72.211 18.265 72.421 20.169H70.405C70.223 19.161 69.467 18.503 68.291 18.503C66.443 18.503 65.561 20.043 65.561 22.031C65.561 24.075 66.625 25.545 68.305 25.545C69.495 25.545 70.335 24.831 70.461 23.781H72.449C72.393 24.663 72.015 25.517 71.343 26.147C70.657 26.791 69.691 27.211 68.305 27.211ZM78.7293 27.225C75.7753 27.225 73.8993 25.013 73.8993 22.017C73.8993 19.021 75.7753 16.795 78.7293 16.795C81.6833 16.795 83.5453 19.021 83.5453 22.017C83.5453 25.013 81.6833 27.225 78.7293 27.225ZM78.7433 25.559C80.5773 25.559 81.4733 24.005 81.4733 22.017C81.4733 20.015 80.5773 18.461 78.7433 18.461C76.9093 18.461 75.9713 20.015 75.9713 22.017C75.9713 24.005 76.9093 25.559 78.7433 25.559ZM85.4955 27.001V16.991H87.5255V25.307H92.2295V27.001H85.4955ZM94.1559 27.001V16.991H101.52V18.699H96.1859V20.939H100.862V22.605H96.1859V25.307H101.562V27.001H94.1559ZM107.841 27.211C105.027 27.211 103.025 25.041 103.025 22.031C103.025 19.063 104.873 16.795 107.827 16.795C110.291 16.795 111.747 18.265 111.957 20.169H109.941C109.759 19.161 109.003 18.503 107.827 18.503C105.979 18.503 105.097 20.043 105.097 22.031C105.097 24.075 106.161 25.545 107.841 25.545C109.031 25.545 109.871 24.831 109.997 23.781H111.985C111.929 24.663 111.551 25.517 110.879 26.147C110.193 26.791 109.227 27.211 107.841 27.211ZM118.251 27.211C115.437 27.211 113.435 25.041 113.435 22.031C113.435 19.063 115.283 16.795 118.237 16.795C120.701 16.795 122.157 18.265 122.367 20.169H120.351C120.169 19.161 119.413 18.503 118.237 18.503C116.389 18.503 115.507 20.043 115.507 22.031C115.507 24.075 116.571 25.545 118.251 25.545C119.441 25.545 120.281 24.831 120.407 23.781H122.395C122.339 24.663 121.961 25.517 121.289 26.147C120.603 26.791 119.637 27.211 118.251 27.211ZM124.293 27.001V16.991H126.323V27.001H124.293ZM133.111 27.225C130.157 27.225 128.281 25.013 128.281 22.017C128.281 19.021 130.157 16.795 133.111 16.795C136.065 16.795 137.927 19.021 137.927 22.017C137.927 25.013 136.065 27.225 133.111 27.225ZM133.125 25.559C134.959 25.559 135.855 24.005 135.855 22.017C135.855 20.015 134.959 18.461 133.125 18.461C131.291 18.461 130.353 20.015 130.353 22.017C130.353 24.005 131.291 25.559 133.125 25.559ZM135.155 14.709L133.825 16.459H132.341L132.929 14.709H135.155ZM139.877 27.001V16.991H141.935L145.267 22.577C145.589 23.123 145.967 23.977 145.967 23.977H145.995C145.995 23.977 145.939 22.941 145.939 22.241V16.991H147.941V27.001H145.981L142.565 21.471C142.243 20.939 141.851 20.085 141.851 20.085H141.823C141.823 20.085 141.879 21.135 141.879 21.835V27.001H139.877ZM157.889 27.211C155.075 27.211 153.073 25.041 153.073 22.031C153.073 19.063 154.921 16.795 157.875 16.795C160.339 16.795 161.795 18.265 162.005 20.169H159.989C159.807 19.161 159.051 18.503 157.875 18.503C156.027 18.503 155.145 20.043 155.145 22.031C155.145 24.075 156.209 25.545 157.889 25.545C159.079 25.545 159.919 24.831 160.045 23.781H162.033C161.977 24.663 161.599 25.517 160.927 26.147C160.241 26.791 159.275 27.211 157.889 27.211ZM168.313 27.225C165.359 27.225 163.483 25.013 163.483 22.017C163.483 19.021 165.359 16.795 168.313 16.795C171.267 16.795 173.129 19.021 173.129 22.017C173.129 25.013 171.267 27.225 168.313 27.225ZM168.327 25.559C170.161 25.559 171.057 24.005 171.057 22.017C171.057 20.015 170.161 18.461 168.327 18.461C166.493 18.461 165.555 20.015 165.555 22.017C165.555 24.005 166.493 25.559 168.327 25.559ZM175.079 27.001V16.991H177.935L179.349 22.017C179.699 23.277 179.979 24.719 179.979 24.719H180.007C180.007 24.719 180.273 23.277 180.623 22.017L182.037 16.991H184.935V27.001H183.045V21.261C183.045 20.449 183.129 19.189 183.129 19.189H183.101C183.101 19.189 182.877 20.365 182.667 21.093L180.945 27.001H178.999L177.319 21.093C177.109 20.365 176.885 19.189 176.885 19.189H176.857C176.857 19.189 176.941 20.449 176.941 21.261V27.001H175.079ZM187.321 27.001V16.991H191.717C192.879 16.991 193.747 17.327 194.335 17.929C194.895 18.503 195.231 19.287 195.231 20.211C195.231 22.101 193.985 23.375 191.885 23.375H189.421V27.001H187.321ZM189.421 18.755V21.723H191.521C192.585 21.723 193.145 21.135 193.145 20.225C193.145 19.287 192.557 18.755 191.549 18.755H189.421ZM197.076 27.001V16.991H199.106V25.307H203.81V27.001H197.076ZM205.736 27.001V16.991H213.1V18.699H207.766V20.939H212.442V22.605H207.766V25.307H213.142V27.001H205.736ZM214.726 18.699V16.991H222.776V18.699H219.766V27.001H217.736V18.699H214.726ZM222.657 27.001L226.143 16.991H228.243L231.771 27.001H229.657L228.985 24.873H225.373L224.715 27.001H222.657ZM226.745 20.435L225.849 23.319H228.495L227.599 20.435C227.431 19.903 227.193 18.895 227.193 18.895H227.165C227.165 18.895 226.913 19.903 226.745 20.435Z" fill="#141414"/>
</svg>
