<svg preserveAspectRatio="none" width="100%" height="100%" overflow="visible" style="display: block;" viewBox="0 0 668.647 901.847" fill="none" xmlns="http://www.w3.org/2000/svg">
<path id="Vector" d="M667.935 900.361V901.073H667.223L1.42348 901.135H0.711567V900.423L0.715473 155.447V154.909L1.23207 154.763C30.4005 146.466 53.1058 124.479 61.3131 95.132L61.4596 94.6105L61.9997 94.6115L106.793 94.6838C138.25 52.7888 188.525 26.3553 238.952 13.0226C329.469 -10.9102 438.07 -0.961332 516.437 51.7873C534.404 63.8804 549.208 78.359 562.2 95.0871H601.95C602.736 95.0785 603.871 95.0781 604.806 95.0802C605.274 95.0813 605.694 95.0828 605.996 95.0842C606.147 95.0848 606.269 95.0857 606.353 95.0861C606.395 95.0863 606.428 95.086 606.45 95.0861C606.461 95.0862 606.47 95.0871 606.475 95.0871H606.484L607.001 95.09L607.158 95.5812C610.492 105.997 615.09 114.841 620.884 123.261L621.512 123.909L621.534 123.933L630.95 134.571C641.359 143.974 653.316 150.566 667.404 154.65L667.918 154.799V155.333L667.935 900.361Z" stroke="var(--stroke-0, #F3EEE1)" stroke-width="1.42347" stroke-miterlimit="10"/>
</svg>
