<svg preserveAspectRatio="none" width="100%" height="100%" overflow="visible" style="display: block;" viewBox="0 0 8.99992 1920" fill="none" xmlns="http://www.w3.org/2000/svg">
<path id="Vector" d="M4.65526 0C4.90167 1.70083 5.56864 3.73933 5.55221 6.40314C5.54235 7.99142 4.80968 10.6927 4.29056 11.2055C3.70574 11.7808 4.45813 3.80186 3.36076 5.65277C2.97306 3.55174 2.38167 6.10299 3.09463 7.01594C3.85359 14.1319 3.83387 23.399 3.49546 30.1898C3.45604 30.9902 2.86464 32.0282 2.80222 32.6285C2.70694 33.554 2.95992 33.9667 3.19319 33.8791C4.09343 33.5415 3.79773 28.4515 4.8951 27.601C5.36822 27.2384 5.78548 27.6135 6.27503 29.1143C6.42616 29.3644 6.89599 28.0638 7.11284 30.4649C5.04624 33.4289 7.11941 41.4078 4.93781 42.5959C4.57312 41.708 4.28399 42.9711 4.41213 43.8465C5.42736 46.6979 4.59283 48.974 4.44827 51.2001C4.12629 56.1525 4.34642 60.8048 4.41213 64.9944C4.48441 65.0194 4.60926 64.8568 4.66183 64.3566C4.64212 62.4806 4.56326 60.5797 4.77025 58.7788C5.51935 60.6923 5.82491 62.6932 5.99904 64.4191C6.24217 66.8328 5.5555 68.9088 5.52593 70.5846C5.46021 74.449 4.79982 74.8492 4.26756 77.1253C3.80759 79.1013 4.24128 85.2293 3.06506 86.1548L3.51846 95.2217C4.85568 94.4213 5.49964 97.1476 5.66063 100.612C5.96619 107.253 3.41661 105.939 3.33447 121.147C3.90287 120.459 4.19857 118.483 4.42856 117.583C5.49964 118.983 4.99695 122.297 5.20394 123.948C5.5325 126.587 5.96947 129.088 5.46679 131.339C5.14152 132.803 4.3727 132.765 3.63017 132.39C3.80759 135.204 4.077 137.105 3.97187 140.156C4.00144 141.107 4.25771 141.419 4.43841 140.431C4.92467 139.581 5.60806 138.455 6.04833 138.918C6.40645 139.293 6.86971 141.619 7.07013 143.695C7.5761 148.923 6.26846 154.088 5.19737 157.115C5.28937 160.216 5.04624 163.28 4.74397 166.557L5.02652 176.224C5.52264 175.136 5.90376 174.636 6.39988 175.098C7.02413 175.686 7.63852 181.451 7.05041 185.879C6.93542 186.754 4.67169 192.082 5.76905 191.094L6.18303 190.719C6.88614 191.319 7.22126 194.558 6.72186 196.634C6.30131 198.385 5.52921 199.098 4.99695 200.198C4.81625 206.064 4.54026 210.141 5.06595 212.729C5.66063 215.656 7.8258 216.794 7.06356 224.585C6.72843 228.024 6.17318 229.938 5.15795 230.688C4.96081 230.838 4.66183 233.327 4.44827 233.364C4.23471 233.402 3.92915 231.889 3.55789 233.552C3.95872 235.178 4.3957 238.479 4.82611 239.167C5.90376 240.38 6.97156 241.543 7.32968 245.62C6.70215 246.996 6.25531 247.484 5.78548 247.621C5.38136 247.746 5.0331 246.408 4.74068 244.908C4.17228 257.814 6.76457 255.725 6.64629 259.515C6.35717 268.919 5.08238 266.681 4.75054 272.196C5.1678 273.246 5.73948 274.622 5.69349 276.861C5.65406 278.662 5.63106 280.638 4.94767 280.975C4.42856 278.912 3.91273 281.813 4.64869 283.276C4.49098 287.453 4.00472 292.931 5.14809 295.657C5.53907 296.583 6.38673 296.058 6.51487 298.696C6.59044 300.222 6.70872 302.136 6.31117 303.849L4.39242 312.153C5.2368 312.628 5.73948 313.916 5.90705 315.717C6.02204 316.968 5.7132 319.119 5.23351 320.307C4.8951 321.145 4.48441 320.62 4.03758 318.431C4.13614 325.059 3.31476 330.975 2.91064 337.065C2.88764 338.554 3.6006 340.955 3.37718 343.881C4.53041 341.33 5.30251 344.344 5.56864 347.22C6.22246 354.286 4.32671 353.098 3.40347 359.551C3.21291 360.889 3.33119 363.066 3.88973 363.153C4.146 363.191 4.63226 362.253 4.81625 362.465C5.60478 363.391 4.06715 369.781 2.40138 374.284C2.66751 375.834 3.50861 379.161 4.00472 377.835C4.44827 376.66 4.7144 374.771 5.16452 374.834C5.61463 374.896 5.84134 376.097 5.93662 377.035C6.0319 377.973 6.11075 380.949 5.68035 381.8C4.56983 383.988 3.51189 392.392 4.71768 395.644C5.44379 397.607 6.56087 396.645 6.55758 402.085C6.55758 404.723 5.9169 406.487 5.36822 408.951C4.68154 412.027 4.68154 414.328 2.97635 414.316C4.41541 416.042 5.08895 424.683 5.00681 428.61C4.87539 435.013 6.9617 433.85 7.30668 439.353C7.45125 441.654 6.95513 443.805 6.74814 445.944C6.83357 447.032 7.25412 448.82 7.13584 449.996C6.95842 451.759 6.78757 452.997 6.15675 451.546C5.9169 450.996 5.70006 451.284 5.6442 452.284L4.66512 470.093C4.57641 471.694 4.75711 472.544 5.07252 472.482C5.35836 472.419 5.60806 470.681 5.30251 469.155C5.89391 467.929 6.26517 470.218 6.5773 471.969C7.16541 475.258 6.08118 480.848 5.73291 481.061C5.40765 481.261 5.07909 480.573 4.39242 479.798C5.12838 487.764 3.29176 491.316 5.3945 497.056C5.74606 498.019 5.70334 500.308 5.49307 501.196C5.28279 502.084 4.78668 501.971 4.49427 503.272L3.26876 508.724C2.93692 507.774 2.4868 509.212 2.92707 510.35C3.6466 509.175 4.85896 510.45 4.80968 512.439C4.7604 514.427 4.79325 515.215 5.10209 516.278C5.25323 516.803 5.55878 516.841 5.89062 516.929C6.62001 517.129 6.827 519.705 6.93871 521.731C7.13255 525.283 6.86314 525.258 6.19946 527.359C5.18423 530.573 4.73411 540.478 5.47993 545.33C6.10089 546.993 7.8028 549.932 7.00113 553.934C6.37688 557.048 5.1218 558.674 4.95096 564.552C5.84791 563.701 6.83357 566.003 6.9847 569.554L5.00024 573.819C5.01667 577.633 4.8721 580.547 4.77025 584.036C5.55878 585.137 6.60687 587.738 6.52473 590.502C6.34402 591.515 5.62121 593.041 5.65078 594.504C5.6672 595.455 6.01547 596.643 6.16989 598.068C6.38674 600.044 5.72634 601.858 5.36493 602.27C4.92796 602.771 4.45155 601.72 3.93901 601.307C3.56446 600.995 3.46918 604.597 3.83059 604.797C4.02115 604.909 4.5994 604.959 4.74725 605.922C5.21051 608.911 4.45484 613.301 3.61374 614.376C4.40884 616.64 5.3715 617.953 5.59492 621.405C5.84791 625.269 4.72097 628.146 3.91273 629.209L4.56655 632.135C4.68483 632.66 4.55341 634.198 4.11315 634.824C3.81745 633.123 3.15048 630.797 2.45395 633.811C3.02563 634.999 3.51518 634.311 3.65317 635.499C3.84045 637.15 3.84045 638.275 3.67288 640.752C4.56983 640.214 5.91362 640.477 6.58387 643.628C6.95842 645.392 6.87299 648.668 6.87628 650.557C5.89719 652.495 5.53907 655.284 5.00352 658.285C5.51935 658.048 6.01547 659.286 5.97276 660.449C5.95633 660.887 4.97724 667.377 5.1448 667.09C4.99038 667.352 4.54026 666.564 4.31356 666.114C3.93244 665.339 3.60717 666.452 3.77802 667.402C3.83059 667.702 3.97515 668.165 4.11972 668.103L4.56655 667.903C5.77234 673.93 7.02084 670.316 7.14569 678.595C7.20155 682.385 7.38225 685.536 6.50501 688.4C5.77891 690.776 5.47007 694.678 5.61463 698.555C5.94647 707.397 4.53041 711.837 4.74397 715.213C4.95753 718.59 6.75472 717.327 6.86314 723.242C6.95842 728.432 4.56983 727.119 4.39242 732.972C3.92258 731.346 3.6466 729.996 3.25233 730.371C3.42318 733.285 3.95215 733.685 4.123 734.785C4.3267 736.111 3.69917 740.175 4.03429 743.89C4.20514 745.778 5.94647 746.429 5.95304 750.506C5.95962 754.583 3.65974 756.571 3.53489 763.049C4.93124 764.012 6.2126 767.864 6.22246 773.642C6.22574 775.918 5.36822 777.144 4.80639 778.507C5.26308 779.92 5.98261 781.746 5.87091 783.484C5.59164 787.774 4.88196 791.025 3.8043 793.677C6.07461 798.329 3.88644 809.585 6.27503 806.145C7.27054 808.009 7.29354 812.936 6.83357 816.488C6.64629 817.926 7.03399 821.24 6.67586 821.916L5.40765 824.292C5.25323 827.956 5.10209 832.984 3.95215 835.41C4.76368 838.899 5.86762 839.949 7.06027 841.988C6.39988 850.98 3.39361 857.008 4.6914 861.973C5.16123 863.761 5.93005 864.174 6.0089 866.838C6.07461 869.051 5.36493 871.265 5.1218 872.853C4.94767 873.979 5.60806 877.518 4.77025 878.568C4.37599 878.781 3.65646 876.605 2.95664 878.006C4.01458 879.006 4.3497 882.195 4.42856 886.547C5.05281 885.547 5.67049 884.734 5.9169 885.522C6.14361 886.26 6.5773 888.136 6.72843 889.961C7.0997 894.414 5.84134 900.179 4.55341 900.667C4.76697 902.63 5.10866 902.793 5.61463 902.955C5.14809 908.133 5.26637 912.948 5.31236 919.051C5.01667 921.189 5.83805 921.552 5.62449 919.113C5.82819 916.887 6.35059 916.975 6.74157 917.462C6.93213 917.7 7.15555 918.625 7.24426 919.951C7.61881 925.416 6.758 928.368 5.40436 930.669C5.95633 933.295 6.95513 934.246 7.08655 936.434C7.24097 938.986 6.29145 943.175 5.71649 942.262L5.10866 941.299C4.75711 940.749 5.51278 944.163 5.01338 951.467C4.78996 954.731 6.01547 955.469 6.44587 956.407C7.26397 958.17 6.92228 961.309 6.71529 963.31C6.4623 965.761 5.82162 965.986 5.06924 966.837C4.71768 967.237 4.36285 970.413 3.72874 969.3C3.48232 968.05 3.06834 969.663 3.42647 970.576C4.22157 975.166 4.46141 980.693 3.97187 985.896C5.0101 986.796 5.66063 988.597 5.90048 992.174C5.42079 993.9 4.8721 995.15 4.71768 997.252C7.14898 996.514 4.88525 1003.54 6.43602 1007.27C5.88405 1010.45 4.87539 1007.84 4.52712 1008.91C4.08686 1010.25 4.23142 1014.72 4.37927 1016.3C4.57969 1018.49 6.42616 1017.56 6.33088 1024.23C6.30131 1026.4 5.36493 1026.4 5.17109 1028.12L4.73083 1032.09L3.64988 1032.91L4.56655 1035.77L4.54026 1039.48C4.95753 1041.86 4.93781 1043.94 4.62897 1047.6C5.25323 1045.3 5.67706 1044.56 6.20603 1045.78C6.61672 1046.73 7.04056 1048.43 7.12598 1050.8C7.3264 1056.37 6.08447 1060.08 4.76368 1063.22C5.26965 1065.21 5.78548 1065.82 5.92676 1066.92C6.08447 1068.14 5.99904 1070.81 5.74934 1070.93C5.08566 1069.11 3.52503 1076.43 3.68931 1079.19C3.81745 1081.36 3.78788 1085.83 4.54026 1086.17C5.37151 1086.53 5.91362 1087.38 6.16332 1089.83C6.79414 1096.09 2.81207 1101.28 4.19528 1109.17C4.46141 1110.69 5.38793 1111.06 5.37479 1112.85C5.33536 1118.75 3.95872 1115.45 3.48889 1121.91C3.28519 1121.7 2.93692 1121.04 2.82193 1121.21C2.66422 1121.46 2.56894 1122.51 2.67079 1123.01C2.81864 1123.73 3.01578 1123.64 3.29505 1123.84C4.1 1124.4 4.15914 1128.04 3.93244 1131.12C4.52055 1130.18 4.8951 1129.58 5.38793 1130.02C5.7592 1130.34 6.08447 1131.45 6.43273 1133.47C7.02741 1130.44 8.61433 1131.18 8.92645 1134.32C9.16301 1136.69 8.77861 1138.93 8.47634 1138.67C8.06236 1138.32 7.65824 1134.26 7.25083 1135.44C6.58715 1137.37 7.88165 1144.15 5.66063 1147.26C5.4865 1150.51 5.17109 1152.5 4.03758 1153.24L5.21051 1155.9C5.45693 1156.47 5.33865 1158.71 5.28608 1159.74C4.98381 1165.83 7.61881 1163.87 7.27711 1171.64C7.0997 1175.66 5.47993 1177.92 5.61463 1180.44C5.67377 1181.57 6.5773 1178.73 7.10627 1182.37C7.2114 1183.09 7.10627 1184.69 6.827 1185.83C6.36045 1187.74 5.78548 1187.68 4.8491 1187.42C5.59821 1192.17 5.10209 1197.16 5.40765 1201.86C5.90048 1203.62 7.28697 1205.13 7.20812 1208.83C7.14898 1211.66 6.56744 1214.51 6.23889 1217.27C5.47664 1217.43 4.84582 1216.95 4.21828 1218.05C4.20514 1219.91 4.63555 1220.16 4.85239 1218.9C5.31565 1217.86 5.60478 1220.94 4.92796 1221.04L4.79325 1227.75C3.92587 1236.56 6.79743 1238.61 5.81834 1243.56C5.63106 1244.51 5.09881 1244.89 4.68811 1245.35C4.97396 1247.7 5.04295 1249.46 4.95096 1251.58C4.89182 1252.93 4.18214 1253.58 3.77145 1253.99L4.03101 1260.94C5.56207 1261.24 6.71529 1264.32 6.89599 1269.99L4.91153 1279.04C5.47664 1280.78 5.6672 1282.48 5.66392 1284.24C5.66392 1285.73 5.34193 1287.11 4.81953 1289.38C6.26517 1290.95 7.36254 1295.05 7.19826 1301.04C7.06684 1305.83 4.72754 1306.14 4.95096 1309.15C5.05609 1310.59 5.4635 1308.45 5.81505 1309.08C6.2586 1309.87 6.70872 1312.97 6.5543 1314.27C6.35717 1315.93 5.58178 1316.73 4.72097 1315.98L5.10866 1328.03C5.62778 1329.13 6.52473 1330.26 6.73172 1332.72C6.9387 1335.17 7.02084 1337.96 6.30131 1340.34C6.02861 1341.25 5.2138 1340.76 4.74068 1341.48C4.76368 1344.08 4.30699 1345.97 3.71231 1346.94C4.077 1350.7 3.95544 1354.89 3.81416 1358.83C4.48113 1360.47 5.58506 1362.31 5.64092 1365.66C4.56655 1369.71 3.25562 1372.07 2.5788 1377.61C3.78459 1375.62 5.18751 1373.12 5.88076 1377.98C6.15675 1379.91 5.04624 1382.79 4.3727 1382.49L4.38256 1395.81C4.86882 1397.36 5.51935 1394.42 5.78548 1393.96C6.30788 1394.3 6.43273 1397.55 6.30131 1399.14C6.20275 1400.31 5.89062 1401.17 5.40107 1401.66C5.87419 1405.91 5.06595 1409.05 4.75382 1412.46C4.50084 1415.21 5.70006 1416.43 6.1896 1416.41C5.87748 1422.47 7.40525 1424.57 6.70872 1429.5C6.5083 1430.93 6.2816 1432.03 5.58178 1432.6C4.93781 1433.14 4.30371 1439.62 4.88525 1440.73C5.68692 1442.27 6.50501 1443 6.62001 1445.56C6.735 1448.12 6.49516 1450.42 5.77563 1452.27L4.75382 1448.55C4.077 1453.93 4.91482 1457.74 4.41541 1461.63C4.32999 1462.29 4.27414 1463.61 4.29385 1464.16C4.31028 1464.67 4.60597 1465.12 4.7604 1464.88C4.87867 1464.69 5.17109 1464.16 5.12509 1463.21L4.9871 1460.44C4.87867 1458.27 6.64958 1462.44 6.6003 1465.47C6.58058 1466.63 6.2816 1468.9 5.87419 1469.83C4.25771 1473.57 3.49875 1481.91 4.77025 1488.2C4.99695 1489.32 5.77563 1489.48 5.66063 1491.91C5.58835 1493.46 5.65406 1494.37 5.24337 1496.42C5.04295 1497.42 5.1218 1500.72 4.55341 1501.05C4.29056 1500.32 4.06386 1499.96 3.82073 1499.92C3.6926 1499.9 3.64331 1500.55 3.80759 1501.12L4.21828 1502.59C4.4417 1503.39 4.68154 1504.61 4.63883 1505.28C4.37599 1509.39 3.70245 1504.53 2.83836 1504.83C2.25025 1505.03 3.84373 1506.01 3.73859 1512.44C4.10329 1510.85 4.89182 1510.68 5.11852 1512.7L5.92676 1519.9C6.45245 1524.56 3.27533 1526.87 3.75174 1538.94L5.71649 1540.77C6.79743 1544.08 6.14689 1550.32 5.1448 1553.05C4.35627 1555.19 4.40227 1560.97 5.17766 1562.42C6.54444 1564.97 6.689 1568.72 6.53787 1573.96C6.46559 1576.5 6.39988 1579.05 5.6902 1579.74C4.98053 1580.43 4.63554 1577.64 3.93901 1576.14C4.47127 1580.5 5.04624 1583.5 4.30042 1588.13L5.71649 1597.03C6.01875 1598.95 5.97933 1600.61 5.64749 1601.85C5.04295 1604.11 3.80759 1602.52 3.89301 1607.2C3.35747 1607.64 3.63674 1610.38 3.99487 1609.28C4.77354 1608.43 5.47336 1609.44 6.16332 1610.34C6.66929 1611 6.758 1613.72 6.56415 1615.44C6.29474 1617.84 4.80639 1613.38 3.8733 1615.62C4.97067 1622.18 3.48232 1626.6 4.35956 1627.22C5.07581 1628.54 6.02861 1631.54 6.38674 1633.83C7.2344 1639.27 6.17646 1642.02 5.28608 1644.83C4.61583 1646.95 4.37599 1650.61 3.27533 1650.11L4.15257 1653.2C4.22814 1653.47 4.33656 1654.45 4.47127 1654.47C4.57969 1654.5 4.74725 1653.76 4.85568 1653.4C5.4405 1651.4 5.80519 1652.56 6.23889 1654.32C6.52473 1655.5 6.62329 1657.46 6.03518 1659.21L5.01995 1662.23C4.4187 1664.02 5.92348 1670.93 4.56983 1675.98C4.36285 1678.05 4.92467 1679.21 5.15137 1677.21L5.94647 1673.03C6.21917 1671.59 7.12598 1674.73 7.34611 1676.31C7.59253 1678.09 7.22126 1679.81 7.14241 1682C6.93871 1687.57 4.63883 1685.94 5.04624 1689.35C5.57192 1693.74 4.03429 1701.41 5.80191 1704.09C6.42616 1705.04 6.64301 1707.15 6.64629 1709.19C6.64958 1711.81 4.91153 1718.31 4.215 1716.25C4.054 1715.78 3.69917 1716.1 3.67288 1716.6C3.60717 1717.8 5.36165 1720.58 4.65854 1723.48C4.25114 1725.16 3.89301 1726.92 4.08358 1728.64C4.29056 1730.49 4.75382 1731.51 5.29594 1732.27C6.15346 1733.48 6.07132 1737.13 5.70663 1739.57C5.38465 1741.73 4.67826 1741.6 3.97844 1739.75C4.40884 1748.56 1.8297 1748.02 3.76159 1750.72C4.08029 1747.67 5.02324 1747.12 5.54235 1748.13C6.34074 1749.7 6.56087 1755.19 5.88076 1757.22C5.06923 1759.65 4.46798 1762.64 4.86225 1766.38C5.27622 1765.87 5.84134 1764.82 6.08118 1765.04C6.36045 1765.3 6.67915 1766.77 6.61672 1767.95C6.39331 1772.09 4.83596 1772.97 5.50293 1776.38C5.61135 1776.93 5.88405 1777.56 5.9169 1777.93C5.94976 1778.31 5.65735 1779.21 5.4865 1779.34L4.80968 1779.8C4.66183 1779.9 4.54026 1781.17 4.93781 1781.05C5.10866 1785.36 5.77891 1786.05 6.57073 1787.45C7.36254 1788.85 7.01427 1793.27 6.94856 1795.33C6.84014 1798.63 5.92348 1799.16 5.27951 1801.06C5.19409 1803.1 5.57192 1808.31 4.82282 1809.44C4.57969 1809.34 4.05401 1808.27 3.95544 1809.26C3.81088 1810.71 4.05072 1812.41 4.22814 1812.3C5.17766 1811.66 5.41093 1815.08 5.88405 1815.79C6.27831 1816.39 6.97485 1814.61 7.22455 1815.33C7.47425 1816.04 7.70752 1817.13 7.86851 1818.03C7.06027 1821.37 6.16003 1821.81 5.1678 1823.29C4.73083 1824.74 4.92467 1829.36 5.18094 1831.24L4.35299 1835.06C4.17886 1835.88 4.30371 1837.06 4.4417 1837.19C4.55341 1837.29 4.77354 1836.29 4.85239 1835.8C5.37151 1832.66 5.90376 1833.57 6.31117 1835.38C6.65943 1836.93 6.79743 1839.8 6.1896 1840.78L3.37061 1845.28C4.48441 1851.7 3.90616 1857.99 4.11315 1858.61C4.6914 1860.4 6.08447 1860.17 5.96619 1865.39C5.88405 1868.92 4.08357 1869.88 4.34313 1872.64C4.48112 1874.12 5.23351 1876.03 4.91153 1877.7C4.83268 1878.11 4.58955 1878.48 4.29056 1878.73C3.71231 1879.22 4.077 1880.8 4.34642 1881.5L5.0101 1883.21C5.54892 1884.6 6.19289 1884.55 6.44916 1886.06C6.68243 1887.45 6.77114 1890.16 6.33088 1891.29C5.89062 1892.42 5.38793 1893.2 5.31236 1894.47C5.02981 1899.31 5.92347 1902.23 5.16452 1903.1L4.53369 1903.81C4.26428 1902.55 3.83387 1904.02 4.11643 1904.87C5.29265 1904.52 4.8491 1910.46 5.40107 1910.56C5.61792 1910.6 5.98919 1909.92 6.33088 1910.44C7.0537 1911.52 7.31654 1914.46 7.19498 1916.4C7.0077 1919.43 6.56415 1920.34 5.53907 1919.89C5.22694 1919.75 4.49427 1920.52 4.33985 1919C4.13286 1916.98 4.04086 1908.11 3.47904 1911.37L3.1012 1913.58C2.99935 1914.16 2.62808 1913.29 2.64122 1912.8C2.79236 1906.99 1.69828 1905.42 2.09911 1901.01C2.33896 1898.37 2.59194 1895.67 3.53489 1894.52L3.1472 1885.59C1.31387 1883.29 0.617335 1873.66 1.21202 1871.34L2.42438 1866.63C3.04535 1864.21 2.73651 1859.14 2.8745 1855.81C1.13974 1851.85 0.827609 1844.04 1.90198 1838.16C2.22396 1836.4 3.89301 1838.79 3.5546 1835.16C4.6454 1819.53 0.203357 1816.14 1.81984 1806.3C2.24367 1803.71 2.91392 1802.1 3.95544 1803.67C3.88973 1792.98 5.01995 1791.07 2.84493 1785.6C1.9874 1783.45 1.86912 1779 2.0334 1775.86C2.19768 1772.72 2.75622 1771.26 3.71231 1770.26C3.63346 1757.52 -0.0923408 1754.66 1.33687 1743.1C1.55043 1741.38 2.27325 1740.35 2.81536 1739.32C3.16691 1734.63 3.37061 1727.98 2.56894 1723.88C1.74756 1719.68 1.10031 1714.79 2.06626 1709.94C2.30281 1708.75 3.0782 1708.53 3.64331 1708.28L3.74845 1696.62L2.0104 1687.3C1.91841 1684.24 1.92826 1681.64 2.36524 1679.42C2.62151 1678.14 3.24248 1677.42 4.02772 1677.05C3.61703 1672.17 3.58746 1667.84 3.61374 1662.7C1.57343 1659.4 0.614049 1651.03 1.77713 1643.97C2.18782 1641.48 2.98621 1641.43 3.65317 1640.59C2.68394 1636.8 3.50532 1631.09 3.27533 1627.67C2.39481 1622.16 1.0576 1617.93 0.978744 1611.13C0.92289 1606.36 1.68513 1603.12 2.88764 1602.16C2.90407 1597.2 3.57432 1592.26 3.20634 1587.48C2.89093 1583.43 0.80461 1577.44 1.38944 1570.91C1.81656 1566.12 3.35747 1566.61 3.24905 1564.55C2.95007 1558.9 3.78131 1553.12 2.94021 1550.14C1.73113 1545.82 0.637048 1541.37 1.03131 1534.55C1.21202 1531.4 3.08149 1532.16 2.78579 1519.12C2.67079 1514.07 0.380776 1510.25 0.715901 1502.15C0.873606 1498.36 1.3303 1496.56 2.36195 1494.57C2.82193 1492.17 3.19977 1484.55 2.88107 1481.46C2.11554 1477.79 1.47814 1475.6 1.58985 1470.51C1.67856 1466.54 2.27982 1464.79 3.30162 1462.62L3.52503 1453.19C1.83627 1450.5 1.02803 1444.43 1.54386 1438.69C1.91841 1434.52 2.75293 1434.14 3.4429 1432.94C3.88973 1429.41 3.79445 1420.42 3.02563 1417.63C2.11554 1414.33 1.55043 1412.73 1.61285 1407.98C1.66214 1404.24 2.22396 1401.76 3.4199 1400.36L2.73651 1388.22C1.17916 1385.37 -0.154766 1375.66 1.09045 1370.46C1.90855 1367.05 2.36524 1366.47 2.49995 1361.37C2.6248 1356.57 2.81536 1353.54 1.57671 1349.99C0.916318 1348.1 0.80461 1342.65 1.16602 1340.04C1.59971 1336.92 2.46709 1335.63 3.56446 1336.09C3.56117 1332.05 4.08686 1328.16 3.76488 1324.4L2.20425 1318.05C1.90855 1315.04 1.55371 1312.54 1.79356 1309.9C2.38167 1303.41 3.72545 1307.02 4.17228 1301.23C4.29714 1299.61 3.63674 1298.82 3.30162 1297.67L3.98501 1294.16C4.36942 1292.18 2.20096 1291.47 2.0334 1283.02C1.9644 1279.48 2.93364 1277.3 3.61374 1275.03C3.50861 1272.52 3.22605 1269.05 3.63346 1266.23C2.29953 1263.38 1.29416 1259.29 1.00503 1253.68C0.715901 1248.06 1.3303 1243.87 2.85478 1243.08L3.37718 1228.68C2.41452 1224.81 1.7837 1220.15 1.63257 1214.88C1.50443 1210.42 2.49666 1207.74 3.54146 1208.09C5.14152 1192.17 2.33896 1192.76 2.30281 1186.47C2.28639 1183.21 2.11225 1179.52 3.1012 1177.93C3.48232 1177.31 4.22157 1177.51 4.23799 1176.59L4.31028 1172.61C5.33865 1160.77 1.72456 1161.97 1.97755 1151.96C2.05968 1148.74 2.63794 1146.24 3.63674 1144.79C3.33447 1140.92 3.20962 1137.9 3.30819 1133.48C1.68513 1132.77 1.16602 1127.83 0.939317 1122.55C0.696187 1116.9 1.51429 1114.58 2.46381 1111.83L3.05192 1094.85C1.33687 1091.5 0.837466 1083.61 1.65556 1077.63C2.10568 1076.49 2.72336 1075.68 2.96978 1074.23C2.24367 1072.01 2.02683 1069.42 1.93812 1066.84C1.82313 1063.42 4.57312 1057.27 3.43304 1043.3C0.909748 1037.75 0.972172 1028.05 1.57014 1026.82L2.76607 1024.35C3.81416 1017.97 2.8745 1010.97 1.68842 1006.34C1.18902 1004.39 1.21859 1000.48 1.1693 998.64C1.10031 996.076 2.19111 994.825 2.39152 993.162C2.86464 989.198 2.86793 984.47 2.98292 980.343C1.19559 975.566 0.758612 966.712 1.94798 962.885C2.49009 961.134 3.04206 960.884 4.04415 961.084C3.38376 957.495 3.81416 953.443 4.00144 949.766C2.80879 945.539 1.61942 939.673 2.55909 933.295C2.88764 931.069 3.72545 930.169 4.28399 929.131L4.22485 917.613C3.01578 916.775 2.26667 913.16 2.15497 909.321C2.0334 905.181 2.69379 902.343 3.77473 900.367L2.81536 889.023C1.30401 886.36 0.545053 879.219 1.22844 873.416C1.50772 871.052 2.49995 870.077 2.79236 868.689C2.6478 865.762 3.24576 863.561 3.20962 860.897L3.1012 852.643C2.36195 849.267 1.42886 845.064 1.28101 840.024C1.15616 835.797 1.70485 832.696 2.69708 831.433C5.41422 827.981 0.183645 812.436 3.92587 809.71L3.6696 801.38C2.86136 801.656 2.25682 800.805 2.00383 799.242C1.52086 796.278 1.45515 790.425 1.94141 787.986C2.17796 786.811 2.71022 786.561 3.22934 785.735C3.50203 785.248 2.95664 782.759 2.80879 782.134C2.97306 779.057 2.86464 775.505 2.01697 773.404C0.630477 769.953 0.121219 761.073 1.40258 756.671C1.72785 755.558 2.46709 755.245 2.59523 754.17C2.72336 753.094 2.33567 750.543 2.42766 749.255C2.56237 747.354 2.94349 745.778 2.96649 744.34C3.02235 741.013 0.811181 739.463 1.43543 728.745C1.66542 724.793 2.7825 724.093 3.60389 722.842C3.54803 719.34 3.29505 714.976 3.70574 711.449C2.18782 708.535 1.42558 703.595 1.68185 697.667C1.78041 695.391 2.07283 693.903 2.49338 692.515C2.7595 691.639 3.38704 692.227 3.8273 691.964C4.40227 687.825 4.48112 679.096 3.46918 675.794C2.34881 672.117 0.886748 665.989 2.25353 661.124C3.01906 658.398 3.56117 656.034 3.58089 651.795C3.59732 648.13 2.79236 647.142 2.08925 644.466C0.968887 640.201 0.564766 631.585 1.35001 626.495C1.557 625.157 2.53937 625.244 2.6248 624.081C2.72993 622.63 2.38495 620.392 2.38824 618.378C2.38824 615.852 2.98949 611.925 2.49338 609.249C1.42558 603.458 0.272354 598.694 1.41901 592.265C1.68185 590.79 2.72008 590.702 3.0552 589.289C4.09672 584.912 3.3509 578.196 2.46709 574.569C1.81984 571.905 1.83955 568.254 2.12868 565.165C2.34224 562.889 3.13077 562.263 3.79445 560.362C4.64212 557.924 4.40884 550.17 3.62031 547.756C2.70036 544.942 2.21082 543.366 2.24696 539.327C2.2831 535.65 2.51966 532.949 3.63017 530.835C3.46261 527.846 3.45932 522.769 2.78579 520.793C1.64899 517.441 0.748756 512.964 0.873607 507.336C0.978744 502.609 1.89869 500.771 2.8745 500.008C2.65437 496.844 2.57223 492.692 3.26219 489.728L1.80998 479.385C1.3303 475.958 1.22844 473.707 1.65228 470.681C1.99726 468.23 2.83179 467.792 3.4429 467.067C3.82402 463.615 3.90944 459.175 3.97187 455.323C2.56566 452.209 2.31596 447.182 2.7595 441.504L4.20843 438.69C3.90287 435.088 3.95215 431.599 3.91601 427.635C1.32372 423.083 0.610763 413.578 1.59314 408.275C1.87569 406.749 2.52952 405.674 3.22276 404.798C2.65108 396.444 3.63346 393.33 1.67199 383.826C0.92946 380.224 0.574623 378.786 0.59105 374.421C0.604193 370.757 1.38944 368.956 2.03997 366.542L2.31596 350.309C1.2383 348.421 0.738899 345.494 0.472771 342.33C0.206643 339.166 0.354492 333.926 1.12002 331.675C1.80998 329.649 2.35538 330.037 2.44081 325.872C2.56566 319.707 0.40049 317.906 1.63914 306.225L3.00263 302.673C2.8515 298.084 3.06506 294.344 3.36733 290.092C0.830895 282.914 0.00622529 270.795 1.47486 266.168C1.91841 264.767 2.60837 264.955 3.28848 264.892L3.0782 255.938C3.65974 249.998 3.15377 247.909 2.31267 243.82C1.47157 239.73 0.791468 226.661 1.78699 223.71C2.23382 222.384 2.79236 222.434 3.78131 222.359C3.10777 218.557 3.78788 213.305 3.75502 210.341C3.09134 204.65 1.54057 199.961 1.75742 193.157C1.90198 188.668 2.63465 185.666 3.8963 186.216C3.94887 182.852 4.12629 180.401 4.27414 177.324C4.57312 170.984 2.24368 170.258 1.80341 167.507C1.39601 164.943 1.86255 154.326 3.6926 154.738C3.23591 151.599 3.3969 148.523 3.21291 145.184C2.10568 139.256 0.278924 136.267 0.416917 129.764C0.499055 125.849 1.26787 122.835 2.14839 120.884C1.83955 116.032 3.07492 111.855 2.60508 103.438C1.11674 101.25 -0.0693423 91.845 1.10031 86.7675C1.62599 84.4789 2.30939 85.2793 2.37838 81.5775C2.48352 75.9372 1.40915 76.8377 1.34015 66.195C1.31715 62.9184 2.47695 61.9679 2.72665 59.8544C3.67945 51.8004 2.3291 44.2467 0.9886 39.1817C0.28221 36.5179 0.413632 32.9787 0.508912 30.4274C0.633762 27.0258 1.36972 26.8757 1.92498 24.9122C3.12091 20.6726 2.42109 13.6067 1.27773 10.4426C0.298638 7.72879 -0.0956264 3.92693 0.0193673 0.0750368H4.61583L4.65526 0Z" fill="var(--fill-0, #141414)"/>
</svg>
