<svg preserveAspectRatio="none" width="100%" height="100%" overflow="visible" style="display: block;" viewBox="0 0 436.112 588.12" fill="none" xmlns="http://www.w3.org/2000/svg">
<path id="Vector" d="M435.581 587.02V587.55H435.052L1.06 587.59H0.529731V587.06L0.532661 101.458V101.058L0.917427 100.948C19.9091 95.5462 34.6912 81.231 40.0346 62.1251L40.143 61.7364L40.5463 61.7374L69.7104 61.7843C90.2283 34.4751 123.004 17.2469 155.873 8.55673C214.889 -7.04737 285.7 -0.562147 336.801 33.8341C348.51 41.715 358.158 51.1492 366.625 62.047H392.503C393.017 62.0414 393.757 62.0417 394.367 62.0431C394.672 62.0438 394.945 62.0441 395.142 62.045C395.241 62.0454 395.321 62.0457 395.375 62.046C395.403 62.0461 395.424 62.0469 395.438 62.047H395.46L395.844 62.0489L395.962 62.4151C398.133 69.1951 401.125 74.9524 404.897 80.4347L405.303 80.8546L405.312 80.8634L405.32 80.8722L411.451 87.7999C418.228 93.9228 426.013 98.2155 435.188 100.875L435.571 100.985V101.384L435.581 587.02Z" stroke="var(--stroke-0, #F3EEE1)" stroke-width="1.06" stroke-miterlimit="10"/>
</svg>
