<svg preserveAspectRatio="none" width="100%" height="100%" overflow="visible" style="display: block;" viewBox="0 0 210.97 284.12" fill="none" xmlns="http://www.w3.org/2000/svg">
<path id="Vector" d="M210.439 283.04V283.571H209.91L1.06016 283.59H0.529882V283.06L0.530858 49.3743V48.9739L0.916601 48.8645C9.96753 46.2899 17.0068 39.4706 19.5514 30.3723L19.6598 29.9836L20.0621 29.9846L33.9605 30.0061C43.889 16.8628 59.681 8.58144 75.4898 4.40161C103.95 -3.12331 138.111 -0.0017781 162.782 16.6038C168.405 20.3888 173.043 24.9151 177.113 30.134H189.431C189.68 30.1313 190.038 30.1304 190.332 30.1311C190.478 30.1314 190.61 30.1326 190.705 30.1331C190.752 30.1333 190.791 30.1329 190.817 30.1331C190.83 30.1331 190.84 30.134 190.847 30.134H190.858L191.243 30.136L191.36 30.5022C192.393 33.7283 193.816 36.4693 195.611 39.0823L195.792 39.2678L195.807 39.2854L198.745 42.6047C201.972 45.5181 205.678 47.5616 210.051 48.8293L210.434 48.9407V49.3391L210.439 283.04Z" stroke="var(--stroke-0, #F3EEE1)" stroke-width="1.06015" stroke-miterlimit="10"/>
</svg>
