<svg width="312" height="160" fill="none" xmlns="http://www.w3.org/2000/svg"><path d="M67.535 153.8H64.54v5.984h2.995a2.719 2.719 0 002.082-.883 2.745 2.745 0 00.706-2.159 2.651 2.651 0 00-.706-2.13 2.618 2.618 0 00-2.082-.812zm0 4.782H65.69v-3.58h1.846a1.547 1.547 0 011.67 1.764 1.612 1.612 0 01-.408 1.305 1.593 1.593 0 01-1.262.511zm10.298-1.301h2.005v-1.191h-2.005v-1.088h3.794v-1.2h-4.879v5.985h5.005v-1.2h-3.92v-1.306zm.548-58.64L64.669 124.8h3.308l3.404-6.54h16.652l3.363 6.54h3.307L81.226 98.64H78.38zm-5.18 16.173l6.578-12.577 6.484 12.577H73.2zm54.487 6.546h-15.724V98.64h-3.122v26.16h18.846v-3.44zM111.91 70.395a4.294 4.294 0 01-2.952-.925l-.511 1.08a4.203 4.203 0 003.103 1.063c1.212 0 2.864-.347 2.864-2.013 0-1.364-.979-1.844-2.085-1.89-.477-.018-.955 0-1.432-.036l-.985-.578c0-.578.825-.694 1.219-.694a4.636 4.636 0 012.425.66l.5-1.065a4.892 4.892 0 00-2.66-.786c-1.112 0-2.591.336-2.591 1.84a1.894 1.894 0 00.61 1.355 1.875 1.875 0 001.398.488c.553.022 1.096.01 1.65.046l.835.6c0 .695-.903.857-1.382.857l-.006-.002zm-10.382-1.342c0 .648-.107.88-.416 1.065l-1.074.266c-.936 0-1.66-.105-1.66-1.33v-3.64h-1.093v3.638a2.343 2.343 0 00.69 1.903 2.316 2.316 0 001.91.64 2.842 2.842 0 002.31-.947c.323-.465.47-1.031.415-1.596v-3.638h-1.085l.003 3.64zm7.92-37.769H126.1l3.355 6.54h3.314l-13.481-26.17h-2.845l-13.712 26.16h3.314l3.403-6.53zm8.399-16.03l6.484 12.578h-13.064l6.58-12.577zM96.716 153.8h-1.139v5.984h4.282v-1.225h-3.143V153.8zm69.299-87.186v-1.2h-4.872V71.4h5.001v-1.2h-3.915v-1.307h1.997v-1.186h-2v-1.094h3.789zM120.393 71.4h5v-1.2h-3.913v-1.307h2v-1.186h-2v-1.094h3.787v-1.2h-4.872l-.002 5.987zm88.491-3.81l1.952 3 1.925-3v3.81h1.102v-5.987h-1.102l-1.925 3.007-1.941-3.007h-1.102V71.4h1.091v-3.81zm13.496-55.936h-3.171v26.16h3.171v-26.16zM40.924 108.07h12.542v6.592c0 3.857-4.803 6.187-7.638 6.95a17.916 17.916 0 01-4.67.607 15.425 15.425 0 01-6.307-1.026 15.507 15.507 0 01-5.362-3.495 15.618 15.618 0 01-3.505-5.372 15.676 15.676 0 01-1.055-6.337 16.34 16.34 0 011.233-6.3 16.266 16.266 0 013.563-5.329 16.162 16.162 0 015.336-3.526 16.095 16.095 0 016.278-1.175c2.379-.04 4.735.47 6.887 1.491a15.553 15.553 0 015.524 4.395l2.053-2.486a17.756 17.756 0 00-6.422-5.154 17.654 17.654 0 00-8.042-1.692 19.17 19.17 0 00-7.57 1.397 19.256 19.256 0 00-6.421 4.265 19.38 19.38 0 00-4.25 6.452 19.466 19.466 0 00-1.397 7.61 19.09 19.09 0 001.236 7.589 19.009 19.009 0 004.127 6.475 18.88 18.88 0 006.342 4.298 18.796 18.796 0 007.518 1.418c1.984 0 3.96-.255 5.88-.757 4.48-1.22 9.841-4.62 9.841-10.35v-9.986H40.924v3.446zM253.4 38.79c4.899 0 11.43-1.776 11.43-8.32 0-5.627-5.043-7.807-9.473-7.911-2.24-.046-4.479-.096-6.718-.15-2.148-.053-4.941-1.012-4.941-3.85 0-3.759 5.037-4.315 7.51-4.315a15.74 15.74 0 0110.776 3.24l1.446-3.087a21.262 21.262 0 00-12.366-3.652c-4.526 0-10.536 1.828-10.536 7.859a7.702 7.702 0 002.617 5.398 7.598 7.598 0 005.681 1.854c2.431.05 4.803.104 7.234.208 2.563.099 5.553 1.162 5.553 4.458 0 4.21-5.696 4.868-8.495 4.868a20.425 20.425 0 01-11.195-3.096 36.312 36.312 0 01-1.677-1.32l-1.537 3.146a17.886 17.886 0 006.761 3.498 28.019 28.019 0 007.931 1.17l-.001.002zm-3.771 27.83v-1.2h-4.878V71.4h5.005v-1.2h-3.92v-1.307h2.005v-1.186h-2.005v-1.093l3.793.005zm-84.812-32.243h-15.723V11.655h-3.12v26.16h18.845l-.002-3.438zM66.101 67.368L.262 67.71l65.839.632v-.974zM90.67 71.4v-8.626h-1.15l-2.83 5.383-2.744-5.383h-1.139V71.4h1.128v-6.043l2.745 5.338 2.818-5.338v6.043h1.171zM69.33 21.645h15.395c2.734.195 5.463-.44 7.835-1.822a11.429 11.429 0 002.919-4.006c.67-1.535.995-3.199.954-4.874a11.826 11.826 0 00-.769-4.617 11.776 11.776 0 00-2.498-3.95A8.777 8.777 0 0089.965.457a8.741 8.741 0 00-3.703-.41H66.114v37.775h3.222l-.005-16.178zm0-18.15h16.932c4.526 0 6.953 2.382 6.953 7.355a7.45 7.45 0 01-.58 3.44 7.41 7.41 0 01-2.08 2.794 10.514 10.514 0 01-5.83 1.064H69.33V3.495zm80.007 61.919V71.4h2.984a2.712 2.712 0 002.083-.878 2.745 2.745 0 00.709-2.157 2.652 2.652 0 00-1.659-2.776 2.623 2.623 0 00-1.133-.174l-2.984-.002zm4.664 2.972a1.619 1.619 0 01-.413 1.303 1.594 1.594 0 01-1.263.508h-1.837v-3.583h1.84a1.545 1.545 0 011.259.48 1.56 1.56 0 01.412 1.289l.002.003zm32.975 85.41h-2.996v5.985h2.996c.389.01.777-.063 1.136-.215a2.738 2.738 0 001.53-1.671c.122-.373.163-.767.12-1.156a2.64 2.64 0 00-2.786-2.943zm0 4.782h-1.846V155h1.846a1.533 1.533 0 011.259.476 1.552 1.552 0 01.412 1.288 1.617 1.617 0 01-.41 1.304 1.575 1.575 0 01-1.261.51zm42.116-4.782l-2.671 5.985h1.255l.553-1.26h3.229l.553 1.26h1.255l-2.702-5.985h-1.472zm-.32 3.527l1.074-2.365 1.063 2.365h-2.137zm7.172-91.91h-2.995v5.989h2.995a2.715 2.715 0 002.08-.881 2.747 2.747 0 00.707-2.155 2.654 2.654 0 00-.702-2.136 2.628 2.628 0 00-2.085-.816zm0 4.782h-1.846v-3.581h1.846a1.545 1.545 0 011.263.477 1.557 1.557 0 01.414 1.291 1.619 1.619 0 01-.413 1.304 1.589 1.589 0 01-1.264.507v.002zm-12.553-4.99a3.166 3.166 0 00-2.356.871 3.206 3.206 0 00-.738 3.58 3.182 3.182 0 003.083 1.938 3.242 3.242 0 002.397-.895 3.276 3.276 0 001.013-2.36 3.168 3.168 0 00-1.018-2.317 3.126 3.126 0 00-2.383-.817h.002zm.021 5.16a2.054 2.054 0 01-1.568-.488 2.087 2.087 0 01-.719-1.484 2.317 2.317 0 01.768-1.402 2.294 2.294 0 012.988-.026c.419.353.7.846.792 1.389a2.138 2.138 0 01-.713 1.486 2.11 2.11 0 01-1.555.525h.007zm-18.387 42.778h10.356v-3.45h-10.356v-7.606h18.058v-3.446h-21.181V124.8h21.686v-3.498h-18.563v-8.159zm14.67 38.009h-4.611v8.632h1.154v-3.67h3.461a2.259 2.259 0 002.315-2.502 2.243 2.243 0 00-.591-1.773 2.203 2.203 0 00-1.728-.691v.004zm0 3.688h-3.461v-2.428h3.461c.766 0 1.17.352 1.17 1.208a1.078 1.078 0 01-.69 1.169 1.045 1.045 0 01-.48.057v-.006zm25.025.758a1.88 1.88 0 00-.675-1.475l-1.059-.324h-3.766v5.984h1.118v-2.451h1.757l1.397 2.457h1.388l-1.388-2.457a1.706 1.706 0 001.227-1.73l.001-.004zm-1.734.537h-2.65v-1.134h2.463c.377 0 .803.035.803.559l-.616.575zm22.961-49.735c0-5.789-4.574-7.76-9.189-7.76h-14.976v26.159h3.125v-10.596h10.728l6.859 10.596h3.962l-7.041-10.852a7.463 7.463 0 004.698-2.521 7.536 7.536 0 001.835-5.026h-.001zm-21.04 4.412v-8.725h11.845c2.756 0 6.016.607 6.016 4.314s-3.213 4.411-6.016 4.411h-11.845zm47.535-12.171L278.731 124.8h3.308l3.409-6.54h16.649l3.362 6.54h3.314l-13.485-26.16h-2.845zm-5.17 16.173l6.564-12.577 6.483 12.577h-13.047zm-36.126 44.971h1.084v-5.984h-1.084v5.984zm14.379-93.456v3.904l46.211.438v-4.58l-46.211.238zm-74.448-54.674h-2.845l-13.712 26.16h3.318l3.402-6.54h16.647l3.355 6.54h3.314l-13.479-26.16zm-8.02 16.173l6.573-12.573 6.484 12.577-13.057-.004zm79.241 128.258c-.477-.023-.955-.012-1.442-.035l-.978-.578c0-.579.818-.694 1.212-.694a4.656 4.656 0 012.431.659l.5-1.064a4.827 4.827 0 00-2.66-.786c-1.112 0-2.591.336-2.591 1.839a1.886 1.886 0 001.265 1.745c.241.083.497.115.751.095.552.023 1.095.012 1.649.047l.835.607c0 .687-.904.855-1.381.855a4.273 4.273 0 01-2.953-.931l-.511 1.08a4.193 4.193 0 003.096 1.064c1.218 0 2.864-.346 2.864-2.012 0-1.365-.981-1.845-2.085-1.887l-.002-.004zm-96.104 1.192h2.005v-1.192h-2.005v-1.087h3.794v-1.2h-4.879v5.984h5.005v-1.2h-3.92v-1.305zm-29.528 2.506h1.085V153.8h-1.085v5.984zm-4.307-90.89h2v-1.186h-2v-1.094h3.797v-1.2h-4.881V71.4h5.006v-1.2h-3.922v-1.307zm13.401 84.902h-1.133v5.985h4.277v-1.226h-3.144v-4.759zm-38.021 0l-2.67 5.985h1.255l.559-1.26h3.222l.552 1.26h1.258l-2.697-5.981-1.479-.004zm-.319 3.527l1.074-2.365 1.063 2.365h-2.137zm48.571-3.527h-1.139v5.985h4.282v-1.226h-3.143v-4.759zm-28.654 4.77l-2.074-4.77h-1.237l2.611 5.985h1.415l2.654-5.985h-1.248l-2.121 4.77zm-4.463-95.278l-.851 1.412h.968l1.128-1.412h-1.245zm68.048 2.126l-2.675 5.984h1.255l.559-1.26h3.222l.552 1.26h1.261l-2.705-5.984h-1.469zm-.319 3.532l1.063-2.365 1.063 2.365h-2.126zm-44.402 29.695h-3.122V124.8h18.845v-3.446h-15.723V98.641zm34.094-33.227h-1.138V71.4h4.282v-1.226h-3.144v-4.761zm16.981 91.864h2v-1.192h-2v-1.087h3.794v-1.2h-4.879v5.984h5.005v-1.2h-3.92v-1.305zm-18.511-32.477h3.176v-26.16h-3.176v26.16z" fill="#fff"/></svg>