<svg width="211" height="211" viewBox="0 0 211 211" fill="none" xmlns="http://www.w3.org/2000/svg">
  <g clip-path="url(#clip0_798_3315)">
    <path d="M211 105.5C211 77.5197 199.885 50.6853 180.1 30.9002C160.315 11.1151 133.48 0 105.5 0C77.5197 0 50.6853 11.1151 30.9002 30.9002C11.1151 50.6853 0 77.5197 0 105.5C0 133.48 11.1151 160.315 30.9002 180.1C50.6853 199.885 77.5197 211 105.5 211C133.48 211 160.315 199.885 180.1 180.1C199.885 160.315 211 133.48 211 105.5Z" fill="#520345"/>
    <path d="M167.031 143.453H41.7867V137.915H167.031V143.453ZM167.031 134.259H153.068V128.826H167.031V134.259ZM167.031 125.845H161.598V92.824H167.031V125.845ZM158.496 125.845H153.063V92.824H158.496V125.845ZM127.458 103.986V103.865C127.458 100.936 128.621 98.1282 130.692 96.0577C132.762 93.9872 135.57 92.824 138.499 92.824C141.427 92.824 144.235 93.9872 146.305 96.0577C148.376 98.1282 149.539 100.936 149.539 103.865V134.259H127.458V103.986ZM124.219 134.259H118.665V128.826H124.203L124.219 134.259ZM118.665 92.824H124.098V125.845H118.665V92.824ZM93.3446 103.986V103.865C93.3446 100.936 94.5078 98.1282 96.5783 96.0577C98.6488 93.9872 101.457 92.824 104.385 92.824C107.313 92.824 110.122 93.9872 112.192 96.0577C114.263 98.1282 115.426 100.936 115.426 103.865V134.259H93.3446V103.986ZM90.2376 134.259H84.7147V128.826H90.2534L90.2376 134.259ZM84.7094 92.824H90.1427V125.845H84.7094V92.824ZM58.8461 103.986V103.865C58.8461 100.936 60.0093 98.1282 62.0798 96.0577C64.1503 93.9872 66.958 92.824 69.8866 92.824C72.814 92.824 75.623 93.9872 77.6935 96.0577C79.764 98.1282 80.9272 100.936 80.9272 103.865V134.259H58.8461V103.986ZM167.015 89.3372H41.7867V70.5107H167.031L167.015 89.3372ZM41.7656 92.824H47.1989V125.845H41.7656V92.824ZM50.3006 92.824H55.7338V125.845H50.3006V92.824ZM41.7656 128.826H55.7338V134.259H41.7656V128.826Z" fill="#F3EEE1"/>
  </g>
  <defs><clipPath id="clip0_798_3315"><rect width="211" height="211" fill="white"/></clipPath></defs>
</svg>
