<svg preserveAspectRatio="none" width="100%" height="100%" overflow="visible" style="display: block;" viewBox="0 0 41.0002 41" fill="none" xmlns="http://www.w3.org/2000/svg">
<g id="Group 3230">
<path id="Vector" d="M30.4726 22.4229C30.5072 22.5319 30.5053 22.6161 30.4873 22.6797C30.47 22.7406 30.4286 22.816 30.3261 22.8965C30.1207 23.0579 29.802 23.1097 29.3632 23.0098C28.9312 22.9114 28.467 22.6815 28.081 22.4141C26.6314 21.4097 25.5711 19.9774 24.7041 18.5225C23.6993 16.8365 22.9451 15.1009 22.2851 13.293L21.3164 13.4307C21.2639 14.2148 21.4133 14.941 21.5165 15.6036C21.5766 15.9888 21.6738 16.3691 21.7499 16.7051C21.8288 17.0528 21.8905 17.3733 21.9062 17.6983L22.3085 26.0264C22.3378 26.633 22.289 27.1054 22.0078 27.5215C21.6514 28.0486 21.2739 28.7658 21.5361 29.5958C21.5506 29.6417 21.5574 29.675 21.5615 29.6973C21.468 29.7764 21.1938 29.9902 21.0468 30.3916C20.8483 30.9339 20.7431 31.4723 20.6845 32.0215C20.667 32.1857 20.6214 32.3313 20.5654 32.4239C20.5389 32.4676 20.5171 32.4884 20.5068 32.4961C20.5052 32.4973 20.5038 32.4985 20.5029 32.4991L20.5009 32.5L20.5019 32.4991C20.4821 32.501 20.4732 32.4983 20.4667 32.4952C20.4574 32.4906 20.4373 32.4776 20.4111 32.4444C20.3545 32.3725 20.2999 32.2403 20.2851 32.0704C20.2556 31.7306 20.2036 31.2883 20.0888 30.8711C19.9783 30.4693 19.787 30.0042 19.4179 29.7041C19.4141 29.701 19.4116 29.6963 19.4082 29.6934C19.5255 29.3239 19.5379 28.9876 19.4765 28.6719C19.4109 28.335 19.2661 28.0463 19.1357 27.8067C18.8615 27.303 18.6415 26.9642 18.665 26.4385L19.0488 17.8702C19.0655 17.4977 19.1308 17.1341 19.2128 16.7491C19.2924 16.3756 19.3942 15.9592 19.4609 15.5401C19.5667 14.8748 19.7042 14.1638 19.665 13.3887L18.6933 13.251C17.9995 15.2596 17.1205 17.1904 15.9306 19.0342C15.1215 20.2879 14.0478 21.5792 12.7226 22.377C12.3519 22.6001 11.9026 22.772 11.496 22.8291C11.0756 22.8881 10.8003 22.814 10.6552 22.6846C10.5394 22.5813 10.5108 22.5041 10.5029 22.46C10.4945 22.4133 10.4989 22.3421 10.5507 22.2364C10.6638 22.006 10.9486 21.7242 11.3681 21.459C12.564 20.703 13.6073 19.8707 14.5585 18.8985C16.7862 16.6216 18.3585 14.009 19.2382 11.1817L19.2412 11.1729L19.2431 11.1641L20.2353 7.52348L20.499 6.79302C20.5147 6.83158 20.5326 6.87218 20.5488 6.91606C20.685 7.28577 20.7943 7.72802 20.8789 8.0518L21.579 10.7305C22.2529 13.3094 23.6255 15.6633 25.4208 17.8145C26.6507 19.288 28.1078 20.556 29.8037 21.6592C30.1782 21.9028 30.3998 22.1934 30.4726 22.4229Z" fill="var(--fill-0, #FD6500)" stroke="var(--stroke-0, #FD6500)"/>
<circle id="Ellipse 227" cx="20.5" cy="20.5" r="20" transform="rotate(-90 20.5 20.5)" stroke="var(--stroke-0, #FD6500)"/>
</g>
</svg>
