<svg preserveAspectRatio="none" width="100%" height="100%" overflow="visible" style="display: block;" viewBox="0 0 528.682 652.861" fill="none" xmlns="http://www.w3.org/2000/svg">
<g id="clippath">
<path id="Vector" d="M345.648 652.848L183.38 652.861C178.529 652.861 174.085 649.767 172.535 645.942C170.802 641.661 171.983 637.357 173.34 633.065C166.001 631.291 159.145 634.181 153.518 638.424C157.728 626.061 152.422 612.48 141.892 604.582L141.761 589.328C118.636 586.087 96.7544 577.681 78.0702 563.877C63.598 553.184 53.3048 538.968 48.4585 521.713C47.7789 519.294 48.1183 516.727 49.3531 514.364C56.3511 516.67 63.0564 517.01 69.6007 514.118C75.7731 511.39 79.6079 505.976 80.5654 499.182C81.788 490.504 78.3684 481.236 70.3892 476.795C62.4012 472.349 52.2736 473.112 44.5493 477.394C38.3357 480.839 35.2238 486.116 33.1559 492.631L33.0815 449.353C15.4211 448.099 0.180743 436.197 0.00222462 417.965L0.000197116 234.926C0.156401 216.775 15.4995 204.697 33.068 203.578L33.1465 160.262C35.2143 166.562 38.1538 171.796 44.0949 175.243C51.8131 179.721 61.8176 180.602 69.9774 176.332C78.0208 172.122 81.6392 163.019 80.6438 154.342C79.7966 146.955 75.5074 141.007 68.6574 138.375C62.2984 135.932 56.0313 136.334 49.3578 138.529C48.2042 136.407 47.7221 133.914 48.3232 131.713C52.914 114.9 62.6561 100.848 76.5393 90.2045C95.5082 75.6627 117.996 66.9241 141.758 63.5559L141.876 48.3129C152.411 40.4081 157.609 26.9455 153.629 14.7954C160.036 18.8797 166.166 21.6325 173.384 19.8014C171.984 15.5379 170.771 11.2183 172.535 6.94668C174.106 3.14302 178.537 0.0243596 183.374 0.0236833L344.671 1.62461e-05C349.36 -0.00065996 353.789 2.4161 355.733 6.03854C358.092 10.4339 356.822 15.2289 355.3 19.8108C362.457 21.594 368.835 18.9162 374.953 14.7636C371.271 27.264 376.145 40.195 386.775 48.3143L386.933 63.5553C410.679 66.9282 433.19 75.6499 452.147 90.2039C466.161 100.963 476.036 115.213 480.488 132.246C480.999 134.202 480.342 136.648 479.302 138.512C472.506 136.275 465.985 135.904 459.557 138.568C453.344 141.144 449.343 146.38 448.224 153.123C446.755 161.974 450.134 171.538 458.269 176.076C466.664 180.759 477.06 179.774 485.014 174.984C490.753 171.528 493.487 166.41 495.554 160.247L495.575 203.472C512.901 204.821 528.435 216.302 528.682 234.928V417.964C528.507 436.167 513.225 448.193 495.585 449.301L495.548 492.646C493.406 485.972 490.137 480.565 483.726 477.155C476.076 473.085 466.109 472.422 458.314 476.781C450.289 481.268 446.879 490.467 448.127 499.186C449.098 505.97 452.897 511.4 459.08 514.119C465.623 516.997 472.337 516.682 479.346 514.361C480.555 516.71 480.91 519.298 480.234 521.709C475.209 539.635 464.268 554.206 449.062 565.023C430.67 578.107 409.417 586.221 386.92 589.33L386.789 604.588C376.153 612.619 371.247 625.745 374.954 638.06C368.783 634.022 362.449 631.283 355.334 633.064C356.664 637.404 357.957 641.641 356.146 645.951C354.698 649.398 350.622 652.848 345.648 652.848H345.648Z" fill="var(--fill-0, black)"/>
</g>
</svg>
