<svg preserveAspectRatio="none" width="100%" height="100%" overflow="visible" style="display: block;" viewBox="0 0 529.682 653.861" fill="none" xmlns="http://www.w3.org/2000/svg">
<path id="Vector" d="M346.147 653.348L183.88 653.361C179.029 653.361 174.584 650.267 173.035 646.442C171.302 642.161 172.483 637.857 173.839 633.565C166.501 631.791 159.644 634.681 154.018 638.924C158.228 626.561 152.922 612.98 142.392 605.082L142.261 589.828C119.136 586.587 97.2542 578.181 78.57 564.377C64.0978 553.684 53.8046 539.468 48.9583 522.213C48.2787 519.794 48.6181 517.227 49.8529 514.864C56.851 517.17 63.5562 517.51 70.1005 514.618C76.2729 511.89 80.1077 506.476 81.0652 499.682C82.2878 491.004 78.8682 481.735 70.889 477.295C62.901 472.849 52.7734 473.612 45.0491 477.894C38.8355 481.339 35.7236 486.616 33.6557 493.131L33.5813 449.853C15.9209 448.599 0.680546 436.697 0.502028 418.465L0.5 235.426C0.656204 217.275 15.9993 205.197 33.5678 204.078L33.6463 160.762C35.7141 167.062 38.6536 172.296 44.5947 175.743C52.3129 180.221 62.3174 181.102 70.4772 176.832C78.5206 172.622 82.139 163.519 81.1436 154.842C80.2964 147.455 76.0072 141.507 69.1572 138.875C62.7982 136.432 56.5311 136.834 49.8576 139.029C48.704 136.907 48.2219 134.414 48.823 132.213C53.4138 115.4 63.1559 101.348 77.0391 90.7045C96.008 76.1627 118.496 67.4241 142.258 64.0559L142.375 48.8129C152.911 40.908 158.109 27.4455 154.129 15.2954C160.536 19.3797 166.666 22.1325 173.884 20.3013C172.484 16.0379 171.271 11.7183 173.035 7.44666C174.606 3.643 179.037 0.524343 183.874 0.523667L345.171 0.5C349.86 0.499324 354.289 2.91608 356.233 6.53852C358.592 10.9339 357.322 15.7288 355.8 20.3108C362.957 22.094 369.335 19.4162 375.453 15.2636C371.771 27.7639 376.645 40.695 387.275 48.8142L387.432 64.0552C411.179 67.4282 433.69 76.1499 452.646 90.7038C466.661 101.463 476.536 115.713 480.988 132.746C481.499 134.702 480.842 137.148 479.802 139.012C473.006 136.775 466.485 136.404 460.057 139.068C453.843 141.644 449.843 146.88 448.724 153.623C447.254 162.474 450.633 172.038 458.769 176.576C467.164 181.259 477.56 180.274 485.513 175.484C491.252 172.028 493.987 166.91 496.053 160.747L496.075 203.972C513.401 205.321 528.935 216.802 529.182 235.428V418.464C529.006 436.667 513.725 448.693 496.085 449.801L496.047 493.146C493.906 486.472 490.636 481.065 484.226 477.655C476.576 473.585 466.609 472.922 458.814 477.281C450.789 481.768 447.379 490.967 448.627 499.686C449.598 506.47 453.397 511.9 459.58 514.619C466.123 517.497 472.837 517.182 479.846 514.861C481.055 517.21 481.41 519.798 480.733 522.209C475.708 540.135 464.768 554.706 449.562 565.523C431.17 578.607 409.916 586.72 387.42 589.83L387.289 605.088C376.652 613.119 371.747 626.245 375.453 638.56C369.283 634.522 362.948 631.783 355.833 633.564C357.164 637.904 358.457 642.141 356.646 646.451C355.198 649.898 351.122 653.348 346.148 653.348H346.147Z" stroke="var(--stroke-0, black)" stroke-miterlimit="10"/>
</svg>
