<svg preserveAspectRatio="none" width="100%" height="100%" overflow="visible" style="display: block;" viewBox="0 0 562.464 685" fill="none" xmlns="http://www.w3.org/2000/svg">
<g id="Group">
<path id="Vector" d="M34.7119 479.377L34.3818 479.257C15.622 472.48 2.86775 457.971 0.5 439.223L0.529297 245.852C2.56491 232.603 8.77998 221.623 19.4316 213.683L19.4375 213.678C23.8416 210.297 28.8057 207.82 34.3867 205.768L34.7139 205.647V205.298L34.7373 53.3506L65.3262 53.3018L65.71 53.3008L65.8086 52.9307C67.9064 45.0863 70.4122 38.0205 74.085 31.0332C90.8517 0.542523 133.238 -7.87141 161.455 11.3203L161.873 11.6045L162.152 11.1836C167.264 3.50266 174.257 2.37462 182.278 0.505859L380.287 0.500977C387.918 1.90821 395.632 3.86655 400.292 11.2148L400.569 11.6523L400.997 11.3594C422.072 -3.07036 450.36 -1.95337 471.59 12.2559L472.596 12.9424C480.481 18.782 486.139 26.1943 490.417 34.9854L496.702 52.9521L496.819 53.2861L497.173 53.2871L527.772 53.3564L527.744 205.409V205.771L528.089 205.884C545.299 211.52 558.335 225.471 561.27 243.097L561.273 243.118L561.278 243.14L561.964 245.805V439.225C560.307 452.737 552.751 464.704 541.175 472.714L528.012 479.558L527.742 479.698V480.002L527.773 631.647L497.166 631.693H496.812L496.694 632.027L490.218 650.481C485.039 660.949 477.586 669.691 467.344 675.384C446.255 687.106 420.823 687.079 401.021 673.673L400.598 673.386L400.321 673.816C396.452 679.824 390.216 682.534 383.399 683.672L383.376 683.676L383.354 683.682L380.267 684.5H182.208L180.333 683.904L180.293 683.892L180.252 683.886L179.556 683.781C172.385 682.643 165.905 679.754 162.13 673.837L161.854 673.405L161.429 673.691C140.915 687.536 114.671 686.912 93.8682 674.646C84.0562 668.862 77.0067 660.226 72.0352 650.031L65.7686 632.029L65.6523 631.694L65.2969 631.693L34.7256 631.657L34.7119 479.728V479.377ZM524.787 56.2305L524.289 56.2285L494.366 56.127C492.367 48.2816 490.011 41.091 486.592 33.9668L486.588 33.957L486.583 33.9482L486.029 32.9277C480.225 22.4609 471.919 14.4634 460.881 9.53613C441.043 0.681588 416.729 1.93619 399.164 16.2734C397.899 11.7313 394.699 8.55968 390.652 6.51172C386.386 4.35309 381.157 3.42584 376.165 3.42578L186.3 3.42188C181.324 3.42188 176.072 4.35242 171.791 6.52148C167.733 8.57787 164.524 11.7632 163.299 16.3311C143.65 0.160708 115.049 0.470307 94.3232 13.4941L93.3311 14.1309C85.3359 19.3767 79.8829 26.544 75.3975 34.8066L75.3877 34.8232L75.3799 34.8408C72.2889 41.765 70.0116 48.5923 68.0898 56.1279L38.1709 56.2158L37.6729 56.2178V56.7158L37.5762 207.549C17.7292 214.01 3.41039 229.881 3.5625 251.218L3.56445 435.137H3.56348L3.56445 435.15C4.13729 456.231 18.6288 471.43 37.5781 477.437L37.6816 628.341V628.841H38.1807L68.1133 628.852C70.0736 636.693 72.4134 643.936 75.8818 651.029L75.8857 651.037L75.8896 651.044C81.8015 662.161 90.4508 670.611 102.034 675.676C121.659 684.257 146.125 682.994 163.278 668.629C164.483 673.094 167.605 676.28 171.544 678.365C175.707 680.569 180.807 681.561 185.625 681.561L376.837 681.558C381.677 681.558 386.776 680.574 390.932 678.377C394.864 676.298 397.972 673.117 399.169 668.649C416.389 682.974 440.785 684.286 460.423 675.676C471.524 670.809 479.971 662.895 485.867 652.352L485.871 652.346L485.874 652.339C489.755 644.901 492.276 637.172 494.344 628.873L524.278 628.789L524.776 628.788V628.29L524.882 477.342C544.471 471.278 558.709 455.424 558.892 434.466V250.54C558.732 229.531 544.48 213.816 524.864 207.597L524.787 56.7285V56.2305Z" stroke="var(--stroke-0, black)"/>
<g id="Group_2">
<path id="Vector_2" d="M362.538 668.919L200.271 668.931C195.42 668.931 190.975 665.838 189.426 662.013C187.692 657.731 188.873 653.427 190.23 649.136C182.892 647.362 176.035 650.252 170.408 654.495C174.618 642.132 169.312 628.55 158.782 620.652L158.652 605.399C135.527 602.157 113.645 593.752 94.9604 579.947C80.4883 569.255 70.1951 555.039 65.3487 537.784C64.6691 535.365 65.0086 532.798 66.2433 530.435C73.2414 532.741 79.9466 533.081 86.4909 530.189C92.6634 527.461 96.4981 522.047 97.4556 515.253C98.6782 506.575 95.2586 497.306 87.2794 492.866C79.2914 488.42 69.1638 489.183 61.4395 493.465C55.2259 496.909 52.114 502.187 50.0462 508.702L49.9718 465.424C32.3113 464.17 17.071 452.268 16.8924 434.036L16.8904 250.997C17.0466 232.846 32.3897 220.768 49.9582 219.649L50.0367 176.333C52.1045 182.633 55.044 187.867 60.9851 191.314C68.7034 195.791 78.7078 196.673 86.8676 192.402C94.9111 188.193 98.5294 179.09 97.5341 170.413C96.6868 163.026 92.3976 157.078 85.5476 154.446C79.1886 152.002 72.9215 152.405 66.248 154.6C65.0944 152.478 64.6123 149.985 65.2134 147.784C69.8042 130.971 79.5463 116.919 93.4295 106.275C112.398 91.7335 134.886 82.9949 158.648 79.6267L158.766 64.3837C169.301 56.4789 174.499 43.0163 170.52 30.8662C176.927 34.9505 183.057 37.7033 190.274 35.8722C188.875 31.6087 187.661 27.2891 189.426 23.0175C190.997 19.2138 195.428 16.0952 200.265 16.0945L361.561 16.0708C366.25 16.0702 370.679 18.4869 372.623 22.1094C374.982 26.5047 373.712 31.2997 372.19 35.8816C379.348 37.6648 385.726 34.987 391.843 30.8344C388.161 43.3348 393.035 56.2659 403.665 64.3851L403.823 79.6261C427.569 82.999 450.08 91.7207 469.037 106.275C483.051 117.034 492.927 131.284 497.378 148.317C497.889 150.273 497.232 152.719 496.193 154.583C489.396 152.346 482.875 151.975 476.447 154.639C470.234 157.215 466.233 162.451 465.114 169.194C463.645 178.045 467.024 187.609 475.159 192.147C483.554 196.83 493.95 195.845 501.904 191.055C507.643 187.599 510.377 182.481 512.444 176.317L512.466 219.543C529.791 220.892 545.325 232.373 545.573 250.999V434.034C545.397 452.238 530.115 464.263 512.475 465.372L512.438 508.717C510.296 502.042 507.027 496.636 500.616 493.225C492.966 489.156 482.999 488.493 475.205 492.851C467.179 497.339 463.769 506.538 465.018 515.257C465.989 522.041 469.787 527.471 475.971 530.19C482.514 533.067 489.228 532.753 496.237 530.432C497.445 532.781 497.8 535.369 497.124 537.78C492.099 555.705 481.159 570.276 465.952 581.094C447.561 594.178 426.307 602.291 403.811 605.401L403.68 620.659C393.043 628.69 388.137 641.816 391.844 654.131C385.674 650.092 379.339 647.354 372.224 649.135C373.555 653.475 374.847 657.712 373.037 662.022C371.588 665.469 367.513 668.919 362.539 668.919H362.538ZM199.928 664.956L362.238 664.982C364.746 664.982 367.38 663.46 368.534 662.24C369.674 661.035 370.612 657.604 370.144 656.037L367.452 647.024C373.257 643.758 379.783 644.109 386.271 646.89C386.436 635.266 391.723 625.645 400 618.619L400.084 601.962C424.221 599.123 446.789 590.638 465.91 576.32C479.624 566.051 489.581 552.305 493.887 535.318C486.064 536.789 478.69 536.35 472.293 532.595C464.881 528.243 461.131 521.076 460.895 512.547C460.606 502.09 465.978 492.171 475.901 488.201C486.651 483.901 498.723 485.808 507.552 493.219L508.795 493.231L508.756 461.403C524.92 462.544 541.862 450.989 541.863 434.686L541.879 251.025C541.88 233.917 525.397 222.688 508.765 223.623L508.714 191.062C498.2 199.912 483.87 201.851 472.419 195.013C464.362 190.201 460.755 181.487 460.905 172.495C461.078 162.06 466.993 153.508 476.936 150.324C482.32 148.6 487.797 148.648 493.896 149.661C489.532 132.785 479.626 118.958 465.916 108.718C446.77 94.4167 424.232 85.8749 400.08 83.093L400.01 66.415C391.605 59.2885 386.252 49.4294 386.338 38.055C379.816 41.0215 373.246 41.2318 367.402 38.0205L370.053 29.0317C371.231 25.0339 367.972 20.0943 362.837 20.0936L199.63 20.0875C194.521 20.0875 191.239 25.0671 192.396 29.0148L195.04 38.036C189.194 41.2142 182.667 40.9775 176.186 38.1584C176.057 49.7824 170.758 59.3832 162.455 66.3941L162.387 83.0842C138.868 85.7937 116.965 93.9738 98.0994 107.554C83.6658 117.944 73.0392 132.012 68.6033 149.683C75.3944 148.47 81.604 148.621 87.5262 151.075C96.2067 154.671 101.105 162.419 101.537 171.811C101.995 181.754 97.5841 191.375 88.3816 195.973C77.0613 201.631 63.6622 199.532 53.7092 190.993L53.6943 223.619C36.6343 222.858 20.594 233.79 20.5852 251.644L20.5426 336.657L20.5345 347.946L20.6231 434.753C20.6393 450.973 37.491 462.518 53.6801 461.419L53.7349 494.073C63.9327 485.275 77.8666 483.302 89.2445 489.536C97.9763 494.32 101.914 503.636 101.541 513.249C101.15 523.35 95.1538 531.551 85.5253 534.7C80.1556 536.456 74.654 536.376 68.5877 535.354C73.052 552.978 83.6563 567.087 98.1041 577.479C116.963 591.045 138.883 599.27 162.369 601.944L162.523 618.764C171.113 625.783 175.836 635.514 176.248 646.878C182.641 644.085 189.198 643.786 195.037 647.01L192.415 655.99C191.24 660.014 194.432 664.955 199.929 664.956H199.928Z" fill="var(--fill-0, black)"/>
<path id="Vector_3" d="M431.46 19.2942C447.711 13.2671 465.545 19.3871 475.385 33.6624C481.479 42.7503 483.869 53.1426 483.522 64.4602L483.505 64.9749L484.02 64.9758L512.263 65.0315L512.312 124.644C509.766 118.429 506.606 113.325 502.111 108.411C485.129 89.8527 457.468 74.9821 432.412 70.4114C438.933 68.0746 444.38 64.5184 447.274 58.3147C450.4 51.6136 448.126 44.3951 443.101 38.9329L442.528 38.3089L442.259 39.1135C441.5 41.3885 440.347 43.0512 438.87 44.135C437.396 45.2173 435.559 45.752 433.378 45.7014C425.288 45.5146 419.73 38.7055 421.247 30.5501C422.21 25.3792 426.266 21.2207 431.46 19.2942ZM476.723 42.2229C469.845 25.479 452.102 16.2498 434.7 21.221C430.503 22.4197 426.555 24.8433 424.85 28.8801C423.148 32.9089 423.711 37.4633 427.123 40.4085C428.239 41.3707 430.08 42.3467 431.998 42.7337C433.854 43.108 435.892 42.9474 437.379 41.5423L437.522 41.4026C438.748 40.1465 439.474 38.57 440.036 36.887C440.318 36.0448 440.562 35.1643 440.805 34.2766C440.969 33.6796 441.133 33.0789 441.308 32.4768L448.305 41.0452C454.468 50.5072 451.797 62.0775 442.062 68.6643L441.183 69.2591L442.202 69.5579C467.319 76.9327 492.371 91.3191 508.502 111.444L509.391 112.551L509.393 111.131L509.45 68.3079L509.451 67.8079L508.95 67.8069L480.661 67.7727C480.866 58.8352 480.44 50.2947 476.723 42.2229Z" stroke="var(--stroke-0, black)"/>
<path id="Vector_4" d="M87.0991 33.6573C96.7846 19.5397 114.374 13.4287 130.523 19.0987C135.748 20.9331 139.92 24.8732 141.121 30.0704C142.064 34.157 141.116 38.1477 138.687 41.2169L138.448 41.5109C136.032 44.3908 131.991 45.9024 127.717 45.6632C124.024 45.4571 121.605 43.0002 120.195 39.1359L119.917 38.3722L119.361 38.9659C114.133 44.5426 112.076 52.001 115.361 58.7921L115.369 58.8077C118.437 64.5993 123.456 67.9765 129.926 70.4161C104.884 75.0822 77.1994 89.8702 60.0249 108.767C55.6324 113.599 52.5212 118.833 50.1685 124.591L50.1529 65.0128L78.4097 64.9239L78.9185 64.922L78.9087 64.4142C78.6776 52.9847 80.9565 42.7674 87.0991 33.6573ZM128.298 21.3712C110.948 16.1184 93.0639 25.0752 85.9429 41.7491C82.1193 49.9636 81.4925 58.6675 81.8843 67.7814L53.5454 67.7882H53.0454V68.2882L53.0786 111.056L53.0796 112.465L53.9673 111.37C70.5773 90.8856 95.3274 77.0232 120.146 69.5441L121.125 69.2491L120.292 68.6573C115.314 65.1209 112.319 60.5727 111.289 55.7364C110.259 50.906 111.179 45.7485 114.1 40.9679C116.281 38.0189 118.591 35.2337 121.12 32.3888C121.309 33.0256 121.484 33.6559 121.656 34.2794C121.902 35.1725 122.146 36.0529 122.426 36.8927C122.988 38.5729 123.71 40.1372 124.952 41.4093C126.435 42.9286 128.551 43.0964 130.467 42.7091C132.388 42.3208 134.237 41.3542 135.34 40.4142C138.642 37.6015 139.223 33.3047 137.808 29.4151C136.295 25.2529 132.5 22.6425 128.298 21.3712Z" stroke="var(--stroke-0, black)"/>
<path id="Vector_5" d="M50.1624 560.413C52.5184 566.266 55.4587 571.119 59.5716 575.762L60.0306 576.274C77.057 595.04 104.791 609.985 130.073 614.626C123.504 616.948 118.115 620.5 115.18 626.736C112.069 633.344 114.362 640.723 119.253 645.923L119.732 646.432L120.059 645.815C120.625 644.748 121.225 643.619 121.937 642.632C122.644 641.651 123.434 640.852 124.361 640.4L124.381 640.39C129.12 638.11 134.432 639.702 137.748 642.856C140.994 645.942 142.297 650.86 140.991 655.484L140.856 655.93C139.268 660.884 135.119 664.422 130.045 666.111C113.543 671.604 95.8655 665.014 86.4925 650.445L86.0521 649.746C80.6856 640.98 78.6251 631.213 78.9466 620.587L78.9622 620.072L78.4476 620.071L50.1546 620.054L50.1624 560.413ZM53.0716 573.987L53.0599 616.699V617.2L53.5599 617.199L81.9134 617.173C81.3436 627.577 82.5263 637.556 87.4896 646.534C95.7053 661.396 112.647 668.719 128.801 663.486C133.142 662.079 136.988 659.102 138.14 654.635C139.152 650.711 138.214 646.821 134.921 644.303C133.847 643.482 132.044 642.571 130.161 642.245C128.278 641.92 126.206 642.168 124.769 643.833C123.569 645.224 122.869 646.852 122.317 648.494C122.041 649.313 121.797 650.152 121.55 650.965C121.388 651.499 121.22 652.025 121.041 652.539L114.411 644.404C107.983 634.888 110.478 623.028 120.41 616.39L121.295 615.797L120.274 615.494C95.3132 608.104 70.5824 594.097 53.9593 573.671L53.0716 572.581V573.987Z" stroke="var(--stroke-0, black)"/>
<path id="Vector_6" d="M512.274 620.131L484.008 619.973L483.486 619.97L483.506 620.492C483.906 630.955 481.754 641.47 475.912 650.553C466.468 665.094 448.857 671.581 432.424 666.108C427.526 664.477 423.476 661.123 421.771 656.403C420.065 651.681 421.156 646.532 424.402 643.158C427.556 639.879 432.862 638.186 437.732 640.178C438.769 640.602 439.638 641.421 440.402 642.447C441.165 643.474 441.795 644.67 442.372 645.812L442.692 646.442L443.18 645.931C448.447 640.42 450.521 632.541 446.825 625.786C443.712 620.096 438.605 616.83 432.406 614.616C456.913 610.161 483.303 596.031 500.479 578.392C505.673 573.058 509.478 567.415 512.316 560.414L512.274 620.131ZM508.527 573.639L496.685 586.108C480.924 599.707 462.596 609.499 442.248 615.484L441.238 615.781L442.108 616.376C451.949 623.108 454.486 634.897 448.061 644.387L441.326 652.565C441.134 651.921 440.958 651.275 440.782 650.632C440.528 649.701 440.273 648.776 439.975 647.898C439.379 646.146 438.586 644.521 437.187 643.341C435.628 642.025 433.574 641.945 431.737 642.362C429.895 642.781 428.163 643.72 427.126 644.609C424.155 647.159 423.28 650.928 424.429 654.913C425.665 659.202 429.22 661.966 433.142 663.305C449.616 668.925 467.01 661.438 475.207 646.089C480.01 637.208 481.058 627.409 480.604 617.201L508.941 617.229H509.442V616.729L509.389 573.982L509.388 572.731L508.527 573.639Z" stroke="var(--stroke-0, black)"/>
</g>
</g>
</svg>
