<svg preserveAspectRatio="none" width="100%" height="100%" overflow="visible" style="display: block;" viewBox="0 0 408.874 504.911" fill="none" xmlns="http://www.w3.org/2000/svg">
<g id="clippath">
<path id="Vector" d="M267.318 504.902L141.823 504.911C138.071 504.911 134.634 502.519 133.436 499.561C132.095 496.249 133.009 492.921 134.058 489.602C128.382 488.23 123.08 490.465 118.728 493.746C121.984 484.185 117.88 473.681 109.737 467.573L109.636 455.776C91.7512 453.269 74.8281 446.769 60.378 436.092C49.1855 427.823 41.2249 416.828 37.4768 403.484C36.9512 401.613 37.2137 399.628 38.1687 397.8C43.5809 399.584 48.7666 399.847 53.8278 397.61C58.6015 395.5 61.5672 391.313 62.3077 386.059C63.2533 379.347 60.6086 372.179 54.4376 368.745C48.2598 365.306 40.4274 365.897 34.4535 369.208C29.648 371.872 27.2413 375.954 25.6421 380.992L25.5845 347.522C11.9262 346.552 0.139631 337.348 0.00156804 323.247L0 181.688C0.120805 167.65 11.9869 158.309 25.5741 157.444L25.6347 123.944C27.234 128.816 29.5073 132.864 34.1021 135.53C40.0712 138.993 47.8085 139.675 54.1191 136.372C60.3398 133.116 63.1382 126.076 62.3684 119.365C61.7131 113.653 58.3959 109.053 53.0983 107.017C48.1803 105.127 43.3335 105.438 38.1723 107.136C37.2801 105.495 36.9073 103.567 37.3722 101.865C40.9226 88.8619 48.457 77.9941 59.194 69.7626C73.8642 58.5162 91.256 51.7579 109.633 49.153L109.724 37.3643C117.872 31.2509 121.892 20.8391 118.814 11.4425C123.769 14.6012 128.51 16.7302 134.092 15.314C133.01 12.0167 132.071 8.676 133.436 5.37243C134.651 2.43075 138.078 0.0188268 141.818 0.0183038L266.563 1.09716e-07C270.189 -0.000522856 273.614 1.86856 275.118 4.67009C276.942 8.06936 275.96 11.7777 274.783 15.3213C280.318 16.7004 285.251 14.6294 289.982 11.4179C287.134 21.0855 290.904 31.0861 299.125 37.3654L299.247 49.1525C317.612 51.7611 335.021 58.5063 349.682 69.7621C360.521 78.083 368.158 89.104 371.601 102.277C371.996 103.789 371.488 105.681 370.684 107.123C365.428 105.393 360.385 105.106 355.413 107.166C350.608 109.158 347.514 113.208 346.649 118.423C345.512 125.268 348.125 132.664 354.417 136.174C360.91 139.796 368.95 139.034 375.101 135.329C379.539 132.657 381.654 128.699 383.252 123.932L383.269 157.362C396.669 158.405 408.682 167.284 408.874 181.689V323.246C408.738 337.324 396.919 346.624 383.277 347.482L383.248 381.004C381.592 375.842 379.063 371.66 374.105 369.023C368.189 365.876 360.48 365.363 354.452 368.734C348.246 372.204 345.608 379.319 346.574 386.062C347.325 391.309 350.263 395.508 355.045 397.611C360.105 399.836 365.297 399.593 370.718 397.798C371.653 399.614 371.927 401.616 371.404 403.481C367.518 417.344 359.057 428.613 347.296 436.979C333.073 447.098 316.635 453.373 299.237 455.777L299.136 467.578C290.91 473.789 287.116 483.94 289.983 493.464C285.21 490.341 280.311 488.223 274.809 489.601C275.838 492.957 276.838 496.234 275.437 499.567C274.317 502.233 271.165 504.902 267.318 504.902Z" fill="var(--fill-0, black)"/>
</g>
</svg>
