<svg preserveAspectRatio="none" width="100%" height="100%" overflow="visible" style="display: block;" viewBox="0 0 409.574 505.611" fill="none" xmlns="http://www.w3.org/2000/svg">
<path id="Vector" d="M267.668 505.252L142.173 505.261C138.421 505.261 134.984 502.869 133.786 499.911C132.445 496.599 133.359 493.271 134.408 489.952C128.732 488.58 123.429 490.815 119.078 494.096C122.334 484.535 118.23 474.031 110.087 467.923L109.986 456.126C92.1012 453.619 75.1781 447.119 60.728 436.442C49.5355 428.173 41.5749 417.178 37.8268 403.834C37.3012 401.963 37.5637 399.978 38.5187 398.15C43.9308 399.934 49.1166 400.197 54.1778 397.96C58.9515 395.85 61.9172 391.663 62.6577 386.409C63.6032 379.697 60.9586 372.529 54.7876 369.095C48.6098 365.656 40.7774 366.247 34.8035 369.558C29.998 372.222 27.5913 376.304 25.9921 381.342L25.9345 347.872C12.2762 346.902 0.489631 337.698 0.351568 323.597L0.35 182.038C0.470805 168 12.3369 158.659 25.9241 157.794L25.9847 124.294C27.584 129.166 29.8573 133.214 34.4521 135.88C40.4212 139.343 48.1585 140.025 54.4691 136.722C60.6898 133.466 63.4882 126.426 62.7184 119.715C62.0631 114.003 58.7459 109.403 53.4483 107.367C48.5303 105.477 43.6835 105.788 38.5223 107.486C37.6301 105.845 37.2573 103.917 37.7222 102.215C41.2726 89.2119 48.807 78.3441 59.544 70.1126C74.2142 58.8662 91.606 52.1079 109.983 49.503L110.074 37.7143C118.222 31.6009 122.242 21.1891 119.164 11.7925C124.119 14.9512 128.86 17.0802 134.442 15.664C133.36 12.3667 132.421 9.026 133.786 5.72243C135.001 2.78075 138.428 0.368827 142.168 0.368304L266.913 0.35C270.539 0.349477 273.964 2.21856 275.468 5.02009C277.292 8.41937 276.31 12.1277 275.132 15.6713C280.668 17.0504 285.601 14.9794 290.332 11.7679C287.484 21.4355 291.254 31.4361 299.475 37.7154L299.597 49.5025C317.962 52.1111 335.371 58.8563 350.032 70.1121C360.871 78.433 368.508 89.454 371.951 102.627C372.346 104.139 371.838 106.031 371.034 107.473C365.778 105.743 360.735 105.456 355.763 107.516C350.958 109.508 347.864 113.558 346.998 118.773C345.862 125.618 348.475 133.014 354.767 136.524C361.26 140.146 369.3 139.384 375.451 135.679C379.889 133.007 382.004 129.049 383.602 124.282L383.619 157.712C397.019 158.755 409.032 167.634 409.224 182.039V323.596C409.088 337.674 397.269 346.974 383.626 347.832L383.598 381.354C381.941 376.192 379.413 372.01 374.455 369.373C368.539 366.226 360.83 365.713 354.802 369.084C348.596 372.554 345.958 379.669 346.924 386.412C347.675 391.659 350.613 395.858 355.395 397.961C360.455 400.186 365.647 399.943 371.068 398.148C372.003 399.965 372.277 401.966 371.754 403.831C367.868 417.694 359.407 428.963 347.646 437.329C333.423 447.448 316.985 453.723 299.587 456.127L299.486 467.928C291.26 474.139 287.466 484.29 290.332 493.814C285.56 490.691 280.661 488.573 275.159 489.951C276.188 493.307 277.188 496.584 275.787 499.917C274.667 502.584 271.515 505.252 267.668 505.252H267.668Z" fill="var(--fill-0, #FD6500)" stroke="var(--stroke-0, #FD6500)" stroke-width="0.7" stroke-miterlimit="10"/>
</svg>
