<svg preserveAspectRatio="none" width="100%" height="100%" overflow="visible" style="display: block;" viewBox="0 0 31.7229 31.7227" fill="none" xmlns="http://www.w3.org/2000/svg">
<g id="Group 3230">
<path id="Vector" d="M23.6114 17.3385C23.64 17.4286 23.6394 17.5018 23.6232 17.5592C23.6074 17.6145 23.5701 17.6792 23.4855 17.7457C23.3141 17.8801 23.0546 17.9188 22.7101 17.8404C22.3701 17.763 22.0065 17.5823 21.7052 17.3736C20.5773 16.5921 19.7541 15.4786 19.0821 14.3512C18.3031 13.0439 17.7183 11.6987 17.2071 10.2984L16.5294 10.3951C16.4892 10.9965 16.6035 11.5529 16.6837 12.068C16.7299 12.3643 16.8042 12.6563 16.8634 12.9176C16.9245 13.187 16.9732 13.4381 16.9855 13.693L17.297 20.1363C17.3197 20.6078 17.2823 20.9839 17.0577 21.316C16.7831 21.7223 16.5002 22.2636 16.6974 22.8883C16.7136 22.9396 16.7196 22.9725 16.7218 22.9908C16.6669 23.0423 16.4382 23.201 16.3185 23.5279C16.1661 23.9441 16.0852 24.3578 16.0402 24.7808C16.0262 24.9116 15.9894 25.0295 15.9425 25.107C15.8966 25.1828 15.867 25.183 15.8653 25.1832C15.8357 25.186 15.8052 25.1804 15.7628 25.1265C15.7136 25.064 15.6692 24.954 15.6573 24.817C15.6346 24.5548 15.5948 24.2154 15.507 23.8961C15.422 23.5875 15.2765 23.237 15.0001 23.0123C14.9892 23.0034 14.9804 22.9942 14.9728 22.9869C15.0686 22.6976 15.0799 22.4365 15.0323 22.192C14.9828 21.9374 14.8731 21.7186 14.7726 21.5338C14.5619 21.1468 14.3846 20.8738 14.4034 20.4547L14.7013 13.8258C14.7144 13.5345 14.7656 13.2512 14.8292 12.9527C14.8911 12.6622 14.9682 12.3413 15.0196 12.0181C15.1018 11.5018 15.2079 10.9567 15.1778 10.3619L14.4972 10.2652C13.9596 11.8215 13.2791 13.3181 12.3566 14.7476C11.7291 15.7199 10.8939 16.7248 9.86144 17.3463C9.5712 17.5209 9.21959 17.6558 8.89953 17.7008C8.5694 17.7471 8.34288 17.6903 8.21886 17.5797C8.12473 17.4957 8.0979 17.4291 8.08996 17.3853C8.08181 17.3397 8.08743 17.2769 8.13 17.19C8.22184 17.0027 8.44869 16.7794 8.7755 16.5728C9.69841 15.9893 10.5036 15.3472 11.2374 14.5972C12.9571 12.8395 14.1699 10.8229 14.8487 8.64119L14.8497 8.64119L14.8527 8.62947L15.6193 5.81404L15.8575 5.15389C15.882 5.20711 15.907 5.26956 15.9327 5.33943C16.0389 5.62755 16.1244 5.9717 16.1896 6.22127L16.7306 8.29354C17.2502 10.2824 18.3096 12.0997 19.6964 13.7613C20.6454 14.8982 21.77 15.8764 23.0792 16.7281C23.3736 16.9196 23.5517 17.1505 23.6114 17.3385Z" fill="var(--fill-0, #141414)" stroke="var(--stroke-0, #141414)" stroke-width="0.7"/>
<circle id="Ellipse 227" cx="15.8616" cy="15.8613" r="15.5113" transform="rotate(-90 15.8616 15.8613)" stroke="var(--stroke-0, #141414)" stroke-width="0.7"/>
</g>
</svg>
