<svg preserveAspectRatio="none" width="100%" height="100%" overflow="visible" style="display: block;" viewBox="0 0 435 529.767" fill="none" xmlns="http://www.w3.org/2000/svg">
<g id="Group">
<path id="Vector" d="M26.8086 370.768L26.5781 370.684C12.0556 365.438 2.18007 354.203 0.349609 339.684L0.37207 190.135C1.94723 179.878 6.7589 171.376 15.0059 165.229L15.0098 165.226C18.4196 162.608 22.2624 160.69 26.5811 159.103L26.8105 159.019V158.774L26.8281 41.2236L50.5225 41.1855H50.79L50.8594 40.9258C52.4822 34.8576 54.4217 29.3911 57.2637 23.9844L57.2627 23.9834C70.2407 0.381351 103.048 -6.12939 124.888 8.72461L125.18 8.92285L125.375 8.62891C129.338 2.67457 134.762 1.79892 140.962 0.354492L294.114 0.350586C300.015 1.43887 305.997 2.95572 309.61 8.65332L309.804 8.95996L310.104 8.75488C326.416 -2.4142 348.31 -1.54867 364.74 9.44824L365.518 9.97949C371.623 14.5013 376.004 20.2407 379.315 27.0469L384.176 40.9404L384.258 41.1738L384.505 41.1748L408.206 41.2285L408.185 158.859V159.113L408.426 159.192C421.748 163.555 431.841 174.354 434.112 188.001L434.115 188.016L434.119 188.03L434.65 190.098V339.685C433.37 350.148 427.521 359.416 418.56 365.617L408.372 370.914L408.184 371.013V371.225L408.207 488.542L384.499 488.577H384.252L384.17 488.812L379.159 503.086C375.152 511.187 369.383 517.955 361.453 522.362C345.133 531.434 325.45 531.413 310.123 521.037L309.826 520.836L309.632 521.138C306.632 525.796 301.798 527.895 296.521 528.776L296.504 528.778L296.488 528.783L294.097 529.417H140.911L139.455 528.954L139.427 528.945L139.398 528.941L138.859 528.86C133.309 527.979 128.285 525.743 125.357 521.154L125.164 520.852L124.867 521.052C108.989 531.768 88.6765 531.284 72.5771 521.792C64.9808 517.314 59.5251 510.628 55.6777 502.737L50.8301 488.812L50.748 488.578H50.5L26.8193 488.55L26.8086 371.013V370.768ZM405.825 43.5244L405.477 43.5234L382.306 43.4434C380.759 37.367 378.936 31.8001 376.289 26.2852L376.286 26.2783L376.282 26.2725L375.854 25.4834C371.369 17.3951 364.952 11.2163 356.423 7.40918C341.074 0.55838 322.262 1.53861 308.687 12.6504C307.722 9.12041 305.247 6.65798 302.107 5.06934C298.815 3.40309 294.776 2.68652 290.919 2.68652L144.081 2.68359C140.237 2.68359 136.181 3.40198 132.877 5.07617C129.729 6.6714 127.246 9.14516 126.313 12.6953C110.887 -0.0370668 88.2893 0.40256 72.2012 10.959C66.0244 15.0116 61.8101 20.5493 58.3428 26.9365L58.3369 26.9482L58.3311 26.9609C55.9379 32.3219 54.1757 37.6075 52.6885 43.4443L29.5205 43.5137L29.1719 43.5146V43.8633L29.0977 160.541C13.9872 165.451 3.02247 177.413 2.79492 193.516L2.79199 194.288L2.79297 336.527V336.537C3.23575 352.831 14.4428 364.577 29.0986 369.214L29.1787 485.948V486.298H29.5283L52.7061 486.307C54.2231 492.38 56.0338 497.988 58.7188 503.479L58.7236 503.489C63.2922 512.08 69.9756 518.609 78.9258 522.522C94.1101 529.162 113.041 528.175 126.297 517.041C127.214 520.511 129.631 522.986 132.687 524.604C135.9 526.305 139.838 527.071 143.56 527.07L291.439 527.068C295.178 527.068 299.116 526.309 302.323 524.613C305.375 523 307.778 520.528 308.689 517.056C321.787 527.984 340.279 529.149 355.346 522.832L356.068 522.522C364.646 518.762 371.173 512.648 375.729 504.5L375.734 504.491C378.738 498.734 380.688 492.75 382.288 486.323L405.468 486.258L405.816 486.257V485.908L405.897 369.142C421.048 364.462 432.059 352.207 432.2 336.008H432.201V193.767L432.2 193.764C432.077 177.525 421.056 165.379 405.884 160.578L405.825 43.873V43.5244Z" stroke="var(--stroke-0, black)" stroke-width="0.7"/>
<g id="Group_2">
<path id="Vector_2" d="M280.38 517.331L154.885 517.34C151.134 517.34 147.696 514.948 146.498 511.99C145.157 508.678 146.071 505.35 147.12 502.031C141.445 500.659 136.142 502.894 131.79 506.175C135.046 496.614 130.942 486.11 122.799 480.002L122.698 468.205C104.814 465.698 87.8904 459.198 73.4403 448.522C62.2478 440.252 54.2872 429.258 50.5391 415.913C50.0135 414.042 50.2761 412.057 51.231 410.229C56.6432 412.013 61.8289 412.276 66.8902 410.039C71.6638 407.929 74.6295 403.742 75.37 398.488C76.3156 391.777 73.6709 384.608 67.4999 381.174C61.3221 377.736 53.4897 378.326 47.5158 381.637C42.7103 384.301 40.3036 388.383 38.7044 393.421L38.6469 359.951C24.9886 358.981 13.2019 349.777 13.0639 335.676L13.0623 194.117C13.1831 180.079 25.0492 170.738 38.6364 169.873L38.6971 136.373C40.2963 141.246 42.5696 145.293 47.1644 147.959C53.1335 151.422 60.8708 152.104 67.1814 148.801C73.4021 145.545 76.2005 138.505 75.4307 131.795C74.7754 126.082 71.4583 121.482 66.1606 119.446C61.2426 117.556 56.3958 117.867 51.2346 119.565C50.3425 117.924 49.9696 115.996 50.4345 114.294C53.9849 101.291 61.5193 90.4233 72.2563 82.1918C86.9265 70.9454 104.318 64.1871 122.695 61.5822L122.786 49.7935C130.934 43.68 134.954 33.2683 131.877 23.8717C136.832 27.0304 141.572 29.1594 147.154 27.7432C146.072 24.4459 145.134 21.1052 146.498 17.8016C147.713 14.8599 151.14 12.448 154.881 12.4475L279.625 12.4292C283.251 12.4286 286.677 14.2977 288.18 17.0992C290.004 20.4985 289.022 24.2069 287.845 27.7505C293.38 29.1296 298.313 27.0586 303.044 23.8471C300.197 33.5146 303.966 43.5153 312.187 49.7946L312.309 61.5817C330.674 64.1902 348.084 70.9355 362.745 82.1913C373.583 90.5122 381.22 101.533 384.663 114.706C385.058 116.219 384.55 118.11 383.746 119.552C378.49 117.822 373.447 117.535 368.476 119.595C363.67 121.587 360.576 125.637 359.711 130.852C358.574 137.697 361.188 145.094 367.479 148.603C373.972 152.225 382.012 151.463 388.163 147.759C392.602 145.086 394.717 141.128 396.315 136.361L396.331 169.791C409.731 170.835 421.744 179.713 421.936 194.119V335.675C421.8 349.753 409.981 359.054 396.339 359.911L396.31 393.433C394.654 388.271 392.125 384.09 387.168 381.452C381.251 378.305 373.543 377.793 367.514 381.163C361.308 384.633 358.671 391.748 359.636 398.491C360.387 403.738 363.325 407.937 368.107 410.04C373.167 412.265 378.36 412.022 383.78 410.227C384.715 412.044 384.989 414.045 384.466 415.91C380.58 429.773 372.119 441.042 360.359 449.409C346.135 459.527 329.698 465.802 312.3 468.207L312.198 480.007C303.972 486.218 300.178 496.369 303.045 505.894C298.273 502.77 293.374 500.652 287.871 502.03C288.9 505.386 289.9 508.663 288.5 511.997C287.379 514.663 284.227 517.331 280.381 517.331H280.38ZM154.62 514.266L280.148 514.286C282.088 514.286 284.125 513.109 285.018 512.165C285.899 511.234 286.625 508.58 286.263 507.368L284.18 500.397C288.67 497.872 293.717 498.143 298.735 500.294C298.862 491.304 302.951 483.863 309.353 478.43L309.418 465.547C328.085 463.351 345.538 456.79 360.326 445.716C370.932 437.774 378.633 427.143 381.963 414.006C375.913 415.143 370.21 414.804 365.263 411.9C359.53 408.535 356.631 402.992 356.448 396.395C356.224 388.308 360.379 380.636 368.053 377.567C376.367 374.241 385.703 375.716 392.531 381.448L393.493 381.456L393.462 356.841C405.963 357.724 419.066 348.787 419.067 336.179L419.079 194.138C419.081 180.907 406.333 172.223 393.469 172.946L393.43 147.764C385.298 154.609 374.216 156.108 365.36 150.82C359.129 147.099 356.34 140.359 356.455 133.405C356.589 125.335 361.164 118.72 368.853 116.258C373.018 114.925 377.253 114.962 381.97 115.746C378.595 102.694 370.934 92.0005 360.331 84.0807C345.524 73.0205 328.093 66.4144 309.415 64.2629L309.36 51.3645C302.86 45.853 298.72 38.2281 298.787 29.4313C293.743 31.7256 288.662 31.8882 284.142 29.4046L286.192 22.4528C287.103 19.3611 284.583 15.5408 280.612 15.5403L154.39 15.5356C150.439 15.5356 147.9 19.3867 148.795 22.4398L150.84 29.4167C146.319 31.8746 141.271 31.6916 136.258 29.5113C136.159 38.5011 132.061 45.9262 125.64 51.3483L125.587 64.2561C107.398 66.3517 90.4581 72.678 75.8679 83.1807C64.7052 91.2161 56.4868 102.096 53.0561 115.763C58.3083 114.824 63.1107 114.941 67.6908 116.839C74.4041 119.62 78.1925 125.612 78.5267 132.876C78.8807 140.566 75.4694 148.007 68.3524 151.563C59.5974 155.938 49.2348 154.315 41.5373 147.711L41.5258 172.943C28.3319 172.355 15.9266 180.81 15.9198 194.617L15.8869 260.365L15.8806 269.096L15.9491 336.23C15.9616 348.775 28.9945 357.703 41.5148 356.854L41.5572 382.108C49.444 375.304 60.2202 373.778 69.0197 378.599C75.7727 382.299 78.818 389.503 78.5298 396.938C78.227 404.75 73.5899 411.092 66.1434 413.528C61.9905 414.886 57.7356 414.824 53.0441 414.034C56.4967 427.664 64.6979 438.575 75.8716 446.613C90.4571 457.104 107.41 463.465 125.573 465.534L125.692 478.541C132.335 483.97 135.988 491.496 136.307 500.284C141.251 498.124 146.322 497.893 150.838 500.387L148.81 507.331C147.901 510.443 150.37 514.265 154.621 514.266H154.62Z" fill="var(--fill-0, black)"/>
<path id="Vector_3" d="M333.671 14.8887C346.255 10.2214 360.065 14.9607 367.685 26.0137C372.403 33.0498 374.252 41.0954 373.984 49.8545L373.973 50.2149L374.332 50.2159L396.211 50.2588L396.25 96.5879C394.27 91.7053 391.812 87.7116 388.296 83.8692C375.137 69.4886 353.682 57.9709 334.277 54.4668C339.373 52.662 343.63 49.9126 345.881 45.086C348.29 39.9211 346.539 34.3531 342.659 30.1358L342.258 29.6992L342.07 30.2627C341.482 32.0275 340.586 33.3204 339.437 34.1641C338.289 35.0067 336.86 35.4221 335.166 35.3828C328.887 35.2378 324.571 29.9504 325.749 23.6211C326.496 19.607 329.645 16.3821 333.671 14.8887ZM393.963 52.4795L393.612 52.4785L371.696 52.4522C371.857 45.525 371.532 38.912 368.653 32.6641C363.338 19.7344 349.636 12.6104 336.198 16.4492C332.959 17.3748 329.918 19.2441 328.606 22.3516C327.294 25.4557 327.729 28.9594 330.354 31.2246C331.212 31.9648 332.63 32.7167 334.108 33.0147C335.583 33.3122 337.198 33.1696 338.345 31.9961H338.346C339.289 31.0306 339.847 29.8171 340.281 28.5176C340.499 27.8673 340.688 27.1867 340.876 26.5C341.009 26.0169 341.14 25.53 341.283 25.042L346.742 31.7246C351.521 39.0606 349.448 48.0314 341.904 53.1358L341.288 53.5518L342.001 53.7617C361.431 59.4668 380.813 70.5958 393.295 86.167L393.917 86.9424L393.918 85.9483L393.962 52.8291L393.963 52.4795Z" stroke="var(--stroke-0, black)" stroke-width="0.7"/>
<path id="Vector_4" d="M67.3298 26.0134C74.8291 15.08 88.4499 10.3459 100.957 14.7371C105.007 16.159 108.245 19.2143 109.177 23.2488C109.932 26.5222 109.123 29.7168 107.101 32.1277C105.224 34.3655 102.088 35.5377 98.7732 35.3523C95.897 35.1919 94.0159 33.2775 92.9226 30.281L92.7273 29.7459L92.3386 30.1609C88.3032 34.4657 86.7194 40.2179 89.2517 45.4529V45.4539L89.2576 45.4646C91.6443 49.9696 95.5606 52.5829 100.62 54.4715C81.2263 58.0517 59.7565 69.5027 46.45 84.1433C43.0114 87.9265 40.59 92.0281 38.7634 96.5476L38.7507 50.2429L60.6414 50.1746L60.9978 50.1736L60.99 49.8181C60.8112 40.9743 62.5753 33.0661 67.3298 26.0134ZM99.2136 16.5642C86.0191 12.5696 72.4243 19.2147 66.7595 31.7156L66.4998 32.3045C63.5411 38.6609 63.0597 45.398 63.366 52.4578L41.4119 52.4636H41.0613L41.0623 52.8132L41.0876 85.8894L41.0886 86.8757L41.7097 86.1101C54.5615 70.2602 73.7097 59.5355 92.9089 53.7498L93.5935 53.5437L93.0105 53.1297C89.1539 50.3899 86.8323 46.8644 86.033 43.114C85.2344 39.3674 85.9488 35.3681 88.2136 31.6629C89.914 29.3637 91.7157 27.1936 93.6892 24.9754C93.8432 25.4899 93.9842 25.999 94.1228 26.5017C94.3132 27.1926 94.5009 27.8728 94.7175 28.5213C95.1509 29.8184 95.7073 31.0218 96.6619 31.9998C97.7967 33.162 99.418 33.2942 100.894 32.9959C102.282 32.7155 103.619 32.0427 104.48 31.364L104.646 31.2283C107.186 29.0652 107.634 25.7598 106.544 22.7625C105.451 19.7584 102.815 17.8019 99.8171 16.7605L99.2136 16.5642Z" stroke="var(--stroke-0, black)" stroke-width="0.7"/>
<path id="Vector_5" d="M38.7581 433.219C40.6574 437.991 43.0467 441.9 46.4544 445.656C59.6471 460.197 81.1579 471.772 100.739 475.331C95.6051 477.124 91.3953 479.871 89.1116 484.722C86.7143 489.815 88.48 495.506 92.2561 499.52L92.5911 499.876L92.8196 499.445C93.2575 498.62 93.7227 497.745 94.2747 496.979C94.8205 496.222 95.4324 495.6 96.1526 495.246L96.179 495.234C99.8605 493.463 103.984 494.7 106.558 497.147C109.159 499.621 110.153 503.61 108.971 507.296C107.738 511.141 104.52 513.884 100.587 515.193C87.6048 519.514 73.6834 514.179 66.5198 502.521C62.3653 495.734 60.7709 488.173 61.0198 479.95L61.0305 479.589H60.6702L38.7522 479.576L38.7581 433.219ZM41.0813 443.912L41.0725 476.945V477.295L41.4231 477.294L63.3899 477.274C62.9443 485.331 63.8555 493.054 67.6956 500.001C74.0415 511.48 87.126 517.135 99.6018 513.093C102.952 512.008 105.913 509.712 106.8 506.274C107.58 503.25 106.857 500.258 104.324 498.322C103.497 497.69 102.109 496.987 100.659 496.737C99.2094 496.486 97.6225 496.679 96.5227 497.954C95.5994 499.024 95.06 500.277 94.6331 501.545C94.4201 502.178 94.2318 502.826 94.0403 503.456C93.9081 503.89 93.7723 504.318 93.6253 504.736L88.4554 498.395C83.4695 491.017 85.405 481.82 93.1028 476.674L93.7229 476.26L93.0071 476.048C73.6981 470.332 54.5652 459.495 41.7034 443.691L41.0823 442.927L41.0813 443.912Z" stroke="var(--stroke-0, black)" stroke-width="0.7"/>
<path id="Vector_6" d="M396.221 479.635L374.324 479.513L373.958 479.511L373.973 479.876C374.282 487.974 372.617 496.113 368.094 503.146C360.781 514.405 347.143 519.429 334.418 515.191C330.622 513.927 327.48 511.326 326.156 507.663C324.832 503.998 325.679 500.002 328.199 497.382C330.648 494.837 334.766 493.522 338.549 495.068C339.36 495.4 340.037 496.039 340.629 496.835C341.221 497.631 341.71 498.56 342.156 499.442L342.38 499.885L342.722 499.526C346.787 495.273 348.384 489.197 345.535 483.99C343.111 479.559 339.118 477.035 334.267 475.323C353.253 471.908 373.724 460.963 387.035 447.292C391.091 443.126 394.053 438.718 396.253 433.229L396.221 479.635ZM393.313 443.667L384.16 453.307C371.965 463.831 357.783 471.409 342.038 476.04L341.331 476.248L341.94 476.664C349.567 481.882 351.535 491.023 346.552 498.381L341.3 504.76C341.143 504.239 341 503.716 340.858 503.197C340.662 502.477 340.465 501.762 340.234 501.085C339.774 499.732 339.165 498.484 338.09 497.577C336.897 496.57 335.322 496.506 333.906 496.827C332.488 497.149 331.154 497.874 330.357 498.558C328.072 500.519 327.396 503.417 328.281 506.488C329.233 509.79 331.971 511.921 334.997 512.954C347.72 517.294 361.154 511.511 367.485 499.654C371.201 492.783 372.006 485.201 371.65 477.296L393.607 477.317L393.957 477.318V476.967L393.917 443.908L393.916 443.032L393.313 443.667Z" stroke="var(--stroke-0, black)" stroke-width="0.7"/>
</g>
</g>
</svg>
