<svg width="969" height="122" viewBox="0 0 969 122" fill="none" xmlns="http://www.w3.org/2000/svg">
<path d="M38.3602 101.92H0.000195511V101.08C9.5202 101.08 10.0802 95.7599 10.0802 85.3999V16.5199C10.0802 6.15992 9.5202 0.839913 0.000195511 0.839913V-8.44002e-05H38.9202C71.1202 -8.44002e-05 89.1802 18.6199 89.1802 49.5599C89.1802 81.4799 68.8802 101.92 38.3602 101.92ZM38.6402 99.6799C64.9602 99.6799 80.2202 81.0599 80.2202 50.3999C80.2202 21.1399 64.8202 2.23992 38.3602 2.23992H23.2402C19.8802 2.23992 17.9202 3.91992 17.9202 7.27991V90.7199C17.9202 97.4399 22.4002 99.6799 38.6402 99.6799ZM101.293 13.9999C97.9335 13.9999 95.1335 11.1999 95.1335 7.83991C95.1335 4.47992 97.9335 1.67992 101.293 1.67992C104.653 1.67992 107.453 4.47992 107.453 7.83991C107.453 11.1999 104.653 13.9999 101.293 13.9999ZM112.913 101.92H93.5935V101.08C99.3335 101.08 99.7535 96.3199 99.7535 87.3599V45.9199C99.7535 36.9599 97.3735 33.5999 92.6135 32.7599V31.9199L106.193 27.1599H106.753V87.3599C106.753 96.3199 107.173 101.08 112.913 101.08V101.92ZM171.673 85.3999L172.513 85.9599C168.033 93.5199 159.493 103.6 145.213 103.6C127.713 103.6 116.233 87.6399 116.233 66.2199C116.233 42.8399 131.353 26.8799 148.153 26.8799C161.453 26.8799 173.073 36.6799 172.373 54.0399H124.633C124.073 56.9799 123.793 59.9199 123.793 62.9999C123.793 81.8999 132.473 98.2799 148.433 98.2799C159.073 98.2799 167.193 91.9799 171.673 85.3999ZM147.313 28.8399C136.253 28.8399 128.133 38.9199 125.053 51.7999H163.133C164.113 37.9399 158.793 28.8399 147.313 28.8399ZM225.203 81.1999H226.043L223.663 101.92H174.103V101.36L214.283 30.6599H199.583C182.223 30.6599 179.143 36.1199 175.363 45.9199H174.663L176.063 28.5599H223.103V29.1199L182.783 99.8199H200.843C217.923 99.8199 220.723 95.4799 225.203 81.1999ZM311.05 94.6399L311.89 95.1999C309.65 99.3999 305.59 103.6 300.97 103.6C294.95 103.6 293.83 96.5999 293.69 91.4199C287.39 98.8399 278.99 103.6 271.15 103.6C261.63 103.6 254.91 97.5799 254.91 89.0399C254.91 79.2399 262.75 72.3799 279.83 67.4799L293.41 63.6999V51.5199C293.41 47.4599 293.41 31.7799 278.85 31.7799C269.33 31.7799 262.61 38.4999 257.99 47.3199L257.15 46.8999C258.83 41.2999 265.55 26.8799 281.79 26.8799C294.67 26.8799 300.41 36.1199 300.41 48.4399V87.3599C300.41 92.9599 300.69 97.9999 305.17 97.9999C308.11 97.9999 310.21 95.7599 311.05 94.6399ZM275.07 98.5599C281.93 98.5599 289.21 93.7999 293.41 90.1599V65.6599L281.23 69.4399C266.95 73.9199 262.61 78.3999 262.61 86.5199C262.61 93.6599 267.65 98.5599 275.07 98.5599ZM331.765 9.23991C327.565 9.23991 324.345 11.4799 322.665 17.9199L321.825 17.7799C322.665 9.37992 326.585 3.63992 332.465 3.63992C339.465 3.63992 346.045 11.4799 351.085 11.4799C355.285 11.4799 358.505 9.23991 360.185 2.79992L361.025 2.93992C360.185 11.3399 356.265 17.0799 350.385 17.0799C343.385 17.0799 336.805 9.23991 331.765 9.23991ZM368.025 48.7199V87.3599C368.025 96.3199 368.445 101.08 374.185 101.08V101.92H354.865V101.08C360.605 101.08 361.025 96.3199 361.025 87.3599V50.3999C361.025 38.6399 356.265 32.4799 346.745 32.4799C339.045 32.4799 331.625 36.5399 324.765 42.4199V87.3599C324.765 96.3199 325.185 101.08 330.925 101.08V101.92H311.605V101.08C317.345 101.08 317.765 96.3199 317.765 87.3599V45.9199C317.765 36.9599 315.385 33.5999 310.625 32.7599V31.9199L324.205 27.1599H324.765V41.0199C332.325 33.0399 341.145 26.8799 350.525 26.8799C361.165 26.8799 368.025 34.4399 368.025 48.7199ZM410.078 103.6C391.038 103.6 377.038 89.0399 377.038 65.5199C377.038 42.2799 391.598 26.8799 410.358 26.8799C429.398 26.8799 443.398 41.4399 443.398 64.9599C443.398 88.1999 428.838 103.6 410.078 103.6ZM410.358 101.64C426.178 101.64 435.558 86.9399 435.558 65.2399C435.558 44.3799 425.898 28.8399 410.078 28.8399C394.258 28.8399 384.878 43.5399 384.878 65.2399C384.878 86.0999 394.538 101.64 410.358 101.64ZM468.236 103.6C460.536 103.6 453.116 101.5 448.216 98.8399L447.096 83.0199H447.936C452.696 95.7599 459.276 101.64 469.356 101.64C478.316 101.64 486.576 96.8799 486.576 86.7999C486.576 77.8399 480.836 74.6199 469.496 68.4599L464.316 65.6599C456.056 61.1799 449.196 56.6999 449.196 46.0599C449.196 34.2999 458.156 26.8799 470.756 26.8799C476.496 26.8799 483.636 28.2799 488.816 31.3599V44.3799H487.976C485.036 33.8799 477.756 28.8399 469.916 28.8399C460.956 28.8399 454.656 34.4399 454.656 42.8399C454.656 50.9599 460.676 55.0199 468.096 58.9399L473.276 61.7399C483.916 67.4799 492.036 71.3999 492.036 83.1599C492.036 95.4799 482.236 103.6 468.236 103.6ZM495.722 121.52L495.442 120.68C500.482 118.72 506.782 112.56 506.782 106.68C506.782 102.48 502.862 102.06 500.622 101.92C496.002 101.5 494.742 98.2799 494.742 96.0399C494.742 92.3999 497.542 89.8799 501.182 89.8799C506.082 89.8799 510.702 94.3599 510.702 101.78C510.702 112 502.862 119.42 495.722 121.52ZM595.734 27.1599V86.2399C595.734 95.1999 597.834 97.9999 602.874 99.1199V99.9599L590.974 103.6H590.414L588.874 89.3199C581.174 97.4399 572.494 103.6 562.974 103.6C552.334 103.6 545.474 96.0399 545.474 81.7599V41.1599C545.474 32.1999 542.814 30.7999 538.054 29.9599V29.1199L551.914 27.1599H552.474V80.0799C552.474 91.8399 557.234 97.9999 566.754 97.9999C574.454 97.9999 581.874 93.9399 588.734 88.0599V41.1599C588.734 32.1999 586.074 30.7999 581.314 29.9599V29.1199L595.174 27.1599H595.734ZM661.577 48.7199V87.3599C661.577 96.3199 661.997 101.08 667.737 101.08V101.92H648.417V101.08C654.157 101.08 654.577 96.3199 654.577 87.3599V50.3999C654.577 38.6399 649.817 32.4799 640.297 32.4799C632.597 32.4799 625.177 36.5399 618.317 42.4199V87.3599C618.317 96.3199 618.737 101.08 624.477 101.08V101.92H605.157V101.08C610.897 101.08 611.317 96.3199 611.317 87.3599V45.9199C611.317 36.9599 608.937 33.5999 604.177 32.7599V31.9199L617.757 27.1599H618.317V41.0199C625.877 33.0399 634.697 26.8799 644.077 26.8799C654.717 26.8799 661.577 34.4399 661.577 48.7199ZM725.329 94.6399L726.169 95.1999C723.929 99.3999 719.869 103.6 715.249 103.6C709.229 103.6 708.109 96.5999 707.969 91.4199C701.669 98.8399 693.269 103.6 685.429 103.6C675.909 103.6 669.189 97.5799 669.189 89.0399C669.189 79.2399 677.029 72.3799 694.109 67.4799L707.689 63.6999V51.5199C707.689 47.4599 707.689 31.7799 693.129 31.7799C683.609 31.7799 676.889 38.4999 672.269 47.3199L671.429 46.8999C673.109 41.2999 679.829 26.8799 696.069 26.8799C708.949 26.8799 714.689 36.1199 714.689 48.4399V87.3599C714.689 92.9599 714.969 97.9999 719.449 97.9999C722.389 97.9999 724.489 95.7599 725.329 94.6399ZM689.349 98.5599C696.209 98.5599 703.489 93.7999 707.689 90.1599V65.6599L695.509 69.4399C681.229 73.9199 676.889 78.3999 676.889 86.5199C676.889 93.6599 681.929 98.5599 689.349 98.5599ZM780.376 103.6C762.876 103.6 751.396 87.6399 751.396 66.2199C751.396 42.8399 766.516 26.8799 783.316 26.8799C792.976 26.8799 802.076 31.9199 806.556 39.0599L802.216 45.6399H801.376C798.296 35.2799 792.836 28.8399 783.316 28.8399C768.336 28.8399 758.956 45.2199 758.956 62.9999C758.956 81.8999 767.636 98.2799 783.596 98.2799C794.236 98.2799 802.356 91.9799 806.836 85.3999L807.676 85.9599C803.196 93.5199 794.656 103.6 780.376 103.6ZM863.902 94.6399L864.742 95.1999C862.502 99.3999 858.442 103.6 853.822 103.6C847.802 103.6 846.682 96.5999 846.542 91.4199C840.242 98.8399 831.842 103.6 824.002 103.6C814.482 103.6 807.762 97.5799 807.762 89.0399C807.762 79.2399 815.602 72.3799 832.682 67.4799L846.262 63.6999V51.5199C846.262 47.4599 846.262 31.7799 831.702 31.7799C822.182 31.7799 815.462 38.4999 810.842 47.3199L810.002 46.8999C811.682 41.2999 818.402 26.8799 834.642 26.8799C847.522 26.8799 853.262 36.1199 853.262 48.4399V87.3599C853.262 92.9599 853.542 97.9999 858.022 97.9999C860.962 97.9999 863.062 95.7599 863.902 94.6399ZM827.922 98.5599C834.782 98.5599 842.062 93.7999 846.262 90.1599V65.6599L834.082 69.4399C819.802 73.9199 815.462 78.3999 815.462 86.5199C815.462 93.6599 820.502 98.5599 827.922 98.5599ZM885.458 103.6C877.758 103.6 870.338 101.5 865.438 98.8399L864.318 83.0199H865.158C869.918 95.7599 876.498 101.64 886.578 101.64C895.538 101.64 903.798 96.8799 903.798 86.7999C903.798 77.8399 898.058 74.6199 886.718 68.4599L881.538 65.6599C873.278 61.1799 866.418 56.6999 866.418 46.0599C866.418 34.2999 875.378 26.8799 887.978 26.8799C893.718 26.8799 900.858 28.2799 906.038 31.3599V44.3799H905.198C902.258 33.8799 894.978 28.8399 887.138 28.8399C878.178 28.8399 871.878 34.4399 871.878 42.8399C871.878 50.9599 877.898 55.0199 885.318 58.9399L890.498 61.7399C901.138 67.4799 909.258 71.3999 909.258 83.1599C909.258 95.4799 899.458 103.6 885.458 103.6ZM967.403 94.6399L968.243 95.1999C966.003 99.3999 961.943 103.6 957.323 103.6C951.303 103.6 950.183 96.5999 950.043 91.4199C943.743 98.8399 935.343 103.6 927.503 103.6C917.983 103.6 911.263 97.5799 911.263 89.0399C911.263 79.2399 919.103 72.3799 936.183 67.4799L949.763 63.6999V51.5199C949.763 47.4599 949.763 31.7799 935.203 31.7799C925.683 31.7799 918.963 38.4999 914.343 47.3199L913.503 46.8999C915.183 41.2999 921.903 26.8799 938.143 26.8799C951.023 26.8799 956.763 36.1199 956.763 48.4399V87.3599C956.763 92.9599 957.043 97.9999 961.523 97.9999C964.463 97.9999 966.563 95.7599 967.403 94.6399ZM931.423 98.5599C938.283 98.5599 945.563 93.7999 949.763 90.1599V65.6599L937.583 69.4399C923.303 73.9199 918.963 78.3999 918.963 86.5199C918.963 93.6599 924.003 98.5599 931.423 98.5599Z" fill="#141414"/>
</svg>
