<svg width="636" height="66" viewBox="0 0 636 66" fill="none" xmlns="http://www.w3.org/2000/svg">
<path d="M1.40848 23.2002L5.82448 0.320194H20.7685L20.2885 2.81619H8.16048L6.75248 10.0802H17.8885L17.4085 12.4802H6.27248L4.73648 20.5762H17.5685L17.0565 23.2002H1.40848ZM20.058 23.2002L24.474 0.320194H27.034L22.618 23.2002H20.058ZM31.6585 23.2002L36.0745 0.320194H39.0505L45.9305 16.2882C46.5065 17.6002 46.9865 19.2322 46.9865 19.2322H47.0505L50.6985 0.320194H53.3545L48.9385 23.2002H46.0265L39.1145 7.2002C38.5705 5.98419 38.0265 4.35219 38.0265 4.35219H37.9625L34.3145 23.2002H31.6585ZM68.3265 15.5522H56.0065C55.9745 15.8722 55.9745 16.1602 55.9745 16.4802C55.9745 19.4242 57.5105 21.5042 60.5505 21.5042C62.6945 21.5042 64.4865 20.2562 65.2225 18.0802H67.7185C66.4385 21.7922 63.7185 23.6482 60.2945 23.6482C56.4545 23.6482 53.3825 20.9602 53.3825 16.4482C53.3825 10.8482 57.1265 6.24019 61.9905 6.24019C63.7505 6.24019 65.1265 6.68819 66.1505 7.45619C68.2305 9.02419 68.8705 12.0002 68.3265 15.5522ZM61.8945 8.2562C58.9825 8.2562 56.9985 10.4642 56.2625 13.6002H65.8945C66.2145 10.5282 64.9345 8.2562 61.8945 8.2562ZM72.4827 23.2002L70.4667 6.65619H73.1547L74.1147 16.6722C74.2427 18.1442 74.2747 20.4482 74.2747 20.4482H74.3387C74.3387 20.4482 75.1067 18.1762 75.6827 16.8642L80.1947 6.65619H82.8507L83.7467 16.8642C83.8747 18.2082 83.8427 20.4482 83.8427 20.4482H83.9067C83.9067 20.4482 84.7707 18.1442 85.4107 16.7682L90.1787 6.65619H92.8667L84.7387 23.2002H82.1147L81.1867 13.3122C81.0587 11.9362 81.0267 9.6642 81.0267 9.6642H80.9627C80.9627 9.6642 80.1307 11.9362 79.5227 13.3122L75.1387 23.2002H72.4827ZM97.0647 23.2002L101.481 0.320194H104.297L100.393 20.5762H111.881L111.369 23.2002H97.0647ZM120.546 23.6482C116.61 23.6482 113.57 21.0562 113.57 16.4162C113.57 11.0402 116.866 6.24019 122.306 6.24019C126.306 6.24019 129.25 9.02419 129.25 13.5362C129.25 18.7842 126.178 23.6482 120.546 23.6482ZM116.13 16.3842C116.13 19.2962 117.634 21.5042 120.642 21.5042C124.578 21.5042 126.658 17.7602 126.658 13.5362C126.658 10.7842 125.314 8.35219 122.242 8.35219C118.178 8.35219 116.13 12.2882 116.13 16.3842ZM137.702 23.6482C133.766 23.6482 130.726 21.0562 130.726 16.4162C130.726 11.0402 134.022 6.24019 139.462 6.24019C143.462 6.24019 146.406 9.02419 146.406 13.5362C146.406 18.7842 143.334 23.6482 137.702 23.6482ZM133.286 16.3842C133.286 19.2962 134.79 21.5042 137.798 21.5042C141.734 21.5042 143.814 17.7602 143.814 13.5362C143.814 10.7842 142.47 8.35219 139.398 8.35219C135.334 8.35219 133.286 12.2882 133.286 16.3842ZM162.794 6.65619L155.914 12.7682L160.426 23.2002H157.674L153.962 14.4642L151.018 17.0882L149.834 23.2002H147.274L151.69 0.320194H154.25L151.594 14.0482L159.434 6.65619H162.794ZM172.878 6.65619L172.398 9.2162H172.462C173.838 7.42419 176.078 6.27219 178.542 6.27219C181.806 6.27219 183.182 8.28819 182.574 11.5202L180.302 23.2002H177.774L180.046 11.5202C180.43 9.47219 179.854 8.41619 177.87 8.41619C174.83 8.41619 172.046 10.9762 171.47 13.9202L169.678 23.2002H167.118L170.318 6.65619H172.878ZM191.202 23.6482C187.266 23.6482 184.226 21.0562 184.226 16.4162C184.226 11.0402 187.522 6.24019 192.962 6.24019C196.962 6.24019 199.906 9.02419 199.906 13.5362C199.906 18.7842 196.834 23.6482 191.202 23.6482ZM186.786 16.3842C186.786 19.2962 188.29 21.5042 191.298 21.5042C195.234 21.5042 197.314 17.7602 197.314 13.5362C197.314 10.7842 195.97 8.35219 192.898 8.35219C188.834 8.35219 186.786 12.2882 186.786 16.3842ZM207.628 8.73619L208.044 6.65619H210.284L210.796 4.00019C211.34 1.21619 212.748 0.128195 215.564 0.128195C215.98 0.128195 216.62 0.160194 216.972 0.192194L216.556 2.36819C216.108 2.33619 215.756 2.33619 215.564 2.33619C213.9 2.33619 213.516 2.97619 213.292 4.12819L212.812 6.65619H215.852L215.436 8.73619H212.396L209.612 23.2002H207.084L209.868 8.73619H207.628ZM225.23 23.2002L225.646 20.8962H225.582C224.238 22.4962 222.446 23.5842 220.014 23.5842C216.782 23.5842 215.246 21.5362 215.886 18.1762L218.126 6.65619H220.654L218.414 18.1442C217.966 20.4162 218.606 21.4402 220.622 21.4402C223.566 21.4402 226.03 18.9762 226.638 15.9042L228.43 6.65619H230.99L227.79 23.2002H225.23ZM246.795 15.5522H234.475C234.443 15.8722 234.443 16.1602 234.443 16.4802C234.443 19.4242 235.979 21.5042 239.019 21.5042C241.163 21.5042 242.955 20.2562 243.691 18.0802H246.187C244.907 21.7922 242.187 23.6482 238.763 23.6482C234.923 23.6482 231.851 20.9602 231.851 16.4482C231.851 10.8482 235.595 6.24019 240.459 6.24019C242.219 6.24019 243.595 6.68819 244.619 7.45619C246.699 9.02419 247.339 12.0002 246.795 15.5522ZM240.363 8.2562C237.451 8.2562 235.467 10.4642 234.731 13.6002H244.363C244.683 10.5282 243.403 8.2562 240.363 8.2562ZM262.918 23.2002L263.334 20.8962H263.27C261.926 22.4962 260.134 23.5842 257.702 23.5842C254.47 23.5842 252.934 21.5362 253.574 18.1762L255.814 6.65619H258.342L256.102 18.1442C255.654 20.4162 256.294 21.4402 258.31 21.4402C261.254 21.4402 263.718 18.9762 264.326 15.9042L266.118 6.65619H268.678L265.478 23.2002H262.918ZM274.691 6.65619L274.211 9.2162H274.275C275.651 7.42419 277.891 6.27219 280.355 6.27219C283.619 6.27219 284.995 8.28819 284.387 11.5202L282.115 23.2002H279.587L281.859 11.5202C282.243 9.47219 281.667 8.41619 279.683 8.41619C276.643 8.41619 273.859 10.9762 273.283 13.9202L271.491 23.2002H268.931L272.131 6.65619H274.691ZM298.135 23.3602C296.375 23.3602 295.863 22.3042 295.831 21.0882H295.799C294.711 22.4962 292.919 23.5202 290.583 23.5202C287.287 23.5202 285.431 21.3442 285.431 18.8482C285.431 14.6242 288.663 13.7602 291.959 13.5682C296.503 13.3122 297.591 13.0242 297.591 10.8802C297.591 8.83219 295.991 8.35219 294.199 8.32019C291.511 8.28819 289.975 9.2162 289.527 11.6482H286.935C287.511 8.35219 290.103 6.3042 294.391 6.3042C297.591 6.3042 300.599 7.80819 299.799 11.9362L298.295 19.5842C298.071 20.8002 298.199 21.5682 299.735 21.2802H299.831L299.447 23.1362C299.127 23.2322 298.743 23.3602 298.135 23.3602ZM288.023 18.6562C288.023 20.3842 289.143 21.5362 291.127 21.5362C294.327 21.5362 296.023 19.3282 296.503 16.8962L296.951 14.6242C295.927 15.2002 294.615 15.2962 291.863 15.5202C290.583 15.6162 288.023 15.8082 288.023 18.6562ZM313.951 23.6482C309.855 23.6482 307.039 21.2162 307.039 16.5442C307.039 11.3922 310.495 6.24019 315.871 6.24019C319.583 6.24019 321.727 8.32019 322.047 12.0002H319.455C319.231 9.82419 318.143 8.35219 315.743 8.35219C311.743 8.35219 309.631 12.5762 309.631 16.6082C309.631 19.3282 310.815 21.5042 313.983 21.5042C316.319 21.5042 318.143 20.0002 318.815 17.3762H321.279C320.351 21.3762 317.503 23.6482 313.951 23.6482ZM330.108 23.6482C326.172 23.6482 323.132 21.0562 323.132 16.4162C323.132 11.0402 326.428 6.24019 331.868 6.24019C335.868 6.24019 338.812 9.02419 338.812 13.5362C338.812 18.7842 335.74 23.6482 330.108 23.6482ZM325.692 16.3842C325.692 19.2962 327.196 21.5042 330.204 21.5042C334.14 21.5042 336.22 17.7602 336.22 13.5362C336.22 10.7842 334.876 8.35219 331.804 8.35219C327.74 8.35219 325.692 12.2882 325.692 16.3842ZM339.777 23.2002L344.193 0.320194H346.753L342.337 23.2002H339.777ZM361.451 15.5522H349.131C349.099 15.8722 349.099 16.1602 349.099 16.4802C349.099 19.4242 350.635 21.5042 353.675 21.5042C355.819 21.5042 357.611 20.2562 358.347 18.0802H360.843C359.563 21.7922 356.843 23.6482 353.419 23.6482C349.579 23.6482 346.507 20.9602 346.507 16.4482C346.507 10.8482 350.251 6.24019 355.115 6.24019C356.875 6.24019 358.251 6.68819 359.275 7.45619C361.355 9.02419 361.995 12.0002 361.451 15.5522ZM355.019 8.2562C352.107 8.2562 350.123 10.4642 349.387 13.6002H359.019C359.339 10.5282 358.059 8.2562 355.019 8.2562ZM369.888 23.6482C365.792 23.6482 362.976 21.2162 362.976 16.5442C362.976 11.3922 366.432 6.24019 371.808 6.24019C375.52 6.24019 377.664 8.32019 377.984 12.0002H375.392C375.168 9.82419 374.08 8.35219 371.68 8.35219C367.68 8.35219 365.568 12.5762 365.568 16.6082C365.568 19.3282 366.752 21.5042 369.92 21.5042C372.256 21.5042 374.08 20.0002 374.752 17.3762H377.216C376.288 21.3762 373.44 23.6482 369.888 23.6482ZM385.982 23.6482C381.886 23.6482 379.07 21.2162 379.07 16.5442C379.07 11.3922 382.526 6.24019 387.902 6.24019C391.614 6.24019 393.758 8.32019 394.078 12.0002H391.486C391.262 9.82419 390.174 8.35219 387.774 8.35219C383.774 8.35219 381.662 12.5762 381.662 16.6082C381.662 19.3282 382.846 21.5042 386.014 21.5042C388.35 21.5042 390.174 20.0002 390.846 17.3762H393.31C392.382 21.3762 389.534 23.6482 385.982 23.6482ZM394.556 23.2002L397.756 6.65619H400.316L397.116 23.2002H394.556ZM398.364 3.5202L398.972 0.320194H401.532L400.924 3.5202H398.364ZM408.171 23.6482C404.235 23.6482 401.195 21.0562 401.195 16.4162C401.195 11.0402 404.491 6.24019 409.931 6.24019C413.931 6.24019 416.875 9.02419 416.875 13.5362C416.875 18.7842 413.803 23.6482 408.171 23.6482ZM403.755 16.3842C403.755 19.2962 405.259 21.5042 408.267 21.5042C412.203 21.5042 414.283 17.7602 414.283 13.5362C414.283 10.7842 412.939 8.35219 409.867 8.35219C405.803 8.35219 403.755 12.2882 403.755 16.3842ZM409.323 4.06419L411.339 0.00019455H414.475L411.531 4.06419H409.323ZM423.503 6.65619L423.023 9.2162H423.087C424.463 7.42419 426.703 6.27219 429.167 6.27219C432.431 6.27219 433.807 8.28819 433.199 11.5202L430.927 23.2002H428.399L430.671 11.5202C431.055 9.47219 430.479 8.41619 428.495 8.41619C425.455 8.41619 422.671 10.9762 422.095 13.9202L420.303 23.2002H417.743L420.943 6.65619H423.503ZM435.843 13.5042L436.483 10.3362H439.555L438.915 13.5042H435.843ZM433.987 23.2002L434.595 20.0322H437.667L437.059 23.2002H433.987ZM447.128 8.73619L447.544 6.65619H449.784L450.296 4.00019C450.84 1.21619 452.248 0.128195 455.064 0.128195C455.48 0.128195 456.12 0.160194 456.472 0.192194L456.056 2.36819C455.608 2.33619 455.256 2.33619 455.064 2.33619C453.4 2.33619 453.016 2.97619 452.792 4.12819L452.312 6.65619H455.352L454.936 8.73619H451.896L449.112 23.2002H446.584L449.368 8.73619H447.128ZM464.73 23.2002L465.146 20.8962H465.082C463.738 22.4962 461.946 23.5842 459.514 23.5842C456.282 23.5842 454.746 21.5362 455.386 18.1762L457.626 6.65619H460.154L457.914 18.1442C457.466 20.4162 458.106 21.4402 460.122 21.4402C463.066 21.4402 465.53 18.9762 466.138 15.9042L467.93 6.65619H470.49L467.29 23.2002H464.73ZM486.295 15.5522H473.975C473.943 15.8722 473.943 16.1602 473.943 16.4802C473.943 19.4242 475.479 21.5042 478.519 21.5042C480.663 21.5042 482.455 20.2562 483.191 18.0802H485.687C484.407 21.7922 481.687 23.6482 478.263 23.6482C474.423 23.6482 471.351 20.9602 471.351 16.4482C471.351 10.8482 475.095 6.24019 479.959 6.24019C481.719 6.24019 483.095 6.68819 484.119 7.45619C486.199 9.02419 486.839 12.0002 486.295 15.5522ZM479.863 8.2562C476.951 8.2562 474.967 10.4642 474.231 13.6002H483.863C484.183 10.5282 482.903 8.2562 479.863 8.2562ZM507.858 15.5522H495.538C495.506 15.8722 495.506 16.1602 495.506 16.4802C495.506 19.4242 497.042 21.5042 500.082 21.5042C502.226 21.5042 504.018 20.2562 504.754 18.0802H507.25C505.97 21.7922 503.25 23.6482 499.826 23.6482C495.986 23.6482 492.914 20.9602 492.914 16.4482C492.914 10.8482 496.658 6.24019 501.522 6.24019C503.282 6.24019 504.658 6.68819 505.682 7.45619C507.762 9.02419 508.402 12.0002 507.858 15.5522ZM501.426 8.2562C498.514 8.2562 496.53 10.4642 495.794 13.6002H505.426C505.746 10.5282 504.466 8.2562 501.426 8.2562ZM508.87 23.2002L513.286 0.320194H515.846L511.43 23.2002H508.87ZM519.063 28.5122L523.319 6.65619H525.879L525.431 8.92819H525.495C526.775 7.26419 528.631 6.27219 530.839 6.27219C534.455 6.27219 536.663 9.02419 536.663 13.1202C536.663 18.1122 533.943 23.6802 528.311 23.6802C525.879 23.6802 524.119 22.5602 523.191 20.7042H523.127L521.623 28.5122H519.063ZM523.959 16.5442C523.927 19.3602 525.271 21.5362 528.215 21.5362C532.311 21.5362 534.039 16.9602 534.039 13.2802C534.039 10.7202 533.079 8.44819 530.167 8.44819C526.167 8.44819 523.991 12.6082 523.959 16.5442ZM547.699 23.2002L548.115 20.8962H548.051C546.707 22.4962 544.915 23.5842 542.483 23.5842C539.251 23.5842 537.715 21.5362 538.355 18.1762L540.595 6.65619H543.123L540.883 18.1442C540.435 20.4162 541.075 21.4402 543.091 21.4402C546.035 21.4402 548.499 18.9762 549.107 15.9042L550.899 6.65619H553.459L550.259 23.2002H547.699ZM559.472 6.65619L558.992 9.2162H559.056C560.432 7.42419 562.672 6.27219 565.136 6.27219C568.4 6.27219 569.776 8.28819 569.168 11.5202L566.896 23.2002H564.368L566.64 11.5202C567.024 9.47219 566.448 8.41619 564.464 8.41619C561.424 8.41619 558.64 10.9762 558.064 13.9202L556.272 23.2002H553.712L556.912 6.65619H559.472ZM571.503 8.73619L571.919 6.65619H574.255L575.279 1.4402H577.839L576.815 6.65619H579.983L579.567 8.73619H576.399L574.383 19.2322C574.127 20.5122 574.575 21.0882 575.823 21.0882C576.463 21.0882 577.007 20.9282 577.295 20.8002H577.391L576.943 23.0402C576.495 23.2002 575.855 23.2962 575.151 23.2962C572.591 23.2962 571.279 21.8882 571.823 19.1362L573.839 8.73619H571.503ZM586.827 23.6482C582.891 23.6482 579.851 21.0562 579.851 16.4162C579.851 11.0402 583.147 6.24019 588.587 6.24019C592.587 6.24019 595.531 9.02419 595.531 13.5362C595.531 18.7842 592.459 23.6482 586.827 23.6482ZM582.411 16.3842C582.411 19.2962 583.915 21.5042 586.923 21.5042C590.859 21.5042 592.939 17.7602 592.939 13.5362C592.939 10.7842 591.595 8.35219 588.523 8.35219C584.459 8.35219 582.411 12.2882 582.411 16.3842ZM608.373 23.6802C604.629 23.6802 602.069 21.1842 602.101 16.7682C602.133 11.9362 605.109 6.27219 610.805 6.27219C612.981 6.27219 614.581 7.26419 615.605 9.18419H615.669L617.365 0.320194H619.925L615.509 23.2002H612.949L613.301 21.4082H613.237C611.989 22.8162 610.389 23.6802 608.373 23.6802ZM604.693 16.6402C604.693 19.2322 605.749 21.5362 608.725 21.5362C612.949 21.5362 614.837 17.0882 614.837 12.9922C614.837 10.4642 613.397 8.44819 610.709 8.44819C606.645 8.44819 604.693 13.1522 604.693 16.6402ZM634.514 15.5522H622.194C622.162 15.8722 622.162 16.1602 622.162 16.4802C622.162 19.4242 623.698 21.5042 626.738 21.5042C628.882 21.5042 630.674 20.2562 631.41 18.0802H633.906C632.626 21.7922 629.906 23.6482 626.482 23.6482C622.642 23.6482 619.57 20.9602 619.57 16.4482C619.57 10.8482 623.314 6.24019 628.178 6.24019C629.938 6.24019 631.314 6.68819 632.338 7.45619C634.418 9.02419 635.058 12.0002 634.514 15.5522ZM628.082 8.2562C625.17 8.2562 623.186 10.4642 622.45 13.6002H632.082C632.402 10.5282 631.122 8.2562 628.082 8.2562ZM0.000484347 65.5122L4.25648 43.6562H6.81648L6.36848 45.9282H6.43248C7.71248 44.2642 9.56849 43.2722 11.7765 43.2722C15.3925 43.2722 17.6005 46.0242 17.6005 50.1202C17.6005 55.1122 14.8805 60.6802 9.24848 60.6802C6.81648 60.6802 5.05648 59.5602 4.12848 57.7042H4.06448L2.56048 65.5122H0.000484347ZM4.89648 53.5442C4.86448 56.3602 6.20848 58.5362 9.15248 58.5362C13.2485 58.5362 14.9765 53.9602 14.9765 50.2802C14.9765 47.7202 14.0165 45.4482 11.1045 45.4482C7.10448 45.4482 4.92848 49.6082 4.89648 53.5442ZM31.2285 60.3602C29.4685 60.3602 28.9565 59.3042 28.9245 58.0882H28.8925C27.8045 59.4962 26.0125 60.5202 23.6765 60.5202C20.3805 60.5202 18.5245 58.3442 18.5245 55.8482C18.5245 51.6242 21.7565 50.7602 25.0525 50.5682C29.5965 50.3122 30.6845 50.0242 30.6845 47.8802C30.6845 45.8322 29.0845 45.3522 27.2925 45.3202C24.6045 45.2882 23.0685 46.2162 22.6205 48.6482H20.0285C20.6045 45.3522 23.1965 43.3042 27.4845 43.3042C30.6845 43.3042 33.6925 44.8082 32.8925 48.9362L31.3885 56.5842C31.1645 57.8002 31.2925 58.5682 32.8285 58.2802H32.9245L32.5405 60.1362C32.2205 60.2322 31.8365 60.3602 31.2285 60.3602ZM21.1165 55.6562C21.1165 57.3842 22.2365 58.5362 24.2205 58.5362C27.4205 58.5362 29.1165 56.3282 29.5965 53.8962L30.0445 51.6242C29.0205 52.2002 27.7085 52.2962 24.9565 52.5202C23.6765 52.6162 21.1165 52.8082 21.1165 55.6562ZM40.1907 43.6562L39.6787 46.2802H39.7427C40.9907 44.5522 42.5907 43.4642 44.4787 43.4642C45.2787 43.4642 45.5347 43.5282 45.8227 43.6562L45.3427 46.1202H45.2467C44.8947 45.9922 44.5747 45.9602 44.0627 45.9602C41.5667 45.9602 39.3267 47.9442 38.6547 51.4642L36.9907 60.2002H34.4307L37.6307 43.6562H40.1907ZM46.6907 45.7362L47.1067 43.6562H49.4427L50.4667 38.4402H53.0267L52.0027 43.6562H55.1707L54.7547 45.7362H51.5867L49.5707 56.2322C49.3147 57.5122 49.7627 58.0882 51.0107 58.0882C51.6507 58.0882 52.1947 57.9282 52.4827 57.8002H52.5787L52.1307 60.0402C51.6827 60.2002 51.0427 60.2962 50.3387 60.2962C47.7787 60.2962 46.4667 58.8882 47.0107 56.1362L49.0267 45.7362H46.6907ZM54.4307 60.2002L57.6307 43.6562H60.1907L56.9907 60.2002H54.4307ZM58.2387 40.5202L58.8467 37.3202H61.4067L60.7987 40.5202H58.2387ZM67.342 60.6802C63.598 60.6802 61.038 58.1842 61.07 53.7682C61.102 48.9362 64.078 43.2722 69.774 43.2722C71.95 43.2722 73.55 44.2642 74.574 46.1842H74.638L76.334 37.3202H78.894L74.478 60.2002H71.918L72.27 58.4082H72.206C70.958 59.8162 69.358 60.6802 67.342 60.6802ZM63.662 53.6402C63.662 56.2322 64.718 58.5362 67.694 58.5362C71.918 58.5362 73.806 54.0882 73.806 49.9922C73.806 47.4642 72.366 45.4482 69.678 45.4482C65.614 45.4482 63.662 50.1522 63.662 53.6402ZM90.6347 60.3602C88.8747 60.3602 88.3627 59.3042 88.3307 58.0882H88.2987C87.2107 59.4962 85.4187 60.5202 83.0827 60.5202C79.7867 60.5202 77.9307 58.3442 77.9307 55.8482C77.9307 51.6242 81.1627 50.7602 84.4587 50.5682C89.0027 50.3122 90.0907 50.0242 90.0907 47.8802C90.0907 45.8322 88.4907 45.3522 86.6987 45.3202C84.0107 45.2882 82.4747 46.2162 82.0267 48.6482H79.4347C80.0107 45.3522 82.6027 43.3042 86.8907 43.3042C90.0907 43.3042 93.0987 44.8082 92.2987 48.9362L90.7947 56.5842C90.5707 57.8002 90.6987 58.5682 92.2347 58.2802H92.3307L91.9467 60.1362C91.6267 60.2322 91.2427 60.3602 90.6347 60.3602ZM80.5227 55.6562C80.5227 57.3842 81.6427 58.5362 83.6267 58.5362C86.8267 58.5362 88.5227 56.3282 89.0027 53.8962L89.4507 51.6242C88.4267 52.2002 87.1147 52.2962 84.3627 52.5202C83.0827 52.6162 80.5227 52.8082 80.5227 55.6562ZM105.811 60.6802C102.067 60.6802 99.5067 58.1842 99.5387 53.7682C99.5707 48.9362 102.547 43.2722 108.243 43.2722C110.419 43.2722 112.019 44.2642 113.043 46.1842H113.107L114.803 37.3202H117.363L112.947 60.2002H110.387L110.739 58.4082H110.675C109.427 59.8162 107.827 60.6802 105.811 60.6802ZM102.131 53.6402C102.131 56.2322 103.187 58.5362 106.163 58.5362C110.387 58.5362 112.275 54.0882 112.275 49.9922C112.275 47.4642 110.835 45.4482 108.147 45.4482C104.083 45.4482 102.131 50.1522 102.131 53.6402ZM131.951 52.5522H119.631C119.599 52.8722 119.599 53.1602 119.599 53.4802C119.599 56.4242 121.135 58.5042 124.175 58.5042C126.319 58.5042 128.111 57.2562 128.847 55.0802H131.343C130.063 58.7922 127.343 60.6482 123.919 60.6482C120.079 60.6482 117.007 57.9602 117.007 53.4482C117.007 47.8482 120.751 43.2402 125.615 43.2402C127.375 43.2402 128.751 43.6882 129.775 44.4562C131.855 46.0242 132.495 49.0002 131.951 52.5522ZM125.519 45.2562C122.607 45.2562 120.623 47.4642 119.887 50.6002H129.519C129.839 47.5282 128.559 45.2562 125.519 45.2562ZM148.074 60.2002L148.49 57.8962H148.426C147.082 59.4962 145.29 60.5842 142.858 60.5842C139.626 60.5842 138.09 58.5362 138.73 55.1762L140.97 43.6562H143.498L141.258 55.1442C140.81 57.4162 141.45 58.4402 143.466 58.4402C146.41 58.4402 148.874 55.9762 149.482 52.9042L151.274 43.6562H153.834L150.634 60.2002H148.074ZM159.847 43.6562L159.367 46.2162H159.431C160.807 44.4242 163.047 43.2722 165.511 43.2722C168.775 43.2722 170.151 45.2882 169.543 48.5202L167.271 60.2002H164.743L167.015 48.5202C167.399 46.4722 166.823 45.4162 164.839 45.4162C161.799 45.4162 159.015 47.9762 158.439 50.9202L156.647 60.2002H154.087L157.287 43.6562H159.847ZM183.291 60.3602C181.531 60.3602 181.019 59.3042 180.987 58.0882H180.955C179.867 59.4962 178.075 60.5202 175.739 60.5202C172.443 60.5202 170.587 58.3442 170.587 55.8482C170.587 51.6242 173.819 50.7602 177.115 50.5682C181.659 50.3122 182.747 50.0242 182.747 47.8802C182.747 45.8322 181.147 45.3522 179.355 45.3202C176.667 45.2882 175.131 46.2162 174.683 48.6482H172.091C172.667 45.3522 175.259 43.3042 179.547 43.3042C182.747 43.3042 185.755 44.8082 184.955 48.9362L183.451 56.5842C183.227 57.8002 183.355 58.5682 184.891 58.2802H184.987L184.603 60.1362C184.283 60.2322 183.899 60.3602 183.291 60.3602ZM173.179 55.6562C173.179 57.3842 174.299 58.5362 176.283 58.5362C179.483 58.5362 181.179 56.3282 181.659 53.8962L182.107 51.6242C181.083 52.2002 179.771 52.2962 177.019 52.5202C175.739 52.6162 173.179 52.8082 173.179 55.6562ZM198.563 37.3202L196.835 46.2482H196.899C198.275 44.4562 200.547 43.2722 203.011 43.2722C206.275 43.2722 207.651 45.2882 207.043 48.5202L204.771 60.2002H202.243L204.515 48.5202C204.899 46.4722 204.323 45.4162 202.339 45.4162C199.299 45.4162 196.515 47.9762 195.939 50.9202L194.147 60.2002H191.587L196.003 37.3202H198.563ZM223.639 52.5522H211.319C211.287 52.8722 211.287 53.1602 211.287 53.4802C211.287 56.4242 212.823 58.5042 215.863 58.5042C218.007 58.5042 219.799 57.2562 220.535 55.0802H223.031C221.751 58.7922 219.031 60.6482 215.607 60.6482C211.767 60.6482 208.695 57.9602 208.695 53.4482C208.695 47.8482 212.439 43.2402 217.303 43.2402C219.063 43.2402 220.439 43.6882 221.463 44.4562C223.543 46.0242 224.183 49.0002 223.639 52.5522ZM217.207 45.2562C214.295 45.2562 212.311 47.4642 211.575 50.6002H221.207C221.527 47.5282 220.247 45.2562 217.207 45.2562ZM230.892 65.7042C227.692 65.7042 224.716 64.4882 224.62 61.1282H227.148C227.308 63.1122 228.94 63.6882 230.86 63.6882C233.548 63.6882 235.148 62.2802 235.596 59.9762L236.108 57.3842H236.076C234.828 58.7602 233.356 59.6242 231.308 59.6242C227.724 59.6242 225.196 57.0962 225.196 53.0322C225.196 48.0402 228.172 43.2722 233.516 43.2722C235.692 43.2722 237.292 44.2642 238.252 46.0562H238.284L238.764 43.6562H241.292L238.092 60.2002C237.452 63.5602 234.764 65.7042 230.892 65.7042ZM227.756 52.8722C227.756 55.4962 228.908 57.4802 231.788 57.4802C235.788 57.5122 237.612 53.5122 237.612 49.9602C237.612 47.1442 236.236 45.4482 233.388 45.4482C229.516 45.4482 227.756 49.2242 227.756 52.8722ZM257.108 52.5522H244.788C244.756 52.8722 244.756 53.1602 244.756 53.4802C244.756 56.4242 246.292 58.5042 249.332 58.5042C251.476 58.5042 253.268 57.2562 254.004 55.0802H256.5C255.22 58.7922 252.5 60.6482 249.076 60.6482C245.236 60.6482 242.164 57.9602 242.164 53.4482C242.164 47.8482 245.908 43.2402 250.772 43.2402C252.532 43.2402 253.908 43.6882 254.932 44.4562C257.012 46.0242 257.652 49.0002 257.108 52.5522ZM250.676 45.2562C247.764 45.2562 245.78 47.4642 245.044 50.6002H254.676C254.996 47.5282 253.716 45.2562 250.676 45.2562ZM258.024 60.2002L261.224 43.6562H263.784L263.304 46.1842H263.368C264.648 44.6482 266.344 43.2722 268.744 43.2722C270.504 43.2722 271.816 44.2322 272.168 46.2802H272.232C273.864 44.3282 275.72 43.2722 277.96 43.2722C280.424 43.2722 282.376 44.6802 281.64 48.4562L279.368 60.2002H276.84L279.144 48.3922C279.56 46.2162 278.696 45.4162 277.128 45.4162C274.792 45.4162 272.424 47.5922 271.88 50.4722L269.992 60.2002H267.432L269.736 48.2322C270.088 46.4402 269.448 45.4162 267.816 45.4162C265.512 45.4162 262.984 47.7842 262.472 50.4722L260.584 60.2002H258.024ZM290.296 60.6482C286.36 60.6482 283.32 58.0562 283.32 53.4162C283.32 48.0402 286.616 43.2402 292.056 43.2402C296.056 43.2402 299 46.0242 299 50.5362C299 55.7842 295.928 60.6482 290.296 60.6482ZM285.88 53.3842C285.88 56.2962 287.384 58.5042 290.392 58.5042C294.328 58.5042 296.408 54.7602 296.408 50.5362C296.408 47.7842 295.064 45.3522 291.992 45.3522C287.928 45.3522 285.88 49.2882 285.88 53.3842ZM305.628 43.6562L305.148 46.2162H305.212C306.588 44.4242 308.828 43.2722 311.292 43.2722C314.556 43.2722 315.932 45.2882 315.324 48.5202L313.052 60.2002H310.524L312.796 48.5202C313.18 46.4722 312.604 45.4162 310.62 45.4162C307.58 45.4162 304.796 47.9762 304.22 50.9202L302.428 60.2002H299.868L303.068 43.6562H305.628ZM320.208 41.0642L321.904 37.0002H324.976L322.416 41.0642H320.208ZM316.368 60.2002L319.568 43.6562H322.128L318.928 60.2002H316.368ZM335.103 60.3602C333.343 60.3602 332.831 59.3042 332.799 58.0882H332.767C331.679 59.4962 329.887 60.5202 327.551 60.5202C324.255 60.5202 322.399 58.3442 322.399 55.8482C322.399 51.6242 325.631 50.7602 328.927 50.5682C333.471 50.3122 334.559 50.0242 334.559 47.8802C334.559 45.8322 332.959 45.3522 331.167 45.3202C328.479 45.2882 326.943 46.2162 326.495 48.6482H323.903C324.479 45.3522 327.071 43.3042 331.359 43.3042C334.559 43.3042 337.567 44.8082 336.767 48.9362L335.263 56.5842C335.039 57.8002 335.167 58.5682 336.703 58.2802H336.799L336.415 60.1362C336.095 60.2322 335.711 60.3602 335.103 60.3602ZM324.991 55.6562C324.991 57.3842 326.111 58.5362 328.095 58.5362C331.295 58.5362 332.991 56.3282 333.471 53.8962L333.919 51.6242C332.895 52.2002 331.583 52.2962 328.831 52.5202C327.551 52.6162 324.991 52.8082 324.991 55.6562ZM356.103 60.3602C354.343 60.3602 353.831 59.3042 353.799 58.0882H353.767C352.679 59.4962 350.887 60.5202 348.551 60.5202C345.255 60.5202 343.399 58.3442 343.399 55.8482C343.399 51.6242 346.631 50.7602 349.927 50.5682C354.471 50.3122 355.559 50.0242 355.559 47.8802C355.559 45.8322 353.959 45.3522 352.167 45.3202C349.479 45.2882 347.943 46.2162 347.495 48.6482H344.903C345.479 45.3522 348.071 43.3042 352.359 43.3042C355.559 43.3042 358.567 44.8082 357.767 48.9362L356.263 56.5842C356.039 57.8002 356.167 58.5682 357.703 58.2802H357.799L357.415 60.1362C357.095 60.2322 356.711 60.3602 356.103 60.3602ZM345.991 55.6562C345.991 57.3842 347.111 58.5362 349.095 58.5362C352.295 58.5362 353.991 56.3282 354.471 53.8962L354.919 51.6242C353.895 52.2002 352.583 52.2962 349.831 52.5202C348.551 52.6162 345.991 52.8082 345.991 55.6562ZM359.306 60.2002L363.722 37.3202H366.282L364.65 45.9282H364.714C365.994 44.3282 367.85 43.2722 370.058 43.2722C373.674 43.2722 375.882 46.0242 375.882 50.1202C375.882 55.1122 373.162 60.6802 367.53 60.6802C365.098 60.6802 363.37 59.6242 362.378 57.7682H362.314L361.866 60.2002H359.306ZM363.178 53.5442C363.146 56.3602 364.49 58.5362 367.434 58.5362C371.53 58.5362 373.258 53.9602 373.258 50.2802C373.258 47.7202 372.298 45.4482 369.386 45.4482C365.386 45.4482 363.21 49.6082 363.178 53.5442ZM383.494 60.6802C379.91 60.6802 376.614 58.8562 376.614 54.8242H379.078C379.142 57.2882 380.806 58.5682 383.686 58.5682C385.446 58.5682 387.43 57.9282 387.43 55.5922C387.43 54.2802 386.31 53.7042 383.622 52.6482C380.902 51.5922 378.662 50.6322 378.662 47.7842C378.662 44.9042 381.062 43.3042 384.39 43.3042C387.718 43.3042 390.502 44.7762 390.726 48.4882H388.23C387.974 46.2162 386.47 45.2882 384.39 45.2882C382.694 45.2882 381.062 45.8002 381.062 47.6562C381.062 49.0002 382.214 49.5122 384.87 50.5682C387.782 51.7202 389.926 52.6802 389.926 55.5282C389.926 59.1122 386.886 60.6802 383.494 60.6802ZM399.077 60.6482C395.141 60.6482 392.101 58.0562 392.101 53.4162C392.101 48.0402 395.397 43.2402 400.837 43.2402C404.837 43.2402 407.781 46.0242 407.781 50.5362C407.781 55.7842 404.709 60.6482 399.077 60.6482ZM394.661 53.3842C394.661 56.2962 396.165 58.5042 399.173 58.5042C403.109 58.5042 405.189 54.7602 405.189 50.5362C405.189 47.7842 403.845 45.3522 400.773 45.3522C396.709 45.3522 394.661 49.2882 394.661 53.3842ZM408.745 60.2002L413.161 37.3202H415.721L411.305 60.2002H408.745ZM424.98 60.2002L425.396 57.8962H425.332C423.988 59.4962 422.196 60.5842 419.764 60.5842C416.532 60.5842 414.996 58.5362 415.636 55.1762L417.876 43.6562H420.404L418.164 55.1442C417.716 57.4162 418.356 58.4402 420.372 58.4402C423.316 58.4402 425.78 55.9762 426.388 52.9042L428.18 43.6562H430.74L427.54 60.2002H424.98ZM432.753 45.7362L433.169 43.6562H435.505L436.529 38.4402H439.089L438.065 43.6562H441.233L440.817 45.7362H437.649L435.633 56.2322C435.377 57.5122 435.825 58.0882 437.073 58.0882C437.713 58.0882 438.257 57.9282 438.545 57.8002H438.641L438.193 60.0402C437.745 60.2002 437.105 60.2962 436.401 60.2962C433.841 60.2962 432.529 58.8882 433.073 56.1362L435.089 45.7362H432.753ZM453.353 60.3602C451.593 60.3602 451.081 59.3042 451.049 58.0882H451.017C449.929 59.4962 448.137 60.5202 445.801 60.5202C442.505 60.5202 440.649 58.3442 440.649 55.8482C440.649 51.6242 443.881 50.7602 447.177 50.5682C451.721 50.3122 452.809 50.0242 452.809 47.8802C452.809 45.8322 451.209 45.3522 449.417 45.3202C446.729 45.2882 445.193 46.2162 444.745 48.6482H442.153C442.729 45.3522 445.321 43.3042 449.609 43.3042C452.809 43.3042 455.817 44.8082 455.017 48.9362L453.513 56.5842C453.289 57.8002 453.417 58.5682 454.953 58.2802H455.049L454.665 60.1362C454.345 60.2322 453.961 60.3602 453.353 60.3602ZM443.241 55.6562C443.241 57.3842 444.361 58.5362 446.345 58.5362C449.545 58.5362 451.241 56.3282 451.721 53.8962L452.169 51.6242C451.145 52.2002 449.833 52.2962 447.081 52.5202C445.801 52.6162 443.241 52.8082 443.241 55.6562ZM468.529 60.6802C464.785 60.6802 462.225 58.1842 462.257 53.7682C462.289 48.9362 465.265 43.2722 470.961 43.2722C473.137 43.2722 474.737 44.2642 475.761 46.1842H475.825L477.521 37.3202H480.081L475.665 60.2002H473.105L473.457 58.4082H473.393C472.145 59.8162 470.545 60.6802 468.529 60.6802ZM464.849 53.6402C464.849 56.2322 465.905 58.5362 468.881 58.5362C473.105 58.5362 474.993 54.0882 474.993 49.9922C474.993 47.4642 473.553 45.4482 470.865 45.4482C466.801 45.4482 464.849 50.1522 464.849 53.6402ZM494.67 52.5522H482.35C482.318 52.8722 482.318 53.1602 482.318 53.4802C482.318 56.4242 483.854 58.5042 486.894 58.5042C489.038 58.5042 490.83 57.2562 491.566 55.0802H494.062C492.782 58.7922 490.062 60.6482 486.638 60.6482C482.798 60.6482 479.726 57.9602 479.726 53.4482C479.726 47.8482 483.47 43.2402 488.334 43.2402C490.094 43.2402 491.47 43.6882 492.494 44.4562C494.574 46.0242 495.214 49.0002 494.67 52.5522ZM488.238 45.2562C485.326 45.2562 483.342 47.4642 482.606 50.6002H492.238C492.558 47.5282 491.278 45.2562 488.238 45.2562ZM507.561 60.6802C503.817 60.6802 501.257 58.1842 501.289 53.7682C501.321 48.9362 504.297 43.2722 509.993 43.2722C512.169 43.2722 513.769 44.2642 514.793 46.1842H514.857L516.553 37.3202H519.113L514.697 60.2002H512.137L512.489 58.4082H512.425C511.177 59.8162 509.577 60.6802 507.561 60.6802ZM503.881 53.6402C503.881 56.2322 504.937 58.5362 507.913 58.5362C512.137 58.5362 514.025 54.0882 514.025 49.9922C514.025 47.4642 512.585 45.4482 509.897 45.4482C505.833 45.4482 503.881 50.1522 503.881 53.6402ZM518.149 60.2002L521.349 43.6562H523.909L520.709 60.2002H518.149ZM521.957 40.5202L522.565 37.3202H525.125L524.517 40.5202H521.957ZM539.733 52.5522H527.413C527.381 52.8722 527.381 53.1602 527.381 53.4802C527.381 56.4242 528.917 58.5042 531.957 58.5042C534.101 58.5042 535.893 57.2562 536.629 55.0802H539.125C537.845 58.7922 535.125 60.6482 531.701 60.6482C527.861 60.6482 524.789 57.9602 524.789 53.4482C524.789 47.8482 528.533 43.2402 533.397 43.2402C535.157 43.2402 536.533 43.6882 537.557 44.4562C539.637 46.0242 540.277 49.0002 539.733 52.5522ZM533.301 45.2562C530.389 45.2562 528.405 47.4642 527.669 50.6002H537.301C537.621 47.5282 536.341 45.2562 533.301 45.2562ZM539.629 60.2002L540.013 58.2162L551.021 45.9602V45.8642H542.829L543.245 43.6562H555.053L554.765 45.1282L543.373 57.8002V57.8962H552.717L552.301 60.2002H539.629ZM572.478 60.3602C570.718 60.3602 570.206 59.3042 570.174 58.0882H570.142C569.054 59.4962 567.262 60.5202 564.926 60.5202C561.63 60.5202 559.774 58.3442 559.774 55.8482C559.774 51.6242 563.006 50.7602 566.302 50.5682C570.846 50.3122 571.934 50.0242 571.934 47.8802C571.934 45.8322 570.334 45.3522 568.542 45.3202C565.854 45.2882 564.318 46.2162 563.87 48.6482H561.278C561.854 45.3522 564.446 43.3042 568.734 43.3042C571.934 43.3042 574.942 44.8082 574.142 48.9362L572.638 56.5842C572.414 57.8002 572.542 58.5682 574.078 58.2802H574.174L573.79 60.1362C573.47 60.2322 573.086 60.3602 572.478 60.3602ZM562.366 55.6562C562.366 57.3842 563.486 58.5362 565.47 58.5362C568.67 58.5362 570.366 56.3282 570.846 53.8962L571.294 51.6242C570.27 52.2002 568.958 52.2962 566.206 52.5202C564.926 52.6162 562.366 52.8082 562.366 55.6562ZM581.441 43.6562L580.961 46.2162H581.025C582.401 44.4242 584.641 43.2722 587.105 43.2722C590.369 43.2722 591.745 45.2882 591.137 48.5202L588.865 60.2002H586.337L588.609 48.5202C588.993 46.4722 588.417 45.4162 586.433 45.4162C583.393 45.4162 580.609 47.9762 580.033 50.9202L578.241 60.2002H575.681L578.881 43.6562H581.441ZM587.809 40.9682C586.305 40.9682 585.025 39.9442 584.193 39.9442C583.745 39.9442 583.425 40.3282 583.329 40.9042H581.441C581.857 39.0802 582.785 37.9602 584.257 37.9602C585.953 37.9602 586.657 38.9842 587.809 38.9842C588.417 38.9842 588.673 38.5362 588.801 38.0242H590.625C590.305 39.6562 589.441 40.9682 587.809 40.9682ZM599.765 60.6482C595.829 60.6482 592.789 58.0562 592.789 53.4162C592.789 48.0402 596.085 43.2402 601.525 43.2402C605.525 43.2402 608.469 46.0242 608.469 50.5362C608.469 55.7842 605.397 60.6482 599.765 60.6482ZM595.349 53.3842C595.349 56.2962 596.853 58.5042 599.861 58.5042C603.797 58.5042 605.877 54.7602 605.877 50.5362C605.877 47.7842 604.533 45.3522 601.461 45.3522C597.397 45.3522 595.349 49.2882 595.349 53.3842ZM616.181 60.6802C612.597 60.6802 609.301 58.8562 609.301 54.8242H611.765C611.829 57.2882 613.493 58.5682 616.373 58.5682C618.133 58.5682 620.117 57.9282 620.117 55.5922C620.117 54.2802 618.997 53.7042 616.309 52.6482C613.589 51.5922 611.349 50.6322 611.349 47.7842C611.349 44.9042 613.749 43.3042 617.077 43.3042C620.405 43.3042 623.189 44.7762 623.413 48.4882H620.917C620.661 46.2162 619.157 45.2882 617.077 45.2882C615.381 45.2882 613.749 45.8002 613.749 47.6562C613.749 49.0002 614.901 49.5122 617.557 50.5682C620.469 51.7202 622.613 52.6802 622.613 55.5282C622.613 59.1122 619.573 60.6802 616.181 60.6802ZM623.985 60.2002L624.593 57.0322H627.665L627.057 60.2002H623.985Z" fill="#141414"/>
</svg>
