<svg width="1832" height="186" viewBox="0 0 1832 186" fill="none" xmlns="http://www.w3.org/2000/svg">
<path d="M41.16 166H2.8V165.16C12.32 165.16 12.88 159.84 12.88 149.48V80.6C12.88 70.24 12.32 64.92 2.8 64.92V64.08H41.72C73.92 64.08 91.98 82.7 91.98 113.64C91.98 145.56 71.68 166 41.16 166ZM41.44 163.76C67.76 163.76 83.02 145.14 83.02 114.48C83.02 85.22 67.62 66.32 41.16 66.32H26.04C22.68 66.32 20.72 68 20.72 71.36V154.8C20.72 161.52 25.2 163.76 41.44 163.76ZM104.093 78.08C100.733 78.08 97.9333 75.28 97.9333 71.92C97.9333 68.56 100.733 65.76 104.093 65.76C107.453 65.76 110.253 68.56 110.253 71.92C110.253 75.28 107.453 78.08 104.093 78.08ZM115.713 166H96.3933V165.16C102.133 165.16 102.553 160.4 102.553 151.44V110C102.553 101.04 100.173 97.68 95.4133 96.84V96L108.993 91.24H109.553V151.44C109.553 160.4 109.973 165.16 115.713 165.16V166ZM174.473 149.48L175.313 150.04C170.833 157.6 162.293 167.68 148.013 167.68C130.513 167.68 119.033 151.72 119.033 130.3C119.033 106.92 134.153 90.96 150.953 90.96C164.253 90.96 175.873 100.76 175.173 118.12H127.433C126.873 121.06 126.593 124 126.593 127.08C126.593 145.98 135.273 162.36 151.233 162.36C161.873 162.36 169.993 156.06 174.473 149.48ZM150.113 92.92C139.053 92.92 130.933 103 127.853 115.88H165.933C166.913 102.02 161.593 92.92 150.113 92.92ZM228.003 145.28H228.843L226.463 166H176.903V165.44L217.083 94.74H202.383C185.023 94.74 181.943 100.2 178.163 110H177.463L178.863 92.64H225.903V93.2L185.583 163.9H203.643C220.723 163.9 223.523 159.56 228.003 145.28ZM313.849 158.72L314.689 159.28C312.449 163.48 308.389 167.68 303.769 167.68C297.749 167.68 296.629 160.68 296.489 155.5C290.189 162.92 281.789 167.68 273.949 167.68C264.429 167.68 257.709 161.66 257.709 153.12C257.709 143.32 265.549 136.46 282.629 131.56L296.209 127.78V115.6C296.209 111.54 296.209 95.86 281.649 95.86C272.129 95.86 265.409 102.58 260.789 111.4L259.949 110.98C261.629 105.38 268.349 90.96 284.589 90.96C297.469 90.96 303.209 100.2 303.209 112.52V151.44C303.209 157.04 303.489 162.08 307.969 162.08C310.909 162.08 313.009 159.84 313.849 158.72ZM277.869 162.64C284.729 162.64 292.009 157.88 296.209 154.24V129.74L284.029 133.52C269.749 138 265.409 142.48 265.409 150.6C265.409 157.74 270.449 162.64 277.869 162.64ZM334.565 73.32C330.365 73.32 327.145 75.56 325.465 82L324.625 81.86C325.465 73.46 329.385 67.72 335.265 67.72C342.265 67.72 348.845 75.56 353.885 75.56C358.085 75.56 361.305 73.32 362.985 66.88L363.825 67.02C362.985 75.42 359.065 81.16 353.185 81.16C346.185 81.16 339.605 73.32 334.565 73.32ZM370.825 112.8V151.44C370.825 160.4 371.245 165.16 376.985 165.16V166H357.665V165.16C363.405 165.16 363.825 160.4 363.825 151.44V114.48C363.825 102.72 359.065 96.56 349.545 96.56C341.845 96.56 334.425 100.62 327.565 106.5V151.44C327.565 160.4 327.985 165.16 333.725 165.16V166H314.405V165.16C320.145 165.16 320.565 160.4 320.565 151.44V110C320.565 101.04 318.185 97.68 313.425 96.84V96L327.005 91.24H327.565V105.1C335.125 97.12 343.945 90.96 353.325 90.96C363.965 90.96 370.825 98.52 370.825 112.8ZM412.877 167.68C393.837 167.68 379.837 153.12 379.837 129.6C379.837 106.36 394.397 90.96 413.157 90.96C432.197 90.96 446.197 105.52 446.197 129.04C446.197 152.28 431.637 167.68 412.877 167.68ZM413.157 165.72C428.977 165.72 438.357 151.02 438.357 129.32C438.357 108.46 428.697 92.92 412.877 92.92C397.057 92.92 387.677 107.62 387.677 129.32C387.677 150.18 397.337 165.72 413.157 165.72ZM471.035 167.68C463.335 167.68 455.915 165.58 451.015 162.92L449.895 147.1H450.735C455.495 159.84 462.075 165.72 472.155 165.72C481.115 165.72 489.375 160.96 489.375 150.88C489.375 141.92 483.635 138.7 472.295 132.54L467.115 129.74C458.855 125.26 451.995 120.78 451.995 110.14C451.995 98.38 460.955 90.96 473.555 90.96C479.295 90.96 486.435 92.36 491.615 95.44V108.46H490.775C487.835 97.96 480.555 92.92 472.715 92.92C463.755 92.92 457.455 98.52 457.455 106.92C457.455 115.04 463.475 119.1 470.895 123.02L476.075 125.82C486.715 131.56 494.835 135.48 494.835 147.24C494.835 159.56 485.035 167.68 471.035 167.68ZM498.521 185.6L498.241 184.76C503.281 182.8 509.581 176.64 509.581 170.76C509.581 166.56 505.661 166.14 503.421 166C498.801 165.58 497.541 162.36 497.541 160.12C497.541 156.48 500.341 153.96 503.981 153.96C508.881 153.96 513.501 158.44 513.501 165.86C513.501 176.08 505.661 183.5 498.521 185.6ZM598.534 91.24V150.32C598.534 159.28 600.634 162.08 605.674 163.2V164.04L593.774 167.68H593.214L591.674 153.4C583.974 161.52 575.294 167.68 565.774 167.68C555.134 167.68 548.274 160.12 548.274 145.84V105.24C548.274 96.28 545.614 94.88 540.854 94.04V93.2L554.714 91.24H555.274V144.16C555.274 155.92 560.034 162.08 569.554 162.08C577.254 162.08 584.674 158.02 591.534 152.14V105.24C591.534 96.28 588.874 94.88 584.114 94.04V93.2L597.974 91.24H598.534ZM664.377 112.8V151.44C664.377 160.4 664.797 165.16 670.537 165.16V166H651.217V165.16C656.957 165.16 657.377 160.4 657.377 151.44V114.48C657.377 102.72 652.617 96.56 643.097 96.56C635.397 96.56 627.977 100.62 621.117 106.5V151.44C621.117 160.4 621.537 165.16 627.277 165.16V166H607.957V165.16C613.697 165.16 614.117 160.4 614.117 151.44V110C614.117 101.04 611.737 97.68 606.977 96.84V96L620.557 91.24H621.117V105.1C628.677 97.12 637.497 90.96 646.877 90.96C657.517 90.96 664.377 98.52 664.377 112.8ZM728.129 158.72L728.969 159.28C726.729 163.48 722.669 167.68 718.049 167.68C712.029 167.68 710.909 160.68 710.769 155.5C704.469 162.92 696.069 167.68 688.229 167.68C678.709 167.68 671.989 161.66 671.989 153.12C671.989 143.32 679.829 136.46 696.909 131.56L710.489 127.78V115.6C710.489 111.54 710.489 95.86 695.929 95.86C686.409 95.86 679.689 102.58 675.069 111.4L674.229 110.98C675.909 105.38 682.629 90.96 698.869 90.96C711.749 90.96 717.489 100.2 717.489 112.52V151.44C717.489 157.04 717.769 162.08 722.249 162.08C725.189 162.08 727.289 159.84 728.129 158.72ZM692.149 162.64C699.009 162.64 706.289 157.88 710.489 154.24V129.74L698.309 133.52C684.029 138 679.689 142.48 679.689 150.6C679.689 157.74 684.729 162.64 692.149 162.64ZM783.175 167.68C765.675 167.68 754.195 151.72 754.195 130.3C754.195 106.92 769.315 90.96 786.115 90.96C795.775 90.96 804.875 96 809.355 103.14L805.015 109.72H804.175C801.095 99.36 795.635 92.92 786.115 92.92C771.135 92.92 761.755 109.3 761.755 127.08C761.755 145.98 770.435 162.36 786.395 162.36C797.035 162.36 805.155 156.06 809.635 149.48L810.475 150.04C805.995 157.6 797.455 167.68 783.175 167.68ZM866.702 158.72L867.542 159.28C865.302 163.48 861.242 167.68 856.622 167.68C850.602 167.68 849.482 160.68 849.342 155.5C843.042 162.92 834.642 167.68 826.802 167.68C817.282 167.68 810.562 161.66 810.562 153.12C810.562 143.32 818.402 136.46 835.482 131.56L849.062 127.78V115.6C849.062 111.54 849.062 95.86 834.502 95.86C824.982 95.86 818.262 102.58 813.642 111.4L812.802 110.98C814.482 105.38 821.202 90.96 837.442 90.96C850.322 90.96 856.062 100.2 856.062 112.52V151.44C856.062 157.04 856.342 162.08 860.822 162.08C863.762 162.08 865.862 159.84 866.702 158.72ZM830.722 162.64C837.582 162.64 844.862 157.88 849.062 154.24V129.74L836.882 133.52C822.602 138 818.262 142.48 818.262 150.6C818.262 157.74 823.302 162.64 830.722 162.64ZM888.257 167.68C880.557 167.68 873.137 165.58 868.237 162.92L867.117 147.1H867.957C872.717 159.84 879.297 165.72 889.377 165.72C898.337 165.72 906.597 160.96 906.597 150.88C906.597 141.92 900.857 138.7 889.517 132.54L884.337 129.74C876.077 125.26 869.217 120.78 869.217 110.14C869.217 98.38 878.177 90.96 890.777 90.96C896.517 90.96 903.657 92.36 908.837 95.44V108.46H907.997C905.057 97.96 897.777 92.92 889.937 92.92C880.977 92.92 874.677 98.52 874.677 106.92C874.677 115.04 880.697 119.1 888.117 123.02L893.297 125.82C903.937 131.56 912.057 135.48 912.057 147.24C912.057 159.56 902.257 167.68 888.257 167.68ZM970.203 158.72L971.043 159.28C968.803 163.48 964.743 167.68 960.123 167.68C954.103 167.68 952.983 160.68 952.843 155.5C946.543 162.92 938.143 167.68 930.303 167.68C920.783 167.68 914.063 161.66 914.063 153.12C914.063 143.32 921.903 136.46 938.983 131.56L952.563 127.78V115.6C952.563 111.54 952.563 95.86 938.003 95.86C928.483 95.86 921.763 102.58 917.143 111.4L916.303 110.98C917.983 105.38 924.703 90.96 940.943 90.96C953.823 90.96 959.563 100.2 959.563 112.52V151.44C959.563 157.04 959.843 162.08 964.323 162.08C967.263 162.08 969.363 159.84 970.203 158.72ZM934.223 162.64C941.083 162.64 948.363 157.88 952.563 154.24V129.74L940.383 133.52C926.103 138 921.763 142.48 921.763 150.6C921.763 157.74 926.803 162.64 934.223 162.64Z" fill="#141414"/>
<path d="M1187.51 129L1191.93 106.12H1206.87L1206.39 108.616H1194.26L1192.86 115.88H1203.99L1203.51 118.28H1192.38L1190.84 126.376H1203.67L1203.16 129H1187.51ZM1206.16 129L1210.58 106.12H1213.14L1208.72 129H1206.16ZM1217.76 129L1222.18 106.12H1225.15L1232.03 122.088C1232.61 123.4 1233.09 125.032 1233.09 125.032H1233.15L1236.8 106.12H1239.46L1235.04 129H1232.13L1225.22 113C1224.67 111.784 1224.13 110.152 1224.13 110.152H1224.07L1220.42 129H1217.76ZM1254.43 121.352H1242.11C1242.08 121.672 1242.08 121.96 1242.08 122.28C1242.08 125.224 1243.61 127.304 1246.65 127.304C1248.8 127.304 1250.59 126.056 1251.33 123.88H1253.82C1252.54 127.592 1249.82 129.448 1246.4 129.448C1242.56 129.448 1239.49 126.76 1239.49 122.248C1239.49 116.648 1243.23 112.04 1248.09 112.04C1249.85 112.04 1251.23 112.488 1252.25 113.256C1254.33 114.824 1254.97 117.8 1254.43 121.352ZM1248 114.056C1245.09 114.056 1243.1 116.264 1242.37 119.4H1252C1252.32 116.328 1251.04 114.056 1248 114.056ZM1258.59 129L1256.57 112.456H1259.26L1260.22 122.472C1260.35 123.944 1260.38 126.248 1260.38 126.248H1260.44C1260.44 126.248 1261.21 123.976 1261.79 122.664L1266.3 112.456H1268.95L1269.85 122.664C1269.98 124.008 1269.95 126.248 1269.95 126.248H1270.01C1270.01 126.248 1270.87 123.944 1271.51 122.568L1276.28 112.456H1278.97L1270.84 129H1268.22L1267.29 119.112C1267.16 117.736 1267.13 115.464 1267.13 115.464H1267.07C1267.07 115.464 1266.23 117.736 1265.63 119.112L1261.24 129H1258.59ZM1283.17 129L1287.58 106.12H1290.4L1286.5 126.376H1297.98L1297.47 129H1283.17ZM1306.65 129.448C1302.71 129.448 1299.67 126.856 1299.67 122.216C1299.67 116.84 1302.97 112.04 1308.41 112.04C1312.41 112.04 1315.35 114.824 1315.35 119.336C1315.35 124.584 1312.28 129.448 1306.65 129.448ZM1302.23 122.184C1302.23 125.096 1303.74 127.304 1306.75 127.304C1310.68 127.304 1312.76 123.56 1312.76 119.336C1312.76 116.584 1311.42 114.152 1308.35 114.152C1304.28 114.152 1302.23 118.088 1302.23 122.184ZM1323.81 129.448C1319.87 129.448 1316.83 126.856 1316.83 122.216C1316.83 116.84 1320.13 112.04 1325.57 112.04C1329.57 112.04 1332.51 114.824 1332.51 119.336C1332.51 124.584 1329.44 129.448 1323.81 129.448ZM1319.39 122.184C1319.39 125.096 1320.89 127.304 1323.9 127.304C1327.84 127.304 1329.92 123.56 1329.92 119.336C1329.92 116.584 1328.57 114.152 1325.5 114.152C1321.44 114.152 1319.39 118.088 1319.39 122.184ZM1348.9 112.456L1342.02 118.568L1346.53 129H1343.78L1340.07 120.264L1337.12 122.888L1335.94 129H1333.38L1337.79 106.12H1340.35L1337.7 119.848L1345.54 112.456H1348.9ZM1358.98 112.456L1358.5 115.016H1358.57C1359.94 113.224 1362.18 112.072 1364.65 112.072C1367.91 112.072 1369.29 114.088 1368.68 117.32L1366.41 129H1363.88L1366.15 117.32C1366.53 115.272 1365.96 114.216 1363.97 114.216C1360.93 114.216 1358.15 116.776 1357.57 119.72L1355.78 129H1353.22L1356.42 112.456H1358.98ZM1377.31 129.448C1373.37 129.448 1370.33 126.856 1370.33 122.216C1370.33 116.84 1373.63 112.04 1379.07 112.04C1383.07 112.04 1386.01 114.824 1386.01 119.336C1386.01 124.584 1382.94 129.448 1377.31 129.448ZM1372.89 122.184C1372.89 125.096 1374.39 127.304 1377.4 127.304C1381.34 127.304 1383.42 123.56 1383.42 119.336C1383.42 116.584 1382.07 114.152 1379 114.152C1374.94 114.152 1372.89 118.088 1372.89 122.184ZM1393.73 114.536L1394.15 112.456H1396.39L1396.9 109.8C1397.44 107.016 1398.85 105.928 1401.67 105.928C1402.08 105.928 1402.72 105.96 1403.08 105.992L1402.66 108.168C1402.21 108.136 1401.86 108.136 1401.67 108.136C1400 108.136 1399.62 108.776 1399.4 109.928L1398.92 112.456H1401.96L1401.54 114.536H1398.5L1395.72 129H1393.19L1395.97 114.536H1393.73ZM1411.33 129L1411.75 126.696H1411.69C1410.34 128.296 1408.55 129.384 1406.12 129.384C1402.89 129.384 1401.35 127.336 1401.99 123.976L1404.23 112.456H1406.76L1404.52 123.944C1404.07 126.216 1404.71 127.24 1406.73 127.24C1409.67 127.24 1412.13 124.776 1412.74 121.704L1414.53 112.456H1417.09L1413.89 129H1411.33ZM1432.9 121.352H1420.58C1420.55 121.672 1420.55 121.96 1420.55 122.28C1420.55 125.224 1422.08 127.304 1425.12 127.304C1427.27 127.304 1429.06 126.056 1429.79 123.88H1432.29C1431.01 127.592 1428.29 129.448 1424.87 129.448C1421.03 129.448 1417.95 126.76 1417.95 122.248C1417.95 116.648 1421.7 112.04 1426.56 112.04C1428.32 112.04 1429.7 112.488 1430.72 113.256C1432.8 114.824 1433.44 117.8 1432.9 121.352ZM1426.47 114.056C1423.55 114.056 1421.57 116.264 1420.83 119.4H1430.47C1430.79 116.328 1429.51 114.056 1426.47 114.056ZM1449.02 129L1449.44 126.696H1449.37C1448.03 128.296 1446.24 129.384 1443.81 129.384C1440.57 129.384 1439.04 127.336 1439.68 123.976L1441.92 112.456H1444.45L1442.21 123.944C1441.76 126.216 1442.4 127.24 1444.41 127.24C1447.36 127.24 1449.82 124.776 1450.43 121.704L1452.22 112.456H1454.78L1451.58 129H1449.02ZM1460.79 112.456L1460.31 115.016H1460.38C1461.75 113.224 1463.99 112.072 1466.46 112.072C1469.72 112.072 1471.1 114.088 1470.49 117.32L1468.22 129H1465.69L1467.96 117.32C1468.35 115.272 1467.77 114.216 1465.79 114.216C1462.75 114.216 1459.96 116.776 1459.39 119.72L1457.59 129H1455.03L1458.23 112.456H1460.79ZM1484.24 129.16C1482.48 129.16 1481.97 128.104 1481.93 126.888H1481.9C1480.81 128.296 1479.02 129.32 1476.69 129.32C1473.39 129.32 1471.53 127.144 1471.53 124.648C1471.53 120.424 1474.77 119.56 1478.06 119.368C1482.61 119.112 1483.69 118.824 1483.69 116.68C1483.69 114.632 1482.09 114.152 1480.3 114.12C1477.61 114.088 1476.08 115.016 1475.63 117.448H1473.04C1473.61 114.152 1476.21 112.104 1480.49 112.104C1483.69 112.104 1486.7 113.608 1485.9 117.736L1484.4 125.384C1484.17 126.6 1484.3 127.368 1485.84 127.08H1485.93L1485.55 128.936C1485.23 129.032 1484.85 129.16 1484.24 129.16ZM1474.13 124.456C1474.13 126.184 1475.25 127.336 1477.23 127.336C1480.43 127.336 1482.13 125.128 1482.61 122.696L1483.05 120.424C1482.03 121 1480.72 121.096 1477.97 121.32C1476.69 121.416 1474.13 121.608 1474.13 124.456ZM1500.05 129.448C1495.96 129.448 1493.14 127.016 1493.14 122.344C1493.14 117.192 1496.6 112.04 1501.97 112.04C1505.69 112.04 1507.83 114.12 1508.15 117.8H1505.56C1505.33 115.624 1504.25 114.152 1501.85 114.152C1497.85 114.152 1495.73 118.376 1495.73 122.408C1495.73 125.128 1496.92 127.304 1500.09 127.304C1502.42 127.304 1504.25 125.8 1504.92 123.176H1507.38C1506.45 127.176 1503.61 129.448 1500.05 129.448ZM1516.21 129.448C1512.28 129.448 1509.24 126.856 1509.24 122.216C1509.24 116.84 1512.53 112.04 1517.97 112.04C1521.97 112.04 1524.92 114.824 1524.92 119.336C1524.92 124.584 1521.84 129.448 1516.21 129.448ZM1511.8 122.184C1511.8 125.096 1513.3 127.304 1516.31 127.304C1520.24 127.304 1522.32 123.56 1522.32 119.336C1522.32 116.584 1520.98 114.152 1517.91 114.152C1513.84 114.152 1511.8 118.088 1511.8 122.184ZM1525.88 129L1530.3 106.12H1532.86L1528.44 129H1525.88ZM1547.56 121.352H1535.24C1535.2 121.672 1535.2 121.96 1535.2 122.28C1535.2 125.224 1536.74 127.304 1539.78 127.304C1541.92 127.304 1543.72 126.056 1544.45 123.88H1546.95C1545.67 127.592 1542.95 129.448 1539.52 129.448C1535.68 129.448 1532.61 126.76 1532.61 122.248C1532.61 116.648 1536.36 112.04 1541.22 112.04C1542.98 112.04 1544.36 112.488 1545.38 113.256C1547.46 114.824 1548.1 117.8 1547.56 121.352ZM1541.12 114.056C1538.21 114.056 1536.23 116.264 1535.49 119.4H1545.12C1545.44 116.328 1544.16 114.056 1541.12 114.056ZM1555.99 129.448C1551.9 129.448 1549.08 127.016 1549.08 122.344C1549.08 117.192 1552.54 112.04 1557.91 112.04C1561.62 112.04 1563.77 114.12 1564.09 117.8H1561.5C1561.27 115.624 1560.18 114.152 1557.78 114.152C1553.78 114.152 1551.67 118.376 1551.67 122.408C1551.67 125.128 1552.86 127.304 1556.02 127.304C1558.36 127.304 1560.18 125.8 1560.86 123.176H1563.32C1562.39 127.176 1559.54 129.448 1555.99 129.448ZM1572.09 129.448C1567.99 129.448 1565.17 127.016 1565.17 122.344C1565.17 117.192 1568.63 112.04 1574.01 112.04C1577.72 112.04 1579.86 114.12 1580.18 117.8H1577.59C1577.37 115.624 1576.28 114.152 1573.88 114.152C1569.88 114.152 1567.77 118.376 1567.77 122.408C1567.77 125.128 1568.95 127.304 1572.12 127.304C1574.45 127.304 1576.28 125.8 1576.95 123.176H1579.41C1578.49 127.176 1575.64 129.448 1572.09 129.448ZM1580.66 129L1583.86 112.456H1586.42L1583.22 129H1580.66ZM1584.47 109.32L1585.08 106.12H1587.64L1587.03 109.32H1584.47ZM1594.27 129.448C1590.34 129.448 1587.3 126.856 1587.3 122.216C1587.3 116.84 1590.59 112.04 1596.03 112.04C1600.03 112.04 1602.98 114.824 1602.98 119.336C1602.98 124.584 1599.91 129.448 1594.27 129.448ZM1589.86 122.184C1589.86 125.096 1591.36 127.304 1594.37 127.304C1598.31 127.304 1600.39 123.56 1600.39 119.336C1600.39 116.584 1599.04 114.152 1595.97 114.152C1591.91 114.152 1589.86 118.088 1589.86 122.184ZM1595.43 109.864L1597.44 105.8H1600.58L1597.63 109.864H1595.43ZM1609.61 112.456L1609.13 115.016H1609.19C1610.57 113.224 1612.81 112.072 1615.27 112.072C1618.53 112.072 1619.91 114.088 1619.3 117.32L1617.03 129H1614.5L1616.77 117.32C1617.16 115.272 1616.58 114.216 1614.6 114.216C1611.56 114.216 1608.77 116.776 1608.2 119.72L1606.41 129H1603.85L1607.05 112.456H1609.61ZM1621.95 119.304L1622.59 116.136H1625.66L1625.02 119.304H1621.95ZM1620.09 129L1620.7 125.832H1623.77L1623.16 129H1620.09ZM1633.23 114.536L1633.65 112.456H1635.89L1636.4 109.8C1636.94 107.016 1638.35 105.928 1641.17 105.928C1641.58 105.928 1642.22 105.96 1642.58 105.992L1642.16 108.168C1641.71 108.136 1641.36 108.136 1641.17 108.136C1639.5 108.136 1639.12 108.776 1638.9 109.928L1638.42 112.456H1641.46L1641.04 114.536H1638L1635.22 129H1632.69L1635.47 114.536H1633.23ZM1650.83 129L1651.25 126.696H1651.19C1649.84 128.296 1648.05 129.384 1645.62 129.384C1642.39 129.384 1640.85 127.336 1641.49 123.976L1643.73 112.456H1646.26L1644.02 123.944C1643.57 126.216 1644.21 127.24 1646.23 127.24C1649.17 127.24 1651.63 124.776 1652.24 121.704L1654.03 112.456H1656.59L1653.39 129H1650.83ZM1672.4 121.352H1660.08C1660.05 121.672 1660.05 121.96 1660.05 122.28C1660.05 125.224 1661.58 127.304 1664.62 127.304C1666.77 127.304 1668.56 126.056 1669.29 123.88H1671.79C1670.51 127.592 1667.79 129.448 1664.37 129.448C1660.53 129.448 1657.45 126.76 1657.45 122.248C1657.45 116.648 1661.2 112.04 1666.06 112.04C1667.82 112.04 1669.2 112.488 1670.22 113.256C1672.3 114.824 1672.94 117.8 1672.4 121.352ZM1665.97 114.056C1663.05 114.056 1661.07 116.264 1660.33 119.4H1669.97C1670.29 116.328 1669.01 114.056 1665.97 114.056ZM1693.96 121.352H1681.64C1681.61 121.672 1681.61 121.96 1681.61 122.28C1681.61 125.224 1683.15 127.304 1686.19 127.304C1688.33 127.304 1690.12 126.056 1690.86 123.88H1693.35C1692.07 127.592 1689.35 129.448 1685.93 129.448C1682.09 129.448 1679.02 126.76 1679.02 122.248C1679.02 116.648 1682.76 112.04 1687.63 112.04C1689.39 112.04 1690.76 112.488 1691.79 113.256C1693.87 114.824 1694.51 117.8 1693.96 121.352ZM1687.53 114.056C1684.62 114.056 1682.63 116.264 1681.9 119.4H1691.53C1691.85 116.328 1690.57 114.056 1687.53 114.056ZM1694.97 129L1699.39 106.12H1701.95L1697.53 129H1694.97ZM1705.17 134.312L1709.42 112.456H1711.98L1711.53 114.728H1711.6C1712.88 113.064 1714.73 112.072 1716.94 112.072C1720.56 112.072 1722.77 114.824 1722.77 118.92C1722.77 123.912 1720.05 129.48 1714.41 129.48C1711.98 129.48 1710.22 128.36 1709.29 126.504H1709.23L1707.73 134.312H1705.17ZM1710.06 122.344C1710.03 125.16 1711.37 127.336 1714.32 127.336C1718.41 127.336 1720.14 122.76 1720.14 119.08C1720.14 116.52 1719.18 114.248 1716.27 114.248C1712.27 114.248 1710.09 118.408 1710.06 122.344ZM1733.8 129L1734.22 126.696H1734.15C1732.81 128.296 1731.02 129.384 1728.59 129.384C1725.35 129.384 1723.82 127.336 1724.46 123.976L1726.7 112.456H1729.23L1726.99 123.944C1726.54 126.216 1727.18 127.24 1729.19 127.24C1732.14 127.24 1734.6 124.776 1735.21 121.704L1737 112.456H1739.56L1736.36 129H1733.8ZM1745.58 112.456L1745.1 115.016H1745.16C1746.54 113.224 1748.78 112.072 1751.24 112.072C1754.5 112.072 1755.88 114.088 1755.27 117.32L1753 129H1750.47L1752.74 117.32C1753.13 115.272 1752.55 114.216 1750.57 114.216C1747.53 114.216 1744.74 116.776 1744.17 119.72L1742.38 129H1739.82L1743.02 112.456H1745.58ZM1757.61 114.536L1758.02 112.456H1760.36L1761.38 107.24H1763.94L1762.92 112.456H1766.09L1765.67 114.536H1762.5L1760.49 125.032C1760.23 126.312 1760.68 126.888 1761.93 126.888C1762.57 126.888 1763.11 126.728 1763.4 126.6H1763.49L1763.05 128.84C1762.6 129 1761.96 129.096 1761.25 129.096C1758.69 129.096 1757.38 127.688 1757.93 124.936L1759.94 114.536H1757.61ZM1772.93 129.448C1768.99 129.448 1765.95 126.856 1765.95 122.216C1765.95 116.84 1769.25 112.04 1774.69 112.04C1778.69 112.04 1781.63 114.824 1781.63 119.336C1781.63 124.584 1778.56 129.448 1772.93 129.448ZM1768.51 122.184C1768.51 125.096 1770.02 127.304 1773.03 127.304C1776.96 127.304 1779.04 123.56 1779.04 119.336C1779.04 116.584 1777.7 114.152 1774.63 114.152C1770.56 114.152 1768.51 118.088 1768.51 122.184ZM1794.48 129.48C1790.73 129.48 1788.17 126.984 1788.2 122.568C1788.24 117.736 1791.21 112.072 1796.91 112.072C1799.08 112.072 1800.68 113.064 1801.71 114.984H1801.77L1803.47 106.12H1806.03L1801.61 129H1799.05L1799.4 127.208H1799.34C1798.09 128.616 1796.49 129.48 1794.48 129.48ZM1790.8 122.44C1790.8 125.032 1791.85 127.336 1794.83 127.336C1799.05 127.336 1800.94 122.888 1800.94 118.792C1800.94 116.264 1799.5 114.248 1796.81 114.248C1792.75 114.248 1790.8 118.952 1790.8 122.44ZM1820.62 121.352H1808.3C1808.27 121.672 1808.27 121.96 1808.27 122.28C1808.27 125.224 1809.8 127.304 1812.84 127.304C1814.99 127.304 1816.78 126.056 1817.51 123.88H1820.01C1818.73 127.592 1816.01 129.448 1812.59 129.448C1808.75 129.448 1805.67 126.76 1805.67 122.248C1805.67 116.648 1809.42 112.04 1814.28 112.04C1816.04 112.04 1817.42 112.488 1818.44 113.256C1820.52 114.824 1821.16 117.8 1820.62 121.352ZM1814.19 114.056C1811.27 114.056 1809.29 116.264 1808.55 119.4H1818.19C1818.51 116.328 1817.23 114.056 1814.19 114.056ZM1186.1 171.312L1190.36 149.456H1192.92L1192.47 151.728H1192.54C1193.82 150.064 1195.67 149.072 1197.88 149.072C1201.5 149.072 1203.7 151.824 1203.7 155.92C1203.7 160.912 1200.98 166.48 1195.35 166.48C1192.92 166.48 1191.16 165.36 1190.23 163.504H1190.17L1188.66 171.312H1186.1ZM1191 159.344C1190.97 162.16 1192.31 164.336 1195.26 164.336C1199.35 164.336 1201.08 159.76 1201.08 156.08C1201.08 153.52 1200.12 151.248 1197.21 151.248C1193.21 151.248 1191.03 155.408 1191 159.344ZM1217.33 166.16C1215.57 166.16 1215.06 165.104 1215.03 163.888H1215C1213.91 165.296 1212.12 166.32 1209.78 166.32C1206.48 166.32 1204.63 164.144 1204.63 161.648C1204.63 157.424 1207.86 156.56 1211.16 156.368C1215.7 156.112 1216.79 155.824 1216.79 153.68C1216.79 151.632 1215.19 151.152 1213.4 151.12C1210.71 151.088 1209.17 152.016 1208.72 154.448H1206.13C1206.71 151.152 1209.3 149.104 1213.59 149.104C1216.79 149.104 1219.8 150.608 1219 154.736L1217.49 162.384C1217.27 163.6 1217.4 164.368 1218.93 164.08H1219.03L1218.64 165.936C1218.32 166.032 1217.94 166.16 1217.33 166.16ZM1207.22 161.456C1207.22 163.184 1208.34 164.336 1210.32 164.336C1213.52 164.336 1215.22 162.128 1215.7 159.696L1216.15 157.424C1215.12 158 1213.81 158.096 1211.06 158.32C1209.78 158.416 1207.22 158.608 1207.22 161.456ZM1226.29 149.456L1225.78 152.08H1225.85C1227.09 150.352 1228.69 149.264 1230.58 149.264C1231.38 149.264 1231.64 149.328 1231.93 149.456L1231.45 151.92H1231.35C1231 151.792 1230.68 151.76 1230.17 151.76C1227.67 151.76 1225.43 153.744 1224.76 157.264L1223.09 166H1220.53L1223.73 149.456H1226.29ZM1232.79 151.536L1233.21 149.456H1235.55L1236.57 144.24H1239.13L1238.11 149.456H1241.27L1240.86 151.536H1237.69L1235.67 162.032C1235.42 163.312 1235.87 163.888 1237.11 163.888C1237.75 163.888 1238.3 163.728 1238.59 163.6H1238.68L1238.23 165.84C1237.79 166 1237.15 166.096 1236.44 166.096C1233.88 166.096 1232.57 164.688 1233.11 161.936L1235.13 151.536H1232.79ZM1240.53 166L1243.73 149.456H1246.29L1243.09 166H1240.53ZM1244.34 146.32L1244.95 143.12H1247.51L1246.9 146.32H1244.34ZM1253.45 166.48C1249.7 166.48 1247.14 163.984 1247.17 159.568C1247.21 154.736 1250.18 149.072 1255.88 149.072C1258.05 149.072 1259.65 150.064 1260.68 151.984H1260.74L1262.44 143.12H1265L1260.58 166H1258.02L1258.37 164.208H1258.31C1257.06 165.616 1255.46 166.48 1253.45 166.48ZM1249.77 159.44C1249.77 162.032 1250.82 164.336 1253.8 164.336C1258.02 164.336 1259.91 159.888 1259.91 155.792C1259.91 153.264 1258.47 151.248 1255.78 151.248C1251.72 151.248 1249.77 155.952 1249.77 159.44ZM1276.74 166.16C1274.98 166.16 1274.47 165.104 1274.43 163.888H1274.4C1273.31 165.296 1271.52 166.32 1269.19 166.32C1265.89 166.32 1264.03 164.144 1264.03 161.648C1264.03 157.424 1267.27 156.56 1270.56 156.368C1275.11 156.112 1276.19 155.824 1276.19 153.68C1276.19 151.632 1274.59 151.152 1272.8 151.12C1270.11 151.088 1268.58 152.016 1268.13 154.448H1265.54C1266.11 151.152 1268.71 149.104 1272.99 149.104C1276.19 149.104 1279.2 150.608 1278.4 154.736L1276.9 162.384C1276.67 163.6 1276.8 164.368 1278.34 164.08H1278.43L1278.05 165.936C1277.73 166.032 1277.35 166.16 1276.74 166.16ZM1266.63 161.456C1266.63 163.184 1267.75 164.336 1269.73 164.336C1272.93 164.336 1274.63 162.128 1275.11 159.696L1275.55 157.424C1274.53 158 1273.22 158.096 1270.47 158.32C1269.19 158.416 1266.63 158.608 1266.63 161.456ZM1291.91 166.48C1288.17 166.48 1285.61 163.984 1285.64 159.568C1285.67 154.736 1288.65 149.072 1294.35 149.072C1296.52 149.072 1298.12 150.064 1299.15 151.984H1299.21L1300.91 143.12H1303.47L1299.05 166H1296.49L1296.84 164.208H1296.78C1295.53 165.616 1293.93 166.48 1291.91 166.48ZM1288.23 159.44C1288.23 162.032 1289.29 164.336 1292.27 164.336C1296.49 164.336 1298.38 159.888 1298.38 155.792C1298.38 153.264 1296.94 151.248 1294.25 151.248C1290.19 151.248 1288.23 155.952 1288.23 159.44ZM1318.06 158.352H1305.74C1305.7 158.672 1305.7 158.96 1305.7 159.28C1305.7 162.224 1307.24 164.304 1310.28 164.304C1312.42 164.304 1314.22 163.056 1314.95 160.88H1317.45C1316.17 164.592 1313.45 166.448 1310.02 166.448C1306.18 166.448 1303.11 163.76 1303.11 159.248C1303.11 153.648 1306.86 149.04 1311.72 149.04C1313.48 149.04 1314.86 149.488 1315.88 150.256C1317.96 151.824 1318.6 154.8 1318.06 158.352ZM1311.62 151.056C1308.71 151.056 1306.73 153.264 1305.99 156.4H1315.62C1315.94 153.328 1314.66 151.056 1311.62 151.056ZM1334.18 166L1334.59 163.696H1334.53C1333.19 165.296 1331.39 166.384 1328.96 166.384C1325.73 166.384 1324.19 164.336 1324.83 160.976L1327.07 149.456H1329.6L1327.36 160.944C1326.91 163.216 1327.55 164.24 1329.57 164.24C1332.51 164.24 1334.98 161.776 1335.59 158.704L1337.38 149.456H1339.94L1336.74 166H1334.18ZM1345.95 149.456L1345.47 152.016H1345.53C1346.91 150.224 1349.15 149.072 1351.61 149.072C1354.88 149.072 1356.25 151.088 1355.65 154.32L1353.37 166H1350.85L1353.12 154.32C1353.5 152.272 1352.93 151.216 1350.94 151.216C1347.9 151.216 1345.12 153.776 1344.54 156.72L1342.75 166H1340.19L1343.39 149.456H1345.95ZM1369.39 166.16C1367.63 166.16 1367.12 165.104 1367.09 163.888H1367.06C1365.97 165.296 1364.18 166.32 1361.84 166.32C1358.55 166.32 1356.69 164.144 1356.69 161.648C1356.69 157.424 1359.92 156.56 1363.22 156.368C1367.76 156.112 1368.85 155.824 1368.85 153.68C1368.85 151.632 1367.25 151.152 1365.46 151.12C1362.77 151.088 1361.23 152.016 1360.79 154.448H1358.19C1358.77 151.152 1361.36 149.104 1365.65 149.104C1368.85 149.104 1371.86 150.608 1371.06 154.736L1369.55 162.384C1369.33 163.6 1369.46 164.368 1370.99 164.08H1371.09L1370.71 165.936C1370.39 166.032 1370 166.16 1369.39 166.16ZM1359.28 161.456C1359.28 163.184 1360.4 164.336 1362.39 164.336C1365.59 164.336 1367.28 162.128 1367.76 159.696L1368.21 157.424C1367.19 158 1365.87 158.096 1363.12 158.32C1361.84 158.416 1359.28 158.608 1359.28 161.456ZM1384.67 143.12L1382.94 152.048H1383C1384.38 150.256 1386.65 149.072 1389.11 149.072C1392.38 149.072 1393.75 151.088 1393.15 154.32L1390.87 166H1388.35L1390.62 154.32C1391 152.272 1390.43 151.216 1388.44 151.216C1385.4 151.216 1382.62 153.776 1382.04 156.72L1380.25 166H1377.69L1382.11 143.12H1384.67ZM1409.74 158.352H1397.42C1397.39 158.672 1397.39 158.96 1397.39 159.28C1397.39 162.224 1398.93 164.304 1401.97 164.304C1404.11 164.304 1405.9 163.056 1406.64 160.88H1409.13C1407.85 164.592 1405.13 166.448 1401.71 166.448C1397.87 166.448 1394.8 163.76 1394.8 159.248C1394.8 153.648 1398.54 149.04 1403.41 149.04C1405.17 149.04 1406.54 149.488 1407.57 150.256C1409.65 151.824 1410.29 154.8 1409.74 158.352ZM1403.31 151.056C1400.4 151.056 1398.41 153.264 1397.68 156.4H1407.31C1407.63 153.328 1406.35 151.056 1403.31 151.056ZM1417 171.504C1413.8 171.504 1410.82 170.288 1410.72 166.928H1413.25C1413.41 168.912 1415.04 169.488 1416.96 169.488C1419.65 169.488 1421.25 168.08 1421.7 165.776L1422.21 163.184H1422.18C1420.93 164.56 1419.46 165.424 1417.41 165.424C1413.83 165.424 1411.3 162.896 1411.3 158.832C1411.3 153.84 1414.28 149.072 1419.62 149.072C1421.8 149.072 1423.4 150.064 1424.36 151.856H1424.39L1424.87 149.456H1427.4L1424.2 166C1423.56 169.36 1420.87 171.504 1417 171.504ZM1413.86 158.672C1413.86 161.296 1415.01 163.28 1417.89 163.28C1421.89 163.312 1423.72 159.312 1423.72 155.76C1423.72 152.944 1422.34 151.248 1419.49 151.248C1415.62 151.248 1413.86 155.024 1413.86 158.672ZM1443.21 158.352H1430.89C1430.86 158.672 1430.86 158.96 1430.86 159.28C1430.86 162.224 1432.4 164.304 1435.44 164.304C1437.58 164.304 1439.37 163.056 1440.11 160.88H1442.6C1441.32 164.592 1438.6 166.448 1435.18 166.448C1431.34 166.448 1428.27 163.76 1428.27 159.248C1428.27 153.648 1432.01 149.04 1436.88 149.04C1438.64 149.04 1440.01 149.488 1441.04 150.256C1443.12 151.824 1443.76 154.8 1443.21 158.352ZM1436.78 151.056C1433.87 151.056 1431.88 153.264 1431.15 156.4H1440.78C1441.1 153.328 1439.82 151.056 1436.78 151.056ZM1444.13 166L1447.33 149.456H1449.89L1449.41 151.984H1449.47C1450.75 150.448 1452.45 149.072 1454.85 149.072C1456.61 149.072 1457.92 150.032 1458.27 152.08H1458.34C1459.97 150.128 1461.82 149.072 1464.06 149.072C1466.53 149.072 1468.48 150.48 1467.74 154.256L1465.47 166H1462.94L1465.25 154.192C1465.66 152.016 1464.8 151.216 1463.23 151.216C1460.9 151.216 1458.53 153.392 1457.98 156.272L1456.1 166H1453.54L1455.84 154.032C1456.19 152.24 1455.55 151.216 1453.92 151.216C1451.62 151.216 1449.09 153.584 1448.58 156.272L1446.69 166H1444.13ZM1476.4 166.448C1472.46 166.448 1469.42 163.856 1469.42 159.216C1469.42 153.84 1472.72 149.04 1478.16 149.04C1482.16 149.04 1485.1 151.824 1485.1 156.336C1485.1 161.584 1482.03 166.448 1476.4 166.448ZM1471.98 159.184C1471.98 162.096 1473.49 164.304 1476.5 164.304C1480.43 164.304 1482.51 160.56 1482.51 156.336C1482.51 153.584 1481.17 151.152 1478.1 151.152C1474.03 151.152 1471.98 155.088 1471.98 159.184ZM1491.73 149.456L1491.25 152.016H1491.32C1492.69 150.224 1494.93 149.072 1497.4 149.072C1500.66 149.072 1502.04 151.088 1501.43 154.32L1499.16 166H1496.63L1498.9 154.32C1499.28 152.272 1498.71 151.216 1496.72 151.216C1493.68 151.216 1490.9 153.776 1490.32 156.72L1488.53 166H1485.97L1489.17 149.456H1491.73ZM1506.31 146.864L1508.01 142.8H1511.08L1508.52 146.864H1506.31ZM1502.47 166L1505.67 149.456H1508.23L1505.03 166H1502.47ZM1521.21 166.16C1519.45 166.16 1518.94 165.104 1518.9 163.888H1518.87C1517.78 165.296 1515.99 166.32 1513.66 166.32C1510.36 166.32 1508.5 164.144 1508.5 161.648C1508.5 157.424 1511.74 156.56 1515.03 156.368C1519.58 156.112 1520.66 155.824 1520.66 153.68C1520.66 151.632 1519.06 151.152 1517.27 151.12C1514.58 151.088 1513.05 152.016 1512.6 154.448H1510.01C1510.58 151.152 1513.18 149.104 1517.46 149.104C1520.66 149.104 1523.67 150.608 1522.87 154.736L1521.37 162.384C1521.14 163.6 1521.27 164.368 1522.81 164.08H1522.9L1522.52 165.936C1522.2 166.032 1521.82 166.16 1521.21 166.16ZM1511.1 161.456C1511.1 163.184 1512.22 164.336 1514.2 164.336C1517.4 164.336 1519.1 162.128 1519.58 159.696L1520.02 157.424C1519 158 1517.69 158.096 1514.94 158.32C1513.66 158.416 1511.1 158.608 1511.1 161.456ZM1542.21 166.16C1540.45 166.16 1539.94 165.104 1539.9 163.888H1539.87C1538.78 165.296 1536.99 166.32 1534.66 166.32C1531.36 166.32 1529.5 164.144 1529.5 161.648C1529.5 157.424 1532.74 156.56 1536.03 156.368C1540.58 156.112 1541.66 155.824 1541.66 153.68C1541.66 151.632 1540.06 151.152 1538.27 151.12C1535.58 151.088 1534.05 152.016 1533.6 154.448H1531.01C1531.58 151.152 1534.18 149.104 1538.46 149.104C1541.66 149.104 1544.67 150.608 1543.87 154.736L1542.37 162.384C1542.14 163.6 1542.27 164.368 1543.81 164.08H1543.9L1543.52 165.936C1543.2 166.032 1542.82 166.16 1542.21 166.16ZM1532.1 161.456C1532.1 163.184 1533.22 164.336 1535.2 164.336C1538.4 164.336 1540.1 162.128 1540.58 159.696L1541.02 157.424C1540 158 1538.69 158.096 1535.94 158.32C1534.66 158.416 1532.1 158.608 1532.1 161.456ZM1545.41 166L1549.83 143.12H1552.39L1550.75 151.728H1550.82C1552.1 150.128 1553.95 149.072 1556.16 149.072C1559.78 149.072 1561.99 151.824 1561.99 155.92C1561.99 160.912 1559.27 166.48 1553.63 166.48C1551.2 166.48 1549.47 165.424 1548.48 163.568H1548.42L1547.97 166H1545.41ZM1549.28 159.344C1549.25 162.16 1550.59 164.336 1553.54 164.336C1557.63 164.336 1559.36 159.76 1559.36 156.08C1559.36 153.52 1558.4 151.248 1555.49 151.248C1551.49 151.248 1549.31 155.408 1549.28 159.344ZM1569.6 166.48C1566.01 166.48 1562.72 164.656 1562.72 160.624H1565.18C1565.25 163.088 1566.91 164.368 1569.79 164.368C1571.55 164.368 1573.53 163.728 1573.53 161.392C1573.53 160.08 1572.41 159.504 1569.73 158.448C1567.01 157.392 1564.77 156.432 1564.77 153.584C1564.77 150.704 1567.17 149.104 1570.49 149.104C1573.82 149.104 1576.61 150.576 1576.83 154.288H1574.33C1574.08 152.016 1572.57 151.088 1570.49 151.088C1568.8 151.088 1567.17 151.6 1567.17 153.456C1567.17 154.8 1568.32 155.312 1570.97 156.368C1573.89 157.52 1576.03 158.48 1576.03 161.328C1576.03 164.912 1572.99 166.48 1569.6 166.48ZM1585.18 166.448C1581.24 166.448 1578.2 163.856 1578.2 159.216C1578.2 153.84 1581.5 149.04 1586.94 149.04C1590.94 149.04 1593.88 151.824 1593.88 156.336C1593.88 161.584 1590.81 166.448 1585.18 166.448ZM1580.76 159.184C1580.76 162.096 1582.27 164.304 1585.28 164.304C1589.21 164.304 1591.29 160.56 1591.29 156.336C1591.29 153.584 1589.95 151.152 1586.88 151.152C1582.81 151.152 1580.76 155.088 1580.76 159.184ZM1594.85 166L1599.27 143.12H1601.83L1597.41 166H1594.85ZM1611.08 166L1611.5 163.696H1611.44C1610.09 165.296 1608.3 166.384 1605.87 166.384C1602.64 166.384 1601.1 164.336 1601.74 160.976L1603.98 149.456H1606.51L1604.27 160.944C1603.82 163.216 1604.46 164.24 1606.48 164.24C1609.42 164.24 1611.88 161.776 1612.49 158.704L1614.28 149.456H1616.84L1613.64 166H1611.08ZM1618.86 151.536L1619.27 149.456H1621.61L1622.63 144.24H1625.19L1624.17 149.456H1627.34L1626.92 151.536H1623.75L1621.74 162.032C1621.48 163.312 1621.93 163.888 1623.18 163.888C1623.82 163.888 1624.36 163.728 1624.65 163.6H1624.74L1624.3 165.84C1623.85 166 1623.21 166.096 1622.5 166.096C1619.94 166.096 1618.63 164.688 1619.18 161.936L1621.19 151.536H1618.86ZM1639.46 166.16C1637.7 166.16 1637.19 165.104 1637.15 163.888H1637.12C1636.03 165.296 1634.24 166.32 1631.91 166.32C1628.61 166.32 1626.75 164.144 1626.75 161.648C1626.75 157.424 1629.99 156.56 1633.28 156.368C1637.83 156.112 1638.91 155.824 1638.91 153.68C1638.91 151.632 1637.31 151.152 1635.52 151.12C1632.83 151.088 1631.3 152.016 1630.85 154.448H1628.26C1628.83 151.152 1631.43 149.104 1635.71 149.104C1638.91 149.104 1641.92 150.608 1641.12 154.736L1639.62 162.384C1639.39 163.6 1639.52 164.368 1641.06 164.08H1641.15L1640.77 165.936C1640.45 166.032 1640.07 166.16 1639.46 166.16ZM1629.35 161.456C1629.35 163.184 1630.47 164.336 1632.45 164.336C1635.65 164.336 1637.35 162.128 1637.83 159.696L1638.27 157.424C1637.25 158 1635.94 158.096 1633.19 158.32C1631.91 158.416 1629.35 158.608 1629.35 161.456ZM1654.63 166.48C1650.89 166.48 1648.33 163.984 1648.36 159.568C1648.39 154.736 1651.37 149.072 1657.07 149.072C1659.24 149.072 1660.84 150.064 1661.87 151.984H1661.93L1663.62 143.12H1666.19L1661.77 166H1659.21L1659.56 164.208H1659.5C1658.25 165.616 1656.65 166.48 1654.63 166.48ZM1650.95 159.44C1650.95 162.032 1652.01 164.336 1654.99 164.336C1659.21 164.336 1661.1 159.888 1661.1 155.792C1661.1 153.264 1659.66 151.248 1656.97 151.248C1652.91 151.248 1650.95 155.952 1650.95 159.44ZM1680.77 158.352H1668.45C1668.42 158.672 1668.42 158.96 1668.42 159.28C1668.42 162.224 1669.96 164.304 1673 164.304C1675.14 164.304 1676.93 163.056 1677.67 160.88H1680.17C1678.89 164.592 1676.17 166.448 1672.74 166.448C1668.9 166.448 1665.83 163.76 1665.83 159.248C1665.83 153.648 1669.57 149.04 1674.44 149.04C1676.2 149.04 1677.57 149.488 1678.6 150.256C1680.68 151.824 1681.32 154.8 1680.77 158.352ZM1674.34 151.056C1671.43 151.056 1669.45 153.264 1668.71 156.4H1678.34C1678.66 153.328 1677.38 151.056 1674.34 151.056ZM1693.66 166.48C1689.92 166.48 1687.36 163.984 1687.39 159.568C1687.42 154.736 1690.4 149.072 1696.1 149.072C1698.27 149.072 1699.87 150.064 1700.9 151.984H1700.96L1702.66 143.12H1705.22L1700.8 166H1698.24L1698.59 164.208H1698.53C1697.28 165.616 1695.68 166.48 1693.66 166.48ZM1689.98 159.44C1689.98 162.032 1691.04 164.336 1694.02 164.336C1698.24 164.336 1700.13 159.888 1700.13 155.792C1700.13 153.264 1698.69 151.248 1696 151.248C1691.94 151.248 1689.98 155.952 1689.98 159.44ZM1704.25 166L1707.45 149.456H1710.01L1706.81 166H1704.25ZM1708.06 146.32L1708.67 143.12H1711.23L1710.62 146.32H1708.06ZM1725.84 158.352H1713.52C1713.48 158.672 1713.48 158.96 1713.48 159.28C1713.48 162.224 1715.02 164.304 1718.06 164.304C1720.2 164.304 1722 163.056 1722.73 160.88H1725.23C1723.95 164.592 1721.23 166.448 1717.8 166.448C1713.96 166.448 1710.89 163.76 1710.89 159.248C1710.89 153.648 1714.64 149.04 1719.5 149.04C1721.26 149.04 1722.64 149.488 1723.66 150.256C1725.74 151.824 1726.38 154.8 1725.84 158.352ZM1719.4 151.056C1716.49 151.056 1714.51 153.264 1713.77 156.4H1723.4C1723.72 153.328 1722.44 151.056 1719.4 151.056ZM1725.73 166L1726.12 164.016L1737.12 151.76V151.664H1728.93L1729.35 149.456H1741.16L1740.87 150.928L1729.48 163.6V163.696H1738.82L1738.4 166H1725.73ZM1758.58 166.16C1756.82 166.16 1756.31 165.104 1756.28 163.888H1756.25C1755.16 165.296 1753.37 166.32 1751.03 166.32C1747.73 166.32 1745.88 164.144 1745.88 161.648C1745.88 157.424 1749.11 156.56 1752.41 156.368C1756.95 156.112 1758.04 155.824 1758.04 153.68C1758.04 151.632 1756.44 151.152 1754.65 151.12C1751.96 151.088 1750.42 152.016 1749.97 154.448H1747.38C1747.96 151.152 1750.55 149.104 1754.84 149.104C1758.04 149.104 1761.05 150.608 1760.25 154.736L1758.74 162.384C1758.52 163.6 1758.65 164.368 1760.18 164.08H1760.28L1759.89 165.936C1759.57 166.032 1759.19 166.16 1758.58 166.16ZM1748.47 161.456C1748.47 163.184 1749.59 164.336 1751.57 164.336C1754.77 164.336 1756.47 162.128 1756.95 159.696L1757.4 157.424C1756.37 158 1755.06 158.096 1752.31 158.32C1751.03 158.416 1748.47 158.608 1748.47 161.456ZM1767.54 149.456L1767.06 152.016H1767.13C1768.5 150.224 1770.74 149.072 1773.21 149.072C1776.47 149.072 1777.85 151.088 1777.24 154.32L1774.97 166H1772.44L1774.71 154.32C1775.1 152.272 1774.52 151.216 1772.54 151.216C1769.5 151.216 1766.71 153.776 1766.14 156.72L1764.34 166H1761.78L1764.98 149.456H1767.54ZM1773.91 146.768C1772.41 146.768 1771.13 145.744 1770.3 145.744C1769.85 145.744 1769.53 146.128 1769.43 146.704H1767.54C1767.96 144.88 1768.89 143.76 1770.36 143.76C1772.06 143.76 1772.76 144.784 1773.91 144.784C1774.52 144.784 1774.78 144.336 1774.9 143.824H1776.73C1776.41 145.456 1775.54 146.768 1773.91 146.768ZM1785.87 166.448C1781.93 166.448 1778.89 163.856 1778.89 159.216C1778.89 153.84 1782.19 149.04 1787.63 149.04C1791.63 149.04 1794.57 151.824 1794.57 156.336C1794.57 161.584 1791.5 166.448 1785.87 166.448ZM1781.45 159.184C1781.45 162.096 1782.96 164.304 1785.96 164.304C1789.9 164.304 1791.98 160.56 1791.98 156.336C1791.98 153.584 1790.64 151.152 1787.56 151.152C1783.5 151.152 1781.45 155.088 1781.45 159.184ZM1802.28 166.48C1798.7 166.48 1795.4 164.656 1795.4 160.624H1797.87C1797.93 163.088 1799.6 164.368 1802.48 164.368C1804.24 164.368 1806.22 163.728 1806.22 161.392C1806.22 160.08 1805.1 159.504 1802.41 158.448C1799.69 157.392 1797.45 156.432 1797.45 153.584C1797.45 150.704 1799.85 149.104 1803.18 149.104C1806.51 149.104 1809.29 150.576 1809.52 154.288H1807.02C1806.76 152.016 1805.26 151.088 1803.18 151.088C1801.48 151.088 1799.85 151.6 1799.85 153.456C1799.85 154.8 1801 155.312 1803.66 156.368C1806.57 157.52 1808.72 158.48 1808.72 161.328C1808.72 164.912 1805.68 166.48 1802.28 166.48ZM1810.09 166L1810.7 162.832H1813.77L1813.16 166H1810.09Z" fill="#141414"/>
</svg>
