<svg preserveAspectRatio="none" width="100%" height="100%" overflow="visible" style="display: block;" viewBox="0 0 483.036 1175.4" fill="none" xmlns="http://www.w3.org/2000/svg">
<g id="Vector">
<mask id="path-1-inside-1_0_77" fill="white">
<path d="M368.02 58.5778C361.976 56.2275 363.562 48.3243 360.604 45.7436C356.724 42.3335 359.039 55.7667 351.451 62.587L326.308 40.444C322.728 37.3104 322.878 28.3242 326.008 25.4671C329.137 22.6099 333.703 22.6099 340.948 23.0247C333.896 19.7528 331.71 0.950889 338.054 0.0522694C347.336 -0.84635 348.129 10.0754 349.308 14.845C350.144 18.186 355.438 22.0108 354.988 28.9233C356.81 23.9463 355.438 19.4763 361.204 15.8588C364.419 21.4348 361.74 25.9279 361.204 31.9187C367.87 28.4395 364.633 21.9878 364.612 18.4625L366.198 17.0109L367.484 26.4118L378.266 17.7251C380.902 15.5823 382.51 12.4486 385.232 12.5869C387.954 12.7251 391.555 14.4071 392.413 16.4809C396.078 25.421 384.611 28.3243 377.516 45.4671C376.058 48.9695 367.913 51.527 369.413 57.5409L370.206 58.5778C379.638 61.3658 373.014 71.9879 387.269 78.1631C390.055 79.3612 395.585 100.675 388.233 99.4303C383.689 98.6469 379.874 91.0202 376.594 88.3704L370.206 98.1631C366.348 96.988 363.519 92.4488 357.967 93.647C362.018 97.9557 366.112 101.228 367.12 105.859C368.256 111.089 362.297 116.389 360.882 120.398C362.747 127.357 368.042 133.209 367.291 141.504C380.216 128.025 367.377 105.928 378.244 105.559C384.482 105.352 387.74 112.841 388.426 117.472C389.498 124.707 387.29 129.315 380.902 134.338C388.833 142.034 386.861 152.126 380.474 158.094C379.938 159.177 382.231 161.827 383.26 161.988C384.804 162.218 386.304 159.845 387.461 158.9C391.727 155.398 395.478 158.924 399.315 162.656C397.214 151.735 396.121 143.647 401.244 135.675C396.55 131.781 396.143 126.804 395.521 121.504C395.092 117.771 390.419 113.785 390.334 110.26C390.205 103.163 400.537 85.9281 409.604 88.2322L409.239 74.0847C405.402 76.2275 401.415 78.1861 398.2 74.9142C395.521 72.1723 394.599 67.4948 393.356 63.0478C392.113 58.6008 387.997 55.0524 387.826 50.4671C387.569 43.8772 390.741 40.3289 395.671 36.4579L398.243 30.951C398.929 29.4533 402.809 32.4717 404.288 33.186C411.79 36.7805 402.23 51.5962 416.055 54.0847C416.334 49.822 416.87 43.5777 420.9 42.2183C423.257 42.61 423.065 50.0294 420.6 52.2874L425.422 54.5916C427.802 55.7206 426.923 58.6008 427.03 59.9372C427.287 62.8635 423.257 65.0524 421.221 62.057C420.728 60.7897 421.264 57.1722 418.971 56.1123L416.806 68.6469C419.592 70.5594 420.257 68.4856 420.835 67.4948C421.307 66.6884 423.45 67.587 424.286 69.3151L435.604 56.9879C432.56 55.0063 429.152 53.0247 428.102 50.0293C426.323 44.9371 431.296 41.0662 434.082 39.315C438.197 36.7113 446.086 36.8957 447.436 43.6929C448.25 48.4395 443.47 55.375 441.949 60.1446C447.929 61.7805 451.851 55.951 455.86 60.5824C459.139 64.3612 448.701 68.2552 441.027 78.7852C436.461 80.4902 428.981 76.6884 423.536 81.2506C428.145 84.9373 431.081 88.9695 432.582 92.9788C435.132 99.8682 422.55 111.32 423.172 111.158C421.478 111.619 418.778 110.536 414.855 108.923C416.956 117.564 411.083 121.066 403.838 128.601C410.847 127.91 413.355 129.315 416.956 133.854C420.407 134.131 424.929 128.025 424.951 123.209L435.025 125.168C435.475 119.638 439.334 112.265 443.878 112.08C449.344 111.873 451.316 119.569 450.351 123.509C448.979 129.154 445.1 129.822 439.634 131.02C444.585 132.449 448.272 131.758 450.801 136.435L437.447 136.85C438.519 146.089 443.771 150.329 453.03 151.274C442.656 154.361 447.114 166.435 438.948 166.228C434.682 161.32 434.168 155.237 432.367 150.352C429.838 154.131 426.773 157.242 424.629 156.481C415.498 153.209 417.384 146.389 413.912 137.334C410.547 146.274 414.233 153.739 406.967 159.822C410.032 162.864 411.618 165.306 411.768 167.864C411.919 170.813 410.247 173.901 407.739 177.288C415.069 179.246 422.357 184.546 423.172 194.154L412.283 207.702L406.303 205.813C404.373 205.214 403.366 209.845 402.337 211.159C399.336 215.03 394.663 212.288 392.456 209.546C390.248 206.804 391.663 203.693 391.984 196.896C389.155 203.716 386.411 209.062 380.752 208.14C374.129 207.08 366.048 200.237 370.378 193.947C374.708 187.656 376.423 182.08 372.028 173.417L362.168 217.679C367.913 214.039 371.814 217.541 376.165 217.749C379.595 217.933 388.919 217.541 387.311 224.408C386.24 229.016 381.824 237.173 378.437 241.458C368.856 253.601 354.645 255.03 352.33 266.205C359.768 268.924 364.462 274.753 366.027 279.615C368.406 287.034 365.898 293.44 361.74 301.159C368.342 302.749 372.5 305.882 375.115 310.998C379.895 320.306 372.993 337.956 359.961 339.799C364.955 348.901 361.718 357.265 354.173 362.426L339.062 372.749C343.349 374.546 345.385 377.864 348.857 383.44C350.722 376.412 351.301 370.122 357.067 364.615C363.905 369.062 365.298 379.316 359.082 386.389L352.994 404.339C346.307 412.104 344.978 418.486 345.321 429.224C345.814 444.385 344.613 459.178 348.686 473.003C352.63 464.915 347.186 456.827 348.193 449.869L353.08 416.228L360.454 396.804C361.418 394.293 363.583 391.942 364.891 390.952C366.97 389.362 371.107 391.067 373.657 391.989L386.261 380.537C388.855 382.933 391.191 385.145 394.321 385.514C395.414 379.385 398.929 376.804 402.294 376.85C415.52 376.988 410.804 415.906 401.523 440.284C402.187 443.901 404.331 449.869 400.708 453.74C393.828 461.09 391.813 469.638 387.226 479.155C386.304 481.09 382.081 485.168 386.047 486.689C387.269 487.104 390.87 483.348 392.241 483.325C393.442 483.325 394.256 483.855 396.185 485.468C397.579 482.795 400.172 482.035 401.394 482.841C403.195 484.039 404.781 485.975 406.753 489.039C409.282 486.39 409.346 481.436 415.648 478.878C413.44 494.915 400.708 494.108 404.331 500.537C405.467 502.565 408.703 504.569 409.818 500.399C410.354 498.394 410.461 495.929 411.897 494.431C413.055 493.233 416.506 495.122 417.706 495.56C418.756 493.371 417.513 491.044 417.17 489.915C416.57 487.91 421.093 485.168 421.886 486.966C425.037 493.993 419.656 500.675 418.563 506.989C417.363 513.947 413.848 516.851 408.489 516.897C402.487 516.966 400.279 510.215 401.351 502.334L392.649 508.302C394.771 509.247 396.571 511.321 396.936 513.325C397.364 515.698 396.528 518.924 395.006 521.251C384.525 537.473 393.592 548.855 383.325 557.127C383.11 565.698 383.946 577.957 387.054 588.072C389.926 580.652 393.399 573.602 398.436 566.551C393.806 552.68 399.143 538.878 408.682 529.247C412.497 536.228 407.374 540.629 406.624 544.731L401.094 574.523L412.219 562.611C413.355 561.39 414.641 558.486 415.67 558.694L422.829 560.123C420.857 556.943 420.192 554.616 421.478 551.344C422.293 549.27 425.079 545.307 428.788 550.583C427.952 547.196 432.56 534.523 437.704 537.634C447.393 543.487 440.748 560.583 431.874 565.33C429.902 566.39 428.959 570.468 425.83 569.616C423.579 568.994 421.028 567.311 419.249 564.731L411.211 578.463C409.261 581.781 400.301 584.201 401.758 589.477C403.966 590.422 409.196 591.321 409.818 593.786C412.347 603.924 395.885 605.169 391.77 614.086C388.812 620.514 393.249 627.15 392.413 633.924C391.148 644.27 382.96 653.832 387.783 666.298L404.695 656.321C405.359 655.653 405.402 652.127 405.831 651.321C406.538 650.007 409.282 649.247 410.933 650.192C412.133 650.883 412.283 655.192 411.854 657.98C415.541 661.367 418.585 656.067 420.321 653.279C422.657 649.547 420.771 646.09 420.771 641.321C422.357 639.708 426.237 643.118 425.83 645.537C427.609 642.98 427.009 639.961 427.223 638.118C427.394 636.551 430.374 636.413 432.646 637.058C441.263 629.984 443.985 618.44 441.22 605.791L460.147 598.694C463.962 597.265 466.599 605.122 464.691 609.685C462.097 615.952 455.131 616.989 452.13 621.574C447.95 627.957 446.45 635.883 439.076 639.869C443.085 642.265 446.128 639.04 448.615 638.049C458.389 657.335 423.022 653.21 425.615 666.067C426.773 671.805 436.611 674.754 441.155 672.726C440.32 670.422 441.627 666.551 443.085 666.966C446 667.772 449.665 669.869 450.244 672.219C450.823 674.57 448.786 677.749 447.35 679.915C443.299 686.09 440.255 675.514 423.686 671.482C413.29 682.726 408.082 662.519 394.556 675.63L387.526 678.279C385.061 679.201 386.625 686.367 386.047 688.971L373.207 705.514L376.551 707.127L378.609 712.381C380.495 710.445 380.131 707.496 380.817 704.224C381.846 699.224 389.476 699.708 392.756 701.92C396.936 704.708 397.664 710.56 396.978 717.289L420.428 710.215C423.815 709.201 425.701 715.123 425.079 717.98C424.372 721.321 422.079 724.224 417.041 725.284C417.599 730.1 417.684 733.763 419.978 738.74C423.322 735.261 425.594 733.21 428.016 733.141C429.967 733.095 442.013 738.533 443.192 739.892C444.757 741.69 443.513 745.607 439.698 748.026C445.164 750.307 450.93 750.445 456.61 750.492C455.838 747.634 455.667 746.298 455.838 745.584C456.181 744.27 459.504 744.339 460.618 743.994C469.942 741.068 474.808 746.713 479.331 755.215L482.868 761.851C483.746 763.51 480.981 766.92 479.331 767.404C474.165 768.948 469.535 760.422 464.348 760.538C460.983 760.607 460.618 765.86 458.089 770.399C456.76 760.63 452.173 757.22 442.956 754.639L434.554 752.289C432.432 751.69 430.074 757.68 426.065 758.625C424.544 755.491 425.615 748.302 420.943 746.667L419.335 754.04C408.832 749.316 404.266 742.289 405.552 730.537L392.027 726.62C387.161 725.215 380.302 721.874 378.309 728.948C374.129 743.74 363.39 737.312 368.213 746.367C371 744.754 374.193 744.086 376.701 744.293C379.466 744.524 384.311 762.312 383.303 765.33C380.024 775.1 367.549 775.077 366.798 780.146C366.177 784.27 369.263 787.588 373.207 788.441C385.468 791.068 392.434 798.694 401.223 806.759C407.674 812.681 415.069 818.072 411.297 829.34C408.532 837.542 396.4 825.814 390.655 808.487C386.561 810.653 382.146 811.759 379.938 810.284C376.83 808.187 375.715 804.57 375.136 799.662C370.507 805.215 367.656 804.892 361.182 801.805L361.354 806.874C361.44 809.8 353.316 808.579 351.601 820.86C351.13 824.247 344.035 823.81 342.277 820.699C337.133 811.667 355.631 805.998 365.92 788.971H356.788L350.787 782.496C347.979 779.455 341.184 783.026 337.776 776.782L333.574 790.975C332.01 796.298 339.255 804.34 336.189 810.676C335.268 812.588 330.209 811.252 329.373 809.132C328.216 806.229 327.959 802.773 330.509 798.372C323.586 796.943 319.085 792.704 316.705 785.722C314.626 791.021 311.754 794.086 307.703 794.754C304.766 795.238 301.187 790.883 299.515 788.164C297.221 784.409 299.407 780.376 303.244 777.404C296.428 776.713 293.449 774.915 290.619 769.455C290.126 778.026 285.539 780.146 279.473 781.644C268.82 784.27 275.015 800.399 262.904 798.625C260.911 798.326 259.217 802.819 257.953 804.316L238.361 827.634C247.364 825.492 252.937 828.487 260.053 831.505C272.207 836.69 283.353 842.565 288.904 855.169C291.584 850.1 295.849 845.607 300.608 846.114C305.795 846.667 306.117 853.003 303.159 856.39C300.201 859.777 297.714 858.487 291.134 857.75C295.078 863.141 300.436 867.75 306.224 869.685C311.561 871.482 333.124 855.883 319.835 872.312C324.872 876.413 330.338 871.344 335.246 869.478C338.633 871.022 344.485 877.888 349.458 875.008C349.993 874.662 348.965 871.874 348.386 871.667C347.357 871.275 348.343 868.418 348.9 869.063L352.673 873.487C357.967 875.238 364.891 875.33 367.656 883.925C364.526 884.939 361.954 882.22 358.675 880.377C359.06 884.271 357.603 893.718 354.452 894.04C344.056 893.671 339.362 882.404 333.832 873.118L320.392 897.588L309.46 886.575L315.591 871.552C311.389 874.478 307.917 876.39 303.844 876.183C297.886 875.86 295.399 871.69 292.034 866.505C275.636 841.206 240.676 834.409 253.001 847.151C263.997 847.704 272.893 852.197 278.916 862.45L289.183 874.178C290.812 876.022 290.426 879.248 289.848 881.252C288.604 885.607 281.188 883.533 281.231 888.441C281.274 895.284 295.228 893.833 295.571 909.916C295.699 915.768 287.04 925.86 282.367 922.519C278.701 919.916 279.452 915.1 279.366 913.418C279.28 911.736 282.603 909.87 285.904 909.201C278.809 904.132 272.936 898.717 267.148 891.367C268.177 904.224 266.698 912.727 266.805 913.096C268.477 918.556 278.894 918.994 271.799 924.132C268.07 919.939 264.062 919.685 257.417 921.897C259.217 918.188 262.132 914.294 256.624 911.483C256.495 918.994 247.407 926.506 241.448 922.98C235.489 919.455 237.59 905.492 245.435 902.98L251.051 913.879C255.102 911.252 253.473 906.275 253.623 904.109C257.545 903.718 258.296 907.796 260.31 911.851C264.04 902.266 263.183 892.796 256.945 884.616L250.108 899.317C243.87 890.423 249.357 882.197 255.209 876.851C253.473 857.542 231.781 851.344 237.29 845.768C238.361 844.685 241.619 844.846 242.927 841.252C232.338 840.952 224.064 844.87 214.547 847.058C227.858 851.874 238.147 860.837 236.304 876.114C230.623 871.713 228.416 868.579 227.215 858.003C219.992 868.395 210.024 857.289 204.237 858.164C178.194 862.128 159.117 882.75 142.784 901.114L166.555 890.284C172.664 887.496 180.423 892.243 187.196 894.847C187.582 905.261 180.23 910.054 170.477 914.939C176.308 917.98 181.602 912.381 185.525 916.575C189.876 921.206 196.735 929.363 196.971 935.561C197.314 943.902 186.232 942.566 181.259 942.796C176.801 943.003 173.585 946.16 170.134 943.741C167.348 941.782 164.69 938.142 162.375 933.326C159.396 940.492 156.438 952.773 148.55 955.883C141.819 958.533 130.759 935.768 140.061 921.367L141.819 915.63C142.419 913.625 140.404 910.745 138.818 911.114C131.23 915.791 126.836 925.561 122.656 933.026C110.717 954.363 99.8927 974.455 94.2554 998.833C89.3468 998.695 91.2116 1004.18 94.1268 1002.52C100.686 993.165 109.388 991.229 117.319 992.612C119.334 976.529 135.667 955.308 140.061 961.897C145.163 969.547 144.005 982.059 159.353 979.547C163.275 978.902 171.292 982.911 169.684 988.303C165.333 1002.82 155.173 1010.84 141.54 1007.87C137.404 1006.97 134.638 1001.07 128.808 1003.03C133.031 1007.22 136.911 1011.14 139.59 1017.61L160.66 1013.67C162.911 1019.69 166.662 1020.28 171.206 1022.06C176.801 1024.27 177.915 1033.95 173.307 1038.58C171.292 1040.58 166.576 1038.1 165.097 1034.8C159.246 1039.57 172.664 1040.01 174.314 1051.87C174.807 1055.42 171.528 1063.12 166.169 1063.58C160.124 1064.11 156.438 1051.25 156.416 1043.79C150.093 1058.99 166.105 1069.04 159.417 1074.99C157.852 1076.37 156.18 1074.02 154.144 1072.2C150.972 1070.19 147.542 1075.75 145.72 1078.46C135.089 1074.92 130.844 1063.44 134.081 1050.15C128.83 1054.41 125.164 1056.14 121.756 1053.42C107.802 1042.24 129.88 1012.52 123.107 1003.65C120.963 1000.84 118.884 996.805 113.611 999.363C106.966 1002.57 95.027 1003.83 90.2256 1011.11C81.8232 1031.51 73.8709 1051.28 60.3884 1068.86C59.531 1069.99 61.0315 1073.65 61.7388 1073.44C65.6185 1072.38 72.3705 1056.92 82.6592 1058.33C87.2676 1060.81 82.8521 1074.39 77.4934 1077.7C83.3022 1077.45 85.4885 1075.88 88.7895 1079.16C93.0121 1083.35 93.7195 1086.21 89.8398 1090.22C85.9601 1094.22 83.4522 1095.91 76.1216 1091.48C78.5651 1098.03 75.6286 1100.28 73.6351 1102.87C68.7909 1109.18 64.9969 1108.81 61.0743 1106.53C51.0858 1100.75 55.7157 1093.97 53.1864 1082.45C38.8894 1100.77 24.571 1118 6.86584 1133.12C16.0399 1133 26.3715 1132.75 33.6593 1126.92C40.9471 1121.09 49.2852 1111.87 59.2738 1119.73C63.475 1123.03 60.4742 1134.2 53.7437 1136.97C62.9606 1143.51 70.0126 1150.7 69.4125 1163.46C69.2839 1166.28 65.0398 1169.34 63.4536 1168.21C58.1592 1164.39 55.1369 1169.69 52.1789 1169.78C35.9528 1170.24 32.4161 1142.98 32.9734 1141.64C33.5521 1140.24 37.3675 1139.85 39.2109 1140.52L44.6339 1142.47C45.6413 1142.84 47.5705 1140.22 47.7634 1138.69C38.6536 1135.77 30.0583 1136.23 22.0845 1139.16C30.9799 1142.96 32.5232 1151.28 31.8588 1159.13C31.2372 1166.3 25.4712 1174.11 19.3409 1175.4L7.03732 1156.64L13.9822 1140.86C9.65236 1139.87 6.69436 1141.23 2.98615 1142.5C-0.593455 1136.69 -1.38654 1127.31 3.24337 1122.8L22.5347 1104.04L48.6636 1065.49C57.8377 1051.97 69.884 1038.49 61.4387 1025.4C59.0809 1028.53 53.1864 1028.79 52.1361 1025.81C50.8714 1022.2 50.3998 1018.72 48.4278 1016.94C46.4558 1015.17 40.4541 1012.61 39.7253 1015.33C38.3321 1020.58 37.7319 1023.86 34.4524 1026.04C31.3872 1028.1 26.6716 1027.57 23.7136 1023.53L16.1471 1013.26C15.2254 1011.99 14.0465 1010.91 13.9179 1009.94C13.725 1008.44 14.5609 1006.83 16.0614 1003.3C17.9047 1003.69 21.0557 1005.33 22.8133 1004.55C25.5355 1003.33 26.8645 1000.58 28.5364 998.856L27.5289 997.727C24.1637 997.45 21.2271 995.791 17.0688 992.243C12.9533 1000.05 11.8173 1007.98 5.3011 1014.09L9.39514 984.271C9.97388 980.1 3.39341 979.271 2.40741 977.381C-0.271934 972.312 -1.12932 960.215 2.00015 955.676L15.9113 935.63C24.8925 944.731 23.8636 955.722 16.7687 964.778C14.8181 967.266 16.2971 975.123 8.94501 975.492L22.2131 983.856C27.1646 986.99 29.5653 991.206 28.5578 996.598L29.6724 997.704C36.7888 996.69 42.962 1001.6 44.6125 1009.43L50.4213 993.533C42.962 996.275 36.6387 996.874 29.4581 991.022C39.3181 982.289 39.5753 968.28 45.1055 974.225C46.8417 976.091 48.3421 976.967 49.6068 980.837C51.7502 980.884 53.4436 978.787 54.8154 978.096C56.7017 977.151 56.5945 972.842 56.7445 969.662C56.8946 966.483 66.6474 966.39 67.0118 969.593C67.5905 974.824 65.3399 980.999 68.2979 985.146C70.4842 986.92 75.2213 987.819 77.5791 991.114L77.8149 949.363C77.8149 947.658 75.6714 944.893 74.5782 945.008C71.5131 945.354 70.227 962.727 59.381 960.261L51.6002 949.801C49.3067 951.229 42.7262 953.072 40.9257 950.008C33.4449 937.174 29.9082 920.561 38.2892 921.437C40.8399 921.713 44.1195 922.427 46.8417 926.367L52.3075 912.727C53.6794 909.294 55.5656 906.575 57.9449 905.86C60.8171 905.008 64.0752 905.93 66.776 907.865C68.2336 898.833 61.7174 892.22 61.503 884.04L60.6671 851.505L59.5096 850.353L57.9877 866.552C57.559 871.114 48.5564 876.667 44.5267 875.1L39.9182 869.409C39.1466 868.464 35.6742 870.008 32.3732 871.183C29.7582 851.966 12.2888 848.625 29.6081 842.358C30.4869 836.552 27.5933 832.22 26.35 826.575C27.5933 823.786 34.088 824.731 36.3386 827.312C37.2389 819.155 39.8754 812.335 43.3478 806.344C47.4418 805.561 52.1361 811.068 52.5862 815.054C53.2292 820.63 58.1807 823.487 59.8311 827.542C62.2961 833.579 60.2598 841.528 60.6028 847.888L61.9746 850.284L63.9466 826.229L64.6968 785.607C60.4099 788.257 55.6514 794.34 49.9283 792.381C41.6759 789.57 41.7402 773.533 48.8137 768.395C53.6794 764.869 60.7957 772.266 61.8246 776.39C66.0043 767.381 56.9374 751.943 48.6851 752.473C41.5901 752.934 34.581 759.04 27.2074 757.842L17.176 746.528C21.2914 742.081 24.1851 738.533 25.9856 733.717C16.8116 731.137 7.38028 720.261 7.61606 710.676C10.6598 704.869 21.0342 707.703 26.0285 710.123C25.5784 705.906 28.9436 696.229 32.5447 698.049C44.098 703.878 47.9777 717.266 51.3001 728.372C51.1501 720.1 54.8368 710.031 62.4676 710.008C64.2038 715.676 68.0835 719.754 72.6491 722.611C80.2156 727.335 73.8495 737.473 70.8272 743.049L64.5896 754.616C62.8749 760.515 68.1693 766.851 71.1058 772.681C72.0489 775.515 69.6268 781.045 73.0349 783.717L84.181 733.049C89.0467 710.929 86.7532 674.063 81.1373 678.187L75.157 682.588C64.3967 679.017 66.1544 664.639 69.4339 654.385C70.0984 652.289 66.3473 652.427 65.8972 654.823L65.0183 659.57C64.654 661.482 65.0612 665.261 63.8394 665.998C63.0035 666.505 60.0883 666.321 58.052 665.998C54.2367 667.45 52.2432 661.689 57.6019 660.883C55.3513 654.961 58.0735 650.676 59.3167 645.699C59.8526 643.556 57.5376 639.063 60.6671 637.335C62.3819 636.39 65.1684 633.648 67.1189 634.823C67.6548 635.146 79.4868 657.841 83.3022 671.206C86.5388 659.086 81.3516 649.616 80.2156 638.187C78.9938 626.021 71.8346 612.335 60.71 612.035C58.8666 627.035 43.5193 636.759 42.8334 636.09L38.8894 632.15C31.0228 624.293 28.7507 616.459 32.4589 605.606C24.5066 608.855 22.1274 617.081 15.4826 617.404C10.424 617.657 6.02989 615.03 0.799804 618.072L0.7355 581.275L11.2814 580.192L5.34397 567.519C10.767 560.722 18.9979 560.791 26.3286 564.754C25.5998 560.468 27.186 553.924 30.6799 553.026C41.0114 560.03 46.6059 574.086 42.5976 586.528C38.8036 587.542 35.5027 587.035 32.6519 589.408C38.5893 590.123 42.3189 591.159 47.6991 592.565C44.8268 583.602 43.9051 573.417 48.7922 565.514C50.2069 563.233 56.3587 565.606 59.0166 567.058C55.3298 555.145 51.1715 546.09 49.4138 534.846C38.2035 546.597 23.4135 526.39 11.6458 509.431C12.1388 504.201 21.0771 500.514 26.6501 503.072C25.2569 496.551 23.8422 492.311 24.1851 487.058C32.9519 483.325 34.7739 491.321 39.0608 495.583C44.6339 501.159 49.8854 503.855 51.5787 512.288C52.3718 496.228 46.4344 483.509 38.9108 470.744L19.7481 438.256C11.6458 440.675 22.8133 457.265 12.0102 458.509C9.03075 458.855 4.95815 457.749 0.842673 455.491L1.09989 415.491L3.95071 411.712L1.39998 408.025C0.0495875 401.274 0.135326 395.33 1.7858 389.569C4.93671 393.671 5.38684 396.873 8.96645 399.131C10.5098 385.79 8.32341 374.362 6.02989 362.634C6.02989 368.256 4.01502 369.523 0.756935 369.177C0.906978 346.251 3.90784 327.726 12.7604 339.293L26.1357 314.938C21.5915 312.334 17.3474 307.841 11.6672 310.191L1.31424 321.712L0.885543 277.242C0.842674 273.832 4.1865 271.988 6.13706 272.242C8.38771 272.541 10.3811 273.67 11.7315 276.896C17.9047 291.574 6.43715 304.2 14.6252 304.915C21.7416 305.537 20.3483 294.615 27.5289 295.537C29.4152 295.79 31.5587 297.057 33.6379 299.684L40.8614 294.016C32.9519 289.431 28.0648 287.472 20.3269 284.776C20.6913 272.68 25.707 258.97 34.9454 251.228C39.1895 252.518 39.7468 259.707 40.1755 263.394C43.1763 258.624 45.2341 255.606 49.028 255.997C51.8574 256.274 53.3364 259.984 54.7297 263.417C58.738 273.394 50.0997 280.79 47.6133 291.942C67.7834 282.38 58.2021 248.578 68.6408 244.891C70.3556 244.292 73.3565 246.942 73.5065 248.624C73.9352 253.532 69.241 258.716 73.4636 262.011C74.7069 262.979 77.0004 261.873 79.7869 259.914C78.2222 256.689 77.1719 253.025 78.1579 248.855C78.9724 245.467 90.0756 236.297 93.0121 238.97C97.7492 243.255 91.0187 256.827 85.7243 260.076C81.0515 262.956 76.4002 264.431 73.678 269.684C84.2882 272.334 90.5257 259.822 96.2488 265.905C98.2637 268.048 97.3634 271.527 96.1202 272.657C89.9255 278.256 78.0721 270.444 73.4636 278.601C79.251 280.583 85.3171 284.085 87.8464 289.684C87.5463 293.555 81.0515 296.574 77.129 295.606C72.5419 294.477 68.6194 292.933 66.2401 286.021C63.2393 290.283 60.2813 293.578 56.6374 296.528C62.189 304.799 79.8298 303.163 79.8298 315.836C79.8298 321.182 72.5848 323.233 69.0266 324.154C72.0918 331.666 73.1636 337.887 68.9195 344.131C48.9423 341.643 45.1483 330.214 44.5267 330.352L37.0031 332.058C31.1514 333.371 24.3352 333.187 22.6633 338.993L31.3658 337.15C33.2306 336.758 35.1383 340.122 36.3815 342.011C41.7402 350.122 39.7896 356.827 34.0665 362.818C33.6807 376.113 45.6199 377.426 42.2761 386.896C41.0114 390.491 38.2678 392.311 33.9165 390.56C30.5727 396.067 34.238 402.864 35.9528 408.97C37.4104 414.131 30.144 419.339 26.2 421.366L40.7113 451.689C41.6973 446.482 43.3264 444.085 44.6339 442.818C45.8128 441.666 51.0429 445.191 51.0429 447.081C51.0429 456.551 53.8294 464.454 55.0512 474.132L59.6168 509.708C61.4602 504.846 61.5888 500.837 64.6754 497.127C70.0769 501.136 72.4776 504.823 74.5139 509.592C76.6789 504.661 79.4868 505.261 82.9592 505.883L99.7641 508.97C101.565 501.735 105.166 499.385 112.711 500.192C108.938 478.947 107.824 472.426 120.556 465.583L132.023 459.408C135.774 457.38 140.061 463.855 140.019 467.058C139.826 479.431 128.251 480.03 138.861 483.855C143.019 478.878 149.107 478.233 154.466 482.657C159.031 486.413 157.424 491.966 154.316 496.021C151.593 499.569 146.106 496.021 142.977 496.505C138.711 499.685 137.596 508.44 130.844 509.293L125.85 507.634C124.821 507.288 124.221 512.795 124.907 514.132C128.722 521.505 125.872 525.445 121.82 531.781C118.82 536.459 120.77 550.03 114.318 552.98C108.681 555.56 107.523 546.344 107.009 543.026L91.426 523.302C90.2685 527.98 88.9395 532.565 85.5528 532.634C82.4662 532.703 79.4225 529.984 74.2353 526.804C74.3425 549.385 59.4024 564.5 77.3648 578.855C83.4522 583.717 77.5577 592.542 78.8652 596.781L86.7746 622.312C91.1473 636.413 95.4557 649.616 95.4343 663.74C107.481 647.242 100.879 635.146 106.988 631.62C113.611 627.818 110.374 638.786 115.733 643.279C123.385 631.966 124.714 620.192 128.765 607.542C130.244 602.934 136.203 599.27 132.688 592.196C130.566 594.454 125.25 597.358 121.992 595.652C117.448 593.279 116.097 586.044 116.848 580.952C117.426 577.127 117.362 569.846 124.971 570.722C123.921 567.934 121.992 564.132 123.771 562.519L129.28 557.565C132.366 554.8 136.889 547.703 140.897 552.104C144.906 556.505 147.135 563.003 149.428 569.362C153.673 565.445 157.681 560.537 163.725 558.394C165.719 557.68 169.363 561.989 169.298 564.039C169.234 565.975 168.463 568.763 167.584 571.275C172.835 572.98 176.458 570.606 180.745 570.169C184.346 569.8 187.089 574.869 187.132 577.45C187.218 581.436 182.159 582.68 181.002 586.228L175.622 602.888C168.098 601.643 166.212 607.219 163.725 610.814C157.917 619.178 150.372 608.44 145.442 608.233C139.418 607.98 129.644 616.067 129.708 622.335C129.773 628.602 128.058 631.62 124.8 636.321C129.237 635.399 132.281 633.533 134.681 635.86C136.589 637.726 137.361 640.445 139.011 643.371C140.726 638.464 142.912 635.099 145.785 634.155C149.428 632.98 152.644 636.021 153.994 638.671C155.709 642.012 154.466 646.482 152.451 648.763C149.986 651.551 145.056 650.123 142.977 647.473C140.34 651.897 143.234 654.017 143.512 656.183C143.92 659.408 148.25 660.63 149.236 658.579C152.001 652.795 156.223 649.639 163.147 648.51C170.67 647.265 180.552 658.325 179.673 667.68C179.394 670.63 172.492 674.547 175.129 679.385C176.908 682.634 178.301 685.814 177.058 688.648C175.45 692.266 172.964 694.938 169.298 693.51C166.705 692.496 165.269 688.971 160.189 685.514C159.138 693.533 157.617 700.561 151.1 703.994L139.44 692.012C134.896 687.358 139.504 678.878 139.504 674.547C134.681 670.791 131.059 668.348 130.93 662.611C130.823 658.118 133.352 653.786 135.303 650.883C132.173 646.182 124.178 646.874 120.856 648.763C127.286 656.551 129.773 666.805 123.857 673.694C119.656 678.602 115.197 682.035 110.01 678.971C106.109 676.666 106.216 671.252 104.308 665.975C104.308 676.298 102.744 682.934 99.9999 692.289C97.8778 699.547 100.814 709.8 94.6841 715.676C101.329 724.616 98.1136 708.832 106.88 707.427C110.117 706.897 113.354 708.441 114.104 711.413C114.94 714.777 113.611 717.634 112.325 722.15C119.591 717.749 128.122 718.21 131.337 726.137C132.774 729.662 130.244 734.224 128.401 735.422C125.764 737.127 123.064 737.588 118.948 737.98C121.799 745.1 116.569 753.279 110.932 753.602C104.48 753.971 98.6066 749.524 96.3131 741.989C92.8192 747.15 92.7549 753.256 92.4334 760.491C92.2834 763.717 87.0747 771.091 88.618 773.856C92.4548 778.694 96.5917 780.376 95.0913 786.943C94.2768 790.538 92.9693 795.515 87.8035 796.459C86.2816 796.736 83.9881 793.994 82.4234 792.358C77.3862 805.146 73.8495 816.068 73.4208 829.731C80.58 825.906 83.538 820.008 82.0161 810.469C92.6049 818.003 99.6569 802.22 104.737 813.533C108.209 821.275 99.121 826.575 96.3131 836.713C92.2619 832.519 90.2042 827.565 87.6749 822.704C80.087 826.575 93.5694 835.353 85.66 843.694C82.8092 846.69 79.251 848.326 73.6994 848.303L74.321 875.837C77.7506 871.874 80.1727 869.017 83.3451 868.579C86.5174 868.142 89.6683 870.584 92.0476 873.303L103.794 854.962L110.117 848.718C101.908 847.243 97.9207 838.925 101.265 832.081C104.887 824.685 114.618 818.994 121.392 825.215C124.414 831.367 117.812 844.846 112.432 848.764C115.261 852.519 116.698 854.985 116.762 858.349C116.805 861.321 114.833 863.556 111.81 865.768L125.164 866.69C130.33 877.22 127.072 890.883 115.99 895.423L122.335 908.257C130.566 894.593 140.019 882.911 150.093 872.773C146.706 856.459 158.71 841.298 151.786 837.75C146.363 834.962 136.825 833.556 135.281 825.676C134.317 820.768 135.646 815.791 130.652 811.459C127.929 809.109 129.387 802.243 133.095 801.644C139.654 800.584 141.112 793.464 142.676 788.579C149.75 786.114 154.037 795.054 154.873 800.791C155.795 807.22 155.816 813.257 151.4 817.427C155.559 821.528 157.595 819.478 157.338 816.068C157.166 810.284 162.589 808.095 165.697 809.869C169.106 811.805 171.635 817.289 168.741 821.022C164.883 825.999 164.604 830.192 163.082 836.229L154.894 868.602L174.529 852.865C182.181 846.736 192.148 841.068 193.37 829.386C193.991 823.441 193.863 818.648 198.3 814.04C191.741 813.856 191.998 808.487 189.897 806.068C185.353 801.413 175.836 796.943 175.043 787.611C174.636 782.796 186.596 778.441 189.104 783.28L196.456 797.404C199.972 795.146 201.043 791.897 200.079 787.012C199.543 784.293 196.692 782.197 192.727 779.57C195.556 775.699 197.764 774.362 198.021 769.616C195.084 771.021 193.284 770.653 192.255 769.616C191.226 768.579 190.84 765.445 193.541 763.925C192.984 758.648 199.586 759.777 197.485 764.869C198.321 768.579 200.979 766.482 201.065 765.031C201.108 764.293 202.201 761.621 203.058 761.137C206.081 759.478 208.481 763.418 209.767 765.169C211.696 767.842 209.617 772.266 209.746 774.593C210.089 780.584 216.283 781.321 220.399 783.372C227.451 786.874 230.859 803.464 224.086 808.787C218.363 813.28 216.176 816.091 211.654 821.759L195.663 841.805C206.059 835.814 215.426 833.349 225.693 829.363L239.669 819.063C238.811 810.307 241.662 803.879 243.42 794.939L233.753 796.92C231.909 797.289 228.115 793.326 228.265 790.468C228.501 786.091 233.817 782.22 236.797 783.925C239.583 785.515 241.919 788.187 244.192 792.842C250.043 777.404 249.765 761.252 254.566 754.547C257.46 750.491 259.496 746.09 256.667 741.759C255.359 746.275 254.309 749.132 252.465 751.137C248.328 748.556 248.007 742.68 250.45 740.192C251.929 738.694 255.809 738.441 258.874 739.339C260.118 736.92 260.246 734.386 260.225 730.491C263.933 732.289 265.605 734.754 267.62 737.565L275.508 716.828C278.723 715.814 282.645 720.537 283.331 723.325C284.532 728.095 282.024 745.63 274.479 750.607C279.666 751.482 283.331 752.358 285.346 755.077C287.768 758.372 287.425 762.289 288.797 767.657C289.912 761.367 295.656 756.482 298.807 750.998C294.97 746.667 290.233 741.021 291.948 734.27C292.934 730.353 295.999 725.192 301.68 724.708C305.752 724.362 311.046 727.657 314.283 732.911L322.021 725.284C328.452 729.455 329.973 735.607 331.71 742.289C335.289 732.703 325.665 723.717 329.588 719.201C330.574 718.072 331.817 717.104 335.782 715.261L322.471 681.759C316.598 672.519 308.946 665.745 308.389 653.602L289.397 664.017L296.407 669.339C297.5 670.169 300.072 668.994 301.872 665.952C304.337 669.892 300.629 673.118 297.457 673.164C294.285 673.21 292.12 671.021 289.033 669.339C286.954 670.169 284.039 673.21 281.852 671.344C279.387 669.247 277.48 667.934 275.701 665.33C272.014 659.892 271.414 653.855 276.022 650.007C280.352 646.413 285.796 647.934 289.89 652.173L295.785 648.003C297.028 647.127 299.686 650.053 301.444 651.182C302.558 650.86 304.873 646.689 306.181 647.634L310.575 650.722C316.341 651.321 318.077 659.846 321.014 661.897C325.579 665.077 330.488 664.593 332.245 670.491C333.639 675.192 330.424 678.349 329.716 682.957C328.516 690.791 339.083 711.805 338.054 711.828C338.762 711.828 340.112 710.399 341.355 708.579C331.645 698.579 344.656 685.399 341.098 681.851L335.889 676.666C332.503 666.39 333.939 654.639 338.526 645.745C331.688 631.321 312.568 627.565 324.443 618.187C302.13 615.422 286.439 601.805 284.51 612.726C284.146 614.731 285.303 616.666 288.733 621.183C284.124 623.095 278.337 625.123 273.857 625.906C267.705 624.178 260.182 619.247 258.274 613.141C257.267 609.892 263.461 605.146 265.883 606.182C271.435 608.556 274.457 611.92 278.873 615.537C279.13 609.155 281.96 604.892 285.175 604.224C289.976 603.21 293.191 603.763 298.314 603.832C297.35 600.699 296.771 598.233 297.521 596.781C298.893 594.178 302.022 593.325 304.123 595.606L319.642 612.588C321.828 611.574 325.172 609.662 327.058 610.537C328.644 611.275 329.523 614.777 334.282 615.629C334.689 612.703 331.152 611.528 330.981 606.39C341.677 608.671 344.442 615.768 347.914 624.339C348.922 626.828 353.98 629.823 353.595 632.381C353.209 634.938 351.151 637.703 349.693 640.768C358.482 650.722 358.889 663.855 359.232 677.703C365.191 653.003 351.773 618.418 357.517 597.818C359.296 591.436 362.661 586.113 360.046 578.487L346.114 587.818C344.656 577.657 345.878 569.892 348.15 560.768C344.635 561.897 341.655 559.086 339.876 558.487L332.61 566.09C330.681 568.118 325.451 564.662 322.728 565.514C317.455 567.173 316.255 566.758 314.347 562.519C312.611 558.625 315.505 557.864 317.456 555.169C321.7 549.316 323.393 544.155 330.424 541.136C332.481 540.261 332.846 537.403 331.774 537.104C322.235 534.477 314.005 538.763 306.845 525.353C307.638 523.095 310.575 521.09 313.64 519.938C308.924 515.169 309.739 510.675 312.526 506.897C319.428 497.588 326.737 505.491 329.566 504.754C330.574 504.5 331.474 502.611 330.681 501.344C328.987 498.602 319.085 503.694 309.353 492.841C311.432 501.643 308.089 508.187 306.588 515.307C304.616 524.662 301.251 527.841 293.899 532.288C286.547 536.735 278.637 542.45 270.149 538.118C273.879 529.039 279.495 523.717 281.252 516.344C277.458 516.897 275.658 521.044 274.072 520.768C272.957 520.583 271.156 517.957 270.921 515.33C271.928 511.021 267.127 511.528 268.52 515.445C269.034 518.417 266.591 518.97 265.691 518.786C265.069 518.671 264.104 517.68 264.79 516.643C265.198 516.044 265.669 514.201 264.362 513.463C259.089 517.887 252.508 520.537 247.107 520.053C243.849 524.039 246.292 527.38 249.807 524.039C256.967 528.579 264.49 527.404 272.936 525.099C271.542 540.837 257.052 524.685 247.064 534.616C243.999 534.316 240.848 529.454 240.569 526.666C240.29 523.878 245.156 519.546 245.178 516.943C245.328 507.818 247.707 498.049 255.38 493.21C256.731 494.846 259.217 497.749 259.903 496.712L263.183 491.92C268.52 488.878 274.35 485.721 276.001 479.293C279.473 482.542 281.595 484.454 285.946 483.74C280.759 475.03 265.755 474.685 268.884 469.638L272.936 463.095L255.616 470.468C257.653 477.035 261.296 481.62 261.939 488.947C256.538 484.869 251.929 477.565 251.779 470.537C251.651 464.477 260.118 464.523 262.668 461.85L274.136 449.869C280.759 453.279 287.275 454.984 294.285 450.514C283.953 448.855 278.187 437.196 280.995 427.15C272.057 425.307 269.506 429.938 265.926 435.537C256.495 427.473 244.727 439.108 246.099 426.827C246.271 425.26 246.121 423.417 249.143 420.353C236.282 417.542 220.849 421.205 214.397 434.454C218.341 435.721 221.792 436.436 222.392 438.164L224.772 445.03C226.765 436.251 232.702 427.288 243.248 428.671C245.456 428.947 245.778 434.777 244.792 436.528C243.163 439.408 232.145 441.067 232.017 448.44C231.888 455.814 244.084 454.085 246.356 460.952C247.75 465.168 243.206 469.546 248.864 477.219C247.557 482.542 241.319 488.095 235.832 491.851C239.219 497.265 242.177 501.712 239.84 507.196C233.174 522.841 220.142 512.772 213.583 532.173C203.144 527.035 204.194 513.717 213.711 500.721C207.409 503.187 203.273 502.288 200.829 497.703C198.578 493.463 201.729 488.164 206.381 485.56C210.539 483.233 216.455 486.943 221.063 488.509C226.079 482.726 224.021 470.629 217.055 468.578C212.661 467.288 209.446 467.242 207.86 462.795C206.874 459.984 208.717 456.551 207.752 449.8C205.802 457.012 202.737 460.491 196.906 464.846L185.267 473.556C178.644 467.795 176.736 461.735 175.365 452.772C168.956 459.224 163.49 458.509 159.374 455.03C154.616 451.021 153.673 443.97 157.809 438.832L163.918 431.228C156.888 432.196 154.037 428.993 149.921 425.03C143.898 419.224 141.54 411.343 146.62 403.532C150.972 403.786 154.444 404.454 158.41 401.459C152.451 395.606 150.65 386.251 154.916 381.712C159.181 377.173 165.697 377.795 173.693 380.952C169.448 368.878 163.833 357.91 164.368 344.177C164.476 341.458 169.62 337.541 166.898 332.726C164.99 329.362 167.391 325.283 170.07 323.878C176.822 320.283 183.102 336.827 201.451 334.546L211.825 345.514C217.055 339.408 226.658 332.518 226.272 324.638C225.307 319.569 219.82 314.223 221.149 308.071C222.671 301.044 238.318 291.458 245.928 292.703C249.293 293.256 251.222 297.587 257.181 300.468C256.667 296.09 252.873 292.772 250.343 289.408L243.849 290.698C239.69 291.527 231.245 276.735 235.875 268.279C245.006 251.597 252.658 262.196 256.838 258.509C258.038 257.449 260.653 255.767 258.617 253.486C251.522 254.131 243.891 250.491 242.863 245.836C241.298 238.67 243.055 232.126 248.629 228.232C247.857 224.914 247.643 221.85 245.885 219.938C236.475 235.421 244.384 247.656 236.196 254.338C234.332 255.859 230.216 253.97 227.365 255.721C222.95 258.855 219.113 267.311 212.64 266.965C206.981 266.643 205.18 257.726 206.381 251.274C199.007 257.564 189.661 258.394 183.295 250.721C181.431 248.463 184.131 242.587 186.125 241.758C193.948 238.463 192.212 230.283 194.742 225.076C198.921 216.504 210.689 221.136 217.462 223.417C213.604 213.071 211.825 206.043 218.32 201.182C224.814 196.32 230.923 195.168 237.74 203.302C239.776 206.09 241.684 203.716 242.37 199.753C238.168 196.942 233.517 193.325 230.28 187.956C241.384 179.984 225.2 184.592 221.642 181.136C218.92 178.463 220.613 169.454 216.283 170.836C214.033 171.55 216.541 173.348 215.598 177.195C211.761 177.38 207.902 174.246 206.059 171.942C203.273 168.486 202.972 162.403 206.145 159.569C211.053 155.214 214.311 151.066 222.585 152.795C222.564 139.477 209.274 151.642 203.315 139.96C195.92 142.334 183.703 138.232 183.124 127.034C182.91 122.633 191.505 120.214 195.878 119.661C190.883 115.191 188.59 101.896 195.299 100.053C201.451 102.103 208.61 110.79 211.761 116.665L213.69 134.269L218.277 116.896C222.8 109.315 227.387 103.67 229.209 92.8405C238.79 98.8313 240.183 108.163 241.276 118.347C242.991 115.582 247.878 111.711 250.729 113.993C254.845 117.288 253.666 124.039 253.666 129.615C256.238 127.564 258.446 124.868 260.739 125.191C266.784 126.043 269.292 138.255 261.489 152.195C265.133 151.458 267.105 147.818 269.227 148.14C270.728 148.371 273.664 151.297 274.2 153.301C277.801 167.149 269.592 177.495 257.288 181.113C262.947 182.91 268.177 180.606 271.156 185.122C276.044 192.518 263.097 202.725 271.071 203.693C279.044 204.661 278.38 213.302 285.218 220.56C283.696 228.762 277.523 237.08 280.052 247.15C282.56 241.274 285.646 233.348 292.377 231.02C296.771 229.523 300.779 236.55 301.615 240.951C306.181 238.693 305.645 235.421 306.009 231.942C313.426 228.647 321.635 232.403 322.943 241.527C323.436 244.938 325.494 252.219 329.159 252.841C333.746 253.601 331.624 246.919 331.903 244.062L334.518 217.426C327.873 220.997 323.757 216.965 319.642 212.403L309.075 219.5C303.373 216.366 300.844 210.214 300.629 204.361L299.515 203.186L295.656 209.292C294.113 211.735 292.313 212.219 291.069 212.61C289.826 213.002 286.096 211.366 286.204 209.546C286.739 200.191 281.874 195.03 278.809 187.149C275.143 177.702 283.224 167.61 291.134 162.08C297.95 172.679 308.174 177.91 308.796 181.666C309.803 187.864 299.236 191.942 300.608 202.034L301.529 202.933C307.917 199.661 311.968 194.984 309.482 186.343L328.237 175.145C330.231 176.159 331.967 179.96 333.853 182.541C335.739 172.818 340.176 163.854 347.421 156.159L360.196 168.993C364.783 165.698 368.213 164.407 371.643 159.361C363.862 161.896 362.233 157.841 357.238 153.463L341.934 140.076C337.883 136.55 340.241 129.292 344.27 124.96C346.071 126.297 347.035 128.347 348.729 131.988C353.937 122.472 342.063 119.753 338.44 106.735C331.688 112.08 324.25 113.37 316.062 112.541L318.849 91.6193C319.235 88.693 323.35 85.8128 325.301 85.6746C329.523 85.4211 332.524 92.7483 337.004 95.9741C339.662 97.8866 345.707 91.6193 348.193 93.67C349.029 94.3612 349.372 96.7345 352.03 97.3336C353.937 82.564 330.552 84.7529 335.718 69.6377C336.833 66.3888 341.119 59.1077 344.399 60.974C349.565 63.9234 349.65 71.0432 350.486 76.6884C354.323 67.034 364.676 68.0478 369.156 59.269C368.92 58.716 368.513 58.3013 368.063 58.14L368.02 58.5778ZM320.821 288.763C325.215 292.034 324.765 295.951 323.264 300.076C321.378 305.237 306.931 300.537 298.764 324.523C306.138 329.569 315.226 316.758 323.543 303.509C329.545 307.749 328.344 312.587 329.03 318.924C330.959 315.836 331.602 310.56 331.56 306.343C328.366 296.965 325.515 285.26 331.388 275.813L341.527 266.32C337.518 265.007 335.204 267.818 332.867 271.804C328.966 267.311 330.702 263.716 329.995 258.693C326.501 265.951 331.067 277.749 323.136 277.38C320.692 277.265 318.784 273.716 313.833 272.841C318.57 279.154 319.192 285.26 313.704 291.827C311.925 293.947 309.139 298.578 306.267 297.68C303.973 296.965 302.13 293.993 299.622 291.021C296.921 294.108 290.491 300.076 286.054 297.587C279.002 293.647 277.587 284.2 275.958 277.011C273.471 287.334 270.02 294.892 261.597 299.085C266.462 302.772 270.106 297.334 273.043 295.444C279.666 298.325 286.847 303.878 291.091 309.408C292.463 306.067 294.049 302.518 295.571 302.818L302.837 304.246C310.939 302.564 315.484 293.924 320.864 288.763H320.821ZM271.649 415.721C269.87 408.901 271.564 405.307 274.843 402.657L256.709 388.394C260.16 380.145 259.817 374.8 257.009 366.85C260.525 363.832 265.262 362.588 265.691 357.311C256.302 360.698 251.115 359.592 246.078 353.532C243.913 357.426 240.569 358.717 237.718 357.68C235.06 356.689 231.716 346.712 226.594 346.827C224.75 346.873 221.985 352.265 222.307 354.776L225.608 380.698C226.615 388.601 224.965 395.606 229.059 401.781C230.259 398.118 231.695 395.445 233.324 394.8C239.412 392.403 243.741 404.569 251.136 407.91C250.193 403.279 249.25 400.652 250.172 399.201C256.881 388.74 259.817 410.191 271.628 415.675L271.649 415.721ZM320.606 449.777C322.964 457.403 322.686 463.118 328.387 468.555C334.089 473.993 334.217 484.685 341.612 489.201C332.631 467.311 325.472 445.675 318.699 423.44C314.519 421.32 312.397 417.703 309.482 412.196L302.601 399.201C306.159 393.233 308.796 386.689 305.881 380.606C301.937 385.514 299.493 391.297 293.877 392.242C291.734 392.611 289.44 387.242 288.797 385.329C284.832 391.942 281.852 394.707 275.486 399.224L291.562 416.205C293.792 418.555 299.257 417.933 301.401 421.966C303.008 419.408 304.573 418.071 305.624 418.025C306.674 417.979 309.653 420.468 309.803 421.758C311.089 431.966 317.413 439.592 320.585 449.8L320.606 449.777ZM385.297 638.141C385.039 621.597 375.051 623.049 373.615 616.252C372.8 612.358 372.5 607.127 376.315 604.593C377.644 603.717 380.731 607.127 380.817 608.717C385.254 601.528 384.568 595.376 381.331 588.671L371.793 568.97C370.549 566.39 368.706 568.279 367.849 569.546C366.991 570.814 367.013 571.205 368.149 571.851C379.402 578.256 370.056 596.228 369.992 602.68L369.178 681.667L369.521 698.21C385.682 671.574 369.649 648.832 385.297 638.141ZM268.584 778.095C265.755 773.671 267.513 771.229 268.156 771.275L272.207 771.482C274.307 768.625 270.513 763.948 266.527 762.197C265.026 759.662 270.813 755.399 275.015 755.376C273.021 754.086 269.27 753.786 268.97 751.966L267.341 742.081C265.348 749.593 261.832 754.892 259.153 762.22L253.173 778.648L251.801 801.851C262.883 794.132 265.562 789.8 261.618 777.266C265.198 777.335 267.041 778.579 268.606 778.118L268.584 778.095ZM85.3171 988.948L107.331 928.142C108.981 924.225 116.14 922.888 115.283 916.736C110.782 921.206 103.901 922.013 99.8284 922.266C100.514 930.584 95.863 933.925 92.2619 939.386C86.7532 947.727 85.0598 972.312 85.2956 988.948H85.3171Z"/>
</mask>
<path d="M368.02 58.5778C361.976 56.2275 363.562 48.3243 360.604 45.7436C356.724 42.3335 359.039 55.7667 351.451 62.587L326.308 40.444C322.728 37.3104 322.878 28.3242 326.008 25.4671C329.137 22.6099 333.703 22.6099 340.948 23.0247C333.896 19.7528 331.71 0.950889 338.054 0.0522694C347.336 -0.84635 348.129 10.0754 349.308 14.845C350.144 18.186 355.438 22.0108 354.988 28.9233C356.81 23.9463 355.438 19.4763 361.204 15.8588C364.419 21.4348 361.74 25.9279 361.204 31.9187C367.87 28.4395 364.633 21.9878 364.612 18.4625L366.198 17.0109L367.484 26.4118L378.266 17.7251C380.902 15.5823 382.51 12.4486 385.232 12.5869C387.954 12.7251 391.555 14.4071 392.413 16.4809C396.078 25.421 384.611 28.3243 377.516 45.4671C376.058 48.9695 367.913 51.527 369.413 57.5409L370.206 58.5778C379.638 61.3658 373.014 71.9879 387.269 78.1631C390.055 79.3612 395.585 100.675 388.233 99.4303C383.689 98.6469 379.874 91.0202 376.594 88.3704L370.206 98.1631C366.348 96.988 363.519 92.4488 357.967 93.647C362.018 97.9557 366.112 101.228 367.12 105.859C368.256 111.089 362.297 116.389 360.882 120.398C362.747 127.357 368.042 133.209 367.291 141.504C380.216 128.025 367.377 105.928 378.244 105.559C384.482 105.352 387.74 112.841 388.426 117.472C389.498 124.707 387.29 129.315 380.902 134.338C388.833 142.034 386.861 152.126 380.474 158.094C379.938 159.177 382.231 161.827 383.26 161.988C384.804 162.218 386.304 159.845 387.461 158.9C391.727 155.398 395.478 158.924 399.315 162.656C397.214 151.735 396.121 143.647 401.244 135.675C396.55 131.781 396.143 126.804 395.521 121.504C395.092 117.771 390.419 113.785 390.334 110.26C390.205 103.163 400.537 85.9281 409.604 88.2322L409.239 74.0847C405.402 76.2275 401.415 78.1861 398.2 74.9142C395.521 72.1723 394.599 67.4948 393.356 63.0478C392.113 58.6008 387.997 55.0524 387.826 50.4671C387.569 43.8772 390.741 40.3289 395.671 36.4579L398.243 30.951C398.929 29.4533 402.809 32.4717 404.288 33.186C411.79 36.7805 402.23 51.5962 416.055 54.0847C416.334 49.822 416.87 43.5777 420.9 42.2183C423.257 42.61 423.065 50.0294 420.6 52.2874L425.422 54.5916C427.802 55.7206 426.923 58.6008 427.03 59.9372C427.287 62.8635 423.257 65.0524 421.221 62.057C420.728 60.7897 421.264 57.1722 418.971 56.1123L416.806 68.6469C419.592 70.5594 420.257 68.4856 420.835 67.4948C421.307 66.6884 423.45 67.587 424.286 69.3151L435.604 56.9879C432.56 55.0063 429.152 53.0247 428.102 50.0293C426.323 44.9371 431.296 41.0662 434.082 39.315C438.197 36.7113 446.086 36.8957 447.436 43.6929C448.25 48.4395 443.47 55.375 441.949 60.1446C447.929 61.7805 451.851 55.951 455.86 60.5824C459.139 64.3612 448.701 68.2552 441.027 78.7852C436.461 80.4902 428.981 76.6884 423.536 81.2506C428.145 84.9373 431.081 88.9695 432.582 92.9788C435.132 99.8682 422.55 111.32 423.172 111.158C421.478 111.619 418.778 110.536 414.855 108.923C416.956 117.564 411.083 121.066 403.838 128.601C410.847 127.91 413.355 129.315 416.956 133.854C420.407 134.131 424.929 128.025 424.951 123.209L435.025 125.168C435.475 119.638 439.334 112.265 443.878 112.08C449.344 111.873 451.316 119.569 450.351 123.509C448.979 129.154 445.1 129.822 439.634 131.02C444.585 132.449 448.272 131.758 450.801 136.435L437.447 136.85C438.519 146.089 443.771 150.329 453.03 151.274C442.656 154.361 447.114 166.435 438.948 166.228C434.682 161.32 434.168 155.237 432.367 150.352C429.838 154.131 426.773 157.242 424.629 156.481C415.498 153.209 417.384 146.389 413.912 137.334C410.547 146.274 414.233 153.739 406.967 159.822C410.032 162.864 411.618 165.306 411.768 167.864C411.919 170.813 410.247 173.901 407.739 177.288C415.069 179.246 422.357 184.546 423.172 194.154L412.283 207.702L406.303 205.813C404.373 205.214 403.366 209.845 402.337 211.159C399.336 215.03 394.663 212.288 392.456 209.546C390.248 206.804 391.663 203.693 391.984 196.896C389.155 203.716 386.411 209.062 380.752 208.14C374.129 207.08 366.048 200.237 370.378 193.947C374.708 187.656 376.423 182.08 372.028 173.417L362.168 217.679C367.913 214.039 371.814 217.541 376.165 217.749C379.595 217.933 388.919 217.541 387.311 224.408C386.24 229.016 381.824 237.173 378.437 241.458C368.856 253.601 354.645 255.03 352.33 266.205C359.768 268.924 364.462 274.753 366.027 279.615C368.406 287.034 365.898 293.44 361.74 301.159C368.342 302.749 372.5 305.882 375.115 310.998C379.895 320.306 372.993 337.956 359.961 339.799C364.955 348.901 361.718 357.265 354.173 362.426L339.062 372.749C343.349 374.546 345.385 377.864 348.857 383.44C350.722 376.412 351.301 370.122 357.067 364.615C363.905 369.062 365.298 379.316 359.082 386.389L352.994 404.339C346.307 412.104 344.978 418.486 345.321 429.224C345.814 444.385 344.613 459.178 348.686 473.003C352.63 464.915 347.186 456.827 348.193 449.869L353.08 416.228L360.454 396.804C361.418 394.293 363.583 391.942 364.891 390.952C366.97 389.362 371.107 391.067 373.657 391.989L386.261 380.537C388.855 382.933 391.191 385.145 394.321 385.514C395.414 379.385 398.929 376.804 402.294 376.85C415.52 376.988 410.804 415.906 401.523 440.284C402.187 443.901 404.331 449.869 400.708 453.74C393.828 461.09 391.813 469.638 387.226 479.155C386.304 481.09 382.081 485.168 386.047 486.689C387.269 487.104 390.87 483.348 392.241 483.325C393.442 483.325 394.256 483.855 396.185 485.468C397.579 482.795 400.172 482.035 401.394 482.841C403.195 484.039 404.781 485.975 406.753 489.039C409.282 486.39 409.346 481.436 415.648 478.878C413.44 494.915 400.708 494.108 404.331 500.537C405.467 502.565 408.703 504.569 409.818 500.399C410.354 498.394 410.461 495.929 411.897 494.431C413.055 493.233 416.506 495.122 417.706 495.56C418.756 493.371 417.513 491.044 417.17 489.915C416.57 487.91 421.093 485.168 421.886 486.966C425.037 493.993 419.656 500.675 418.563 506.989C417.363 513.947 413.848 516.851 408.489 516.897C402.487 516.966 400.279 510.215 401.351 502.334L392.649 508.302C394.771 509.247 396.571 511.321 396.936 513.325C397.364 515.698 396.528 518.924 395.006 521.251C384.525 537.473 393.592 548.855 383.325 557.127C383.11 565.698 383.946 577.957 387.054 588.072C389.926 580.652 393.399 573.602 398.436 566.551C393.806 552.68 399.143 538.878 408.682 529.247C412.497 536.228 407.374 540.629 406.624 544.731L401.094 574.523L412.219 562.611C413.355 561.39 414.641 558.486 415.67 558.694L422.829 560.123C420.857 556.943 420.192 554.616 421.478 551.344C422.293 549.27 425.079 545.307 428.788 550.583C427.952 547.196 432.56 534.523 437.704 537.634C447.393 543.487 440.748 560.583 431.874 565.33C429.902 566.39 428.959 570.468 425.83 569.616C423.579 568.994 421.028 567.311 419.249 564.731L411.211 578.463C409.261 581.781 400.301 584.201 401.758 589.477C403.966 590.422 409.196 591.321 409.818 593.786C412.347 603.924 395.885 605.169 391.77 614.086C388.812 620.514 393.249 627.15 392.413 633.924C391.148 644.27 382.96 653.832 387.783 666.298L404.695 656.321C405.359 655.653 405.402 652.127 405.831 651.321C406.538 650.007 409.282 649.247 410.933 650.192C412.133 650.883 412.283 655.192 411.854 657.98C415.541 661.367 418.585 656.067 420.321 653.279C422.657 649.547 420.771 646.09 420.771 641.321C422.357 639.708 426.237 643.118 425.83 645.537C427.609 642.98 427.009 639.961 427.223 638.118C427.394 636.551 430.374 636.413 432.646 637.058C441.263 629.984 443.985 618.44 441.22 605.791L460.147 598.694C463.962 597.265 466.599 605.122 464.691 609.685C462.097 615.952 455.131 616.989 452.13 621.574C447.95 627.957 446.45 635.883 439.076 639.869C443.085 642.265 446.128 639.04 448.615 638.049C458.389 657.335 423.022 653.21 425.615 666.067C426.773 671.805 436.611 674.754 441.155 672.726C440.32 670.422 441.627 666.551 443.085 666.966C446 667.772 449.665 669.869 450.244 672.219C450.823 674.57 448.786 677.749 447.35 679.915C443.299 686.09 440.255 675.514 423.686 671.482C413.29 682.726 408.082 662.519 394.556 675.63L387.526 678.279C385.061 679.201 386.625 686.367 386.047 688.971L373.207 705.514L376.551 707.127L378.609 712.381C380.495 710.445 380.131 707.496 380.817 704.224C381.846 699.224 389.476 699.708 392.756 701.92C396.936 704.708 397.664 710.56 396.978 717.289L420.428 710.215C423.815 709.201 425.701 715.123 425.079 717.98C424.372 721.321 422.079 724.224 417.041 725.284C417.599 730.1 417.684 733.763 419.978 738.74C423.322 735.261 425.594 733.21 428.016 733.141C429.967 733.095 442.013 738.533 443.192 739.892C444.757 741.69 443.513 745.607 439.698 748.026C445.164 750.307 450.93 750.445 456.61 750.492C455.838 747.634 455.667 746.298 455.838 745.584C456.181 744.27 459.504 744.339 460.618 743.994C469.942 741.068 474.808 746.713 479.331 755.215L482.868 761.851C483.746 763.51 480.981 766.92 479.331 767.404C474.165 768.948 469.535 760.422 464.348 760.538C460.983 760.607 460.618 765.86 458.089 770.399C456.76 760.63 452.173 757.22 442.956 754.639L434.554 752.289C432.432 751.69 430.074 757.68 426.065 758.625C424.544 755.491 425.615 748.302 420.943 746.667L419.335 754.04C408.832 749.316 404.266 742.289 405.552 730.537L392.027 726.62C387.161 725.215 380.302 721.874 378.309 728.948C374.129 743.74 363.39 737.312 368.213 746.367C371 744.754 374.193 744.086 376.701 744.293C379.466 744.524 384.311 762.312 383.303 765.33C380.024 775.1 367.549 775.077 366.798 780.146C366.177 784.27 369.263 787.588 373.207 788.441C385.468 791.068 392.434 798.694 401.223 806.759C407.674 812.681 415.069 818.072 411.297 829.34C408.532 837.542 396.4 825.814 390.655 808.487C386.561 810.653 382.146 811.759 379.938 810.284C376.83 808.187 375.715 804.57 375.136 799.662C370.507 805.215 367.656 804.892 361.182 801.805L361.354 806.874C361.44 809.8 353.316 808.579 351.601 820.86C351.13 824.247 344.035 823.81 342.277 820.699C337.133 811.667 355.631 805.998 365.92 788.971H356.788L350.787 782.496C347.979 779.455 341.184 783.026 337.776 776.782L333.574 790.975C332.01 796.298 339.255 804.34 336.189 810.676C335.268 812.588 330.209 811.252 329.373 809.132C328.216 806.229 327.959 802.773 330.509 798.372C323.586 796.943 319.085 792.704 316.705 785.722C314.626 791.021 311.754 794.086 307.703 794.754C304.766 795.238 301.187 790.883 299.515 788.164C297.221 784.409 299.407 780.376 303.244 777.404C296.428 776.713 293.449 774.915 290.619 769.455C290.126 778.026 285.539 780.146 279.473 781.644C268.82 784.27 275.015 800.399 262.904 798.625C260.911 798.326 259.217 802.819 257.953 804.316L238.361 827.634C247.364 825.492 252.937 828.487 260.053 831.505C272.207 836.69 283.353 842.565 288.904 855.169C291.584 850.1 295.849 845.607 300.608 846.114C305.795 846.667 306.117 853.003 303.159 856.39C300.201 859.777 297.714 858.487 291.134 857.75C295.078 863.141 300.436 867.75 306.224 869.685C311.561 871.482 333.124 855.883 319.835 872.312C324.872 876.413 330.338 871.344 335.246 869.478C338.633 871.022 344.485 877.888 349.458 875.008C349.993 874.662 348.965 871.874 348.386 871.667C347.357 871.275 348.343 868.418 348.9 869.063L352.673 873.487C357.967 875.238 364.891 875.33 367.656 883.925C364.526 884.939 361.954 882.22 358.675 880.377C359.06 884.271 357.603 893.718 354.452 894.04C344.056 893.671 339.362 882.404 333.832 873.118L320.392 897.588L309.46 886.575L315.591 871.552C311.389 874.478 307.917 876.39 303.844 876.183C297.886 875.86 295.399 871.69 292.034 866.505C275.636 841.206 240.676 834.409 253.001 847.151C263.997 847.704 272.893 852.197 278.916 862.45L289.183 874.178C290.812 876.022 290.426 879.248 289.848 881.252C288.604 885.607 281.188 883.533 281.231 888.441C281.274 895.284 295.228 893.833 295.571 909.916C295.699 915.768 287.04 925.86 282.367 922.519C278.701 919.916 279.452 915.1 279.366 913.418C279.28 911.736 282.603 909.87 285.904 909.201C278.809 904.132 272.936 898.717 267.148 891.367C268.177 904.224 266.698 912.727 266.805 913.096C268.477 918.556 278.894 918.994 271.799 924.132C268.07 919.939 264.062 919.685 257.417 921.897C259.217 918.188 262.132 914.294 256.624 911.483C256.495 918.994 247.407 926.506 241.448 922.98C235.489 919.455 237.59 905.492 245.435 902.98L251.051 913.879C255.102 911.252 253.473 906.275 253.623 904.109C257.545 903.718 258.296 907.796 260.31 911.851C264.04 902.266 263.183 892.796 256.945 884.616L250.108 899.317C243.87 890.423 249.357 882.197 255.209 876.851C253.473 857.542 231.781 851.344 237.29 845.768C238.361 844.685 241.619 844.846 242.927 841.252C232.338 840.952 224.064 844.87 214.547 847.058C227.858 851.874 238.147 860.837 236.304 876.114C230.623 871.713 228.416 868.579 227.215 858.003C219.992 868.395 210.024 857.289 204.237 858.164C178.194 862.128 159.117 882.75 142.784 901.114L166.555 890.284C172.664 887.496 180.423 892.243 187.196 894.847C187.582 905.261 180.23 910.054 170.477 914.939C176.308 917.98 181.602 912.381 185.525 916.575C189.876 921.206 196.735 929.363 196.971 935.561C197.314 943.902 186.232 942.566 181.259 942.796C176.801 943.003 173.585 946.16 170.134 943.741C167.348 941.782 164.69 938.142 162.375 933.326C159.396 940.492 156.438 952.773 148.55 955.883C141.819 958.533 130.759 935.768 140.061 921.367L141.819 915.63C142.419 913.625 140.404 910.745 138.818 911.114C131.23 915.791 126.836 925.561 122.656 933.026C110.717 954.363 99.8927 974.455 94.2554 998.833C89.3468 998.695 91.2116 1004.18 94.1268 1002.52C100.686 993.165 109.388 991.229 117.319 992.612C119.334 976.529 135.667 955.308 140.061 961.897C145.163 969.547 144.005 982.059 159.353 979.547C163.275 978.902 171.292 982.911 169.684 988.303C165.333 1002.82 155.173 1010.84 141.54 1007.87C137.404 1006.97 134.638 1001.07 128.808 1003.03C133.031 1007.22 136.911 1011.14 139.59 1017.61L160.66 1013.67C162.911 1019.69 166.662 1020.28 171.206 1022.06C176.801 1024.27 177.915 1033.95 173.307 1038.58C171.292 1040.58 166.576 1038.1 165.097 1034.8C159.246 1039.57 172.664 1040.01 174.314 1051.87C174.807 1055.42 171.528 1063.12 166.169 1063.58C160.124 1064.11 156.438 1051.25 156.416 1043.79C150.093 1058.99 166.105 1069.04 159.417 1074.99C157.852 1076.37 156.18 1074.02 154.144 1072.2C150.972 1070.19 147.542 1075.75 145.72 1078.46C135.089 1074.92 130.844 1063.44 134.081 1050.15C128.83 1054.41 125.164 1056.14 121.756 1053.42C107.802 1042.24 129.88 1012.52 123.107 1003.65C120.963 1000.84 118.884 996.805 113.611 999.363C106.966 1002.57 95.027 1003.83 90.2256 1011.11C81.8232 1031.51 73.8709 1051.28 60.3884 1068.86C59.531 1069.99 61.0315 1073.65 61.7388 1073.44C65.6185 1072.38 72.3705 1056.92 82.6592 1058.33C87.2676 1060.81 82.8521 1074.39 77.4934 1077.7C83.3022 1077.45 85.4885 1075.88 88.7895 1079.16C93.0121 1083.35 93.7195 1086.21 89.8398 1090.22C85.9601 1094.22 83.4522 1095.91 76.1216 1091.48C78.5651 1098.03 75.6286 1100.28 73.6351 1102.87C68.7909 1109.18 64.9969 1108.81 61.0743 1106.53C51.0858 1100.75 55.7157 1093.97 53.1864 1082.45C38.8894 1100.77 24.571 1118 6.86584 1133.12C16.0399 1133 26.3715 1132.75 33.6593 1126.92C40.9471 1121.09 49.2852 1111.87 59.2738 1119.73C63.475 1123.03 60.4742 1134.2 53.7437 1136.97C62.9606 1143.51 70.0126 1150.7 69.4125 1163.46C69.2839 1166.28 65.0398 1169.34 63.4536 1168.21C58.1592 1164.39 55.1369 1169.69 52.1789 1169.78C35.9528 1170.24 32.4161 1142.98 32.9734 1141.64C33.5521 1140.24 37.3675 1139.85 39.2109 1140.52L44.6339 1142.47C45.6413 1142.84 47.5705 1140.22 47.7634 1138.69C38.6536 1135.77 30.0583 1136.23 22.0845 1139.16C30.9799 1142.96 32.5232 1151.28 31.8588 1159.13C31.2372 1166.3 25.4712 1174.11 19.3409 1175.4L7.03732 1156.64L13.9822 1140.86C9.65236 1139.87 6.69436 1141.23 2.98615 1142.5C-0.593455 1136.69 -1.38654 1127.31 3.24337 1122.8L22.5347 1104.04L48.6636 1065.49C57.8377 1051.97 69.884 1038.49 61.4387 1025.4C59.0809 1028.53 53.1864 1028.79 52.1361 1025.81C50.8714 1022.2 50.3998 1018.72 48.4278 1016.94C46.4558 1015.17 40.4541 1012.61 39.7253 1015.33C38.3321 1020.58 37.7319 1023.86 34.4524 1026.04C31.3872 1028.1 26.6716 1027.57 23.7136 1023.53L16.1471 1013.26C15.2254 1011.99 14.0465 1010.91 13.9179 1009.94C13.725 1008.44 14.5609 1006.83 16.0614 1003.3C17.9047 1003.69 21.0557 1005.33 22.8133 1004.55C25.5355 1003.33 26.8645 1000.58 28.5364 998.856L27.5289 997.727C24.1637 997.45 21.2271 995.791 17.0688 992.243C12.9533 1000.05 11.8173 1007.98 5.3011 1014.09L9.39514 984.271C9.97388 980.1 3.39341 979.271 2.40741 977.381C-0.271934 972.312 -1.12932 960.215 2.00015 955.676L15.9113 935.63C24.8925 944.731 23.8636 955.722 16.7687 964.778C14.8181 967.266 16.2971 975.123 8.94501 975.492L22.2131 983.856C27.1646 986.99 29.5653 991.206 28.5578 996.598L29.6724 997.704C36.7888 996.69 42.962 1001.6 44.6125 1009.43L50.4213 993.533C42.962 996.275 36.6387 996.874 29.4581 991.022C39.3181 982.289 39.5753 968.28 45.1055 974.225C46.8417 976.091 48.3421 976.967 49.6068 980.837C51.7502 980.884 53.4436 978.787 54.8154 978.096C56.7017 977.151 56.5945 972.842 56.7445 969.662C56.8946 966.483 66.6474 966.39 67.0118 969.593C67.5905 974.824 65.3399 980.999 68.2979 985.146C70.4842 986.92 75.2213 987.819 77.5791 991.114L77.8149 949.363C77.8149 947.658 75.6714 944.893 74.5782 945.008C71.5131 945.354 70.227 962.727 59.381 960.261L51.6002 949.801C49.3067 951.229 42.7262 953.072 40.9257 950.008C33.4449 937.174 29.9082 920.561 38.2892 921.437C40.8399 921.713 44.1195 922.427 46.8417 926.367L52.3075 912.727C53.6794 909.294 55.5656 906.575 57.9449 905.86C60.8171 905.008 64.0752 905.93 66.776 907.865C68.2336 898.833 61.7174 892.22 61.503 884.04L60.6671 851.505L59.5096 850.353L57.9877 866.552C57.559 871.114 48.5564 876.667 44.5267 875.1L39.9182 869.409C39.1466 868.464 35.6742 870.008 32.3732 871.183C29.7582 851.966 12.2888 848.625 29.6081 842.358C30.4869 836.552 27.5933 832.22 26.35 826.575C27.5933 823.786 34.088 824.731 36.3386 827.312C37.2389 819.155 39.8754 812.335 43.3478 806.344C47.4418 805.561 52.1361 811.068 52.5862 815.054C53.2292 820.63 58.1807 823.487 59.8311 827.542C62.2961 833.579 60.2598 841.528 60.6028 847.888L61.9746 850.284L63.9466 826.229L64.6968 785.607C60.4099 788.257 55.6514 794.34 49.9283 792.381C41.6759 789.57 41.7402 773.533 48.8137 768.395C53.6794 764.869 60.7957 772.266 61.8246 776.39C66.0043 767.381 56.9374 751.943 48.6851 752.473C41.5901 752.934 34.581 759.04 27.2074 757.842L17.176 746.528C21.2914 742.081 24.1851 738.533 25.9856 733.717C16.8116 731.137 7.38028 720.261 7.61606 710.676C10.6598 704.869 21.0342 707.703 26.0285 710.123C25.5784 705.906 28.9436 696.229 32.5447 698.049C44.098 703.878 47.9777 717.266 51.3001 728.372C51.1501 720.1 54.8368 710.031 62.4676 710.008C64.2038 715.676 68.0835 719.754 72.6491 722.611C80.2156 727.335 73.8495 737.473 70.8272 743.049L64.5896 754.616C62.8749 760.515 68.1693 766.851 71.1058 772.681C72.0489 775.515 69.6268 781.045 73.0349 783.717L84.181 733.049C89.0467 710.929 86.7532 674.063 81.1373 678.187L75.157 682.588C64.3967 679.017 66.1544 664.639 69.4339 654.385C70.0984 652.289 66.3473 652.427 65.8972 654.823L65.0183 659.57C64.654 661.482 65.0612 665.261 63.8394 665.998C63.0035 666.505 60.0883 666.321 58.052 665.998C54.2367 667.45 52.2432 661.689 57.6019 660.883C55.3513 654.961 58.0735 650.676 59.3167 645.699C59.8526 643.556 57.5376 639.063 60.6671 637.335C62.3819 636.39 65.1684 633.648 67.1189 634.823C67.6548 635.146 79.4868 657.841 83.3022 671.206C86.5388 659.086 81.3516 649.616 80.2156 638.187C78.9938 626.021 71.8346 612.335 60.71 612.035C58.8666 627.035 43.5193 636.759 42.8334 636.09L38.8894 632.15C31.0228 624.293 28.7507 616.459 32.4589 605.606C24.5066 608.855 22.1274 617.081 15.4826 617.404C10.424 617.657 6.02989 615.03 0.799804 618.072L0.7355 581.275L11.2814 580.192L5.34397 567.519C10.767 560.722 18.9979 560.791 26.3286 564.754C25.5998 560.468 27.186 553.924 30.6799 553.026C41.0114 560.03 46.6059 574.086 42.5976 586.528C38.8036 587.542 35.5027 587.035 32.6519 589.408C38.5893 590.123 42.3189 591.159 47.6991 592.565C44.8268 583.602 43.9051 573.417 48.7922 565.514C50.2069 563.233 56.3587 565.606 59.0166 567.058C55.3298 555.145 51.1715 546.09 49.4138 534.846C38.2035 546.597 23.4135 526.39 11.6458 509.431C12.1388 504.201 21.0771 500.514 26.6501 503.072C25.2569 496.551 23.8422 492.311 24.1851 487.058C32.9519 483.325 34.7739 491.321 39.0608 495.583C44.6339 501.159 49.8854 503.855 51.5787 512.288C52.3718 496.228 46.4344 483.509 38.9108 470.744L19.7481 438.256C11.6458 440.675 22.8133 457.265 12.0102 458.509C9.03075 458.855 4.95815 457.749 0.842673 455.491L1.09989 415.491L3.95071 411.712L1.39998 408.025C0.0495875 401.274 0.135326 395.33 1.7858 389.569C4.93671 393.671 5.38684 396.873 8.96645 399.131C10.5098 385.79 8.32341 374.362 6.02989 362.634C6.02989 368.256 4.01502 369.523 0.756935 369.177C0.906978 346.251 3.90784 327.726 12.7604 339.293L26.1357 314.938C21.5915 312.334 17.3474 307.841 11.6672 310.191L1.31424 321.712L0.885543 277.242C0.842674 273.832 4.1865 271.988 6.13706 272.242C8.38771 272.541 10.3811 273.67 11.7315 276.896C17.9047 291.574 6.43715 304.2 14.6252 304.915C21.7416 305.537 20.3483 294.615 27.5289 295.537C29.4152 295.79 31.5587 297.057 33.6379 299.684L40.8614 294.016C32.9519 289.431 28.0648 287.472 20.3269 284.776C20.6913 272.68 25.707 258.97 34.9454 251.228C39.1895 252.518 39.7468 259.707 40.1755 263.394C43.1763 258.624 45.2341 255.606 49.028 255.997C51.8574 256.274 53.3364 259.984 54.7297 263.417C58.738 273.394 50.0997 280.79 47.6133 291.942C67.7834 282.38 58.2021 248.578 68.6408 244.891C70.3556 244.292 73.3565 246.942 73.5065 248.624C73.9352 253.532 69.241 258.716 73.4636 262.011C74.7069 262.979 77.0004 261.873 79.7869 259.914C78.2222 256.689 77.1719 253.025 78.1579 248.855C78.9724 245.467 90.0756 236.297 93.0121 238.97C97.7492 243.255 91.0187 256.827 85.7243 260.076C81.0515 262.956 76.4002 264.431 73.678 269.684C84.2882 272.334 90.5257 259.822 96.2488 265.905C98.2637 268.048 97.3634 271.527 96.1202 272.657C89.9255 278.256 78.0721 270.444 73.4636 278.601C79.251 280.583 85.3171 284.085 87.8464 289.684C87.5463 293.555 81.0515 296.574 77.129 295.606C72.5419 294.477 68.6194 292.933 66.2401 286.021C63.2393 290.283 60.2813 293.578 56.6374 296.528C62.189 304.799 79.8298 303.163 79.8298 315.836C79.8298 321.182 72.5848 323.233 69.0266 324.154C72.0918 331.666 73.1636 337.887 68.9195 344.131C48.9423 341.643 45.1483 330.214 44.5267 330.352L37.0031 332.058C31.1514 333.371 24.3352 333.187 22.6633 338.993L31.3658 337.15C33.2306 336.758 35.1383 340.122 36.3815 342.011C41.7402 350.122 39.7896 356.827 34.0665 362.818C33.6807 376.113 45.6199 377.426 42.2761 386.896C41.0114 390.491 38.2678 392.311 33.9165 390.56C30.5727 396.067 34.238 402.864 35.9528 408.97C37.4104 414.131 30.144 419.339 26.2 421.366L40.7113 451.689C41.6973 446.482 43.3264 444.085 44.6339 442.818C45.8128 441.666 51.0429 445.191 51.0429 447.081C51.0429 456.551 53.8294 464.454 55.0512 474.132L59.6168 509.708C61.4602 504.846 61.5888 500.837 64.6754 497.127C70.0769 501.136 72.4776 504.823 74.5139 509.592C76.6789 504.661 79.4868 505.261 82.9592 505.883L99.7641 508.97C101.565 501.735 105.166 499.385 112.711 500.192C108.938 478.947 107.824 472.426 120.556 465.583L132.023 459.408C135.774 457.38 140.061 463.855 140.019 467.058C139.826 479.431 128.251 480.03 138.861 483.855C143.019 478.878 149.107 478.233 154.466 482.657C159.031 486.413 157.424 491.966 154.316 496.021C151.593 499.569 146.106 496.021 142.977 496.505C138.711 499.685 137.596 508.44 130.844 509.293L125.85 507.634C124.821 507.288 124.221 512.795 124.907 514.132C128.722 521.505 125.872 525.445 121.82 531.781C118.82 536.459 120.77 550.03 114.318 552.98C108.681 555.56 107.523 546.344 107.009 543.026L91.426 523.302C90.2685 527.98 88.9395 532.565 85.5528 532.634C82.4662 532.703 79.4225 529.984 74.2353 526.804C74.3425 549.385 59.4024 564.5 77.3648 578.855C83.4522 583.717 77.5577 592.542 78.8652 596.781L86.7746 622.312C91.1473 636.413 95.4557 649.616 95.4343 663.74C107.481 647.242 100.879 635.146 106.988 631.62C113.611 627.818 110.374 638.786 115.733 643.279C123.385 631.966 124.714 620.192 128.765 607.542C130.244 602.934 136.203 599.27 132.688 592.196C130.566 594.454 125.25 597.358 121.992 595.652C117.448 593.279 116.097 586.044 116.848 580.952C117.426 577.127 117.362 569.846 124.971 570.722C123.921 567.934 121.992 564.132 123.771 562.519L129.28 557.565C132.366 554.8 136.889 547.703 140.897 552.104C144.906 556.505 147.135 563.003 149.428 569.362C153.673 565.445 157.681 560.537 163.725 558.394C165.719 557.68 169.363 561.989 169.298 564.039C169.234 565.975 168.463 568.763 167.584 571.275C172.835 572.98 176.458 570.606 180.745 570.169C184.346 569.8 187.089 574.869 187.132 577.45C187.218 581.436 182.159 582.68 181.002 586.228L175.622 602.888C168.098 601.643 166.212 607.219 163.725 610.814C157.917 619.178 150.372 608.44 145.442 608.233C139.418 607.98 129.644 616.067 129.708 622.335C129.773 628.602 128.058 631.62 124.8 636.321C129.237 635.399 132.281 633.533 134.681 635.86C136.589 637.726 137.361 640.445 139.011 643.371C140.726 638.464 142.912 635.099 145.785 634.155C149.428 632.98 152.644 636.021 153.994 638.671C155.709 642.012 154.466 646.482 152.451 648.763C149.986 651.551 145.056 650.123 142.977 647.473C140.34 651.897 143.234 654.017 143.512 656.183C143.92 659.408 148.25 660.63 149.236 658.579C152.001 652.795 156.223 649.639 163.147 648.51C170.67 647.265 180.552 658.325 179.673 667.68C179.394 670.63 172.492 674.547 175.129 679.385C176.908 682.634 178.301 685.814 177.058 688.648C175.45 692.266 172.964 694.938 169.298 693.51C166.705 692.496 165.269 688.971 160.189 685.514C159.138 693.533 157.617 700.561 151.1 703.994L139.44 692.012C134.896 687.358 139.504 678.878 139.504 674.547C134.681 670.791 131.059 668.348 130.93 662.611C130.823 658.118 133.352 653.786 135.303 650.883C132.173 646.182 124.178 646.874 120.856 648.763C127.286 656.551 129.773 666.805 123.857 673.694C119.656 678.602 115.197 682.035 110.01 678.971C106.109 676.666 106.216 671.252 104.308 665.975C104.308 676.298 102.744 682.934 99.9999 692.289C97.8778 699.547 100.814 709.8 94.6841 715.676C101.329 724.616 98.1136 708.832 106.88 707.427C110.117 706.897 113.354 708.441 114.104 711.413C114.94 714.777 113.611 717.634 112.325 722.15C119.591 717.749 128.122 718.21 131.337 726.137C132.774 729.662 130.244 734.224 128.401 735.422C125.764 737.127 123.064 737.588 118.948 737.98C121.799 745.1 116.569 753.279 110.932 753.602C104.48 753.971 98.6066 749.524 96.3131 741.989C92.8192 747.15 92.7549 753.256 92.4334 760.491C92.2834 763.717 87.0747 771.091 88.618 773.856C92.4548 778.694 96.5917 780.376 95.0913 786.943C94.2768 790.538 92.9693 795.515 87.8035 796.459C86.2816 796.736 83.9881 793.994 82.4234 792.358C77.3862 805.146 73.8495 816.068 73.4208 829.731C80.58 825.906 83.538 820.008 82.0161 810.469C92.6049 818.003 99.6569 802.22 104.737 813.533C108.209 821.275 99.121 826.575 96.3131 836.713C92.2619 832.519 90.2042 827.565 87.6749 822.704C80.087 826.575 93.5694 835.353 85.66 843.694C82.8092 846.69 79.251 848.326 73.6994 848.303L74.321 875.837C77.7506 871.874 80.1727 869.017 83.3451 868.579C86.5174 868.142 89.6683 870.584 92.0476 873.303L103.794 854.962L110.117 848.718C101.908 847.243 97.9207 838.925 101.265 832.081C104.887 824.685 114.618 818.994 121.392 825.215C124.414 831.367 117.812 844.846 112.432 848.764C115.261 852.519 116.698 854.985 116.762 858.349C116.805 861.321 114.833 863.556 111.81 865.768L125.164 866.69C130.33 877.22 127.072 890.883 115.99 895.423L122.335 908.257C130.566 894.593 140.019 882.911 150.093 872.773C146.706 856.459 158.71 841.298 151.786 837.75C146.363 834.962 136.825 833.556 135.281 825.676C134.317 820.768 135.646 815.791 130.652 811.459C127.929 809.109 129.387 802.243 133.095 801.644C139.654 800.584 141.112 793.464 142.676 788.579C149.75 786.114 154.037 795.054 154.873 800.791C155.795 807.22 155.816 813.257 151.4 817.427C155.559 821.528 157.595 819.478 157.338 816.068C157.166 810.284 162.589 808.095 165.697 809.869C169.106 811.805 171.635 817.289 168.741 821.022C164.883 825.999 164.604 830.192 163.082 836.229L154.894 868.602L174.529 852.865C182.181 846.736 192.148 841.068 193.37 829.386C193.991 823.441 193.863 818.648 198.3 814.04C191.741 813.856 191.998 808.487 189.897 806.068C185.353 801.413 175.836 796.943 175.043 787.611C174.636 782.796 186.596 778.441 189.104 783.28L196.456 797.404C199.972 795.146 201.043 791.897 200.079 787.012C199.543 784.293 196.692 782.197 192.727 779.57C195.556 775.699 197.764 774.362 198.021 769.616C195.084 771.021 193.284 770.653 192.255 769.616C191.226 768.579 190.84 765.445 193.541 763.925C192.984 758.648 199.586 759.777 197.485 764.869C198.321 768.579 200.979 766.482 201.065 765.031C201.108 764.293 202.201 761.621 203.058 761.137C206.081 759.478 208.481 763.418 209.767 765.169C211.696 767.842 209.617 772.266 209.746 774.593C210.089 780.584 216.283 781.321 220.399 783.372C227.451 786.874 230.859 803.464 224.086 808.787C218.363 813.28 216.176 816.091 211.654 821.759L195.663 841.805C206.059 835.814 215.426 833.349 225.693 829.363L239.669 819.063C238.811 810.307 241.662 803.879 243.42 794.939L233.753 796.92C231.909 797.289 228.115 793.326 228.265 790.468C228.501 786.091 233.817 782.22 236.797 783.925C239.583 785.515 241.919 788.187 244.192 792.842C250.043 777.404 249.765 761.252 254.566 754.547C257.46 750.491 259.496 746.09 256.667 741.759C255.359 746.275 254.309 749.132 252.465 751.137C248.328 748.556 248.007 742.68 250.45 740.192C251.929 738.694 255.809 738.441 258.874 739.339C260.118 736.92 260.246 734.386 260.225 730.491C263.933 732.289 265.605 734.754 267.62 737.565L275.508 716.828C278.723 715.814 282.645 720.537 283.331 723.325C284.532 728.095 282.024 745.63 274.479 750.607C279.666 751.482 283.331 752.358 285.346 755.077C287.768 758.372 287.425 762.289 288.797 767.657C289.912 761.367 295.656 756.482 298.807 750.998C294.97 746.667 290.233 741.021 291.948 734.27C292.934 730.353 295.999 725.192 301.68 724.708C305.752 724.362 311.046 727.657 314.283 732.911L322.021 725.284C328.452 729.455 329.973 735.607 331.71 742.289C335.289 732.703 325.665 723.717 329.588 719.201C330.574 718.072 331.817 717.104 335.782 715.261L322.471 681.759C316.598 672.519 308.946 665.745 308.389 653.602L289.397 664.017L296.407 669.339C297.5 670.169 300.072 668.994 301.872 665.952C304.337 669.892 300.629 673.118 297.457 673.164C294.285 673.21 292.12 671.021 289.033 669.339C286.954 670.169 284.039 673.21 281.852 671.344C279.387 669.247 277.48 667.934 275.701 665.33C272.014 659.892 271.414 653.855 276.022 650.007C280.352 646.413 285.796 647.934 289.89 652.173L295.785 648.003C297.028 647.127 299.686 650.053 301.444 651.182C302.558 650.86 304.873 646.689 306.181 647.634L310.575 650.722C316.341 651.321 318.077 659.846 321.014 661.897C325.579 665.077 330.488 664.593 332.245 670.491C333.639 675.192 330.424 678.349 329.716 682.957C328.516 690.791 339.083 711.805 338.054 711.828C338.762 711.828 340.112 710.399 341.355 708.579C331.645 698.579 344.656 685.399 341.098 681.851L335.889 676.666C332.503 666.39 333.939 654.639 338.526 645.745C331.688 631.321 312.568 627.565 324.443 618.187C302.13 615.422 286.439 601.805 284.51 612.726C284.146 614.731 285.303 616.666 288.733 621.183C284.124 623.095 278.337 625.123 273.857 625.906C267.705 624.178 260.182 619.247 258.274 613.141C257.267 609.892 263.461 605.146 265.883 606.182C271.435 608.556 274.457 611.92 278.873 615.537C279.13 609.155 281.96 604.892 285.175 604.224C289.976 603.21 293.191 603.763 298.314 603.832C297.35 600.699 296.771 598.233 297.521 596.781C298.893 594.178 302.022 593.325 304.123 595.606L319.642 612.588C321.828 611.574 325.172 609.662 327.058 610.537C328.644 611.275 329.523 614.777 334.282 615.629C334.689 612.703 331.152 611.528 330.981 606.39C341.677 608.671 344.442 615.768 347.914 624.339C348.922 626.828 353.98 629.823 353.595 632.381C353.209 634.938 351.151 637.703 349.693 640.768C358.482 650.722 358.889 663.855 359.232 677.703C365.191 653.003 351.773 618.418 357.517 597.818C359.296 591.436 362.661 586.113 360.046 578.487L346.114 587.818C344.656 577.657 345.878 569.892 348.15 560.768C344.635 561.897 341.655 559.086 339.876 558.487L332.61 566.09C330.681 568.118 325.451 564.662 322.728 565.514C317.455 567.173 316.255 566.758 314.347 562.519C312.611 558.625 315.505 557.864 317.456 555.169C321.7 549.316 323.393 544.155 330.424 541.136C332.481 540.261 332.846 537.403 331.774 537.104C322.235 534.477 314.005 538.763 306.845 525.353C307.638 523.095 310.575 521.09 313.64 519.938C308.924 515.169 309.739 510.675 312.526 506.897C319.428 497.588 326.737 505.491 329.566 504.754C330.574 504.5 331.474 502.611 330.681 501.344C328.987 498.602 319.085 503.694 309.353 492.841C311.432 501.643 308.089 508.187 306.588 515.307C304.616 524.662 301.251 527.841 293.899 532.288C286.547 536.735 278.637 542.45 270.149 538.118C273.879 529.039 279.495 523.717 281.252 516.344C277.458 516.897 275.658 521.044 274.072 520.768C272.957 520.583 271.156 517.957 270.921 515.33C271.928 511.021 267.127 511.528 268.52 515.445C269.034 518.417 266.591 518.97 265.691 518.786C265.069 518.671 264.104 517.68 264.79 516.643C265.198 516.044 265.669 514.201 264.362 513.463C259.089 517.887 252.508 520.537 247.107 520.053C243.849 524.039 246.292 527.38 249.807 524.039C256.967 528.579 264.49 527.404 272.936 525.099C271.542 540.837 257.052 524.685 247.064 534.616C243.999 534.316 240.848 529.454 240.569 526.666C240.29 523.878 245.156 519.546 245.178 516.943C245.328 507.818 247.707 498.049 255.38 493.21C256.731 494.846 259.217 497.749 259.903 496.712L263.183 491.92C268.52 488.878 274.35 485.721 276.001 479.293C279.473 482.542 281.595 484.454 285.946 483.74C280.759 475.03 265.755 474.685 268.884 469.638L272.936 463.095L255.616 470.468C257.653 477.035 261.296 481.62 261.939 488.947C256.538 484.869 251.929 477.565 251.779 470.537C251.651 464.477 260.118 464.523 262.668 461.85L274.136 449.869C280.759 453.279 287.275 454.984 294.285 450.514C283.953 448.855 278.187 437.196 280.995 427.15C272.057 425.307 269.506 429.938 265.926 435.537C256.495 427.473 244.727 439.108 246.099 426.827C246.271 425.26 246.121 423.417 249.143 420.353C236.282 417.542 220.849 421.205 214.397 434.454C218.341 435.721 221.792 436.436 222.392 438.164L224.772 445.03C226.765 436.251 232.702 427.288 243.248 428.671C245.456 428.947 245.778 434.777 244.792 436.528C243.163 439.408 232.145 441.067 232.017 448.44C231.888 455.814 244.084 454.085 246.356 460.952C247.75 465.168 243.206 469.546 248.864 477.219C247.557 482.542 241.319 488.095 235.832 491.851C239.219 497.265 242.177 501.712 239.84 507.196C233.174 522.841 220.142 512.772 213.583 532.173C203.144 527.035 204.194 513.717 213.711 500.721C207.409 503.187 203.273 502.288 200.829 497.703C198.578 493.463 201.729 488.164 206.381 485.56C210.539 483.233 216.455 486.943 221.063 488.509C226.079 482.726 224.021 470.629 217.055 468.578C212.661 467.288 209.446 467.242 207.86 462.795C206.874 459.984 208.717 456.551 207.752 449.8C205.802 457.012 202.737 460.491 196.906 464.846L185.267 473.556C178.644 467.795 176.736 461.735 175.365 452.772C168.956 459.224 163.49 458.509 159.374 455.03C154.616 451.021 153.673 443.97 157.809 438.832L163.918 431.228C156.888 432.196 154.037 428.993 149.921 425.03C143.898 419.224 141.54 411.343 146.62 403.532C150.972 403.786 154.444 404.454 158.41 401.459C152.451 395.606 150.65 386.251 154.916 381.712C159.181 377.173 165.697 377.795 173.693 380.952C169.448 368.878 163.833 357.91 164.368 344.177C164.476 341.458 169.62 337.541 166.898 332.726C164.99 329.362 167.391 325.283 170.07 323.878C176.822 320.283 183.102 336.827 201.451 334.546L211.825 345.514C217.055 339.408 226.658 332.518 226.272 324.638C225.307 319.569 219.82 314.223 221.149 308.071C222.671 301.044 238.318 291.458 245.928 292.703C249.293 293.256 251.222 297.587 257.181 300.468C256.667 296.09 252.873 292.772 250.343 289.408L243.849 290.698C239.69 291.527 231.245 276.735 235.875 268.279C245.006 251.597 252.658 262.196 256.838 258.509C258.038 257.449 260.653 255.767 258.617 253.486C251.522 254.131 243.891 250.491 242.863 245.836C241.298 238.67 243.055 232.126 248.629 228.232C247.857 224.914 247.643 221.85 245.885 219.938C236.475 235.421 244.384 247.656 236.196 254.338C234.332 255.859 230.216 253.97 227.365 255.721C222.95 258.855 219.113 267.311 212.64 266.965C206.981 266.643 205.18 257.726 206.381 251.274C199.007 257.564 189.661 258.394 183.295 250.721C181.431 248.463 184.131 242.587 186.125 241.758C193.948 238.463 192.212 230.283 194.742 225.076C198.921 216.504 210.689 221.136 217.462 223.417C213.604 213.071 211.825 206.043 218.32 201.182C224.814 196.32 230.923 195.168 237.74 203.302C239.776 206.09 241.684 203.716 242.37 199.753C238.168 196.942 233.517 193.325 230.28 187.956C241.384 179.984 225.2 184.592 221.642 181.136C218.92 178.463 220.613 169.454 216.283 170.836C214.033 171.55 216.541 173.348 215.598 177.195C211.761 177.38 207.902 174.246 206.059 171.942C203.273 168.486 202.972 162.403 206.145 159.569C211.053 155.214 214.311 151.066 222.585 152.795C222.564 139.477 209.274 151.642 203.315 139.96C195.92 142.334 183.703 138.232 183.124 127.034C182.91 122.633 191.505 120.214 195.878 119.661C190.883 115.191 188.59 101.896 195.299 100.053C201.451 102.103 208.61 110.79 211.761 116.665L213.69 134.269L218.277 116.896C222.8 109.315 227.387 103.67 229.209 92.8405C238.79 98.8313 240.183 108.163 241.276 118.347C242.991 115.582 247.878 111.711 250.729 113.993C254.845 117.288 253.666 124.039 253.666 129.615C256.238 127.564 258.446 124.868 260.739 125.191C266.784 126.043 269.292 138.255 261.489 152.195C265.133 151.458 267.105 147.818 269.227 148.14C270.728 148.371 273.664 151.297 274.2 153.301C277.801 167.149 269.592 177.495 257.288 181.113C262.947 182.91 268.177 180.606 271.156 185.122C276.044 192.518 263.097 202.725 271.071 203.693C279.044 204.661 278.38 213.302 285.218 220.56C283.696 228.762 277.523 237.08 280.052 247.15C282.56 241.274 285.646 233.348 292.377 231.02C296.771 229.523 300.779 236.55 301.615 240.951C306.181 238.693 305.645 235.421 306.009 231.942C313.426 228.647 321.635 232.403 322.943 241.527C323.436 244.938 325.494 252.219 329.159 252.841C333.746 253.601 331.624 246.919 331.903 244.062L334.518 217.426C327.873 220.997 323.757 216.965 319.642 212.403L309.075 219.5C303.373 216.366 300.844 210.214 300.629 204.361L299.515 203.186L295.656 209.292C294.113 211.735 292.313 212.219 291.069 212.61C289.826 213.002 286.096 211.366 286.204 209.546C286.739 200.191 281.874 195.03 278.809 187.149C275.143 177.702 283.224 167.61 291.134 162.08C297.95 172.679 308.174 177.91 308.796 181.666C309.803 187.864 299.236 191.942 300.608 202.034L301.529 202.933C307.917 199.661 311.968 194.984 309.482 186.343L328.237 175.145C330.231 176.159 331.967 179.96 333.853 182.541C335.739 172.818 340.176 163.854 347.421 156.159L360.196 168.993C364.783 165.698 368.213 164.407 371.643 159.361C363.862 161.896 362.233 157.841 357.238 153.463L341.934 140.076C337.883 136.55 340.241 129.292 344.27 124.96C346.071 126.297 347.035 128.347 348.729 131.988C353.937 122.472 342.063 119.753 338.44 106.735C331.688 112.08 324.25 113.37 316.062 112.541L318.849 91.6193C319.235 88.693 323.35 85.8128 325.301 85.6746C329.523 85.4211 332.524 92.7483 337.004 95.9741C339.662 97.8866 345.707 91.6193 348.193 93.67C349.029 94.3612 349.372 96.7345 352.03 97.3336C353.937 82.564 330.552 84.7529 335.718 69.6377C336.833 66.3888 341.119 59.1077 344.399 60.974C349.565 63.9234 349.65 71.0432 350.486 76.6884C354.323 67.034 364.676 68.0478 369.156 59.269C368.92 58.716 368.513 58.3013 368.063 58.14L368.02 58.5778ZM320.821 288.763C325.215 292.034 324.765 295.951 323.264 300.076C321.378 305.237 306.931 300.537 298.764 324.523C306.138 329.569 315.226 316.758 323.543 303.509C329.545 307.749 328.344 312.587 329.03 318.924C330.959 315.836 331.602 310.56 331.56 306.343C328.366 296.965 325.515 285.26 331.388 275.813L341.527 266.32C337.518 265.007 335.204 267.818 332.867 271.804C328.966 267.311 330.702 263.716 329.995 258.693C326.501 265.951 331.067 277.749 323.136 277.38C320.692 277.265 318.784 273.716 313.833 272.841C318.57 279.154 319.192 285.26 313.704 291.827C311.925 293.947 309.139 298.578 306.267 297.68C303.973 296.965 302.13 293.993 299.622 291.021C296.921 294.108 290.491 300.076 286.054 297.587C279.002 293.647 277.587 284.2 275.958 277.011C273.471 287.334 270.02 294.892 261.597 299.085C266.462 302.772 270.106 297.334 273.043 295.444C279.666 298.325 286.847 303.878 291.091 309.408C292.463 306.067 294.049 302.518 295.571 302.818L302.837 304.246C310.939 302.564 315.484 293.924 320.864 288.763H320.821ZM271.649 415.721C269.87 408.901 271.564 405.307 274.843 402.657L256.709 388.394C260.16 380.145 259.817 374.8 257.009 366.85C260.525 363.832 265.262 362.588 265.691 357.311C256.302 360.698 251.115 359.592 246.078 353.532C243.913 357.426 240.569 358.717 237.718 357.68C235.06 356.689 231.716 346.712 226.594 346.827C224.75 346.873 221.985 352.265 222.307 354.776L225.608 380.698C226.615 388.601 224.965 395.606 229.059 401.781C230.259 398.118 231.695 395.445 233.324 394.8C239.412 392.403 243.741 404.569 251.136 407.91C250.193 403.279 249.25 400.652 250.172 399.201C256.881 388.74 259.817 410.191 271.628 415.675L271.649 415.721ZM320.606 449.777C322.964 457.403 322.686 463.118 328.387 468.555C334.089 473.993 334.217 484.685 341.612 489.201C332.631 467.311 325.472 445.675 318.699 423.44C314.519 421.32 312.397 417.703 309.482 412.196L302.601 399.201C306.159 393.233 308.796 386.689 305.881 380.606C301.937 385.514 299.493 391.297 293.877 392.242C291.734 392.611 289.44 387.242 288.797 385.329C284.832 391.942 281.852 394.707 275.486 399.224L291.562 416.205C293.792 418.555 299.257 417.933 301.401 421.966C303.008 419.408 304.573 418.071 305.624 418.025C306.674 417.979 309.653 420.468 309.803 421.758C311.089 431.966 317.413 439.592 320.585 449.8L320.606 449.777ZM385.297 638.141C385.039 621.597 375.051 623.049 373.615 616.252C372.8 612.358 372.5 607.127 376.315 604.593C377.644 603.717 380.731 607.127 380.817 608.717C385.254 601.528 384.568 595.376 381.331 588.671L371.793 568.97C370.549 566.39 368.706 568.279 367.849 569.546C366.991 570.814 367.013 571.205 368.149 571.851C379.402 578.256 370.056 596.228 369.992 602.68L369.178 681.667L369.521 698.21C385.682 671.574 369.649 648.832 385.297 638.141ZM268.584 778.095C265.755 773.671 267.513 771.229 268.156 771.275L272.207 771.482C274.307 768.625 270.513 763.948 266.527 762.197C265.026 759.662 270.813 755.399 275.015 755.376C273.021 754.086 269.27 753.786 268.97 751.966L267.341 742.081C265.348 749.593 261.832 754.892 259.153 762.22L253.173 778.648L251.801 801.851C262.883 794.132 265.562 789.8 261.618 777.266C265.198 777.335 267.041 778.579 268.606 778.118L268.584 778.095ZM85.3171 988.948L107.331 928.142C108.981 924.225 116.14 922.888 115.283 916.736C110.782 921.206 103.901 922.013 99.8284 922.266C100.514 930.584 95.863 933.925 92.2619 939.386C86.7532 947.727 85.0598 972.312 85.2956 988.948H85.3171Z" stroke="var(--stroke-0, #F3EEE1)" stroke-width="3" mask="url(#path-1-inside-1_0_77)"/>
</g>
</svg>
