<svg preserveAspectRatio="none" width="100%" height="100%" overflow="visible" style="display: block;" viewBox="0 0 577 1175.4" fill="none" xmlns="http://www.w3.org/2000/svg">
<g id="Vector">
<mask id="path-1-inside-1_0_68" fill="white">
<path d="M439.61 58.5778C432.39 56.2275 434.285 48.3243 430.751 45.7436C426.117 42.3335 428.882 55.7667 419.818 62.587L389.784 40.444C385.508 37.3104 385.687 28.3242 389.426 25.4671C393.164 22.6099 398.618 22.6099 407.272 23.0247C398.848 19.7528 396.236 0.950889 403.815 0.0522694C414.902 -0.84635 415.849 10.0754 417.258 14.845C418.256 18.186 424.58 22.0108 424.043 28.9233C426.219 23.9463 424.58 19.4763 431.468 15.8588C435.309 21.4348 432.108 25.9279 431.468 31.9187C439.431 28.4395 435.565 21.9878 435.539 18.4625L437.434 17.0109L438.97 26.4118L451.849 17.7251C454.999 15.5823 456.919 12.4486 460.171 12.5869C463.422 12.7251 467.724 14.4071 468.748 16.4809C473.126 25.421 459.428 28.3243 450.953 45.4671C449.212 48.9695 439.482 51.527 441.275 57.5409L442.222 58.5778C453.488 61.3658 445.576 71.9879 462.603 78.1631C465.932 79.3612 472.538 100.675 463.755 99.4303C458.327 98.6469 453.769 91.0202 449.852 88.3704L442.222 98.1631C437.613 96.988 434.233 92.4488 427.602 93.647C432.441 97.9557 437.331 101.228 438.535 105.859C439.892 111.089 432.774 116.389 431.084 120.398C433.312 127.357 439.636 133.209 438.74 141.504C454.179 128.025 438.842 105.928 451.824 105.559C459.274 105.352 463.166 112.841 463.986 117.472C465.266 124.707 462.629 129.315 454.998 134.338C464.472 142.034 462.117 152.126 454.486 158.094C453.846 159.177 456.586 161.827 457.815 161.988C459.659 162.218 461.451 159.845 462.833 158.9C467.929 155.398 472.41 158.924 476.993 162.656C474.483 151.735 473.178 143.647 479.297 135.675C473.69 131.781 473.203 126.804 472.461 121.504C471.949 117.771 466.367 113.785 466.264 110.26C466.111 103.163 478.452 85.9281 489.283 88.2322L488.848 74.0847C484.264 76.2275 479.502 78.1861 475.661 74.9142C472.461 72.1723 471.36 67.4948 469.875 63.0478C468.39 58.6008 463.474 55.0524 463.269 50.4671C462.961 43.8772 466.751 40.3289 472.64 36.4579L475.713 30.951C476.532 29.4533 481.166 32.4717 482.933 33.186C491.894 36.7805 480.475 51.5962 496.99 54.0847C497.323 49.822 497.963 43.5777 502.776 42.2183C505.593 42.61 505.362 50.0294 502.418 52.2874L508.179 54.5916C511.021 55.7206 509.971 58.6008 510.099 59.9372C510.406 62.8635 505.593 65.0524 503.16 62.057C502.571 60.7897 503.212 57.1722 500.472 56.1123L497.886 68.6469C501.214 70.5594 502.008 68.4856 502.7 67.4948C503.263 66.6884 505.823 67.587 506.822 69.3151L520.341 56.9879C516.705 55.0063 512.634 53.0247 511.379 50.0293C509.254 44.9371 515.194 41.0662 518.523 39.315C523.439 36.7113 532.862 36.8957 534.475 43.6929C535.448 48.4395 529.738 55.375 527.92 60.1446C535.064 61.7805 539.749 55.951 544.537 60.5824C548.455 64.3612 535.985 68.2552 526.819 78.7852C521.365 80.4902 512.429 76.6884 505.926 81.2506C511.431 84.9373 514.938 88.9695 516.731 92.9788C519.778 99.8682 504.748 111.32 505.49 111.158C503.468 111.619 500.242 110.536 495.556 108.923C498.065 117.564 491.05 121.066 482.395 128.601C490.768 127.91 493.764 129.315 498.065 133.854C502.187 134.131 507.59 128.025 507.616 123.209L519.65 125.168C520.187 119.638 524.796 112.265 530.224 112.08C536.753 111.873 539.109 119.569 537.957 123.509C536.318 129.154 531.684 129.822 525.155 131.02C531.069 132.449 535.473 131.758 538.495 136.435L522.543 136.85C523.823 146.089 530.096 150.329 541.157 151.274C528.765 154.361 534.091 166.435 524.335 166.228C519.24 161.32 518.625 155.237 516.475 150.352C513.453 154.131 509.792 157.242 507.232 156.481C496.324 153.209 498.577 146.389 494.429 137.334C490.409 146.274 494.813 153.739 486.133 159.822C489.795 162.864 491.69 165.306 491.869 167.864C492.048 170.813 490.051 173.901 487.055 177.288C495.812 179.246 504.517 184.546 505.49 194.154L492.483 207.702L485.34 205.813C483.035 205.214 481.832 209.845 480.603 211.159C477.018 215.03 471.437 212.288 468.799 209.546C466.162 206.804 467.852 203.693 468.236 196.896C464.856 203.716 461.579 209.062 454.819 208.14C446.908 207.08 437.255 200.237 442.427 193.947C447.599 187.656 449.647 182.08 444.398 173.417L432.62 217.679C439.482 214.039 444.142 217.541 449.34 217.749C453.437 217.933 464.575 217.541 462.654 224.408C461.374 229.016 456.1 237.173 452.054 241.458C440.609 253.601 423.633 255.03 420.868 266.205C429.753 268.924 435.36 274.753 437.229 279.615C440.071 287.034 437.075 293.44 432.108 301.159C439.994 302.749 444.962 305.882 448.085 310.998C453.795 320.306 445.55 337.956 429.983 339.799C435.949 348.901 432.083 357.265 423.07 362.426L405.019 372.749C410.14 374.546 412.572 377.864 416.72 383.44C418.947 376.412 419.639 370.122 426.526 364.615C434.694 369.062 436.359 379.316 428.933 386.389L421.662 404.339C413.673 412.104 412.086 418.486 412.495 429.224C413.084 444.385 411.65 459.178 416.515 473.003C421.226 464.915 414.723 456.827 415.926 449.869L421.764 416.228L430.572 396.804C431.724 394.293 434.31 391.942 435.872 390.952C438.356 389.362 443.297 391.067 446.344 391.989L461.4 380.537C464.498 382.933 467.289 385.145 471.027 385.514C472.333 379.385 476.532 376.804 480.552 376.85C496.35 376.988 490.717 415.906 479.63 440.284C480.424 443.901 482.984 449.869 478.657 453.74C470.438 461.09 468.031 469.638 462.552 479.155C461.451 481.09 456.407 485.168 461.144 486.689C462.603 487.104 466.905 483.348 468.543 483.325C469.977 483.325 470.95 483.855 473.254 485.468C474.919 482.795 478.017 482.035 479.476 482.841C481.627 484.039 483.522 485.975 485.877 489.039C488.899 486.39 488.976 481.436 496.503 478.878C493.866 494.915 478.657 494.108 482.984 500.537C484.341 502.565 488.207 504.569 489.539 500.399C490.179 498.394 490.307 495.929 492.023 494.431C493.405 493.233 497.527 495.122 498.961 495.56C500.216 493.371 498.731 491.044 498.321 489.915C497.604 487.91 503.007 485.168 503.954 486.966C507.718 493.993 501.291 500.675 499.985 506.989C498.552 513.947 494.353 516.851 487.951 516.897C480.782 516.966 478.145 510.215 479.425 502.334L469.03 508.302C471.565 509.247 473.715 511.321 474.151 513.325C474.663 515.698 473.664 518.924 471.846 521.251C459.326 537.473 470.156 548.855 457.892 557.127C457.636 565.698 458.634 577.957 462.347 588.072C465.778 580.652 469.926 573.602 475.943 566.551C470.412 552.68 476.788 538.878 488.182 529.247C492.739 536.228 486.62 540.629 485.724 544.731L479.118 574.523L492.407 562.611C493.764 561.39 495.3 558.486 496.529 558.694L505.081 560.123C502.725 556.943 501.931 554.616 503.468 551.344C504.441 549.27 507.769 545.307 512.199 550.583C511.2 547.196 516.705 534.523 522.85 537.634C534.423 543.487 526.486 560.583 515.886 565.33C513.53 566.39 512.404 570.468 508.665 569.616C505.977 568.994 502.93 567.311 500.805 564.731L491.203 578.463C488.873 581.781 478.171 584.201 479.912 589.477C482.549 590.422 488.796 591.321 489.539 593.786C492.56 603.924 472.896 605.169 467.98 614.086C464.447 620.514 469.747 627.15 468.748 633.924C467.237 644.27 457.457 653.832 463.218 666.298L483.419 656.321C484.213 655.653 484.264 652.127 484.776 651.321C485.621 650.007 488.899 649.247 490.87 650.192C492.304 650.883 492.483 655.192 491.971 657.98C496.375 661.367 500.011 656.067 502.085 653.279C504.876 649.547 502.623 646.09 502.623 641.321C504.517 639.708 509.152 643.118 508.665 645.537C510.791 642.98 510.074 639.961 510.33 638.118C510.534 636.551 514.093 636.413 516.808 637.058C527.101 629.984 530.352 618.44 527.049 605.791L549.658 598.694C554.216 597.265 557.365 605.122 555.086 609.685C551.988 615.952 543.667 616.989 540.082 621.574C535.089 627.957 533.297 635.883 524.489 639.869C529.277 642.265 532.913 639.04 535.883 638.049C547.558 657.335 505.311 653.21 508.409 666.067C509.792 671.805 521.544 674.754 526.973 672.726C525.974 670.422 527.536 666.551 529.277 666.966C532.759 667.772 537.137 669.869 537.829 672.219C538.52 674.57 536.088 677.749 534.372 679.915C529.533 686.09 525.897 675.514 506.105 671.482C493.687 682.726 487.465 662.519 471.309 675.63L462.91 678.279C459.966 679.201 461.835 686.367 461.144 688.971L445.807 705.514L449.801 707.127L452.259 712.381C454.512 710.445 454.077 707.496 454.896 704.224C456.125 699.224 465.24 699.708 469.158 701.92C474.151 704.708 475.021 710.56 474.202 717.289L502.213 710.215C506.259 709.201 508.512 715.123 507.769 717.98C506.924 721.321 504.185 724.224 498.168 725.284C498.833 730.1 498.936 733.763 501.675 738.74C505.67 735.261 508.384 733.21 511.277 733.141C513.607 733.095 527.997 738.533 529.405 739.892C531.274 741.69 529.789 745.607 525.231 748.026C531.761 750.307 538.648 750.445 545.433 750.492C544.512 747.634 544.307 746.298 544.512 745.584C544.921 744.27 548.89 744.339 550.221 743.994C561.359 741.068 567.171 746.713 572.574 755.215L576.799 761.851C577.849 763.51 574.546 766.92 572.574 767.404C566.403 768.948 560.873 760.422 554.677 760.538C550.657 760.607 550.221 765.86 547.2 770.399C545.613 760.63 540.133 757.22 529.123 754.639L519.086 752.289C516.552 751.69 513.735 757.68 508.947 758.625C507.129 755.491 508.409 748.302 502.828 746.667L500.907 754.04C488.361 749.316 482.907 742.289 484.444 730.537L468.287 726.62C462.475 725.215 454.282 721.874 451.9 728.948C446.908 743.74 434.08 737.312 439.841 746.367C443.169 744.754 446.984 744.086 449.98 744.293C453.283 744.524 459.07 762.312 457.866 765.33C453.949 775.1 439.047 775.077 438.151 780.146C437.408 784.27 441.095 787.588 445.807 788.441C460.452 791.068 468.774 798.694 479.272 806.759C486.978 812.681 495.812 818.072 491.306 829.34C488.003 837.542 473.51 825.814 466.649 808.487C461.758 810.653 456.484 811.759 453.846 810.284C450.134 808.187 448.802 804.57 448.111 799.662C442.58 805.215 439.175 804.892 431.442 801.805L431.647 806.874C431.75 809.8 422.046 808.579 419.997 820.86C419.434 824.247 410.959 823.81 408.859 820.699C402.714 811.667 424.811 805.998 437.101 788.971H426.194L419.024 782.496C415.67 779.455 407.554 783.026 403.482 776.782L398.464 790.975C396.595 796.298 405.249 804.34 401.588 810.676C400.487 812.588 394.444 811.252 393.445 809.132C392.063 806.229 391.756 802.773 394.803 798.372C386.532 796.943 381.155 792.704 378.313 785.722C375.83 791.021 372.399 794.086 367.559 794.754C364.052 795.238 359.776 790.883 357.779 788.164C355.039 784.409 357.651 780.376 362.234 777.404C354.091 776.713 350.532 774.915 347.153 769.455C346.564 778.026 341.084 780.146 333.838 781.644C321.113 784.27 328.513 800.399 314.046 798.625C311.665 798.326 309.642 802.819 308.132 804.316L284.729 827.634C295.483 825.492 302.14 828.487 310.641 831.505C325.159 836.69 338.473 842.565 345.104 855.169C348.305 850.1 353.4 845.607 359.084 846.114C365.281 846.667 365.665 853.003 362.131 856.39C358.598 859.777 355.628 858.487 347.767 857.75C352.478 863.141 358.88 867.75 365.793 869.685C372.168 871.482 397.926 855.883 382.052 872.312C388.069 876.413 394.598 871.344 400.461 869.478C404.507 871.022 411.497 877.888 417.437 875.008C418.077 874.662 416.848 871.874 416.157 871.667C414.928 871.275 416.105 868.418 416.771 869.063L421.277 873.487C427.602 875.238 435.872 875.33 439.175 883.925C435.437 884.939 432.364 882.22 428.447 880.377C428.908 884.271 427.167 893.718 423.403 894.04C410.985 893.671 405.377 882.404 398.771 873.118L382.717 897.588L369.659 886.575L376.982 871.552C371.963 874.478 367.815 876.39 362.951 876.183C355.833 875.86 352.862 871.69 348.843 866.505C329.255 841.206 287.494 834.409 302.217 847.151C315.352 847.704 325.978 852.197 333.173 862.45L345.437 874.178C347.383 876.022 346.922 879.248 346.231 881.252C344.746 885.607 335.887 883.533 335.938 888.441C335.989 895.284 352.658 893.833 353.067 909.916C353.221 915.768 342.877 925.86 337.295 922.519C332.917 919.916 333.813 915.1 333.71 913.418C333.608 911.736 337.577 909.87 341.52 909.201C333.045 904.132 326.029 898.717 319.116 891.367C320.345 904.224 318.578 912.727 318.706 913.096C320.703 918.556 333.147 918.994 324.672 924.132C320.217 919.939 315.429 919.685 307.491 921.897C309.642 918.188 313.124 914.294 306.544 911.483C306.39 918.994 295.534 926.506 288.416 922.98C281.298 919.455 283.807 905.492 293.179 902.98L299.887 913.879C304.726 911.252 302.78 906.275 302.959 904.109C307.645 903.718 308.541 907.796 310.948 911.851C315.403 902.266 314.379 892.796 306.928 884.616L298.76 899.317C291.309 890.423 297.864 882.197 304.854 876.851C302.78 857.542 276.869 851.344 283.449 845.768C284.729 844.685 288.621 844.846 290.183 841.252C277.534 840.952 267.651 844.87 256.283 847.058C272.183 851.874 284.473 860.837 282.271 876.114C275.486 871.713 272.849 868.579 271.415 858.003C262.786 868.395 250.88 857.289 243.967 858.164C212.858 862.128 190.07 882.75 170.559 901.114L198.954 890.284C206.252 887.496 215.52 892.243 223.611 894.847C224.072 905.261 215.29 910.054 203.64 914.939C210.604 917.98 216.929 912.381 221.614 916.575C226.812 921.206 235.005 929.363 235.287 935.561C235.697 943.902 222.459 942.566 216.519 942.796C211.193 943.003 207.353 946.16 203.23 943.741C199.902 941.782 196.727 938.142 193.961 933.326C190.402 940.492 186.869 952.773 177.447 955.883C169.407 958.533 156.195 935.768 167.307 921.367L169.407 915.63C170.124 913.625 167.717 910.745 165.822 911.114C156.758 915.791 151.509 925.561 146.516 933.026C132.255 954.363 119.325 974.455 112.591 998.833C106.727 998.695 108.955 1004.18 112.437 1002.52C120.272 993.165 130.667 991.229 140.141 992.612C142.548 976.529 162.058 955.308 167.307 961.897C173.401 969.547 172.019 982.059 190.351 979.547C195.037 978.902 204.613 982.911 202.693 988.303C197.495 1002.82 185.358 1010.84 169.074 1007.87C164.132 1006.97 160.829 1001.07 153.865 1003.03C158.909 1007.22 163.543 1011.14 166.744 1017.61L191.913 1013.67C194.602 1019.69 199.082 1020.28 204.511 1022.06C211.193 1024.27 212.525 1033.95 207.02 1038.58C204.613 1040.58 198.98 1038.1 197.213 1034.8C190.223 1039.57 206.252 1040.01 208.223 1051.87C208.812 1055.42 204.895 1063.12 198.493 1063.58C191.273 1064.11 186.869 1051.25 186.843 1043.79C179.29 1058.99 198.417 1069.04 190.428 1074.99C188.559 1076.37 186.562 1074.02 184.129 1072.2C180.34 1070.19 176.243 1075.75 174.067 1078.46C161.367 1074.92 156.297 1063.44 160.164 1050.15C153.891 1054.41 149.512 1056.14 145.441 1053.42C128.773 1042.24 155.145 1012.52 147.054 1003.65C144.494 1000.84 142.01 996.805 135.711 999.363C127.774 1002.57 113.512 1003.83 107.777 1011.11C97.7401 1031.51 88.2408 1051.28 72.1357 1068.86C71.1115 1069.99 72.9038 1073.65 73.7487 1073.44C78.3831 1072.38 86.4485 1056.92 98.7387 1058.33C104.244 1060.81 98.9691 1074.39 92.568 1077.7C99.5068 1077.45 102.118 1075.88 106.062 1079.16C111.106 1083.35 111.951 1086.21 107.316 1090.22C102.682 1094.22 99.686 1095.91 90.9293 1091.48C93.8482 1098.03 90.3404 1100.28 87.9592 1102.87C82.1726 1109.18 77.6406 1108.81 72.955 1106.53C61.0234 1100.75 66.5539 1093.97 63.5326 1082.45C46.4544 1100.77 29.3507 1118 8.20144 1133.12C19.1601 1133 31.5015 1132.75 40.207 1126.92C48.9125 1121.09 58.8726 1111.87 70.8042 1119.73C75.8227 1123.03 72.2381 1134.2 64.1983 1136.97C75.2082 1143.51 83.632 1150.7 82.9151 1163.46C82.7615 1166.28 77.6918 1169.34 75.7971 1168.21C69.4728 1164.39 65.8626 1169.69 62.3292 1169.78C42.9466 1170.24 38.7219 1142.98 39.3876 1141.64C40.0789 1140.24 44.6365 1139.85 46.8385 1140.52L53.3164 1142.47C54.5198 1142.84 56.8242 1140.22 57.0547 1138.69C46.1728 1135.77 35.9054 1136.23 26.3806 1139.16C37.0064 1142.96 38.8499 1151.28 38.0562 1159.13C37.3137 1166.3 30.4261 1174.11 23.1032 1175.4L8.40627 1156.64L16.7021 1140.86C11.53 1139.87 7.9966 1141.23 3.56704 1142.5C-0.708899 1136.69 -1.65626 1127.31 3.87429 1122.8L26.9183 1104.04L58.1301 1065.49C69.0887 1051.97 83.4784 1038.49 73.3903 1025.4C70.5738 1028.53 63.5326 1028.79 62.278 1025.81C60.7673 1022.2 60.204 1018.72 57.8484 1016.94C55.4928 1015.17 48.3236 1012.61 47.453 1015.33C45.7887 1020.58 45.0718 1023.86 41.1543 1026.04C37.4929 1028.1 31.8599 1027.57 28.3265 1023.53L19.2882 1013.26C18.1872 1011.99 16.7789 1010.91 16.6253 1009.94C16.3949 1008.44 17.3934 1006.83 19.1857 1003.3C21.3877 1003.69 25.1516 1005.33 27.2511 1004.55C30.5029 1003.33 32.0904 1000.58 34.0875 998.856L32.8841 997.727C28.8642 997.45 25.3564 995.791 20.3891 992.243C15.4731 1000.05 14.1161 1007.98 6.33232 1014.09L11.2228 984.271C11.9141 980.1 4.05352 979.271 2.87572 977.381C-0.324833 972.312 -1.34901 960.215 2.38924 955.676L19.0065 935.63C29.7348 944.731 28.5057 955.722 20.0307 964.778C17.7007 967.266 19.4674 975.123 10.6851 975.492L26.5342 983.856C32.4488 986.99 35.3165 991.206 34.1131 996.598L35.4445 997.704C43.9452 996.69 51.3193 1001.6 53.2908 1009.43L60.2296 993.533C51.3193 996.275 43.766 996.874 35.1885 991.022C46.9665 982.289 47.2738 968.28 53.8797 974.225C55.9537 976.091 57.746 976.967 59.2566 980.837C61.8171 980.884 63.8398 978.787 65.4785 978.096C67.7317 977.151 67.6037 972.842 67.7829 969.662C67.9621 966.483 79.6122 966.39 80.0474 969.593C80.7388 974.824 78.0503 980.999 81.5837 985.146C84.1953 986.92 89.8539 987.819 92.6704 991.114L92.9521 949.363C92.9521 947.658 90.3916 944.893 89.0858 945.008C85.4244 945.354 83.8881 962.727 70.9323 960.261L61.6379 949.801C58.8982 951.229 51.0376 953.072 48.8869 950.008C39.9509 937.174 35.7262 920.561 45.7375 921.437C48.7844 921.713 52.7019 922.427 55.9537 926.367L62.4828 912.727C64.1215 909.294 66.3747 906.575 69.2168 905.86C72.6478 905.008 76.5396 905.93 79.7658 907.865C81.5069 898.833 73.7231 892.22 73.4671 884.04L72.4685 851.505L71.0859 850.353L69.268 866.552C68.7559 871.114 58.002 876.667 53.1884 875.1L47.6835 869.409C46.7617 868.464 42.6138 870.008 38.6707 871.183C35.547 851.966 14.6794 848.625 35.3677 842.358C36.4175 836.552 32.9609 832.22 31.4759 826.575C32.9609 823.786 40.719 824.731 43.4075 827.312C44.4829 819.155 47.6322 812.335 51.7802 806.344C56.6706 805.561 62.278 811.068 62.8157 815.054C63.5838 820.63 69.4984 823.487 71.47 827.542C74.4145 833.579 71.982 841.528 72.3917 847.888L74.0304 850.284L76.386 826.229L77.2822 785.607C72.1613 788.257 66.4771 794.34 59.6407 792.381C49.783 789.57 49.8598 773.533 58.3093 768.395C64.1215 764.869 72.6222 772.266 73.8512 776.39C78.844 767.381 68.0134 751.943 58.1557 752.473C49.6806 752.934 41.3079 759.04 32.5 757.842L20.5172 746.528C25.4332 742.081 28.8898 738.533 31.0406 733.717C20.0819 731.137 8.81594 720.261 9.09759 710.676C12.7334 704.869 25.126 707.703 31.0918 710.123C30.5541 705.906 34.574 696.229 38.8755 698.049C52.6763 703.878 57.3107 717.266 61.2794 728.372C61.1002 720.1 65.5041 710.031 74.6193 710.008C76.6933 715.676 81.3277 719.754 86.7814 722.611C95.8198 727.335 88.2152 737.473 84.605 743.049L77.1541 754.616C75.1058 760.515 81.4301 766.851 84.9379 772.681C86.0645 775.515 83.1712 781.045 87.2423 783.717L100.557 733.049C106.369 710.929 103.629 674.063 96.9207 678.187L89.7771 682.588C76.9237 679.017 79.0233 664.639 82.9407 654.385C83.7345 652.289 79.2537 652.427 78.716 654.823L77.6662 659.57C77.2309 661.482 77.7174 665.261 76.258 665.998C75.2594 666.505 71.7772 666.321 69.3448 665.998C64.7872 667.45 62.406 661.689 68.8071 660.883C66.1186 654.961 69.3704 650.676 70.8554 645.699C71.4956 643.556 68.7303 639.063 72.4685 637.335C74.5169 636.39 77.8455 633.648 80.1755 634.823C80.8156 635.146 94.9492 657.841 99.5068 671.206C103.373 659.086 97.1768 649.616 95.8198 638.187C94.3603 626.021 85.8084 612.335 72.5197 612.035C70.3178 627.035 51.985 636.759 51.1656 636.09L46.4544 632.15C37.0576 624.293 34.3435 616.459 38.7731 605.606C29.2739 608.855 26.4318 617.081 18.4944 617.404C12.4518 617.657 7.20287 615.03 0.955388 618.072L0.878575 581.275L13.4759 580.192L6.38352 567.519C12.8614 560.722 22.6935 560.791 31.4502 564.754C30.5797 560.468 32.4744 553.924 36.6479 553.026C48.9893 560.03 55.672 574.086 50.884 586.528C46.352 587.542 42.4089 587.035 39.0036 589.408C46.096 590.123 50.5511 591.159 56.9779 592.565C53.5469 583.602 52.4459 573.417 58.2837 565.514C59.9736 563.233 67.322 565.606 70.497 567.058C66.093 555.145 61.1258 546.09 59.0262 534.846C45.6351 546.597 27.968 526.39 13.9112 509.431C14.5001 504.201 25.1772 500.514 31.8343 503.072C30.17 496.551 28.4801 492.311 28.8898 487.058C39.362 483.325 41.5384 491.321 46.6593 495.583C53.3164 501.159 59.5895 503.855 61.6123 512.288C62.5596 496.228 55.4672 483.509 46.48 470.744L23.5897 438.256C13.9112 440.675 27.2511 457.265 14.3465 458.509C10.7875 458.855 5.92264 457.749 1.0066 455.491L1.31385 415.491L4.71924 411.712L1.67231 408.025C0.0592337 401.274 0.161651 395.33 2.13319 389.569C5.89704 393.671 6.43473 396.873 10.7107 399.131C12.5542 385.79 9.94254 374.362 7.20287 362.634C7.20287 368.256 4.79605 369.523 0.904179 369.177C1.08341 346.251 4.66803 327.726 15.2427 339.293L31.2198 314.938C25.7917 312.334 20.722 307.841 13.9368 310.191L1.56989 321.712L1.05781 277.242C1.0066 273.832 5.00089 271.988 7.33089 272.242C10.0194 272.541 12.4006 273.67 14.0136 276.896C21.3877 291.574 7.68935 304.2 17.4702 304.915C25.9709 305.537 24.3066 294.615 32.8841 295.537C35.1373 295.79 37.6977 297.057 40.1814 299.684L48.81 294.016C39.362 289.431 33.5242 287.472 24.281 284.776C24.7163 272.68 30.7077 258.97 41.7432 251.228C46.8129 252.518 47.4786 259.707 47.9907 263.394C51.5753 258.624 54.0333 255.606 58.5653 255.997C61.9451 256.274 63.7118 259.984 65.3761 263.417C70.1641 273.394 59.8455 280.79 56.8754 291.942C80.9692 282.38 69.524 248.578 81.9934 244.891C84.0417 244.292 87.6263 246.942 87.8056 248.624C88.3177 253.532 82.7103 258.716 87.7544 262.011C89.2394 262.979 91.9791 261.873 95.3077 259.914C93.4385 256.689 92.1839 253.025 93.3617 248.855C94.3347 245.467 107.598 236.297 111.106 238.97C116.764 243.255 108.724 256.827 102.4 260.076C96.8183 262.956 91.2622 264.431 88.0104 269.684C100.685 272.334 108.135 259.822 114.972 265.905C117.379 268.048 116.303 271.527 114.818 272.657C107.419 278.256 93.2593 270.444 87.7544 278.601C94.6676 280.583 101.914 284.085 104.935 289.684C104.576 293.555 96.8183 296.574 92.1327 295.606C86.6534 294.477 81.9678 292.933 79.1257 286.021C75.5411 290.283 72.0076 293.578 67.6549 296.528C74.2864 304.799 95.3589 303.163 95.3589 315.836C95.3589 321.182 86.7046 323.233 82.4542 324.154C86.1157 331.666 87.3959 337.887 82.3262 344.131C58.4629 341.643 53.9309 330.214 53.1884 330.352L44.2012 332.058C37.2112 333.371 29.069 333.187 27.0719 338.993L37.4673 337.15C39.6949 336.758 41.9737 340.122 43.4587 342.011C49.8598 350.122 47.5298 356.827 40.6934 362.818C40.2326 376.113 54.4942 377.426 50.4999 386.896C48.9893 390.491 45.7119 392.311 40.5142 390.56C36.5199 396.067 40.8983 402.864 42.9466 408.97C44.6877 414.131 36.0078 419.339 31.2966 421.366L48.6308 451.689C49.8086 446.482 51.7546 444.085 53.3164 442.818C54.7247 441.666 60.9721 445.191 60.9721 447.081C60.9721 456.551 64.3007 464.454 65.7602 474.132L71.2139 509.708C73.4159 504.846 73.5695 500.837 77.2566 497.127C83.7089 501.136 86.5766 504.823 89.009 509.592C91.595 504.661 94.9492 505.261 99.0971 505.883L119.171 508.97C121.322 501.735 125.623 499.385 134.636 500.192C130.13 478.947 128.798 472.426 144.007 465.583L157.706 459.408C162.186 457.38 167.307 463.855 167.256 467.058C167.026 479.431 153.199 480.03 165.873 483.855C170.841 478.878 178.112 478.233 184.513 482.657C189.967 486.413 188.047 491.966 184.334 496.021C181.082 499.569 174.528 496.021 170.79 496.505C165.694 499.685 164.363 508.44 156.297 509.293L150.332 507.634C149.103 507.288 148.386 512.795 149.205 514.132C153.763 521.505 150.357 525.445 145.518 531.781C141.933 536.459 144.263 550.03 136.556 552.98C129.822 555.56 128.44 546.344 127.825 543.026L109.211 523.302C107.828 527.98 106.241 532.565 102.195 532.634C98.5082 532.703 94.8724 529.984 88.6761 526.804C88.8041 549.385 70.9579 564.5 92.4144 578.855C99.686 583.717 92.6448 592.542 94.2067 596.781L103.655 622.312C108.878 636.413 114.024 649.616 113.999 663.74C128.389 647.242 120.502 635.146 127.8 631.62C135.711 627.818 131.845 638.786 138.246 643.279C147.387 631.966 148.975 620.192 153.814 607.542C155.58 602.934 162.698 599.27 158.499 592.196C155.965 594.454 149.615 597.358 145.723 595.652C140.295 593.279 138.682 586.044 139.578 580.952C140.269 577.127 140.192 569.846 149.282 570.722C148.027 567.934 145.723 564.132 147.848 562.519L154.428 557.565C158.115 554.8 163.518 547.703 168.306 552.104C173.094 556.505 175.757 563.003 178.496 569.362C183.566 565.445 188.354 560.537 195.575 558.394C197.956 557.68 202.309 561.989 202.232 564.039C202.155 565.975 201.233 568.763 200.183 571.275C206.456 572.98 210.784 570.606 215.904 570.169C220.206 569.8 223.483 574.869 223.535 577.45C223.637 581.436 217.594 582.68 216.212 586.228L209.785 602.888C200.798 601.643 198.545 607.219 195.575 610.814C188.636 619.178 179.623 608.44 173.734 608.233C166.539 607.98 154.864 616.067 154.94 622.335C155.017 628.602 152.969 631.62 149.077 636.321C154.377 635.399 158.013 633.533 160.881 635.86C163.159 637.726 164.081 640.445 166.053 643.371C168.101 638.464 170.713 635.099 174.144 634.155C178.496 632.98 182.337 636.021 183.95 638.671C185.999 642.012 184.513 646.482 182.107 648.763C179.162 651.551 173.273 650.123 170.79 647.473C167.64 651.897 171.097 654.017 171.43 656.183C171.916 659.408 177.088 660.63 178.266 658.579C181.569 652.795 186.613 649.639 194.883 648.51C203.87 647.265 215.674 658.325 214.624 667.68C214.291 670.63 206.047 674.547 209.196 679.385C211.321 682.634 212.986 685.814 211.501 688.648C209.58 692.266 206.61 694.938 202.232 693.51C199.134 692.496 197.418 688.971 191.35 685.514C190.095 693.533 188.277 700.561 180.494 703.994L166.565 692.012C161.137 687.358 166.642 678.878 166.642 674.547C160.881 670.791 156.553 668.348 156.4 662.611C156.272 658.118 159.293 653.786 161.623 650.883C157.885 646.182 148.334 646.874 144.366 648.763C152.047 656.551 155.017 666.805 147.95 673.694C142.932 678.602 137.606 682.035 131.41 678.971C126.75 676.666 126.878 671.252 124.599 665.975C124.599 676.298 122.73 682.934 119.453 692.289C116.918 699.547 120.426 709.8 113.103 715.676C121.04 724.616 117.199 708.832 127.672 707.427C131.538 706.897 135.404 708.441 136.3 711.413C137.299 714.777 135.711 717.634 134.175 722.15C142.855 717.749 153.046 718.21 156.886 726.137C158.602 729.662 155.58 734.224 153.378 735.422C150.229 737.127 147.003 737.588 142.087 737.98C145.492 745.1 139.245 753.279 132.511 753.602C124.804 753.971 117.788 749.524 115.049 741.989C110.875 747.15 110.798 753.256 110.414 760.491C110.235 763.717 104.013 771.091 105.857 773.856C110.44 778.694 115.382 780.376 113.589 786.943C112.616 790.538 111.054 795.515 104.884 796.459C103.066 796.736 100.326 793.994 98.457 792.358C92.44 805.146 88.2152 816.068 87.7031 829.731C96.255 825.906 99.7884 820.008 97.9705 810.469C110.619 818.003 119.043 802.22 125.111 813.533C129.259 821.275 118.403 826.575 115.049 836.713C110.209 832.519 107.751 827.565 104.73 822.704C95.6661 826.575 111.771 835.353 102.323 843.694C98.9179 846.69 94.6676 848.326 88.036 848.303L88.7785 875.837C92.8752 871.874 95.7685 869.017 99.558 868.579C103.347 868.142 107.111 870.584 109.953 873.303L123.985 854.962L131.538 848.718C121.731 847.243 116.969 838.925 120.963 832.081C125.29 824.685 136.915 818.994 145.006 825.215C148.616 831.367 140.73 844.846 134.303 848.764C137.683 852.519 139.398 854.985 139.475 858.349C139.526 861.321 137.171 863.556 133.561 865.768L149.512 866.69C155.683 877.22 151.791 890.883 138.554 895.423L146.132 908.257C155.965 894.593 167.256 882.911 179.29 872.773C175.245 856.459 189.583 841.298 181.313 837.75C174.835 834.962 163.441 833.556 161.597 825.676C160.445 820.768 162.033 815.791 156.067 811.459C152.815 809.109 154.556 802.243 158.986 801.644C166.821 800.584 168.562 793.464 170.431 788.579C178.881 786.114 184.001 795.054 185 800.791C186.101 807.22 186.127 813.257 180.852 817.427C185.819 821.528 188.252 819.478 187.944 816.068C187.74 810.284 194.218 808.095 197.93 809.869C202.001 811.805 205.023 817.289 201.566 821.022C196.957 825.999 196.624 830.192 194.806 836.229L185.026 868.602L208.479 852.865C217.62 846.736 229.526 841.068 230.985 829.386C231.728 823.441 231.574 818.648 236.874 814.04C229.04 813.856 229.347 808.487 226.838 806.068C221.409 801.413 210.041 796.943 209.094 787.611C208.607 782.796 222.894 778.441 225.89 783.28L234.673 797.404C238.872 795.146 240.152 791.897 239 787.012C238.36 784.293 234.954 782.197 230.217 779.57C233.597 775.699 236.234 774.362 236.542 769.616C233.034 771.021 230.883 770.653 229.654 769.616C228.425 768.579 227.964 765.445 231.19 763.925C230.525 758.648 238.411 759.777 235.902 764.869C236.9 768.579 240.075 766.482 240.177 765.031C240.229 764.293 241.535 761.621 242.559 761.137C246.169 759.478 249.037 763.418 250.573 765.169C252.877 767.842 250.394 772.266 250.547 774.593C250.957 780.584 258.357 781.321 263.273 783.372C271.697 786.874 275.768 803.464 267.677 808.787C260.84 813.28 258.229 816.091 252.826 821.759L233.725 841.805C246.143 835.814 257.332 833.349 269.597 829.363L286.291 819.063C285.267 810.307 288.672 803.879 290.772 794.939L279.224 796.92C277.022 797.289 272.49 793.326 272.669 790.468C272.951 786.091 279.301 782.22 282.86 783.925C286.189 785.515 288.979 788.187 291.694 792.842C298.684 777.404 298.351 761.252 304.086 754.547C307.543 750.491 309.975 746.09 306.595 741.759C305.033 746.275 303.779 749.132 301.577 751.137C296.635 748.556 296.251 742.68 299.17 740.192C300.937 738.694 305.571 738.441 309.233 739.339C310.718 736.92 310.871 734.386 310.846 730.491C315.275 732.289 317.272 734.754 319.679 737.565L329.102 716.828C332.942 715.814 337.628 720.537 338.447 723.325C339.881 728.095 336.885 745.63 327.873 750.607C334.069 751.482 338.447 752.358 340.854 755.077C343.747 758.372 343.338 762.289 344.976 767.657C346.308 761.367 353.17 756.482 356.934 750.998C352.35 746.667 346.692 741.021 348.74 734.27C349.918 730.353 353.579 725.192 360.365 724.708C365.229 724.362 371.554 727.657 375.42 732.911L384.663 725.284C392.344 729.455 394.162 735.607 396.236 742.289C400.512 732.703 389.016 723.717 393.702 719.201C394.879 718.072 396.364 717.104 401.101 715.261L385.201 681.759C378.185 672.519 369.044 665.745 368.379 653.602L345.693 664.017L354.066 669.339C355.372 670.169 358.444 668.994 360.595 665.952C363.54 669.892 359.11 673.118 355.321 673.164C351.531 673.21 348.945 671.021 345.258 669.339C342.774 670.169 339.292 673.21 336.681 671.344C333.736 669.247 331.457 667.934 329.332 665.33C324.928 659.892 324.211 653.855 329.716 650.007C334.888 646.413 341.392 647.934 346.282 652.173L353.323 648.003C354.808 647.127 357.983 650.053 360.083 651.182C361.414 650.86 364.18 646.689 365.741 647.634L370.99 650.722C377.878 651.321 379.952 659.846 383.46 661.897C388.913 665.077 394.777 664.593 396.876 670.491C398.541 675.192 394.7 678.349 393.855 682.957C392.421 690.791 405.044 711.805 403.815 711.828C404.66 711.828 406.273 710.399 407.758 708.579C396.16 698.579 411.701 685.399 407.451 681.851L401.229 676.666C397.184 666.39 398.899 654.639 404.379 645.745C396.211 631.321 373.372 627.565 387.556 618.187C360.902 615.422 342.16 601.805 339.855 612.726C339.42 614.731 340.803 616.666 344.9 621.183C339.395 623.095 332.481 625.123 327.13 625.906C319.782 624.178 310.794 619.247 308.516 613.141C307.312 609.892 314.712 605.146 317.605 606.182C324.237 608.556 327.847 611.92 333.121 615.537C333.429 609.155 336.809 604.892 340.649 604.224C346.385 603.21 350.225 603.763 356.345 603.832C355.192 600.699 354.501 598.233 355.397 596.781C357.036 594.178 360.774 593.325 363.283 595.606L381.821 612.588C384.433 611.574 388.427 609.662 390.68 610.537C392.575 611.275 393.625 614.777 399.309 615.629C399.795 612.703 395.571 611.528 395.366 606.39C408.142 608.671 411.445 615.768 415.593 624.339C416.797 626.828 422.839 629.823 422.378 632.381C421.918 634.938 419.46 637.703 417.718 640.768C428.216 650.722 428.703 663.855 429.112 677.703C436.23 653.003 420.202 618.418 427.064 597.818C429.189 591.436 433.209 586.113 430.085 578.487L413.443 587.818C411.701 577.657 413.161 569.892 415.875 560.768C411.676 561.897 408.117 559.086 405.992 558.487L397.312 566.09C395.007 568.118 388.76 564.662 385.508 565.514C379.209 567.173 377.776 566.758 375.497 562.519C373.423 558.625 376.879 557.864 379.209 555.169C384.279 549.316 386.302 544.155 394.7 541.136C397.158 540.261 397.593 537.403 396.313 537.104C384.919 534.477 375.087 538.763 366.535 525.353C367.483 523.095 370.99 521.09 374.652 519.938C369.019 515.169 369.992 510.675 373.32 506.897C381.565 497.588 390.296 505.491 393.676 504.754C394.879 504.5 395.955 502.611 395.007 501.344C392.985 498.602 381.155 503.694 369.531 492.841C372.015 501.643 368.02 508.187 366.228 515.307C363.872 524.662 359.852 527.841 351.07 532.288C342.288 536.735 332.84 542.45 322.7 538.118C327.156 529.039 333.864 523.717 335.964 516.344C331.432 516.897 329.281 521.044 327.386 520.768C326.055 520.583 323.904 517.957 323.622 515.33C324.826 511.021 319.09 511.528 320.755 515.445C321.369 518.417 318.45 518.97 317.375 518.786C316.632 518.671 315.48 517.68 316.299 516.643C316.786 516.044 317.349 514.201 315.787 513.463C309.489 517.887 301.628 520.537 295.176 520.053C291.284 524.039 294.203 527.38 298.402 524.039C306.954 528.579 315.941 527.404 326.029 525.099C324.365 540.837 307.056 524.685 295.125 534.616C291.463 534.316 287.699 529.454 287.366 526.666C287.034 523.878 292.846 519.546 292.871 516.943C293.051 507.818 295.893 498.049 305.059 493.21C306.672 494.846 309.642 497.749 310.462 496.712L314.379 491.92C320.755 488.878 327.719 485.721 329.69 479.293C333.838 482.542 336.373 484.454 341.571 483.74C335.375 475.03 317.452 474.685 321.19 469.638L326.029 463.095L305.341 470.468C307.773 477.035 312.126 481.62 312.894 488.947C306.442 484.869 300.937 477.565 300.758 470.537C300.604 464.477 310.718 464.523 313.765 461.85L327.463 449.869C335.375 453.279 343.158 454.984 351.531 450.514C339.19 448.855 332.302 437.196 335.656 427.15C324.979 425.307 321.932 429.938 317.656 435.537C306.39 427.473 292.334 439.108 293.972 426.827C294.177 425.26 293.998 423.417 297.608 420.353C282.246 417.542 263.81 421.205 256.103 434.454C260.815 435.721 264.937 436.436 265.654 438.164L268.496 445.03C270.877 436.251 277.97 427.288 290.567 428.671C293.204 428.947 293.588 434.777 292.41 436.528C290.465 439.408 277.304 441.067 277.15 448.44C276.997 455.814 291.566 454.085 294.28 460.952C295.944 465.168 290.516 469.546 297.275 477.219C295.713 482.542 288.263 488.095 281.708 491.851C285.753 497.265 289.287 501.712 286.496 507.196C278.533 522.841 262.965 512.772 255.13 532.173C242.661 527.035 243.916 513.717 255.284 500.721C247.756 503.187 242.815 502.288 239.896 497.703C237.207 493.463 240.971 488.164 246.527 485.56C251.495 483.233 258.561 486.943 264.066 488.509C270.058 482.726 267.6 470.629 259.278 468.578C254.029 467.288 250.189 467.242 248.294 462.795C247.116 459.984 249.318 456.551 248.166 449.8C245.836 457.012 242.175 460.491 235.21 464.846L221.307 473.556C213.395 467.795 211.116 461.735 209.478 452.772C201.822 459.224 195.293 458.509 190.377 455.03C184.693 451.021 183.566 443.97 188.508 438.832L195.805 431.228C187.407 432.196 184.001 428.993 179.085 425.03C171.89 419.224 169.074 411.343 175.142 403.532C180.34 403.786 184.488 404.454 189.225 401.459C182.107 395.606 179.956 386.251 185.051 381.712C190.146 377.173 197.93 377.795 207.481 380.952C202.411 368.878 195.703 357.91 196.343 344.177C196.471 341.458 202.616 337.541 199.364 332.726C197.085 329.362 199.953 325.283 203.153 323.878C211.219 320.283 218.721 336.827 240.638 334.546L253.031 345.514C259.278 339.408 270.749 332.518 270.288 324.638C269.136 319.569 262.581 314.223 264.169 308.071C265.987 301.044 284.678 291.458 293.768 292.703C297.787 293.256 300.092 297.587 307.21 300.468C306.595 296.09 302.063 292.772 299.042 289.408L291.284 290.698C286.317 291.527 276.228 276.735 281.759 268.279C292.667 251.597 301.807 262.196 306.8 258.509C308.234 257.449 311.358 255.767 308.925 253.486C300.45 254.131 291.335 250.491 290.106 245.836C288.237 238.67 290.337 232.126 296.994 228.232C296.072 224.914 295.816 221.85 293.716 219.938C282.476 235.421 291.924 247.656 282.143 254.338C279.916 255.859 274.999 253.97 271.594 255.721C266.32 258.855 261.736 267.311 254.004 266.965C247.244 266.643 245.094 257.726 246.527 251.274C237.719 257.564 226.556 258.394 218.951 250.721C216.724 248.463 219.95 242.587 222.331 241.758C231.677 238.463 229.603 230.283 232.624 225.076C237.617 216.504 251.674 221.136 259.765 223.417C255.156 213.071 253.031 206.043 260.789 201.182C268.547 196.32 275.844 195.168 283.987 203.302C286.419 206.09 288.698 203.716 289.517 199.753C284.499 196.942 278.943 193.325 275.076 187.956C288.339 179.984 269.008 184.592 264.758 181.136C261.506 178.463 263.529 169.454 258.357 170.836C255.668 171.55 258.664 173.348 257.537 177.195C252.954 177.38 248.345 174.246 246.143 171.942C242.815 168.486 242.456 162.403 246.246 159.569C252.109 155.214 256.001 151.066 265.884 152.795C265.859 139.477 249.984 151.642 242.866 139.96C234.032 142.334 219.438 138.232 218.747 127.034C218.491 122.633 228.758 120.214 233.981 119.661C228.015 115.191 225.276 101.896 233.29 100.053C240.638 102.103 249.19 110.79 252.954 116.665L255.258 134.269L260.738 116.896C266.14 109.315 271.62 103.67 273.796 92.8405C285.241 98.8313 286.906 108.163 288.211 118.347C290.26 115.582 296.098 111.711 299.503 113.993C304.419 117.288 303.011 124.039 303.011 129.615C306.083 127.564 308.72 124.868 311.46 125.191C318.681 126.043 321.676 138.255 312.356 152.195C316.709 151.458 319.065 147.818 321.6 148.14C323.392 148.371 326.9 151.297 327.54 153.301C331.841 167.149 322.035 177.495 307.338 181.113C314.097 182.91 320.345 180.606 323.904 185.122C329.742 192.518 314.277 202.725 323.801 203.693C333.326 204.661 332.533 213.302 340.7 220.56C338.882 228.762 331.508 237.08 334.53 247.15C337.525 241.274 341.212 233.348 349.252 231.02C354.501 229.523 359.289 236.55 360.288 240.951C365.742 238.693 365.101 235.421 365.537 231.942C374.396 228.647 384.202 232.403 385.764 241.527C386.353 244.938 388.811 252.219 393.189 252.841C398.669 253.601 396.134 246.919 396.467 244.062L399.591 217.426C391.653 220.997 386.737 216.965 381.821 212.403L369.198 219.5C362.387 216.366 359.366 210.214 359.11 204.361L357.779 203.186L353.17 209.292C351.326 211.735 349.175 212.219 347.69 212.61C346.205 213.002 341.75 211.366 341.878 209.546C342.518 200.191 336.706 195.03 333.045 187.149C328.666 177.702 338.319 167.61 347.767 162.08C355.909 172.679 368.123 177.91 368.865 181.666C370.069 187.864 357.446 191.942 359.084 202.034L360.185 202.933C367.815 199.661 372.655 194.984 369.685 186.343L392.088 175.145C394.47 176.159 396.544 179.96 398.797 182.541C401.05 172.818 406.35 163.854 415.004 156.159L430.265 168.993C435.744 165.698 439.841 164.407 443.937 159.361C434.643 161.896 432.697 157.841 426.731 153.463L408.45 140.076C403.61 136.55 406.427 129.292 411.241 124.96C413.391 126.297 414.544 128.347 416.566 131.988C422.788 122.472 408.603 119.753 404.276 106.735C396.211 112.08 387.326 113.37 377.545 112.541L380.874 91.6193C381.335 88.693 386.251 85.8128 388.581 85.6746C393.625 85.4211 397.209 92.7483 402.561 95.9741C405.736 97.8866 412.956 91.6193 415.926 93.67C416.925 94.3612 417.334 96.7345 420.509 97.3336C422.788 82.564 394.854 84.7529 401.024 69.6377C402.356 66.3888 407.477 59.1077 411.394 60.974C417.565 63.9234 417.667 71.0432 418.666 76.6884C423.249 67.034 435.616 68.0478 440.967 59.269C440.686 58.716 440.199 58.3013 439.661 58.14L439.61 58.5778ZM383.229 288.763C388.478 292.034 387.941 295.951 386.148 300.076C383.895 305.237 366.638 300.537 356.882 324.523C365.69 329.569 376.547 316.758 386.481 303.509C393.65 307.749 392.216 312.587 393.036 318.924C395.34 315.836 396.108 310.56 396.057 306.343C392.242 296.965 388.837 285.26 395.852 275.813L407.963 266.32C403.175 265.007 400.41 267.818 397.619 271.804C392.959 267.311 395.033 263.716 394.188 258.693C390.014 265.951 395.468 277.749 385.995 277.38C383.076 277.265 380.797 273.716 374.882 272.841C380.541 279.154 381.283 285.26 374.729 291.827C372.604 293.947 369.275 298.578 365.844 297.68C363.104 296.965 360.902 293.993 357.907 291.021C354.68 294.108 346.999 300.076 341.699 297.587C333.275 293.647 331.585 284.2 329.639 277.011C326.669 287.334 322.547 294.892 312.484 299.085C318.297 302.772 322.649 297.334 326.157 295.444C334.069 298.325 342.646 303.878 347.716 309.408C349.355 306.067 351.249 302.518 353.067 302.818L361.747 304.246C371.426 302.564 376.854 293.924 383.281 288.763H383.229ZM324.493 415.721C322.368 408.901 324.39 405.307 328.308 402.657L306.647 388.394C310.769 380.145 310.359 374.8 307.005 366.85C311.204 363.832 316.863 362.588 317.375 357.311C306.16 360.698 299.964 359.592 293.947 353.532C291.361 357.426 287.366 358.717 283.961 357.68C280.786 356.689 276.792 346.712 270.672 346.827C268.47 346.873 265.167 352.265 265.551 354.776L269.495 380.698C270.698 388.601 268.726 395.606 273.617 401.781C275.051 398.118 276.766 395.445 278.712 394.8C285.984 392.403 291.156 404.569 299.989 407.91C298.863 403.279 297.736 400.652 298.837 399.201C306.851 388.74 310.359 410.191 324.467 415.675L324.493 415.721ZM382.973 449.777C385.79 457.403 385.457 463.118 392.268 468.555C399.078 473.993 399.232 484.685 408.066 489.201C397.337 467.311 388.786 445.675 380.695 423.44C375.702 421.32 373.167 417.703 369.685 412.196L361.466 399.201C365.716 393.233 368.865 386.689 365.383 380.606C360.672 385.514 357.753 391.297 351.045 392.242C348.484 392.611 345.744 387.242 344.976 385.329C340.239 391.942 336.681 394.707 329.076 399.224L348.279 416.205C350.942 418.555 357.471 417.933 360.032 421.966C361.952 419.408 363.821 418.071 365.076 418.025C366.33 417.979 369.889 420.468 370.069 421.758C371.605 431.966 379.158 439.592 382.948 449.8L382.973 449.777ZM460.247 638.141C459.94 621.597 448.009 623.049 446.293 616.252C445.32 612.358 444.962 607.127 449.519 604.593C451.107 603.717 454.794 607.127 454.896 608.717C460.196 601.528 459.377 595.376 455.511 588.671L444.117 568.97C442.632 566.39 440.43 568.279 439.405 569.546C438.381 570.814 438.407 571.205 439.764 571.851C453.206 578.256 442.043 596.228 441.966 602.68L440.993 681.667L441.403 698.21C460.708 671.574 441.556 648.832 460.247 638.141ZM320.831 778.095C317.452 773.671 319.551 771.229 320.319 771.275L325.159 771.482C327.668 768.625 323.136 763.948 318.373 762.197C316.581 759.662 323.494 755.399 328.513 755.376C326.131 754.086 321.651 753.786 321.292 751.966L319.346 742.081C316.965 749.593 312.766 754.892 309.565 762.22L302.422 778.648L300.783 801.851C314.021 794.132 317.221 789.8 312.51 777.266C316.786 777.335 318.988 778.579 320.857 778.118L320.831 778.095ZM101.914 988.948L128.209 928.142C130.181 924.225 138.733 922.888 137.709 916.736C132.332 921.206 124.113 922.013 119.248 922.266C120.067 930.584 114.511 933.925 110.209 939.386C103.629 947.727 101.606 972.312 101.888 988.948H101.914Z"/>
</mask>
<path d="M439.61 58.5778C432.39 56.2275 434.285 48.3243 430.751 45.7436C426.117 42.3335 428.882 55.7667 419.818 62.587L389.784 40.444C385.508 37.3104 385.687 28.3242 389.426 25.4671C393.164 22.6099 398.618 22.6099 407.272 23.0247C398.848 19.7528 396.236 0.950889 403.815 0.0522694C414.902 -0.84635 415.849 10.0754 417.258 14.845C418.256 18.186 424.58 22.0108 424.043 28.9233C426.219 23.9463 424.58 19.4763 431.468 15.8588C435.309 21.4348 432.108 25.9279 431.468 31.9187C439.431 28.4395 435.565 21.9878 435.539 18.4625L437.434 17.0109L438.97 26.4118L451.849 17.7251C454.999 15.5823 456.919 12.4486 460.171 12.5869C463.422 12.7251 467.724 14.4071 468.748 16.4809C473.126 25.421 459.428 28.3243 450.953 45.4671C449.212 48.9695 439.482 51.527 441.275 57.5409L442.222 58.5778C453.488 61.3658 445.576 71.9879 462.603 78.1631C465.932 79.3612 472.538 100.675 463.755 99.4303C458.327 98.6469 453.769 91.0202 449.852 88.3704L442.222 98.1631C437.613 96.988 434.233 92.4488 427.602 93.647C432.441 97.9557 437.331 101.228 438.535 105.859C439.892 111.089 432.774 116.389 431.084 120.398C433.312 127.357 439.636 133.209 438.74 141.504C454.179 128.025 438.842 105.928 451.824 105.559C459.274 105.352 463.166 112.841 463.986 117.472C465.266 124.707 462.629 129.315 454.998 134.338C464.472 142.034 462.117 152.126 454.486 158.094C453.846 159.177 456.586 161.827 457.815 161.988C459.659 162.218 461.451 159.845 462.833 158.9C467.929 155.398 472.41 158.924 476.993 162.656C474.483 151.735 473.178 143.647 479.297 135.675C473.69 131.781 473.203 126.804 472.461 121.504C471.949 117.771 466.367 113.785 466.264 110.26C466.111 103.163 478.452 85.9281 489.283 88.2322L488.848 74.0847C484.264 76.2275 479.502 78.1861 475.661 74.9142C472.461 72.1723 471.36 67.4948 469.875 63.0478C468.39 58.6008 463.474 55.0524 463.269 50.4671C462.961 43.8772 466.751 40.3289 472.64 36.4579L475.713 30.951C476.532 29.4533 481.166 32.4717 482.933 33.186C491.894 36.7805 480.475 51.5962 496.99 54.0847C497.323 49.822 497.963 43.5777 502.776 42.2183C505.593 42.61 505.362 50.0294 502.418 52.2874L508.179 54.5916C511.021 55.7206 509.971 58.6008 510.099 59.9372C510.406 62.8635 505.593 65.0524 503.16 62.057C502.571 60.7897 503.212 57.1722 500.472 56.1123L497.886 68.6469C501.214 70.5594 502.008 68.4856 502.7 67.4948C503.263 66.6884 505.823 67.587 506.822 69.3151L520.341 56.9879C516.705 55.0063 512.634 53.0247 511.379 50.0293C509.254 44.9371 515.194 41.0662 518.523 39.315C523.439 36.7113 532.862 36.8957 534.475 43.6929C535.448 48.4395 529.738 55.375 527.92 60.1446C535.064 61.7805 539.749 55.951 544.537 60.5824C548.455 64.3612 535.985 68.2552 526.819 78.7852C521.365 80.4902 512.429 76.6884 505.926 81.2506C511.431 84.9373 514.938 88.9695 516.731 92.9788C519.778 99.8682 504.748 111.32 505.49 111.158C503.468 111.619 500.242 110.536 495.556 108.923C498.065 117.564 491.05 121.066 482.395 128.601C490.768 127.91 493.764 129.315 498.065 133.854C502.187 134.131 507.59 128.025 507.616 123.209L519.65 125.168C520.187 119.638 524.796 112.265 530.224 112.08C536.753 111.873 539.109 119.569 537.957 123.509C536.318 129.154 531.684 129.822 525.155 131.02C531.069 132.449 535.473 131.758 538.495 136.435L522.543 136.85C523.823 146.089 530.096 150.329 541.157 151.274C528.765 154.361 534.091 166.435 524.335 166.228C519.24 161.32 518.625 155.237 516.475 150.352C513.453 154.131 509.792 157.242 507.232 156.481C496.324 153.209 498.577 146.389 494.429 137.334C490.409 146.274 494.813 153.739 486.133 159.822C489.795 162.864 491.69 165.306 491.869 167.864C492.048 170.813 490.051 173.901 487.055 177.288C495.812 179.246 504.517 184.546 505.49 194.154L492.483 207.702L485.34 205.813C483.035 205.214 481.832 209.845 480.603 211.159C477.018 215.03 471.437 212.288 468.799 209.546C466.162 206.804 467.852 203.693 468.236 196.896C464.856 203.716 461.579 209.062 454.819 208.14C446.908 207.08 437.255 200.237 442.427 193.947C447.599 187.656 449.647 182.08 444.398 173.417L432.62 217.679C439.482 214.039 444.142 217.541 449.34 217.749C453.437 217.933 464.575 217.541 462.654 224.408C461.374 229.016 456.1 237.173 452.054 241.458C440.609 253.601 423.633 255.03 420.868 266.205C429.753 268.924 435.36 274.753 437.229 279.615C440.071 287.034 437.075 293.44 432.108 301.159C439.994 302.749 444.962 305.882 448.085 310.998C453.795 320.306 445.55 337.956 429.983 339.799C435.949 348.901 432.083 357.265 423.07 362.426L405.019 372.749C410.14 374.546 412.572 377.864 416.72 383.44C418.947 376.412 419.639 370.122 426.526 364.615C434.694 369.062 436.359 379.316 428.933 386.389L421.662 404.339C413.673 412.104 412.086 418.486 412.495 429.224C413.084 444.385 411.65 459.178 416.515 473.003C421.226 464.915 414.723 456.827 415.926 449.869L421.764 416.228L430.572 396.804C431.724 394.293 434.31 391.942 435.872 390.952C438.356 389.362 443.297 391.067 446.344 391.989L461.4 380.537C464.498 382.933 467.289 385.145 471.027 385.514C472.333 379.385 476.532 376.804 480.552 376.85C496.35 376.988 490.717 415.906 479.63 440.284C480.424 443.901 482.984 449.869 478.657 453.74C470.438 461.09 468.031 469.638 462.552 479.155C461.451 481.09 456.407 485.168 461.144 486.689C462.603 487.104 466.905 483.348 468.543 483.325C469.977 483.325 470.95 483.855 473.254 485.468C474.919 482.795 478.017 482.035 479.476 482.841C481.627 484.039 483.522 485.975 485.877 489.039C488.899 486.39 488.976 481.436 496.503 478.878C493.866 494.915 478.657 494.108 482.984 500.537C484.341 502.565 488.207 504.569 489.539 500.399C490.179 498.394 490.307 495.929 492.023 494.431C493.405 493.233 497.527 495.122 498.961 495.56C500.216 493.371 498.731 491.044 498.321 489.915C497.604 487.91 503.007 485.168 503.954 486.966C507.718 493.993 501.291 500.675 499.985 506.989C498.552 513.947 494.353 516.851 487.951 516.897C480.782 516.966 478.145 510.215 479.425 502.334L469.03 508.302C471.565 509.247 473.715 511.321 474.151 513.325C474.663 515.698 473.664 518.924 471.846 521.251C459.326 537.473 470.156 548.855 457.892 557.127C457.636 565.698 458.634 577.957 462.347 588.072C465.778 580.652 469.926 573.602 475.943 566.551C470.412 552.68 476.788 538.878 488.182 529.247C492.739 536.228 486.62 540.629 485.724 544.731L479.118 574.523L492.407 562.611C493.764 561.39 495.3 558.486 496.529 558.694L505.081 560.123C502.725 556.943 501.931 554.616 503.468 551.344C504.441 549.27 507.769 545.307 512.199 550.583C511.2 547.196 516.705 534.523 522.85 537.634C534.423 543.487 526.486 560.583 515.886 565.33C513.53 566.39 512.404 570.468 508.665 569.616C505.977 568.994 502.93 567.311 500.805 564.731L491.203 578.463C488.873 581.781 478.171 584.201 479.912 589.477C482.549 590.422 488.796 591.321 489.539 593.786C492.56 603.924 472.896 605.169 467.98 614.086C464.447 620.514 469.747 627.15 468.748 633.924C467.237 644.27 457.457 653.832 463.218 666.298L483.419 656.321C484.213 655.653 484.264 652.127 484.776 651.321C485.621 650.007 488.899 649.247 490.87 650.192C492.304 650.883 492.483 655.192 491.971 657.98C496.375 661.367 500.011 656.067 502.085 653.279C504.876 649.547 502.623 646.09 502.623 641.321C504.517 639.708 509.152 643.118 508.665 645.537C510.791 642.98 510.074 639.961 510.33 638.118C510.534 636.551 514.093 636.413 516.808 637.058C527.101 629.984 530.352 618.44 527.049 605.791L549.658 598.694C554.216 597.265 557.365 605.122 555.086 609.685C551.988 615.952 543.667 616.989 540.082 621.574C535.089 627.957 533.297 635.883 524.489 639.869C529.277 642.265 532.913 639.04 535.883 638.049C547.558 657.335 505.311 653.21 508.409 666.067C509.792 671.805 521.544 674.754 526.973 672.726C525.974 670.422 527.536 666.551 529.277 666.966C532.759 667.772 537.137 669.869 537.829 672.219C538.52 674.57 536.088 677.749 534.372 679.915C529.533 686.09 525.897 675.514 506.105 671.482C493.687 682.726 487.465 662.519 471.309 675.63L462.91 678.279C459.966 679.201 461.835 686.367 461.144 688.971L445.807 705.514L449.801 707.127L452.259 712.381C454.512 710.445 454.077 707.496 454.896 704.224C456.125 699.224 465.24 699.708 469.158 701.92C474.151 704.708 475.021 710.56 474.202 717.289L502.213 710.215C506.259 709.201 508.512 715.123 507.769 717.98C506.924 721.321 504.185 724.224 498.168 725.284C498.833 730.1 498.936 733.763 501.675 738.74C505.67 735.261 508.384 733.21 511.277 733.141C513.607 733.095 527.997 738.533 529.405 739.892C531.274 741.69 529.789 745.607 525.231 748.026C531.761 750.307 538.648 750.445 545.433 750.492C544.512 747.634 544.307 746.298 544.512 745.584C544.921 744.27 548.89 744.339 550.221 743.994C561.359 741.068 567.171 746.713 572.574 755.215L576.799 761.851C577.849 763.51 574.546 766.92 572.574 767.404C566.403 768.948 560.873 760.422 554.677 760.538C550.657 760.607 550.221 765.86 547.2 770.399C545.613 760.63 540.133 757.22 529.123 754.639L519.086 752.289C516.552 751.69 513.735 757.68 508.947 758.625C507.129 755.491 508.409 748.302 502.828 746.667L500.907 754.04C488.361 749.316 482.907 742.289 484.444 730.537L468.287 726.62C462.475 725.215 454.282 721.874 451.9 728.948C446.908 743.74 434.08 737.312 439.841 746.367C443.169 744.754 446.984 744.086 449.98 744.293C453.283 744.524 459.07 762.312 457.866 765.33C453.949 775.1 439.047 775.077 438.151 780.146C437.408 784.27 441.095 787.588 445.807 788.441C460.452 791.068 468.774 798.694 479.272 806.759C486.978 812.681 495.812 818.072 491.306 829.34C488.003 837.542 473.51 825.814 466.649 808.487C461.758 810.653 456.484 811.759 453.846 810.284C450.134 808.187 448.802 804.57 448.111 799.662C442.58 805.215 439.175 804.892 431.442 801.805L431.647 806.874C431.75 809.8 422.046 808.579 419.997 820.86C419.434 824.247 410.959 823.81 408.859 820.699C402.714 811.667 424.811 805.998 437.101 788.971H426.194L419.024 782.496C415.67 779.455 407.554 783.026 403.482 776.782L398.464 790.975C396.595 796.298 405.249 804.34 401.588 810.676C400.487 812.588 394.444 811.252 393.445 809.132C392.063 806.229 391.756 802.773 394.803 798.372C386.532 796.943 381.155 792.704 378.313 785.722C375.83 791.021 372.399 794.086 367.559 794.754C364.052 795.238 359.776 790.883 357.779 788.164C355.039 784.409 357.651 780.376 362.234 777.404C354.091 776.713 350.532 774.915 347.153 769.455C346.564 778.026 341.084 780.146 333.838 781.644C321.113 784.27 328.513 800.399 314.046 798.625C311.665 798.326 309.642 802.819 308.132 804.316L284.729 827.634C295.483 825.492 302.14 828.487 310.641 831.505C325.159 836.69 338.473 842.565 345.104 855.169C348.305 850.1 353.4 845.607 359.084 846.114C365.281 846.667 365.665 853.003 362.131 856.39C358.598 859.777 355.628 858.487 347.767 857.75C352.478 863.141 358.88 867.75 365.793 869.685C372.168 871.482 397.926 855.883 382.052 872.312C388.069 876.413 394.598 871.344 400.461 869.478C404.507 871.022 411.497 877.888 417.437 875.008C418.077 874.662 416.848 871.874 416.157 871.667C414.928 871.275 416.105 868.418 416.771 869.063L421.277 873.487C427.602 875.238 435.872 875.33 439.175 883.925C435.437 884.939 432.364 882.22 428.447 880.377C428.908 884.271 427.167 893.718 423.403 894.04C410.985 893.671 405.377 882.404 398.771 873.118L382.717 897.588L369.659 886.575L376.982 871.552C371.963 874.478 367.815 876.39 362.951 876.183C355.833 875.86 352.862 871.69 348.843 866.505C329.255 841.206 287.494 834.409 302.217 847.151C315.352 847.704 325.978 852.197 333.173 862.45L345.437 874.178C347.383 876.022 346.922 879.248 346.231 881.252C344.746 885.607 335.887 883.533 335.938 888.441C335.989 895.284 352.658 893.833 353.067 909.916C353.221 915.768 342.877 925.86 337.295 922.519C332.917 919.916 333.813 915.1 333.71 913.418C333.608 911.736 337.577 909.87 341.52 909.201C333.045 904.132 326.029 898.717 319.116 891.367C320.345 904.224 318.578 912.727 318.706 913.096C320.703 918.556 333.147 918.994 324.672 924.132C320.217 919.939 315.429 919.685 307.491 921.897C309.642 918.188 313.124 914.294 306.544 911.483C306.39 918.994 295.534 926.506 288.416 922.98C281.298 919.455 283.807 905.492 293.179 902.98L299.887 913.879C304.726 911.252 302.78 906.275 302.959 904.109C307.645 903.718 308.541 907.796 310.948 911.851C315.403 902.266 314.379 892.796 306.928 884.616L298.76 899.317C291.309 890.423 297.864 882.197 304.854 876.851C302.78 857.542 276.869 851.344 283.449 845.768C284.729 844.685 288.621 844.846 290.183 841.252C277.534 840.952 267.651 844.87 256.283 847.058C272.183 851.874 284.473 860.837 282.271 876.114C275.486 871.713 272.849 868.579 271.415 858.003C262.786 868.395 250.88 857.289 243.967 858.164C212.858 862.128 190.07 882.75 170.559 901.114L198.954 890.284C206.252 887.496 215.52 892.243 223.611 894.847C224.072 905.261 215.29 910.054 203.64 914.939C210.604 917.98 216.929 912.381 221.614 916.575C226.812 921.206 235.005 929.363 235.287 935.561C235.697 943.902 222.459 942.566 216.519 942.796C211.193 943.003 207.353 946.16 203.23 943.741C199.902 941.782 196.727 938.142 193.961 933.326C190.402 940.492 186.869 952.773 177.447 955.883C169.407 958.533 156.195 935.768 167.307 921.367L169.407 915.63C170.124 913.625 167.717 910.745 165.822 911.114C156.758 915.791 151.509 925.561 146.516 933.026C132.255 954.363 119.325 974.455 112.591 998.833C106.727 998.695 108.955 1004.18 112.437 1002.52C120.272 993.165 130.667 991.229 140.141 992.612C142.548 976.529 162.058 955.308 167.307 961.897C173.401 969.547 172.019 982.059 190.351 979.547C195.037 978.902 204.613 982.911 202.693 988.303C197.495 1002.82 185.358 1010.84 169.074 1007.87C164.132 1006.97 160.829 1001.07 153.865 1003.03C158.909 1007.22 163.543 1011.14 166.744 1017.61L191.913 1013.67C194.602 1019.69 199.082 1020.28 204.511 1022.06C211.193 1024.27 212.525 1033.95 207.02 1038.58C204.613 1040.58 198.98 1038.1 197.213 1034.8C190.223 1039.57 206.252 1040.01 208.223 1051.87C208.812 1055.42 204.895 1063.12 198.493 1063.58C191.273 1064.11 186.869 1051.25 186.843 1043.79C179.29 1058.99 198.417 1069.04 190.428 1074.99C188.559 1076.37 186.562 1074.02 184.129 1072.2C180.34 1070.19 176.243 1075.75 174.067 1078.46C161.367 1074.92 156.297 1063.44 160.164 1050.15C153.891 1054.41 149.512 1056.14 145.441 1053.42C128.773 1042.24 155.145 1012.52 147.054 1003.65C144.494 1000.84 142.01 996.805 135.711 999.363C127.774 1002.57 113.512 1003.83 107.777 1011.11C97.7401 1031.51 88.2408 1051.28 72.1357 1068.86C71.1115 1069.99 72.9038 1073.65 73.7487 1073.44C78.3831 1072.38 86.4485 1056.92 98.7387 1058.33C104.244 1060.81 98.9691 1074.39 92.568 1077.7C99.5068 1077.45 102.118 1075.88 106.062 1079.16C111.106 1083.35 111.951 1086.21 107.316 1090.22C102.682 1094.22 99.686 1095.91 90.9293 1091.48C93.8482 1098.03 90.3404 1100.28 87.9592 1102.87C82.1726 1109.18 77.6406 1108.81 72.955 1106.53C61.0234 1100.75 66.5539 1093.97 63.5326 1082.45C46.4544 1100.77 29.3507 1118 8.20144 1133.12C19.1601 1133 31.5015 1132.75 40.207 1126.92C48.9125 1121.09 58.8726 1111.87 70.8042 1119.73C75.8227 1123.03 72.2381 1134.2 64.1983 1136.97C75.2082 1143.51 83.632 1150.7 82.9151 1163.46C82.7615 1166.28 77.6918 1169.34 75.7971 1168.21C69.4728 1164.39 65.8626 1169.69 62.3292 1169.78C42.9466 1170.24 38.7219 1142.98 39.3876 1141.64C40.0789 1140.24 44.6365 1139.85 46.8385 1140.52L53.3164 1142.47C54.5198 1142.84 56.8242 1140.22 57.0547 1138.69C46.1728 1135.77 35.9054 1136.23 26.3806 1139.16C37.0064 1142.96 38.8499 1151.28 38.0562 1159.13C37.3137 1166.3 30.4261 1174.11 23.1032 1175.4L8.40627 1156.64L16.7021 1140.86C11.53 1139.87 7.9966 1141.23 3.56704 1142.5C-0.708899 1136.69 -1.65626 1127.31 3.87429 1122.8L26.9183 1104.04L58.1301 1065.49C69.0887 1051.97 83.4784 1038.49 73.3903 1025.4C70.5738 1028.53 63.5326 1028.79 62.278 1025.81C60.7673 1022.2 60.204 1018.72 57.8484 1016.94C55.4928 1015.17 48.3236 1012.61 47.453 1015.33C45.7887 1020.58 45.0718 1023.86 41.1543 1026.04C37.4929 1028.1 31.8599 1027.57 28.3265 1023.53L19.2882 1013.26C18.1872 1011.99 16.7789 1010.91 16.6253 1009.94C16.3949 1008.44 17.3934 1006.83 19.1857 1003.3C21.3877 1003.69 25.1516 1005.33 27.2511 1004.55C30.5029 1003.33 32.0904 1000.58 34.0875 998.856L32.8841 997.727C28.8642 997.45 25.3564 995.791 20.3891 992.243C15.4731 1000.05 14.1161 1007.98 6.33232 1014.09L11.2228 984.271C11.9141 980.1 4.05352 979.271 2.87572 977.381C-0.324833 972.312 -1.34901 960.215 2.38924 955.676L19.0065 935.63C29.7348 944.731 28.5057 955.722 20.0307 964.778C17.7007 967.266 19.4674 975.123 10.6851 975.492L26.5342 983.856C32.4488 986.99 35.3165 991.206 34.1131 996.598L35.4445 997.704C43.9452 996.69 51.3193 1001.6 53.2908 1009.43L60.2296 993.533C51.3193 996.275 43.766 996.874 35.1885 991.022C46.9665 982.289 47.2738 968.28 53.8797 974.225C55.9537 976.091 57.746 976.967 59.2566 980.837C61.8171 980.884 63.8398 978.787 65.4785 978.096C67.7317 977.151 67.6037 972.842 67.7829 969.662C67.9621 966.483 79.6122 966.39 80.0474 969.593C80.7388 974.824 78.0503 980.999 81.5837 985.146C84.1953 986.92 89.8539 987.819 92.6704 991.114L92.9521 949.363C92.9521 947.658 90.3916 944.893 89.0858 945.008C85.4244 945.354 83.8881 962.727 70.9323 960.261L61.6379 949.801C58.8982 951.229 51.0376 953.072 48.8869 950.008C39.9509 937.174 35.7262 920.561 45.7375 921.437C48.7844 921.713 52.7019 922.427 55.9537 926.367L62.4828 912.727C64.1215 909.294 66.3747 906.575 69.2168 905.86C72.6478 905.008 76.5396 905.93 79.7658 907.865C81.5069 898.833 73.7231 892.22 73.4671 884.04L72.4685 851.505L71.0859 850.353L69.268 866.552C68.7559 871.114 58.002 876.667 53.1884 875.1L47.6835 869.409C46.7617 868.464 42.6138 870.008 38.6707 871.183C35.547 851.966 14.6794 848.625 35.3677 842.358C36.4175 836.552 32.9609 832.22 31.4759 826.575C32.9609 823.786 40.719 824.731 43.4075 827.312C44.4829 819.155 47.6322 812.335 51.7802 806.344C56.6706 805.561 62.278 811.068 62.8157 815.054C63.5838 820.63 69.4984 823.487 71.47 827.542C74.4145 833.579 71.982 841.528 72.3917 847.888L74.0304 850.284L76.386 826.229L77.2822 785.607C72.1613 788.257 66.4771 794.34 59.6407 792.381C49.783 789.57 49.8598 773.533 58.3093 768.395C64.1215 764.869 72.6222 772.266 73.8512 776.39C78.844 767.381 68.0134 751.943 58.1557 752.473C49.6806 752.934 41.3079 759.04 32.5 757.842L20.5172 746.528C25.4332 742.081 28.8898 738.533 31.0406 733.717C20.0819 731.137 8.81594 720.261 9.09759 710.676C12.7334 704.869 25.126 707.703 31.0918 710.123C30.5541 705.906 34.574 696.229 38.8755 698.049C52.6763 703.878 57.3107 717.266 61.2794 728.372C61.1002 720.1 65.5041 710.031 74.6193 710.008C76.6933 715.676 81.3277 719.754 86.7814 722.611C95.8198 727.335 88.2152 737.473 84.605 743.049L77.1541 754.616C75.1058 760.515 81.4301 766.851 84.9379 772.681C86.0645 775.515 83.1712 781.045 87.2423 783.717L100.557 733.049C106.369 710.929 103.629 674.063 96.9207 678.187L89.7771 682.588C76.9237 679.017 79.0233 664.639 82.9407 654.385C83.7345 652.289 79.2537 652.427 78.716 654.823L77.6662 659.57C77.2309 661.482 77.7174 665.261 76.258 665.998C75.2594 666.505 71.7772 666.321 69.3448 665.998C64.7872 667.45 62.406 661.689 68.8071 660.883C66.1186 654.961 69.3704 650.676 70.8554 645.699C71.4956 643.556 68.7303 639.063 72.4685 637.335C74.5169 636.39 77.8455 633.648 80.1755 634.823C80.8156 635.146 94.9492 657.841 99.5068 671.206C103.373 659.086 97.1768 649.616 95.8198 638.187C94.3603 626.021 85.8084 612.335 72.5197 612.035C70.3178 627.035 51.985 636.759 51.1656 636.09L46.4544 632.15C37.0576 624.293 34.3435 616.459 38.7731 605.606C29.2739 608.855 26.4318 617.081 18.4944 617.404C12.4518 617.657 7.20287 615.03 0.955388 618.072L0.878575 581.275L13.4759 580.192L6.38352 567.519C12.8614 560.722 22.6935 560.791 31.4502 564.754C30.5797 560.468 32.4744 553.924 36.6479 553.026C48.9893 560.03 55.672 574.086 50.884 586.528C46.352 587.542 42.4089 587.035 39.0036 589.408C46.096 590.123 50.5511 591.159 56.9779 592.565C53.5469 583.602 52.4459 573.417 58.2837 565.514C59.9736 563.233 67.322 565.606 70.497 567.058C66.093 555.145 61.1258 546.09 59.0262 534.846C45.6351 546.597 27.968 526.39 13.9112 509.431C14.5001 504.201 25.1772 500.514 31.8343 503.072C30.17 496.551 28.4801 492.311 28.8898 487.058C39.362 483.325 41.5384 491.321 46.6593 495.583C53.3164 501.159 59.5895 503.855 61.6123 512.288C62.5596 496.228 55.4672 483.509 46.48 470.744L23.5897 438.256C13.9112 440.675 27.2511 457.265 14.3465 458.509C10.7875 458.855 5.92264 457.749 1.0066 455.491L1.31385 415.491L4.71924 411.712L1.67231 408.025C0.0592337 401.274 0.161651 395.33 2.13319 389.569C5.89704 393.671 6.43473 396.873 10.7107 399.131C12.5542 385.79 9.94254 374.362 7.20287 362.634C7.20287 368.256 4.79605 369.523 0.904179 369.177C1.08341 346.251 4.66803 327.726 15.2427 339.293L31.2198 314.938C25.7917 312.334 20.722 307.841 13.9368 310.191L1.56989 321.712L1.05781 277.242C1.0066 273.832 5.00089 271.988 7.33089 272.242C10.0194 272.541 12.4006 273.67 14.0136 276.896C21.3877 291.574 7.68935 304.2 17.4702 304.915C25.9709 305.537 24.3066 294.615 32.8841 295.537C35.1373 295.79 37.6977 297.057 40.1814 299.684L48.81 294.016C39.362 289.431 33.5242 287.472 24.281 284.776C24.7163 272.68 30.7077 258.97 41.7432 251.228C46.8129 252.518 47.4786 259.707 47.9907 263.394C51.5753 258.624 54.0333 255.606 58.5653 255.997C61.9451 256.274 63.7118 259.984 65.3761 263.417C70.1641 273.394 59.8455 280.79 56.8754 291.942C80.9692 282.38 69.524 248.578 81.9934 244.891C84.0417 244.292 87.6263 246.942 87.8056 248.624C88.3177 253.532 82.7103 258.716 87.7544 262.011C89.2394 262.979 91.9791 261.873 95.3077 259.914C93.4385 256.689 92.1839 253.025 93.3617 248.855C94.3347 245.467 107.598 236.297 111.106 238.97C116.764 243.255 108.724 256.827 102.4 260.076C96.8183 262.956 91.2622 264.431 88.0104 269.684C100.685 272.334 108.135 259.822 114.972 265.905C117.379 268.048 116.303 271.527 114.818 272.657C107.419 278.256 93.2593 270.444 87.7544 278.601C94.6676 280.583 101.914 284.085 104.935 289.684C104.576 293.555 96.8183 296.574 92.1327 295.606C86.6534 294.477 81.9678 292.933 79.1257 286.021C75.5411 290.283 72.0076 293.578 67.6549 296.528C74.2864 304.799 95.3589 303.163 95.3589 315.836C95.3589 321.182 86.7046 323.233 82.4542 324.154C86.1157 331.666 87.3959 337.887 82.3262 344.131C58.4629 341.643 53.9309 330.214 53.1884 330.352L44.2012 332.058C37.2112 333.371 29.069 333.187 27.0719 338.993L37.4673 337.15C39.6949 336.758 41.9737 340.122 43.4587 342.011C49.8598 350.122 47.5298 356.827 40.6934 362.818C40.2326 376.113 54.4942 377.426 50.4999 386.896C48.9893 390.491 45.7119 392.311 40.5142 390.56C36.5199 396.067 40.8983 402.864 42.9466 408.97C44.6877 414.131 36.0078 419.339 31.2966 421.366L48.6308 451.689C49.8086 446.482 51.7546 444.085 53.3164 442.818C54.7247 441.666 60.9721 445.191 60.9721 447.081C60.9721 456.551 64.3007 464.454 65.7602 474.132L71.2139 509.708C73.4159 504.846 73.5695 500.837 77.2566 497.127C83.7089 501.136 86.5766 504.823 89.009 509.592C91.595 504.661 94.9492 505.261 99.0971 505.883L119.171 508.97C121.322 501.735 125.623 499.385 134.636 500.192C130.13 478.947 128.798 472.426 144.007 465.583L157.706 459.408C162.186 457.38 167.307 463.855 167.256 467.058C167.026 479.431 153.199 480.03 165.873 483.855C170.841 478.878 178.112 478.233 184.513 482.657C189.967 486.413 188.047 491.966 184.334 496.021C181.082 499.569 174.528 496.021 170.79 496.505C165.694 499.685 164.363 508.44 156.297 509.293L150.332 507.634C149.103 507.288 148.386 512.795 149.205 514.132C153.763 521.505 150.357 525.445 145.518 531.781C141.933 536.459 144.263 550.03 136.556 552.98C129.822 555.56 128.44 546.344 127.825 543.026L109.211 523.302C107.828 527.98 106.241 532.565 102.195 532.634C98.5082 532.703 94.8724 529.984 88.6761 526.804C88.8041 549.385 70.9579 564.5 92.4144 578.855C99.686 583.717 92.6448 592.542 94.2067 596.781L103.655 622.312C108.878 636.413 114.024 649.616 113.999 663.74C128.389 647.242 120.502 635.146 127.8 631.62C135.711 627.818 131.845 638.786 138.246 643.279C147.387 631.966 148.975 620.192 153.814 607.542C155.58 602.934 162.698 599.27 158.499 592.196C155.965 594.454 149.615 597.358 145.723 595.652C140.295 593.279 138.682 586.044 139.578 580.952C140.269 577.127 140.192 569.846 149.282 570.722C148.027 567.934 145.723 564.132 147.848 562.519L154.428 557.565C158.115 554.8 163.518 547.703 168.306 552.104C173.094 556.505 175.757 563.003 178.496 569.362C183.566 565.445 188.354 560.537 195.575 558.394C197.956 557.68 202.309 561.989 202.232 564.039C202.155 565.975 201.233 568.763 200.183 571.275C206.456 572.98 210.784 570.606 215.904 570.169C220.206 569.8 223.483 574.869 223.535 577.45C223.637 581.436 217.594 582.68 216.212 586.228L209.785 602.888C200.798 601.643 198.545 607.219 195.575 610.814C188.636 619.178 179.623 608.44 173.734 608.233C166.539 607.98 154.864 616.067 154.94 622.335C155.017 628.602 152.969 631.62 149.077 636.321C154.377 635.399 158.013 633.533 160.881 635.86C163.159 637.726 164.081 640.445 166.053 643.371C168.101 638.464 170.713 635.099 174.144 634.155C178.496 632.98 182.337 636.021 183.95 638.671C185.999 642.012 184.513 646.482 182.107 648.763C179.162 651.551 173.273 650.123 170.79 647.473C167.64 651.897 171.097 654.017 171.43 656.183C171.916 659.408 177.088 660.63 178.266 658.579C181.569 652.795 186.613 649.639 194.883 648.51C203.87 647.265 215.674 658.325 214.624 667.68C214.291 670.63 206.047 674.547 209.196 679.385C211.321 682.634 212.986 685.814 211.501 688.648C209.58 692.266 206.61 694.938 202.232 693.51C199.134 692.496 197.418 688.971 191.35 685.514C190.095 693.533 188.277 700.561 180.494 703.994L166.565 692.012C161.137 687.358 166.642 678.878 166.642 674.547C160.881 670.791 156.553 668.348 156.4 662.611C156.272 658.118 159.293 653.786 161.623 650.883C157.885 646.182 148.334 646.874 144.366 648.763C152.047 656.551 155.017 666.805 147.95 673.694C142.932 678.602 137.606 682.035 131.41 678.971C126.75 676.666 126.878 671.252 124.599 665.975C124.599 676.298 122.73 682.934 119.453 692.289C116.918 699.547 120.426 709.8 113.103 715.676C121.04 724.616 117.199 708.832 127.672 707.427C131.538 706.897 135.404 708.441 136.3 711.413C137.299 714.777 135.711 717.634 134.175 722.15C142.855 717.749 153.046 718.21 156.886 726.137C158.602 729.662 155.58 734.224 153.378 735.422C150.229 737.127 147.003 737.588 142.087 737.98C145.492 745.1 139.245 753.279 132.511 753.602C124.804 753.971 117.788 749.524 115.049 741.989C110.875 747.15 110.798 753.256 110.414 760.491C110.235 763.717 104.013 771.091 105.857 773.856C110.44 778.694 115.382 780.376 113.589 786.943C112.616 790.538 111.054 795.515 104.884 796.459C103.066 796.736 100.326 793.994 98.457 792.358C92.44 805.146 88.2152 816.068 87.7031 829.731C96.255 825.906 99.7884 820.008 97.9705 810.469C110.619 818.003 119.043 802.22 125.111 813.533C129.259 821.275 118.403 826.575 115.049 836.713C110.209 832.519 107.751 827.565 104.73 822.704C95.6661 826.575 111.771 835.353 102.323 843.694C98.9179 846.69 94.6676 848.326 88.036 848.303L88.7785 875.837C92.8752 871.874 95.7685 869.017 99.558 868.579C103.347 868.142 107.111 870.584 109.953 873.303L123.985 854.962L131.538 848.718C121.731 847.243 116.969 838.925 120.963 832.081C125.29 824.685 136.915 818.994 145.006 825.215C148.616 831.367 140.73 844.846 134.303 848.764C137.683 852.519 139.398 854.985 139.475 858.349C139.526 861.321 137.171 863.556 133.561 865.768L149.512 866.69C155.683 877.22 151.791 890.883 138.554 895.423L146.132 908.257C155.965 894.593 167.256 882.911 179.29 872.773C175.245 856.459 189.583 841.298 181.313 837.75C174.835 834.962 163.441 833.556 161.597 825.676C160.445 820.768 162.033 815.791 156.067 811.459C152.815 809.109 154.556 802.243 158.986 801.644C166.821 800.584 168.562 793.464 170.431 788.579C178.881 786.114 184.001 795.054 185 800.791C186.101 807.22 186.127 813.257 180.852 817.427C185.819 821.528 188.252 819.478 187.944 816.068C187.74 810.284 194.218 808.095 197.93 809.869C202.001 811.805 205.023 817.289 201.566 821.022C196.957 825.999 196.624 830.192 194.806 836.229L185.026 868.602L208.479 852.865C217.62 846.736 229.526 841.068 230.985 829.386C231.728 823.441 231.574 818.648 236.874 814.04C229.04 813.856 229.347 808.487 226.838 806.068C221.409 801.413 210.041 796.943 209.094 787.611C208.607 782.796 222.894 778.441 225.89 783.28L234.673 797.404C238.872 795.146 240.152 791.897 239 787.012C238.36 784.293 234.954 782.197 230.217 779.57C233.597 775.699 236.234 774.362 236.542 769.616C233.034 771.021 230.883 770.653 229.654 769.616C228.425 768.579 227.964 765.445 231.19 763.925C230.525 758.648 238.411 759.777 235.902 764.869C236.9 768.579 240.075 766.482 240.177 765.031C240.229 764.293 241.535 761.621 242.559 761.137C246.169 759.478 249.037 763.418 250.573 765.169C252.877 767.842 250.394 772.266 250.547 774.593C250.957 780.584 258.357 781.321 263.273 783.372C271.697 786.874 275.768 803.464 267.677 808.787C260.84 813.28 258.229 816.091 252.826 821.759L233.725 841.805C246.143 835.814 257.332 833.349 269.597 829.363L286.291 819.063C285.267 810.307 288.672 803.879 290.772 794.939L279.224 796.92C277.022 797.289 272.49 793.326 272.669 790.468C272.951 786.091 279.301 782.22 282.86 783.925C286.189 785.515 288.979 788.187 291.694 792.842C298.684 777.404 298.351 761.252 304.086 754.547C307.543 750.491 309.975 746.09 306.595 741.759C305.033 746.275 303.779 749.132 301.577 751.137C296.635 748.556 296.251 742.68 299.17 740.192C300.937 738.694 305.571 738.441 309.233 739.339C310.718 736.92 310.871 734.386 310.846 730.491C315.275 732.289 317.272 734.754 319.679 737.565L329.102 716.828C332.942 715.814 337.628 720.537 338.447 723.325C339.881 728.095 336.885 745.63 327.873 750.607C334.069 751.482 338.447 752.358 340.854 755.077C343.747 758.372 343.338 762.289 344.976 767.657C346.308 761.367 353.17 756.482 356.934 750.998C352.35 746.667 346.692 741.021 348.74 734.27C349.918 730.353 353.579 725.192 360.365 724.708C365.229 724.362 371.554 727.657 375.42 732.911L384.663 725.284C392.344 729.455 394.162 735.607 396.236 742.289C400.512 732.703 389.016 723.717 393.702 719.201C394.879 718.072 396.364 717.104 401.101 715.261L385.201 681.759C378.185 672.519 369.044 665.745 368.379 653.602L345.693 664.017L354.066 669.339C355.372 670.169 358.444 668.994 360.595 665.952C363.54 669.892 359.11 673.118 355.321 673.164C351.531 673.21 348.945 671.021 345.258 669.339C342.774 670.169 339.292 673.21 336.681 671.344C333.736 669.247 331.457 667.934 329.332 665.33C324.928 659.892 324.211 653.855 329.716 650.007C334.888 646.413 341.392 647.934 346.282 652.173L353.323 648.003C354.808 647.127 357.983 650.053 360.083 651.182C361.414 650.86 364.18 646.689 365.741 647.634L370.99 650.722C377.878 651.321 379.952 659.846 383.46 661.897C388.913 665.077 394.777 664.593 396.876 670.491C398.541 675.192 394.7 678.349 393.855 682.957C392.421 690.791 405.044 711.805 403.815 711.828C404.66 711.828 406.273 710.399 407.758 708.579C396.16 698.579 411.701 685.399 407.451 681.851L401.229 676.666C397.184 666.39 398.899 654.639 404.379 645.745C396.211 631.321 373.372 627.565 387.556 618.187C360.902 615.422 342.16 601.805 339.855 612.726C339.42 614.731 340.803 616.666 344.9 621.183C339.395 623.095 332.481 625.123 327.13 625.906C319.782 624.178 310.794 619.247 308.516 613.141C307.312 609.892 314.712 605.146 317.605 606.182C324.237 608.556 327.847 611.92 333.121 615.537C333.429 609.155 336.809 604.892 340.649 604.224C346.385 603.21 350.225 603.763 356.345 603.832C355.192 600.699 354.501 598.233 355.397 596.781C357.036 594.178 360.774 593.325 363.283 595.606L381.821 612.588C384.433 611.574 388.427 609.662 390.68 610.537C392.575 611.275 393.625 614.777 399.309 615.629C399.795 612.703 395.571 611.528 395.366 606.39C408.142 608.671 411.445 615.768 415.593 624.339C416.797 626.828 422.839 629.823 422.378 632.381C421.918 634.938 419.46 637.703 417.718 640.768C428.216 650.722 428.703 663.855 429.112 677.703C436.23 653.003 420.202 618.418 427.064 597.818C429.189 591.436 433.209 586.113 430.085 578.487L413.443 587.818C411.701 577.657 413.161 569.892 415.875 560.768C411.676 561.897 408.117 559.086 405.992 558.487L397.312 566.09C395.007 568.118 388.76 564.662 385.508 565.514C379.209 567.173 377.776 566.758 375.497 562.519C373.423 558.625 376.879 557.864 379.209 555.169C384.279 549.316 386.302 544.155 394.7 541.136C397.158 540.261 397.593 537.403 396.313 537.104C384.919 534.477 375.087 538.763 366.535 525.353C367.483 523.095 370.99 521.09 374.652 519.938C369.019 515.169 369.992 510.675 373.32 506.897C381.565 497.588 390.296 505.491 393.676 504.754C394.879 504.5 395.955 502.611 395.007 501.344C392.985 498.602 381.155 503.694 369.531 492.841C372.015 501.643 368.02 508.187 366.228 515.307C363.872 524.662 359.852 527.841 351.07 532.288C342.288 536.735 332.84 542.45 322.7 538.118C327.156 529.039 333.864 523.717 335.964 516.344C331.432 516.897 329.281 521.044 327.386 520.768C326.055 520.583 323.904 517.957 323.622 515.33C324.826 511.021 319.09 511.528 320.755 515.445C321.369 518.417 318.45 518.97 317.375 518.786C316.632 518.671 315.48 517.68 316.299 516.643C316.786 516.044 317.349 514.201 315.787 513.463C309.489 517.887 301.628 520.537 295.176 520.053C291.284 524.039 294.203 527.38 298.402 524.039C306.954 528.579 315.941 527.404 326.029 525.099C324.365 540.837 307.056 524.685 295.125 534.616C291.463 534.316 287.699 529.454 287.366 526.666C287.034 523.878 292.846 519.546 292.871 516.943C293.051 507.818 295.893 498.049 305.059 493.21C306.672 494.846 309.642 497.749 310.462 496.712L314.379 491.92C320.755 488.878 327.719 485.721 329.69 479.293C333.838 482.542 336.373 484.454 341.571 483.74C335.375 475.03 317.452 474.685 321.19 469.638L326.029 463.095L305.341 470.468C307.773 477.035 312.126 481.62 312.894 488.947C306.442 484.869 300.937 477.565 300.758 470.537C300.604 464.477 310.718 464.523 313.765 461.85L327.463 449.869C335.375 453.279 343.158 454.984 351.531 450.514C339.19 448.855 332.302 437.196 335.656 427.15C324.979 425.307 321.932 429.938 317.656 435.537C306.39 427.473 292.334 439.108 293.972 426.827C294.177 425.26 293.998 423.417 297.608 420.353C282.246 417.542 263.81 421.205 256.103 434.454C260.815 435.721 264.937 436.436 265.654 438.164L268.496 445.03C270.877 436.251 277.97 427.288 290.567 428.671C293.204 428.947 293.588 434.777 292.41 436.528C290.465 439.408 277.304 441.067 277.15 448.44C276.997 455.814 291.566 454.085 294.28 460.952C295.944 465.168 290.516 469.546 297.275 477.219C295.713 482.542 288.263 488.095 281.708 491.851C285.753 497.265 289.287 501.712 286.496 507.196C278.533 522.841 262.965 512.772 255.13 532.173C242.661 527.035 243.916 513.717 255.284 500.721C247.756 503.187 242.815 502.288 239.896 497.703C237.207 493.463 240.971 488.164 246.527 485.56C251.495 483.233 258.561 486.943 264.066 488.509C270.058 482.726 267.6 470.629 259.278 468.578C254.029 467.288 250.189 467.242 248.294 462.795C247.116 459.984 249.318 456.551 248.166 449.8C245.836 457.012 242.175 460.491 235.21 464.846L221.307 473.556C213.395 467.795 211.116 461.735 209.478 452.772C201.822 459.224 195.293 458.509 190.377 455.03C184.693 451.021 183.566 443.97 188.508 438.832L195.805 431.228C187.407 432.196 184.001 428.993 179.085 425.03C171.89 419.224 169.074 411.343 175.142 403.532C180.34 403.786 184.488 404.454 189.225 401.459C182.107 395.606 179.956 386.251 185.051 381.712C190.146 377.173 197.93 377.795 207.481 380.952C202.411 368.878 195.703 357.91 196.343 344.177C196.471 341.458 202.616 337.541 199.364 332.726C197.085 329.362 199.953 325.283 203.153 323.878C211.219 320.283 218.721 336.827 240.638 334.546L253.031 345.514C259.278 339.408 270.749 332.518 270.288 324.638C269.136 319.569 262.581 314.223 264.169 308.071C265.987 301.044 284.678 291.458 293.768 292.703C297.787 293.256 300.092 297.587 307.21 300.468C306.595 296.09 302.063 292.772 299.042 289.408L291.284 290.698C286.317 291.527 276.228 276.735 281.759 268.279C292.667 251.597 301.807 262.196 306.8 258.509C308.234 257.449 311.358 255.767 308.925 253.486C300.45 254.131 291.335 250.491 290.106 245.836C288.237 238.67 290.337 232.126 296.994 228.232C296.072 224.914 295.816 221.85 293.716 219.938C282.476 235.421 291.924 247.656 282.143 254.338C279.916 255.859 274.999 253.97 271.594 255.721C266.32 258.855 261.736 267.311 254.004 266.965C247.244 266.643 245.094 257.726 246.527 251.274C237.719 257.564 226.556 258.394 218.951 250.721C216.724 248.463 219.95 242.587 222.331 241.758C231.677 238.463 229.603 230.283 232.624 225.076C237.617 216.504 251.674 221.136 259.765 223.417C255.156 213.071 253.031 206.043 260.789 201.182C268.547 196.32 275.844 195.168 283.987 203.302C286.419 206.09 288.698 203.716 289.517 199.753C284.499 196.942 278.943 193.325 275.076 187.956C288.339 179.984 269.008 184.592 264.758 181.136C261.506 178.463 263.529 169.454 258.357 170.836C255.668 171.55 258.664 173.348 257.537 177.195C252.954 177.38 248.345 174.246 246.143 171.942C242.815 168.486 242.456 162.403 246.246 159.569C252.109 155.214 256.001 151.066 265.884 152.795C265.859 139.477 249.984 151.642 242.866 139.96C234.032 142.334 219.438 138.232 218.747 127.034C218.491 122.633 228.758 120.214 233.981 119.661C228.015 115.191 225.276 101.896 233.29 100.053C240.638 102.103 249.19 110.79 252.954 116.665L255.258 134.269L260.738 116.896C266.14 109.315 271.62 103.67 273.796 92.8405C285.241 98.8313 286.906 108.163 288.211 118.347C290.26 115.582 296.098 111.711 299.503 113.993C304.419 117.288 303.011 124.039 303.011 129.615C306.083 127.564 308.72 124.868 311.46 125.191C318.681 126.043 321.676 138.255 312.356 152.195C316.709 151.458 319.065 147.818 321.6 148.14C323.392 148.371 326.9 151.297 327.54 153.301C331.841 167.149 322.035 177.495 307.338 181.113C314.097 182.91 320.345 180.606 323.904 185.122C329.742 192.518 314.277 202.725 323.801 203.693C333.326 204.661 332.533 213.302 340.7 220.56C338.882 228.762 331.508 237.08 334.53 247.15C337.525 241.274 341.212 233.348 349.252 231.02C354.501 229.523 359.289 236.55 360.288 240.951C365.742 238.693 365.101 235.421 365.537 231.942C374.396 228.647 384.202 232.403 385.764 241.527C386.353 244.938 388.811 252.219 393.189 252.841C398.669 253.601 396.134 246.919 396.467 244.062L399.591 217.426C391.653 220.997 386.737 216.965 381.821 212.403L369.198 219.5C362.387 216.366 359.366 210.214 359.11 204.361L357.779 203.186L353.17 209.292C351.326 211.735 349.175 212.219 347.69 212.61C346.205 213.002 341.75 211.366 341.878 209.546C342.518 200.191 336.706 195.03 333.045 187.149C328.666 177.702 338.319 167.61 347.767 162.08C355.909 172.679 368.123 177.91 368.865 181.666C370.069 187.864 357.446 191.942 359.084 202.034L360.185 202.933C367.815 199.661 372.655 194.984 369.685 186.343L392.088 175.145C394.47 176.159 396.544 179.96 398.797 182.541C401.05 172.818 406.35 163.854 415.004 156.159L430.265 168.993C435.744 165.698 439.841 164.407 443.937 159.361C434.643 161.896 432.697 157.841 426.731 153.463L408.45 140.076C403.61 136.55 406.427 129.292 411.241 124.96C413.391 126.297 414.544 128.347 416.566 131.988C422.788 122.472 408.603 119.753 404.276 106.735C396.211 112.08 387.326 113.37 377.545 112.541L380.874 91.6193C381.335 88.693 386.251 85.8128 388.581 85.6746C393.625 85.4211 397.209 92.7483 402.561 95.9741C405.736 97.8866 412.956 91.6193 415.926 93.67C416.925 94.3612 417.334 96.7345 420.509 97.3336C422.788 82.564 394.854 84.7529 401.024 69.6377C402.356 66.3888 407.477 59.1077 411.394 60.974C417.565 63.9234 417.667 71.0432 418.666 76.6884C423.249 67.034 435.616 68.0478 440.967 59.269C440.686 58.716 440.199 58.3013 439.661 58.14L439.61 58.5778ZM383.229 288.763C388.478 292.034 387.941 295.951 386.148 300.076C383.895 305.237 366.638 300.537 356.882 324.523C365.69 329.569 376.547 316.758 386.481 303.509C393.65 307.749 392.216 312.587 393.036 318.924C395.34 315.836 396.108 310.56 396.057 306.343C392.242 296.965 388.837 285.26 395.852 275.813L407.963 266.32C403.175 265.007 400.41 267.818 397.619 271.804C392.959 267.311 395.033 263.716 394.188 258.693C390.014 265.951 395.468 277.749 385.995 277.38C383.076 277.265 380.797 273.716 374.882 272.841C380.541 279.154 381.283 285.26 374.729 291.827C372.604 293.947 369.275 298.578 365.844 297.68C363.104 296.965 360.902 293.993 357.907 291.021C354.68 294.108 346.999 300.076 341.699 297.587C333.275 293.647 331.585 284.2 329.639 277.011C326.669 287.334 322.547 294.892 312.484 299.085C318.297 302.772 322.649 297.334 326.157 295.444C334.069 298.325 342.646 303.878 347.716 309.408C349.355 306.067 351.249 302.518 353.067 302.818L361.747 304.246C371.426 302.564 376.854 293.924 383.281 288.763H383.229ZM324.493 415.721C322.368 408.901 324.39 405.307 328.308 402.657L306.647 388.394C310.769 380.145 310.359 374.8 307.005 366.85C311.204 363.832 316.863 362.588 317.375 357.311C306.16 360.698 299.964 359.592 293.947 353.532C291.361 357.426 287.366 358.717 283.961 357.68C280.786 356.689 276.792 346.712 270.672 346.827C268.47 346.873 265.167 352.265 265.551 354.776L269.495 380.698C270.698 388.601 268.726 395.606 273.617 401.781C275.051 398.118 276.766 395.445 278.712 394.8C285.984 392.403 291.156 404.569 299.989 407.91C298.863 403.279 297.736 400.652 298.837 399.201C306.851 388.74 310.359 410.191 324.467 415.675L324.493 415.721ZM382.973 449.777C385.79 457.403 385.457 463.118 392.268 468.555C399.078 473.993 399.232 484.685 408.066 489.201C397.337 467.311 388.786 445.675 380.695 423.44C375.702 421.32 373.167 417.703 369.685 412.196L361.466 399.201C365.716 393.233 368.865 386.689 365.383 380.606C360.672 385.514 357.753 391.297 351.045 392.242C348.484 392.611 345.744 387.242 344.976 385.329C340.239 391.942 336.681 394.707 329.076 399.224L348.279 416.205C350.942 418.555 357.471 417.933 360.032 421.966C361.952 419.408 363.821 418.071 365.076 418.025C366.33 417.979 369.889 420.468 370.069 421.758C371.605 431.966 379.158 439.592 382.948 449.8L382.973 449.777ZM460.247 638.141C459.94 621.597 448.009 623.049 446.293 616.252C445.32 612.358 444.962 607.127 449.519 604.593C451.107 603.717 454.794 607.127 454.896 608.717C460.196 601.528 459.377 595.376 455.511 588.671L444.117 568.97C442.632 566.39 440.43 568.279 439.405 569.546C438.381 570.814 438.407 571.205 439.764 571.851C453.206 578.256 442.043 596.228 441.966 602.68L440.993 681.667L441.403 698.21C460.708 671.574 441.556 648.832 460.247 638.141ZM320.831 778.095C317.452 773.671 319.551 771.229 320.319 771.275L325.159 771.482C327.668 768.625 323.136 763.948 318.373 762.197C316.581 759.662 323.494 755.399 328.513 755.376C326.131 754.086 321.651 753.786 321.292 751.966L319.346 742.081C316.965 749.593 312.766 754.892 309.565 762.22L302.422 778.648L300.783 801.851C314.021 794.132 317.221 789.8 312.51 777.266C316.786 777.335 318.988 778.579 320.857 778.118L320.831 778.095ZM101.914 988.948L128.209 928.142C130.181 924.225 138.733 922.888 137.709 916.736C132.332 921.206 124.113 922.013 119.248 922.266C120.067 930.584 114.511 933.925 110.209 939.386C103.629 947.727 101.606 972.312 101.888 988.948H101.914Z" stroke="var(--stroke-0, #F3EEE1)" stroke-width="3" mask="url(#path-1-inside-1_0_68)"/>
</g>
</svg>
