<svg preserveAspectRatio="none" width="100%" height="100%" overflow="visible" style="display: block;" viewBox="0 0 222 196.2" fill="none" xmlns="http://www.w3.org/2000/svg">
<path id="Vector" d="M111.08 0.941406C115.94 3.14284 118.206 7.23377 119.815 11.6982C120.669 14.0656 121.283 16.3641 122.053 18.6602C122.8 20.8905 123.665 23.0101 124.952 24.6885L125.011 24.7656L125.087 24.8242C132.466 30.549 136.848 36.853 137.96 43.5518C139.07 50.2364 136.949 57.4729 130.996 65.1309L129.371 67.2217L131.851 66.2939C137.718 64.0998 143.498 61.5403 149.347 60.0273C155.166 58.5223 160.94 58.0902 166.713 60.1152V60.1143C173.327 62.4394 180.826 66.0692 187.543 70.3809C194.2 74.6545 200.029 79.5624 203.484 84.4854C204.879 98.285 205.707 112.614 220.878 120.688L212.294 132.466C211.206 133.958 210.048 134.626 208.868 134.798C207.661 134.974 206.312 134.649 204.828 133.915H204.829C203.735 133.368 202.978 132.645 202.723 131.659C202.464 130.659 202.666 129.179 203.979 126.995L204.42 126.263L203.638 125.921C198.309 123.59 192.38 120.829 187.191 117.442C181.994 114.05 177.612 110.077 175.295 105.356L174.686 104.115L173.978 105.303C172.571 107.662 172.15 109.57 172.038 111.573C171.983 112.553 172.002 113.563 172.01 114.625C172.014 115.279 172.012 115.963 171.99 116.696L164.17 110.324L163.511 109.787L163.061 110.508C159.601 116.041 159.411 121.409 159.376 125.705C159.358 127.882 159.377 129.703 159.081 131.207C158.811 132.578 158.296 133.59 157.305 134.297L157.101 134.435C156.754 134.653 156.268 134.783 155.576 134.808C154.884 134.832 154.045 134.749 153.035 134.595C152.026 134.44 150.891 134.222 149.6 133.985C148.315 133.75 146.892 133.5 145.339 133.291L143.856 133.091L144.583 134.398C145.624 136.272 146.837 138.075 148.077 139.855C149.323 141.645 150.589 143.401 151.769 145.222C154.095 148.813 156.025 152.564 156.632 156.968L151.975 172.744L151.932 172.89L151.948 173.04C152.449 177.544 151.758 181.495 149.855 184.56C148.057 187.455 145.132 189.63 140.926 190.726C139.556 186.291 136.562 182.402 132.938 179.68C129.13 176.818 124.549 175.186 120.326 175.637L119.983 175.673L119.788 175.957C119.52 176.347 119.289 176.931 119.084 177.498C118.977 177.794 118.868 178.11 118.761 178.425C118.652 178.742 118.544 179.059 118.432 179.368C118.204 179.994 117.978 180.544 117.744 180.945C117.628 181.145 117.525 181.28 117.44 181.364C117.393 181.412 117.362 181.433 117.348 181.44C116.555 181.596 115.445 181.271 114.378 180.393C113.329 179.529 112.42 178.204 112.035 176.577V176.576L111.988 176.422C111.86 176.075 111.601 175.832 111.327 175.677C111.023 175.504 110.665 175.417 110.311 175.381C109.598 175.308 108.725 175.423 107.846 175.706C106.307 176.201 104.584 177.266 103.537 179.022L89.5293 169.035L88.5039 168.304L88.3496 169.555C87.1 179.727 87.8011 187.939 79.5244 195.095C77.6267 192.568 74.6586 190.934 71.6777 189.469C68.355 187.835 65.0074 186.402 62.5205 184.211H62.5195C56.5421 178.956 48.9244 169.267 44.1719 160.094C41.7938 155.504 40.1675 151.106 39.79 147.497C39.4132 143.893 40.2869 141.264 42.665 139.852L44.1934 138.943L42.4766 138.482C37.6951 137.2 34.9448 139.134 32.0312 140.346C26.9997 138.143 24.1451 135.122 22.7754 131.45C21.3667 127.674 21.485 123.097 22.6289 117.8L22.9463 116.333L21.582 116.961C17.1325 119.008 13.9047 120.11 10.4287 119.259V119.258L10.1934 119.189C9.01414 118.792 7.78983 117.571 6.92578 115.866C6.01618 114.072 5.606 111.929 6.02051 110.106L6.08691 109.814L5.93457 109.558C1.39398 101.9 -0.159384 94.2877 1.25586 87.209C2.67117 80.1303 7.07506 73.4858 14.6348 67.8008L15.2959 67.3037L14.7363 66.6943C10.2475 61.7989 8.72068 56.3376 9.60156 51.2881C10.4846 46.2265 13.8062 41.4757 19.2119 38.0625L19.5508 37.8486L19.5605 37.4473C19.6709 33.1288 21.5678 29.3679 24.6211 26.9971C27.5383 24.7321 31.5604 23.6985 36.207 24.7197C35.9893 27.1102 35.6959 30.2906 36.0254 33.2998C36.3847 36.5809 37.5053 39.8634 40.4766 41.6777L40.5947 41.75L40.7314 41.7754L55.9756 44.6035V44.6025C56.0121 44.6096 56.1465 44.6572 56.3916 44.8291C56.6239 44.992 56.9066 45.2317 57.2305 45.5518C57.8771 46.1909 58.6464 47.1071 59.4609 48.251C61.0893 50.5379 62.861 53.6842 64.165 57.2295C66.7837 64.349 67.4522 72.8604 61.6699 79.3711L60.3213 80.8887L62.333 80.6113C66.7564 80.0019 71.113 80.9607 74.3955 83.4277C77.6621 85.883 79.9322 89.8822 80.1182 95.5039L80.1475 96.3916L81.0176 96.2139C84.3475 95.5349 86.8342 94.288 89.3564 92.7842C91.8901 91.2736 94.398 89.5472 97.9141 87.7812L99.0684 87.2012L97.9932 86.4863C86.1624 78.6194 74.5688 64.5137 74.3428 49.5557C74.3192 47.9914 74.9037 45.3041 75.9844 42.207C77.0569 39.1337 78.5881 35.7419 80.3926 32.791C82.2078 29.8226 84.2528 27.3776 86.3232 26.1074C87.3485 25.4785 88.3469 25.1582 89.3076 25.1709C90.258 25.1835 91.2411 25.523 92.249 26.334L93.1904 27.0908L93.4512 25.9111L95.4043 17.0869C95.4438 16.9123 95.6164 16.6627 96.127 16.3652C96.6208 16.0776 97.2949 15.8239 98.0781 15.5752C98.4646 15.4525 98.8658 15.335 99.2734 15.2158C99.6784 15.0975 100.092 14.9772 100.488 14.8535C101.27 14.6099 102.052 14.3333 102.657 13.9834L102.815 13.8926L102.914 13.7383L111.08 0.941406Z" stroke="var(--stroke-0, #F3EEE1)" stroke-width="1.5"/>
</svg>
