<svg preserveAspectRatio="none" width="100%" height="100%" overflow="visible" style="display: block;" viewBox="0 0 152 134.1" fill="none" xmlns="http://www.w3.org/2000/svg">
<path id="Vector" d="M76.1426 0.945312C79.2571 2.4298 80.7408 5.10544 81.8135 8.07617C82.3993 9.69868 82.8082 11.2348 83.3437 12.8301C83.8571 14.3593 84.4585 15.8397 85.3652 17.0195L85.4248 17.0957L85.501 17.1553C90.5253 21.0463 93.4773 25.3068 94.2256 29.8057C94.9714 34.2905 93.5534 39.1716 89.5049 44.3701L87.877 46.46L90.3584 45.5332C94.3939 44.0267 98.3255 42.2878 102.314 41.2578C106.15 40.2676 109.932 39.967 113.703 41.1885L114.067 41.3115C118.578 42.8945 123.697 45.3673 128.28 48.3047C132.804 51.2037 136.749 54.5194 139.094 57.8311C140.035 67.1462 140.621 76.9705 150.881 82.5674L145.164 90.3975C144.449 91.3764 143.708 91.7906 142.975 91.8975C142.214 92.0083 141.341 91.807 140.348 91.3164H140.349C139.631 90.9583 139.181 90.5085 139.03 89.9277C138.876 89.3327 138.98 88.3887 139.864 86.9219L140.306 86.1895L139.521 85.8477C135.875 84.2553 131.831 82.3745 128.296 80.0713C124.752 77.7624 121.793 75.0749 120.234 71.9043L119.625 70.666L118.917 71.8506C117.931 73.5002 117.634 74.8434 117.556 76.2461C117.518 76.9253 117.531 77.6253 117.536 78.3467C117.538 78.6453 117.537 78.9522 117.533 79.2715L112.554 75.2207L111.896 74.6855L111.444 75.4043C109.038 79.2462 108.91 82.9733 108.886 85.916C108.873 87.4159 108.886 88.6316 108.688 89.6318C108.5 90.5905 108.137 91.2419 107.438 91.6826C107.25 91.8014 106.964 91.8855 106.513 91.9014C106.061 91.9173 105.504 91.8638 104.816 91.7588C104.13 91.6539 103.358 91.506 102.471 91.3438C101.59 91.1828 100.612 91.011 99.543 90.8672L98.0596 90.668L98.7871 91.9756C99.5061 93.2674 100.343 94.5078 101.192 95.7256C102.049 96.9528 102.911 98.1466 103.716 99.3867C105.293 101.816 106.585 104.332 107.001 107.27L103.828 118.001L103.785 118.146L103.802 118.297C104.141 121.337 103.67 123.981 102.403 126.018C101.239 127.889 99.3583 129.316 96.6455 130.068C95.6615 127.074 93.6167 124.46 91.1621 122.618C88.5211 120.637 85.3265 119.494 82.3604 119.81L82.0176 119.846L81.8223 120.129C81.6185 120.425 81.4513 120.852 81.3125 121.236C81.2386 121.441 81.1634 121.66 81.0898 121.874C81.0155 122.091 80.9421 122.305 80.8662 122.514C80.7112 122.939 80.5617 123.299 80.4131 123.554C80.3425 123.675 80.285 123.746 80.2471 123.785C79.7979 123.85 79.1345 123.664 78.4629 123.112C77.783 122.554 77.1894 121.692 76.9385 120.634V120.632C76.849 120.257 76.5947 120.01 76.3398 119.866C76.0937 119.727 75.8141 119.661 75.5518 119.634C75.0234 119.58 74.393 119.666 73.7686 119.866C72.7401 120.197 71.5858 120.888 70.8252 122.021L61.4365 115.34L60.4111 114.61L60.2568 115.859C59.4047 122.784 59.8626 128.226 54.4805 133.001C53.1395 131.337 51.1398 130.248 49.1807 129.286C46.8865 128.16 44.6352 127.198 42.9629 125.728L42.9619 125.727C38.8935 122.156 33.6948 115.559 30.4531 109.312C28.8303 106.186 27.7324 103.211 27.4785 100.787C27.2252 98.369 27.8174 96.6894 29.332 95.791L30.8643 94.8828L29.1436 94.4219C25.8311 93.5347 23.8594 94.8481 21.9365 95.665C18.5943 94.1836 16.7183 92.1772 15.8154 89.7607C14.8741 87.2415 14.9455 84.1668 15.7246 80.5654L16.042 79.0986L14.6787 79.7246C11.6312 81.1242 9.48942 81.8421 7.19629 81.2812V81.2803L7.05273 81.2393C6.3292 80.9951 5.53022 80.2234 4.95215 79.085C4.34766 77.8945 4.08406 76.487 4.35254 75.3086L4.41895 75.0166L4.2666 74.7598C1.18112 69.5652 0.136634 64.4212 1.0918 59.6523C2.04706 54.8836 5.02204 50.3889 10.1621 46.5303L10.8242 46.0332L10.2637 45.4238C7.23405 42.1256 6.21774 38.4656 6.80664 35.0957C7.3977 31.7137 9.6243 28.5196 13.2793 26.2158L13.6191 26.002L13.6299 25.6006C13.7038 22.7162 14.9711 20.2138 17.002 18.6396C18.8976 17.1704 21.505 16.4735 24.5361 17.084C24.39 18.6907 24.2119 20.7915 24.4307 22.7861C24.6796 25.0553 25.4622 27.392 27.5908 28.6895L27.709 28.7607L27.8447 28.7861L38.2822 30.7188C38.2571 30.7141 38.3164 30.7235 38.4756 30.835C38.6204 30.9364 38.803 31.091 39.0186 31.3037C39.449 31.7284 39.9673 32.3431 40.5195 33.1172C41.6231 34.6643 42.8259 36.7956 43.7109 39.1973C45.4916 44.0299 45.9207 49.7377 42.0479 54.0908L40.6973 55.6094L42.71 55.332C45.6869 54.9226 48.6056 55.5685 50.7959 57.2119C52.9701 58.8432 54.4939 61.5068 54.6191 65.2832L54.6494 66.1709L55.5186 65.9932C57.8351 65.5216 59.5637 64.6555 61.3018 63.6211C63.0512 62.5799 64.7489 61.4111 67.1465 60.209L68.3027 59.6299L67.2246 58.9141C59.1547 53.5573 51.2907 43.9783 51.1377 33.8672C51.1222 32.8417 51.5111 31.0378 52.249 28.9268C52.9787 26.8395 54.0197 24.5366 55.2451 22.5361C56.4812 20.5183 57.8576 18.8858 59.2275 18.0469C59.9025 17.6335 60.5426 17.4335 61.1445 17.4414C61.7361 17.4493 62.3595 17.6582 63.0137 18.1836L63.9541 18.9395L64.2158 17.7617L65.5527 11.7314C65.5576 11.71 65.6041 11.5834 65.9355 11.3906C66.2499 11.2078 66.6903 11.0411 67.2236 10.8721C67.4854 10.7891 67.7577 10.7094 68.0371 10.6279C68.3137 10.5472 68.5989 10.4642 68.873 10.3789C69.4095 10.212 69.9672 10.017 70.4062 9.76367L70.5645 9.67188L70.6631 9.51758L76.1426 0.945312Z" stroke="var(--stroke-0, #F3EEE1)" stroke-width="1.5"/>
</svg>
