<svg preserveAspectRatio="none" width="100%" height="100%" overflow="visible" style="display: block;" viewBox="0 0 127.247 134.1" fill="none" xmlns="http://www.w3.org/2000/svg">
<path id="Vector" d="M63.8086 1.01855C66.2605 2.49758 67.4754 5.10071 68.3633 8.03809C68.8532 9.65876 69.1991 11.2089 69.6445 12.7939C70.073 14.3183 70.5742 15.7913 71.3311 16.9678L71.3828 17.0479L71.4521 17.1123C75.6408 20.9872 78.1263 25.2507 78.7578 29.7861C79.3887 34.3174 78.1834 39.2249 74.7959 44.4209L73.4072 46.5518L75.7295 45.5156C79.1241 44.0019 82.3925 42.2734 85.7168 41.248C89.0038 40.2343 92.212 39.9588 95.4092 41.2959C99.1698 42.8723 103.443 45.3372 107.272 48.2686C111.056 51.1647 114.356 54.4808 116.317 57.7969C117.104 67.0967 117.576 76.93 126.22 82.5488L121.391 90.4492C120.785 91.4391 120.187 91.8074 119.653 91.9004C119.162 91.9859 118.582 91.865 117.895 91.5088L117.594 91.3418C117.033 91.0067 116.648 90.5704 116.515 89.9561C116.376 89.3154 116.479 88.3396 117.219 86.873L117.553 86.2119L116.896 85.8701C113.846 84.279 110.47 82.4031 107.521 80.1074C104.569 77.8101 102.093 75.1296 100.784 71.9502L100.157 70.4258L99.4199 71.9004C98.5992 73.5415 98.3548 74.8691 98.29 76.2529C98.2585 76.9272 98.2691 77.622 98.2734 78.3457C98.2748 78.5821 98.272 78.8239 98.2705 79.0732L94.3506 75.2646L93.6309 74.5645L93.1641 75.4541C91.1585 79.2792 91.0526 82.982 91.0322 85.917C91.0219 87.4105 91.0324 88.6407 90.8652 89.6543C90.7015 90.647 90.3858 91.2961 89.8262 91.7178C89.701 91.8119 89.5039 91.8878 89.1572 91.9023C88.8046 91.9171 88.3581 91.8669 87.7871 91.7627C87.2174 91.6587 86.5778 91.5117 85.8311 91.3486C85.0926 91.1874 84.2684 91.0149 83.3672 90.8701L81.9717 90.6455L82.5684 91.9268C83.1694 93.2167 83.8696 94.4566 84.5811 95.6748C85.2976 96.9016 86.0193 98.0954 86.6934 99.3359C88.0163 101.771 89.1082 104.306 89.4561 107.278L86.7939 118.033L86.7627 118.156L86.7744 118.283C87.0603 121.347 86.6633 124.015 85.5947 126.067C84.6421 127.897 83.1369 129.271 81.0088 130.021C80.182 127.082 78.4907 124.497 76.4404 122.66C74.2209 120.671 71.4928 119.483 68.9199 119.811L68.5508 119.857L68.3652 120.18C68.1974 120.471 68.0593 120.891 67.9434 121.274C67.8817 121.478 67.8194 121.696 67.7578 121.91C67.6956 122.127 67.6332 122.342 67.5693 122.552C67.4391 122.979 67.3131 123.343 67.1865 123.603C67.1417 123.694 67.1018 123.756 67.0732 123.798C66.7906 123.813 66.3291 123.664 65.8115 123.156C65.2543 122.609 64.7494 121.745 64.5342 120.66V120.659L64.501 120.529C64.3074 119.907 63.6966 119.687 63.2754 119.636C62.7867 119.576 62.2218 119.671 61.6787 119.88C60.813 120.212 59.8832 120.878 59.248 121.921L51.5537 115.379L50.4678 114.456L50.3213 115.874C49.616 122.72 49.9765 128.148 45.625 132.888C44.4999 131.309 42.8711 130.249 41.2744 129.312C39.345 128.181 37.4821 127.231 36.0947 125.773V125.772C32.6947 122.208 28.3418 115.611 25.625 109.358C24.2662 106.231 23.3403 103.244 23.126 100.8C22.9093 98.3289 23.4308 96.635 24.6689 95.7578L25.8945 94.8896L24.4639 94.4316C21.6507 93.5316 19.9091 94.8333 18.3662 95.6377C15.6686 94.183 14.1221 92.213 13.3672 89.7998C12.5706 87.2532 12.6341 84.1512 13.2881 80.54L13.5684 78.9922L12.1895 79.749C9.62704 81.1548 7.90903 81.8217 6.08594 81.2891H6.08496C5.82522 81.2135 5.50667 81.0036 5.1709 80.6172C4.84053 80.2369 4.52929 79.7259 4.27637 79.1309C3.76642 77.9311 3.53718 76.4966 3.76855 75.2832L3.81543 75.0352L3.70312 74.8086C1.11653 69.6068 0.232332 64.4359 1.03809 59.6299C1.84328 54.8278 4.34539 50.3321 8.63086 46.4893L9.14844 46.0254L8.72461 45.4736C3.68327 38.9176 5.18944 30.7312 11.2334 26.1807L11.5244 25.9619L11.5322 25.5977C11.595 22.6682 12.6747 20.1566 14.3584 18.5977C15.9001 17.1703 17.9884 16.4994 20.4199 17.0625C20.2971 18.6738 20.1459 20.7771 20.3291 22.7725C20.5341 25.0043 21.175 27.3387 22.9834 28.6553L23.1104 28.7471L23.2627 28.7812L32 30.7129V30.7139C31.9306 30.6984 31.955 30.684 32.0889 30.7959C32.2041 30.8923 32.3544 31.043 32.5342 31.2549C32.8926 31.6773 33.3253 32.2915 33.7881 33.0664C34.7124 34.6144 35.7216 36.7497 36.4648 39.1592C37.9621 44.0132 38.3244 49.7699 35.0684 54.1416L33.959 55.6299L35.791 55.3291C38.2153 54.9308 40.5974 55.5549 42.4004 57.1709C44.2024 58.7861 45.4965 61.4578 45.6025 65.2793L45.6279 66.2061L46.5293 65.9873C48.5046 65.507 49.9729 64.6249 51.4316 63.5879C52.905 62.5404 54.3148 61.3808 56.3154 60.1826L57.2461 59.625L56.3955 58.9512C49.6718 53.6196 43.0615 44.0383 42.9326 33.8691C42.9193 32.8214 43.2491 31.0016 43.8672 28.8896C44.4796 26.797 45.3535 24.4897 46.3809 22.4863C47.4203 20.4596 48.5701 18.8373 49.6973 18.0127C50.2502 17.6082 50.7448 17.4345 51.1836 17.4414C51.608 17.4481 52.0891 17.6255 52.626 18.1406L53.6289 19.1025L53.8828 17.7363L55.001 11.7041L55.002 11.7051C55.0127 11.6486 55.0629 11.5304 55.3105 11.3584C55.5578 11.1867 55.9105 11.0257 56.3525 10.8584C56.5689 10.7765 56.7944 10.6968 57.0283 10.6152C57.2591 10.5348 57.4997 10.4513 57.7314 10.3652C58.1835 10.1972 58.6674 9.9963 59.0518 9.73145L59.2021 9.62793L59.2881 9.46777L63.8086 1.01855Z" stroke="var(--stroke-0, #F3EEE1)" stroke-width="1.5"/>
</svg>
