<svg preserveAspectRatio="none" width="100%" height="100%" overflow="visible" style="display: block;" viewBox="0 0 185.847 196.2" fill="none" xmlns="http://www.w3.org/2000/svg">
<path id="Vector" d="M93.0586 1.00977C96.9677 3.20768 98.8385 7.22489 100.177 11.6602C100.89 14.0256 101.409 16.3382 102.05 18.624C102.674 20.8493 103.395 22.9619 104.471 24.6367L104.522 24.7178L104.592 24.7822C110.752 30.4908 114.433 36.7969 115.369 43.5322C116.305 50.2633 114.513 57.527 109.53 65.1826L108.144 67.3135L110.465 66.2764C115.393 64.075 120.208 61.5258 125.09 60.0176C129.783 58.5676 134.412 58.1274 139.034 59.9189L139.481 60.0986C145.003 62.4171 151.269 66.0391 156.884 70.3447C162.452 74.6148 167.331 79.5216 170.222 84.4482C170.814 91.4517 171.29 98.5817 173.246 104.928C175.165 111.155 178.521 116.672 184.818 120.669L177.589 132.517C176.671 134.02 175.723 134.643 174.815 134.801C173.998 134.943 173.072 134.735 172.028 134.193L171.574 133.94C170.698 133.416 170.056 132.708 169.835 131.688C169.608 130.643 169.794 129.129 170.894 126.945L171.226 126.285L170.57 125.943C166.112 123.614 161.159 120.857 156.825 117.479C152.489 114.098 148.822 110.131 146.879 105.401L146.251 103.875L145.514 105.352C144.34 107.702 143.992 109.595 143.899 111.58C143.854 112.555 143.87 113.56 143.876 114.624C143.88 115.22 143.878 115.842 143.864 116.503L137.562 110.368L136.841 109.666L136.374 110.558C133.487 116.074 133.329 121.418 133.3 125.706C133.285 127.877 133.301 129.712 133.051 131.229C132.82 132.633 132.378 133.644 131.567 134.336L131.4 134.47C131.143 134.663 130.779 134.785 130.231 134.808C129.677 134.831 128.995 134.751 128.153 134.598C127.314 134.444 126.37 134.228 125.285 133.99C124.209 133.755 123.013 133.504 121.706 133.294L120.311 133.069L120.906 134.351C121.777 136.223 122.792 138.024 123.83 139.805C124.873 141.594 125.933 143.35 126.921 145.171C128.872 148.768 130.497 152.54 131.004 156.979L127.1 172.776L127.069 172.9L127.081 173.026C127.503 177.553 126.92 181.53 125.319 184.609C123.835 187.464 121.457 189.587 118.082 190.682C116.932 186.302 114.444 182.441 111.413 179.721C108.217 176.851 104.328 175.177 100.703 175.639L100.334 175.686L100.147 176.008C99.9255 176.393 99.7344 176.97 99.5635 177.536C99.4744 177.831 99.3842 178.146 99.2939 178.461C99.2031 178.778 99.1117 179.096 99.0176 179.405C98.8267 180.033 98.6353 180.588 98.4375 180.993C98.3385 181.196 98.252 181.332 98.1836 181.413C98.1661 181.434 98.1511 181.446 98.1416 181.455C97.5881 181.56 96.7474 181.29 95.8789 180.437C95.0128 179.585 94.2424 178.258 93.915 176.604V176.604L93.877 176.453C93.6533 175.732 92.9406 175.452 92.374 175.383C91.7308 175.304 90.9636 175.429 90.207 175.72C88.9104 176.218 87.5072 177.258 86.627 178.916L75.0713 169.075L73.9854 168.15L73.8389 169.569C72.8008 179.663 73.3672 187.861 66.6006 194.98C65.0045 192.541 62.5598 190.935 60.1074 189.495C57.3172 187.856 54.5371 186.435 52.4678 184.257H52.4668C47.4687 179.008 41.0909 169.32 37.1094 160.14C35.1182 155.549 33.7504 151.139 33.4326 147.509C33.1126 143.852 33.869 141.21 35.8301 139.818L37.0537 138.95L35.625 138.492C31.5753 137.194 29.1762 139.124 26.8164 140.319C22.7048 138.143 20.3402 135.158 19.1943 131.488C18.0066 127.684 18.109 123.082 19.0684 117.775L19.3486 116.227L17.9687 116.984C14.2322 119.038 11.6053 120.09 8.79199 119.267H8.79102C8.32618 119.131 7.80733 118.773 7.29102 118.178C6.7803 117.589 6.30832 116.809 5.92773 115.912C5.16229 114.108 4.81134 111.938 5.16504 110.08L5.21191 109.832L5.09961 109.606C1.29479 101.941 -0.0152708 94.3014 1.17578 87.1855C2.36617 80.0737 6.06397 73.428 12.375 67.7588L12.8916 67.2949L12.4687 66.7441C4.9839 56.9933 7.22372 44.7971 16.1992 38.0273L16.4902 37.8076L16.498 37.4443C16.5914 33.0808 18.1965 29.3098 20.7363 26.9541C23.1338 24.7305 26.4061 23.7238 30.1904 24.6963C30.0079 27.0923 29.7602 30.2767 30.0361 33.2871C30.3335 36.5308 31.2569 39.8102 33.7705 41.6436L33.8975 41.7363L34.0498 41.7705L46.8115 44.5967V44.5977C46.7928 44.5935 46.8798 44.6166 47.0869 44.79C47.2754 44.9479 47.5089 45.1837 47.7793 45.5029C48.3188 46.1398 48.963 47.0552 49.6455 48.2002C51.0092 50.4879 52.4938 53.6376 53.5879 57.1904C55.7868 64.3313 56.3487 72.8914 51.4941 79.4209L50.3877 80.9102L52.2178 80.6084C55.8528 80.0101 59.4388 80.947 62.1562 83.3867C64.8729 85.8259 66.7923 89.8332 66.9492 95.5L66.9746 96.4277L67.876 96.208C70.6997 95.5202 72.8027 94.2574 74.918 92.751C77.0479 91.234 79.1361 89.516 82.0732 87.7539L83.002 87.1963L82.1533 86.5234C72.281 78.6817 62.5483 64.5737 62.3584 49.5576C62.3384 47.9712 62.8323 45.268 63.7373 42.1699C64.6367 39.091 65.9205 35.695 67.4326 32.7412C68.9569 29.7637 70.667 27.3291 72.3809 26.0732C73.2268 25.4533 74.0209 25.1594 74.7598 25.1709C75.4844 25.1823 76.2666 25.4894 77.0996 26.29L78.1035 27.2549L78.3574 25.8857L79.9922 17.0566C80.033 16.848 80.1898 16.6081 80.585 16.333C80.9824 16.0564 81.5304 15.8085 82.1816 15.5615C82.5026 15.4398 82.8362 15.3224 83.1777 15.2031C83.5162 15.085 83.8647 14.9644 84.1992 14.8398C84.8567 14.5951 85.5284 14.3126 86.0518 13.9512L86.2012 13.8486L86.2871 13.6875L93.0586 1.00977Z" stroke="var(--stroke-0, #F3EEE1)" stroke-width="1.5"/>
</svg>
