<svg width="41" height="41" viewBox="0 0 41 41" fill="none" xmlns="http://www.w3.org/2000/svg">
<path d="M10.5271 18.5776C10.4925 18.4686 10.4944 18.3845 10.5125 18.3208C10.5298 18.2599 10.5712 18.1846 10.6736 18.104C10.8791 17.9426 11.1977 17.8908 11.6365 17.9907C12.0685 18.0891 12.5327 18.319 12.9187 18.5864C14.3683 19.5909 15.4286 21.0231 16.2957 22.478C17.3004 24.164 18.0546 25.8996 18.7146 27.7075L19.6834 27.5698C19.7358 26.7858 19.5864 26.0596 19.4832 25.397C19.4231 25.0117 19.326 24.6314 19.2498 24.2954C19.171 23.9478 19.1092 23.6272 19.0935 23.3022L18.6912 14.9741C18.6619 14.3676 18.7107 13.8952 18.992 13.479C19.3483 12.9519 19.7258 12.2347 19.4636 11.4048C19.4491 11.3588 19.4423 11.3255 19.4383 11.3032C19.5317 11.2242 19.8059 11.0103 19.9529 10.6089C20.1514 10.0666 20.2567 9.52819 20.3152 8.97901C20.3327 8.81484 20.3784 8.66926 20.4343 8.57666C20.4608 8.5329 20.4826 8.51216 20.4929 8.5044C20.4945 8.50325 20.4959 8.50205 20.4968 8.50147L20.4988 8.50049L20.4978 8.50147C20.5176 8.49955 20.5265 8.50225 20.533 8.50537C20.5423 8.50989 20.5625 8.52291 20.5886 8.55615C20.6452 8.62809 20.6998 8.76022 20.7146 8.93018C20.7441 9.26993 20.7962 9.71223 20.9109 10.1294C21.0215 10.5312 21.2127 10.9963 21.5818 11.2964C21.5856 11.2995 21.5881 11.3042 21.5916 11.3071C21.4743 11.6767 21.4618 12.0129 21.5232 12.3286C21.5888 12.6656 21.7336 12.9542 21.864 13.1938C22.1382 13.6975 22.3583 14.0364 22.3347 14.562L21.9509 23.1304C21.9342 23.5028 21.8689 23.8664 21.7869 24.2515C21.7073 24.625 21.6055 25.0414 21.5388 25.4605C21.433 26.1257 21.2955 26.8367 21.3347 27.6118L22.3064 27.7495C23.0003 25.7409 23.8792 23.8101 25.0691 21.9663C25.8782 20.7127 26.9519 19.4213 28.2771 18.6235C28.6478 18.4004 29.0971 18.2285 29.5037 18.1714C29.9242 18.1124 30.1995 18.1865 30.3445 18.3159C30.4603 18.4192 30.4889 18.4965 30.4968 18.5405C30.5052 18.5872 30.5008 18.6585 30.449 18.7642C30.336 18.9946 30.0511 19.2763 29.6316 19.5415C28.4358 20.2976 27.3924 21.1298 26.4412 22.1021C24.2136 24.3789 22.6412 26.9915 21.7615 29.8188L21.7586 29.8276L21.7566 29.8364L20.7644 33.4771L20.5008 34.2075C20.485 34.169 20.4671 34.1284 20.451 34.0845C20.3147 33.7148 20.2055 33.2725 20.1209 32.9487L19.4207 30.27C18.7468 27.6912 17.3743 25.3373 15.5789 23.186C14.349 21.7125 12.8919 20.4445 11.1961 19.3413C10.8216 19.0977 10.6 18.8071 10.5271 18.5776Z" fill="#F3EEE1" stroke="#F3EEE1"/>
<circle cx="20.5" cy="20.5" r="20" transform="rotate(90 20.5 20.5)" stroke="#F3EEE1"/>
</svg>
