<svg width="214" height="44" viewBox="0 0 214 44" fill="none" xmlns="http://www.w3.org/2000/svg">
<path d="M197.93 3.6875L197.935 8.3291L197.936 8.77441L198.377 8.8252C204.663 9.55213 209.27 15.424 209.124 22.46C208.985 29.1438 204.421 34.6454 198.464 35.3184L198.299 35.3379L198.178 35.4512L198.056 35.5664L197.897 35.7148V40.3115H16.0664L16.0586 35.8389L16.0576 35.3936L15.6152 35.3428C14.0483 35.1643 12.5542 34.6698 11.2021 33.8359L11.1943 33.8311C6.09748 30.8141 3.70265 24.2779 5.4277 18.1592C6.85897 13.0823 10.8327 9.39374 15.6308 8.83594L16.0713 8.78516L16.0732 8.3418L16.0908 3.6875H197.93Z" fill="#FD6500" stroke="#FD6500"/>
<path d="M200.948 43.5L13.1424 43.4968C12.4765 43.4944 11.9639 42.9872 11.9643 42.3214L11.9668 38.0722C9.0753 37.2592 6.53679 35.5753 4.57617 33.283C0.419075 28.4228 -0.639279 21.5618 1.77494 15.5985C3.58546 11.1263 7.33288 7.37353 12.0126 6.03076L12.0266 1.65521C12.0285 1.0734 12.5244 0.5 13.1478 0.5L200.775 0.502146C201.467 0.499163 201.995 1.03387 201.995 1.71946L201.998 6.04614C203.451 6.43127 204.771 7.01896 205.996 7.84413C210.782 11.0687 213.566 16.5254 213.499 22.3697C213.437 27.8007 210.838 32.8781 206.454 35.9763C205.087 36.9419 203.629 37.6492 201.981 38.0591L201.966 42.3805C201.964 42.9398 201.56 43.4062 200.948 43.5ZM200.696 42.6975C200.978 42.7142 201.175 42.5779 201.175 42.3244L201.179 37.4462C202.535 37.1406 203.766 36.671 204.96 35.9678C209.689 33.1828 212.607 28.0062 212.7 22.4457C212.795 16.7962 210.084 11.4963 205.424 8.43138C204.142 7.58823 202.753 7.00326 201.216 6.67366L201.206 1.64226C201.205 1.46672 200.958 1.29846 200.773 1.31925L13.2222 1.31649C12.9674 1.34641 12.8185 1.49116 12.8185 1.71425L12.8182 6.66652C7.49697 7.91192 3.46065 12.3716 1.9436 17.6106C-0.176398 24.932 3.08142 33.0292 9.81893 36.3907C10.7733 36.8668 11.6984 37.2057 12.7466 37.4384L12.7456 42.1715C12.7456 42.4762 12.8628 42.696 13.2239 42.696L200.696 42.6975Z" fill="#FD6500" stroke="#FD6500"/>
<path d="M20.5841 26.6389L17.2101 16.6289H19.3381L21.1021 22.4249C21.2981 23.0829 21.5361 24.0209 21.5361 24.0209H21.5641C21.5641 24.0209 21.8021 23.0689 21.9981 22.4249L23.7481 16.6289H25.8061L22.4321 26.6389H20.5841ZM31.3502 26.8629C28.3962 26.8629 26.5202 24.6509 26.5202 21.6549C26.5202 18.6589 28.3962 16.4329 31.3502 16.4329C34.3042 16.4329 36.1662 18.6589 36.1662 21.6549C36.1662 24.6509 34.3042 26.8629 31.3502 26.8629ZM31.3642 25.1969C33.1982 25.1969 34.0942 23.6429 34.0942 21.6549C34.0942 19.6529 33.1982 18.0989 31.3642 18.0989C29.5302 18.0989 28.5922 19.6529 28.5922 21.6549C28.5922 23.6429 29.5302 25.1969 31.3642 25.1969ZM38.1165 26.6389V16.6289H40.1465V24.9449H44.8505V26.6389H38.1165ZM48.2194 26.6389L44.8454 16.6289H46.9734L48.7374 22.4249C48.9334 23.0829 49.1714 24.0209 49.1714 24.0209H49.1994C49.1994 24.0209 49.4374 23.0689 49.6334 22.4249L51.3834 16.6289H53.4414L50.0674 26.6389H48.2194ZM55.0817 26.6389V16.6289H62.4457V18.3369H57.1117V20.5769H61.7877V22.2429H57.1117V24.9449H62.4877V26.6389H55.0817ZM64.5896 26.6389V16.6289H69.1816C71.1136 16.6289 72.4016 17.7489 72.4016 19.4149C72.4016 20.5909 71.8556 21.4869 70.5676 21.8369V21.8789C71.4916 22.1449 71.9676 22.6769 72.0936 23.8949C72.2336 25.3089 72.1776 26.3869 72.5276 26.5409V26.6389H70.5816C70.3296 26.5269 70.3016 25.4069 70.2176 24.3289C70.1336 23.2369 69.5176 22.6209 68.2576 22.6209H66.6196V26.6389H64.5896ZM66.6196 18.2669V21.0529H68.7756C69.8816 21.0529 70.4276 20.4789 70.4276 19.6809C70.4276 18.8689 69.9096 18.2669 68.8316 18.2669H66.6196ZM77.0123 26.6389L80.4983 16.6289H82.5983L86.1263 26.6389H84.0123L83.3403 24.5109H79.7283L79.0703 26.6389H77.0123ZM81.1003 20.0729L80.2043 22.9569H82.8503L81.9543 20.0729C81.7863 19.5409 81.5483 18.5329 81.5483 18.5329H81.5203C81.5203 18.5329 81.2683 19.5409 81.1003 20.0729ZM91.0004 26.6389V16.6289H93.0304V24.9449H97.7344V26.6389H91.0004ZM99.0011 26.6389L102.487 16.6289H104.587L108.115 26.6389H106.001L105.329 24.5109H101.717L101.059 26.6389H99.0011ZM103.089 20.0729L102.193 22.9569H104.839L103.943 20.0729C103.775 19.5409 103.537 18.5329 103.537 18.5329H103.509C103.509 18.5329 103.257 19.5409 103.089 20.0729ZM117.371 26.8489C114.557 26.8489 112.555 24.6789 112.555 21.6689C112.555 18.7009 114.403 16.4329 117.357 16.4329C119.821 16.4329 121.277 17.9029 121.487 19.8069H119.471C119.289 18.7989 118.533 18.1409 117.357 18.1409C115.509 18.1409 114.627 19.6809 114.627 21.6689C114.627 23.7129 115.691 25.1829 117.371 25.1829C118.561 25.1829 119.401 24.4689 119.527 23.4189H121.515C121.459 24.3009 121.081 25.1549 120.409 25.7849C119.723 26.4289 118.757 26.8489 117.371 26.8489ZM127.795 26.8629C124.841 26.8629 122.965 24.6509 122.965 21.6549C122.965 18.6589 124.841 16.4329 127.795 16.4329C130.749 16.4329 132.611 18.6589 132.611 21.6549C132.611 24.6509 130.749 26.8629 127.795 26.8629ZM127.809 25.1969C129.643 25.1969 130.539 23.6429 130.539 21.6549C130.539 19.6529 129.643 18.0989 127.809 18.0989C125.975 18.0989 125.037 19.6529 125.037 21.6549C125.037 23.6429 125.975 25.1969 127.809 25.1969ZM134.562 26.6389V16.6289H136.592V24.9449H141.296V26.6389H134.562ZM143.222 26.6389V16.6289H150.586V18.3369H145.252V20.5769H149.928V22.2429H145.252V24.9449H150.628V26.6389H143.222ZM156.907 26.8489C154.093 26.8489 152.091 24.6789 152.091 21.6689C152.091 18.7009 153.939 16.4329 156.893 16.4329C159.357 16.4329 160.813 17.9029 161.023 19.8069H159.007C158.825 18.7989 158.069 18.1409 156.893 18.1409C155.045 18.1409 154.163 19.6809 154.163 21.6689C154.163 23.7129 155.227 25.1829 156.907 25.1829C158.097 25.1829 158.937 24.4689 159.063 23.4189H161.051C160.995 24.3009 160.617 25.1549 159.945 25.7849C159.259 26.4289 158.293 26.8489 156.907 26.8489ZM167.317 26.8489C164.503 26.8489 162.501 24.6789 162.501 21.6689C162.501 18.7009 164.349 16.4329 167.303 16.4329C169.767 16.4329 171.223 17.9029 171.433 19.8069H169.417C169.235 18.7989 168.479 18.1409 167.303 18.1409C165.455 18.1409 164.573 19.6809 164.573 21.6689C164.573 23.7129 165.637 25.1829 167.317 25.1829C168.507 25.1829 169.347 24.4689 169.473 23.4189H171.461C171.405 24.3009 171.027 25.1549 170.355 25.7849C169.669 26.4289 168.703 26.8489 167.317 26.8489ZM173.36 26.6389V16.6289H175.39V26.6389H173.36ZM182.177 26.8629C179.223 26.8629 177.347 24.6509 177.347 21.6549C177.347 18.6589 179.223 16.4329 182.177 16.4329C185.131 16.4329 186.993 18.6589 186.993 21.6549C186.993 24.6509 185.131 26.8629 182.177 26.8629ZM182.191 25.1969C184.025 25.1969 184.921 23.6429 184.921 21.6549C184.921 19.6529 184.025 18.0989 182.191 18.0989C180.357 18.0989 179.419 19.6529 179.419 21.6549C179.419 23.6429 180.357 25.1969 182.191 25.1969ZM184.221 14.3469L182.891 16.0969H181.407L181.995 14.3469H184.221ZM188.944 26.6389V16.6289H191.002L194.334 22.2149C194.656 22.7609 195.034 23.6149 195.034 23.6149H195.062C195.062 23.6149 195.006 22.5789 195.006 21.8789V16.6289H197.008V26.6389H195.048L191.632 21.1089C191.31 20.5769 190.918 19.7229 190.918 19.7229H190.89C190.89 19.7229 190.946 20.7729 190.946 21.4729V26.6389H188.944Z" fill="#F3EEE1"/>
</svg>
