<svg width="531" height="321" viewBox="0 0 531 321" fill="none" xmlns="http://www.w3.org/2000/svg">
<g clip-path="url(#clip0_279_5492)">
<rect width="532" height="321" fill="#141414"/>
<g clip-path="url(#clip1_279_5492)">
<path d="M293.29 309.453H296.168C295.287 309.121 294.259 309.15 293.29 309.453Z" fill="#F3EEE1"/>
<path d="M285.693 309.453H287.866C287.318 309.277 286.603 309.268 285.693 309.453Z" fill="#F3EEE1"/>
<path d="M420.279 122.072C420.103 121.799 416.304 121.613 413.495 122.072H417.244H420.279Z" fill="#F3EEE1"/>
<path d="M408.795 122.072H409.646C409.372 121.896 409.069 121.896 408.795 122.072Z" fill="#F3EEE1"/>
<path d="M151.879 121.984C151.673 121.916 151.439 121.877 151.184 121.867C150.714 121.906 150.254 121.935 149.784 121.984H151.879Z" fill="#F3EEE1"/>
<path d="M424.793 121.847C424.254 121.877 423.755 121.945 423.324 122.072H427.652L424.793 121.847Z" fill="#F3EEE1"/>
<path d="M154.474 121.984H155.168C154.953 121.857 154.718 121.857 154.474 121.984Z" fill="#F3EEE1"/>
<path d="M163.647 121.984H168.219C166.29 121.633 164.773 121.642 163.647 121.984Z" fill="#F3EEE1"/>
<path d="M158.997 121.984H160.328C159.897 121.779 159.418 121.779 158.997 121.984Z" fill="#F3EEE1"/>
<path d="M403.303 122.072C403.117 122.014 402.911 121.975 402.686 121.955L401.237 122.072H403.303Z" fill="#F3EEE1"/>
<path d="M174.504 285.05C174.504 285.05 174.543 284.963 174.582 284.914C174.504 284.934 174.485 284.982 174.504 285.05Z" fill="#F3EEE1"/>
<path d="M178.342 309.444H180.114C179.879 309.424 179.644 309.414 179.419 309.395C179.037 309.375 178.675 309.395 178.342 309.444Z" fill="#F3EEE1"/>
<path d="M285.859 183.992H288.718C288.013 183.767 287.063 183.757 285.859 183.992Z" fill="#F3EEE1"/>
<path d="M299.389 183.962C299.389 183.962 299.301 183.982 299.252 183.992H300.456C300.084 184.001 299.732 183.992 299.379 183.962H299.389Z" fill="#F3EEE1"/>
<path d="M412.878 309.609H414.572C414.023 309.238 413.456 309.267 412.878 309.609Z" fill="#F3EEE1"/>
<path d="M151.399 309.395L150.763 309.443H151.722C151.624 309.414 151.517 309.404 151.399 309.395Z" fill="#F3EEE1"/>
<path d="M161.816 246.918H163.559C162.952 246.586 162.355 246.556 161.816 246.918Z" fill="#F3EEE1"/>
<path d="M40.4854 309.492H43.5105C42.5511 309.17 41.4252 309.17 40.4854 309.492Z" fill="#F3EEE1"/>
<path d="M37.147 309.492H37.7825C37.5674 309.316 37.3523 309.316 37.147 309.492Z" fill="#F3EEE1"/>
<path d="M34.8755 309.492H35.5404C35.2862 309.258 35.0319 309.228 34.8755 309.492Z" fill="#F3EEE1"/>
<path d="M158.517 246.928H159.476C159.163 246.742 158.83 246.742 158.517 246.928Z" fill="#F3EEE1"/>
<path d="M46.9077 309.492H48.6504C48.0923 309.238 47.4658 309.238 46.9077 309.492Z" fill="#F3EEE1"/>
<path d="M299.742 222.505C299.771 222.447 299.79 222.388 299.829 222.32C299.751 222.359 299.732 222.427 299.742 222.505Z" fill="#F3EEE1"/>
<path d="M299.585 309.453H302.414L300.309 309.297C300.045 309.326 299.8 309.375 299.585 309.453Z" fill="#F3EEE1"/>
<path d="M153.847 309.443H156.275C155.247 309.238 154.444 309.248 153.847 309.443Z" fill="#F3EEE1"/>
<path d="M163.872 309.443H175.346C175.023 308.974 164.156 308.945 163.872 309.443Z" fill="#F3EEE1"/>
<path d="M37.656 122.092H39.8882C39.1735 121.809 38.3511 121.809 37.656 122.092Z" fill="#F3EEE1"/>
<path d="M30.0686 122.092H34.2197C33.2015 121.779 31.8211 121.779 30.0686 122.092Z" fill="#F3EEE1"/>
<path d="M42.9526 122.092H45.7135C44.5485 121.857 43.638 121.867 42.9526 122.092Z" fill="#F3EEE1"/>
<path d="M161.092 309.443H162.061C161.748 309.258 161.405 309.258 161.092 309.443Z" fill="#F3EEE1"/>
<path d="M121.51 57.9636L110.887 58.55L111.612 67.8047C112.062 67.7461 112.6 67.277 112.61 66.8274L112.679 59.9084L148.785 60.1625C158.086 60.2309 166.897 60.2407 176.208 60.2016L215.721 60.0647C216.632 62.9184 216.397 64.7947 216.319 66.8372L217.298 67.8145L217.2 59.0386L171.401 58.9507L171.293 -169.905C171.283 -170.179 170.755 -170.57 170.383 -170.482L169.854 -43.4277L170.402 59.0875C169.639 58.9702 169.032 58.9897 168.337 59.1266L168.669 -170.668C167.72 -170.189 167.387 -169.759 167.387 -168.283V58.7357C164.93 59.2243 163.02 59.0288 160.955 58.8725L160.465 46.2364C160.406 44.7412 161.307 43.6858 162.081 42.8942C159.564 40.4803 159.741 36.7863 162.648 34.6656C160.798 33.1411 160.534 32.1345 160.534 29.6034L160.563 -169.886C160.514 -170.16 160.005 -170.55 159.613 -170.502L159.545 58.6868C159.545 59.2927 157.538 59.2927 157.959 58.2177C158.135 57.7682 157.685 56.9082 157.675 55.8918L157.597 -169.896C157.548 -170.16 157.068 -170.55 156.666 -170.511L156.588 58.8725L128.304 58.9116L121.5 57.9636H121.51Z" fill="#F3EEE1"/>
<path d="M4.86841 58.7454L-13.5275 59.1168L-13.6548 67.4822C-13.1751 67.746 -12.6366 67.277 -12.6268 66.8177L-12.5191 59.9768L22.6182 59.9377C32.5064 60.7586 42.0421 60.8368 51.9303 59.9377L90.9739 59.9768L91.0815 66.8177L92.0508 68.7135L91.9823 58.9995L46.6729 59.0191L46.0757 49.9989V-169.896C46.0267 -170.169 45.5274 -170.55 45.126 -170.502L45.0966 58.7454C43.6281 59.0777 43.2071 58.5891 43.2071 56.8984L43.1288 -169.896C43.0798 -170.16 42.6001 -170.55 42.1987 -170.502L42.1596 58.6966C40.0155 59.2341 38.4197 59.0875 36.1092 58.7454L35.2085 48.2789C35.0127 45.9823 35.4336 44.2233 36.863 42.8942C34.3273 40.4901 34.5427 36.8156 37.3917 34.6558C36.0504 33.4538 35.3162 32.6622 35.3162 30.6099L35.2966 -170.492C34.905 -170.55 34.3959 -170.169 34.3665 -169.896L34.2882 59.4197C31.9875 57.9538 32.4476 55.5204 32.4476 52.9698L32.3791 -169.876C32.3301 -170.14 31.8504 -170.531 31.449 -170.492L31.3903 58.8432L13.9244 58.7552C10.5272 58.7357 8.28522 58.7063 4.88799 58.7747L4.86841 58.7454Z" fill="#F3EEE1"/>
<path d="M370.868 58.0516L361.685 58.55L361.773 68.6061C362.546 67.7852 363.065 67.2965 363.065 66.8372L363.094 59.9475L400.258 60.1332C405.222 60.1527 409.941 61.042 414.924 59.9768L465.794 60.0061C466.245 60.0061 466.724 59.4589 466.764 59.0289H421.748L421.767 -169.182C421.767 -170.16 421.131 -170.414 420.779 -170.404V59.0289H418.821V-169.984C418.684 -170.287 418.341 -170.492 417.842 -170.13V58.7455C415.404 59.2927 413.475 59.1364 411.262 58.8627L410.91 46.2169C410.871 44.8683 411.527 43.7933 412.574 42.9724C410.068 40.3631 410.195 37.3922 412.8 34.6754C411.586 33.0922 410.969 32.1443 410.969 29.5936V-170.502C410.577 -170.57 410.049 -170.169 410.019 -169.896L409.53 -49.2815L410.107 59.068C409.353 58.98 408.707 58.9898 408.022 59.1168L408.355 -170.677C407.846 -170.619 407.111 -170.423 407.111 -169.935L407.033 58.9214L379.738 58.8432C376.781 58.8432 374.099 57.8659 370.848 58.0418L370.868 58.0516Z" fill="#F3EEE1"/>
<path d="M236.614 58.7748C236.908 59.4491 237.397 59.9866 237.848 59.9866H285.771C290.744 60.6805 295.493 60.7196 300.456 59.9866H341.438L341.556 66.8177C341.556 67.2672 342.104 67.7461 342.535 67.795L342.427 59.0093L296.638 58.9409L296.53 -169.935C296.53 -170.238 295.992 -170.57 295.679 -170.482L294.964 -113.664L295.728 59.0777C294.817 58.9214 294.298 58.9702 293.652 59.0973L293.153 -170.746L292.507 58.6771C290.177 59.2634 288.248 59.0973 285.781 58.8823L285.702 46.2072C285.702 44.8585 286.349 43.7835 287.328 42.9431C284.968 40.6172 284.939 36.8645 287.494 34.3041C286.026 32.9554 285.771 31.9782 285.771 29.5741V-170.502C285.36 -170.56 284.841 -170.179 284.821 -169.905L284.772 59.1071C284.156 58.9605 283.5 58.9605 282.883 59.1071L282.844 -169.896C282.795 -170.169 282.305 -170.55 281.904 -170.511L281.874 58.9898L253.453 58.8334C247.795 58.8041 241.92 56.8398 236.624 58.7748H236.614Z" fill="#F3EEE1"/>
<path d="M510.791 59.0289C508.833 59.0289 506.424 58.4328 504.946 60.0159L591.786 59.9866C592.255 61.648 592.079 62.7914 592.001 63.9152H592.98L592.804 59.0191L546.995 58.9996L547.015 -169.192C547.015 -170.159 546.378 -170.423 546.026 -170.414V59.0191H544.068V-169.984C543.931 -170.287 543.588 -170.492 543.089 -170.13V58.7553C540.631 59.283 538.712 59.1462 536.236 58.8921L536.167 46.2267C536.167 44.8879 536.794 43.7835 537.822 42.9822C536.265 41.5652 536.05 39.8647 536.069 38.0177C536.098 35.9263 537.166 34.7829 539.251 34.2063C538.262 33.2095 537.391 33.5516 537.038 33.3561C536.265 32.9163 536.226 32.2323 536.226 30.5807V-170.502C535.815 -170.56 535.296 -170.179 535.266 -169.905V-100.109V59.0289H533.308C532.956 -170.414 532.329 -170.159 532.329 -169.182V58.9605L510.781 59.0387L510.791 59.0289Z" fill="#F3EEE1"/>
<path d="M418.84 59.0191H420.798V-170.414L418.84 -169.436V59.0191Z" fill="#F3EEE1"/>
<path d="M300.476 353.811L300.642 347.977L403.283 348.006C403.89 350.577 403.166 352.746 403.186 354.837L403.166 355.863L405.153 356.753L404.732 346.55L359.531 346.462L358.875 296.319C358.052 296.71 358.199 297.169 358.199 297.716L358.062 346.482L356.545 346.228L356.202 296.758C356.202 296.436 355.673 296.123 355.38 296.211L355.243 346.198C353.157 346.648 351.454 346.58 348.644 346.365L348.301 296.749C348.301 296.426 347.88 296.143 347.557 296.211L347.273 346.501L345.775 346.228L345.433 296.749C345.247 296.377 344.953 296.211 344.62 296.192L344.346 346.443L300.818 346.003C299.213 348.368 298.763 351.71 300.476 353.801V353.811Z" fill="#F3EEE1"/>
<path d="M91.9821 307.978H47.0546L47.0448 271.916C47.0448 271.232 46.4574 270.822 46.0755 270.881V308.877L54.9553 308.896C55.9931 308.896 56.7274 309.287 56.835 309.492H91.0814V316.773H-12.6857V309.492H25.5355C26.6614 308.583 28.7761 308.789 30.4111 309.004C30.6167 308.74 30.3915 308.036 30.0782 308.036L-14.0857 308.105L-13.4102 318.737H91.943L91.9821 307.987V307.978Z" fill="#F3EEE1"/>
<path d="M-13.4101 131.278H91.943L91.9822 120.518H47.084L47.0938 103.856C47.0938 102.81 46.7315 102.087 46.0756 101.97V121.486C48.1903 121.339 50.0211 121.378 50.9609 122.082H91.0717V129.304H-12.7052V122.082H27.4741L31.4 120.694H-14.1052L-13.4199 131.268L-13.4101 131.278Z" fill="#F3EEE1"/>
<path d="M45.0566 121.066L44.8225 121.388C44.9006 121.397 44.9786 121.417 45.0566 121.417V121.066Z" fill="#F3EEE1"/>
<path d="M342.447 307.968L296.56 308.036C296.56 309.864 300.721 307.978 302.414 309.453H341.546V316.89H237.74V309.453H278.927L281.864 308.036L236.663 307.997L236.487 318.571L342.29 318.669L342.437 307.978L342.447 307.968Z" fill="#F3EEE1"/>
<path d="M300.319 309.297L302.424 309.453C301.602 309.277 300.917 309.238 300.319 309.297Z" fill="#F3EEE1"/>
<path d="M427.652 122.072C426.565 121.867 425.625 121.808 424.793 121.848L427.652 122.072Z" fill="#F3EEE1"/>
<path d="M427.651 122.072H466.783V129.412H362.977V122.082H403.293H401.227C402.921 120.538 407.102 122.414 407.102 120.597L361.831 120.548L361.704 131.102L467.517 131.181L467.674 120.528L421.777 120.597C421.777 122.424 425.938 120.538 427.632 122.082L427.651 122.072Z" fill="#F3EEE1"/>
<path d="M401.237 122.072L402.686 121.955C402.265 121.926 401.786 121.955 401.237 122.072Z" fill="#F3EEE1"/>
<path d="M223.192 109.309C222.996 108.918 222.633 108.762 222.32 108.762L222.036 159.443C221.596 159.277 220.989 159.14 220.734 159.159L220.176 109.299C220.176 108.967 219.677 108.674 219.383 108.762L219.129 158.651C216.622 159.853 214.018 158.602 211.424 158.632L173.966 158.974C174.299 160.029 174.769 160.528 175.229 160.528L277.958 160.547C278.409 160.547 278.888 160.01 279.329 158.944L233.902 158.534L234.147 136.116C234.196 131.513 235.312 127.985 234.206 123.284L233.628 108.83C233.55 108.752 232.992 108.879 232.992 109.309L232.845 159.619H231.122L230.975 109.309C230.975 109.006 230.456 108.674 230.143 108.762L230.015 159.404C227.764 159.863 225.766 159.726 223.613 158.993C222.673 148.664 223.378 138.559 223.319 128.2L223.201 109.309H223.192Z" fill="#F3EEE1"/>
<path d="M467.674 307.968L421.787 308.026C421.787 310.01 426.379 307.831 428.621 309.658H424.9L466.284 309.776L466.264 317.252L362.928 316.929L362.947 309.453L400.248 309.571C402.481 307.841 407.102 310.01 407.102 308.036L361.929 307.978L361.714 318.542L467.537 318.698L467.664 307.978L467.674 307.968Z" fill="#F3EEE1"/>
<path d="M151.184 121.867C150.773 121.847 150.313 121.886 149.784 121.984C150.254 121.935 150.714 121.906 151.184 121.867Z" fill="#F3EEE1"/>
<path d="M177.177 121.984H216.309V129.441H112.522V121.984H149.774C152.006 120.391 156.627 122.561 156.627 120.587L111.455 120.558L111.171 131.073L217.17 131.317L217.21 120.528L171.323 120.597C171.323 122.424 175.483 120.538 177.177 121.994V121.984Z" fill="#F3EEE1"/>
<path d="M294.21 -83.9744C294.366 -36.4695 294.523 10.967 294.679 58.3155C294.787 10.8693 294.63 -36.5672 294.21 -83.9744Z" fill="#F3EEE1"/>
<path d="M295.718 59.0973L294.954 -113.644L294.112 -112.96C294.142 -103.285 294.171 -93.6396 294.21 -83.9744C294.631 -36.5575 294.788 10.8692 294.68 58.3155C294.523 10.9669 294.367 -36.4793 294.21 -83.9744C293.956 -112.901 293.603 -141.819 293.143 -170.726L293.642 59.1168C294.279 58.9898 294.807 58.9409 295.718 59.0973Z" fill="#F3EEE1"/>
<path d="M-75.0985 292.371C-75.3824 289.898 -75.451 287.983 -75.03 285.52H27.5525C28.2085 286.292 29.119 287.514 29.3148 288.491C29.5204 287.387 29.6378 286.097 29.256 284.67L8.2265 284.201C5.05445 284.132 2.99851 283.575 -0.202911 284.171C-5.35259 285.139 -10.6785 284.513 -16.3764 284.279L-16.4254 249.332C-16.4254 244.094 -13.4296 238.25 -17.1401 232.933L-17.61 284.494C-18.3933 284.455 -19.4604 283.556 -19.4604 282.637V234.282C-19.4604 233.969 -20.0184 233.647 -20.3121 233.744L-20.5079 284.269C-21.9569 285.07 -26.6954 284.953 -26.901 283.438L-27.4101 260.111C-27.459 258.039 -26.9989 256.407 -25.6185 254.971C-28.1444 252.567 -28.115 248.833 -25.6185 246.175C-29.0646 243.126 -26.0003 238.201 -28.0758 233.705L-28.3402 284.582C-30.2786 283.976 -30.8954 281.64 -30.1807 279.803C-28.673 275.904 -29.564 272.61 -29.6031 268.936C-29.6325 266.112 -29.1528 263.883 -29.8283 260.805C-32.1975 250.045 -26.4506 238.396 -30.8563 232.953L-31.2675 284.533L-53.4816 284.289C-59.111 284.23 -64.4173 285.364 -70.2719 283.839L-76.0677 284.699L-76.2146 293.358L-51.6508 292.801L-75.0887 292.39L-75.0985 292.371Z" fill="#F3EEE1"/>
<path d="M342.378 245.521L299.546 245.501C298.851 245.501 298.44 246.107 298.528 246.478C300.192 246.361 302.277 246.068 303.393 247.377L341.096 247.328V254.375L237.838 254.502V247.456L277.948 247.407L281.874 245.677L236.937 245.491L236.976 256.28L342.29 256.095L342.368 245.53L342.378 245.521Z" fill="#F3EEE1"/>
<path d="M150.763 309.443L151.399 309.395C151.213 309.395 150.998 309.395 150.763 309.443Z" fill="#F3EEE1"/>
<path d="M217.209 307.968L171.342 308.075C171.342 310.147 176.962 307.704 180.114 309.434H216.319V316.763H112.522V309.434H150.763C152.457 307.978 156.637 309.844 156.637 308.026L111.484 307.997C110.721 311.525 111.308 314.887 111.915 318.718H217.18L217.219 307.958L217.209 307.968Z" fill="#F3EEE1"/>
<path d="M180.113 309.443C179.869 309.424 179.644 309.404 179.419 309.395C179.654 309.414 179.889 309.424 180.113 309.443Z" fill="#F3EEE1"/>
<path d="M217.219 245.481L174.309 245.501C173.613 245.501 173.202 246.097 173.31 246.488C175.924 246.547 178.979 245.794 181.093 246.898L216.319 246.859V254.277L112.532 254.375V246.957L148.805 246.918C151.585 245.266 156.637 247.602 156.637 245.53L111.2 245.628L111.24 256.007L217.17 256.261L217.21 245.462L217.219 245.481Z" fill="#F3EEE1"/>
<path d="M425.693 160.547L528.423 160.528C528.883 160.528 529.343 160.029 529.588 158.925C526.435 159.922 523.528 158.808 520.581 158.827L484.68 159.091L484.347 109.299C484.347 108.967 483.828 108.674 483.554 108.762L483.201 158.827L481.606 159.111L481.42 109.299C481.42 108.987 480.901 108.664 480.587 108.762L480.401 159.032C478.022 159.12 476.329 159.726 473.744 159.15L473.587 109.309C473.587 109.006 473.068 108.674 472.755 108.762L472.599 159.502C471.737 159.502 470.68 158.563 470.68 157.664V109.309C470.68 108.996 470.122 108.674 469.818 108.772L469.691 159.355C465.55 160.518 461.79 158.798 457.874 158.817L424.411 158.964C424.744 160.02 425.223 160.557 425.674 160.557L425.693 160.547Z" fill="#F3EEE1"/>
<path d="M299.389 183.962C299.732 183.992 300.094 184.002 300.466 183.992C300.055 183.923 299.702 183.914 299.389 183.962Z" fill="#F3EEE1"/>
<path d="M341.556 183.992V191.8H237.847V183.992H281.316C281.316 183.992 281.336 183.992 281.346 183.992C281.551 183.796 281.727 183.376 281.727 183.005L235.703 183.386C236.526 187.569 237.064 190.286 236.966 193.823L342.427 193.452L342.466 183.015L296.785 183.259L300.476 184.002H341.566L341.556 183.992Z" fill="#F3EEE1"/>
<path d="M107.842 170.818L107.578 222.095H105.875L105.728 171.786C105.728 171.473 105.199 171.151 104.896 171.239L104.71 221.763C103.104 222.555 98.7865 222.418 98.1109 220.903L97.876 171.776C97.876 171.463 97.3865 171.141 97.0634 171.229L96.9165 221.929C96.2899 221.988 95.4773 221.392 95.027 220.786L94.9878 171.776C94.9878 171.473 94.4494 171.141 94.1361 171.229L93.9794 222.027L78.5402 221.753C72.8618 220.483 68.3485 221.538 62.5624 221.91C58.2645 222.183 53.6631 219.682 49.1008 222.692L49.0029 230.822H73.4199C74.0954 230.822 74.5066 230.256 74.4381 229.865H50.1288C49.8449 227.402 49.7764 225.487 50.1973 223.024H152.721C153.162 223.024 153.651 222.477 154.356 222.086L108.802 221.929L108.831 176.272C108.831 174.786 111.524 171.854 107.842 170.809V170.818Z" fill="#F3EEE1"/>
<path d="M300.456 160.557H403.186C403.675 160.43 404.057 160.078 404.811 159.589L386.963 159.179C381.5 159.052 375.773 158.133 370.359 159.081C366.345 159.785 362.438 160.117 359.11 157.889L359.051 108.762C358.738 108.664 358.209 108.996 358.209 109.309L358.062 159.619H356.339L356.192 109.309C356.192 108.996 355.673 108.674 355.36 108.762L355.174 159.286C353.568 160.078 349.251 159.941 348.575 158.426L348.34 109.299C348.34 108.987 347.851 108.664 347.528 108.752L347.371 159.492C346.51 159.492 345.452 158.553 345.452 157.654V109.299C345.452 108.996 344.904 108.664 344.591 108.762L344.464 159.492L328.329 159.081L299.213 158.964C299.516 160.01 300.006 160.557 300.446 160.557H300.456Z" fill="#F3EEE1"/>
<path d="M159.711 133.174L159.418 183.503C158.967 183.484 158.292 183.298 158.008 183.191L157.577 132.744C157.391 132.363 157.097 132.207 156.764 132.197L156.529 183.22L111.259 183.142C110.231 186.894 110.124 190.041 111.543 193.579L140.934 192.777C141.619 192.777 142.02 192.201 141.962 191.81H112.61V184.002H172.409C171.949 183.787 171.558 183.454 171.469 183.044L171.332 174.239V134.679C171.332 134.112 171.44 133.663 170.618 133.291L170.148 183.454L168.699 183.269L168.337 133.721C168.337 133.399 167.818 133.086 167.514 133.174L167.338 182.936C165.047 183.777 162.834 183.65 161.033 183.132C160.201 177.464 160.7 172.929 160.955 167.632C161.072 165.219 159.153 162.179 162.169 160.078C160.818 159.013 160.436 157.703 160.436 155.768L160.543 133.721C160.367 133.34 160.015 133.174 159.702 133.184L159.711 133.174Z" fill="#F3EEE1"/>
<path d="M410.127 59.0679L409.549 -49.2815L408.874 -48.6072L408.374 -170.677L408.042 59.1168C408.727 58.9898 409.373 58.98 410.127 59.0679Z" fill="#F3EEE1"/>
<path d="M287.406 97.5819C285.673 96.2626 285.712 94.5329 285.702 92.2656L285.604 70.7071C285.35 70.6191 284.841 70.8928 284.831 71.2251L284.684 121.535H282.961L282.824 71.2251C282.648 70.8537 282.334 70.6778 281.992 70.6778L281.864 120.499L236.477 120.675C236.31 124.457 235.86 127.34 236.555 131.102C237.299 130.242 237.828 129.763 237.847 129.304L238.053 122.141L246.238 122.18C249.263 121.075 250.927 122.336 253.561 122.346L302.424 122.473C300.73 120.528 296.569 122.414 296.569 120.587L296.442 70.6876C296.129 70.5996 295.61 70.9221 295.61 71.2348L295.463 121.544H293.74L293.593 71.2348C293.593 70.9221 293.074 70.6094 292.781 70.6973L292.487 121.095L286.25 121.163C285.027 115.593 286.123 110.609 286.211 105.165C286.25 102.654 284.459 99.7221 287.406 97.5917V97.5819Z" fill="#F3EEE1"/>
<path d="M233.784 171.248C233.461 171.248 233.148 171.405 232.972 171.786L232.835 222.095H231.112L230.965 171.786C230.965 171.483 230.446 171.151 230.133 171.238L230.005 221.919H223.142L223.093 171.786C223.093 171.493 222.653 171.17 222.3 171.248L222.144 221.988C221.282 221.988 220.225 221.05 220.225 220.151V171.796C220.225 171.493 219.677 171.16 219.363 171.248L219.226 222.056L202.612 221.871C194.379 221.783 180.848 219.515 174.22 222.095C174.299 222.496 174.779 223.043 175.229 223.043H277.958C278.448 222.916 278.829 222.564 279.593 222.066L234.098 222.105L233.784 171.258V171.248Z" fill="#F3EEE1"/>
<path d="M169.169 -42.7534L169.854 -43.4375L168.669 -170.677L169.365 57.905L169.169 -42.7534Z" fill="#F3EEE1"/>
<path d="M170.402 59.0777L169.854 -43.4375L169.169 -42.7632L169.365 57.8952L168.67 -170.687L168.337 59.107C169.032 58.9702 169.649 58.9604 170.402 59.0679V59.0777Z" fill="#F3EEE1"/>
<path d="M421.092 133.281L420.593 183.19L419.075 183.239L418.811 133.711C418.811 133.399 418.292 133.076 417.989 133.164L417.763 182.907C415.531 183.747 413.299 183.65 411.37 183.044L411.243 166.968L411.057 133.711C410.842 133.311 410.479 133.164 410.176 133.174L409.843 183.2L408.355 183.229L408.042 133.711C407.865 133.34 407.562 133.174 407.229 133.164L406.906 183.259L361.714 183.132C360.676 186.904 360.588 190.012 361.998 193.598L384.545 192.758C385.221 192.758 385.622 192.191 385.563 191.81H363.055V183.972L420.632 184.002L421.963 182.966L421.758 134.689C421.758 134.122 421.885 133.663 421.063 133.281H421.092Z" fill="#F3EEE1"/>
<path d="M49.9918 292.351L50.1485 285.51H152.721C153.172 285.51 153.651 284.963 154.356 284.572L108.822 284.396L108.665 234.253C108.665 233.93 108.136 233.627 107.852 233.715L107.578 284.552H105.875L105.728 234.253C105.728 233.95 105.209 233.617 104.896 233.705L104.768 284.386C102.36 284.689 100.324 284.699 97.9642 284.377L97.8467 234.272C97.7684 233.969 97.4649 233.686 97.0635 233.705L96.9068 284.445C96.0453 284.445 94.9879 283.507 94.9879 282.608V234.253C94.8019 233.881 94.4789 233.705 94.1264 233.705L93.9893 284.552L68.6815 284.249C63.5318 284.191 59.0087 282.744 53.7317 284.504L49.0618 284.631L48.9639 293.006C49.4338 293.26 49.9723 292.781 49.9821 292.331L49.9918 292.351Z" fill="#F3EEE1"/>
<path d="M359.051 171.239C358.699 171.239 358.385 171.414 358.209 171.786L358.072 222.095H356.349L356.202 171.786C356.202 171.473 355.683 171.151 355.37 171.239L355.184 221.763C353.578 222.555 349.261 222.418 348.585 220.903L348.35 171.776C348.35 171.454 347.851 171.151 347.557 171.239L347.283 222.076H345.599L345.325 171.239C345.041 171.141 344.493 171.454 344.493 171.766V222.037L325.177 221.695C316.64 221.548 308.318 220.874 299.82 222.31C299.781 222.379 299.761 222.428 299.732 222.496C299.761 222.721 300.124 223.024 300.456 223.024H403.186C403.675 222.897 404.057 222.545 404.772 222.047H359.169L359.041 171.219L359.051 171.239Z" fill="#F3EEE1"/>
<path d="M108.577 46.2756C108.224 46.2756 107.911 46.4515 107.735 46.8228L107.598 97.1325H105.865L105.728 45.8456C105.728 45.5426 105.209 45.2104 104.886 45.2983L104.759 96.9468H97.9641L97.8858 46.8131C97.8858 46.5199 97.4061 46.1974 97.0732 46.2756L96.7991 97.1129H95.0956L94.9585 46.8131C94.7823 46.4417 94.469 46.2658 94.1263 46.2658L93.9599 97.0934L48.8561 97.1129C48.8855 99.4779 48.5428 101.872 49.933 104.716L50.1582 98.0413L153.044 98.1293C154.033 100.895 153.73 102.898 153.681 104.892C153.671 105.342 154.229 105.85 154.669 106.807L154.728 97.2204L108.684 97.0738L108.557 46.2756H108.577Z" fill="#F3EEE1"/>
<path d="M591.854 122.463C592.177 124.936 592.216 126.871 591.805 129.314L488.39 129.343L488.341 122.512C487.871 122.61 487.255 121.935 487.029 120.87C486.168 124.466 486.912 127.516 486.883 131.092L592.882 131.298L592.921 120.509L547.005 120.792L551.91 122.473L591.864 122.453L591.854 122.463Z" fill="#F3EEE1"/>
<path d="M592.911 245.481L547.005 245.55C547.005 247.368 551.185 245.491 552.869 247.407L591.854 247.475C592.167 249.86 592.216 251.863 591.805 254.287H488.371C487.744 251.873 488.273 249.303 488.273 247.504C487.989 246.977 487.353 246.175 487.323 245.491C486.99 245.491 486.286 245.54 486.334 246.429L486.902 256.026L592.862 256.28L592.902 245.481H592.911Z" fill="#F3EEE1"/>
<path d="M472.941 171.356L472.501 222.076L470.817 222.095L470.68 171.786C470.504 171.414 470.19 171.238 469.838 171.248L469.711 221.939C458.05 222.564 447.026 221.714 435.415 221.069L424.685 222.047C424.763 222.496 425.253 223.043 425.693 223.043H528.423C528.912 222.916 529.294 222.564 530.068 222.066L484.562 222.105L484.249 171.258C483.926 171.258 483.613 171.414 483.436 171.796L483.299 222.105H481.576L481.43 171.796C481.43 171.493 480.911 171.16 480.597 171.248L480.47 221.929H473.617L473.646 172.753C473.646 172.186 473.764 171.737 472.932 171.366L472.941 171.356Z" fill="#F3EEE1"/>
<path d="M592.911 307.968L547.005 308.036C547.005 309.854 551.185 307.978 552.869 309.903L591.844 309.952C592.158 312.346 592.207 314.349 591.795 316.763L488.371 316.832C487.803 314.183 488.155 312.043 488.322 309.629C487.891 309.717 487.235 309.883 487.01 308.32C486.178 311.916 486.912 314.955 486.863 318.552L592.862 318.747L592.902 307.958L592.911 307.968Z" fill="#F3EEE1"/>
<path d="M175.229 285.52H277.958C278.448 285.393 278.83 285.041 279.593 284.552H233.951L233.824 233.725C233.471 233.725 233.158 233.901 232.982 234.272L232.845 284.582H231.122L230.975 234.272C230.975 233.969 230.456 233.637 230.143 233.725L230.015 284.406H223.162V234.272C223.162 233.979 222.614 233.637 222.31 233.735L222.154 284.474C221.292 284.474 220.235 283.536 220.235 282.637V234.282C220.049 233.92 219.726 233.735 219.373 233.735L219.236 284.601L187.036 284.279C182.767 284.24 179.008 282.959 174.573 284.934C174.544 284.982 174.524 285.021 174.495 285.07C174.544 285.256 174.896 285.539 175.219 285.539L175.229 285.52Z" fill="#F3EEE1"/>
<path d="M224.631 59.5077L223.407 57.9245L223.172 46.8325C222.986 46.4416 222.643 46.2853 222.32 46.2853L222.046 97.1226H220.343L220.206 46.8228C220.029 46.4514 219.716 46.2755 219.364 46.2755L219.236 97.1031L174.475 97.064C174.289 97.5233 174.779 98.0706 175.219 98.0706H277.949C278.438 97.9435 278.82 97.5917 279.584 97.0933L234.088 97.1324L233.775 46.2853C233.452 46.2853 233.138 46.4416 232.962 46.8228L232.825 97.1324H231.122L230.857 45.308C230.573 45.2103 230.015 45.523 230.015 45.8357V96.9565L223.123 96.976L223.24 61.1299L224.621 59.5077H224.631Z" fill="#F3EEE1"/>
<path d="M302.414 122.473L341.34 122.492L340.733 129.363L237.838 129.304C239.365 130.056 238.934 130.662 236.545 131.102L342.3 131.161L342.447 120.509L296.56 120.577L302.522 121.349L302.414 122.473Z" fill="#F3EEE1"/>
<path d="M237.847 129.304C237.838 129.763 237.299 130.242 236.555 131.102C238.944 130.662 239.375 130.056 237.847 129.304Z" fill="#F3EEE1"/>
<path d="M302.414 122.473L302.522 121.349L296.56 120.577C296.56 122.405 300.721 120.519 302.414 122.463V122.473Z" fill="#F3EEE1"/>
<path d="M300.456 98.0707H403.186C403.675 97.9436 404.057 97.5918 404.772 97.0934H359.169L359.041 46.2658C358.689 46.2658 358.376 46.4417 358.199 46.8131L358.062 97.1227H356.339L356.192 46.8131C356.192 46.5101 355.674 46.1779 355.36 46.2658L355.233 96.9468H348.439L348.36 46.8131C348.36 46.5199 347.881 46.1974 347.548 46.2756L347.273 97.113H345.57L345.433 46.8131C345.257 46.4417 344.943 46.2658 344.591 46.2658L344.464 97.0934L299.722 97.0641C299.517 97.5136 300.006 98.0609 300.456 98.0609V98.0707Z" fill="#F3EEE1"/>
<path d="M425.693 98.0707H528.423C528.912 97.9436 529.294 97.5918 530.009 97.0934H484.406L484.278 46.2658C483.926 46.2658 483.613 46.4417 483.436 46.8131L483.299 97.1227H481.576L481.429 46.8131C481.429 46.5101 480.911 46.1779 480.597 46.2658L480.47 96.9468H473.676L473.597 46.8131C473.597 46.5199 473.118 46.1974 472.785 46.2756L472.511 97.113H470.807L470.67 46.8131C470.494 46.4417 470.18 46.2658 469.828 46.2658L469.701 97.0934L424.959 97.0641C424.754 97.5136 425.243 98.0609 425.693 98.0609V98.0707Z" fill="#F3EEE1"/>
<path d="M425.693 285.52H528.423C528.912 285.393 529.294 285.041 530.009 284.543H484.386V234.262C484.386 233.959 483.848 233.637 483.544 233.735L483.27 284.572H481.566L481.42 234.272C481.42 233.969 480.901 233.637 480.587 233.725L480.46 284.406H473.636L473.509 233.725C473.196 233.637 472.677 233.959 472.677 234.272L472.53 284.582H470.807L470.67 234.272C470.494 233.901 470.18 233.725 469.828 233.725L469.701 284.552L424.959 284.523C424.763 284.973 425.243 285.52 425.693 285.52Z" fill="#F3EEE1"/>
<path d="M300.456 285.52H403.186C403.675 285.393 404.057 285.041 404.821 284.552H359.159V234.262C359.159 233.959 358.62 233.637 358.327 233.735L358.052 284.572H356.349L356.202 234.272C356.202 233.969 355.683 233.637 355.37 233.725L355.243 284.406H348.419L348.292 233.725C347.978 233.637 347.459 233.959 347.459 234.272L347.313 284.582H345.589L345.452 234.272C345.276 233.901 344.963 233.725 344.61 233.725L344.483 284.552L299.84 284.523C299.536 284.973 300.026 285.52 300.466 285.52H300.456Z" fill="#F3EEE1"/>
<path d="M535.413 70.6876L535.139 121.525H533.435L533.298 71.2251C533.122 70.8537 532.809 70.6778 532.456 70.6876L532.319 120.489L487.03 120.88C488.42 121.202 488.86 121.75 488.341 122.522C495.175 121.075 502.469 120.929 509.812 122.541L551.9 122.492C549.482 122.473 547.847 121.916 546.995 120.812V71.2348C547.005 70.9123 546.457 70.5996 546.173 70.6973L545.898 121.535H544.195L544.048 71.2348C544.048 70.9221 543.529 70.5996 543.216 70.6876L543.05 120.626C541.033 121.339 538.918 120.919 536.647 121.027L536.187 109.69C536.128 108.166 537.019 107.071 537.919 106.201C535.423 103.582 535.413 99.8785 537.782 97.5526C536.421 96.3896 536.128 95.0703 536.138 93.2819L536.235 71.2348C536.059 70.8537 535.707 70.6876 535.394 70.6973L535.413 70.6876Z" fill="#F3EEE1"/>
<path d="M488.341 122.512C488.86 121.74 488.42 121.193 487.03 120.87C487.255 121.935 487.872 122.61 488.341 122.512Z" fill="#F3EEE1"/>
<path d="M488.341 309.629C494.735 308.241 501.549 309.355 508.558 309.434L552.879 309.903L546.838 309.209L547.015 308.036V258.674C547.015 258.352 546.457 258.039 546.173 258.137L545.898 308.974H544.195L544.048 258.674C544.048 258.332 543.519 258.049 543.226 258.166L543.03 307.792C541.277 309.052 538.742 309.033 536.627 308.417L536.284 296.221C536.255 295.117 537.489 294.061 538.262 293.299C535.482 291.071 535.247 287.504 537.792 285.051C536.637 283.986 536.138 282.637 536.147 280.712L536.255 258.665C536.079 258.283 535.726 258.117 535.413 258.127L535.139 308.964H533.435L533.298 258.665C533.122 258.293 532.809 258.117 532.456 258.127L532.319 307.929L487.03 308.319C487.901 308.564 488.341 308.994 488.341 309.629Z" fill="#F3EEE1"/>
<path d="M488.341 309.629C488.341 308.994 487.901 308.564 487.03 308.32C487.255 309.873 487.92 309.717 488.341 309.629Z" fill="#F3EEE1"/>
<path d="M535.423 133.174L535.041 183.21L533.553 183.23L533.288 132.734C533.112 132.363 532.809 132.197 532.476 132.187L532.133 183.259L486.971 182.985C487.323 183.708 488.038 184.5 488.243 185.028C488.439 184.285 489.154 183.943 490.211 183.963L513.267 184.461L548.973 184.891C548.581 184.588 547.093 183.65 547.054 182.936L547.005 133.741C547.005 133.409 546.476 133.086 546.173 133.174L545.898 184.011H544.195L544.048 133.712C544.048 133.37 543.519 133.086 543.226 133.213L543.01 182.868C541.209 184.256 538.399 183.689 536.647 183.024L536.666 167.623C536.666 165.17 534.884 162.189 537.87 160.059C536.93 159.296 536.167 158.26 536.177 156.755L536.245 133.721C536.069 133.35 535.736 133.184 535.413 133.184L535.423 133.174Z" fill="#F3EEE1"/>
<path d="M420.652 184.002L466.274 184.021V191.839L385.573 191.8L386.082 192.914C378.074 193.315 370.046 193.54 362.008 193.588L467.42 193.54L467.664 182.975L421.983 182.946C422.13 183.542 421.689 183.894 420.652 183.982V184.002Z" fill="#F3EEE1"/>
<path d="M420.651 184.002C421.689 183.904 422.13 183.562 421.983 182.966L420.651 184.002Z" fill="#F3EEE1"/>
<path d="M385.583 191.81C385.642 192.191 385.24 192.758 384.565 192.758L362.018 193.598C370.065 193.55 378.093 193.325 386.092 192.924L385.583 191.81Z" fill="#F3EEE1"/>
<path d="M489.017 246.654C489.33 246.517 489.732 246.439 490.202 246.449L513.258 246.947L552.879 247.407L546.848 246.713L547.015 245.55V196.188C547.015 195.875 546.466 195.553 546.173 195.651L545.898 246.488H544.195L544.048 196.188C544.048 195.846 543.51 195.572 543.275 195.651L542.795 245.286C542.775 247.143 536.627 247.094 536.627 245.364L536.608 229.581L536.265 196.188C536.059 195.787 535.707 195.651 535.403 195.651L535.129 246.488H533.426L533.279 196.188C533.279 195.885 532.76 195.553 532.447 195.641L532.3 246.566C529.921 245.833 527.963 245.423 525.505 245.423L487.323 245.481C488.488 245.794 489.213 246.078 489.007 246.644L489.017 246.654Z" fill="#F3EEE1"/>
<path d="M489.017 246.654C489.223 246.087 488.498 245.804 487.333 245.491C487.362 246.175 487.999 246.977 488.283 247.504C488.361 247.104 488.625 246.83 489.017 246.654Z" fill="#F3EEE1"/>
<path d="M548.963 184.891L591.854 184.998C592.177 187.354 592.216 189.376 591.825 191.8H508.852C508.764 192.416 508 192.856 506.923 192.826L487.734 192.279C488.85 189.855 488.253 186.865 488.234 185.018C487.255 185.946 486.824 185.262 486.961 182.975C485.874 185.839 485.953 189.621 486.98 193.676L592.872 193.764L592.911 182.995L547.044 182.936C548.826 183.327 549.462 183.982 548.963 184.891Z" fill="#F3EEE1"/>
<path d="M488.234 185.028C488.028 184.49 487.313 183.709 486.961 182.985C486.824 185.272 487.245 185.956 488.234 185.028Z" fill="#F3EEE1"/>
<path d="M171.763 182.946L174.24 183.992H216.309V191.8H141.952L142.49 192.953C132.191 193.354 121.872 193.559 111.533 193.569L217.151 193.804L217.317 183.161L171.998 182.848C172.468 179.027 172.772 176.193 171.323 174.229C171.939 177.083 172.086 179.985 171.753 182.946H171.763Z" fill="#F3EEE1"/>
<path d="M141.962 191.8C142.02 192.191 141.619 192.768 140.934 192.768L111.543 193.569C121.882 193.559 132.201 193.354 142.5 192.953L141.962 191.8Z" fill="#F3EEE1"/>
<path d="M172.409 183.992H174.25L171.773 182.946C172.096 179.985 171.959 177.083 171.342 174.229L171.479 183.034C171.567 183.445 171.959 183.777 172.419 183.992H172.409Z" fill="#F3EEE1"/>
<path d="M592.001 63.915C592.158 64.1789 592.187 66.1237 591.609 66.798L488.459 66.9055C487.969 64.3939 488.038 62.4589 488.39 59.791L504.946 60.0158C504.75 57.8755 509.028 58.2078 510.791 59.0287C510.693 58.3544 509.978 57.983 508.921 58.0124L486.844 58.4912V68.6352L570.492 68.8014C570.599 68.1368 571.334 67.7655 572.381 67.7655H589.142C590.19 67.7655 590.934 68.1466 591.061 68.8502C592.49 68.8502 593.078 68.4984 593.048 67.2866L592.97 63.9346C592.676 64.7848 592.353 64.7653 591.991 63.9248L592.001 63.915Z" fill="#F3EEE1"/>
<path d="M504.946 60.016C506.424 58.4426 508.832 59.0387 510.791 59.0289C509.028 58.1983 504.75 57.866 504.946 60.016Z" fill="#F3EEE1"/>
<path d="M30.4798 309.492H34.8756C35.0323 309.228 35.2868 309.258 35.5414 309.492H37.147C37.3526 309.316 37.568 309.316 37.7833 309.492H40.4855C41.4253 309.17 42.5512 309.17 43.5107 309.492H46.8981C47.4561 309.238 48.0827 309.238 48.6408 309.492H56.8254L45.3121 309.15C45.3219 296.27 45.5764 283.517 46.0561 270.89V258.684C45.8701 258.303 45.5373 258.147 45.2142 258.147L44.9302 308.808L43.8142 308.544L43.1778 300.15L42.9918 258.147C42.7079 258.059 42.1792 258.352 42.1792 258.675L42.0029 308.447L35.7176 308.427L35.2379 297.149C35.1693 295.615 36.0603 294.53 36.9707 293.661C34.4742 291.032 34.4644 287.328 36.8435 285.012C35.4533 283.839 35.2183 282.53 35.2085 280.731L35.1106 258.166C34.8658 258.069 34.3176 258.352 34.3176 258.684L34.298 308.886C33.3679 308.886 32.3791 307.948 32.3791 307.039L32.2421 258.147C31.9386 258.049 31.3805 258.381 31.3805 258.684L31.4001 307.978C31.4001 308.818 30.7246 309.053 30.3819 309.013L25.5063 309.502H30.4504L30.4798 309.492Z" fill="#F3EEE1"/>
<path d="M56.8351 309.492C56.7274 309.287 56.0029 308.906 54.9554 308.896L46.0658 308.876V270.88C45.5959 283.507 45.3413 296.26 45.3315 309.14L56.8449 309.482L56.8351 309.492Z" fill="#F3EEE1"/>
<path d="M25.5356 309.492L30.4112 309.004C28.7762 308.789 26.6615 308.583 25.5356 309.492Z" fill="#F3EEE1"/>
<path d="M528.423 98.0803C528.619 100.181 528.991 102.331 528.413 104.911L425.644 104.941L425.693 98.0803C424.342 99.3996 423.921 98.7058 424.959 97.0835C423.902 97.0835 423.677 97.7969 423.735 98.9403L424.107 106.768L530.087 106.866C530.606 103.25 530.665 100.025 530.009 97.1128C529.94 98.9892 529.754 99.5658 528.423 98.0901V98.0803Z" fill="#F3EEE1"/>
<path d="M425.693 98.0705C425.243 98.0705 424.763 97.5233 424.959 97.0737C423.912 98.696 424.333 99.3801 425.693 98.0705Z" fill="#F3EEE1"/>
<path d="M530.009 97.0933C529.294 97.5819 528.912 97.9435 528.423 98.0705C529.754 99.5462 529.94 98.9696 530.009 97.0933Z" fill="#F3EEE1"/>
<path d="M151.399 309.395C151.517 309.395 151.625 309.414 151.722 309.443H153.847C154.444 309.248 155.247 309.238 156.275 309.443H161.092C161.405 309.258 161.748 309.258 162.061 309.443H163.882C164.166 308.945 175.023 308.974 175.356 309.443H178.352C178.685 309.385 179.047 309.375 179.429 309.395C176.737 309.17 174.044 309.043 171.342 309.043V308.085L171.205 258.137C170.892 258.049 170.373 258.372 170.373 258.684L170.226 308.994L168.542 308.974L168.102 258.254C167.26 258.635 167.416 259.085 167.406 259.642L167.269 308.554L160.974 308.603L160.504 297.189C160.436 295.498 161.102 294.218 162.247 293.035C159.858 290.915 159.574 287.416 162.1 285.09C160.534 283.741 160.475 282.002 160.465 279.725L160.377 258.166C160.123 258.078 159.604 258.352 159.604 258.684L159.457 308.994H157.753L157.479 258.147C157.195 258.049 156.647 258.362 156.647 258.684V308.046L156.686 309.023L151.399 309.404V309.395Z" fill="#F3EEE1"/>
<path d="M179.419 309.394C179.644 309.394 179.879 309.424 180.114 309.443C176.962 307.704 171.342 310.157 171.342 308.085V309.043C174.035 309.043 176.727 309.17 179.419 309.394Z" fill="#F3EEE1"/>
<path d="M150.763 309.443C151.008 309.395 151.213 309.385 151.399 309.395L156.686 309.013L156.637 308.036C156.637 309.854 152.457 307.977 150.763 309.443Z" fill="#F3EEE1"/>
<path d="M148.805 246.937H151.39H153.269H158.517C158.82 246.752 159.163 246.742 159.476 246.937H161.816C162.365 246.576 162.962 246.595 163.559 246.937L181.093 246.918L173.31 246.507C172.605 246.488 171.342 245.618 171.342 244.436L171.186 195.67C170.882 195.582 170.353 195.895 170.353 196.208L170.207 246.517H168.483L168.337 196.208C168.337 195.895 167.808 195.572 167.504 195.67L167.328 246.234C165.488 246.918 161.64 246.967 161.013 245.354C159.966 242.667 159.76 233.138 162.227 231.174C159.721 228.584 159.711 224.842 162.09 222.535C160.7 221.353 160.465 220.053 160.455 218.255L160.358 195.69C160.103 195.602 159.584 195.866 159.584 196.208L159.437 246.517L157.753 246.498L157.313 195.778C156.481 196.149 156.598 196.599 156.598 197.165L156.618 245.56L157.391 246.332C154.542 246.576 151.674 246.781 148.785 246.937H148.805Z" fill="#F3EEE1"/>
<path d="M181.093 246.908C178.979 245.804 175.924 246.547 173.31 246.498L181.093 246.908Z" fill="#F3EEE1"/>
<path d="M148.805 246.938C151.693 246.771 154.562 246.566 157.411 246.332L156.637 245.56C156.637 247.631 151.585 245.296 148.805 246.947V246.938Z" fill="#F3EEE1"/>
<path d="M424.147 294.179L530.077 294.227C530.596 290.69 530.635 287.455 530.009 284.552C529.921 286.429 529.754 287.005 528.423 285.53C528.619 287.631 529.059 289.781 528.482 292.371H425.635L425.694 285.53C424.303 286.595 423.97 286.028 424.959 284.533C423.892 284.533 423.706 285.246 423.765 286.39L424.156 294.188L424.147 294.179Z" fill="#F3EEE1"/>
<path d="M530.009 284.552C529.294 285.041 528.912 285.403 528.423 285.53C529.754 287.005 529.921 286.429 530.009 284.552Z" fill="#F3EEE1"/>
<path d="M425.693 285.52C425.243 285.52 424.763 284.973 424.959 284.523C423.97 286.018 424.303 286.585 425.693 285.52Z" fill="#F3EEE1"/>
<path d="M403.185 223.043C403.401 225.145 403.841 227.295 403.254 229.884L300.368 229.865L300.446 223.034C299.418 224.558 298.929 224.07 299.722 222.506C299.712 222.428 299.732 222.369 299.81 222.32C298.831 221.578 297.862 222.936 298.704 223.825L298.88 231.653L309.336 231.819L404.84 231.712C405.31 228.203 405.427 224.978 404.752 222.066C404.683 223.943 404.497 224.519 403.166 223.043H403.185Z" fill="#F3EEE1"/>
<path d="M404.772 222.066C404.057 222.555 403.675 222.916 403.186 223.043C404.517 224.519 404.703 223.943 404.772 222.066Z" fill="#F3EEE1"/>
<path d="M300.456 223.043C300.123 223.043 299.771 222.74 299.732 222.516C298.939 224.079 299.428 224.568 300.456 223.043Z" fill="#F3EEE1"/>
<path d="M404.977 294.267C405.251 290.68 405.428 287.572 404.821 284.553C404.664 286.341 404.448 287.113 403.186 285.52C403.342 287.621 403.773 289.771 403.254 292.361L300.388 292.341L300.456 285.51C299.056 286.488 298.723 285.833 299.83 284.513C299.154 284.513 298.528 284.582 298.557 285.491L298.919 294.1L404.977 294.257V294.267Z" fill="#F3EEE1"/>
<path d="M300.456 285.52C300.006 285.52 299.526 284.973 299.83 284.523C298.723 285.852 299.066 286.497 300.456 285.52Z" fill="#F3EEE1"/>
<path d="M404.821 284.552C404.057 285.041 403.675 285.393 403.186 285.52C404.448 287.103 404.674 286.331 404.821 284.552Z" fill="#F3EEE1"/>
<path d="M403.186 98.0803C403.421 100.181 403.842 102.341 403.244 104.921H300.358L300.456 98.0705C299.105 99.3801 298.684 98.696 299.722 97.0737C298.665 97.0737 298.449 97.7871 298.498 98.9305L298.89 106.758L404.811 106.846C405.389 103.221 405.418 100.006 404.762 97.103C404.693 98.9794 404.507 99.5462 403.176 98.0803H403.186Z" fill="#F3EEE1"/>
<path d="M404.772 97.0933C404.057 97.5819 403.675 97.9435 403.186 98.0705C404.517 99.5364 404.703 98.9696 404.772 97.0933Z" fill="#F3EEE1"/>
<path d="M300.456 98.0705C300.006 98.0705 299.526 97.5233 299.722 97.0737C298.684 98.6862 299.105 99.3801 300.456 98.0705Z" fill="#F3EEE1"/>
<path d="M173.839 294.11L279.74 294.188C280.034 290.68 280.112 287.553 279.583 284.552C279.378 286.331 279.221 287.113 277.948 285.53C278.223 287.621 278.663 289.791 278.037 292.371L175.131 292.39L175.219 285.53C174.269 286.077 174.034 285.911 174.495 285.061C174.475 284.992 174.495 284.943 174.573 284.924C173.77 284.201 172.615 285.315 173.476 286.351L173.839 294.12V294.11Z" fill="#F3EEE1"/>
<path d="M279.583 284.552C278.82 285.041 278.438 285.393 277.948 285.53C279.221 287.123 279.378 286.341 279.583 284.552Z" fill="#F3EEE1"/>
<path d="M174.504 285.051C174.044 285.911 174.279 286.067 175.229 285.52C174.906 285.52 174.563 285.227 174.504 285.051Z" fill="#F3EEE1"/>
<path d="M277.958 223.043C278.272 225.125 278.732 227.304 278.046 229.875L175.18 229.855L175.229 223.034C173.956 224.245 173.565 223.708 174.221 222.086C173.516 222.359 173.3 222.78 173.359 223.894L173.819 231.594L279.799 231.722L279.583 222.056C279.241 224.109 278.702 224.441 277.949 223.034L277.958 223.043Z" fill="#F3EEE1"/>
<path d="M279.593 222.066C278.83 222.565 278.448 222.916 277.958 223.043C278.702 224.441 279.251 224.118 279.593 222.066Z" fill="#F3EEE1"/>
<path d="M175.229 223.043C174.779 223.043 174.299 222.496 174.221 222.095C173.565 223.718 173.956 224.255 175.229 223.043Z" fill="#F3EEE1"/>
<path d="M277.958 98.0803C278.164 100.172 278.555 102.331 277.958 104.902L175.229 104.941V98.0705C173.917 99.0283 173.584 98.4615 174.485 97.064C173.486 97.064 172.869 97.8262 173.496 98.9403L173.839 106.651L279.769 106.886C280.024 103.221 280.2 100.103 279.593 97.0835C279.437 98.8719 279.221 99.6537 277.958 98.0608V98.0803Z" fill="#F3EEE1"/>
<path d="M279.593 97.0933C278.83 97.5917 278.448 97.9435 277.958 98.0705C279.221 99.6537 279.437 98.8817 279.593 97.0933Z" fill="#F3EEE1"/>
<path d="M175.229 98.0705C174.778 98.0705 174.299 97.5233 174.485 97.064C173.584 98.4615 173.927 99.0283 175.229 98.0705Z" fill="#F3EEE1"/>
<path d="M160.426 70.6974C160.083 70.6094 159.584 70.9514 159.584 71.2251L159.565 121.427C158.634 121.427 157.646 120.489 157.646 119.58L157.509 70.6876C157.205 70.5898 156.657 70.9221 156.657 71.2251V120.587L156.872 121.515C154.983 121.564 153.093 121.691 151.204 121.867C151.458 121.877 151.683 121.926 151.899 121.984H154.493C154.728 121.857 154.973 121.857 155.188 121.984H159.016C159.437 121.779 159.917 121.779 160.348 121.984H163.676C164.802 121.642 166.32 121.632 168.248 121.984H177.216L171.313 121.564L171.362 120.587L171.235 70.6876C170.921 70.5996 170.402 70.9221 170.402 71.2348L170.255 121.544L168.572 121.525L168.131 70.8048C167.289 71.186 167.446 71.6355 167.436 72.1926L167.299 121.105L161.072 121.144C159.662 115.446 161.013 110.101 160.935 104.628L160.465 70.6974H160.426Z" fill="#F3EEE1"/>
<path d="M149.784 121.984C150.313 121.877 150.773 121.838 151.184 121.867C153.073 121.701 154.963 121.574 156.853 121.515L156.627 120.587C156.627 122.561 152.016 120.391 149.774 121.984H149.784Z" fill="#F3EEE1"/>
<path d="M177.177 121.984C175.483 120.528 171.323 122.414 171.323 120.587L171.274 121.564L177.177 121.984Z" fill="#F3EEE1"/>
<path d="M403.186 160.557C403.538 162.639 403.979 164.818 403.137 167.359L300.368 167.339L300.456 160.557C299.467 161.661 299.056 161.134 299.223 158.964C298.214 162.58 298.87 165.434 298.988 168.864L314.29 169.157L393.337 169.352L405.114 168.922L404.821 159.59C404.498 161.681 403.949 162.003 403.195 160.567L403.186 160.557Z" fill="#F3EEE1"/>
<path d="M404.821 159.589C404.057 160.078 403.675 160.44 403.195 160.567C403.959 162.003 404.497 161.681 404.821 159.589Z" fill="#F3EEE1"/>
<path d="M300.456 160.557C300.006 160.557 299.526 160.01 299.223 158.964C299.056 161.124 299.468 161.661 300.456 160.557Z" fill="#F3EEE1"/>
<path d="M285.693 155.759L285.595 133.194C285.34 133.106 284.831 133.369 284.831 133.711L284.674 183.503L283.206 183.259L282.687 133.174C282.413 133.096 281.884 133.389 281.884 133.711L281.718 182.995C282.09 183.669 281.914 183.943 281.336 183.982H285.869C287.073 183.747 288.023 183.757 288.728 183.982H299.262C299.262 183.982 299.35 183.962 299.399 183.953C298.42 183.875 297.539 183.64 296.785 183.239L296.433 133.154C296.109 133.076 295.61 133.409 295.61 133.702L295.453 183.19L293.956 183.21L293.476 133.154C293.182 133.076 292.663 133.399 292.663 133.692L292.624 182.927C290.255 183.748 288.179 183.66 286.025 183.034L285.712 171.17C285.673 169.685 286.564 168.61 287.337 167.838C284.86 165.512 285.125 162.072 287.377 160.019C285.967 158.837 285.732 157.518 285.722 155.729L285.693 155.759Z" fill="#F3EEE1"/>
<path d="M281.717 182.995C281.717 183.376 281.541 183.787 281.336 183.982C281.913 183.933 282.099 183.669 281.717 182.995Z" fill="#F3EEE1"/>
<path d="M300.456 183.992L296.765 183.249C297.529 183.65 298.4 183.884 299.379 183.962C299.683 183.914 300.045 183.923 300.456 183.992Z" fill="#F3EEE1"/>
<path d="M400.258 309.571L412.888 309.61C413.465 309.268 414.033 309.238 414.582 309.61H418.126L428.64 309.658L421.503 309.062L421.807 308.026L421.679 258.127C421.366 258.039 420.847 258.362 420.847 258.675L420.7 308.984L419.017 308.965L418.576 258.245C417.744 258.616 417.861 259.065 417.861 259.632L417.891 308.759C415.629 309.258 413.524 309.16 411.488 308.398C410.088 302.896 411.615 297.531 411.38 292.048C411.263 289.38 410.039 286.839 412.692 284.983C411.077 283.839 410.949 282.5 410.94 280.722L410.842 258.157C410.597 258.069 410.078 258.342 410.068 258.675L409.921 308.984H408.218L407.944 258.137C407.65 258.039 407.102 258.362 407.102 258.675V308.026L407.386 309.043C404.997 309.101 402.618 309.268 400.249 309.571H400.258Z" fill="#F3EEE1"/>
<path d="M424.9 309.649L428.631 309.658L418.116 309.629L424.9 309.649Z" fill="#F3EEE1"/>
<path d="M428.631 309.658C426.389 307.831 421.797 310.01 421.797 308.026L421.493 309.062L428.631 309.658Z" fill="#F3EEE1"/>
<path d="M400.258 309.57C402.628 309.277 405.007 309.101 407.395 309.043L407.111 308.026C407.111 310 402.5 307.831 400.258 309.561V309.57Z" fill="#F3EEE1"/>
<path d="M46.0853 101.98V71.2252C46.0755 70.9223 45.5273 70.59 45.2238 70.6779L45.0671 121.066L45.5762 120.382C45.3706 114.117 45.5371 107.99 46.0853 101.98Z" fill="#F3EEE1"/>
<path d="M27.4839 122.092H30.0588C31.8112 121.779 33.1916 121.779 34.2098 122.092H37.6462C38.3413 121.808 39.1637 121.808 39.8784 122.092H42.9428C43.6281 121.867 44.5386 121.857 45.7036 122.092H50.961L44.6756 121.564L44.8029 121.388C43.9903 121.242 43.1484 120.411 43.1484 119.57L43.0113 70.6778C42.7078 70.5801 42.1595 70.9123 42.1595 71.2153L42.14 121.525C39.9078 120.851 38.0378 120.714 35.7567 121.202C34.5329 115.554 35.6294 110.609 35.7175 105.156C35.7567 102.654 33.9651 99.7124 36.9119 97.5819C35.1791 96.2626 35.2182 94.5329 35.2084 92.2656L35.1105 70.7071C34.856 70.6094 34.3273 70.8928 34.3273 71.2251L34.3077 121.427C33.3777 121.427 32.3888 120.489 32.3888 119.58L32.2518 70.6876C31.9483 70.5898 31.3902 70.9221 31.3902 71.2251V120.694C30.8909 121.613 29.5888 122.072 27.4741 122.082L27.4839 122.092Z" fill="#F3EEE1"/>
<path d="M31.4195 120.704L27.4937 122.092C29.6084 122.082 30.9105 121.623 31.4195 120.704Z" fill="#F3EEE1"/>
<path d="M50.9708 122.092C50.031 121.398 48.2002 121.349 46.0855 121.496V101.98C45.5373 107.99 45.3708 114.117 45.5764 120.382L45.0673 121.066V121.418C44.989 121.418 44.9107 121.398 44.8324 121.388L44.7051 121.564L50.9904 122.092H50.9708Z" fill="#F3EEE1"/>
<path d="M529.588 158.925C529.921 160.792 529.529 161.319 528.423 160.528C528.707 162.648 529.108 164.808 528.354 167.349H425.625L425.703 160.547C424.744 161.622 424.332 161.095 424.44 158.954C423.559 162.59 424.186 165.346 424.313 168.981L433.281 169.079C437.305 167.887 439.723 169.157 443.404 169.167L518.583 169.362L530.371 168.922C530.195 164.974 530.841 162.375 529.607 158.945L529.588 158.925Z" fill="#F3EEE1"/>
<path d="M528.423 160.528C529.529 161.329 529.921 160.792 529.588 158.925C529.343 160.029 528.873 160.528 528.423 160.528Z" fill="#F3EEE1"/>
<path d="M425.693 160.547C425.243 160.547 424.763 160.01 424.43 158.954C424.313 161.095 424.734 161.622 425.693 160.547Z" fill="#F3EEE1"/>
<path d="M411.155 95.9793L410.812 70.7072C410.597 70.6291 410.068 70.8831 410.068 71.235L409.921 121.545H408.218L407.944 70.6975C407.65 70.5998 407.102 70.9222 407.102 71.235V120.597L407.17 121.613L402.677 121.965C402.902 121.984 403.107 122.023 403.293 122.082H405.437C405.437 122.082 405.486 122.082 405.516 122.082H408.795C409.07 121.906 409.373 121.906 409.647 122.082H413.495C416.295 121.613 420.093 121.799 420.279 122.082H423.324C423.755 121.945 424.254 121.887 424.793 121.857L421.719 121.613L421.797 120.597L421.67 70.6975C421.356 70.6095 420.837 70.932 420.837 71.2447L420.691 121.554L419.007 121.535L418.566 70.8147C417.714 71.2057 417.9 71.6747 417.9 72.2025L417.597 120.343C417.587 122.17 411.36 122.18 411.341 120.362L411.106 99.2043L412.486 97.6016L411.155 95.9891V95.9793Z" fill="#F3EEE1"/>
<path d="M424.793 121.848C425.615 121.809 426.565 121.867 427.652 122.072C425.958 120.528 421.797 122.414 421.797 120.587L421.719 121.603L424.793 121.848Z" fill="#F3EEE1"/>
<path d="M401.237 122.072C401.786 121.965 402.275 121.926 402.686 121.955L407.18 121.603L407.102 120.587C407.102 122.405 402.921 120.528 401.228 122.072H401.237Z" fill="#F3EEE1"/>
<path d="M277.958 247.407H281.385H282.364L296.922 247.387H299.095H300.544H302.405H303.393C301.709 247.074 300.084 246.771 298.528 246.488C297.842 246.537 296.579 245.608 296.57 244.436L296.423 195.67C296.119 195.582 295.591 195.895 295.591 196.208L295.444 246.517H293.721L293.574 196.208C293.574 195.895 293.045 195.572 292.742 195.66L292.614 246.312L285.869 246.371L286.104 229.532C286.143 226.943 284.763 224.323 287.445 222.506C285.82 221.353 285.702 220.024 285.693 218.245L285.595 195.68C285.35 195.592 284.831 195.865 284.831 196.198L284.684 246.507H282.981L282.707 195.66C282.423 195.563 281.865 195.875 281.865 196.198V245.667C282.139 246.634 280.827 247.211 277.948 247.397L277.958 247.407Z" fill="#F3EEE1"/>
<path d="M298.528 246.468C300.084 246.761 301.709 247.055 303.393 247.367C302.277 246.058 300.192 246.351 298.528 246.468Z" fill="#F3EEE1"/>
<path d="M277.958 247.407C280.837 247.221 282.148 246.634 281.884 245.677L277.958 247.407Z" fill="#F3EEE1"/>
<path d="M278.937 309.453H285.693C286.603 309.268 287.318 309.277 287.866 309.453H293.29C294.249 309.15 295.277 309.121 296.168 309.453H299.585C299.8 309.375 300.045 309.326 300.309 309.297L296.501 309.023L296.55 308.046L296.423 258.147C296.109 258.059 295.591 258.381 295.591 258.694L295.444 309.004L293.76 308.984L293.319 258.264C292.487 258.645 292.614 259.085 292.614 259.652L292.595 308.72C290.774 309.375 286.828 309.512 286.202 307.812L285.673 298.176C285.565 296.202 286.3 294.775 287.465 293.67C284.978 291.051 284.958 287.338 287.328 285.012C285.937 283.839 285.702 282.53 285.693 280.731L285.595 258.166C285.34 258.078 284.831 258.342 284.821 258.684L284.674 308.994H282.971L282.697 258.147C282.413 258.049 281.855 258.362 281.855 258.684V308.036C281.776 308.896 280.797 309.365 278.918 309.453H278.937Z" fill="#F3EEE1"/>
<path d="M281.874 308.026L278.937 309.443C280.827 309.355 281.806 308.886 281.874 308.026Z" fill="#F3EEE1"/>
<path d="M300.319 309.297C300.907 309.238 301.602 309.277 302.424 309.453C300.73 307.978 296.569 309.873 296.569 308.036L296.521 309.013L300.329 309.287L300.319 309.297Z" fill="#F3EEE1"/>
<path d="M465.804 59.9963C465.706 61.9704 465.422 63.9933 466.675 66.7785L363.065 66.8372C364.583 67.5896 364.152 68.1858 361.773 68.606L467.606 68.8406L467.772 59.967C467.694 59.1558 467.155 59.0288 466.773 59.0288C467.635 60.4263 467.204 60.954 465.804 60.0061V59.9963Z" fill="#F3EEE1"/>
<path d="M465.804 59.9963C467.204 60.9443 467.645 60.4165 466.773 59.019C466.734 59.449 466.245 59.9963 465.804 59.9963Z" fill="#F3EEE1"/>
<path d="M363.075 66.8274C363.075 67.2867 362.556 67.7753 361.782 68.5962C364.171 68.176 364.602 67.5799 363.075 66.8274Z" fill="#F3EEE1"/>
<path d="M153.7 104.892L49.9427 104.716C47.6909 103.621 48.2196 99.5169 48.8658 97.1128C47.1525 99.2237 47.642 103.729 49.3847 106.856L154.689 106.807C152.457 106.358 152.134 105.722 153.7 104.892Z" fill="#F3EEE1"/>
<path d="M49.9428 104.726C48.5526 101.882 48.9051 99.4875 48.8659 97.1226C48.2197 99.5364 47.6911 103.631 49.9428 104.726Z" fill="#F3EEE1"/>
<path d="M154.689 106.807C154.248 105.85 153.69 105.341 153.7 104.892C152.134 105.713 152.467 106.358 154.689 106.807Z" fill="#F3EEE1"/>
<path d="M528.423 223.043C528.609 225.135 528.952 227.275 528.335 229.855L448.192 229.874C448.103 230.49 447.34 230.94 446.263 230.91L425.116 230.383C426.281 227.764 425.566 225.203 425.684 223.034C424.303 224.353 423.892 223.776 424.675 222.037C423.863 221.998 423.628 222.994 423.657 223.864L423.882 231.858L530.097 231.673L530.058 222.056C529.686 224.069 529.138 224.392 528.413 223.034L528.423 223.043Z" fill="#F3EEE1"/>
<path d="M425.693 223.043C425.243 223.043 424.763 222.496 424.685 222.047C423.902 223.786 424.313 224.363 425.693 223.043Z" fill="#F3EEE1"/>
<path d="M530.068 222.066C529.294 222.565 528.912 222.916 528.423 223.043C529.147 224.402 529.696 224.07 530.068 222.066Z" fill="#F3EEE1"/>
<path d="M216.319 66.8372H112.61C113.873 68.1956 113.306 68.5767 111.612 67.8144C111.631 68.1174 111.759 68.8015 112.699 68.8015H216.231C217.2 68.8015 217.347 68.1369 217.298 67.8144C216.084 68.6451 215.624 68.1956 216.319 66.8372Z" fill="#F3EEE1"/>
<path d="M112.61 66.8274C112.61 67.2769 112.062 67.7558 111.612 67.8047C113.296 68.5669 113.864 68.1858 112.61 66.8274Z" fill="#F3EEE1"/>
<path d="M217.298 67.8047L216.319 66.8274C215.614 68.1858 216.084 68.6353 217.298 67.8047Z" fill="#F3EEE1"/>
<path d="M91.0815 66.8372H-12.6268C-11.638 68.3226 -12.3331 68.694 -13.6548 67.4919C-13.6548 68.1076 -13.5177 68.8112 -12.5387 68.8112L92.041 68.7233C90.3375 68.2737 89.4368 67.9512 91.0717 66.8274L91.0815 66.8372Z" fill="#F3EEE1"/>
<path d="M92.0508 68.7233L91.0816 66.8274C89.4368 67.9512 90.3473 68.2737 92.0508 68.7233Z" fill="#F3EEE1"/>
<path d="M341.556 66.8273H252.523C252.425 67.4821 251.671 67.8535 250.653 67.8632L237.397 67.9317C236.408 65.8892 236.399 62.7033 237.857 60.9735V59.9865C236.428 60.9344 236.379 60.3578 236.624 58.7747C235.292 61.8433 235.821 65.2246 236.046 68.7819H341.468C342.447 68.7916 342.545 68.1271 342.535 67.8046C341.105 68.6646 340.587 68.2346 341.556 66.8273Z" fill="#F3EEE1"/>
<path d="M237.847 59.9965C237.397 59.9965 236.917 59.459 236.614 58.7847C236.369 60.3678 236.418 60.9444 237.847 59.9965Z" fill="#F3EEE1"/>
<path d="M341.556 66.8274C340.587 68.2347 341.106 68.6647 342.535 67.8047C342.104 67.7558 341.566 67.2769 341.556 66.8274Z" fill="#F3EEE1"/>
<path d="M152.721 223.043C152.525 225.252 152.535 227.422 153.592 229.875H74.4478C74.8688 230.422 75.1723 230.891 75.0548 231.096C74.3597 232.2 51.9106 231.096 49.0225 230.842C49.0225 231.184 49.1008 231.849 50.0896 231.849H154.552C154.777 228.233 154.973 225.086 154.366 222.105C154.229 223.982 154.043 224.568 152.731 223.053L152.721 223.043Z" fill="#F3EEE1"/>
<path d="M75.0548 231.086C75.1821 230.881 74.8786 230.422 74.4478 229.875C74.5066 230.265 74.1052 230.832 73.4296 230.832H49.0127C51.9008 231.077 74.3597 232.191 75.045 231.086H75.0548Z" fill="#F3EEE1"/>
<path d="M154.366 222.095C153.661 222.496 153.172 223.043 152.731 223.043C154.043 224.558 154.239 223.982 154.366 222.095Z" fill="#F3EEE1"/>
<path d="M-75.8916 294.296L29.2657 294.276C29.6475 292.038 29.6475 290.152 29.3147 288.481C28.3748 288.305 27.7874 287.328 27.5524 285.52L27.6797 292.205L-51.6509 292.781C-51.788 293.201 -51.9348 293.534 -52.0915 293.543C-60.0607 293.885 -68.4804 293.895 -76.2245 293.338C-76.2245 293.534 -76.2049 294.296 -75.8818 294.296H-75.8916Z" fill="#F3EEE1"/>
<path d="M29.305 288.481C29.1092 287.514 28.1987 286.292 27.5427 285.52C27.7777 287.318 28.3651 288.305 29.305 288.481Z" fill="#F3EEE1"/>
<path d="M50.0799 294.325H154.581C154.816 290.709 154.934 287.553 154.356 284.582C154.219 286.458 154.043 287.035 152.721 285.53C153.025 287.621 153.455 289.781 152.907 292.361H79.3431C79.2354 293.016 78.5109 293.387 77.4437 293.387H52.8702C51.8128 293.387 51.0785 293.025 50.9708 292.361H49.9918C51.2646 293.758 50.5499 294.149 48.9736 293.035C48.9736 293.641 49.1107 294.335 50.0799 294.325Z" fill="#F3EEE1"/>
<path d="M49.9918 292.351C49.982 292.801 49.4436 293.279 48.9736 293.025C50.5597 294.149 51.2743 293.749 49.9918 292.351Z" fill="#F3EEE1"/>
<path d="M154.356 284.582C153.651 284.973 153.162 285.53 152.721 285.53C154.043 287.044 154.219 286.468 154.356 284.582Z" fill="#F3EEE1"/>
<path d="M277.958 160.547C278.085 162.756 277.351 165.258 278.546 168.043L227.225 168.434C226.471 168.434 226.031 167.72 226.109 167.388L175.082 167.29L175.229 160.528C174.26 161.661 173.839 161.143 173.966 158.974C173.055 162.473 173.653 165.522 173.829 168.854L181.759 168.932C187.153 167.457 191.667 169.089 196.905 169.108L279.691 169.421C280.122 165.737 280.318 162.727 279.339 158.945C279.525 160.958 279.064 161.495 277.968 160.547H277.958Z" fill="#F3EEE1"/>
<path d="M277.958 160.547C279.055 161.495 279.505 160.958 279.329 158.945C278.888 160.01 278.409 160.547 277.958 160.547Z" fill="#F3EEE1"/>
<path d="M175.229 160.528C174.769 160.528 174.309 160.029 173.966 158.974C173.839 161.143 174.26 161.661 175.229 160.528Z" fill="#F3EEE1"/>
<path d="M-32.5402 43.8616C-25.5891 43.9495 -19.2254 43.9593 -12.2743 43.8616L29.3441 43.2655L29.3637 33.6296L-16.1121 33.698C-16.259 25.6454 -17.3066 18.0422 -16.0926 10.4977C-15.5835 7.32162 -16.1807 5.23027 -16.1807 2.11279L-16.21 -30.5181C-16.21 -33.3326 -15.6128 -34.9549 -16.0926 -38.0235C-16.7877 -42.4896 -17.0912 -48.5291 -16.2786 -53.1223C-14.8786 -61.0381 -16.2002 -67.9669 -16.21 -75.7362L-16.259 -129.3C-16.259 -133.248 -16.073 -136.2 -16.1023 -140.265L-16.3373 -167.071C-16.3373 -167.873 -15.3485 -169.261 -15.4464 -169.886C-15.5639 -170.609 -17.4338 -170.668 -17.4338 -170.13L-17.6786 34.4016C-21.2129 28.3231 -16.1611 21.834 -19.4506 15.56L-19.0982 -51.1775C-19.0786 -55.1257 -19.1765 -58.165 -19.1863 -62.162L-19.5289 -169.886C-19.5289 -170.16 -19.9891 -170.551 -20.4003 -170.492L-20.4296 33.5026C-22.8576 34.0107 -24.8549 34.0205 -27.1947 33.4635L-27.3318 -170.492C-27.7332 -170.531 -28.1542 -170.16 -28.1933 -169.896L-28.5654 34.2942C-31.1794 22.7624 -27.4395 11.4945 -30.0045 0.0214411L-29.75 -42.9783L-29.3682 -110.576C-29.3486 -113.293 -30.7878 -114.915 -29.6227 -118.159C-27.4395 -124.248 -32.0311 -133.473 -29.2996 -142.2C-28.5066 -144.741 -30.0535 -147.477 -30.1024 -149.911L-30.4549 -170.433C-30.6409 -170.521 -31.2087 -170.267 -31.2087 -169.915L-31.1892 33.7664L-75.9405 33.6687C-77.5657 36.7959 -77.5363 40.0893 -76.9587 43.285L-32.5402 43.8714V43.8616ZM-75.2454 35.3203H28.463V42.425H-75.2454V35.3203Z" fill="#F3EEE1"/>
<path d="M363.427 43.8616L405.036 43.2655L404.928 33.6687H359.208L359.149 -169.202C359.149 -170.15 358.542 -170.423 358.18 -170.404L358.258 33.6394H356.222L356.143 -170.404C355.781 -170.384 355.243 -170.091 355.243 -169.212V33.3951C352.805 34.0303 350.817 34.0108 348.409 33.3853L348.389 -169.896C348.37 -170.16 347.841 -170.56 347.459 -170.502L347.371 33.7567C346.764 33.5905 346.118 33.6296 345.56 33.7664L345.403 -170.511C345.022 -170.56 344.513 -170.169 344.493 -169.906L344.444 33.698L298.968 33.7469L298.537 43.2655L343.152 43.8616C350.103 43.9593 356.466 43.9593 363.417 43.8616H363.427ZM300.241 35.3105H403.548V42.425H300.241V35.3105Z" fill="#F3EEE1"/>
<path d="M358.258 33.6395L358.18 -170.404C357.338 -169.622 356.652 -169.241 356.222 -170.404C356.222 -170.404 356.173 -170.404 356.143 -170.404L356.222 33.6395H358.258Z" fill="#F3EEE1"/>
<path d="M488.665 43.8617L530.283 43.2655L530.117 33.6786H484.455L484.367 -169.945C484.367 -170.414 483.642 -170.609 481.439 -170.414H483.417V33.6297H481.439V-170.013C481.302 -170.296 480.969 -170.482 480.48 -170.14V33.4636C478.062 34.0597 476.055 34.0499 473.656 33.4049L473.627 -169.915C473.607 -170.189 473.069 -170.58 472.706 -170.502L472.227 -40.535L472.667 33.6883C472.011 33.5808 471.355 33.5808 470.66 33.7372L471.013 -170.687C470.347 -170.433 469.73 -170.16 469.73 -169.212L469.691 33.7176L424.235 33.7372L423.784 43.2558L468.399 43.8519C475.35 43.9496 481.713 43.9496 488.665 43.8519V43.8617ZM425.459 35.2715L528.697 35.3595V42.513L425.449 42.4251V35.2715H425.459Z" fill="#F3EEE1"/>
<path d="M481.439 -169.436V33.6395H483.417V-170.414H481.439C482.702 -168.586 482.702 -168.264 481.439 -169.436Z" fill="#F3EEE1"/>
<path d="M472.667 33.6884L472.227 -40.535L471.502 -39.8607L471.003 -170.687L470.65 33.7372C471.345 33.5809 472.001 33.5809 472.657 33.6884H472.667Z" fill="#F3EEE1"/>
<path d="M216.28 43.7738C224.053 43.8911 231.092 43.8715 238.866 43.7738L279.818 43.2754L279.652 33.6982H234.029L233.775 -170.247L232.903 33.7275C232.287 33.5711 231.64 33.5711 231.014 33.7275L230.985 -170.453C230.632 -170.433 230.005 -170.159 230.005 -169.212V33.532C227.597 34.0695 225.61 34.0695 223.231 33.4148L223.113 -170.511C222.722 -170.55 222.232 -170.179 222.193 -169.905L222.144 33.9816L220.372 33.7568L220.196 -169.896C220.196 -170.169 219.677 -170.56 219.285 -170.502L219.226 33.747L174.269 33.6395C174.416 36.8352 174.162 39.4738 173.026 43.1483L216.27 43.7836L216.28 43.7738ZM175.229 35.3595H278.379V42.4252H175.229V35.3595Z" fill="#F3EEE1"/>
<path d="M49.1204 43.2655L89.0842 43.7736C96.8577 43.8714 103.897 43.8616 111.67 43.7736L154.571 43.2752V33.6492H108.782L108.645 -170.551C107.696 -170.238 107.725 -169.71 107.725 -168.958L107.696 33.7274C107.079 33.5417 106.442 33.6101 105.924 33.7274L105.649 -170.57C104.602 -170.072 104.788 -169.427 104.788 -168.948L104.817 33.4733C102.379 33.9326 100.402 33.9814 98.013 33.4244L97.8955 -170.502C97.5039 -170.541 97.0242 -170.16 96.9752 -169.896L96.9263 33.8739L95.1542 33.7762L94.9486 -170.511C94.5766 -170.551 94.0773 -170.169 94.0381 -169.906V33.6883L49.1302 33.6394V43.2655H49.1204ZM49.9917 35.2812H153.7V42.425H49.9917V35.2812Z" fill="#F3EEE1"/>
<path d="M-14.1345 245.608L-13.4003 256.241H91.9333L91.9823 245.462L53.9079 245.569C51.754 245.569 49.4827 247.27 47.0645 246.302L46.4085 220.708L45.8701 195.66C45.6449 195.582 45.126 195.836 45.126 196.188L44.9791 246.507C44.4113 246.625 43.6477 246.625 43.1582 246.009L43.0309 195.641C42.7274 195.543 42.1693 195.875 42.1693 196.178V246.283C39.8295 246.732 37.9497 246.635 35.7861 245.96L35.2182 234.643C35.1399 233.041 36.1679 231.858 37.3623 230.832C34.5427 228.624 34.3077 225.008 36.8532 222.564C35.698 221.489 35.1987 220.151 35.2085 218.225L35.3162 196.178C35.1399 195.797 34.7875 195.631 34.4742 195.641L34.1903 246.341L33.0644 246.038L32.4182 237.653L32.3595 195.201C32.3595 194.888 31.8308 194.566 31.5175 194.664L31.3217 245.794L23.5678 245.511L-14.1345 245.599V245.608ZM91.0815 246.996V254.287H-12.7051V246.996H91.0815Z" fill="#F3EEE1"/>
<path d="M-76.1559 355.893L-52.2285 356.294L-4.78479 356.577C1.31455 356.616 7.12018 354.74 13.2685 356.352C18.5161 357.73 23.8713 356.43 29.3833 355.531L29.07 346.531L-16.0044 346.247C-16.631 339.68 -16.1317 333.025 -16.0338 326.028L-15.6226 296.25H-17.3359L-17.8059 346.765C-18.1877 346.755 -18.6576 346.609 -19.0296 346.169L-19.3723 339.621L-19.5975 296.201C-19.8716 296.104 -20.4296 296.416 -20.4296 296.729V346.208L-26.764 346.55C-27.6549 336.279 -27.3024 326.565 -26.9304 316.343C-26.8325 313.694 -28.487 310.802 -25.4618 308.593C-28.8689 306.14 -26.48 301.283 -27.6059 296.231C-27.7136 296.162 -28.2325 296.338 -28.2325 296.729L-28.3891 346.863L-29.5444 346.531L-29.4661 337.344C-29.4465 334.628 -29.7304 332.136 -30.0731 329.692C-30.543 326.243 -29.4759 322.979 -29.6814 319.773C-29.9947 314.916 -30.5038 310.645 -30.0143 305.749C-29.7206 302.866 -30.0241 299.348 -30.9444 296.162L-31.2479 346.433L-76.1167 346.003L-76.1461 355.873L-76.1559 355.893ZM-75.2454 348.006H28.0126V354.837H-75.2454V348.006Z" fill="#F3EEE1"/>
<path d="M34.4741 133.174L34.1804 183.513C33.73 183.464 33.2601 183.181 32.9762 182.692L32.4181 175.187L32.2517 133.174C31.9678 133.076 31.4195 133.379 31.4195 133.702L31.3118 183.269L-13.5178 182.995L-13.4787 193.755H91.943L91.9822 182.985L46.2616 183.259C47.0644 176.252 46.6923 170.427 46.5651 163.948L45.9581 133.711C45.9581 133.36 45.5371 133.106 45.2336 133.154L44.9399 183.435L43.5399 183.181L42.9818 133.076C42.179 133.408 42.1497 133.887 42.1497 134.65L42.179 182.936C40.0154 183.591 38.4196 183.513 35.8545 183.239L35.2084 173.183C35.0713 171.111 35.5902 169.489 37.0098 168.033C34.4741 165.805 34.4545 162.121 37.0098 159.902C35.5119 158.417 35.2084 156.814 35.2182 154.752L35.3063 133.702C35.13 133.321 34.7776 133.154 34.4643 133.164L34.4741 133.174ZM91.0814 183.992V191.8H-12.6269V183.992H91.0814Z" fill="#F3EEE1"/>
<path d="M-54.3334 168.942L19.5831 169.352L29.4223 169.02L29.0307 158.69C23.3328 160.127 18.3398 158.798 12.9453 158.759L-16.5626 158.554L-16.4255 125.317C-16.4059 119.883 -13.4003 113.775 -17.2773 108.498L-17.5905 159.511C-18.4423 159.462 -19.4507 158.573 -19.4507 157.645L-19.5878 108.752C-19.8913 108.654 -20.4395 108.987 -20.4395 109.29V159.394C-22.7598 159.834 -24.6493 159.717 -26.8326 159.003C-27.5179 149.524 -26.9696 140.376 -27.0088 130.76L-27.0382 121.535C-27.0577 117.333 -27.048 113.121 -27.9193 108.713L-28.6927 159.873C-32.1389 150.95 -29.2214 142.008 -29.6424 133.506C-29.9459 127.506 -30.8074 122.541 -29.3487 116.473C-28.8494 114.371 -30.3179 110.599 -31.013 108.703L-31.2676 158.808C-33.8522 159.609 -36.3977 158.642 -39.0215 158.642L-76.1266 158.554L-75.8231 170.036C-67.9419 167.525 -61.4901 168.893 -54.3237 168.932L-54.3334 168.942ZM-75.2455 160.557H27.9244V167.388H-75.2455V160.557Z" fill="#F3EEE1"/>
<path d="M502.89 356.831L508.862 355.688C516.136 356.958 523.185 357.652 530.224 355.903L529.931 346.57L484.611 346.218L484.259 296.201C483.926 296.221 483.623 296.387 483.446 296.749L483.29 346.511L481.704 346.277L481.175 296.319C480.353 296.7 480.47 297.14 480.47 297.706L480.499 346.169C478.14 346.814 475.957 346.775 473.774 346.013L473.441 296.221C473.225 296.153 472.687 296.416 472.687 296.758L472.511 346.589L470.934 346.277L470.66 296.758C470.484 296.387 470.181 296.221 469.848 296.211L469.485 346.404L424.254 346.384L423.696 355.932L442.846 356.333L502.87 356.831H502.89ZM425.488 347.918L528.805 348.016V354.945L425.478 354.847V347.918H425.488Z" fill="#F3EEE1"/>
<path d="M-76.1461 222.271L-76.1167 231.819C-72.1027 231.546 -67.56 232.611 -63.8887 231.438C-60.8243 230.461 -59.1404 231.643 -56.3697 231.653L29.3147 231.897L29.3637 222.095L11.1048 221.744C5.63206 221.636 0.0809795 220.59 -5.36241 221.538C-9.03376 222.174 -12.3331 222.623 -16.4352 221.558L-16.3471 187.012C-16.3373 181.725 -13.5569 175.793 -17.1597 170.603L-17.6198 222.017C-18.4226 221.959 -19.4506 221.069 -19.4506 220.151L-19.5877 171.258C-19.8912 171.16 -20.4394 171.493 -20.4394 171.796L-20.4884 221.822C-22.329 222.525 -26.1961 222.447 -27.0772 220.962L-27.1066 185.36C-27.1066 184.901 -25.4912 183.894 -25.736 183.581L-27.0772 181.93L-27.5863 171.297C-27.743 171.239 -28.2129 171.414 -28.2227 171.796L-28.6339 222.154C-31.0717 211.052 -28.1542 198.319 -29.6814 193.188C-31.9136 185.712 -26.8619 178.842 -31.0521 171.19L-31.2381 222.027L-45.669 221.763C-55.8508 220.444 -65.8859 220.845 -76.1559 222.291L-76.1461 222.271ZM28.463 223.043V229.874H-75.2454V223.043H28.463Z" fill="#F3EEE1"/>
<path d="M94.841 108.772C94.5767 108.684 94.0284 108.977 94.0284 109.299L93.9697 158.866C91.3557 159.648 88.8298 158.661 86.1962 158.661L49.2575 158.583C48.533 162.551 48.1219 165.59 48.8268 169.391C55.8366 167.955 61.6618 168.864 68.1821 168.913L144.811 169.382L154.62 168.991L154.278 158.837C148.1 159.55 142.706 159.052 136.802 159.052H109.008L108.871 113.13C108.871 112.319 109.595 110.873 109.82 110.316C110.192 109.407 108.596 108.283 107.823 108.899L107.588 158.808H106.11L105.718 109.319C105.718 108.996 105.189 108.684 104.896 108.772L104.768 159.111C102.869 158.925 100.803 158.827 98.2383 159.218L97.7683 108.781C97.4746 108.713 97.0047 109.016 97.0047 109.319L96.6131 159.922C94.0186 155.084 95.0956 149.934 95.0662 144.96L94.8313 108.801L94.841 108.772ZM153.201 160.557V167.388H49.8645V160.557H153.201Z" fill="#F3EEE1"/>
<path d="M418.86 246.019L418.733 195.651C418.419 195.563 417.891 195.905 417.891 196.217L417.822 245.315C416.07 246.586 413.426 246.527 411.517 245.96C410.078 240.37 411.596 235.083 411.39 229.542C411.302 227.05 409.931 224.529 412.643 222.545C411.282 221.489 410.93 220.16 410.93 218.235L410.842 195.67C410.587 195.582 410.068 195.846 410.068 196.188L409.921 246.488H419.584C419.32 246.419 419.065 246.273 418.85 246.009L418.86 246.019Z" fill="#F3EEE1"/>
<path d="M467.557 245.56L426.78 245.491C425.987 246.742 422.002 246.84 421.983 245.267L421.611 195.66C421.356 195.582 420.818 195.866 420.818 196.198L420.671 246.508L466.254 246.547V254.365L363.065 254.287V246.469L408.208 246.498L407.944 194.683C407.66 194.586 407.102 194.898 407.102 195.221V245.472L361.303 245.648L362.292 256.271L467.468 256.085L467.547 245.56H467.557Z" fill="#F3EEE1"/>
<path d="M-25.7458 59.5858L-27.0871 57.9245L-27.5864 46.3244C-27.7333 46.2462 -28.2619 46.4416 -28.2619 46.8228L-28.399 97.152C-28.7123 97.2399 -29.2312 96.9174 -29.2312 96.6144L-29.378 46.3048H-31.1011L-31.2284 97.0933H-76.1266L-76.0874 106.876L29.344 106.846V97.0933H-16.5626L-16.4353 61.8629C-16.4157 56.615 -13.4786 50.7709 -17.1304 45.4644L-17.708 97.1422C-18.2073 97.2497 -18.9808 97.2692 -19.4605 96.634L-19.5878 46.2657C-19.8913 46.168 -20.4493 46.5003 -20.4493 46.8032V96.9174C-22.9165 97.2594 -24.8451 97.2399 -27.2927 96.937L-27.0284 61.3352C-27.0284 60.8661 -25.5011 59.879 -25.7458 59.5761V59.5858ZM27.8853 98.0706V104.97H-75.2357V98.0706H27.8853Z" fill="#F3EEE1"/>
<path d="M132.602 356.342L154.493 355.952C154.846 352.14 155.276 349.169 153.759 346.062L108.968 346.374L108.861 303.218C108.861 301.019 111.817 297.374 107.784 295.781L107.588 346.55L106.178 346.257L105.61 296.221C105.317 296.143 104.798 296.465 104.798 296.759V346.218C102.419 346.814 100.324 346.736 98.1403 346.071L98.1991 310.235C98.1991 305.7 98.1501 301 97.2886 296.201L96.8774 346.55C96.5837 346.882 96.1921 346.892 96.1431 346.882C94.9291 344.439 95.076 341.361 95.076 338.253L94.9977 296.768C94.8214 296.397 94.5082 296.231 94.1557 296.221L93.9795 346.433L49.1204 346.052L49.0911 356.02L68.1821 356.401L132.622 356.362L132.602 356.342ZM49.9918 348.006H153.7V354.837H49.9918V348.006Z" fill="#F3EEE1"/>
<path d="M249.087 356.274L279.848 355.873L279.495 346.589L234.166 346.237L233.784 296.201C233.452 296.221 233.148 296.387 232.972 296.749L232.786 346.237H231.308L230.691 296.319C229.878 296.7 229.996 297.14 229.996 297.706L230.025 346.198C227.675 346.814 225.482 346.775 223.348 346.003L222.956 296.201C222.741 296.143 222.242 296.407 222.242 296.749L221.889 346.804C221.38 346.765 220.852 346.462 220.568 346.149L220.196 296.739C220.01 296.358 219.706 296.211 219.403 296.192L218.991 346.433L173.78 346.374L173.251 355.883L199.215 356.274L249.077 356.254L249.087 356.274ZM175.013 347.899H278.379V354.837H175.013V347.899Z" fill="#F3EEE1"/>
<path d="M546.858 320.614C546.535 320.633 546.231 320.799 546.065 321.161L545.908 371.774C545.34 372.018 544.263 371.744 544.263 370.914L543.95 320.623C543.656 320.536 543.128 320.848 543.128 321.161L543.01 371.353C540.739 372.067 538.654 371.959 536.578 371.451L536.157 360.643C536.079 358.58 536.51 356.978 537.959 355.502C535.56 353.401 535.296 349.893 537.802 347.557C536.598 346.462 536.167 345.143 536.167 343.208L536.079 320.653C535.824 320.565 535.305 320.829 535.305 321.171L535.159 371.588L533.592 371.637L533.289 321.171C533.112 320.799 532.809 320.633 532.476 320.623L532.104 371.598L486.442 371.441L486.471 381.175L573.311 381.409C577.903 381.419 581.555 383.256 586.371 381.263C587.967 380.598 590.973 381.39 592.872 381.263L592.902 371.432L547.367 371.647L546.848 320.643L546.858 320.614ZM592.02 380.227H488.312V372.419H592.02V380.227Z" fill="#F3EEE1"/>
<path d="M421.621 320.614C421.298 320.633 420.994 320.799 420.828 321.161L420.681 371.744L419.124 371.617L418.703 320.614C418.41 320.526 417.891 320.848 417.891 321.151L417.773 371.334C415.531 372.106 413.348 371.979 411.4 371.441L411.263 354.339C411.243 351.808 410.049 349.169 412.829 347.322C411.106 345.866 410.94 344.273 410.94 342.201L411.018 321.151C410.842 320.78 410.499 320.604 410.176 320.614L409.873 371.764L408.375 371.617L408.052 321.151C407.875 320.78 407.572 320.623 407.259 320.604L406.838 371.656L361.215 371.392L361.254 381.194H467.635L467.674 371.402L422.149 371.637L421.631 320.604L421.621 320.614ZM466.783 380.227H363.075V372.418H466.783V380.227Z" fill="#F3EEE1"/>
<path d="M171.156 320.614C170.833 320.633 170.53 320.809 170.353 321.161L170.207 371.783L168.758 371.597L168.219 320.545C167.407 320.877 167.387 321.356 167.387 322.119L167.328 371.343C164.998 372.067 162.932 371.959 160.886 371.471L160.387 360.662C160.289 358.561 161.19 356.987 161.983 355.502C159.633 352.404 159.692 349.443 162.648 347.058C160.446 345.485 160.455 343.677 160.446 341.253L160.358 320.672C160.103 320.584 159.594 320.848 159.594 321.19L159.457 371.588L157.939 371.617L157.577 321.19C157.391 320.809 157.088 320.653 156.755 320.643L156.51 371.646L110.74 371.461L110.78 381.243H217.161L217.2 371.461L171.675 371.637L171.156 320.653V320.614ZM216.319 380.227H112.61V372.418H216.319V380.227Z" fill="#F3EEE1"/>
<path d="M296.393 320.614C296.07 320.633 295.767 320.809 295.59 321.161L295.453 371.578L293.936 371.607L293.456 320.535C292.634 320.868 292.624 321.347 292.624 322.099L292.575 371.343C290.235 372.096 288.189 371.979 286.025 371.422L285.693 359.626C285.644 357.965 286.329 356.655 287.474 355.482C284.939 353.264 284.958 349.648 287.347 347.479C285.967 346.316 285.673 344.977 285.683 343.188L285.781 321.141C285.604 320.77 285.252 320.594 284.939 320.604L284.655 371.764L283.167 371.598L282.814 321.141C282.628 320.76 282.325 320.604 281.992 320.594L281.727 371.598L237.143 371.412L235.889 381.194H342.388L342.427 371.412L296.873 371.627L296.393 320.594V320.614ZM341.556 380.227H237.847V372.418H341.556V380.227Z" fill="#F3EEE1"/>
<path d="M46.4966 371.598L45.9189 320.614C45.5958 320.633 45.3021 320.809 45.1259 321.161L44.9791 371.764L43.5301 371.598L42.9818 320.555C42.1692 320.887 42.1497 321.366 42.1497 322.128L42.1203 371.373C40.0546 372.037 38.3119 371.92 36.0014 371.705C34.7874 365.969 35.6294 360.427 35.6489 354.505C35.6489 351.925 34.1706 349.218 37.1371 347.352C35.3356 345.886 35.2377 344.293 35.2279 342.221L35.1105 320.653C34.8657 320.565 34.3468 320.829 34.3468 321.171L34.1902 371.773L32.7314 371.627L32.3202 321.171C32.1342 320.78 31.8307 320.633 31.5174 320.623L31.1748 371.676L-13.0087 371.363C-13.9584 374.158 -14.9178 377.148 -13.8311 381.145L92.08 381.175L91.943 371.431L46.477 371.607L46.4966 371.598ZM91.0815 380.227H-12.6269V372.418H91.0815V380.227Z" fill="#F3EEE1"/>
<path d="M402.07 309.58L405.242 309.59L412.878 309.61L400.258 309.571L402.07 309.58Z" fill="#F3EEE1"/>
<path d="M416.794 309.619L418.116 309.629L414.572 309.619H416.794Z" fill="#F3EEE1"/>
<path d="M488.341 309.629C488.615 309.844 488.908 310.04 489.211 310.216C488.957 309.981 488.674 309.776 488.341 309.629Z" fill="#F3EEE1"/>
<path d="M487.744 192.299L506.933 192.846C508.01 192.875 508.774 192.426 508.862 191.81C501.901 192.416 494.862 192.582 487.744 192.308V192.299Z" fill="#F3EEE1"/>
<path d="M508.852 191.8L487.734 192.299C494.842 192.572 501.881 192.406 508.852 191.8Z" fill="#F3EEE1"/>
<path d="M487.744 192.299C494.852 192.572 501.891 192.406 508.862 191.8C501.891 192.406 494.862 192.572 487.744 192.299Z" fill="#F3EEE1"/>
<path d="M425.125 230.392L446.272 230.92C447.349 230.949 448.113 230.5 448.201 229.884C440.594 230.5 432.899 230.666 425.125 230.402V230.392Z" fill="#F3EEE1"/>
<path d="M448.191 229.875L425.116 230.392C432.879 230.656 440.565 230.49 448.191 229.875Z" fill="#F3EEE1"/>
<path d="M425.125 230.392C432.899 230.666 440.594 230.49 448.201 229.875C440.575 230.48 432.889 230.656 425.125 230.392Z" fill="#F3EEE1"/>
<path d="M237.377 66.6319C237.26 65.8892 237.27 64.648 237.377 63.4949C237.221 64.6676 237.172 65.899 237.377 66.6319Z" fill="#F3EEE1"/>
<path d="M252.523 66.8274C251.554 67.0619 248.842 67.2965 245.983 67.4431C248.891 67.3747 251.642 67.1694 252.523 66.8274Z" fill="#F3EEE1"/>
<path d="M237.622 67.277C237.515 67.2086 237.427 66.9741 237.378 66.632C237.162 65.8991 237.221 64.6677 237.378 63.495C237.476 62.3907 237.642 61.3743 237.857 60.9736C236.399 62.7034 236.408 65.8893 237.397 67.9318L250.653 67.8634C251.671 67.8634 252.425 67.492 252.523 66.8275C251.642 67.1695 248.891 67.365 245.983 67.4431C242.234 67.6288 238.249 67.6484 237.622 67.277Z" fill="#F3EEE1"/>
<path d="M237.847 60.9736C237.691 61.5404 237.495 62.4982 237.368 63.495C237.27 64.6482 237.26 65.8893 237.368 66.632C237.417 66.7884 237.466 66.9252 237.534 67.0327C237.789 67.4138 242.028 67.5506 245.973 67.4529C248.822 67.3063 251.534 67.0718 252.513 66.8372H237.926L237.838 60.9834L237.847 60.9736Z" fill="#F3EEE1"/>
<path d="M245.983 67.443C242.038 67.5407 237.798 67.3941 237.544 67.0228C237.475 66.9153 237.417 66.7784 237.377 66.6221C237.426 66.9641 237.515 67.1987 237.622 67.2671C238.249 67.6482 242.233 67.6287 245.983 67.4332V67.443Z" fill="#F3EEE1"/>
<path d="M237.847 60.9736C237.632 61.3743 237.456 62.3907 237.368 63.495C237.495 62.4982 237.69 61.5502 237.847 60.9736Z" fill="#F3EEE1"/>
<path d="M50.9707 292.361C54.6127 292.693 58.3428 292.889 62.0925 292.957C58.3526 292.889 54.6225 292.693 50.9707 292.361Z" fill="#F3EEE1"/>
<path d="M62.0925 292.957C58.3428 292.889 54.6127 292.693 50.9707 292.361C51.0784 293.016 51.8127 293.387 52.87 293.387H77.4436C78.5107 293.387 79.2352 293.016 79.3429 292.361C73.7037 292.879 67.8785 293.064 62.0925 292.957Z" fill="#F3EEE1"/>
<path d="M62.0925 292.957C67.8785 293.064 73.7135 292.859 79.3429 292.361H50.9707C54.6225 292.683 58.3526 292.889 62.0925 292.957Z" fill="#F3EEE1"/>
<path d="M62.0925 292.957C67.8786 293.064 73.7038 292.879 79.343 292.361C73.7234 292.859 67.8884 293.064 62.0925 292.957Z" fill="#F3EEE1"/>
<path d="M226.109 167.388C243.467 168.062 260.943 168.277 278.546 168.043C260.972 168.277 243.496 168.062 226.109 167.388Z" fill="#F3EEE1"/>
<path d="M226.109 167.388C226.031 167.72 226.471 168.444 227.225 168.434L278.546 168.043C260.943 168.277 243.467 168.062 226.109 167.388Z" fill="#F3EEE1"/>
<path d="M278.546 168.043L226.109 167.388C243.496 168.053 260.972 168.277 278.546 168.043Z" fill="#F3EEE1"/>
</g>
</g>
<defs>
<clipPath id="clip0_279_5492">
<rect width="531" height="321" fill="white"/>
</clipPath>
<clipPath id="clip1_279_5492">
<rect width="872" height="616" fill="white" transform="translate(-188 -171)"/>
</clipPath>
</defs>
</svg>
