<svg width="525" height="321" viewBox="0 0 525 321" fill="none" xmlns="http://www.w3.org/2000/svg">
<rect width="525" height="321" fill="#141414"/>
<g clip-path="url(#clip0_279_4712)">
<g clip-path="url(#clip1_279_4712)">
<path d="M176.678 201.406C176.253 210.239 175.409 219.083 175.674 227.915C175.928 236.389 176.226 244.873 177.136 253.336C177.76 259.123 178.096 264.954 178.929 270.719C179.928 277.639 180.998 284.549 182.08 291.458C183.431 300.047 184.96 308.604 186.692 317.105C188.392 325.412 190.168 333.72 191.967 342.011C193.799 350.429 195.564 358.886 197.153 367.37C198.191 372.903 199.382 378.43 200.243 383.98C200.861 387.965 201.501 392.017 201.512 396.113C201.518 398.412 202.064 400.684 202.064 403.016C202.08 412.352 201.176 421.621 200.491 430.918C199.967 438.054 199.195 445.256 200.1 452.453" stroke="#F3EEE1" stroke-width="2" stroke-linecap="round" stroke-linejoin="round"/>
<path d="M348.668 203.064C348.668 206.746 348.64 210.427 348.668 214.114C348.745 223.449 347.917 232.724 347.09 242.016C346.163 252.385 344.756 262.688 343.035 272.919C341.512 281.984 339.807 291.038 337.776 300.036C336.127 307.349 334.797 314.756 333.219 322.096C331.288 331.067 329.108 339.982 326.896 348.887C323.613 362.086 320.214 375.269 317.88 388.667C316.17 398.511 316.137 408.477 317.158 418.487C318.195 428.663 319.376 438.861 318.896 449.131" stroke="#F3EEE1" stroke-width="2" stroke-linecap="round" stroke-linejoin="round"/>
<path d="M243.356 449.684C243.207 439.137 243.23 430.487 244.283 424.562C245.85 415.762 247.197 406.963 246.623 398.036C245.966 387.822 246.176 377.59 245.663 367.376C245.023 354.497 245.701 341.591 246.275 328.723C246.474 324.235 246.623 319.686 247.097 315.17C247.621 310.14 248.024 305.061 248.278 299.992C248.515 295.277 248.99 290.579 249.547 285.925C250.43 278.557 251.202 271.172 252.102 263.805C252.874 257.487 253.459 251.125 253.994 244.774C254.154 242.9 253.862 240.756 254.811 238.937C256.289 239.224 257.939 239.462 259.743 239.589C262.717 239.799 265.371 239.656 267.584 239.385" stroke="#F3EEE1" stroke-width="2" stroke-linecap="round" stroke-linejoin="round"/>
<path d="M282.514 -162.033C284.037 -161.873 284.875 -163.216 285.466 -164.023C290.216 -170.523 293.913 -177.581 295.745 -185.502C295.96 -186.431 295.938 -187.304 297.383 -187.536C298.564 -187.724 299.452 -188.896 299.888 -190.195C302.868 -199.072 304.335 -208.17 303.69 -217.533C303.53 -219.832 302.542 -221.861 299.281 -221.656C299.552 -226.288 299.634 -230.898 299.066 -235.491C297.4 -248.923 293.218 -260.939 280.572 -268.053C273.824 -271.856 266.469 -273.005 258.816 -272.21C255.026 -271.812 251.346 -270.922 247.782 -269.49C239.13 -266.013 233.508 -259.64 229.866 -251.244C226.07 -242.489 225.121 -233.319 225.723 -223.901C225.794 -222.784 226.098 -221.773 224.101 -221.546C222.401 -221.352 221.563 -219.412 221.32 -217.555C220.674 -212.619 221.32 -207.766 222.142 -202.913C222.765 -199.204 223.108 -195.457 224.327 -191.859C225 -189.869 225.872 -188.166 227.957 -187.481C228.752 -187.221 228.89 -186.79 229.077 -186.077C230.915 -178.991 233.409 -172.209 238.132 -166.449C239.025 -165.36 238.893 -163.835 238.904 -162.597C238.965 -155.29 239.196 -148.005 237.409 -140.758C235.627 -133.54 231.797 -128.073 225.756 -123.916C215.383 -116.775 203.62 -113.265 191.575 -110.369C186.141 -109.064 180.551 -108.484 175.282 -106.323C167.619 -103.178 163.155 -97.3133 160.148 -89.9675C156.688 -81.5162 154.978 -72.5785 153.019 -63.7236C151.039 -54.7694 149.554 -45.7045 148.087 -36.6562C146.641 -27.7572 145.411 -18.8085 144.219 -9.87076C142.773 0.951781 141.615 11.8185 140.92 22.7129C140.324 32.0818 139.485 41.4727 140.324 50.8748C140.793 56.1313 142.669 60.9787 145.284 65.5001C150.686 74.8302 155.883 84.2876 162.129 93.0926" stroke="#F3EEE1" stroke-width="2" stroke-linecap="round" stroke-linejoin="round"/>
<path d="M267.633 239.517C267.49 249.295 268.323 259.04 268.825 268.785C269.272 277.44 269.824 286.096 270.447 294.747C271.402 308.084 271.998 321.438 272.665 334.792C273.531 352.192 273.068 369.592 273.051 386.992C273.046 393.426 272.676 399.877 272.566 406.322C272.456 412.7 273.702 418.896 274.839 425.098C276.412 433.709 276.842 442.349 276.185 451.065C276.163 451.342 276.185 451.618 276.185 451.894" stroke="#F3EEE1" stroke-width="2" stroke-linecap="round" stroke-linejoin="round"/>
<path d="M285.548 -163.415C285.995 -161.298 285.631 -159.181 285.615 -157.064C285.565 -150.348 285.758 -143.644 288.009 -137.177C290.354 -130.444 295.231 -125.79 301.036 -122.363C310.907 -116.538 321.671 -112.878 332.938 -110.596C338.003 -109.573 343.145 -108.993 348.133 -107.423C355.841 -104.991 360.9 -99.8449 364.067 -92.7036C368.26 -83.2463 370.534 -73.1866 372.939 -63.171C375.003 -54.5649 376.812 -45.8925 378.335 -37.187C379.483 -30.6094 380.432 -23.9766 381.271 -17.3328C382.462 -7.86995 382.981 1.64816 383.93 11.122C384.073 12.5812 383.952 14.0681 383.952 15.5384C383.924 24.7414 383.969 33.9499 384.04 43.153C384.106 52.2344 381.839 60.5144 377.342 68.2858C372.812 76.1125 368.277 83.9392 363.284 91.4841C363.002 91.9097 362.666 92.3076 362.737 92.8659" stroke="#F3EEE1" stroke-width="2" stroke-linecap="round" stroke-linejoin="round"/>
<path d="M155.452 218.53C148.732 220.371 141.857 221.498 135.054 222.93C126.999 224.627 118.905 226.174 110.8 227.611C100.135 229.507 89.508 231.619 78.8372 233.481C71.0466 234.841 63.2339 235.974 55.4046 237.063C42.7752 238.821 30.1182 239.993 17.3674 239.457C13.9079 239.313 10.2995 238.959 7.1932 237.257C3.09374 235.013 2.21095 232.487 5.8028 229.038C8.00978 226.915 10.5644 225.334 13.4941 224.301C17.5219 222.88 21.351 220.863 25.6325 220.183" stroke="#F3EEE1" stroke-width="2" stroke-linecap="round" stroke-linejoin="round"/>
<path d="M188.254 -55.1562C185.87 -47.9265 184.369 -40.4756 182.786 -33.0524C180.921 -24.3358 179.001 -15.6192 177.5 -6.82515C176.308 0.172462 174.984 7.14245 173.837 14.1511C172.915 19.7669 172.143 25.4048 171.221 31.0206C169.936 38.8528 170.758 46.3203 174.35 53.7159C179.271 63.8585 183.912 74.1449 188.811 84.3097C189.28 85.277 189.655 86.3051 190.345 86.9683C193.059 86.7528 195.206 83.9062 198.18 85.6915" stroke="#F3EEE1" stroke-width="2" stroke-linecap="round" stroke-linejoin="round"/>
<path d="M337.092 -55.709C339.239 -51.9338 339.868 -47.6612 340.905 -43.5488C343.106 -34.8212 344.403 -25.9166 345.976 -17.0618C347.785 -6.86384 349.286 3.37832 350.776 13.6205C351.973 21.8562 353.005 30.1472 353.617 38.4604C354.031 44.0817 351.57 48.9679 349.479 53.9204C344.878 64.8092 339.184 75.1896 334.334 85.9624" stroke="#F3EEE1" stroke-width="2" stroke-linecap="round" stroke-linejoin="round"/>
<path d="M510.737 217.425C514.5 218.209 518.131 219.331 521.502 221.266C523.096 222.184 524.553 223.3 524.443 225.157C524.316 227.296 522.363 228.313 520.636 228.966C518.186 229.9 515.554 230.469 512.939 230.635C508.354 230.922 503.769 231.414 499.162 231.237C490.146 230.895 481.147 230.254 472.143 229.69C464.689 229.225 457.262 228.474 449.83 227.855C443.849 227.352 437.88 226.628 431.904 226.014C423.821 225.179 415.721 224.417 407.66 223.433C401.873 222.725 396.052 222.244 390.275 221.382C386.727 220.851 383.108 220.68 379.533 220.216C378.992 220.144 378.567 219.945 378.159 219.647" stroke="#F3EEE1" stroke-width="2" stroke-linecap="round" stroke-linejoin="round"/>
<path d="M349.22 198.09C345.871 199.455 342.599 198.107 339.294 197.825C334.874 197.449 330.394 197.233 326.09 196.31C322.466 195.531 319.083 196.542 315.591 196.437C315.221 196.426 314.587 196.321 314.526 196.454C312.678 200.76 308.865 198.693 306.239 198.449C301.731 198.035 297.185 197.869 292.71 197.703C283.716 197.371 274.718 196.868 265.702 196.88C261.034 196.885 256.322 196.598 251.644 196.542C245.591 196.465 239.522 196.957 233.453 196.996C221.761 197.067 210.108 197.908 198.444 198.565C192.182 198.919 185.925 199.455 179.729 200.213C176.259 200.638 172.678 200.953 169.218 201.915C163.988 203.369 162.741 204.69 162.62 209.974C162.592 211.168 162.658 212.367 162.609 213.561C162.509 215.977 160.363 217.828 158.255 216.783C154.779 215.059 151.53 216.225 148.296 216.933C138.045 219.171 127.711 220.973 117.421 222.996C109.249 224.605 101.067 226.125 92.8791 227.634C85.734 228.949 78.5503 230.049 71.3886 231.276C65.7995 232.232 60.1882 232.995 54.5659 233.714C48.3368 234.51 42.102 235.311 35.8232 235.67C35.0563 235.715 34.35 235.488 33.6162 235.383" stroke="#F3EEE1" stroke-width="2" stroke-linecap="round" stroke-linejoin="round"/>
<path d="M66.1472 126.29C62.3457 133.426 58.1745 140.346 54.0143 147.277C53.0157 148.941 52.0943 150.654 50.7314 152.395C54.0309 153.241 57.231 153.517 60.3649 153.833C65.2478 154.319 70.0922 155.065 74.953 155.651C82.6885 156.58 90.4019 157.768 98.1098 158.934C105.652 160.073 113.172 161.366 120.715 162.505C121.763 162.665 122.74 162.875 123.749 162.472" stroke="#F3EEE1" stroke-width="2" stroke-linecap="round" stroke-linejoin="round"/>
<path d="M184.943 -108.457C186.29 -95.3236 186.08 -82.1298 186.56 -68.9637C186.709 -64.9232 186.897 -60.9546 188.215 -57.0744C188.806 -55.3277 189.942 -53.8906 190.488 -52.1274C191.807 -47.8879 192.122 -43.4826 192.602 -39.1326C193.385 -32.0023 194.367 -24.9218 195.68 -17.8689C197.689 -7.07954 199.719 3.70985 202.075 14.4329C203.857 22.5249 205.717 30.6059 207.267 38.7477C208.536 45.4026 209.59 52.1128 209.154 58.9059C208.685 66.3125 206.594 73.3544 203.73 80.1917C202.969 82.0157 202.241 83.8674 201.418 85.5422C201.832 86.9516 203.305 86.7637 203.962 87.6315" stroke="#F3EEE1" stroke-width="2" stroke-linecap="round" stroke-linejoin="round"/>
<path d="M339.846 -108.733C338.83 -106.058 338.985 -103.2 338.819 -100.442C338.521 -95.4839 338.582 -90.5037 338.532 -85.5346C338.472 -78.631 338.196 -71.7273 338.13 -64.8237C338.091 -61.0927 337.092 -57.4392 335.421 -54.0564C333.219 -49.5959 333.285 -44.7097 332.711 -39.9617C331.658 -31.2727 330.615 -22.5948 328.915 -13.9887C327.867 -8.68246 327.106 -3.30436 326.03 2.00189C324.479 9.66279 322.686 17.2905 321.252 24.957C319.95 31.8993 318.482 38.8361 317.649 45.9001C316.854 52.6103 316.54 59.2652 317.919 65.7764C319.249 72.0499 321.456 78.1521 324.137 84.0277" stroke="#F3EEE1" stroke-width="2" stroke-linecap="round" stroke-linejoin="round"/>
<path d="M317.246 101.433C314.548 100.018 313.572 97.0281 311.254 95.0825C306.973 96.6854 302.542 98.4597 297.731 99.6315C301.908 112.118 305.251 124.648 308.843 137.096C312.887 151.119 316.716 165.219 320.573 179.303C321.831 183.89 322.747 188.566 324.187 193.099C324.507 194.11 324.386 194.818 323.867 195.597" stroke="#F3EEE1" stroke-width="2" stroke-linecap="round" stroke-linejoin="round"/>
<path d="M178.328 114.412C174.361 109.752 170.813 104.777 167.282 99.8525C156.562 102.937 145.951 106.507 135.071 109.232C125.846 111.543 116.51 113.284 107.208 115.202C100.995 116.484 94.7386 117.568 88.5038 118.712C86.2307 119.126 83.7919 119.287 81.585 120.215" stroke="#F3EEE1" stroke-width="2" stroke-linecap="round" stroke-linejoin="round"/>
<path d="M105.012 224.881C104.665 220.255 105.31 215.662 105.652 211.079C105.928 207.382 105.305 203.695 106.518 199.549C82.9203 206.237 60.1277 212.887 37.2083 219.077" stroke="#F3EEE1" stroke-width="2" stroke-linecap="round" stroke-linejoin="round"/>
<path d="M161.792 94.8062C157.406 95.4142 153.185 96.7684 148.859 97.6804C142.795 98.9627 136.688 100.068 130.646 101.45C124.069 102.953 117.393 103.904 110.778 105.192C106.888 105.949 102.888 106.358 98.9538 106.988C93.5247 107.856 88.0844 108.63 82.6663 109.608C79.869 110.117 76.9999 110.703 74.1419 110.741C72.6301 110.758 71.3831 111.438 70.0314 111.753C66.3181 112.61 63.4877 110.498 60.3758 109.409C54.9687 107.519 49.6996 105.264 44.1159 103.865C42.3283 103.418 40.822 103.805 40.0716 105.087C39.3985 106.242 40.2868 107.668 41.3517 108.613C45.8594 112.615 50.941 115.821 55.9619 119.099C77.3475 133.05 99.1359 146.354 120.731 159.979C126.491 163.616 132.323 167.131 138.122 170.702C141.857 173.001 144.853 176.357 148.865 178.158C151.557 179.369 153.775 181.044 155.75 183.166C156.225 183.675 156.313 184.272 156.556 184.841" stroke="#F3EEE1" stroke-width="2" stroke-linecap="round" stroke-linejoin="round"/>
<path d="M241.723 102.815C239.781 107.806 239.152 113.135 237.977 118.308C236.118 126.472 234.38 134.669 232.658 142.866C229.955 155.745 227.245 168.624 224.57 181.508C223.703 185.687 223.483 190.064 221.447 194.011C221.187 194.514 221.303 196.05 221.883 196.99" stroke="#F3EEE1" stroke-width="2" stroke-linecap="round" stroke-linejoin="round"/>
<path d="M311.734 195.056C307.767 195.625 303.8 194.923 299.894 194.641C294.106 194.221 288.302 194.05 282.514 193.757C268.196 193.027 253.856 192.922 239.522 193.165C234.744 193.248 229.96 193.397 225.188 193.663C224.172 193.718 223.141 193.773 222.158 193.397" stroke="#F3EEE1" stroke-width="2" stroke-linecap="round" stroke-linejoin="round"/>
<path d="M339.018 88.4551C344.453 88.6098 349.479 90.7434 354.732 91.7604C362.285 93.2252 369.75 95.1155 377.326 96.5029C386.7 98.2219 396.068 99.9962 405.448 101.715C414.348 103.351 423.258 104.916 432.175 106.469C437.874 107.464 443.629 108.149 449.268 109.465C451.712 110.034 453.577 108.475 455.58 107.712C460.402 105.877 465.191 104.003 470.217 102.826C472.772 102.229 475.382 102.456 477.931 102.622C480.132 102.76 480.844 104.761 480.149 107.524C479.393 110.537 477.263 112.681 475.404 114.937C473.964 116.683 472.546 118.524 470.742 119.917C469.384 120.967 469.506 122.006 470.217 123.261" stroke="#F3EEE1" stroke-width="2" stroke-linecap="round" stroke-linejoin="round"/>
<path d="M229.872 97.5642C229.116 101.837 227.935 106.01 227.113 110.266C225.706 117.573 223.952 124.803 222.357 132.066C220.514 140.44 218.688 148.819 216.9 157.21C215.195 165.208 213.364 173.178 211.896 181.232C211.14 185.372 209.915 189.423 209.755 193.668" stroke="#F3EEE1" stroke-width="2" stroke-linecap="round" stroke-linejoin="round"/>
<path d="M214.434 92.5952C219.063 94.5574 223.913 95.9337 228.79 96.89C232.675 97.6527 236.691 97.9623 240.62 98.6698C251.958 100.72 263.407 99.6205 274.795 99.5929C277.344 99.5873 280.202 99.8139 282.806 98.7085C284.097 98.1612 284.969 99.0898 285.256 100.328C287.391 109.564 290.431 118.546 292.986 127.666C297.03 142.12 301.268 156.513 305.196 171.001C307.249 178.562 309.478 186.079 311.458 193.668C311.707 194.619 312.093 195.487 313.108 195.879" stroke="#F3EEE1" stroke-width="2" stroke-linecap="round" stroke-linejoin="round"/>
<path d="M49.8872 155.286C54.6543 156.016 59.4545 156.486 64.2215 157.193C70.379 158.105 76.542 158.973 82.6995 159.874C89.4859 160.869 96.2724 161.897 103.081 162.726C106.7 163.168 106.733 163.312 106.982 166.883C107.307 171.498 107.136 176.091 106.949 180.695C106.888 182.221 106.882 183.735 106.11 185.112" stroke="#F3EEE1" stroke-width="2" stroke-linecap="round" stroke-linejoin="round"/>
<path d="M340.673 94.2534C348.966 97.8738 357.584 100.455 366.291 102.871C378.346 106.209 390.496 109.172 402.7 111.869C411.407 113.793 420.179 115.434 428.886 117.396C430.58 117.778 432.428 117.474 433.835 118.834" stroke="#F3EEE1" stroke-width="2" stroke-linecap="round" stroke-linejoin="round"/>
<path d="M106.667 190.086C105.961 192.253 106.756 194.541 106.22 196.725C94.3357 199.953 82.5836 203.291 70.8369 206.657C60.271 209.686 49.6058 212.395 39.1392 215.766C38.6095 215.938 37.9585 215.474 37.4895 216.048" stroke="#F3EEE1" stroke-width="2" stroke-linecap="round" stroke-linejoin="round"/>
<path d="M68.9058 122.973C74.2136 127.417 80.2331 130.828 86.043 134.492C100.151 143.391 114.232 152.34 128.643 161.018C129.245 160.819 129.565 160.255 129.548 159.426C129.46 155.557 129.747 151.688 129.278 147.824C129.101 146.382 128.56 145.447 127.087 144.74C112.67 137.82 98.7386 129.949 84.4319 122.791C80.5973 120.873 77.3972 120.807 73.5791 121.509C71.4714 121.895 69.4741 122.946 67.2561 122.691" stroke="#F3EEE1" stroke-width="2" stroke-linecap="round" stroke-linejoin="round"/>
<path d="M378.435 217.148C385.8 217.834 393.144 218.762 400.493 219.536C406.27 220.144 412.058 220.746 417.84 221.354C423.998 222.001 430.166 222.493 436.313 223.245C442.365 223.991 448.445 224.505 454.504 225.196C460.104 225.837 465.726 226.296 471.332 226.694C479.669 227.285 488.011 228.324 496.403 227.893C498.522 227.783 500.629 228.739 502.743 227.915" stroke="#F3EEE1" stroke-width="2" stroke-linecap="round" stroke-linejoin="round"/>
<path d="M308 184C304.491 184.558 300.916 184.293 297.383 184.411C278.899 185.045 260.391 185.107 241.895 184.88C235.934 184.809 229.967 184.809 224 184.705" stroke="#F3EEE1" stroke-width="2" stroke-linecap="round" stroke-linejoin="round"/>
<path d="M460.573 180.143C459.701 172.896 459.613 165.611 459.149 157.923C456.446 157.127 453.527 158.459 450.669 158.962C442.365 160.421 434.111 162.151 425.846 163.848C421.415 164.76 416.974 165.656 412.621 166.899C411.76 167.148 410.96 167.253 410.132 166.883" stroke="#F3EEE1" stroke-width="2" stroke-linecap="round" stroke-linejoin="round"/>
<path d="M85.9934 119.939C92.1564 123.681 98.6284 126.837 105.001 130.176C115.561 135.714 126.216 141.064 136.748 146.653C139.088 147.891 142.144 148.311 144.269 149.499C146.956 150.997 149.863 152.351 152.418 154.186" stroke="#F3EEE1" stroke-width="2" stroke-linecap="round" stroke-linejoin="round"/>
<path d="M465.257 118.833C465.036 118.165 463.464 118.076 464.474 116.844C465.566 117.17 466.857 116.96 467.972 118.286C466.587 119.872 464.76 121.1 463.309 122.686C462.807 123.239 462.162 123.1 461.389 123.045C456.07 122.647 450.89 121.525 445.687 120.486C443.568 120.06 441.378 119.978 439.336 119.137C439.033 119.01 438.63 119.099 438.227 119.364C429.454 125.179 420.191 130.175 411.208 135.648C402.132 141.175 392.857 146.365 383.66 151.693C383.522 151.771 383.295 151.704 383.113 151.704" stroke="#F3EEE1" stroke-width="2" stroke-linecap="round" stroke-linejoin="round"/>
<path d="M117.415 192.568C112.323 190.584 106.927 189.672 101.691 188.202C85.2485 183.592 68.6797 179.424 52.3756 174.311C46.8802 172.587 41.3297 171.067 35.8288 169.364C33.7763 168.729 33.4232 169.022 33.6218 171.305" stroke="#F3EEE1" stroke-width="2" stroke-linecap="round" stroke-linejoin="round"/>
<path d="M40.5186 170.475C40.4137 169.138 40.7558 167.982 41.9531 167.142C51.7742 170.663 61.8711 173.421 71.9404 176.29C82.578 179.319 93.2488 182.21 103.925 185.09C110.557 186.875 117.161 188.749 123.771 190.617C125.404 191.081 126.988 191.065 128.754 190.435C134.337 188.439 140.131 187.091 145.808 185.372C148.754 184.476 151.916 184.272 154.636 182.63" stroke="#F3EEE1" stroke-width="2" stroke-linecap="round" stroke-linejoin="round"/>
<path d="M437.692 119.11C435.926 118.281 434.475 118.529 432.693 119.596C420.946 126.616 409.244 133.718 397.403 140.572C389.685 145.038 382.021 149.654 374.021 153.628C373.298 153.987 372.586 154.341 372.095 155.01" stroke="#F3EEE1" stroke-width="2" stroke-linecap="round" stroke-linejoin="round"/>
<path d="M409.029 167.712C411.302 171.006 414.254 173.72 416.77 176.804C420.284 181.115 423.286 185.698 425.101 190.871C434.817 188.561 444.263 185.913 453.681 183.172C455.916 182.519 458.162 181.906 460.297 180.961" stroke="#F3EEE1" stroke-width="2" stroke-linecap="round" stroke-linejoin="round"/>
<path d="M201.485 100.328C192.1 112.494 182.714 124.654 173.583 137.013C168.021 144.541 162.714 152.296 156.275 159.144C156.054 159.377 155.9 159.774 155.453 159.703" stroke="#F3EEE1" stroke-width="2" stroke-linecap="round" stroke-linejoin="round"/>
<path d="M464.981 208.034C464.987 207.575 465.456 207.26 465.014 206.63C462.642 203.241 462.813 199.151 462.316 195.321C461.847 191.734 460.838 188.213 461.18 184.145C455.144 186.101 449.422 187.56 443.75 189.219C437.162 191.148 430.376 192.38 423.915 194.779" stroke="#F3EEE1" stroke-width="2" stroke-linecap="round" stroke-linejoin="round"/>
<path d="M499.438 213.832C500.342 210.775 499.007 207.851 498.461 205.021C497.026 197.559 495.57 190.097 494.257 182.613C494.13 181.906 493.479 181.414 493.655 180.69C494.102 178.871 491.57 176.793 494.191 175.151C496.028 174.002 497.484 172.349 499.283 171.083C502.456 168.85 505.899 167.115 509.082 164.948C511.366 163.395 513.733 161.98 515.742 160.023C516.426 159.354 517.386 158.785 517.844 158.006C518.865 156.259 520.636 154.568 519.527 152.252C518.451 150.002 516.31 149.781 514.053 149.411C507.366 148.311 500.8 149.35 494.196 150.024C492.734 150.173 491.228 149.77 489.788 150.306" stroke="#F3EEE1" stroke-width="2" stroke-linecap="round" stroke-linejoin="round"/>
<path d="M108.869 190.91C108.383 192.568 108.505 194.226 108.852 196.061C111.804 194.586 115.197 194.801 118.022 192.933C118.839 192.391 120.367 193.077 121.548 193.386C131.104 195.873 140.655 198.372 150.211 200.843C151.342 201.136 152.457 201.451 153.549 201.97C154.79 200.831 153.996 197.3 157.378 198.643" stroke="#F3EEE1" stroke-width="2" stroke-linecap="round" stroke-linejoin="round"/>
<path d="M59.256 122.144C53.264 131.071 47.9617 140.434 42.1684 149.483C39.6745 153.379 37.28 157.337 35.0344 161.377C32.8053 165.385 31.3322 169.597 31.0453 174.333C30.7308 179.502 29.8425 184.653 29.2742 189.81C28.5238 196.609 27.8231 203.418 27.2603 210.239C26.9403 214.108 26.4658 217.966 26.1954 221.841C26.0906 223.344 24.8271 223.173 23.9664 223.472C19.5248 225.036 15.133 226.65 10.9783 228.938C9.3286 229.85 8.05959 230.972 6.75195 232.177C7.4637 235.289 10.2059 235.101 12.148 235.538C15.2709 236.245 18.5427 236.14 21.7704 236.278C24.7719 236.406 26.3444 234.957 27.5638 232.603" stroke="#F3EEE1" stroke-width="2" stroke-linecap="round" stroke-linejoin="round"/>
<path d="M462.498 121.592C460.17 127.655 454.597 130.684 450.029 134.492C436.406 145.857 421.487 155.441 406.529 164.926C403.721 166.706 400.284 166.54 397.166 167.413C391.285 169.06 385.155 169.812 379.527 172.393C376.641 173.714 374.782 176.373 372.09 177.932" stroke="#F3EEE1" stroke-width="2" stroke-linecap="round" stroke-linejoin="round"/>
<path d="M374.302 98.1169C379.775 99.5651 385.37 100.494 390.876 101.842C395.18 102.898 399.671 103.407 404.063 104.23C411.981 105.712 419.909 107.149 427.755 108.973C429.675 109.42 431.38 108.674 433.317 108.973C436.809 109.514 440.291 110.144 443.761 110.819" stroke="#F3EEE1" stroke-width="2" stroke-linecap="round" stroke-linejoin="round"/>
<path d="M201.209 85.1387C200.381 84.5307 199.553 84.9011 198.726 85.1387C198.45 85.3211 198.389 85.498 198.444 85.6915C200.547 92.7278 197.186 97.8185 192.37 102.24C181.815 111.919 171.304 121.641 160.7 131.27C154.581 136.825 148.092 141.982 142.498 148.106" stroke="#F3EEE1" stroke-width="2" stroke-linecap="round" stroke-linejoin="round"/>
<path d="M500.812 171.028C502.561 174.792 502.638 178.949 503.537 182.912C505.137 189.954 506.351 197.078 507.648 204.181C508.503 208.868 509.463 213.544 510.329 218.226C510.804 220.796 510.478 223.731 512.365 226.003C512.669 226.373 512.222 226.91 512.111 227.363" stroke="#F3EEE1" stroke-width="2" stroke-linecap="round" stroke-linejoin="round"/>
<path d="M423.363 198.643C421.393 198.941 419.44 198.272 417.929 197.405C416.384 196.52 414.971 196.719 413.741 197.062C406.414 199.085 399.037 200.92 391.66 202.75C387.13 203.872 382.705 205.701 377.888 205.27" stroke="#F3EEE1" stroke-width="2" stroke-linecap="round" stroke-linejoin="round"/>
<path d="M242.275 99.7751C241.894 100.571 241.293 101.345 242.154 102.467C250.248 103.103 258.502 103.711 266.806 103.119C269.548 102.926 272.356 103.39 275.06 103.009C278.276 102.561 281.57 102.953 284.715 101.981" stroke="#F3EEE1" stroke-width="2" stroke-linecap="round" stroke-linejoin="round"/>
<path d="M41.3408 171.581C40.9325 176.373 40.4415 181.165 39.8787 185.93C39.1118 192.369 38.6262 198.842 37.8428 205.281C37.3021 209.747 37.2358 214.313 36.7889 218.79C36.3586 223.118 35.7627 227.424 35.4703 231.779C35.2882 234.471 32.6122 236.251 29.7707 236.184C28.3031 236.151 26.7968 236.516 25.3623 235.93" stroke="#F3EEE1" stroke-width="2" stroke-linecap="round" stroke-linejoin="round"/>
<path d="M243.654 -13.1763C239.919 -8.30115 235.158 -4.73049 229.303 -3.01701C219.753 -0.220173 210.677 -1.57438 202.307 -7.10172" stroke="#F3EEE1" stroke-width="2" stroke-linecap="round" stroke-linejoin="round"/>
<path d="M463.05 154.181C458.575 154.391 454.211 155.463 449.841 156.248C444.589 157.188 439.331 158.254 434.089 159.354C429.134 160.393 424.163 161.366 419.225 162.494C418.359 162.693 417.564 162.842 416.737 162.466" stroke="#F3EEE1" stroke-width="2" stroke-linecap="round" stroke-linejoin="round"/>
<path d="M468.562 118.004C471.183 115.009 474.08 112.245 476.286 108.895C476.899 107.961 477.793 106.922 477.318 105.883C476.634 104.396 474.984 104.927 473.804 105.07C466.714 105.916 460.33 109.089 453.704 111.449C452.832 111.758 451.563 112.61 452.164 114.141" stroke="#F3EEE1" stroke-width="2" stroke-linecap="round" stroke-linejoin="round"/>
<path d="M499.708 216.319C492.668 215.009 485.727 213.251 478.775 211.577C475.304 210.742 471.724 210.703 468.286 209.708C455.21 205.928 441.891 203.169 428.616 200.234C428.103 200.118 427.573 199.715 426.949 199.754" stroke="#F3EEE1" stroke-width="2" stroke-linecap="round" stroke-linejoin="round"/>
<path d="M331.304 91.4897C331.332 91.8877 331.1 92.457 330.99 92.551C327.553 95.486 329.418 98.1723 331.299 100.881C337.241 109.415 343.641 117.612 349.832 125.964C356.602 135.1 363.366 144.243 370.169 153.346C374.379 158.973 378.44 164.716 382.843 170.199" stroke="#F3EEE1" stroke-width="2" stroke-linecap="round" stroke-linejoin="round"/>
<path d="M464.154 205.552C460.722 205.541 457.533 204.258 454.25 203.54C445.588 201.655 436.997 199.411 428.323 197.537C426.823 197.211 425.592 196.592 425.565 194.779" stroke="#F3EEE1" stroke-width="2" stroke-linecap="round" stroke-linejoin="round"/>
<path d="M326.615 96.188C323.867 98.3658 320.474 99.3662 317.257 101.544C319.315 104.988 321.986 108.249 324.441 111.631C329.898 119.132 335.514 126.505 340.96 134.017C347.261 142.701 353.772 151.229 359.935 160.007C363.339 164.86 367.013 169.514 370.489 174.311C371.14 175.212 371.466 175.859 370.991 176.832" stroke="#F3EEE1" stroke-width="2" stroke-linecap="round" stroke-linejoin="round"/>
<path d="M490.891 167.988C481.666 154.479 472.667 140.821 463.718 127.069C449.383 139.572 434.155 150.035 418.944 160.515C410.524 166.313 401.884 171.802 393.26 177.279C388.548 180.27 384.697 184.349 379.842 187.091C379.704 187.168 379.444 187.594 379.262 187.87" stroke="#F3EEE1" stroke-width="2" stroke-linecap="round" stroke-linejoin="round"/>
<path d="M180.535 117.728C180.071 120.442 177.787 122.012 176.314 124.013C169.285 133.569 161.947 142.911 154.559 152.191C150.972 156.701 147.596 161.377 143.838 165.744C143.358 166.302 143.568 167.004 143.049 167.435" stroke="#F3EEE1" stroke-width="2" stroke-linecap="round" stroke-linejoin="round"/>
<path d="M40.2427 151.693C38.6151 150.676 36.7557 151.119 35.0067 150.875C29.3402 150.102 23.6352 149.709 17.9191 149.444C14.9673 149.311 12.0431 149.234 9.09674 149.444C7.41392 149.565 6.2718 150.096 5.48281 151.671C4.69381 153.247 6.05111 153.899 6.67458 154.684C7.94911 156.298 9.74779 157.342 11.5686 158.343C18.1233 161.941 24.8821 165.07 31.9776 167.43" stroke="#F3EEE1" stroke-width="2" stroke-linecap="round" stroke-linejoin="round"/>
<path d="M369.888 206.099C366.004 204.026 361.623 204.408 357.474 203.667C350.632 202.451 343.702 201.738 336.8 200.942C330.036 200.163 323.216 199.676 316.413 199.196C315.641 199.14 314.807 199.378 314.206 198.643" stroke="#F3EEE1" stroke-width="2" stroke-linecap="round" stroke-linejoin="round"/>
<path d="M411.788 194.226C405.277 196.371 398.546 197.675 391.952 199.516C387.461 200.771 382.854 201.561 378.435 203.059" stroke="#F3EEE1" stroke-width="2" stroke-linecap="round" stroke-linejoin="round"/>
<path d="M157.999 156.999C157.999 156.999 207.079 183.52 210.853 183.736" stroke="#F3EEE1" stroke-width="2" stroke-linecap="round" stroke-linejoin="round"/>
<path d="M404.068 165.506C402.016 162.566 398.612 161.549 395.77 159.747C391.527 157.061 386.804 155.264 382.302 153.059C381.679 152.755 381.193 152.644 380.636 153.075C378.501 154.728 375.874 155.563 373.745 157.221" stroke="#F3EEE1" stroke-width="2" stroke-linecap="round" stroke-linejoin="round"/>
<path d="M218.02 196.99C214.434 193.911 210.23 194.083 205.887 194.475C198.45 195.155 190.996 195.674 183.564 196.432C183.018 196.487 182.355 196.238 181.931 196.47C179.442 197.819 178.162 196.238 176.97 194.492C176.579 193.922 176.253 193.276 176.121 192.535C174.615 193.165 173.202 193.441 171.696 192.319C169.141 190.412 166.366 188.821 163.718 187.052C162.962 186.543 162.261 185.875 161.24 185.941" stroke="#F3EEE1" stroke-width="2" stroke-linecap="round" stroke-linejoin="round"/>
<path d="M424.467 190.91C421.366 192.225 418.044 192.822 414.806 193.607C412.295 194.221 410.039 192.568 407.661 191.988C399.478 189.981 391.219 188.295 383.125 185.935" stroke="#F3EEE1" stroke-width="2" stroke-linecap="round" stroke-linejoin="round"/>
<path d="M343.432 138.439C342.731 141.031 343.967 143.458 344.397 145.873C345.214 150.472 345.832 155.087 346.538 159.697C347.371 165.114 347.592 170.58 347.967 176.014C348.177 179.087 348.535 182.216 348.287 185.405C348.044 188.45 348.624 191.64 348.723 194.779C348.789 196.869 349.942 198.317 352.249 198.67C354.958 199.091 357.584 199.942 360.232 200.638C361.662 201.014 362.837 200.583 364.415 200.218C363.885 201.915 365.165 203.02 365.485 204.446" stroke="#F3EEE1" stroke-width="2" stroke-linecap="round" stroke-linejoin="round"/>
<path d="M38.5875 154.181C33.0811 153.617 27.5691 153.164 22.0517 152.76C18.3715 152.495 14.719 151.887 11.0223 152.506C10.8568 152.534 10.6581 152.523 10.4761 152.799" stroke="#F3EEE1" stroke-width="2" stroke-linecap="round" stroke-linejoin="round"/>
<path d="M469.666 123.802C471.095 122.233 471.475 124.195 471.812 124.67C474.935 129.12 477.92 133.663 480.954 138.174C487.25 147.531 493.424 156.972 499.774 166.291C500.414 167.231 499.697 168.474 500.817 169.094" stroke="#F3EEE1" stroke-width="2" stroke-linecap="round" stroke-linejoin="round"/>
<path d="M406.822 194.779C398.402 192.607 390.016 190.324 381.475 188.644C381.182 188.588 380.564 188.655 380.36 188.146" stroke="#F3EEE1" stroke-width="2" stroke-linecap="round" stroke-linejoin="round"/>
<path d="M127.887 191.463C134.023 193.204 140.213 194.724 146.354 196.432C149.019 197.172 151.75 197.659 154.349 198.643" stroke="#F3EEE1" stroke-width="2" stroke-linecap="round" stroke-linejoin="round"/>
<path d="M500.26 166.335C506.583 163.279 512.999 160.344 517.005 153.927C515.46 151.92 513.22 151.898 511.278 151.765C505.385 151.362 499.515 152.031 493.639 152.495C492.828 152.556 492.149 152.81 491.437 153.081" stroke="#F3EEE1" stroke-width="2" stroke-linecap="round" stroke-linejoin="round"/>
<path d="M472.976 210.245C472.353 209.255 472.943 208.382 473.07 207.47C481.931 210.687 491.239 211.461 499.846 214.274C501.407 219.188 500.834 224.605 504.288 228.761C508.437 228.209 512.475 227.711 516.531 227.357C517.287 227.291 518.026 227.142 518.771 226.943C519.952 226.628 520.95 226.285 521.165 225.141C521.403 223.881 520.376 223.411 519.306 222.902C516.729 221.675 514.258 220.227 511.295 220.183" stroke="#F3EEE1" stroke-width="2" stroke-linecap="round" stroke-linejoin="round"/>
<path d="M347.564 180.419C341.225 181.967 334.714 182.027 328.264 182.586C326.256 182.757 324.237 183.105 322.206 182.906" stroke="#F3EEE1" stroke-width="2" stroke-linecap="round" stroke-linejoin="round"/>
<path d="M108.322 199.472C108.576 202.246 108.052 205.01 108.113 207.757C108.24 213.406 107.302 218.978 107.219 224.605" stroke="#F3EEE1" stroke-width="2" stroke-linecap="round" stroke-linejoin="round"/>
<path d="M469.114 182.354C470.118 189.534 470.835 196.752 472.06 203.91C472.292 205.259 472.926 206.165 473.528 207.21" stroke="#F3EEE1" stroke-width="2" stroke-linecap="round" stroke-linejoin="round"/>
<path d="M9.37256 152.799C12.6885 155.723 16.7715 157.342 20.7054 159.078C26.9511 161.836 33.2852 164.462 39.9723 166.031C40.7227 166.208 40.833 167.148 41.622 167.159" stroke="#F3EEE1" stroke-width="2" stroke-linecap="round" stroke-linejoin="round"/>
<path d="M176.402 196.99C173.119 198.267 169.533 198.084 166.189 199.157C164.314 199.759 162.476 200.539 160.418 200.633C158.432 200.721 157.957 199.682 157.946 198.096C157.908 194.221 158.051 190.346 157.4 186.494C157.157 185.057 156.705 184.764 154.906 185.399C148.567 187.643 142.012 189.163 135.628 191.247C134.9 191.485 133.852 190.976 133.405 192.021" stroke="#F3EEE1" stroke-width="2" stroke-linecap="round" stroke-linejoin="round"/>
<path d="M417.299 196.437C418.949 194.879 421.139 196.078 423.06 195.288C424.544 200.555 424.582 205.983 424.996 211.356C425.261 214.843 424.671 218.364 425.289 221.847" stroke="#F3EEE1" stroke-width="2" stroke-linecap="round" stroke-linejoin="round"/>
<path d="M491.167 168.541C490.979 169.503 491.697 169.878 492.21 170.525C493.545 172.216 493.115 173.294 491.167 174.068C481.511 177.899 471.668 181.187 461.676 184.017C461.566 184.05 461.489 184.194 461.4 184.288" stroke="#F3EEE1" stroke-width="2" stroke-linecap="round" stroke-linejoin="round"/>
<path d="M282.243 -12.6235C291.27 -1.39197 305.571 0.393351 318.052 -4.6697C321.29 -5.9852 324.264 -7.95846 326.344 -10.9653" stroke="#F3EEE1" stroke-width="2" stroke-linecap="round" stroke-linejoin="round"/>
<path d="M426.392 197.266C426.21 201.257 427.049 205.176 427.286 209.139C427.54 213.384 427.374 217.613 427.496 221.846" stroke="#F3EEE1" stroke-width="2" stroke-linecap="round" stroke-linejoin="round"/>
<path d="M460.021 130.982C462.454 138.306 465.307 145.475 467.74 152.799" stroke="#F3EEE1" stroke-width="2" stroke-linecap="round" stroke-linejoin="round"/>
<path d="M109.42 164.125C108.874 168.005 110.027 171.841 109.713 175.726C109.437 179.131 109.222 182.542 108.869 185.941" stroke="#F3EEE1" stroke-width="2" stroke-linecap="round" stroke-linejoin="round"/>
<path d="M490.891 170.475C488.072 172.548 484.69 173.421 481.495 174.538C474.719 176.909 467.878 179.142 460.849 180.69" stroke="#F3EEE1" stroke-width="2" stroke-linecap="round" stroke-linejoin="round"/>
<path d="M467.464 156.668C467.861 160.526 468.027 164.406 468.22 168.27C468.38 171.514 468.562 174.737 469.119 177.932" stroke="#F3EEE1" stroke-width="2" stroke-linecap="round" stroke-linejoin="round"/>
<path d="M406.276 164.401C400.157 158.68 392.681 155.325 385.05 152.252" stroke="#F3EEE1" stroke-width="2" stroke-linecap="round" stroke-linejoin="round"/>
<path d="M349.22 183.177C354.081 182.519 358.616 180.706 363.295 179.363C366.004 178.589 368.707 177.661 371.593 177.031C372.288 179.076 371.284 179.783 369.894 180.126C364.889 181.364 360.106 183.376 355.013 184.277C353.733 184.504 353.065 185.681 351.984 186.212" stroke="#F3EEE1" stroke-width="2" stroke-linecap="round" stroke-linejoin="round"/>
<path d="M106.943 163.295C112.273 164.102 117.586 165.037 122.933 165.761C125.393 166.092 127.816 167.17 130.37 166.335" stroke="#F3EEE1" stroke-width="2" stroke-linecap="round" stroke-linejoin="round"/>
<path d="M132.025 147.277C138.271 150.406 144.522 153.54 150.768 156.668" stroke="#F3EEE1" stroke-width="2" stroke-linecap="round" stroke-linejoin="round"/>
<path d="M44.6511 107.231C50.6707 108.066 56.1384 110.625 61.7387 112.759C62.2021 112.936 62.7263 112.947 63.118 113.306C65.4022 115.373 67.9954 115.71 70.8369 114.688" stroke="#F3EEE1" stroke-width="2" stroke-linecap="round" stroke-linejoin="round"/>
<path d="M371.819 203.894C370.82 204.446 371.063 205.961 369.838 206.392C371.615 209.272 372.349 212.45 372.332 215.766C372.327 217.215 372.702 218.364 374.043 218.74C374.964 219 376.266 219.647 376.995 218.751C377.75 217.823 378.164 216.833 377.806 215.17C377.265 212.666 376.564 209.858 377.833 207.177C378.104 206.608 378.225 205.546 377.59 205.016C374.622 202.54 375.836 199.179 375.742 196.155C375.687 194.436 375.372 193.386 373.48 193.397" stroke="#F3EEE1" stroke-width="2" stroke-linecap="round" stroke-linejoin="round"/>
<path d="M356.387 100.881C352.116 106.187 348.177 111.753 343.708 116.899" stroke="#F3EEE1" stroke-width="2" stroke-linecap="round" stroke-linejoin="round"/>
<path d="M228.768 100.604C224.073 98.7912 219.008 98.1113 214.412 95.9557C213.855 95.6959 213.132 95.8783 212.426 96.6632C211.118 98.1224 209.954 99.7032 208.707 101.201C208.244 101.759 207.924 102.025 207.272 101.98" stroke="#F3EEE1" stroke-width="2" stroke-linecap="round" stroke-linejoin="round"/>
<path d="M46.8525 108.061C46.9905 109.575 48.4526 109.835 49.363 110.504C54.3563 114.19 59.5923 117.512 65.0325 120.508C65.7553 120.906 66.6491 121.221 66.9747 122.139" stroke="#F3EEE1" stroke-width="2" stroke-linecap="round" stroke-linejoin="round"/>
<path d="M453.406 136.228C455.828 140.788 456.65 145.967 458.89 150.605C459.254 151.362 458.41 152.213 458.642 153.075" stroke="#F3EEE1" stroke-width="2" stroke-linecap="round" stroke-linejoin="round"/>
<path d="M122.927 194.779C118.232 196.515 113.294 197.454 108.582 199.157C107.842 199.422 106.833 198.372 106.115 199.472" stroke="#F3EEE1" stroke-width="2" stroke-linecap="round" stroke-linejoin="round"/>
<path d="M362.451 164.401C359.466 166.711 355.863 167.828 352.469 169.237C350.891 169.895 349.981 171.642 348.116 171.581" stroke="#F3EEE1" stroke-width="2" stroke-linecap="round" stroke-linejoin="round"/>
<path d="M159.861 184.559C160.374 183.896 160.225 182.901 161.097 182.249C165.765 185.587 171.067 188.036 175.569 191.739" stroke="#F3EEE1" stroke-width="2" stroke-linecap="round" stroke-linejoin="round"/>
<path d="M157.659 185.664C160.578 184.283 160.683 184.426 160.722 187.599C160.771 191.739 160.341 195.896 160.97 200.024" stroke="#F3EEE1" stroke-width="2" stroke-linecap="round" stroke-linejoin="round"/>
<path d="M480.965 153.628C477.566 154.783 473.93 154.628 470.493 155.562C466.956 156.524 463.16 156.22 459.745 157.768" stroke="#F3EEE1" stroke-width="2" stroke-linecap="round" stroke-linejoin="round"/>
<path d="M430.53 109.719C434.299 111.416 438.415 111.709 442.404 112.361C444.528 112.709 446.47 113.77 448.727 113.698C449.626 113.671 450.559 113.511 451.48 113.588" stroke="#F3EEE1" stroke-width="2" stroke-linecap="round" stroke-linejoin="round"/>
<path d="M322.482 89.2842C321.478 88.4495 321.395 86.6863 319.712 86.6421C312.623 90.876 305.069 94.2422 297.124 96.7406" stroke="#F3EEE1" stroke-width="2" stroke-linecap="round" stroke-linejoin="round"/>
<path d="M157.384 203.064C157.814 207.42 157.819 211.753 156.832 216.043" stroke="#F3EEE1" stroke-width="2" stroke-linecap="round" stroke-linejoin="round"/>
<path d="M360.519 162.19C356.525 164.429 352.497 166.584 348.116 167.988" stroke="#F3EEE1" stroke-width="2" stroke-linecap="round" stroke-linejoin="round"/>
<path d="M198.726 89.0078C193.181 92.0036 186.918 92.9322 181.098 95.1155C176.794 96.7295 172.358 97.9621 168.132 99.7751" stroke="#F3EEE1" stroke-width="2" stroke-linecap="round" stroke-linejoin="round"/>
<path d="M50.715 152.799C47.8294 157.42 44.701 161.897 42.4443 166.883" stroke="#F3EEE1" stroke-width="2" stroke-linecap="round" stroke-linejoin="round"/>
<path d="M25.6325 223.223C25.9801 226.02 25.3842 228.75 25.1194 231.514C25.0145 232.592 24.7773 233.758 25.3566 234.825" stroke="#F3EEE1" stroke-width="2" stroke-linecap="round" stroke-linejoin="round"/>
<path d="M464.154 117.175C461.676 115.76 458.802 115.992 456.137 115.34C454.884 115.036 453.726 114.655 452.578 114.135" stroke="#F3EEE1" stroke-width="2" stroke-linecap="round" stroke-linejoin="round"/>
<path d="M213.888 92.3186C211.234 90.2183 207.995 89.2067 205.176 87.438C204.1 88.1289 203.741 89.2454 202.864 89.8313" stroke="#F3EEE1" stroke-width="2" stroke-linecap="round" stroke-linejoin="round"/>
<path d="M479.316 151.423C475.944 152.091 472.551 152.561 469.125 152.865C467.481 153.014 465.908 153.926 464.159 153.628" stroke="#F3EEE1" stroke-width="2" stroke-linecap="round" stroke-linejoin="round"/>
<path d="M402.965 166.612C401.062 168.806 398.871 170.149 395.815 170.586C392.179 171.106 388.587 172.145 385.05 173.239" stroke="#F3EEE1" stroke-width="2" stroke-linecap="round" stroke-linejoin="round"/>
<path d="M448.17 121.592C449.422 125.184 450.327 128.915 452.578 132.088" stroke="#F3EEE1" stroke-width="2" stroke-linecap="round" stroke-linejoin="round"/>
<path d="M329.649 85.9678C326.824 86.316 324.838 88.1566 322.576 89.8645C324.364 92.2524 325.759 94.8557 328.546 96.1878" stroke="#F3EEE1" stroke-width="2" stroke-linecap="round" stroke-linejoin="round"/>
<path d="M349.22 195.332C351.013 194.53 352.663 194.481 354.483 195.564C357.066 197.101 360.249 197.349 362.726 199.201" stroke="#F3EEE1" stroke-width="2" stroke-linecap="round" stroke-linejoin="round"/>
<path d="M153 168.5C158.534 171.802 158.852 178.139 155.5 181.5" stroke="#F3EEE1" stroke-width="2" stroke-linecap="round" stroke-linejoin="round"/>
<path d="M152.148 175.997C154.713 178.446 157.88 180.143 160.418 182.624" stroke="#F3EEE1" stroke-width="2" stroke-linecap="round" stroke-linejoin="round"/>
<path d="M377.331 184.835C373.712 187.654 373.072 191.64 372.884 195.879C372.796 197.808 373.59 199.848 372.371 201.683" stroke="#F3EEE1" stroke-width="2" stroke-linecap="round" stroke-linejoin="round"/>
<path d="M189.628 87.0732C187.388 88.9304 184.436 88.8752 181.859 89.6766C176.259 91.4177 170.532 92.8438 164.816 94.2312C164.209 94.3804 163.536 94.2533 162.89 94.2533" stroke="#F3EEE1" stroke-width="2" stroke-linecap="round" stroke-linejoin="round"/>
<path d="M372.095 203.341C371.869 202.993 372.58 202.396 371.554 202.186C369.242 201.71 367.041 200.754 364.652 200.577" stroke="#F3EEE1" stroke-width="2" stroke-linecap="round" stroke-linejoin="round"/>
<path d="M343.984 91.2132C342.544 90.4173 341.219 91.3293 340.48 92.1197C339.283 93.3965 337.876 93.1533 336.844 92.7885C333.203 91.4951 329.412 90.4504 326.339 87.9023" stroke="#F3EEE1" stroke-width="2" stroke-linecap="round" stroke-linejoin="round"/>
<path d="M350.323 183.454C352.591 186.781 351.912 190.556 351.978 194.226" stroke="#F3EEE1" stroke-width="2" stroke-linecap="round" stroke-linejoin="round"/>
<path d="M396.626 171.028C394.463 173.294 391.594 174.61 389.183 176.55" stroke="#F3EEE1" stroke-width="2" stroke-linecap="round" stroke-linejoin="round"/>
<path d="M297.952 98.946C297.003 98.2661 297.494 96.7184 296.28 96.1768C292.594 97.2988 288.677 97.4315 284.997 98.6696" stroke="#F3EEE1" stroke-width="2" stroke-linecap="round" stroke-linejoin="round"/>
<path d="M129.267 161.361C130.652 162.179 132.175 162.881 133.355 163.903C135.468 165.733 138.018 164.849 140.307 165.446C141.196 165.678 142.15 165.772 143.049 166.059" stroke="#F3EEE1" stroke-width="2" stroke-linecap="round" stroke-linejoin="round"/>
<path d="M155 160C154.526 163.081 153.231 165.031 153.18 168.689C151.453 169.615 151.28 174.373 150.158 176.795C150.08 176.963 149.944 177.509 150.024 178" stroke="#F3EEE1" stroke-width="2" stroke-linecap="round" stroke-linejoin="round"/>
<path d="M131.198 146.448C132.456 149.3 131.722 152.368 131.849 155.292C131.937 157.409 132.296 159.758 131.474 161.914" stroke="#F3EEE1" stroke-width="2" stroke-linecap="round" stroke-linejoin="round"/>
<path d="M221.05 193.95C218.903 193.967 216.718 193.685 214.71 194.779" stroke="#F3EEE1" stroke-width="2" stroke-linecap="round" stroke-linejoin="round"/>
<path d="M330.753 86.797C329.125 86.2442 330.284 85.6915 330.753 85.1388C327.216 83.055 325.743 83.1323 322.78 85.7136C322.234 86.1889 321.572 86.5095 321.108 87.0733" stroke="#F3EEE1" stroke-width="2" stroke-linecap="round" stroke-linejoin="round"/>
<path d="M136.434 165.506C137.913 167.408 139.959 168.298 142.222 168.823" stroke="#F3EEE1" stroke-width="2" stroke-linecap="round" stroke-linejoin="round"/>
<path d="M448.997 109.719C448.258 111.056 446.868 110.946 445.687 111.051C444.65 111.145 444.175 111.421 444.313 112.477" stroke="#F3EEE1" stroke-width="2" stroke-linecap="round" stroke-linejoin="round"/>
<path d="M498.61 166.335C497.004 168.054 494.621 168.519 492.822 169.928" stroke="#F3EEE1" stroke-width="2" stroke-linecap="round" stroke-linejoin="round"/>
<path d="M192.11 92.0425C193.644 93.7615 193.986 96.2267 195.691 97.8407" stroke="#F3EEE1" stroke-width="2" stroke-linecap="round" stroke-linejoin="round"/>
<path d="M199.554 89.0077C200.872 88.7922 201.683 89.6876 202.66 90.4283C201.463 92.0975 200.602 94.0597 198.456 94.8059" stroke="#F3EEE1" stroke-width="2" stroke-linecap="round" stroke-linejoin="round"/>
<path d="M326.89 89.0078C326.653 91.1579 328.336 92.6337 328.822 94.5296" stroke="#F3EEE1" stroke-width="2" stroke-linecap="round" stroke-linejoin="round"/>
<path d="M378.71 188.152C376.741 189.346 376.31 191.43 375.676 193.397" stroke="#F3EEE1" stroke-width="2" stroke-linecap="round" stroke-linejoin="round"/>
<path d="M374.302 180.972C373.701 182.691 373.91 184.266 375.13 185.664" stroke="#F3EEE1" stroke-width="2" stroke-linecap="round" stroke-linejoin="round"/>
<path d="M374.302 180.143C376.597 181.696 377.552 184.399 379.538 186.217" stroke="#F3EEE1" stroke-width="2" stroke-linecap="round" stroke-linejoin="round"/>
<path d="M65.3249 115.241C64.0559 116.252 61.9041 115.788 61.1924 117.728" stroke="#F3EEE1" stroke-width="2" stroke-linecap="round" stroke-linejoin="round"/>
<path d="M198.174 97.0171C199.377 97.907 200.762 98.4653 202.075 99.4215" stroke="#F3EEE1" stroke-width="2" stroke-linecap="round" stroke-linejoin="round"/>
<path d="M154.073 153.904C155.116 155.292 156.793 155.938 157.93 157.221" stroke="#F3EEE1" stroke-width="2" stroke-linecap="round" stroke-linejoin="round"/>
<path d="M456.986 122.973C457.483 124.156 457.069 125.687 458.366 126.566" stroke="#F3EEE1" stroke-width="2" stroke-linecap="round" stroke-linejoin="round"/>
<path d="M162.344 200.854C162.52 202.075 161.803 203.501 163.172 204.446" stroke="#F3EEE1" stroke-width="2" stroke-linecap="round" stroke-linejoin="round"/>
<path d="M383.119 171.304C384.884 173.123 385.811 175.726 388.349 176.848C389.105 177.18 388.675 178.357 389.458 178.766" stroke="#F3EEE1" stroke-width="2" stroke-linecap="round" stroke-linejoin="round"/>
<path d="M202.858 99.7751C204.105 100.698 205.507 101.301 206.991 101.71" stroke="#F3EEE1" stroke-width="2" stroke-linecap="round" stroke-linejoin="round"/>
<path d="M372.647 203.617C373.75 204.866 375.036 203.827 376.228 203.894" stroke="#F3EEE1" stroke-width="2" stroke-linecap="round" stroke-linejoin="round"/>
<path d="M331.029 85.415C332.309 86.1557 333.804 86.0949 335.145 86.5647C335.509 86.6919 336.646 87.1783 335.437 87.9023" stroke="#F3EEE1" stroke-width="2" stroke-linecap="round" stroke-linejoin="round"/>
<path d="M311.182 91.4897C313.351 93.452 313.406 93.8057 311.734 95.0825" stroke="#F3EEE1" stroke-width="2" stroke-linecap="round" stroke-linejoin="round"/>
<path d="M74.9695 113.306C73.1818 113.356 71.7914 114.014 71.1128 115.793" stroke="#F3EEE1" stroke-width="2" stroke-linecap="round" stroke-linejoin="round"/>
<path d="M179.707 197.266C179.735 198.101 179.569 198.958 179.983 199.754" stroke="#F3EEE1" stroke-width="2" stroke-linecap="round" stroke-linejoin="round"/>
<path d="M154.349 201.959C155.999 203.031 157.417 202.959 158.482 201.13" stroke="#F3EEE1" stroke-width="2" stroke-linecap="round" stroke-linejoin="round"/>
<path d="M213.336 92.5952C211.659 93.452 211.559 94.5685 212.784 95.9116" stroke="#F3EEE1" stroke-width="2" stroke-linecap="round" stroke-linejoin="round"/>
<path d="M66.9748 123.25C66.6603 123.974 66.1472 124.621 66.1472 125.461" stroke="#F3EEE1" stroke-width="2" stroke-linecap="round" stroke-linejoin="round"/>
<path d="M73.3144 113.306C72.4757 113.306 71.8302 112.792 71.1074 112.477" stroke="#F3EEE1" stroke-width="2" stroke-linecap="round" stroke-linejoin="round"/>
</g>
</g>
<defs>
<clipPath id="clip0_279_4712">
<rect width="525" height="321" fill="white"/>
</clipPath>
<clipPath id="clip1_279_4712">
<rect width="522" height="726" fill="white" transform="translate(3 -273)"/>
</clipPath>
</defs>
</svg>
