<svg preserveAspectRatio="none" width="100%" height="100%" overflow="visible" style="display: block;" viewBox="0 0 522 726" fill="none" xmlns="http://www.w3.org/2000/svg">
<g id="ChatGPT Image 14 jul 2026, 02_41_38 p.m. 1" clip-path="url(#clip0_0_4)">
<path id="Vector" d="M173.678 474.406C173.253 483.239 172.409 492.083 172.674 500.916C172.928 509.389 173.226 517.873 174.136 526.336C174.76 532.123 175.096 537.954 175.929 543.719C176.928 550.64 177.998 557.549 179.08 564.458C180.431 573.047 181.96 581.604 183.692 590.105C185.392 598.412 187.168 606.72 188.967 615.011C190.799 623.429 192.564 631.886 194.153 640.37C195.191 645.903 196.382 651.431 197.243 656.98C197.861 660.965 198.501 665.017 198.512 669.113C198.518 671.412 199.064 673.684 199.064 676.016C199.08 685.352 198.176 694.621 197.491 703.918C196.967 711.054 196.195 718.256 197.1 725.453" stroke="var(--stroke-0, #F3EEE1)" stroke-width="2" stroke-linecap="round" stroke-linejoin="round"/>
<path id="Vector_2" d="M345.668 476.065C345.668 479.746 345.64 483.427 345.668 487.114C345.745 496.449 344.918 505.724 344.09 515.016C343.163 525.385 341.756 535.688 340.035 545.919C338.512 554.984 336.807 564.038 334.777 573.036C333.127 580.349 331.797 587.756 330.219 595.096C328.288 604.067 326.109 612.982 323.896 621.887C320.613 635.086 317.214 648.269 314.881 661.667C313.17 671.511 313.137 681.477 314.158 691.487C315.195 701.663 316.376 711.861 315.896 722.131" stroke="var(--stroke-0, #F3EEE1)" stroke-width="2" stroke-linecap="round" stroke-linejoin="round"/>
<path id="Vector_3" d="M240.356 722.684C240.208 712.137 240.23 703.487 241.283 697.562C242.85 688.762 244.197 679.963 243.623 671.036C242.966 660.822 243.176 650.59 242.663 640.376C242.023 627.497 242.701 614.591 243.275 601.723C243.474 597.235 243.623 592.686 244.097 588.17C244.621 583.14 245.024 578.061 245.278 572.992C245.515 568.277 245.99 563.579 246.547 558.925C247.43 551.557 248.202 544.173 249.102 536.805C249.874 530.487 250.459 524.125 250.994 517.774C251.154 515.9 250.862 513.756 251.811 511.937C253.289 512.224 254.939 512.462 256.743 512.589C259.717 512.799 262.371 512.656 264.584 512.385" stroke="var(--stroke-0, #F3EEE1)" stroke-width="2" stroke-linecap="round" stroke-linejoin="round"/>
<path id="Vector_4" d="M279.243 110.967C278.824 109.198 280.529 108.446 281.268 107.446C287.222 99.4369 290.692 90.6208 291.133 80.5887C291.316 76.41 291.122 72.3032 290.593 68.1521C289.958 63.161 292.066 58.4461 292.557 53.5323C294.03 38.8406 287.084 21.9933 272.893 15.156C262.432 10.115 248.881 12.0275 240.064 19.7879C232.632 26.3323 228.781 34.7062 227.258 44.1524C226.331 49.9009 226.613 55.782 228.202 61.547C229.266 65.4272 228.516 69.4842 228.179 73.4031C227.004 87.0114 231.286 98.7073 239.496 109.358C243.187 114.145 247.628 117.721 253.356 119.17C261.941 121.342 269.742 119.263 276.485 113.449C277.323 112.725 277.98 111.802 278.968 111.243" stroke="var(--stroke-0, #F3EEE1)" stroke-width="2" stroke-linecap="round" stroke-linejoin="round"/>
<path id="Vector_5" d="M279.514 110.967C281.037 111.127 281.875 109.784 282.466 108.977C287.216 102.477 290.913 95.4185 292.745 87.4979C292.96 86.5693 292.938 85.6959 294.383 85.4638C295.564 85.2759 296.452 84.1041 296.888 82.8051C299.868 73.9282 301.335 64.8302 300.69 55.4669C300.53 53.1675 299.542 51.139 296.281 51.3435C296.552 46.7116 296.634 42.1018 296.066 37.5086C294.4 24.0771 290.218 12.0607 277.572 4.94697C270.824 1.14416 263.469 -0.00552736 255.816 0.79041C252.026 1.18838 248.346 2.07828 244.781 3.50986C236.13 6.98656 230.508 13.3596 226.866 21.7556C223.07 30.5109 222.121 39.6808 222.723 49.0994C222.794 50.2159 223.098 51.2274 221.101 51.454C219.401 51.6475 218.563 53.5876 218.32 55.4448C217.674 60.3807 218.32 65.2337 219.142 70.0867C219.765 73.7956 220.107 77.5431 221.327 81.1414C222 83.1313 222.872 84.8337 224.957 85.5191C225.752 85.7789 225.89 86.21 226.077 86.923C227.915 94.0091 230.409 100.791 235.131 106.551C236.025 107.639 235.893 109.165 235.904 110.403C235.965 117.71 236.196 124.995 234.409 132.242C232.627 139.46 228.797 144.927 222.756 149.084C212.383 156.225 200.62 159.735 188.575 162.631C183.141 163.935 177.551 164.516 172.282 166.677C164.618 169.822 160.155 175.687 157.148 183.032C153.688 191.484 151.978 200.421 150.019 209.276C148.039 218.231 146.554 227.295 145.087 236.344C143.641 245.243 142.411 254.191 141.219 263.129C139.773 273.952 138.615 284.818 137.92 295.713C137.324 305.082 136.485 314.473 137.324 323.875C137.793 329.131 139.669 333.979 142.284 338.5C147.685 347.83 152.883 357.288 159.129 366.093" stroke="var(--stroke-0, #F3EEE1)" stroke-width="2" stroke-linecap="round" stroke-linejoin="round"/>
<path id="Vector_6" d="M264.633 512.517C264.49 522.295 265.323 532.04 265.825 541.785C266.272 550.441 266.824 559.096 267.447 567.747C268.402 581.084 268.998 594.438 269.665 607.792C270.531 625.192 270.068 642.592 270.051 659.992C270.046 666.426 269.676 672.877 269.566 679.322C269.455 685.7 270.702 691.896 271.839 698.098C273.412 706.71 273.842 715.349 273.185 724.065C273.163 724.342 273.185 724.618 273.185 724.894" stroke="var(--stroke-0, #F3EEE1)" stroke-width="2" stroke-linecap="round" stroke-linejoin="round"/>
<path id="Vector_7" d="M282.548 109.585C282.995 111.702 282.631 113.819 282.615 115.936C282.565 122.652 282.758 129.356 285.009 135.823C287.354 142.556 292.231 147.21 298.036 150.637C307.907 156.463 318.671 160.122 329.938 162.404C335.003 163.427 340.145 164.007 345.133 165.577C352.841 168.009 357.9 173.155 361.067 180.296C365.26 189.754 367.534 199.813 369.939 209.829C372.003 218.435 373.812 227.108 375.335 235.813C376.483 242.391 377.432 249.023 378.271 255.667C379.462 265.13 379.981 274.648 380.93 284.122C381.073 285.581 380.952 287.068 380.952 288.538C380.924 297.741 380.969 306.95 381.04 316.153C381.106 325.234 378.839 333.514 374.342 341.286C369.812 349.113 365.277 356.939 360.284 364.484C360.002 364.91 359.666 365.308 359.737 365.866" stroke="var(--stroke-0, #F3EEE1)" stroke-width="2" stroke-linecap="round" stroke-linejoin="round"/>
<path id="Vector_8" d="M152.453 491.53C145.732 493.371 138.858 494.498 132.055 495.93C123.999 497.627 115.905 499.174 107.8 500.612C97.1346 502.507 86.508 504.619 75.8373 506.482C68.0466 507.841 60.234 508.974 52.4047 510.063C39.7753 511.821 27.1182 512.993 14.3674 512.457C10.908 512.313 7.29958 511.959 4.19326 510.257C0.0937967 508.013 -0.788995 505.487 2.80286 502.038C5.00984 499.915 7.56442 498.334 10.4942 497.301C14.5219 495.88 18.351 493.863 22.6326 493.183" stroke="var(--stroke-0, #F3EEE1)" stroke-width="2" stroke-linecap="round" stroke-linejoin="round"/>
<path id="Vector_9" d="M185.254 217.844C182.87 225.073 181.369 232.524 179.786 239.948C177.921 248.664 176.001 257.381 174.5 266.175C173.308 273.172 171.984 280.142 170.837 287.151C169.915 292.767 169.143 298.405 168.221 304.021C166.936 311.853 167.758 319.32 171.35 326.716C176.271 336.858 180.911 347.145 185.811 357.31C186.28 358.277 186.655 359.305 187.345 359.968C190.059 359.753 192.206 356.906 195.18 358.691" stroke="var(--stroke-0, #F3EEE1)" stroke-width="2" stroke-linecap="round" stroke-linejoin="round"/>
<path id="Vector_10" d="M334.092 217.291C336.239 221.066 336.868 225.339 337.905 229.451C340.106 238.179 341.403 247.083 342.975 255.938C344.785 266.136 346.286 276.378 347.776 286.62C348.973 294.856 350.005 303.147 350.617 311.46C351.031 317.082 348.57 321.968 346.479 326.92C341.877 337.809 336.183 348.189 331.334 358.962" stroke="var(--stroke-0, #F3EEE1)" stroke-width="2" stroke-linecap="round" stroke-linejoin="round"/>
<path id="Vector_11" d="M507.737 490.425C511.5 491.21 515.131 492.332 518.502 494.266C520.096 495.184 521.553 496.3 521.443 498.157C521.316 500.296 519.363 501.313 517.636 501.966C515.186 502.9 512.554 503.469 509.939 503.635C505.354 503.922 500.769 504.414 496.162 504.237C487.146 503.895 478.147 503.254 469.143 502.69C461.689 502.226 454.262 501.474 446.83 500.855C440.849 500.352 434.88 499.628 428.904 499.014C420.821 498.179 412.721 497.417 404.66 496.433C398.873 495.725 393.052 495.244 387.275 494.382C383.727 493.852 380.108 493.68 376.533 493.216C375.992 493.144 375.567 492.945 375.159 492.647" stroke="var(--stroke-0, #F3EEE1)" stroke-width="2" stroke-linecap="round" stroke-linejoin="round"/>
<path id="Vector_12" d="M346.22 471.09C342.871 472.455 339.599 471.107 336.294 470.825C331.874 470.449 327.394 470.233 323.091 469.31C319.466 468.531 316.083 469.542 312.591 469.437C312.221 469.426 311.587 469.321 311.526 469.454C309.678 473.76 305.865 471.692 303.239 471.449C298.731 471.035 294.185 470.869 289.71 470.703C280.717 470.371 271.718 469.868 262.702 469.879C258.034 469.885 253.322 469.598 248.644 469.542C242.591 469.465 236.522 469.957 230.453 469.996C218.761 470.067 207.108 470.908 195.444 471.565C189.182 471.919 182.925 472.455 176.729 473.212C173.259 473.638 169.678 473.953 166.219 474.915C160.988 476.369 159.741 477.69 159.62 482.974C159.592 484.168 159.658 485.367 159.609 486.561C159.509 488.976 157.363 490.828 155.255 489.783C151.779 488.059 148.53 489.225 145.296 489.933C135.045 492.171 124.711 493.973 114.421 495.996C106.249 497.605 98.0671 499.125 89.8792 500.634C82.7341 501.949 75.5504 503.049 68.3887 504.276C62.7996 505.232 57.1883 505.995 51.566 506.714C45.3368 507.51 39.1021 508.311 32.8233 508.67C32.0564 508.715 31.3501 508.488 30.6163 508.383" stroke="var(--stroke-0, #F3EEE1)" stroke-width="2" stroke-linecap="round" stroke-linejoin="round"/>
<path id="Vector_13" d="M63.1472 399.29C59.3456 406.426 55.1745 413.346 51.0143 420.277C50.0156 421.941 49.0942 423.654 47.7314 425.395C51.0309 426.241 54.231 426.517 57.3649 426.833C62.2478 427.319 67.0921 428.065 71.953 428.651C79.6885 429.58 87.4019 430.768 95.1097 431.934C102.652 433.073 110.172 434.366 117.715 435.505C118.763 435.665 119.74 435.875 120.749 435.472" stroke="var(--stroke-0, #F3EEE1)" stroke-width="2" stroke-linecap="round" stroke-linejoin="round"/>
<path id="Vector_14" d="M181.943 164.544C183.29 177.676 183.08 190.87 183.56 204.036C183.709 208.077 183.896 212.045 185.215 215.926C185.805 217.672 186.942 219.109 187.488 220.873C188.807 225.112 189.121 229.517 189.601 233.867C190.385 240.998 191.367 248.078 192.68 255.131C194.689 265.921 196.719 276.71 199.075 287.433C200.857 295.525 202.716 303.606 204.267 311.748C205.536 318.403 206.59 325.113 206.154 331.906C205.685 339.313 203.594 346.354 200.73 353.192C199.969 355.016 199.24 356.867 198.418 358.542C198.832 359.952 200.305 359.764 200.962 360.632" stroke="var(--stroke-0, #F3EEE1)" stroke-width="2" stroke-linecap="round" stroke-linejoin="round"/>
<path id="Vector_15" d="M336.846 164.267C335.83 166.942 335.985 169.8 335.819 172.558C335.521 177.516 335.582 182.496 335.532 187.465C335.472 194.369 335.196 201.273 335.13 208.176C335.091 211.907 334.092 215.561 332.421 218.944C330.219 223.404 330.285 228.29 329.712 233.038C328.658 241.727 327.615 250.405 325.916 259.011C324.867 264.318 324.106 269.696 323.03 275.002C321.479 282.663 319.686 290.291 318.252 297.957C316.95 304.899 315.482 311.836 314.649 318.9C313.854 325.61 313.54 332.265 314.919 338.776C316.249 345.05 318.456 351.152 321.137 357.028" stroke="var(--stroke-0, #F3EEE1)" stroke-width="2" stroke-linecap="round" stroke-linejoin="round"/>
<path id="Vector_16" d="M314.246 374.433C311.548 373.018 310.571 370.028 308.254 368.082C303.973 369.685 299.542 371.46 294.731 372.631C298.908 385.118 302.251 397.648 305.843 410.096C309.887 424.119 313.716 438.219 317.573 452.303C318.831 456.89 319.747 461.566 321.187 466.099C321.507 467.11 321.386 467.818 320.867 468.597" stroke="var(--stroke-0, #F3EEE1)" stroke-width="2" stroke-linecap="round" stroke-linejoin="round"/>
<path id="Vector_17" d="M175.328 387.412C171.361 382.752 167.813 377.777 164.282 372.853C153.562 375.937 142.951 379.507 132.071 382.232C122.846 384.543 113.51 386.284 104.208 388.202C97.9953 389.484 91.7386 390.568 85.5039 391.712C83.2307 392.126 80.7919 392.287 78.585 393.215" stroke="var(--stroke-0, #F3EEE1)" stroke-width="2" stroke-linecap="round" stroke-linejoin="round"/>
<path id="Vector_18" d="M102.012 497.881C101.664 493.255 102.31 488.661 102.652 484.079C102.928 480.381 102.304 476.695 103.518 472.549C79.9202 479.237 57.1276 485.887 34.2082 492.077" stroke="var(--stroke-0, #F3EEE1)" stroke-width="2" stroke-linecap="round" stroke-linejoin="round"/>
<path id="Vector_19" d="M158.792 367.806C154.406 368.414 150.185 369.768 145.859 370.68C139.796 371.963 133.688 373.068 127.646 374.45C121.069 375.953 114.393 376.904 107.778 378.192C103.888 378.949 99.8878 379.358 95.9539 379.988C90.5247 380.856 85.0845 381.63 79.6664 382.608C76.8691 383.117 74 383.703 71.1419 383.741C69.6302 383.758 68.3832 384.438 67.0314 384.753C63.3182 385.61 60.4878 383.498 57.3759 382.409C51.9688 380.519 46.6997 378.264 41.116 376.865C39.3284 376.418 37.8221 376.805 37.0717 378.087C36.3986 379.242 37.2869 380.668 38.3518 381.613C42.8595 385.615 47.9411 388.821 52.962 392.099C74.3476 406.05 96.136 419.354 117.731 432.979C123.491 436.616 129.323 440.131 135.122 443.702C138.858 446.001 141.854 449.356 145.865 451.158C148.557 452.369 150.775 454.044 152.75 456.166C153.225 456.675 153.313 457.272 153.556 457.841" stroke="var(--stroke-0, #F3EEE1)" stroke-width="2" stroke-linecap="round" stroke-linejoin="round"/>
<path id="Vector_20" d="M238.723 375.815C236.781 380.806 236.152 386.135 234.977 391.308C233.118 399.472 231.38 407.669 229.658 415.866C226.955 428.745 224.246 441.624 221.57 454.508C220.703 458.687 220.483 463.064 218.447 467.011C218.187 467.514 218.303 469.05 218.883 469.99" stroke="var(--stroke-0, #F3EEE1)" stroke-width="2" stroke-linecap="round" stroke-linejoin="round"/>
<path id="Vector_21" d="M308.734 468.055C304.767 468.625 300.8 467.923 296.894 467.641C291.106 467.221 285.302 467.05 279.514 466.757C265.196 466.027 250.856 465.922 236.522 466.165C231.744 466.248 226.96 466.397 222.188 466.663C221.172 466.718 220.141 466.773 219.158 466.397" stroke="var(--stroke-0, #F3EEE1)" stroke-width="2" stroke-linecap="round" stroke-linejoin="round"/>
<path id="Vector_22" d="M336.018 361.455C341.453 361.61 346.479 363.743 351.732 364.76C359.285 366.225 366.75 368.116 374.326 369.503C383.7 371.222 393.068 372.996 402.448 374.715C411.348 376.351 420.258 377.916 429.174 379.469C434.874 380.464 440.629 381.149 446.268 382.465C448.712 383.034 450.577 381.475 452.579 380.712C457.402 378.877 462.191 377.004 467.217 375.826C469.772 375.229 472.382 375.456 474.931 375.622C477.132 375.76 477.844 377.761 477.149 380.524C476.393 383.537 474.263 385.681 472.404 387.937C470.964 389.683 469.546 391.524 467.741 392.917C466.384 393.967 466.506 395.006 467.217 396.261" stroke="var(--stroke-0, #F3EEE1)" stroke-width="2" stroke-linecap="round" stroke-linejoin="round"/>
<path id="Vector_23" d="M226.872 370.564C226.116 374.837 224.935 379.01 224.113 383.266C222.706 390.573 220.952 397.803 219.357 405.066C217.514 413.44 215.688 421.819 213.9 430.21C212.195 438.208 210.364 446.178 208.896 454.232C208.14 458.372 206.915 462.423 206.755 466.668" stroke="var(--stroke-0, #F3EEE1)" stroke-width="2" stroke-linecap="round" stroke-linejoin="round"/>
<path id="Vector_24" d="M211.434 365.595C216.063 367.557 220.913 368.934 225.79 369.89C229.675 370.653 233.691 370.962 237.62 371.67C248.958 373.72 260.407 372.62 271.795 372.593C274.344 372.587 277.202 372.814 279.806 371.708C281.097 371.161 281.969 372.09 282.256 373.328C284.391 382.564 287.431 391.546 289.986 400.666C294.03 415.12 298.268 429.513 302.196 444C304.249 451.562 306.478 459.079 308.458 466.668C308.707 467.619 309.093 468.487 310.108 468.879" stroke="var(--stroke-0, #F3EEE1)" stroke-width="2" stroke-linecap="round" stroke-linejoin="round"/>
<path id="Vector_25" d="M46.8873 428.286C51.6543 429.016 56.4545 429.486 61.2216 430.193C67.379 431.105 73.542 431.973 79.6995 432.874C86.486 433.869 93.2724 434.897 100.081 435.726C103.7 436.168 103.733 436.312 103.982 439.883C104.307 444.498 104.136 449.091 103.949 453.695C103.888 455.221 103.882 456.735 103.11 458.112" stroke="var(--stroke-0, #F3EEE1)" stroke-width="2" stroke-linecap="round" stroke-linejoin="round"/>
<path id="Vector_26" d="M337.673 367.253C345.966 370.874 354.584 373.455 363.291 375.87C375.346 379.209 387.496 382.172 399.7 384.869C408.407 386.792 417.18 388.434 425.886 390.396C427.58 390.778 429.428 390.474 430.835 391.833" stroke="var(--stroke-0, #F3EEE1)" stroke-width="2" stroke-linecap="round" stroke-linejoin="round"/>
<path id="Vector_27" d="M103.667 463.086C102.961 465.253 103.756 467.541 103.22 469.725C91.3358 472.953 79.5836 476.291 67.837 479.657C57.2711 482.686 46.6059 485.395 36.1393 488.766C35.6096 488.938 34.9585 488.473 34.4896 489.048" stroke="var(--stroke-0, #F3EEE1)" stroke-width="2" stroke-linecap="round" stroke-linejoin="round"/>
<path id="Vector_28" d="M65.9059 395.973C71.2137 400.417 77.2332 403.828 83.0431 407.492C97.1512 416.391 111.232 425.34 125.643 434.018C126.245 433.819 126.565 433.255 126.548 432.426C126.46 428.557 126.747 424.688 126.278 420.824C126.101 419.382 125.56 418.448 124.087 417.74C109.67 410.82 95.7387 402.949 81.432 395.791C77.5973 393.873 74.3972 393.807 70.5792 394.509C68.4715 394.896 66.4742 395.946 64.2562 395.692" stroke="var(--stroke-0, #F3EEE1)" stroke-width="2" stroke-linecap="round" stroke-linejoin="round"/>
<path id="Vector_29" d="M375.435 490.148C382.8 490.834 390.144 491.762 397.493 492.536C403.27 493.144 409.058 493.747 414.84 494.355C420.998 495.001 427.166 495.493 433.313 496.245C439.365 496.991 445.445 497.505 451.504 498.196C457.104 498.837 462.726 499.296 468.332 499.694C476.669 500.285 485.011 501.325 493.403 500.893C495.522 500.783 497.629 501.739 499.743 500.916" stroke="var(--stroke-0, #F3EEE1)" stroke-width="2" stroke-linecap="round" stroke-linejoin="round"/>
<path id="Vector_30" d="M305 457C301.491 457.558 297.916 457.293 294.383 457.411C275.899 458.045 257.391 458.107 238.895 457.88C232.934 457.809 226.967 457.809 221 457.705" stroke="var(--stroke-0, #F3EEE1)" stroke-width="2" stroke-linecap="round" stroke-linejoin="round"/>
<path id="Vector_31" d="M457.573 453.143C456.701 445.896 456.613 438.611 456.149 430.923C453.446 430.127 450.527 431.459 447.669 431.962C439.365 433.421 431.111 435.151 422.846 436.848C418.415 437.76 413.974 438.656 409.621 439.899C408.76 440.148 407.96 440.253 407.132 439.883" stroke="var(--stroke-0, #F3EEE1)" stroke-width="2" stroke-linecap="round" stroke-linejoin="round"/>
<path id="Vector_32" d="M82.9934 392.939C89.1564 396.681 95.6284 399.837 102.001 403.175C112.561 408.714 123.216 414.064 133.748 419.652C136.088 420.891 139.144 421.311 141.269 422.499C143.956 423.997 146.863 425.351 149.418 427.186" stroke="var(--stroke-0, #F3EEE1)" stroke-width="2" stroke-linecap="round" stroke-linejoin="round"/>
<path id="Vector_33" d="M462.257 391.833C462.036 391.165 460.464 391.076 461.474 389.844C462.566 390.17 463.857 389.96 464.972 391.286C463.587 392.873 461.761 394.1 460.309 395.686C459.807 396.239 459.162 396.101 458.389 396.045C453.071 395.647 447.89 394.525 442.687 393.486C440.568 393.06 438.378 392.978 436.336 392.137C436.033 392.01 435.63 392.099 435.227 392.364C426.454 398.179 417.191 403.176 408.208 408.648C399.132 414.175 389.857 419.365 380.66 424.693C380.522 424.771 380.295 424.704 380.113 424.704" stroke="var(--stroke-0, #F3EEE1)" stroke-width="2" stroke-linecap="round" stroke-linejoin="round"/>
<path id="Vector_34" d="M114.415 465.568C109.323 463.584 103.927 462.672 98.6905 461.202C82.2486 456.592 65.6797 452.424 49.3756 447.311C43.8802 445.587 38.3297 444.067 32.8288 442.364C30.7763 441.729 30.4232 442.022 30.6218 444.305" stroke="var(--stroke-0, #F3EEE1)" stroke-width="2" stroke-linecap="round" stroke-linejoin="round"/>
<path id="Vector_35" d="M37.5186 443.475C37.4138 442.138 37.7559 440.983 38.9532 440.142C48.7742 443.663 58.8711 446.421 68.9405 449.29C79.5781 452.319 90.2489 455.21 100.925 458.09C107.557 459.875 114.161 461.749 120.771 463.617C122.405 464.081 123.988 464.065 125.754 463.435C131.337 461.439 137.131 460.091 142.808 458.372C145.754 457.476 148.916 457.272 151.636 455.63" stroke="var(--stroke-0, #F3EEE1)" stroke-width="2" stroke-linecap="round" stroke-linejoin="round"/>
<path id="Vector_36" d="M434.692 392.11C432.926 391.281 431.475 391.529 429.693 392.596C417.946 399.616 406.244 406.719 394.404 413.572C386.685 418.039 379.021 422.654 371.021 426.628C370.298 426.987 369.586 427.341 369.095 428.01" stroke="var(--stroke-0, #F3EEE1)" stroke-width="2" stroke-linecap="round" stroke-linejoin="round"/>
<path id="Vector_37" d="M406.029 440.712C408.302 444.006 411.254 446.72 413.77 449.804C417.284 454.116 420.286 458.698 422.101 463.871C431.817 461.561 441.263 458.913 450.682 456.172C452.916 455.519 455.162 454.906 457.297 453.961" stroke="var(--stroke-0, #F3EEE1)" stroke-width="2" stroke-linecap="round" stroke-linejoin="round"/>
<path id="Vector_38" d="M198.485 373.328C189.099 385.494 179.714 397.654 170.583 410.013C165.021 417.541 159.713 425.296 153.275 432.144C153.054 432.376 152.899 432.774 152.453 432.703" stroke="var(--stroke-0, #F3EEE1)" stroke-width="2" stroke-linecap="round" stroke-linejoin="round"/>
<path id="Vector_39" d="M461.981 481.034C461.987 480.575 462.456 480.26 462.014 479.63C459.642 476.241 459.813 472.151 459.316 468.321C458.847 464.734 457.838 461.213 458.18 457.145C452.144 459.101 446.422 460.56 440.75 462.219C434.162 464.148 427.376 465.38 420.915 467.779" stroke="var(--stroke-0, #F3EEE1)" stroke-width="2" stroke-linecap="round" stroke-linejoin="round"/>
<path id="Vector_40" d="M496.438 486.832C497.343 483.775 496.007 480.851 495.461 478.021C494.027 470.559 492.57 463.097 491.257 455.613C491.13 454.906 490.479 454.414 490.655 453.69C491.102 451.871 488.57 449.793 491.191 448.151C493.028 447.002 494.484 445.349 496.283 444.083C499.456 441.85 502.899 440.115 506.082 437.948C508.366 436.395 510.733 434.98 512.742 433.023C513.426 432.354 514.386 431.785 514.844 431.006C515.865 429.259 517.636 427.568 516.527 425.252C515.451 423.002 513.31 422.781 511.053 422.411C504.366 421.311 497.8 422.35 491.196 423.024C489.734 423.173 488.228 422.77 486.788 423.306" stroke="var(--stroke-0, #F3EEE1)" stroke-width="2" stroke-linecap="round" stroke-linejoin="round"/>
<path id="Vector_41" d="M105.869 463.91C105.383 465.568 105.505 467.226 105.852 469.061C108.804 467.586 112.197 467.801 115.022 465.933C115.839 465.391 117.367 466.077 118.548 466.386C128.104 468.874 137.655 471.372 147.211 473.843C148.342 474.136 149.457 474.451 150.549 474.97C151.79 473.832 150.996 470.3 154.378 471.643" stroke="var(--stroke-0, #F3EEE1)" stroke-width="2" stroke-linecap="round" stroke-linejoin="round"/>
<path id="Vector_42" d="M56.2559 395.144C50.2639 404.071 44.9617 413.434 39.1683 422.483C36.6745 426.379 34.2799 430.337 32.0343 434.377C29.8052 438.385 28.3321 442.597 28.0452 447.333C27.7307 452.502 26.8424 457.653 26.2741 462.81C25.5237 469.609 24.823 476.418 24.2602 483.239C23.9402 487.108 23.4657 490.966 23.1953 494.841C23.0905 496.344 21.827 496.173 20.9663 496.472C16.5247 498.036 12.1329 499.65 7.97823 501.938C6.32851 502.85 5.0595 503.972 3.75186 505.177C4.46361 508.289 7.20578 508.101 9.14792 508.538C12.2708 509.245 15.5426 509.14 18.7703 509.278C21.7718 509.406 23.3443 507.957 24.5637 505.603" stroke="var(--stroke-0, #F3EEE1)" stroke-width="2" stroke-linecap="round" stroke-linejoin="round"/>
<path id="Vector_43" d="M459.498 394.592C457.17 400.655 451.597 403.684 447.029 407.492C433.406 418.857 418.487 428.441 403.529 437.926C400.721 439.706 397.284 439.54 394.166 440.413C388.285 442.06 382.155 442.812 376.527 445.393C373.641 446.714 371.782 449.373 369.09 450.932" stroke="var(--stroke-0, #F3EEE1)" stroke-width="2" stroke-linecap="round" stroke-linejoin="round"/>
<path id="Vector_44" d="M371.302 371.117C376.775 372.565 382.37 373.494 387.876 374.842C392.18 375.898 396.671 376.407 401.063 377.23C408.981 378.711 416.909 380.149 424.755 381.973C426.675 382.42 428.38 381.674 430.317 381.973C433.809 382.514 437.291 383.144 440.761 383.819" stroke="var(--stroke-0, #F3EEE1)" stroke-width="2" stroke-linecap="round" stroke-linejoin="round"/>
<path id="Vector_45" d="M198.209 358.139C197.381 357.531 196.553 357.901 195.726 358.139C195.45 358.321 195.389 358.498 195.444 358.691C197.547 365.728 194.186 370.818 189.37 375.24C178.815 384.919 168.304 394.641 157.7 404.27C151.581 409.825 145.092 414.982 139.498 421.106" stroke="var(--stroke-0, #F3EEE1)" stroke-width="2" stroke-linecap="round" stroke-linejoin="round"/>
<path id="Vector_46" d="M497.811 444.028C499.561 447.792 499.638 451.949 500.537 455.912C502.137 462.954 503.351 470.078 504.648 477.181C505.503 481.868 506.463 486.544 507.329 491.226C507.804 493.796 507.478 496.731 509.365 499.003C509.668 499.373 509.222 499.91 509.111 500.363" stroke="var(--stroke-0, #F3EEE1)" stroke-width="2" stroke-linecap="round" stroke-linejoin="round"/>
<path id="Vector_47" d="M420.363 471.643C418.393 471.941 416.44 471.272 414.928 470.405C413.384 469.52 411.971 469.719 410.741 470.062C403.414 472.085 396.037 473.92 388.66 475.75C384.13 476.872 379.705 478.701 374.888 478.27" stroke="var(--stroke-0, #F3EEE1)" stroke-width="2" stroke-linecap="round" stroke-linejoin="round"/>
<path id="Vector_48" d="M239.275 372.775C238.894 373.571 238.293 374.345 239.154 375.467C247.248 376.103 255.502 376.711 263.806 376.119C266.548 375.926 269.356 376.39 272.06 376.009C275.276 375.561 278.57 375.953 281.715 374.981" stroke="var(--stroke-0, #F3EEE1)" stroke-width="2" stroke-linecap="round" stroke-linejoin="round"/>
<path id="Vector_49" d="M38.3407 444.581C37.9324 449.373 37.4414 454.165 36.8786 458.93C36.1117 465.369 35.6261 471.842 34.8427 478.281C34.302 482.747 34.2357 487.313 33.7888 491.79C33.3585 496.118 32.7626 500.424 32.4702 504.779C32.2881 507.471 29.6121 509.251 26.7706 509.184C25.303 509.151 23.7967 509.516 22.3622 508.93" stroke="var(--stroke-0, #F3EEE1)" stroke-width="2" stroke-linecap="round" stroke-linejoin="round"/>
<path id="Vector_50" d="M240.654 259.824C236.919 264.699 232.158 268.27 226.304 269.983C216.753 272.78 207.677 271.426 199.307 265.898" stroke="var(--stroke-0, #F3EEE1)" stroke-width="2" stroke-linecap="round" stroke-linejoin="round"/>
<path id="Vector_51" d="M460.05 427.181C455.575 427.391 451.211 428.463 446.841 429.248C441.589 430.188 436.331 431.254 431.089 432.354C426.134 433.393 421.163 434.366 416.225 435.494C415.359 435.693 414.564 435.842 413.737 435.466" stroke="var(--stroke-0, #F3EEE1)" stroke-width="2" stroke-linecap="round" stroke-linejoin="round"/>
<path id="Vector_52" d="M465.562 391.004C468.183 388.008 471.079 385.245 473.286 381.895C473.899 380.961 474.793 379.922 474.318 378.883C473.634 377.396 471.984 377.927 470.804 378.07C463.714 378.916 457.33 382.089 450.704 384.449C449.832 384.758 448.563 385.61 449.164 387.141" stroke="var(--stroke-0, #F3EEE1)" stroke-width="2" stroke-linecap="round" stroke-linejoin="round"/>
<path id="Vector_53" d="M496.708 489.319C489.668 488.009 482.727 486.251 475.775 484.577C472.304 483.742 468.724 483.703 465.286 482.708C452.21 478.928 438.891 476.17 425.616 473.235C425.103 473.119 424.573 472.715 423.949 472.754" stroke="var(--stroke-0, #F3EEE1)" stroke-width="2" stroke-linecap="round" stroke-linejoin="round"/>
<path id="Vector_54" d="M328.305 364.49C328.332 364.888 328.1 365.457 327.99 365.551C324.553 368.486 326.418 371.172 328.299 373.881C334.241 382.415 340.642 390.612 346.832 398.964C353.602 408.1 360.366 417.243 367.169 426.346C371.379 431.973 375.44 437.716 379.843 443.199" stroke="var(--stroke-0, #F3EEE1)" stroke-width="2" stroke-linecap="round" stroke-linejoin="round"/>
<path id="Vector_55" d="M461.154 478.552C457.722 478.541 454.533 477.259 451.25 476.54C442.587 474.655 433.997 472.411 425.323 470.537C423.823 470.211 422.592 469.592 422.565 467.779" stroke="var(--stroke-0, #F3EEE1)" stroke-width="2" stroke-linecap="round" stroke-linejoin="round"/>
<path id="Vector_56" d="M323.615 369.188C320.867 371.366 317.474 372.366 314.257 374.544C316.315 377.987 318.986 381.249 321.441 384.631C326.898 392.132 332.514 399.505 337.96 407.017C344.261 415.7 350.772 424.229 356.935 433.007C360.339 437.86 364.013 442.514 367.489 447.311C368.141 448.212 368.466 448.859 367.992 449.832" stroke="var(--stroke-0, #F3EEE1)" stroke-width="2" stroke-linecap="round" stroke-linejoin="round"/>
<path id="Vector_57" d="M487.891 440.988C478.666 427.479 469.667 413.821 460.718 400.069C446.383 412.572 431.155 423.035 415.944 433.515C407.524 439.313 398.884 444.802 390.26 450.28C385.548 453.27 381.697 457.349 376.842 460.091C376.704 460.168 376.444 460.594 376.262 460.87" stroke="var(--stroke-0, #F3EEE1)" stroke-width="2" stroke-linecap="round" stroke-linejoin="round"/>
<path id="Vector_58" d="M177.535 390.728C177.071 393.442 174.787 395.012 173.314 397.013C166.285 406.569 158.947 415.911 151.559 425.191C147.972 429.701 144.596 434.377 140.838 438.744C140.358 439.302 140.568 440.004 140.049 440.435" stroke="var(--stroke-0, #F3EEE1)" stroke-width="2" stroke-linecap="round" stroke-linejoin="round"/>
<path id="Vector_59" d="M37.2428 424.693C35.6151 423.676 33.7557 424.119 32.0067 423.875C26.3403 423.102 20.6352 422.709 14.9192 422.444C11.9673 422.311 9.04309 422.234 6.09678 422.444C4.41396 422.565 3.27185 423.096 2.48285 424.671C1.69386 426.247 3.05115 426.899 3.67462 427.684C4.94915 429.298 6.74784 430.342 8.56859 431.343C15.1233 434.941 21.8822 438.07 28.9776 440.43" stroke="var(--stroke-0, #F3EEE1)" stroke-width="2" stroke-linecap="round" stroke-linejoin="round"/>
<path id="Vector_60" d="M366.888 479.099C363.004 477.026 358.623 477.408 354.474 476.667C347.632 475.451 340.702 474.738 333.8 473.942C327.036 473.163 320.216 472.676 313.413 472.195C312.64 472.14 311.807 472.378 311.206 471.643" stroke="var(--stroke-0, #F3EEE1)" stroke-width="2" stroke-linecap="round" stroke-linejoin="round"/>
<path id="Vector_61" d="M408.788 467.226C402.277 469.371 395.546 470.675 388.952 472.516C384.461 473.771 379.854 474.561 375.435 476.059" stroke="var(--stroke-0, #F3EEE1)" stroke-width="2" stroke-linecap="round" stroke-linejoin="round"/>
<path id="Vector_62" d="M154.999 429.999C154.999 429.999 204.079 456.52 207.853 456.735" stroke="var(--stroke-0, #F3EEE1)" stroke-width="2" stroke-linecap="round" stroke-linejoin="round"/>
<path id="Vector_63" d="M401.069 438.506C399.016 435.566 395.612 434.549 392.77 432.747C388.527 430.061 383.805 428.264 379.302 426.059C378.679 425.755 378.193 425.644 377.636 426.075C375.501 427.728 372.874 428.563 370.745 430.221" stroke="var(--stroke-0, #F3EEE1)" stroke-width="2" stroke-linecap="round" stroke-linejoin="round"/>
<path id="Vector_64" d="M215.02 469.99C211.434 466.911 207.23 467.083 202.887 467.475C195.45 468.155 187.996 468.674 180.564 469.432C180.018 469.487 179.356 469.238 178.931 469.47C176.442 470.819 175.162 469.238 173.971 467.492C173.579 466.922 173.253 466.276 173.121 465.535C171.615 466.165 170.202 466.441 168.696 465.319C166.141 463.412 163.366 461.821 160.718 460.052C159.962 459.543 159.261 458.875 158.24 458.941" stroke="var(--stroke-0, #F3EEE1)" stroke-width="2" stroke-linecap="round" stroke-linejoin="round"/>
<path id="Vector_65" d="M421.467 463.91C418.366 465.225 415.044 465.822 411.806 466.607C409.295 467.221 407.039 465.568 404.66 464.988C396.478 462.981 388.219 461.296 380.124 458.935" stroke="var(--stroke-0, #F3EEE1)" stroke-width="2" stroke-linecap="round" stroke-linejoin="round"/>
<path id="Vector_66" d="M340.432 411.439C339.731 414.031 340.967 416.458 341.397 418.873C342.214 423.472 342.832 428.087 343.538 432.697C344.371 438.114 344.592 443.58 344.967 449.014C345.177 452.087 345.536 455.215 345.287 458.405C345.044 461.45 345.624 464.64 345.723 467.779C345.789 469.868 346.942 471.317 349.249 471.67C351.958 472.09 354.584 472.942 357.233 473.638C358.662 474.014 359.837 473.583 361.415 473.218C360.885 474.915 362.165 476.02 362.485 477.446" stroke="var(--stroke-0, #F3EEE1)" stroke-width="2" stroke-linecap="round" stroke-linejoin="round"/>
<path id="Vector_67" d="M35.5875 427.181C30.0811 426.617 24.5692 426.164 19.0517 425.76C15.3716 425.495 11.7191 424.887 8.02237 425.506C7.85684 425.534 7.65821 425.523 7.47614 425.799" stroke="var(--stroke-0, #F3EEE1)" stroke-width="2" stroke-linecap="round" stroke-linejoin="round"/>
<path id="Vector_68" d="M466.666 396.802C468.095 395.233 468.475 397.195 468.812 397.67C471.935 402.12 474.92 406.663 477.954 411.174C484.25 420.531 490.424 429.972 496.774 439.291C497.414 440.231 496.697 441.474 497.817 442.094" stroke="var(--stroke-0, #F3EEE1)" stroke-width="2" stroke-linecap="round" stroke-linejoin="round"/>
<path id="Vector_69" d="M403.822 467.779C395.402 465.607 387.016 463.324 378.475 461.644C378.182 461.588 377.564 461.655 377.36 461.146" stroke="var(--stroke-0, #F3EEE1)" stroke-width="2" stroke-linecap="round" stroke-linejoin="round"/>
<path id="Vector_70" d="M124.887 464.463C131.023 466.204 137.213 467.724 143.354 469.432C146.019 470.172 148.75 470.659 151.349 471.643" stroke="var(--stroke-0, #F3EEE1)" stroke-width="2" stroke-linecap="round" stroke-linejoin="round"/>
<path id="Vector_71" d="M497.26 439.335C503.583 436.279 510 433.344 514.005 426.927C512.46 424.92 510.22 424.898 508.278 424.765C502.385 424.362 496.515 425.031 490.639 425.495C489.828 425.556 489.149 425.81 488.437 426.081" stroke="var(--stroke-0, #F3EEE1)" stroke-width="2" stroke-linecap="round" stroke-linejoin="round"/>
<path id="Vector_72" d="M469.976 483.245C469.353 482.255 469.943 481.382 470.07 480.47C478.931 483.687 488.239 484.461 496.846 487.274C498.407 492.188 497.834 497.605 501.287 501.761C505.437 501.208 509.475 500.711 513.531 500.357C514.287 500.291 515.026 500.142 515.771 499.943C516.952 499.628 517.95 499.285 518.165 498.141C518.403 496.881 517.376 496.411 516.306 495.902C513.729 494.675 511.258 493.227 508.295 493.183" stroke="var(--stroke-0, #F3EEE1)" stroke-width="2" stroke-linecap="round" stroke-linejoin="round"/>
<path id="Vector_73" d="M344.564 453.419C338.225 454.967 331.714 455.027 325.264 455.586C323.256 455.757 321.237 456.105 319.206 455.906" stroke="var(--stroke-0, #F3EEE1)" stroke-width="2" stroke-linecap="round" stroke-linejoin="round"/>
<path id="Vector_74" d="M105.323 472.472C105.576 475.247 105.052 478.01 105.113 480.757C105.24 486.406 104.302 491.978 104.219 497.605" stroke="var(--stroke-0, #F3EEE1)" stroke-width="2" stroke-linecap="round" stroke-linejoin="round"/>
<path id="Vector_75" d="M466.114 455.354C467.118 462.534 467.835 469.752 469.06 476.91C469.292 478.259 469.926 479.165 470.528 480.21" stroke="var(--stroke-0, #F3EEE1)" stroke-width="2" stroke-linecap="round" stroke-linejoin="round"/>
<path id="Vector_76" d="M6.37265 425.799C9.68863 428.723 13.7715 430.342 17.7055 432.078C23.9512 434.836 30.2853 437.462 36.9724 439.031C37.7228 439.208 37.8331 440.148 38.6221 440.159" stroke="var(--stroke-0, #F3EEE1)" stroke-width="2" stroke-linecap="round" stroke-linejoin="round"/>
<path id="Vector_77" d="M173.402 469.99C170.119 471.267 166.533 471.084 163.189 472.157C161.314 472.759 159.476 473.539 157.418 473.633C155.432 473.721 154.957 472.682 154.946 471.095C154.908 467.221 155.051 463.346 154.4 459.494C154.157 458.056 153.705 457.764 151.906 458.399C145.567 460.643 139.012 462.163 132.628 464.247C131.9 464.485 130.852 463.976 130.405 465.021" stroke="var(--stroke-0, #F3EEE1)" stroke-width="2" stroke-linecap="round" stroke-linejoin="round"/>
<path id="Vector_78" d="M414.299 469.437C415.949 467.879 418.14 469.078 420.06 468.288C421.544 473.555 421.582 478.983 421.996 484.356C422.261 487.843 421.671 491.364 422.289 494.847" stroke="var(--stroke-0, #F3EEE1)" stroke-width="2" stroke-linecap="round" stroke-linejoin="round"/>
<path id="Vector_79" d="M488.167 441.541C487.979 442.503 488.697 442.878 489.21 443.525C490.545 445.216 490.115 446.294 488.167 447.068C478.512 450.899 468.668 454.187 458.676 457.017C458.566 457.051 458.489 457.194 458.4 457.288" stroke="var(--stroke-0, #F3EEE1)" stroke-width="2" stroke-linecap="round" stroke-linejoin="round"/>
<path id="Vector_80" d="M279.243 260.377C288.27 271.608 302.571 273.393 315.052 268.33C318.29 267.015 321.264 265.042 323.344 262.035" stroke="var(--stroke-0, #F3EEE1)" stroke-width="2" stroke-linecap="round" stroke-linejoin="round"/>
<path id="Vector_81" d="M423.392 470.266C423.21 474.257 424.049 478.176 424.286 482.139C424.54 486.384 424.374 490.613 424.496 494.847" stroke="var(--stroke-0, #F3EEE1)" stroke-width="2" stroke-linecap="round" stroke-linejoin="round"/>
<path id="Vector_82" d="M457.021 403.982C459.454 411.306 462.307 418.475 464.74 425.799" stroke="var(--stroke-0, #F3EEE1)" stroke-width="2" stroke-linecap="round" stroke-linejoin="round"/>
<path id="Vector_83" d="M106.42 437.124C105.874 441.005 107.027 444.841 106.713 448.726C106.437 452.131 106.222 455.542 105.869 458.941" stroke="var(--stroke-0, #F3EEE1)" stroke-width="2" stroke-linecap="round" stroke-linejoin="round"/>
<path id="Vector_84" d="M487.891 443.475C485.072 445.548 481.69 446.421 478.495 447.538C471.719 449.909 464.878 452.142 457.849 453.69" stroke="var(--stroke-0, #F3EEE1)" stroke-width="2" stroke-linecap="round" stroke-linejoin="round"/>
<path id="Vector_85" d="M464.464 429.668C464.861 433.526 465.027 437.406 465.22 441.27C465.38 444.515 465.562 447.737 466.119 450.932" stroke="var(--stroke-0, #F3EEE1)" stroke-width="2" stroke-linecap="round" stroke-linejoin="round"/>
<path id="Vector_86" d="M403.276 437.401C397.157 431.68 389.681 428.325 382.05 425.252" stroke="var(--stroke-0, #F3EEE1)" stroke-width="2" stroke-linecap="round" stroke-linejoin="round"/>
<path id="Vector_87" d="M346.22 456.177C351.081 455.519 355.616 453.706 360.295 452.363C363.004 451.589 365.707 450.661 368.593 450.031C369.288 452.076 368.284 452.783 366.894 453.126C361.889 454.364 357.106 456.376 352.013 457.277C350.733 457.504 350.065 458.681 348.984 459.212" stroke="var(--stroke-0, #F3EEE1)" stroke-width="2" stroke-linecap="round" stroke-linejoin="round"/>
<path id="Vector_88" d="M103.943 436.295C109.273 437.102 114.586 438.036 119.933 438.761C122.393 439.092 124.816 440.17 127.37 439.335" stroke="var(--stroke-0, #F3EEE1)" stroke-width="2" stroke-linecap="round" stroke-linejoin="round"/>
<path id="Vector_89" d="M129.025 420.277C135.271 423.406 141.522 426.54 147.768 429.668" stroke="var(--stroke-0, #F3EEE1)" stroke-width="2" stroke-linecap="round" stroke-linejoin="round"/>
<path id="Vector_90" d="M41.6512 380.231C47.6707 381.066 53.1385 383.625 58.7387 385.759C59.2022 385.936 59.7263 385.947 60.1181 386.306C62.4023 388.373 64.9955 388.71 67.837 387.688" stroke="var(--stroke-0, #F3EEE1)" stroke-width="2" stroke-linecap="round" stroke-linejoin="round"/>
<path id="Vector_91" d="M368.819 476.894C367.82 477.446 368.063 478.961 366.838 479.392C368.615 482.272 369.349 485.45 369.332 488.766C369.327 490.215 369.702 491.364 371.043 491.74C371.964 492 373.266 492.647 373.995 491.751C374.75 490.823 375.164 489.833 374.806 488.169C374.265 485.666 373.564 482.858 374.833 480.177C375.104 479.608 375.225 478.546 374.59 478.016C371.622 475.539 372.836 472.179 372.742 469.155C372.687 467.436 372.372 466.386 370.48 466.397" stroke="var(--stroke-0, #F3EEE1)" stroke-width="2" stroke-linecap="round" stroke-linejoin="round"/>
<path id="Vector_92" d="M353.387 373.881C349.116 379.187 345.177 384.753 340.708 389.899" stroke="var(--stroke-0, #F3EEE1)" stroke-width="2" stroke-linecap="round" stroke-linejoin="round"/>
<path id="Vector_93" d="M225.768 373.604C221.073 371.791 216.008 371.111 211.412 368.956C210.855 368.696 210.132 368.878 209.426 369.663C208.118 371.122 206.954 372.703 205.707 374.201C205.243 374.759 204.923 375.025 204.272 374.981" stroke="var(--stroke-0, #F3EEE1)" stroke-width="2" stroke-linecap="round" stroke-linejoin="round"/>
<path id="Vector_94" d="M43.8527 381.061C43.9906 382.575 45.4527 382.835 46.3631 383.504C51.3564 387.19 56.5924 390.512 62.0326 393.508C62.7554 393.906 63.6492 394.221 63.9748 395.139" stroke="var(--stroke-0, #F3EEE1)" stroke-width="2" stroke-linecap="round" stroke-linejoin="round"/>
<path id="Vector_95" d="M450.406 409.228C452.828 413.788 453.65 418.967 455.89 423.605C456.254 424.362 455.41 425.213 455.642 426.075" stroke="var(--stroke-0, #F3EEE1)" stroke-width="2" stroke-linecap="round" stroke-linejoin="round"/>
<path id="Vector_96" d="M119.927 467.779C115.232 469.515 110.294 470.454 105.582 472.157C104.842 472.422 103.833 471.372 103.116 472.472" stroke="var(--stroke-0, #F3EEE1)" stroke-width="2" stroke-linecap="round" stroke-linejoin="round"/>
<path id="Vector_97" d="M359.451 437.401C356.466 439.711 352.863 440.828 349.469 442.237C347.891 442.895 346.981 444.642 345.116 444.581" stroke="var(--stroke-0, #F3EEE1)" stroke-width="2" stroke-linecap="round" stroke-linejoin="round"/>
<path id="Vector_98" d="M156.861 457.559C157.374 456.896 157.225 455.901 158.097 455.249C162.765 458.587 168.067 461.036 172.569 464.739" stroke="var(--stroke-0, #F3EEE1)" stroke-width="2" stroke-linecap="round" stroke-linejoin="round"/>
<path id="Vector_99" d="M154.66 458.665C157.578 457.283 157.683 457.426 157.722 460.599C157.771 464.739 157.341 468.896 157.97 473.025" stroke="var(--stroke-0, #F3EEE1)" stroke-width="2" stroke-linecap="round" stroke-linejoin="round"/>
<path id="Vector_100" d="M477.965 426.628C474.567 427.783 470.93 427.628 467.493 428.563C463.956 429.524 460.16 429.22 456.745 430.768" stroke="var(--stroke-0, #F3EEE1)" stroke-width="2" stroke-linecap="round" stroke-linejoin="round"/>
<path id="Vector_101" d="M427.53 382.719C431.299 384.416 435.415 384.709 439.404 385.361C441.528 385.709 443.47 386.77 445.727 386.698C446.626 386.671 447.559 386.511 448.48 386.588" stroke="var(--stroke-0, #F3EEE1)" stroke-width="2" stroke-linecap="round" stroke-linejoin="round"/>
<path id="Vector_102" d="M319.482 362.284C318.478 361.45 318.395 359.686 316.712 359.642C309.622 363.876 302.069 367.242 294.124 369.741" stroke="var(--stroke-0, #F3EEE1)" stroke-width="2" stroke-linecap="round" stroke-linejoin="round"/>
<path id="Vector_103" d="M154.384 476.065C154.814 480.42 154.82 484.754 153.832 489.043" stroke="var(--stroke-0, #F3EEE1)" stroke-width="2" stroke-linecap="round" stroke-linejoin="round"/>
<path id="Vector_104" d="M357.519 435.19C353.525 437.428 349.497 439.584 345.116 440.988" stroke="var(--stroke-0, #F3EEE1)" stroke-width="2" stroke-linecap="round" stroke-linejoin="round"/>
<path id="Vector_105" d="M195.726 362.008C190.181 365.004 183.919 365.932 178.098 368.116C173.794 369.73 169.358 370.962 165.132 372.775" stroke="var(--stroke-0, #F3EEE1)" stroke-width="2" stroke-linecap="round" stroke-linejoin="round"/>
<path id="Vector_106" d="M47.7149 425.799C44.8292 430.42 41.7009 434.897 39.4442 439.883" stroke="var(--stroke-0, #F3EEE1)" stroke-width="2" stroke-linecap="round" stroke-linejoin="round"/>
<path id="Vector_107" d="M22.6326 496.223C22.9802 499.02 22.3843 501.75 22.1194 504.514C22.0146 505.592 21.7774 506.758 22.3567 507.825" stroke="var(--stroke-0, #F3EEE1)" stroke-width="2" stroke-linecap="round" stroke-linejoin="round"/>
<path id="Vector_108" d="M461.154 390.175C458.676 388.76 455.802 388.992 453.137 388.34C451.884 388.036 450.726 387.655 449.578 387.135" stroke="var(--stroke-0, #F3EEE1)" stroke-width="2" stroke-linecap="round" stroke-linejoin="round"/>
<path id="Vector_109" d="M210.888 365.319C208.234 363.218 204.995 362.207 202.176 360.438C201.1 361.129 200.741 362.246 199.864 362.831" stroke="var(--stroke-0, #F3EEE1)" stroke-width="2" stroke-linecap="round" stroke-linejoin="round"/>
<path id="Vector_110" d="M476.316 424.423C472.944 425.091 469.551 425.561 466.125 425.865C464.481 426.014 462.908 426.926 461.159 426.628" stroke="var(--stroke-0, #F3EEE1)" stroke-width="2" stroke-linecap="round" stroke-linejoin="round"/>
<path id="Vector_111" d="M399.965 439.612C398.062 441.806 395.871 443.149 392.815 443.586C389.179 444.105 385.587 445.145 382.05 446.239" stroke="var(--stroke-0, #F3EEE1)" stroke-width="2" stroke-linecap="round" stroke-linejoin="round"/>
<path id="Vector_112" d="M445.17 394.592C446.422 398.184 447.327 401.915 449.578 405.088" stroke="var(--stroke-0, #F3EEE1)" stroke-width="2" stroke-linecap="round" stroke-linejoin="round"/>
<path id="Vector_113" d="M326.649 358.968C323.824 359.316 321.838 361.157 319.576 362.865C321.364 365.252 322.76 367.856 325.546 369.188" stroke="var(--stroke-0, #F3EEE1)" stroke-width="2" stroke-linecap="round" stroke-linejoin="round"/>
<path id="Vector_114" d="M346.22 468.332C348.013 467.53 349.663 467.481 351.483 468.564C354.065 470.101 357.249 470.349 359.726 472.201" stroke="var(--stroke-0, #F3EEE1)" stroke-width="2" stroke-linecap="round" stroke-linejoin="round"/>
<path id="Vector_115" d="M150 441.5C155.534 444.802 155.852 451.139 152.5 454.5" stroke="var(--stroke-0, #F3EEE1)" stroke-width="2" stroke-linecap="round" stroke-linejoin="round"/>
<path id="Vector_116" d="M149.148 448.997C151.713 451.446 154.88 453.143 157.418 455.624" stroke="var(--stroke-0, #F3EEE1)" stroke-width="2" stroke-linecap="round" stroke-linejoin="round"/>
<path id="Vector_117" d="M374.331 457.835C370.712 460.654 370.072 464.64 369.884 468.879C369.796 470.808 370.59 472.848 369.371 474.683" stroke="var(--stroke-0, #F3EEE1)" stroke-width="2" stroke-linecap="round" stroke-linejoin="round"/>
<path id="Vector_118" d="M186.628 360.073C184.388 361.93 181.436 361.875 178.859 362.677C173.259 364.418 167.532 365.844 161.816 367.231C161.209 367.38 160.536 367.253 159.89 367.253" stroke="var(--stroke-0, #F3EEE1)" stroke-width="2" stroke-linecap="round" stroke-linejoin="round"/>
<path id="Vector_119" d="M369.095 476.341C368.869 475.993 369.581 475.396 368.554 475.186C366.242 474.71 364.041 473.754 361.652 473.577" stroke="var(--stroke-0, #F3EEE1)" stroke-width="2" stroke-linecap="round" stroke-linejoin="round"/>
<path id="Vector_120" d="M340.984 364.213C339.544 363.417 338.219 364.329 337.48 365.12C336.283 366.397 334.876 366.153 333.844 365.789C330.203 364.495 326.412 363.45 323.339 360.902" stroke="var(--stroke-0, #F3EEE1)" stroke-width="2" stroke-linecap="round" stroke-linejoin="round"/>
<path id="Vector_121" d="M347.323 456.454C349.591 459.781 348.912 463.556 348.978 467.226" stroke="var(--stroke-0, #F3EEE1)" stroke-width="2" stroke-linecap="round" stroke-linejoin="round"/>
<path id="Vector_122" d="M393.626 444.028C391.463 446.294 388.594 447.61 386.183 449.55" stroke="var(--stroke-0, #F3EEE1)" stroke-width="2" stroke-linecap="round" stroke-linejoin="round"/>
<path id="Vector_123" d="M294.952 371.946C294.003 371.266 294.494 369.718 293.28 369.177C289.594 370.299 285.677 370.432 281.997 371.67" stroke="var(--stroke-0, #F3EEE1)" stroke-width="2" stroke-linecap="round" stroke-linejoin="round"/>
<path id="Vector_124" d="M126.267 434.361C127.652 435.179 129.174 435.881 130.355 436.903C132.468 438.733 135.017 437.849 137.307 438.445C138.195 438.678 139.15 438.772 140.049 439.059" stroke="var(--stroke-0, #F3EEE1)" stroke-width="2" stroke-linecap="round" stroke-linejoin="round"/>
<path id="Vector_125" d="M152 433C151.526 436.081 150.231 438.031 150.18 441.689C148.453 442.615 148.28 447.373 147.158 449.795C147.08 449.963 146.944 450.509 147.024 451" stroke="var(--stroke-0, #F3EEE1)" stroke-width="2" stroke-linecap="round" stroke-linejoin="round"/>
<path id="Vector_126" d="M128.198 419.448C129.456 422.3 128.722 425.368 128.849 428.292C128.937 430.409 129.296 432.758 128.474 434.914" stroke="var(--stroke-0, #F3EEE1)" stroke-width="2" stroke-linecap="round" stroke-linejoin="round"/>
<path id="Vector_127" d="M218.049 466.95C215.903 466.967 213.718 466.685 211.71 467.779" stroke="var(--stroke-0, #F3EEE1)" stroke-width="2" stroke-linecap="round" stroke-linejoin="round"/>
<path id="Vector_128" d="M327.753 359.797C326.125 359.244 327.284 358.691 327.753 358.139C324.216 356.055 322.743 356.132 319.78 358.714C319.234 359.189 318.572 359.509 318.108 360.073" stroke="var(--stroke-0, #F3EEE1)" stroke-width="2" stroke-linecap="round" stroke-linejoin="round"/>
<path id="Vector_129" d="M133.434 438.506C134.913 440.408 136.96 441.298 139.222 441.823" stroke="var(--stroke-0, #F3EEE1)" stroke-width="2" stroke-linecap="round" stroke-linejoin="round"/>
<path id="Vector_130" d="M445.997 382.719C445.258 384.056 443.867 383.946 442.687 384.051C441.649 384.145 441.175 384.421 441.313 385.477" stroke="var(--stroke-0, #F3EEE1)" stroke-width="2" stroke-linecap="round" stroke-linejoin="round"/>
<path id="Vector_131" d="M495.61 439.335C494.004 441.054 491.621 441.519 489.822 442.928" stroke="var(--stroke-0, #F3EEE1)" stroke-width="2" stroke-linecap="round" stroke-linejoin="round"/>
<path id="Vector_132" d="M189.11 365.042C190.644 366.761 190.986 369.227 192.691 370.841" stroke="var(--stroke-0, #F3EEE1)" stroke-width="2" stroke-linecap="round" stroke-linejoin="round"/>
<path id="Vector_133" d="M196.553 362.008C197.872 361.792 198.683 362.688 199.66 363.428C198.462 365.098 197.602 367.06 195.455 367.806" stroke="var(--stroke-0, #F3EEE1)" stroke-width="2" stroke-linecap="round" stroke-linejoin="round"/>
<path id="Vector_134" d="M323.891 362.008C323.653 364.158 325.336 365.634 325.822 367.53" stroke="var(--stroke-0, #F3EEE1)" stroke-width="2" stroke-linecap="round" stroke-linejoin="round"/>
<path id="Vector_135" d="M375.71 461.152C373.741 462.346 373.31 464.43 372.676 466.397" stroke="var(--stroke-0, #F3EEE1)" stroke-width="2" stroke-linecap="round" stroke-linejoin="round"/>
<path id="Vector_136" d="M371.302 453.972C370.701 455.691 370.91 457.266 372.13 458.665" stroke="var(--stroke-0, #F3EEE1)" stroke-width="2" stroke-linecap="round" stroke-linejoin="round"/>
<path id="Vector_137" d="M235.97 108.48C237.25 108.762 237.863 109.895 238.712 110.707C239.286 111.254 239.816 111.713 240.66 111.52" stroke="var(--stroke-0, #F3EEE1)" stroke-width="2" stroke-linecap="round" stroke-linejoin="round"/>
<path id="Vector_138" d="M371.302 453.143C373.597 454.696 374.552 457.399 376.538 459.217" stroke="var(--stroke-0, #F3EEE1)" stroke-width="2" stroke-linecap="round" stroke-linejoin="round"/>
<path id="Vector_139" d="M62.3251 388.241C61.056 389.252 58.9042 388.788 58.1925 390.728" stroke="var(--stroke-0, #F3EEE1)" stroke-width="2" stroke-linecap="round" stroke-linejoin="round"/>
<path id="Vector_140" d="M195.174 370.017C196.377 370.907 197.762 371.465 199.075 372.421" stroke="var(--stroke-0, #F3EEE1)" stroke-width="2" stroke-linecap="round" stroke-linejoin="round"/>
<path id="Vector_141" d="M151.073 426.904C152.116 428.292 153.793 428.938 154.93 430.221" stroke="var(--stroke-0, #F3EEE1)" stroke-width="2" stroke-linecap="round" stroke-linejoin="round"/>
<path id="Vector_142" d="M453.986 395.973C454.483 397.156 454.069 398.687 455.366 399.566" stroke="var(--stroke-0, #F3EEE1)" stroke-width="2" stroke-linecap="round" stroke-linejoin="round"/>
<path id="Vector_143" d="M159.344 473.854C159.52 475.075 158.803 476.501 160.171 477.446" stroke="var(--stroke-0, #F3EEE1)" stroke-width="2" stroke-linecap="round" stroke-linejoin="round"/>
<path id="Vector_144" d="M380.119 444.305C381.884 446.123 382.811 448.726 385.349 449.848C386.105 450.18 385.675 451.357 386.458 451.766" stroke="var(--stroke-0, #F3EEE1)" stroke-width="2" stroke-linecap="round" stroke-linejoin="round"/>
<path id="Vector_145" d="M199.858 372.775C201.105 373.698 202.507 374.301 203.991 374.71" stroke="var(--stroke-0, #F3EEE1)" stroke-width="2" stroke-linecap="round" stroke-linejoin="round"/>
<path id="Vector_146" d="M369.647 476.617C370.75 477.866 372.036 476.827 373.228 476.894" stroke="var(--stroke-0, #F3EEE1)" stroke-width="2" stroke-linecap="round" stroke-linejoin="round"/>
<path id="Vector_147" d="M328.029 358.415C329.309 359.156 330.804 359.095 332.145 359.565C332.509 359.692 333.645 360.178 332.437 360.902" stroke="var(--stroke-0, #F3EEE1)" stroke-width="2" stroke-linecap="round" stroke-linejoin="round"/>
<path id="Vector_148" d="M308.182 364.49C310.351 366.452 310.406 366.806 308.734 368.082" stroke="var(--stroke-0, #F3EEE1)" stroke-width="2" stroke-linecap="round" stroke-linejoin="round"/>
<path id="Vector_149" d="M71.9696 386.306C70.1819 386.356 68.7915 387.014 68.1129 388.793" stroke="var(--stroke-0, #F3EEE1)" stroke-width="2" stroke-linecap="round" stroke-linejoin="round"/>
<path id="Vector_150" d="M176.707 470.266C176.735 471.101 176.569 471.958 176.983 472.754" stroke="var(--stroke-0, #F3EEE1)" stroke-width="2" stroke-linecap="round" stroke-linejoin="round"/>
<path id="Vector_151" d="M151.349 474.959C152.999 476.031 154.417 475.96 155.482 474.13" stroke="var(--stroke-0, #F3EEE1)" stroke-width="2" stroke-linecap="round" stroke-linejoin="round"/>
<path id="Vector_152" d="M210.336 365.595C208.659 366.452 208.559 367.568 209.784 368.911" stroke="var(--stroke-0, #F3EEE1)" stroke-width="2" stroke-linecap="round" stroke-linejoin="round"/>
<path id="Vector_153" d="M63.9748 396.25C63.6603 396.974 63.1472 397.621 63.1472 398.461" stroke="var(--stroke-0, #F3EEE1)" stroke-width="2" stroke-linecap="round" stroke-linejoin="round"/>
<path id="Vector_154" d="M70.3143 386.306C69.4757 386.306 68.8301 385.792 68.1073 385.477" stroke="var(--stroke-0, #F3EEE1)" stroke-width="2" stroke-linecap="round" stroke-linejoin="round"/>
</g>
<defs>
<clipPath id="clip0_0_4">
<rect width="522" height="726" fill="white"/>
</clipPath>
</defs>
</svg>
