<svg preserveAspectRatio="none" width="100%" height="100%" overflow="visible" style="display: block;" viewBox="0 0 41 41" fill="none" xmlns="http://www.w3.org/2000/svg">
<g id="Group 3239">
<path id="Vector" d="M22.4229 10.5273C22.5319 10.4928 22.616 10.4946 22.6797 10.5127C22.7406 10.53 22.8159 10.5714 22.8965 10.6738C23.0579 10.8793 23.1097 11.1979 23.0098 11.6367C22.9114 12.0687 22.6815 12.533 22.4141 12.9189C21.4096 14.3685 19.9774 15.4288 18.5225 16.2959C16.8365 17.3006 15.1009 18.0549 13.293 18.7148L13.4307 19.6836C14.2147 19.736 14.9409 19.5866 15.6035 19.4834C15.9888 19.4234 16.3691 19.3262 16.7051 19.25C17.0527 19.1712 17.3733 19.1095 17.6982 19.0937L26.0264 18.6914C26.6329 18.6621 27.1053 18.7109 27.5215 18.9922C28.0486 19.3485 28.7658 19.7261 29.5957 19.4639C29.6416 19.4493 29.675 19.4426 29.6973 19.4385C29.7763 19.5319 29.9902 19.8062 30.3916 19.9531C30.9339 20.1516 31.4723 20.2569 32.0215 20.3154C32.1857 20.3329 32.3312 20.3786 32.4238 20.4346C32.4676 20.4611 32.4883 20.4828 32.4961 20.4932C32.4972 20.4947 32.4984 20.4961 32.499 20.4971L32.5 20.499L32.499 20.498C32.5009 20.5178 32.4982 20.5267 32.4951 20.5332C32.4906 20.5425 32.4776 20.5627 32.4443 20.5889C32.3724 20.6455 32.2403 20.7001 32.0703 20.7148C31.7306 20.7443 31.2883 20.7964 30.8711 20.9111C30.4693 21.0217 30.0042 21.2129 29.7041 21.582C29.701 21.5859 29.6963 21.5883 29.6934 21.5918C29.3238 21.4745 28.9876 21.462 28.6719 21.5234C28.3349 21.589 28.0463 21.7338 27.8066 21.8643C27.303 22.1384 26.9641 22.3585 26.4385 22.335L17.8701 21.9512C17.4977 21.9344 17.1341 21.8691 16.749 21.7871C16.3755 21.7075 15.9591 21.6057 15.54 21.5391C14.8748 21.4332 14.1638 21.2957 13.3887 21.335L13.251 22.3066C15.2596 23.0005 17.1904 23.8794 19.0342 25.0693C20.2878 25.8784 21.5792 26.9522 22.377 28.2773C22.6001 28.6481 22.772 29.0973 22.8291 29.5039C22.8881 29.9244 22.814 30.1997 22.6846 30.3447C22.5813 30.4605 22.504 30.4892 22.46 30.4971C22.4133 30.5054 22.342 30.501 22.2363 30.4492C22.0059 30.3362 21.7242 30.0513 21.459 29.6318C20.7029 28.436 19.8707 27.3927 18.8984 26.4414C16.6216 24.2138 14.009 22.6414 11.1816 21.7617L11.1729 21.7588L11.1641 21.7568L7.52344 20.7646L6.79297 20.501C6.83154 20.4852 6.87213 20.4673 6.91602 20.4512C7.28573 20.3149 7.72798 20.2057 8.05176 20.1211L10.7305 19.4209C13.3093 18.7471 15.6632 17.3745 17.8145 15.5791C19.288 14.3493 20.556 12.8921 21.6592 11.1963C21.9028 10.8218 22.1934 10.6002 22.4229 10.5273Z" fill="var(--fill-0, #520345)" stroke="var(--stroke-0, #520345)"/>
<circle id="Ellipse 226" cx="20.5" cy="20.5" r="20" transform="rotate(180 20.5 20.5)" stroke="var(--stroke-0, #520345)"/>
</g>
</svg>
