<svg width="546" height="75" viewBox="0 0 546 75" fill="none" xmlns="http://www.w3.org/2000/svg">
<rect x="4" y="4" width="550" height="67" rx="4" fill="#520345"/>
<rect x="1" y="1" width="549" height="73" rx="3" stroke="#520345" stroke-width="2"/>
<path d="M31.152 35.21C28.338 35.21 26.336 33.04 26.336 30.03C26.336 27.062 28.184 24.794 31.138 24.794C33.602 24.794 35.058 26.264 35.268 28.168H33.252C33.07 27.16 32.314 26.502 31.138 26.502C29.29 26.502 28.408 28.042 28.408 30.03C28.408 32.074 29.472 33.544 31.152 33.544C32.342 33.544 33.182 32.83 33.308 31.78H35.296C35.24 32.662 34.862 33.516 34.19 34.146C33.504 34.79 32.538 35.21 31.152 35.21ZM41.5763 35.224C38.6223 35.224 36.7463 33.012 36.7463 30.016C36.7463 27.02 38.6223 24.794 41.5763 24.794C44.5303 24.794 46.3923 27.02 46.3923 30.016C46.3923 33.012 44.5303 35.224 41.5763 35.224ZM41.5903 33.558C43.4243 33.558 44.3203 32.004 44.3203 30.016C44.3203 28.014 43.4243 26.46 41.5903 26.46C39.7563 26.46 38.8183 28.014 38.8183 30.016C38.8183 32.004 39.7563 33.558 41.5903 33.558ZM43.6203 22.708L42.2903 24.458H40.8063L41.3943 22.708H43.6203ZM48.3426 35V24.99H51.1986L52.6126 30.016C52.9626 31.276 53.2426 32.718 53.2426 32.718H53.2706C53.2706 32.718 53.5366 31.276 53.8866 30.016L55.3006 24.99H58.1986V35H56.3086V29.26C56.3086 28.448 56.3926 27.188 56.3926 27.188H56.3646C56.3646 27.188 56.1406 28.364 55.9306 29.092L54.2086 35H52.2626L50.5826 29.092C50.3726 28.364 50.1486 27.188 50.1486 27.188H50.1206C50.1206 27.188 50.2046 28.448 50.2046 29.26V35H48.3426ZM64.9809 35.224C62.0269 35.224 60.1509 33.012 60.1509 30.016C60.1509 27.02 62.0269 24.794 64.9809 24.794C67.9349 24.794 69.7969 27.02 69.7969 30.016C69.7969 33.012 67.9349 35.224 64.9809 35.224ZM64.9949 33.558C66.8289 33.558 67.7249 32.004 67.7249 30.016C67.7249 28.014 66.8289 26.46 64.9949 26.46C63.1609 26.46 62.2229 28.014 62.2229 30.016C62.2229 32.004 63.1609 33.558 64.9949 33.558ZM74.9388 35V24.99H79.5308C81.4628 24.99 82.7508 26.11 82.7508 27.776C82.7508 28.952 82.2048 29.848 80.9168 30.198V30.24C81.8408 30.506 82.3168 31.038 82.4428 32.256C82.5828 33.67 82.5268 34.748 82.8768 34.902V35H80.9308C80.6788 34.888 80.6508 33.768 80.5668 32.69C80.4828 31.598 79.8668 30.982 78.6068 30.982H76.9688V35H74.9388ZM76.9688 26.628V29.414H79.1248C80.2308 29.414 80.7768 28.84 80.7768 28.042C80.7768 27.23 80.2588 26.628 79.1808 26.628H76.9688ZM84.8979 35V24.99H92.2619V26.698H86.9279V28.938H91.6039V30.604H86.9279V33.306H92.3039V35H84.8979ZM98.5828 35.21C95.7688 35.21 93.7668 33.04 93.7668 30.03C93.7668 27.062 95.6148 24.794 98.5688 24.794C101.033 24.794 102.489 26.264 102.699 28.168H100.683C100.501 27.16 99.7448 26.502 98.5688 26.502C96.7208 26.502 95.8388 28.042 95.8388 30.03C95.8388 32.074 96.9028 33.544 98.5828 33.544C99.7728 33.544 100.613 32.83 100.739 31.78H102.727C102.671 32.662 102.293 33.516 101.621 34.146C100.935 34.79 99.9688 35.21 98.5828 35.21ZM109.007 35.224C106.053 35.224 104.177 33.012 104.177 30.016C104.177 27.02 106.053 24.794 109.007 24.794C111.961 24.794 113.823 27.02 113.823 30.016C113.823 33.012 111.961 35.224 109.007 35.224ZM109.021 33.558C110.855 33.558 111.751 32.004 111.751 30.016C111.751 28.014 110.855 26.46 109.021 26.46C107.187 26.46 106.249 28.014 106.249 30.016C106.249 32.004 107.187 33.558 109.021 33.558ZM115.773 35V24.99H117.831L121.163 30.576C121.485 31.122 121.863 31.976 121.863 31.976H121.891C121.891 31.976 121.835 30.94 121.835 30.24V24.99H123.837V35H121.877L118.461 29.47C118.139 28.938 117.747 28.084 117.747 28.084H117.719C117.719 28.084 117.775 29.134 117.775 29.834V35H115.773ZM130.607 35.224C127.653 35.224 125.777 33.012 125.777 30.016C125.777 27.02 127.653 24.794 130.607 24.794C133.561 24.794 135.423 27.02 135.423 30.016C135.423 33.012 133.561 35.224 130.607 35.224ZM130.621 33.558C132.455 33.558 133.351 32.004 133.351 30.016C133.351 28.014 132.455 26.46 130.621 26.46C128.787 26.46 127.849 28.014 127.849 30.016C127.849 32.004 128.787 33.558 130.621 33.558ZM141.755 35.21C138.941 35.21 136.939 33.04 136.939 30.03C136.939 27.062 138.787 24.794 141.741 24.794C144.205 24.794 145.661 26.264 145.871 28.168H143.855C143.673 27.16 142.917 26.502 141.741 26.502C139.893 26.502 139.011 28.042 139.011 30.03C139.011 32.074 140.075 33.544 141.755 33.544C142.945 33.544 143.785 32.83 143.911 31.78H145.899C145.843 32.662 145.465 33.516 144.793 34.146C144.107 34.79 143.141 35.21 141.755 35.21ZM147.784 35V24.99H155.148V26.698H149.814V28.938H154.49V30.604H149.814V33.306H155.19V35H147.784ZM157.292 35V24.99H161.884C163.816 24.99 165.104 26.11 165.104 27.776C165.104 28.952 164.558 29.848 163.27 30.198V30.24C164.194 30.506 164.67 31.038 164.796 32.256C164.936 33.67 164.88 34.748 165.23 34.902V35H163.284C163.032 34.888 163.004 33.768 162.92 32.69C162.836 31.598 162.22 30.982 160.96 30.982H159.322V35H157.292ZM159.322 26.628V29.414H161.478C162.584 29.414 163.13 28.84 163.13 28.042C163.13 27.23 162.612 26.628 161.534 26.628H159.322ZM167.251 35V24.99H169.281V33.306H173.985V35H167.251ZM175.251 35L178.737 24.99H180.837L184.365 35H182.251L181.579 32.872H177.967L177.309 35H175.251ZM179.339 28.434L178.443 31.318H181.089L180.193 28.434C180.025 27.902 179.787 26.894 179.787 26.894H179.759C179.759 26.894 179.507 27.902 179.339 28.434Z" fill="#B9D6FE"/>
<path d="M27.072 54V42.56H31.84C33.04 42.56 33.968 42.96 34.56 43.664C35.04 44.224 35.328 44.976 35.328 45.84C35.328 47.936 34.128 49.2 31.632 49.2H28.512V54H27.072ZM28.512 43.808V48.032H31.52C33.136 48.032 33.904 47.216 33.904 45.904C33.904 44.528 33.056 43.808 31.6 43.808H28.512ZM42.7041 54.08C41.8561 54.08 41.4081 53.696 41.2801 52.848H41.2641C40.7681 53.488 39.9201 54.16 38.5121 54.16C36.9441 54.16 35.7121 53.424 35.7121 51.856C35.7121 49.904 37.2481 49.504 39.3121 49.184C40.4801 49.008 41.2961 48.896 41.2961 48C41.2961 47.072 40.6241 46.544 39.4401 46.544C38.0961 46.544 37.4241 47.12 37.3761 48.368H36.1281C36.1761 46.768 37.2321 45.568 39.4241 45.568C41.1841 45.568 42.4801 46.224 42.4801 48.192V52.128C42.4801 52.8 42.6401 53.168 43.3601 53.008H43.4081V53.952C43.2481 54.016 43.0401 54.08 42.7041 54.08ZM38.8001 53.168C40.5281 53.168 41.3121 51.904 41.3121 50.944V49.536C40.8801 49.808 40.1281 50.016 39.4241 50.144C38.1281 50.384 37.0881 50.608 37.0881 51.824C37.0881 52.928 37.9521 53.168 38.8001 53.168ZM45.6604 45.728V46.816H45.6924C46.2844 46.032 47.1164 45.536 48.3164 45.536C50.0444 45.536 51.1004 46.48 51.1004 48.192V54H49.8044V48.304C49.8044 47.232 49.1004 46.624 47.9324 46.624C46.6204 46.624 45.6604 47.552 45.6604 48.912V54H44.3644V45.728H45.6604ZM52.8175 54V45.728H54.1135V54H52.8175ZM52.8175 44.16V42.56H54.1135V44.16H52.8175ZM59.416 54.224C56.888 54.224 55.416 52.272 55.416 49.872C55.416 47.472 56.984 45.52 59.336 45.52C61.816 45.52 63.144 47.44 63.144 50.176H56.744C56.84 51.856 57.752 53.136 59.416 53.136C60.616 53.136 61.416 52.56 61.704 51.44H62.968C62.584 53.216 61.288 54.224 59.416 54.224ZM59.336 46.544C57.8 46.544 56.968 47.696 56.776 49.2H61.752C61.672 47.552 60.824 46.544 59.336 46.544ZM65.7073 45.728V47.104H65.7393C66.2353 46.304 67.0993 45.632 68.2033 45.632C68.4433 45.632 68.5713 45.664 68.7313 45.728V46.976H68.6833C68.4913 46.912 68.3633 46.896 68.1073 46.896C66.8273 46.896 65.7073 47.856 65.7073 49.408V54H64.4113V45.728H65.7073ZM72.3145 49.792V48.208H73.8665V49.792H72.3145ZM77.4145 46.784V45.728H78.6145V43.12H79.9105V45.728H81.5105V46.784H79.9105V52.16C79.9105 52.736 80.2145 52.928 80.7425 52.928C80.9985 52.928 81.2865 52.864 81.4305 52.816H81.4785V53.936C81.1745 54 80.8225 54.048 80.4385 54.048C79.3825 54.048 78.6145 53.616 78.6145 52.448V46.784H77.4145ZM89.3448 54.08C88.4968 54.08 88.0488 53.696 87.9208 52.848H87.9048C87.4088 53.488 86.5608 54.16 85.1528 54.16C83.5848 54.16 82.3528 53.424 82.3528 51.856C82.3528 49.904 83.8888 49.504 85.9528 49.184C87.1208 49.008 87.9368 48.896 87.9368 48C87.9368 47.072 87.2648 46.544 86.0807 46.544C84.7368 46.544 84.0648 47.12 84.0168 48.368H82.7688C82.8168 46.768 83.8728 45.568 86.0648 45.568C87.8248 45.568 89.1208 46.224 89.1208 48.192V52.128C89.1208 52.8 89.2808 53.168 90.0008 53.008H90.0487V53.952C89.8888 54.016 89.6808 54.08 89.3448 54.08ZM85.4408 53.168C87.1688 53.168 87.9528 51.904 87.9528 50.944V49.536C87.5208 49.808 86.7688 50.016 86.0648 50.144C84.7688 50.384 83.7288 50.608 83.7288 51.824C83.7288 52.928 84.5928 53.168 85.4408 53.168ZM91.053 54V42.56H92.349V54H91.053ZM94.2093 54V42.56H95.5053V54H94.2093ZM100.854 54.224C98.3255 54.224 96.8535 52.272 96.8535 49.872C96.8535 47.472 98.4215 45.52 100.774 45.52C103.254 45.52 104.582 47.44 104.582 50.176H98.1815C98.2775 51.856 99.1895 53.136 100.854 53.136C102.054 53.136 102.854 52.56 103.142 51.44H104.406C104.022 53.216 102.726 54.224 100.854 54.224ZM100.774 46.544C99.2375 46.544 98.4055 47.696 98.2135 49.2H103.19C103.11 47.552 102.262 46.544 100.774 46.544ZM111.932 54.224C109.468 54.224 107.932 52.272 107.932 49.872C107.932 47.472 109.468 45.52 111.932 45.52C113.884 45.52 115.18 46.64 115.468 48.4H114.156C113.964 47.28 113.18 46.592 111.932 46.592C110.172 46.592 109.26 48.048 109.26 49.872C109.26 51.696 110.172 53.136 111.932 53.136C113.276 53.136 114.076 52.368 114.188 51.088H115.468C115.292 53.072 113.996 54.224 111.932 54.224ZM120.229 54.224C117.701 54.224 116.229 52.272 116.229 49.872C116.229 47.472 117.797 45.52 120.149 45.52C122.629 45.52 123.957 47.44 123.957 50.176H117.557C117.653 51.856 118.565 53.136 120.229 53.136C121.429 53.136 122.229 52.56 122.517 51.44H123.781C123.397 53.216 122.101 54.224 120.229 54.224ZM120.149 46.544C118.613 46.544 117.781 47.696 117.589 49.2H122.565C122.485 47.552 121.637 46.544 120.149 46.544ZM126.52 45.728V46.816H126.552C127.144 46.032 127.976 45.536 129.176 45.536C130.904 45.536 131.96 46.48 131.96 48.192V54H130.664V48.304C130.664 47.232 129.96 46.624 128.792 46.624C127.48 46.624 126.52 47.552 126.52 48.912V54H125.224V45.728H126.52ZM129.608 44.384C128.84 44.384 128.12 43.872 127.688 43.872C127.464 43.872 127.336 44.064 127.32 44.352H126.36C126.44 43.44 126.84 42.88 127.592 42.88C128.456 42.88 128.872 43.392 129.464 43.392C129.768 43.392 129.864 43.168 129.896 42.912H130.824C130.776 43.728 130.44 44.384 129.608 44.384ZM133.677 54V45.728H134.973V54H133.677ZM133.677 44.16V42.56H134.973V44.16H133.677ZM139.939 54.24C137.683 54.24 136.275 52.544 136.275 49.888C136.275 47.136 137.859 45.536 139.907 45.536C141.075 45.536 141.971 46.112 142.499 46.896H142.531V42.56H143.827V54H142.531V52.992H142.499C141.875 53.792 141.107 54.24 139.939 54.24ZM139.987 53.152C141.827 53.152 142.611 51.776 142.611 49.904C142.611 47.984 141.683 46.64 139.971 46.64C138.403 46.64 137.603 48.048 137.603 49.904C137.603 51.776 138.403 53.152 139.987 53.152ZM149.119 54.224C146.655 54.224 145.119 52.272 145.119 49.872C145.119 47.472 146.655 45.52 149.119 45.52C151.599 45.52 153.103 47.472 153.103 49.872C153.103 52.272 151.599 54.224 149.119 54.224ZM149.119 53.136C150.879 53.136 151.775 51.696 151.775 49.872C151.775 48.048 150.879 46.592 149.119 46.592C147.359 46.592 146.447 48.048 146.447 49.872C146.447 51.696 147.359 53.136 149.119 53.136ZM156.815 49.792V48.208H158.367V49.792H156.815ZM165.979 54.224C163.451 54.224 161.979 52.272 161.979 49.872C161.979 47.472 163.547 45.52 165.899 45.52C168.379 45.52 169.707 47.44 169.707 50.176H163.307C163.403 51.856 164.315 53.136 165.979 53.136C167.179 53.136 167.979 52.56 168.267 51.44H169.531C169.147 53.216 167.851 54.224 165.979 54.224ZM165.899 46.544C164.363 46.544 163.531 47.696 163.339 49.2H168.315C168.235 47.552 167.387 46.544 165.899 46.544ZM174.11 54.24C171.838 54.24 170.574 53.168 170.446 51.312H171.774C171.95 52.752 172.91 53.152 174.142 53.152C175.502 53.152 176.062 52.56 176.062 51.792C176.062 50.864 175.422 50.624 173.902 50.304C172.27 49.968 170.814 49.632 170.814 47.824C170.814 46.448 171.87 45.552 173.79 45.552C175.838 45.552 176.846 46.528 177.038 48.144H175.71C175.582 47.056 174.99 46.576 173.758 46.576C172.574 46.576 172.094 47.104 172.094 47.76C172.094 48.656 172.894 48.832 174.318 49.12C175.982 49.456 177.374 49.824 177.374 51.728C177.374 53.392 176.014 54.24 174.11 54.24ZM182.307 54.224C179.843 54.224 178.307 52.272 178.307 49.872C178.307 47.472 179.843 45.52 182.307 45.52C184.259 45.52 185.555 46.64 185.843 48.4H184.531C184.339 47.28 183.555 46.592 182.307 46.592C180.547 46.592 179.635 48.048 179.635 49.872C179.635 51.696 180.547 53.136 182.307 53.136C183.651 53.136 184.451 52.368 184.563 51.088H185.843C185.667 53.072 184.371 54.224 182.307 54.224ZM190.604 54.224C188.14 54.224 186.604 52.272 186.604 49.872C186.604 47.472 188.14 45.52 190.604 45.52C193.084 45.52 194.588 47.472 194.588 49.872C194.588 52.272 193.084 54.224 190.604 54.224ZM190.604 53.136C192.364 53.136 193.26 51.696 193.26 49.872C193.26 48.048 192.364 46.592 190.604 46.592C188.844 46.592 187.932 48.048 187.932 49.872C187.932 51.696 188.844 53.136 190.604 53.136ZM195.196 46.784V45.728H196.396V43.12H197.692V45.728H199.292V46.784H197.692V52.16C197.692 52.736 197.996 52.928 198.524 52.928C198.78 52.928 199.068 52.864 199.212 52.816H199.26V53.936C198.956 54 198.604 54.048 198.22 54.048C197.164 54.048 196.396 53.616 196.396 52.448V46.784H195.196ZM204.088 54.224C201.56 54.224 200.088 52.272 200.088 49.872C200.088 47.472 201.656 45.52 204.008 45.52C206.488 45.52 207.816 47.44 207.816 50.176H201.416C201.512 51.856 202.424 53.136 204.088 53.136C205.288 53.136 206.088 52.56 206.376 51.44H207.64C207.256 53.216 205.96 54.224 204.088 54.224ZM204.008 46.544C202.472 46.544 201.64 47.696 201.448 49.2H206.424C206.344 47.552 205.496 46.544 204.008 46.544ZM215.166 54.224C212.702 54.224 211.166 52.272 211.166 49.872C211.166 47.472 212.702 45.52 215.166 45.52C217.118 45.52 218.414 46.64 218.702 48.4H217.39C217.198 47.28 216.414 46.592 215.166 46.592C213.406 46.592 212.494 48.048 212.494 49.872C212.494 51.696 213.406 53.136 215.166 53.136C216.51 53.136 217.31 52.368 217.422 51.088H218.702C218.526 53.072 217.23 54.224 215.166 54.224ZM226.487 54H225.191V52.864H225.159C224.567 53.664 223.863 54.192 222.663 54.192C220.967 54.192 219.879 53.168 219.879 51.456V45.728H221.175V51.424C221.175 52.496 221.863 53.12 223.031 53.12C224.343 53.12 225.191 52.128 225.191 50.816V45.728H226.487V54ZM234.735 54.08C233.887 54.08 233.439 53.696 233.311 52.848H233.295C232.799 53.488 231.951 54.16 230.543 54.16C228.975 54.16 227.743 53.424 227.743 51.856C227.743 49.904 229.279 49.504 231.343 49.184C232.511 49.008 233.327 48.896 233.327 48C233.327 47.072 232.655 46.544 231.471 46.544C230.127 46.544 229.455 47.12 229.407 48.368H228.159C228.207 46.768 229.263 45.568 231.455 45.568C233.215 45.568 234.511 46.224 234.511 48.192V52.128C234.511 52.8 234.671 53.168 235.391 53.008H235.439V53.952C235.279 54.016 235.071 54.08 234.735 54.08ZM230.831 53.168C232.559 53.168 233.343 51.904 233.343 50.944V49.536C232.911 49.808 232.159 50.016 231.455 50.144C230.159 50.384 229.119 50.608 229.119 51.824C229.119 52.928 229.983 53.168 230.831 53.168ZM239.596 54.24C237.34 54.24 235.932 52.544 235.932 49.888C235.932 47.136 237.516 45.536 239.564 45.536C240.732 45.536 241.628 46.112 242.156 46.896H242.188V42.56H243.484V54H242.188V52.992H242.156C241.532 53.792 240.764 54.24 239.596 54.24ZM239.644 53.152C241.484 53.152 242.268 51.776 242.268 49.904C242.268 47.984 241.34 46.64 239.628 46.64C238.06 46.64 237.26 48.048 237.26 49.904C237.26 51.776 238.06 53.152 239.644 53.152ZM246.535 45.728V47.104H246.567C247.063 46.304 247.927 45.632 249.031 45.632C249.271 45.632 249.399 45.664 249.559 45.728V46.976H249.511C249.319 46.912 249.191 46.896 248.935 46.896C247.655 46.896 246.535 47.856 246.535 49.408V54H245.239V45.728H246.535ZM256.907 54.08C256.059 54.08 255.611 53.696 255.483 52.848H255.467C254.971 53.488 254.123 54.16 252.715 54.16C251.147 54.16 249.915 53.424 249.915 51.856C249.915 49.904 251.451 49.504 253.515 49.184C254.683 49.008 255.499 48.896 255.499 48C255.499 47.072 254.827 46.544 253.643 46.544C252.299 46.544 251.627 47.12 251.579 48.368H250.331C250.379 46.768 251.435 45.568 253.627 45.568C255.387 45.568 256.683 46.224 256.683 48.192V52.128C256.683 52.8 256.843 53.168 257.563 53.008H257.611V53.952C257.451 54.016 257.243 54.08 256.907 54.08ZM253.003 53.168C254.731 53.168 255.515 51.904 255.515 50.944V49.536C255.083 49.808 254.331 50.016 253.627 50.144C252.331 50.384 251.291 50.608 251.291 51.824C251.291 52.928 252.155 53.168 253.003 53.168ZM261.768 54.24C259.512 54.24 258.104 52.544 258.104 49.888C258.104 47.136 259.688 45.536 261.736 45.536C262.904 45.536 263.8 46.112 264.328 46.896H264.36V42.56H265.656V54H264.36V52.992H264.328C263.704 53.792 262.936 54.24 261.768 54.24ZM261.816 53.152C263.656 53.152 264.44 51.776 264.44 49.904C264.44 47.984 263.512 46.64 261.799 46.64C260.232 46.64 259.432 48.048 259.432 49.904C259.432 51.776 260.232 53.152 261.816 53.152ZM270.947 54.224C268.483 54.224 266.947 52.272 266.947 49.872C266.947 47.472 268.483 45.52 270.947 45.52C273.427 45.52 274.931 47.472 274.931 49.872C274.931 52.272 273.427 54.224 270.947 54.224ZM270.947 53.136C272.707 53.136 273.603 51.696 273.603 49.872C273.603 48.048 272.707 46.592 270.947 46.592C269.187 46.592 268.275 48.048 268.275 49.872C268.275 51.696 269.187 53.136 270.947 53.136ZM278.643 49.792V48.208H280.195V49.792H278.643ZM284.271 56.656V45.728H285.567V46.896H285.599C286.223 46.048 287.055 45.536 288.255 45.536C290.351 45.536 291.807 47.136 291.807 49.888C291.807 52.544 290.447 54.24 288.207 54.24C287.087 54.24 286.287 53.904 285.599 53.024H285.567V56.656H284.271ZM288.111 53.152C289.695 53.152 290.479 51.776 290.479 49.904C290.479 48.048 289.695 46.64 288.127 46.64C286.319 46.64 285.487 48.112 285.487 49.904C285.487 51.696 286.207 53.152 288.111 53.152ZM293.147 54V42.56H294.443V54H293.147ZM296.255 54V45.728H297.551V54H296.255ZM296.255 44.16V42.56H297.551V44.16H296.255ZM302.854 54.224C300.326 54.224 298.854 52.272 298.854 49.872C298.854 47.472 300.422 45.52 302.774 45.52C305.254 45.52 306.582 47.44 306.582 50.176H300.182C300.278 51.856 301.19 53.136 302.854 53.136C304.054 53.136 304.854 52.56 305.142 51.44H306.406C306.022 53.216 304.726 54.224 302.854 54.224ZM302.774 46.544C301.238 46.544 300.406 47.696 300.214 49.2H305.19C305.11 47.552 304.262 46.544 302.774 46.544ZM311.145 56.752C309.001 56.752 307.785 55.888 307.641 54.464H308.841C308.969 55.376 309.833 55.728 311.113 55.728C312.633 55.728 313.481 55.04 313.481 53.6V52.432H313.449C312.841 53.216 312.185 53.712 311.001 53.712C308.857 53.712 307.385 52 307.385 49.616C307.385 47.04 309.001 45.536 310.921 45.536C312.121 45.536 312.889 46 313.449 46.784H313.481V45.728H314.777V53.552C314.777 55.728 313.337 56.752 311.145 56.752ZM311.065 52.624C312.969 52.624 313.577 51.296 313.577 49.552C313.577 47.744 312.809 46.624 311.049 46.624C309.497 46.624 308.713 47.84 308.713 49.632C308.713 51.44 309.529 52.624 311.065 52.624ZM323.096 54H321.8V52.864H321.768C321.176 53.664 320.472 54.192 319.272 54.192C317.576 54.192 316.488 53.168 316.488 51.456V45.728H317.784V51.424C317.784 52.496 318.472 53.12 319.64 53.12C320.952 53.12 321.8 52.128 321.8 50.816V45.728H323.096V54ZM328.385 54.224C325.857 54.224 324.385 52.272 324.385 49.872C324.385 47.472 325.953 45.52 328.305 45.52C330.785 45.52 332.113 47.44 332.113 50.176H325.713C325.809 51.856 326.721 53.136 328.385 53.136C329.585 53.136 330.385 52.56 330.673 51.44H331.937C331.553 53.216 330.257 54.224 328.385 54.224ZM328.305 46.544C326.769 46.544 325.937 47.696 325.745 49.2H330.721C330.641 47.552 329.793 46.544 328.305 46.544ZM338.231 54L335.271 42.56H336.775L338.583 50C338.775 50.768 339.015 51.936 339.015 51.936H339.047C339.047 51.936 339.319 50.72 339.527 49.968L341.591 42.56H343.143L345.143 49.968C345.351 50.736 345.607 51.936 345.607 51.936H345.639C345.639 51.936 345.911 50.704 346.087 50L347.991 42.56H349.447L346.263 54H344.887L342.791 45.936C342.615 45.264 342.375 44.192 342.375 44.192H342.343C342.343 44.192 342.103 45.264 341.911 45.936L339.671 54H338.231ZM356.173 54.08C355.325 54.08 354.877 53.696 354.749 52.848H354.733C354.237 53.488 353.389 54.16 351.981 54.16C350.413 54.16 349.181 53.424 349.181 51.856C349.181 49.904 350.717 49.504 352.781 49.184C353.949 49.008 354.765 48.896 354.765 48C354.765 47.072 354.093 46.544 352.909 46.544C351.565 46.544 350.893 47.12 350.845 48.368H349.597C349.645 46.768 350.701 45.568 352.893 45.568C354.653 45.568 355.949 46.224 355.949 48.192V52.128C355.949 52.8 356.109 53.168 356.829 53.008H356.877V53.952C356.717 54.016 356.509 54.08 356.173 54.08ZM352.269 53.168C353.997 53.168 354.781 51.904 354.781 50.944V49.536C354.349 49.808 353.597 50.016 352.893 50.144C351.597 50.384 350.557 50.608 350.557 51.824C350.557 52.928 351.421 53.168 352.269 53.168ZM357.149 46.784V45.728H358.349V43.12H359.645V45.728H361.245V46.784H359.645V52.16C359.645 52.736 359.949 52.928 360.477 52.928C360.733 52.928 361.021 52.864 361.165 52.816H361.213V53.936C360.909 54 360.557 54.048 360.173 54.048C359.117 54.048 358.349 53.616 358.349 52.448V46.784H357.149ZM361.821 46.784V45.728H363.021V43.12H364.317V45.728H365.917V46.784H364.317V52.16C364.317 52.736 364.621 52.928 365.149 52.928C365.405 52.928 365.693 52.864 365.837 52.816H365.885V53.936C365.581 54 365.229 54.048 364.845 54.048C363.789 54.048 363.021 53.616 363.021 52.448V46.784H361.821ZM370.713 54.224C368.185 54.224 366.713 52.272 366.713 49.872C366.713 47.472 368.281 45.52 370.633 45.52C373.113 45.52 374.441 47.44 374.441 50.176H368.041C368.137 51.856 369.049 53.136 370.713 53.136C371.913 53.136 372.713 52.56 373.001 51.44H374.265C373.881 53.216 372.585 54.224 370.713 54.224ZM370.633 46.544C369.097 46.544 368.265 47.696 368.073 49.2H373.049C372.969 47.552 372.121 46.544 370.633 46.544ZM382.204 54.08C381.356 54.08 380.908 53.696 380.78 52.848H380.764C380.268 53.488 379.42 54.16 378.012 54.16C376.444 54.16 375.212 53.424 375.212 51.856C375.212 49.904 376.748 49.504 378.812 49.184C379.98 49.008 380.796 48.896 380.796 48C380.796 47.072 380.124 46.544 378.94 46.544C377.596 46.544 376.924 47.12 376.876 48.368H375.628C375.676 46.768 376.732 45.568 378.924 45.568C380.684 45.568 381.98 46.224 381.98 48.192V52.128C381.98 52.8 382.14 53.168 382.86 53.008H382.908V53.952C382.748 54.016 382.54 54.08 382.204 54.08ZM378.3 53.168C380.028 53.168 380.812 51.904 380.812 50.944V49.536C380.38 49.808 379.628 50.016 378.924 50.144C377.628 50.384 376.588 50.608 376.588 51.824C376.588 52.928 377.452 53.168 378.3 53.168ZM390.424 54H389.128V52.864H389.096C388.504 53.664 387.8 54.192 386.6 54.192C384.904 54.192 383.816 53.168 383.816 51.456V45.728H385.112V51.424C385.112 52.496 385.8 53.12 386.968 53.12C388.28 53.12 389.128 52.128 389.128 50.816V45.728H390.424V54ZM394.596 49.792V48.208H396.148V49.792H394.596ZM403.36 54.24C401.088 54.24 399.824 53.168 399.696 51.312H401.024C401.2 52.752 402.16 53.152 403.392 53.152C404.752 53.152 405.312 52.56 405.312 51.792C405.312 50.864 404.672 50.624 403.152 50.304C401.52 49.968 400.064 49.632 400.064 47.824C400.064 46.448 401.12 45.552 403.04 45.552C405.088 45.552 406.096 46.528 406.288 48.144H404.96C404.832 47.056 404.24 46.576 403.008 46.576C401.824 46.576 401.344 47.104 401.344 47.76C401.344 48.656 402.144 48.832 403.568 49.12C405.232 49.456 406.624 49.824 406.624 51.728C406.624 53.392 405.264 54.24 403.36 54.24ZM411.557 54.224C409.029 54.224 407.557 52.272 407.557 49.872C407.557 47.472 409.125 45.52 411.477 45.52C413.957 45.52 415.285 47.44 415.285 50.176H408.885C408.981 51.856 409.893 53.136 411.557 53.136C412.757 53.136 413.557 52.56 413.845 51.44H415.109C414.725 53.216 413.429 54.224 411.557 54.224ZM411.477 46.544C409.941 46.544 409.109 47.696 408.917 49.2H413.893C413.813 47.552 412.965 46.544 411.477 46.544ZM419.752 54.24C417.496 54.24 416.088 52.544 416.088 49.888C416.088 47.136 417.672 45.536 419.72 45.536C420.888 45.536 421.784 46.112 422.312 46.896H422.344V42.56H423.64V54H422.344V52.992H422.312C421.688 53.792 420.92 54.24 419.752 54.24ZM419.8 53.152C421.64 53.152 422.424 51.776 422.424 49.904C422.424 47.984 421.496 46.64 419.784 46.64C418.216 46.64 417.416 48.048 417.416 49.904C417.416 51.776 418.216 53.152 419.8 53.152ZM431.892 54.08C431.044 54.08 430.596 53.696 430.468 52.848H430.452C429.956 53.488 429.108 54.16 427.7 54.16C426.132 54.16 424.9 53.424 424.9 51.856C424.9 49.904 426.436 49.504 428.5 49.184C429.668 49.008 430.484 48.896 430.484 48C430.484 47.072 429.812 46.544 428.628 46.544C427.284 46.544 426.612 47.12 426.564 48.368H425.316C425.364 46.768 426.42 45.568 428.612 45.568C430.372 45.568 431.668 46.224 431.668 48.192V52.128C431.668 52.8 431.828 53.168 432.548 53.008H432.596V53.952C432.436 54.016 432.228 54.08 431.892 54.08ZM427.988 53.168C429.716 53.168 430.5 51.904 430.5 50.944V49.536C430.068 49.808 429.316 50.016 428.612 50.144C427.316 50.384 426.276 50.608 426.276 51.824C426.276 52.928 427.14 53.168 427.988 53.168ZM436.147 54V42.56H437.443V54H436.147ZM445.751 54.08C444.903 54.08 444.455 53.696 444.327 52.848H444.311C443.815 53.488 442.967 54.16 441.559 54.16C439.991 54.16 438.759 53.424 438.759 51.856C438.759 49.904 440.295 49.504 442.359 49.184C443.527 49.008 444.343 48.896 444.343 48C444.343 47.072 443.671 46.544 442.487 46.544C441.143 46.544 440.471 47.12 440.423 48.368H439.175C439.223 46.768 440.279 45.568 442.471 45.568C444.231 45.568 445.527 46.224 445.527 48.192V52.128C445.527 52.8 445.687 53.168 446.407 53.008H446.455V53.952C446.295 54.016 446.087 54.08 445.751 54.08ZM441.847 53.168C443.575 53.168 444.359 51.904 444.359 50.944V49.536C443.927 49.808 443.175 50.016 442.471 50.144C441.175 50.384 440.135 50.608 440.135 51.824C440.135 52.928 440.999 53.168 441.847 53.168ZM451.347 54.24C450.227 54.24 449.411 53.84 448.739 52.912H448.707V54H447.411V42.56H448.707V46.912H448.739C449.363 46.064 450.195 45.536 451.395 45.536C453.491 45.536 454.915 47.136 454.915 49.888C454.915 52.544 453.587 54.24 451.347 54.24ZM451.251 53.152C452.835 53.152 453.587 51.776 453.587 49.904C453.587 48.048 452.835 46.64 451.267 46.64C449.459 46.64 448.627 48.112 448.627 49.904C448.627 51.76 449.491 53.152 451.251 53.152ZM457.504 45.728V47.104H457.536C458.032 46.304 458.896 45.632 460 45.632C460.24 45.632 460.368 45.664 460.528 45.728V46.976H460.48C460.288 46.912 460.16 46.896 459.904 46.896C458.624 46.896 457.504 47.856 457.504 49.408V54H456.208V45.728H457.504ZM467.876 54.08C467.028 54.08 466.58 53.696 466.452 52.848H466.436C465.94 53.488 465.092 54.16 463.684 54.16C462.116 54.16 460.884 53.424 460.884 51.856C460.884 49.904 462.42 49.504 464.484 49.184C465.652 49.008 466.468 48.896 466.468 48C466.468 47.072 465.796 46.544 464.612 46.544C463.268 46.544 462.596 47.12 462.548 48.368H461.3C461.348 46.768 462.404 45.568 464.596 45.568C466.356 45.568 467.652 46.224 467.652 48.192V52.128C467.652 52.8 467.812 53.168 468.532 53.008H468.58V53.952C468.42 54.016 468.212 54.08 467.876 54.08ZM463.972 53.168C465.7 53.168 466.484 51.904 466.484 50.944V49.536C466.052 49.808 465.3 50.016 464.596 50.144C463.3 50.384 462.26 50.608 462.26 51.824C462.26 52.928 463.124 53.168 463.972 53.168ZM472.736 54.24C470.48 54.24 469.072 52.544 469.072 49.888C469.072 47.136 470.656 45.536 472.704 45.536C473.872 45.536 474.768 46.112 475.296 46.896H475.328V42.56H476.624V54H475.328V52.992H475.296C474.672 53.792 473.904 54.24 472.736 54.24ZM472.784 53.152C474.624 53.152 475.408 51.776 475.408 49.904C475.408 47.984 474.48 46.64 472.768 46.64C471.2 46.64 470.4 48.048 470.4 49.904C470.4 51.776 471.2 53.152 472.784 53.152ZM484.876 54.08C484.028 54.08 483.58 53.696 483.452 52.848H483.436C482.94 53.488 482.092 54.16 480.684 54.16C479.116 54.16 477.884 53.424 477.884 51.856C477.884 49.904 479.42 49.504 481.484 49.184C482.652 49.008 483.468 48.896 483.468 48C483.468 47.072 482.796 46.544 481.612 46.544C480.268 46.544 479.596 47.12 479.548 48.368H478.3C478.348 46.768 479.404 45.568 481.596 45.568C483.356 45.568 484.652 46.224 484.652 48.192V52.128C484.652 52.8 484.812 53.168 485.532 53.008H485.58V53.952C485.42 54.016 485.212 54.08 484.876 54.08ZM480.972 53.168C482.7 53.168 483.484 51.904 483.484 50.944V49.536C483.052 49.808 482.3 50.016 481.596 50.144C480.3 50.384 479.26 50.608 479.26 51.824C479.26 52.928 480.124 53.168 480.972 53.168Z" fill="#F3EEE1"/>
</svg>
