<svg width="554" height="75" viewBox="0 0 554 75" fill="none" xmlns="http://www.w3.org/2000/svg">
<rect x="4" y="4" width="550" height="67" rx="4" fill="#FD6500"/>
<rect x="1" y="1" width="549" height="73" rx="3" stroke="#FD6500" stroke-width="2"/>
<path d="M31.152 35.21C28.338 35.21 26.336 33.04 26.336 30.03C26.336 27.062 28.184 24.794 31.138 24.794C33.602 24.794 35.058 26.264 35.268 28.168H33.252C33.07 27.16 32.314 26.502 31.138 26.502C29.29 26.502 28.408 28.042 28.408 30.03C28.408 32.074 29.472 33.544 31.152 33.544C32.342 33.544 33.182 32.83 33.308 31.78H35.296C35.24 32.662 34.862 33.516 34.19 34.146C33.504 34.79 32.538 35.21 31.152 35.21ZM41.5763 35.224C38.6223 35.224 36.7463 33.012 36.7463 30.016C36.7463 27.02 38.6223 24.794 41.5763 24.794C44.5303 24.794 46.3923 27.02 46.3923 30.016C46.3923 33.012 44.5303 35.224 41.5763 35.224ZM41.5903 33.558C43.4243 33.558 44.3203 32.004 44.3203 30.016C44.3203 28.014 43.4243 26.46 41.5903 26.46C39.7563 26.46 38.8183 28.014 38.8183 30.016C38.8183 32.004 39.7563 33.558 41.5903 33.558ZM43.6203 22.708L42.2903 24.458H40.8063L41.3943 22.708H43.6203ZM48.3426 35V24.99H51.1986L52.6126 30.016C52.9626 31.276 53.2426 32.718 53.2426 32.718H53.2706C53.2706 32.718 53.5366 31.276 53.8866 30.016L55.3006 24.99H58.1986V35H56.3086V29.26C56.3086 28.448 56.3926 27.188 56.3926 27.188H56.3646C56.3646 27.188 56.1406 28.364 55.9306 29.092L54.2086 35H52.2626L50.5826 29.092C50.3726 28.364 50.1486 27.188 50.1486 27.188H50.1206C50.1206 27.188 50.2046 28.448 50.2046 29.26V35H48.3426ZM64.9809 35.224C62.0269 35.224 60.1509 33.012 60.1509 30.016C60.1509 27.02 62.0269 24.794 64.9809 24.794C67.9349 24.794 69.7969 27.02 69.7969 30.016C69.7969 33.012 67.9349 35.224 64.9809 35.224ZM64.9949 33.558C66.8289 33.558 67.7249 32.004 67.7249 30.016C67.7249 28.014 66.8289 26.46 64.9949 26.46C63.1609 26.46 62.2229 28.014 62.2229 30.016C62.2229 32.004 63.1609 33.558 64.9949 33.558ZM74.9388 35V24.99H79.5308C81.4628 24.99 82.7508 26.11 82.7508 27.776C82.7508 28.952 82.2048 29.848 80.9168 30.198V30.24C81.8408 30.506 82.3168 31.038 82.4428 32.256C82.5828 33.67 82.5268 34.748 82.8768 34.902V35H80.9308C80.6788 34.888 80.6508 33.768 80.5668 32.69C80.4828 31.598 79.8668 30.982 78.6068 30.982H76.9688V35H74.9388ZM76.9688 26.628V29.414H79.1248C80.2308 29.414 80.7768 28.84 80.7768 28.042C80.7768 27.23 80.2588 26.628 79.1808 26.628H76.9688ZM84.8979 35V24.99H92.2619V26.698H86.9279V28.938H91.6039V30.604H86.9279V33.306H92.3039V35H84.8979ZM98.5828 35.21C95.7688 35.21 93.7668 33.04 93.7668 30.03C93.7668 27.062 95.6148 24.794 98.5688 24.794C101.033 24.794 102.489 26.264 102.699 28.168H100.683C100.501 27.16 99.7448 26.502 98.5688 26.502C96.7208 26.502 95.8388 28.042 95.8388 30.03C95.8388 32.074 96.9028 33.544 98.5828 33.544C99.7728 33.544 100.613 32.83 100.739 31.78H102.727C102.671 32.662 102.293 33.516 101.621 34.146C100.935 34.79 99.9688 35.21 98.5828 35.21ZM109.007 35.224C106.053 35.224 104.177 33.012 104.177 30.016C104.177 27.02 106.053 24.794 109.007 24.794C111.961 24.794 113.823 27.02 113.823 30.016C113.823 33.012 111.961 35.224 109.007 35.224ZM109.021 33.558C110.855 33.558 111.751 32.004 111.751 30.016C111.751 28.014 110.855 26.46 109.021 26.46C107.187 26.46 106.249 28.014 106.249 30.016C106.249 32.004 107.187 33.558 109.021 33.558ZM115.773 35V24.99H117.831L121.163 30.576C121.485 31.122 121.863 31.976 121.863 31.976H121.891C121.891 31.976 121.835 30.94 121.835 30.24V24.99H123.837V35H121.877L118.461 29.47C118.139 28.938 117.747 28.084 117.747 28.084H117.719C117.719 28.084 117.775 29.134 117.775 29.834V35H115.773ZM130.607 35.224C127.653 35.224 125.777 33.012 125.777 30.016C125.777 27.02 127.653 24.794 130.607 24.794C133.561 24.794 135.423 27.02 135.423 30.016C135.423 33.012 133.561 35.224 130.607 35.224ZM130.621 33.558C132.455 33.558 133.351 32.004 133.351 30.016C133.351 28.014 132.455 26.46 130.621 26.46C128.787 26.46 127.849 28.014 127.849 30.016C127.849 32.004 128.787 33.558 130.621 33.558ZM141.755 35.21C138.941 35.21 136.939 33.04 136.939 30.03C136.939 27.062 138.787 24.794 141.741 24.794C144.205 24.794 145.661 26.264 145.871 28.168H143.855C143.673 27.16 142.917 26.502 141.741 26.502C139.893 26.502 139.011 28.042 139.011 30.03C139.011 32.074 140.075 33.544 141.755 33.544C142.945 33.544 143.785 32.83 143.911 31.78H145.899C145.843 32.662 145.465 33.516 144.793 34.146C144.107 34.79 143.141 35.21 141.755 35.21ZM147.784 35V24.99H155.148V26.698H149.814V28.938H154.49V30.604H149.814V33.306H155.19V35H147.784ZM157.292 35V24.99H161.884C163.816 24.99 165.104 26.11 165.104 27.776C165.104 28.952 164.558 29.848 163.27 30.198V30.24C164.194 30.506 164.67 31.038 164.796 32.256C164.936 33.67 164.88 34.748 165.23 34.902V35H163.284C163.032 34.888 163.004 33.768 162.92 32.69C162.836 31.598 162.22 30.982 160.96 30.982H159.322V35H157.292ZM159.322 26.628V29.414H161.478C162.584 29.414 163.13 28.84 163.13 28.042C163.13 27.23 162.612 26.628 161.534 26.628H159.322ZM167.251 35V24.99H169.281V33.306H173.985V35H167.251ZM175.251 35L178.737 24.99H180.837L184.365 35H182.251L181.579 32.872H177.967L177.309 35H175.251ZM179.339 28.434L178.443 31.318H181.089L180.193 28.434C180.025 27.902 179.787 26.894 179.787 26.894H179.759C179.759 26.894 179.507 27.902 179.339 28.434Z" fill="#B9D6FE"/>
<path d="M27.072 54V42.56H28.912L32.624 52.064H32.656L36.336 42.56H38.208V54H36.832V44.592H36.8C36.8 44.592 36.496 45.488 36.288 46.032L33.152 54H32.048L28.912 46.032C28.688 45.456 28.4 44.592 28.4 44.592H28.368V54H27.072ZM40.1613 54V45.728H41.4573V54H40.1613ZM40.1613 44.16V42.56H41.4573V44.16H40.1613ZM44.5198 45.728V47.104H44.5518C45.0478 46.304 45.9118 45.632 47.0158 45.632C47.2558 45.632 47.3838 45.664 47.5438 45.728V46.976H47.4958C47.3038 46.912 47.1758 46.896 46.9198 46.896C45.6398 46.896 44.5198 47.856 44.5198 49.408V54H43.2238V45.728H44.5198ZM54.8916 54.08C54.0436 54.08 53.5956 53.696 53.4676 52.848H53.4516C52.9556 53.488 52.1076 54.16 50.6996 54.16C49.1316 54.16 47.8996 53.424 47.8996 51.856C47.8996 49.904 49.4356 49.504 51.4996 49.184C52.6676 49.008 53.4836 48.896 53.4836 48C53.4836 47.072 52.8116 46.544 51.6276 46.544C50.2836 46.544 49.6116 47.12 49.5636 48.368H48.3156C48.3636 46.768 49.4196 45.568 51.6116 45.568C53.3716 45.568 54.6676 46.224 54.6676 48.192V52.128C54.6676 52.8 54.8276 53.168 55.5476 53.008H55.5956V53.952C55.4356 54.016 55.2276 54.08 54.8916 54.08ZM50.9876 53.168C52.7156 53.168 53.4996 51.904 53.4996 50.944V49.536C53.0676 49.808 52.3156 50.016 51.6116 50.144C50.3156 50.384 49.2756 50.608 49.2756 51.824C49.2756 52.928 50.1396 53.168 50.9876 53.168ZM51.0996 44.432L51.9156 42.4H53.5156L52.2036 44.432H51.0996ZM59.1468 54V42.56H60.4428V54H59.1468ZM68.751 54.08C67.903 54.08 67.455 53.696 67.327 52.848H67.311C66.815 53.488 65.967 54.16 64.559 54.16C62.991 54.16 61.759 53.424 61.759 51.856C61.759 49.904 63.295 49.504 65.359 49.184C66.527 49.008 67.343 48.896 67.343 48C67.343 47.072 66.671 46.544 65.487 46.544C64.143 46.544 63.471 47.12 63.423 48.368H62.175C62.223 46.768 63.279 45.568 65.471 45.568C67.231 45.568 68.527 46.224 68.527 48.192V52.128C68.527 52.8 68.687 53.168 69.407 53.008H69.455V53.952C69.295 54.016 69.087 54.08 68.751 54.08ZM64.847 53.168C66.575 53.168 67.359 51.904 67.359 50.944V49.536C66.927 49.808 66.175 50.016 65.471 50.144C64.175 50.384 63.135 50.608 63.135 51.824C63.135 52.928 63.999 53.168 64.847 53.168ZM76.0941 54.24C73.8221 54.24 72.5581 53.168 72.4301 51.312H73.7581C73.9341 52.752 74.8941 53.152 76.1261 53.152C77.4861 53.152 78.0461 52.56 78.0461 51.792C78.0461 50.864 77.4061 50.624 75.8861 50.304C74.2541 49.968 72.7981 49.632 72.7981 47.824C72.7981 46.448 73.8541 45.552 75.7741 45.552C77.8221 45.552 78.8301 46.528 79.0221 48.144H77.6941C77.5661 47.056 76.9741 46.576 75.7421 46.576C74.5581 46.576 74.0781 47.104 74.0781 47.76C74.0781 48.656 74.8781 48.832 76.3021 49.12C77.9661 49.456 79.3581 49.824 79.3581 51.728C79.3581 53.392 77.9981 54.24 76.0941 54.24ZM80.5988 54V45.728H81.8948V54H80.5988ZM80.5988 44.16V42.56H81.8948V44.16H80.5988ZM83.7093 54V42.56H85.0053V54H83.7093ZM93.3775 54H92.0815V52.864H92.0495C91.4575 53.664 90.7535 54.192 89.5535 54.192C87.8575 54.192 86.7695 53.168 86.7695 51.456V45.728H88.0655V51.424C88.0655 52.496 88.7535 53.12 89.9215 53.12C91.2335 53.12 92.0815 52.128 92.0815 50.816V45.728H93.3775V54ZM98.666 54.224C96.138 54.224 94.666 52.272 94.666 49.872C94.666 47.472 96.234 45.52 98.586 45.52C101.066 45.52 102.394 47.44 102.394 50.176H95.994C96.09 51.856 97.002 53.136 98.666 53.136C99.866 53.136 100.666 52.56 100.954 51.44H102.218C101.834 53.216 100.538 54.224 98.666 54.224ZM98.586 46.544C97.05 46.544 96.218 47.696 96.026 49.2H101.002C100.922 47.552 100.074 46.544 98.586 46.544ZM102.977 46.784V45.728H104.177V43.12H105.473V45.728H107.073V46.784H105.473V52.16C105.473 52.736 105.777 52.928 106.305 52.928C106.561 52.928 106.849 52.864 106.993 52.816H107.041V53.936C106.737 54 106.385 54.048 106.001 54.048C104.945 54.048 104.177 53.616 104.177 52.448V46.784H102.977ZM114.907 54.08C114.059 54.08 113.611 53.696 113.483 52.848H113.467C112.971 53.488 112.123 54.16 110.715 54.16C109.147 54.16 107.915 53.424 107.915 51.856C107.915 49.904 109.451 49.504 111.515 49.184C112.683 49.008 113.499 48.896 113.499 48C113.499 47.072 112.827 46.544 111.643 46.544C110.299 46.544 109.627 47.12 109.579 48.368H108.331C108.379 46.768 109.435 45.568 111.627 45.568C113.387 45.568 114.683 46.224 114.683 48.192V52.128C114.683 52.8 114.843 53.168 115.563 53.008H115.611V53.952C115.451 54.016 115.243 54.08 114.907 54.08ZM111.003 53.168C112.731 53.168 113.515 51.904 113.515 50.944V49.536C113.083 49.808 112.331 50.016 111.627 50.144C110.331 50.384 109.291 50.608 109.291 51.824C109.291 52.928 110.155 53.168 111.003 53.168ZM116.642 56.048V55.328C116.994 55.2 117.362 54.896 117.362 54H116.626V52.416H118.178V54.048C118.178 55.216 117.554 55.872 116.642 56.048ZM125.838 54.224C123.31 54.224 121.838 52.272 121.838 49.872C121.838 47.472 123.406 45.52 125.758 45.52C128.238 45.52 129.566 47.44 129.566 50.176H123.166C123.262 51.856 124.174 53.136 125.838 53.136C127.038 53.136 127.838 52.56 128.126 51.44H129.39C129.006 53.216 127.71 54.224 125.838 54.224ZM125.758 46.544C124.222 46.544 123.39 47.696 123.198 49.2H128.174C128.094 47.552 127.246 46.544 125.758 46.544ZM133.969 54.24C131.697 54.24 130.433 53.168 130.305 51.312H131.633C131.809 52.752 132.769 53.152 134.001 53.152C135.361 53.152 135.921 52.56 135.921 51.792C135.921 50.864 135.281 50.624 133.761 50.304C132.129 49.968 130.673 49.632 130.673 47.824C130.673 46.448 131.729 45.552 133.649 45.552C135.697 45.552 136.705 46.528 136.897 48.144H135.569C135.441 47.056 134.849 46.576 133.617 46.576C132.433 46.576 131.953 47.104 131.953 47.76C131.953 48.656 132.753 48.832 134.177 49.12C135.841 49.456 137.233 49.824 137.233 51.728C137.233 53.392 135.873 54.24 133.969 54.24ZM145.048 54.08C144.2 54.08 143.752 53.696 143.624 52.848H143.608C143.112 53.488 142.264 54.16 140.856 54.16C139.288 54.16 138.056 53.424 138.056 51.856C138.056 49.904 139.592 49.504 141.656 49.184C142.824 49.008 143.64 48.896 143.64 48C143.64 47.072 142.968 46.544 141.784 46.544C140.44 46.544 139.768 47.12 139.72 48.368H138.472C138.52 46.768 139.576 45.568 141.768 45.568C143.528 45.568 144.824 46.224 144.824 48.192V52.128C144.824 52.8 144.984 53.168 145.704 53.008H145.752V53.952C145.592 54.016 145.384 54.08 145.048 54.08ZM141.144 53.168C142.872 53.168 143.656 51.904 143.656 50.944V49.536C143.224 49.808 142.472 50.016 141.768 50.144C140.472 50.384 139.432 50.608 139.432 51.824C139.432 52.928 140.296 53.168 141.144 53.168ZM149.255 56.656V45.728H150.551V46.896H150.583C151.207 46.048 152.039 45.536 153.239 45.536C155.335 45.536 156.791 47.136 156.791 49.888C156.791 52.544 155.431 54.24 153.191 54.24C152.071 54.24 151.271 53.904 150.583 53.024H150.551V56.656H149.255ZM153.095 53.152C154.679 53.152 155.463 51.776 155.463 49.904C155.463 48.048 154.679 46.64 153.111 46.64C151.303 46.64 150.471 48.112 150.471 49.904C150.471 51.696 151.191 53.152 153.095 53.152ZM159.379 45.728V47.104H159.411C159.907 46.304 160.771 45.632 161.875 45.632C162.115 45.632 162.243 45.664 162.403 45.728V46.976H162.355C162.163 46.912 162.035 46.896 161.779 46.896C160.499 46.896 159.379 47.856 159.379 49.408V54H158.083V45.728H159.379ZM166.791 54.224C164.263 54.224 162.791 52.272 162.791 49.872C162.791 47.472 164.359 45.52 166.711 45.52C169.191 45.52 170.519 47.44 170.519 50.176H164.119C164.215 51.856 165.127 53.136 166.791 53.136C167.991 53.136 168.791 52.56 169.079 51.44H170.343C169.959 53.216 168.663 54.224 166.791 54.224ZM166.711 46.544C165.175 46.544 164.343 47.696 164.151 49.2H169.127C169.047 47.552 168.199 46.544 166.711 46.544ZM173.082 45.728V46.816H173.114C173.706 46.032 174.538 45.536 175.738 45.536C177.466 45.536 178.522 46.48 178.522 48.192V54H177.226V48.304C177.226 47.232 176.522 46.624 175.354 46.624C174.042 46.624 173.082 47.552 173.082 48.912V54H171.786V45.728H173.082ZM183.439 54.24C181.183 54.24 179.775 52.544 179.775 49.888C179.775 47.136 181.359 45.536 183.407 45.536C184.575 45.536 185.471 46.112 185.999 46.896H186.031V42.56H187.327V54H186.031V52.992H185.999C185.375 53.792 184.607 54.24 183.439 54.24ZM183.487 53.152C185.327 53.152 186.111 51.776 186.111 49.904C186.111 47.984 185.183 46.64 183.471 46.64C181.903 46.64 181.103 48.048 181.103 49.904C181.103 51.776 181.903 53.152 183.487 53.152ZM195.579 54.08C194.731 54.08 194.283 53.696 194.155 52.848H194.139C193.643 53.488 192.795 54.16 191.387 54.16C189.819 54.16 188.587 53.424 188.587 51.856C188.587 49.904 190.123 49.504 192.187 49.184C193.355 49.008 194.171 48.896 194.171 48C194.171 47.072 193.499 46.544 192.315 46.544C190.971 46.544 190.299 47.12 190.251 48.368H189.003C189.051 46.768 190.107 45.568 192.299 45.568C194.059 45.568 195.355 46.224 195.355 48.192V52.128C195.355 52.8 195.515 53.168 196.235 53.008H196.283V53.952C196.123 54.016 195.915 54.08 195.579 54.08ZM191.675 53.168C193.403 53.168 194.187 51.904 194.187 50.944V49.536C193.755 49.808 193.003 50.016 192.299 50.144C191.003 50.384 189.963 50.608 189.963 51.824C189.963 52.928 190.827 53.168 191.675 53.168ZM201.082 45.728V46.816H201.114C201.706 46.032 202.538 45.536 203.738 45.536C205.466 45.536 206.522 46.48 206.522 48.192V54H205.226V48.304C205.226 47.232 204.522 46.624 203.354 46.624C202.042 46.624 201.082 47.552 201.082 48.912V54H199.786V45.728H201.082ZM211.775 54.224C209.311 54.224 207.775 52.272 207.775 49.872C207.775 47.472 209.311 45.52 211.775 45.52C214.255 45.52 215.759 47.472 215.759 49.872C215.759 52.272 214.255 54.224 211.775 54.224ZM211.775 53.136C213.535 53.136 214.431 51.696 214.431 49.872C214.431 48.048 213.535 46.592 211.775 46.592C210.015 46.592 209.103 48.048 209.103 49.872C209.103 51.696 210.015 53.136 211.775 53.136ZM219.599 56.656V45.728H220.895V46.896H220.927C221.551 46.048 222.383 45.536 223.583 45.536C225.679 45.536 227.135 47.136 227.135 49.888C227.135 52.544 225.775 54.24 223.535 54.24C222.415 54.24 221.615 53.904 220.927 53.024H220.895V56.656H219.599ZM223.439 53.152C225.023 53.152 225.807 51.776 225.807 49.904C225.807 48.048 225.023 46.64 223.455 46.64C221.647 46.64 220.815 48.112 220.815 49.904C220.815 51.696 221.535 53.152 223.439 53.152ZM231.963 54.224C229.435 54.224 227.963 52.272 227.963 49.872C227.963 47.472 229.531 45.52 231.883 45.52C234.363 45.52 235.691 47.44 235.691 50.176H229.291C229.387 51.856 230.299 53.136 231.963 53.136C233.163 53.136 233.963 52.56 234.251 51.44H235.515C235.131 53.216 233.835 54.224 231.963 54.224ZM231.883 46.544C230.347 46.544 229.515 47.696 229.323 49.2H234.299C234.219 47.552 233.371 46.544 231.883 46.544ZM238.254 45.728V47.104H238.286C238.782 46.304 239.646 45.632 240.75 45.632C240.99 45.632 241.118 45.664 241.278 45.728V46.976H241.23C241.038 46.912 240.91 46.896 240.654 46.896C239.374 46.896 238.254 47.856 238.254 49.408V54H236.958V45.728H238.254ZM241.915 46.784V45.728H243.115V43.12H244.411V45.728H246.011V46.784H244.411V52.16C244.411 52.736 244.715 52.928 245.243 52.928C245.499 52.928 245.786 52.864 245.931 52.816H245.979V53.936C245.674 54 245.323 54.048 244.939 54.048C243.883 54.048 243.115 53.616 243.115 52.448V46.784H241.915ZM250.807 54.224C248.279 54.224 246.807 52.272 246.807 49.872C246.807 47.472 248.375 45.52 250.727 45.52C253.207 45.52 254.535 47.44 254.535 50.176H248.135C248.231 51.856 249.143 53.136 250.807 53.136C252.007 53.136 252.807 52.56 253.095 51.44H254.359C253.975 53.216 252.679 54.224 250.807 54.224ZM250.727 46.544C249.191 46.544 248.359 47.696 248.167 49.2H253.143C253.063 47.552 252.215 46.544 250.727 46.544ZM257.098 45.728V46.816H257.13C257.722 46.032 258.554 45.536 259.754 45.536C261.482 45.536 262.538 46.48 262.538 48.192V54H261.242V48.304C261.242 47.232 260.538 46.624 259.37 46.624C258.058 46.624 257.098 47.552 257.098 48.912V54H255.802V45.728H257.098ZM267.791 54.224C265.263 54.224 263.791 52.272 263.791 49.872C263.791 47.472 265.359 45.52 267.711 45.52C270.191 45.52 271.519 47.44 271.519 50.176H265.119C265.215 51.856 266.127 53.136 267.791 53.136C268.991 53.136 269.791 52.56 270.079 51.44H271.343C270.959 53.216 269.663 54.224 267.791 54.224ZM267.711 46.544C266.175 46.544 265.343 47.696 265.151 49.2H270.127C270.047 47.552 269.199 46.544 267.711 46.544ZM276.322 54.224C273.858 54.224 272.322 52.272 272.322 49.872C272.322 47.472 273.858 45.52 276.322 45.52C278.274 45.52 279.57 46.64 279.858 48.4H278.546C278.354 47.28 277.57 46.592 276.322 46.592C274.562 46.592 273.65 48.048 273.65 49.872C273.65 51.696 274.562 53.136 276.322 53.136C277.666 53.136 278.466 52.368 278.578 51.088H279.858C279.682 53.072 278.386 54.224 276.322 54.224ZM284.619 54.224C282.091 54.224 280.619 52.272 280.619 49.872C280.619 47.472 282.187 45.52 284.539 45.52C287.019 45.52 288.347 47.44 288.347 50.176H281.947C282.043 51.856 282.955 53.136 284.619 53.136C285.819 53.136 286.619 52.56 286.907 51.44H288.171C287.787 53.216 286.491 54.224 284.619 54.224ZM284.539 46.544C283.003 46.544 282.171 47.696 281.979 49.2H286.955C286.875 47.552 286.027 46.544 284.539 46.544ZM298.657 54.08C297.809 54.08 297.361 53.696 297.233 52.848H297.217C296.721 53.488 295.873 54.16 294.465 54.16C292.897 54.16 291.665 53.424 291.665 51.856C291.665 49.904 293.201 49.504 295.265 49.184C296.433 49.008 297.249 48.896 297.249 48C297.249 47.072 296.577 46.544 295.393 46.544C294.049 46.544 293.377 47.12 293.329 48.368H292.081C292.129 46.768 293.185 45.568 295.377 45.568C297.137 45.568 298.433 46.224 298.433 48.192V52.128C298.433 52.8 298.593 53.168 299.313 53.008H299.361V53.952C299.201 54.016 298.993 54.08 298.657 54.08ZM294.753 53.168C296.481 53.168 297.265 51.904 297.265 50.944V49.536C296.833 49.808 296.081 50.016 295.377 50.144C294.081 50.384 293.041 50.608 293.041 51.824C293.041 52.928 293.905 53.168 294.753 53.168ZM300.366 54V42.56H301.662V54H300.366ZM309.157 54.24C306.885 54.24 305.621 53.168 305.493 51.312H306.821C306.997 52.752 307.957 53.152 309.189 53.152C310.549 53.152 311.109 52.56 311.109 51.792C311.109 50.864 310.469 50.624 308.949 50.304C307.317 49.968 305.861 49.632 305.861 47.824C305.861 46.448 306.917 45.552 308.837 45.552C310.885 45.552 311.893 46.528 312.085 48.144H310.757C310.629 47.056 310.037 46.576 308.805 46.576C307.621 46.576 307.141 47.104 307.141 47.76C307.141 48.656 307.941 48.832 309.365 49.12C311.029 49.456 312.421 49.824 312.421 51.728C312.421 53.392 311.061 54.24 309.157 54.24ZM313.661 54V45.728H314.957V54H313.661ZM313.661 44.16V42.56H314.957V44.16H313.661ZM320.02 56.752C317.876 56.752 316.66 55.888 316.516 54.464H317.716C317.844 55.376 318.708 55.728 319.988 55.728C321.508 55.728 322.356 55.04 322.356 53.6V52.432H322.324C321.716 53.216 321.06 53.712 319.876 53.712C317.732 53.712 316.26 52 316.26 49.616C316.26 47.04 317.876 45.536 319.796 45.536C320.996 45.536 321.764 46 322.324 46.784H322.356V45.728H323.652V53.552C323.652 55.728 322.212 56.752 320.02 56.752ZM319.94 52.624C321.844 52.624 322.452 51.296 322.452 49.552C322.452 47.744 321.684 46.624 319.924 46.624C318.372 46.624 317.588 47.84 317.588 49.632C317.588 51.44 318.404 52.624 319.94 52.624ZM325.459 54V42.56H326.755V54H325.459ZM332.104 54.224C329.64 54.224 328.104 52.272 328.104 49.872C328.104 47.472 329.64 45.52 332.104 45.52C334.584 45.52 336.088 47.472 336.088 49.872C336.088 52.272 334.584 54.224 332.104 54.224ZM332.104 53.136C333.864 53.136 334.76 51.696 334.76 49.872C334.76 48.048 333.864 46.592 332.104 46.592C330.344 46.592 329.432 48.048 329.432 49.872C329.432 51.696 330.344 53.136 332.104 53.136ZM339.271 54L343.239 48.144L339.559 42.56H341.223L344.055 47.136H344.087L346.983 42.56H348.567L344.823 48.16L348.679 54H346.951L344.007 49.184H343.975L340.903 54H339.271ZM353.05 54L349.066 42.56H350.618L353.434 51.072C353.61 51.6 353.882 52.608 353.882 52.608H353.914C353.914 52.608 354.186 51.584 354.362 51.072L357.146 42.56H358.65L354.634 54H353.05ZM359.917 54V42.56H361.357V54H359.917ZM363.557 54V42.56H364.997V54H363.557ZM367.198 54V42.56H368.638V54H367.198Z" fill="#F3EEE1"/>
</svg>
