<svg preserveAspectRatio="none" width="100%" height="100%" overflow="visible" style="display: block;" viewBox="0 0 975 2636" fill="none" xmlns="http://www.w3.org/2000/svg">
<path id="Vector" d="M626.932 0C628.342 2.398 629.963 4.60668 632.215 6.71019C633.92 8.28782 638.276 5.86879 641.139 6.66812C660.882 12.1162 679.13 18.1953 690.012 0H715.248L707.44 22.6127C702.43 17.0384 702.051 12.8104 699.841 8.68749L683.403 19.815C686.539 22.8441 691.043 24.611 696.263 25.4104C696.642 21.014 694.264 19.815 691.654 17.1646C699.252 16.3863 701.946 22.1499 705.756 26.1466C714.196 35.0234 710.765 42.9536 715.08 45.0782C716.343 45.7092 719.837 43.2902 721.458 44.7837L725.225 48.2334C728.34 51.0942 728.824 39.0832 731.96 36.9166C733.118 36.1172 735.475 36.4327 738.064 37.1269C743.41 25.0948 746.799 12.5369 746.778 0.0420701H793.041C795.883 3.597 795.925 9.19233 793.147 11.9269C789.863 15.1453 785.338 15.6291 779.592 14.1356C775.066 23.0755 782.559 32.5413 779.486 37.8631C778.35 39.8404 775.656 41.8177 770.457 42.3857L779.697 69.8785C781.823 76.189 781.36 81.8264 785.569 88.2421C770.099 90.1353 765.469 67.0388 753.471 74.8428C749.62 77.367 744.61 82.0578 749.809 88.3894C764.816 76.9673 772.162 90.1563 785.548 91.9864C788.327 83.1096 786.559 75.3687 784.77 67.0598C783.738 62.348 790.6 48.4858 795.062 47.2027C797.356 46.5506 799.924 47.6024 803.923 48.4438C802.176 41.4391 803.355 33.6351 810.343 31.3843C812.784 32.7516 815.478 35.9279 817.52 34.0348C824.676 27.3666 822.719 22.171 825.792 21.2034C827.286 20.7195 830.38 22.5286 831.622 25.4104C836.8 17.4381 839.452 2.14558 846.124 6.75226C853.449 11.8217 847.471 17.2067 845.998 21.3927C843.577 28.208 837.326 23.959 833.58 27.3666L811.142 47.7707C807.964 50.6735 804.996 54.2915 800.387 53.5343L792.389 79.0919C790.221 86.0335 791.315 91.1871 795.062 95.7937C799.208 100.905 805.165 100.464 811.879 101.515C819.162 102.651 824.992 105.196 829.875 96.3827C832.317 99.5169 836.947 105.028 841.199 104.46C852.565 102.946 858.647 92.6595 865.341 85.0448C869.571 80.2278 871.887 77.7246 869.635 71.5193C866.856 63.8204 874.097 62.2638 877.864 59.1717C881.632 56.0795 883.484 42.7222 891.145 45.1623C896.849 46.9713 893.04 57.2364 892.577 61.4435C891.251 73.5386 888.683 84.3296 878.559 92.1757C887.441 92.4281 892.493 92.5333 900.68 94.8261L890.703 84.561C895.081 78.3557 896.428 73.2652 897.397 66.3446C898.154 61.0228 904.3 52.9453 909.752 55.3854C915.687 58.0358 915.371 65.7977 918.108 71.961C918.844 64.3042 923.412 63.5049 929.347 60.2445C935.283 56.984 939.429 51.557 945.744 56.7316C956.815 65.7977 943.407 75.2635 947.68 77.7246C952.795 80.6695 961.593 79.9122 964.729 88.3683C967.633 96.1934 954.878 104.334 959.404 107.805L963.782 111.149L975 122.024C969.822 125.979 964.308 129.261 959.362 127.494C955.068 125.958 951.048 123.266 947.112 119.669C943.681 125.201 942.165 130.27 937.598 134.624C928.484 134.772 922.128 127.998 920.17 119.69C918.487 128.861 916.003 136.16 908.826 141.713C902.722 136.055 901.017 128.04 898.765 121.309C889.02 122.214 887.546 110.834 874.012 101.368C865.362 105.891 858.121 108.625 848.334 110.708C856.332 122.782 867.53 104.46 874.644 117.418L866.098 134.919C867.235 138.264 872.202 137.086 869.845 132.605C874.076 133.825 878.875 134.814 882.811 137.675C885.652 139.736 882.305 144.343 879.506 144.238C877.801 144.174 875.444 145.268 872.223 142.975C868.793 141.587 867.909 146.362 872.329 145.626C874.56 152.799 880.011 158.058 882.937 164.536C884.031 166.976 882.747 174.255 887.104 174.086L891.651 168.975C899.859 159.782 895.208 186.287 899.27 192.366C908.952 206.838 913.519 213.611 900.975 229.64C901.122 223.603 897.754 220.742 896.407 216.472L888.367 191.125C887.904 202.231 887.715 211.613 876.117 218.512C875.38 210.014 869.571 205.471 867.403 199.749C863.404 189.21 871.003 179.85 880.685 175.264C870.982 167.734 873.023 157.868 867.382 149.055C868.035 157.847 854.48 166.682 853.07 166.093C845.387 162.959 857.069 154.503 847.829 130.67C843.661 119.921 837.747 113.106 826.044 109.803L802.786 103.261C806.238 110.708 806.091 116.997 808.785 121.267C815.015 131.175 822.656 140.598 820.151 153.766C807.817 153.682 809.227 143.438 804.554 132.626C795.272 152.841 811.521 156.417 811.879 170.447C811.9 171.541 814.173 174.191 815.226 174.339C815.92 174.444 816.783 172.025 816.741 170.763C816.636 166.03 819.33 162.98 823.603 163.863C825.813 164.326 827.728 166.619 829.391 170.342C830.359 168.806 832.569 166.072 833.937 166.345C840.483 167.734 842.609 187.212 830.633 201.222L822.572 179.787C825.434 179.555 827.244 177.284 826.613 175.664C825.75 173.434 824.424 177.662 819.246 176.821L817.794 195.248C802.239 191.062 816.362 172.509 801.25 166.072C801.734 172.467 803.123 178.062 798.43 183.152C783.317 165.841 799.924 160.603 792.852 151.095C785.78 141.587 802.471 129.303 796.114 108.478C780.413 106.395 768.689 98.5073 755.345 101.599C758.607 109.235 770.794 103.934 769.847 112.58C768.963 120.741 759.365 122.487 757.028 134.519L746.399 138.39C744.505 143.691 743.179 148.487 738.401 151.978C733.981 148.466 727.246 145.1 722.468 148.192C719.605 150.422 719.121 156.143 717.964 159.046C721.184 159.383 723.583 161.129 723.857 162.959C724.867 169.332 715.164 173.098 717.564 176.043C721.458 180.839 722.699 185.046 721.479 190.346C721.879 190.599 722.299 190.998 722.741 191.398C723.31 186.791 728.782 184.457 731.834 181.049C731.413 178.42 728.361 172.929 731.119 171.73C741.516 167.25 752.061 166.24 760.101 174.044C759.175 176.505 757.071 178.083 756.186 178.672C752.672 173.75 748.567 175.958 745.81 176.653C735.097 179.303 742.379 198.403 726.025 202.063C723.204 202.694 721.289 200.885 720.426 199.854C718.911 198.087 718.89 195.248 721.142 192.997L720.51 191.419C718.932 191.419 715.564 193.081 715.312 195.458C714.364 204.629 700.894 228.925 690.454 226.337C687.676 225.37 685.887 219.017 684.834 216.64L675.636 233.721C674.079 236.603 681.93 239.169 684.54 237.738L692.117 233.595C695.99 231.491 697.61 236.14 696.263 238.433C693.717 242.808 688.223 243.649 685.95 247.309C684.729 249.308 686.223 253.389 688.307 253.304L700.283 252.736C702.072 252.652 704.577 249.434 707.04 250.948L713.038 254.63C712.912 248.277 713.459 243.733 716.743 238.916L731.392 252.631C732.381 248.74 730.866 246.805 729.35 243.67C734.191 238.811 739.012 239.337 745.221 241.314C743.263 234.941 741.432 229.072 743.558 225.601C745.305 222.782 748.82 218.134 753.598 216.766C757.891 215.546 761.512 222.067 761.049 225.664C760.585 229.261 757.05 231.512 752.966 234.583C759.891 238.811 771.215 248.508 768.857 257.785C767.3 263.927 754.482 260.288 751.745 256.186C748.757 251.706 743.558 250.549 739.706 254.188C744.968 258.816 743.179 271.731 736.633 271.163L714.912 258.689C719.374 266.767 711.818 281.786 711.986 281.681C710.597 282.69 698.747 281.05 695.674 274.886C693.906 271.373 695.927 268.05 696.116 262.56C692.832 267.482 689.36 268.807 683.971 269.796C685.76 273.014 685.95 275.665 684.855 277.495C683.761 279.325 680.856 280.461 679.13 279.241L673.616 275.412C671.174 279.135 671.385 283.742 666.712 286.897L658.419 271.521C655.809 266.683 648.421 265.421 647.285 257.806L658.798 253.389C659.892 243.628 653.831 249.56 637.919 259.131C624.722 267.061 616.765 279.872 607.252 291.483C604.01 295.417 601.969 299.645 603.4 304.399L599.927 308.164C599.59 308.521 602.095 310.94 603.105 311.214C606.305 312.055 606.536 303.894 616.597 297.499C620.28 295.143 637.014 300.654 638.971 302.8C642.191 306.313 642.823 311.046 641.392 315.148C639.203 321.416 633.898 323.435 628.468 328.084C633.814 332.48 633.456 346.763 626.721 348.152C618.07 349.939 608.22 340.558 603.716 334.815L606.178 325.875C599.148 327.285 601.821 333.154 600.264 336.814C598.433 341.126 591.698 343.124 589.445 347.626L579.511 342.682C567.913 349.982 551.159 371.122 551.18 371.248C551.243 373.373 550.802 374.992 552.464 376.423C555.537 371.585 559.957 371.543 564.209 374.298L574.354 365.59C575.259 369.86 578.206 376.801 582.921 375.665C587.635 374.53 593.213 368.261 599.001 370.659C608.704 374.677 592.981 382.46 582.605 392.557C577.322 395.081 572.039 386.267 568.419 384.921C560.778 387.803 576.88 395.186 578.9 413.613C584.036 414.58 588.035 414.749 593.423 413.613C592.897 409.322 592.834 403.306 597.044 400.929C601.253 398.552 609.378 398.404 613.629 400.255C616.071 402.927 613.503 409.974 610.893 411.677C607.862 413.676 604.558 414.391 599.443 414.223C603.842 423.71 611.84 410.079 620.912 421.417C623.627 424.824 620.533 438.055 617.46 439.297C614.703 440.411 612.703 438.119 610.767 436.899C596.833 428.106 597.759 414.096 592.329 416.2C591.234 416.621 590.456 418.745 591.15 419.292L594.455 421.837C600.643 431.955 598.791 446.659 589.403 455.094C585.025 450.13 577.995 450.529 574.396 448.215L567.556 435.784C563.599 428.59 567.387 419.902 574.08 415.232C566.103 406.587 569.787 401.097 559.936 395.985C558.526 395.249 555.664 396.679 555.474 399.225C558.273 404.652 560.631 409.027 559.705 414.896C558.968 419.439 556.653 424.088 550.149 426.528L537.352 415.317C534.574 412.897 531.459 408.564 532.911 405.43C537.583 395.312 547.623 398.341 553.348 392.157L543.898 382.607C531.08 399.098 520.387 417.42 514.136 437.908C519.019 434.5 522.45 425.519 527.081 429.662C531.248 433.407 525.776 439.591 522.092 441.547C509.8 448.089 505.759 461.068 503.339 473.352L496.708 506.861L509.021 490.349C505.612 486.71 504.559 482.986 505.864 479.179C506.685 476.823 509.19 471.775 513.042 473.121C519.714 475.456 523.502 482.145 524.913 487.614C530.343 474.699 519.651 476.108 519.398 469.818C519.314 467.925 519.461 463.571 523.018 463.15C525.755 462.835 526.491 470.281 526.681 472.385C530.617 472.258 533.816 469.86 528.975 467.547C528.217 464.602 531.122 457.723 534.384 456.503C539.415 454.631 543.456 458.165 545.518 460.773C548.318 464.328 545.834 468.83 546.15 472.742C546.571 478.148 547.602 481.535 542.298 485.09C549.012 486.941 552.149 482.734 556.106 479.936C556.779 479.474 575.575 484.69 575.87 491.989C576.038 496.196 569.113 499.962 565.914 501.497C570.818 502.254 574.27 503.811 574.67 507.597C575.954 519.545 558.631 514.518 550.528 530.336C543.435 520.66 537.478 509.785 534.447 498.363C516.725 502.212 535.647 511.047 528.343 520.408C525.502 524.047 519.672 524.594 514.894 521.102C511.063 518.304 512.642 514.497 512.431 508.102C505.906 520.387 499.95 533.975 499.676 548.321C499.487 558.145 505.485 567.632 508.222 576.845C514.662 598.448 514.81 619.904 518.809 641.254C519.882 629.538 519.356 619.104 526.133 609.533C530.006 604.064 533.29 598.048 534.3 591.359C528.133 588.877 524.386 584.27 522.661 580.105C518.872 570.976 529.059 558.818 533.353 559.133C536.047 559.323 538.699 560.711 542.046 563.256C544.445 556.904 549.454 547.732 557.389 546.428C564.335 545.271 564.946 554.358 566.798 557.955C570.671 565.486 568.818 569.483 563.43 577.539C570.965 573.963 574.522 567.4 582.563 564.876C585.594 566.454 588.372 570.829 590.645 571.25C598.77 568.031 605.126 572.217 605.042 576.34C604.873 584.649 585.783 592.579 586.162 592.663C584.247 592.243 582.1 590.307 578.458 590.686L580.753 600.614C571.386 605.936 562.799 600.825 557.032 592.937C552.843 592.937 545.476 596.849 545.434 601.14L555.264 616.265C557.2 619.252 548.76 627.834 544.887 627.729C539.983 627.603 535.731 626.698 529.185 628.486C533.5 621.671 536.678 617.316 533.037 611.069C529.417 619.841 525.165 625.646 526.218 635.028C528.68 632.903 530.638 630.106 534.237 630.589C536.3 641.465 529.585 649.437 520.324 654.233L517.567 672.828C520.45 671.208 520.787 669.168 522.261 666.118C531.374 672.744 534.805 689.425 529.733 698.343C527.565 702.172 521.755 706.232 516.136 706.463L512.116 693.379C509.506 712.206 502.202 729.118 491.931 745.672C489.152 750.153 488.942 755.58 485.132 759.934C480.354 765.382 479.176 773.649 476.124 779.371C463.327 783.893 459.012 795.42 452.066 804.823C440.069 821.062 424.83 833.262 408.013 845.841L424.514 851.226C434.133 839.825 431.271 830.507 451.645 823.439C455.076 831.453 461.306 833.452 469.494 832.211C470.357 841.887 462.695 847.545 454.613 852.11L465.705 861.513C470.925 865.93 473.135 877.142 472.314 883.936C471.03 894.643 453.434 884.462 451.834 885.429L446.72 888.543C431.692 875.501 442.342 868.012 437.206 865.509C435.607 864.731 433.628 860.945 430.45 863.174C433.523 869.59 435.607 876.595 432.07 881.412L420.915 896.515L407.066 875.185C403.088 869.043 409.465 860.987 415.906 854.529C401.783 853.077 390.943 858.336 379.325 863.932C374.189 866.393 367.917 866.876 362.528 870.915C347.921 881.811 333.23 893.212 322.222 908.126C318.202 913.574 316.833 919.632 310.309 926.364C329.546 924.534 353.688 921.904 353.688 932.254C353.688 937.744 349.542 944.286 345.774 945.653C344.006 946.305 340.091 942.245 338.176 942.182C330.746 941.93 332.156 951.311 331.104 955.266C328.704 964.248 313.992 965.762 307.972 961.008C306.057 967.151 312.624 971.694 315.276 975.165L311.172 997.967C310.624 1001.06 308.057 1003.9 305.931 1004.28C300.143 1005.31 296.228 994.665 292.755 1001.33C302.437 1018.29 274.885 1017.32 272.023 1040.23C270.423 1053.08 278.505 1067.32 290.839 1076.28C287.787 1070.33 289.955 1065.43 289.934 1060.17L276.148 1049.15C273.685 1044.73 277.116 1041.87 279.81 1041.19C282.736 1040.48 285.556 1039.81 289.85 1042.33C290.566 1037.83 291.597 1030.55 296.985 1027.94C300.521 1026.24 304.099 1031.98 303.531 1036.08C307.194 1034.55 310.414 1032.3 312.771 1035.75C313.066 1033.43 313.866 1031.48 314.813 1031.03C315.76 1030.59 317.907 1031.81 319.843 1031.6L315.76 1025.52C317.57 1020.85 322.79 1018.6 327.884 1016.79C324.937 1012.23 327.463 1004.59 334.051 1003.44C339.923 1002.41 345.143 1012.44 342.828 1019.3C348.889 1016.63 353.099 1013.97 359.413 1013.26C361.602 1016.6 365.749 1021.82 365.37 1025.44C364.528 1033.31 356.782 1036.08 351.689 1040.35C349.584 1042.12 348.111 1045.11 345.353 1045.93C343.459 1046.5 339.67 1038.54 324.284 1048.96C324.432 1043.74 324.116 1040.79 320.517 1037.91C320.391 1043 315.865 1042.67 314.813 1044.1C312.834 1046.79 313.087 1050.7 308.898 1052.74C317.465 1052.74 320.854 1057.54 325.61 1062.04C329.862 1059.37 334.893 1056.34 338.471 1058.55C342.807 1061.22 345.332 1065.45 341.27 1070.54C340.112 1071.99 337.292 1073.57 337.145 1075.42C336.724 1080.38 344.09 1086.9 339.144 1094.18C337.439 1096.66 331.714 1098.14 328.199 1096.94C325.842 1096.14 324.516 1089.51 321.569 1089.83L312.898 1090.75C311.466 1090.9 310.056 1087.09 308.393 1085.7C303.615 1081.67 303.321 1077.31 301.174 1071.46L298.606 1064.4C298.606 1064.4 309.698 1058.97 306.667 1038.14C305.005 1043.26 298.964 1045.86 296.459 1050.58C291.534 1059.83 295.765 1071.97 297.112 1081.37C297.975 1087.43 302.521 1087.81 304.605 1090.98C311.593 1101.56 308.604 1114.27 309.698 1126.87C314.897 1117.32 313.024 1103.08 322.958 1103.12C327.105 1103.14 330.367 1105.39 333.146 1109.18L337.987 1115.83C339.039 1117.26 335.44 1120.81 335.671 1122.83C336.703 1131.48 333.482 1138.67 326.41 1143.78L312.519 1132.97C308.772 1135.07 307.867 1141.45 310.456 1144.9C312.477 1143.57 315.36 1143.45 315.76 1144.54C316.034 1145.3 315.023 1148.03 314.939 1149.04C314.371 1155.2 310.603 1159.29 303.615 1158.4C300.774 1166.33 296.417 1171.86 288.924 1175.46L292.376 1199.42C294.544 1194.86 299.932 1184.65 305.278 1188.06C315.55 1194.58 313.129 1214.23 301.237 1219.95C303.258 1221.82 305.762 1221.57 308.056 1225.88C304.857 1228.81 298.985 1233.12 299.406 1238.17C300.416 1250.26 305.152 1264.54 314.245 1272.71C321.064 1278.85 326.073 1284.3 332.493 1290.78L351.478 1309.88C347.921 1299.67 349.879 1292.25 351.731 1281.9C346.679 1284.78 348.532 1292.88 346.553 1295.7C341.88 1300.7 338.429 1291.66 336.492 1288.73C331.399 1281.04 326.915 1272.08 332.661 1262.88C335.271 1258.72 345.732 1256.09 348.595 1262.06C350.131 1265.26 347.163 1272.18 353.499 1273.72C352.825 1259.6 360.445 1246.41 364.233 1235.45C363.854 1234.28 363.391 1233.96 362.991 1233.75L353.983 1229.06C354.53 1234.53 351.773 1243.24 345.353 1241.74C340.618 1240.65 336.345 1234.34 332.472 1231.77C330.893 1209.66 361.56 1202.39 365.812 1190.88C366.548 1188.86 371.284 1189.26 372.61 1190.42C378.988 1195.97 369.432 1210.3 368.232 1213.51C366.107 1219.17 367.348 1227.12 364.002 1232.63L365.033 1233.69C369.369 1229.92 371.032 1224.01 374.378 1218.84C382.25 1206.72 392.648 1196.39 393.974 1180.95C387.975 1184.44 380.335 1184.7 376.525 1180.36C373.094 1176.49 374.441 1170.2 377.346 1164.69C370.59 1164.56 366.591 1163.11 362.802 1160.29C359.519 1157.85 358.129 1151.12 362.276 1147.44C365.496 1144.58 375.073 1142.56 379.303 1144.69C384.208 1147.13 387.365 1152.09 393.869 1148.6C381.703 1144.79 373.536 1133.24 377.662 1126.51C378.335 1125.4 380.482 1123.27 382.755 1124.58L393.848 1130.91C391.238 1115.28 389.322 1101.8 398.078 1102.17C407.823 1117.03 417.463 1120.96 411.023 1141.36C407.36 1143.53 403.509 1145.25 402.919 1150.01C400.899 1142.92 399.552 1137.77 396.436 1133.35C394.774 1137.58 393.848 1140.08 394.437 1141.66C394.879 1142.86 396.31 1144.22 398.183 1145.84L394.584 1151.14C398.878 1155.48 400.92 1159.14 405.129 1160.23L406.329 1159.18C403.551 1150.45 415.316 1145.21 419.442 1140.48C417.295 1135.83 413.948 1128.89 420.557 1121.55L429.545 1111.56C430.976 1109.96 433.46 1106.47 436.238 1107.69C442.7 1110.5 439.648 1118.52 448.719 1125.69C452.129 1136.1 443.836 1146.52 439.353 1154.57C437.859 1157.27 439.984 1161.73 434.891 1163.98C446.152 1164.38 448.888 1157.67 453.118 1149.95L461.222 1135.2C467.81 1123.21 472.714 1109.39 473.387 1117.17C473.745 1121.25 465.074 1127.56 471.493 1130.93L477.429 1124.75C478.839 1123.27 484.48 1123.15 486.963 1126.43C481.743 1131.98 475.513 1135.85 468.02 1133.56L454.971 1159.85C471.619 1161.24 483.617 1156.59 494.688 1147.8C505.759 1139.01 498.582 1136.71 503.128 1129.71C504.117 1128.2 509.211 1127.84 510.937 1129.37C511.147 1135.31 507.022 1141.05 504.707 1147.69C511.926 1142.81 516.22 1137.81 525.376 1135.31C518.851 1129.9 516.999 1125.44 519.082 1120.66C521.356 1115.45 528.175 1110.84 532.763 1115.57C537.352 1120.31 532.911 1128.03 530.743 1132.53C533.795 1130.78 538.888 1130.59 538.615 1132.42L529.88 1141.15C536.636 1141.07 541.919 1139.81 546.381 1142.1C546.487 1146.6 546.424 1153.79 542.172 1155.04C535.226 1157.03 529.964 1149.82 525.291 1146.37C522.155 1144.31 516.683 1148.66 515.525 1151.02C520.661 1152.49 522.113 1155.23 522.092 1159.14C522.092 1161.51 519.293 1165.87 515.883 1163.68C513.336 1162.04 509.8 1154.66 505.254 1156.26C498.834 1158.51 493.635 1162.44 485.785 1163.26C497.445 1165.78 507.169 1170.96 518.367 1176.05C520.345 1176.95 524.365 1175.29 525.228 1176.74C525.944 1177.94 527.628 1182.26 529.354 1182.65C533.079 1183.48 537.773 1179.04 540.888 1180.09C547.623 1182.36 557.516 1193 550.338 1196.03C547.707 1199.88 544.55 1194.81 548.739 1192.92C548.591 1187.58 543.308 1184.51 539.309 1183.98C535.31 1183.45 530.869 1186.1 527.438 1189.28C513.82 1180.21 500.687 1171.99 483.596 1168.58C491.047 1176.6 495.467 1185.14 496.793 1195.68C483.911 1198.07 485.111 1180.68 472.798 1168.77C453.497 1167.05 435.943 1174.14 419.947 1184.55C408.876 1191.74 396.668 1197.48 390.543 1211.28C400.688 1207.71 405.15 1199.31 414.285 1197.86C421.589 1196.71 426.83 1199.15 429.945 1204.03C435.522 1198.09 441.984 1195.23 448.825 1192.04C452.424 1190.35 456.781 1196.96 457.833 1199.97C460.696 1208.15 442.742 1213.22 452.487 1221.46C448.319 1225.86 439.5 1221.57 433.397 1218.16C434.407 1226.68 441.121 1228.83 446.72 1235.33C454.065 1226.53 467.452 1223.93 477.197 1231.9C480.165 1234.34 480.859 1239.39 478.881 1242.08C477.66 1243.72 474.04 1244.31 471.767 1244.98L478.628 1262.21C480.249 1266.29 479.933 1269.76 477.955 1272.85C476.608 1274.98 471.156 1277.63 469.052 1274.52C464.947 1268.46 460.78 1268.6 455.097 1266.48C440.321 1260.97 452.655 1235.33 436.343 1237.35C441.1 1243.93 445.436 1252.28 439.69 1256.76L419.673 1272.41L415.506 1255.39C414.601 1251.69 408.644 1247.61 410.56 1242.33C413.085 1235.35 420.873 1231.94 427.251 1230.99C424.641 1226.98 419.105 1227.08 417.337 1225.31C415.232 1219.95 417.884 1216 418.958 1210.42C412.18 1215.87 406.287 1216.92 397.405 1217.53C400.415 1219.34 403.172 1220.33 403.908 1222.58C404.919 1225.69 403.951 1228.87 401.551 1231.23L392.016 1240.63C389.385 1243.21 385.828 1242.77 383.85 1240.08C382.419 1238.12 384.902 1235.03 384.271 1229.69C373.852 1244.39 362.107 1260.63 360.192 1280.13L358.298 1299.29C363.77 1298.62 363.854 1294.29 365.686 1292.04C368.064 1289.09 373.347 1291.93 374.399 1294.01C375.999 1297.21 370.19 1306.34 370.337 1306.32L366.064 1306.66C362.276 1306.97 359.497 1309.81 355.646 1312.15L367.58 1336.84C368.38 1330.87 372.189 1321.23 378.356 1322.39C387.428 1324.09 387.007 1336.17 381.977 1341.93C380.356 1343.78 379.767 1347.23 377.451 1346.62L372.295 1345.3C375.01 1353.21 373.999 1359.62 379.303 1368.06C382.061 1356.24 384.06 1345.82 392.374 1345.24C394.437 1345.09 400.036 1346.96 399.699 1349.38C396.752 1370.04 414.327 1369.53 400.941 1376.45C400.941 1384.76 394.711 1393.34 385.323 1394.67L385.029 1416.71C384.902 1425.97 381.114 1434.32 384.102 1444.21C385.828 1436.91 388.733 1431.31 395.679 1426.62C392.164 1424.14 390.922 1421.15 391.301 1417.87C391.722 1414.34 393.784 1411.85 396.752 1409.2C400.878 1405.5 404.961 1406.19 408.476 1409.33C411.675 1412.19 409.507 1415.77 408.097 1420.96L433.944 1405.33C430.176 1403.54 427.356 1400.16 427.314 1396.69C427.293 1393.93 430.155 1387.7 433.207 1387.39C436.596 1389.66 438.974 1393.26 444.215 1390.54C443.352 1390.44 441.353 1389.11 441.416 1388.29C441.479 1387.47 443.184 1386.48 444.531 1383.69C437.774 1383.41 433.586 1380.85 430.029 1376.75C426.198 1372.33 426.114 1367.2 429.145 1361.41L439.564 1357.73C439.29 1352.11 440.721 1348.68 444.068 1346.16C446.383 1344.41 451.792 1341.13 455.139 1344.5C460.464 1349.88 460.38 1358.45 461.18 1366.35L470.357 1357.96C474.987 1359.88 477.555 1363.3 477.639 1367.2C477.744 1370.79 468.673 1380.24 464.253 1378.6C462.443 1377.92 461.474 1375.86 459.854 1372.31L445.941 1391.34C450.761 1388.88 454.76 1382.05 460.696 1383.33C467.473 1384.78 467.831 1393.68 464.779 1399.76C473.914 1394.65 478.86 1385.29 485.511 1378.15C489.131 1379.19 490.668 1383.71 490.794 1387.31C494.035 1383.81 497.382 1382.07 501.402 1383.25C504.686 1384.21 508.558 1388.55 506.496 1392.54C503.254 1398.75 495.846 1400.58 491.32 1404.93C479.512 1416.33 471.156 1402.43 466.421 1404.07C462.969 1405.27 462.674 1412.67 457.728 1412.51C452.529 1412.32 450.003 1403.73 445.478 1404.3C442.784 1404.66 440.637 1406.99 438.259 1408.61C434.112 1411.43 432.365 1414.63 435.375 1417.85C437.964 1420.58 440.237 1420.56 444.91 1419.05C447.141 1418.5 451.182 1422.75 454.381 1423.25C457.833 1420.1 461.474 1417.76 465.537 1418.92C468.673 1419.8 482.27 1431.27 475.766 1438.59C473.724 1440.88 469.452 1441.58 464.168 1440.27C468.736 1449.67 467.662 1456.32 460.822 1461.66L452.95 1452.18C425.651 1461.56 443.352 1419.01 426.198 1418.69C420.094 1418.58 417.295 1429.23 409.76 1434.84C405.066 1432.99 395.363 1433.12 392.501 1438.38L379.851 1461.52C374.147 1471.95 370.274 1483.16 368.401 1494.35C374.631 1490.17 378.967 1487.29 382.734 1489.43C388.207 1492.54 388.986 1498.1 385.281 1504.45L404.477 1500.96C408.329 1479.94 427.566 1470.16 432.597 1477.44C435.038 1481 435.48 1494.82 426.872 1500.03C430.723 1500.56 435.543 1500.45 437.922 1499.11C442.531 1494.92 446.194 1492.29 451.582 1492.02C455.939 1491.79 461.664 1492.96 462.927 1499.09C464.295 1505.67 456.675 1509.83 452.171 1512.09C445.225 1515.58 432.176 1503.76 414.664 1505.92C423.546 1508.72 436.848 1513.68 436.933 1523.19C437.017 1532.7 411.759 1540.08 411.78 1540.1L406.119 1536.11L405.382 1561.24C411.002 1553.08 412.454 1546.39 420.052 1546.62C425.146 1546.77 434.744 1553.95 430.723 1558.51L420.747 1569.85L427.061 1582.99C429.145 1587.35 424.914 1591.87 421.483 1592.82C417.484 1593.91 413.317 1592.57 409.612 1588.91L399.467 1603.84C390.648 1603.19 386.334 1598.16 383.492 1589.96C382.398 1586.78 377.557 1584.82 380.335 1580.91C382.482 1577.88 383.597 1574.79 388.607 1572.27L379.177 1565.54C381.029 1559.39 384.439 1554.87 390.185 1551.82C393.027 1550.31 395.321 1551.11 396.836 1553.19C397.741 1554.45 398.331 1556.3 396.878 1558.99C393.406 1561.5 396.963 1565.39 399.488 1561.75L400.625 1512.74C393.027 1509.43 385.197 1510.68 378.272 1514.57C386.818 1519.51 388.712 1524.96 385.976 1532.89C384.481 1537.2 382.924 1540.97 380.061 1543.03C376.062 1545.93 372.337 1543.34 367.58 1543.74L355.919 1544.75C352.72 1539.83 352.089 1532.64 355.351 1527.53L359.94 1524.66C360.887 1524.08 360.045 1520.1 359.392 1520.02C350.721 1523.91 350.952 1532.03 346.49 1537.66L294.481 1603.31C289.976 1608.99 284.041 1613.14 281.494 1620.21C287.493 1621.74 290.65 1614.88 294.165 1614.32C308.456 1612.07 300.858 1596.31 305.636 1594.58L314.602 1591.32C315.465 1590.17 312.203 1583.52 316.791 1583.5C322.706 1583.5 324.916 1593.79 321.548 1599.59L329.652 1609.5C334.703 1607.5 337.439 1605.61 341.144 1600.24L344.448 1608.11C345.227 1602.52 348.342 1599.51 352.594 1599.53C356.151 1599.53 359.624 1603.15 360.129 1606.91C360.992 1613.5 346.49 1616.92 354.172 1619.7C363.244 1622.98 365.707 1636.8 362.339 1640.63C361.097 1642.04 345.059 1646.54 344.027 1646.67C338.071 1647.36 329.483 1639.18 328.957 1632.93C328.431 1626.68 327.378 1620.23 319.57 1620.82C325.947 1625.55 327.863 1633.65 327.421 1640C327.063 1645.32 321.19 1656.41 314.034 1653.69C307.088 1650.64 303.468 1640.36 299.974 1633.29C297.827 1639.39 292.397 1642.94 284.82 1643.93L281.747 1662.04C280.294 1670.54 273.748 1674.83 267.56 1679.63C261.372 1684.43 254.111 1704.09 259.941 1706.32C264.635 1708.13 259.667 1695.72 265.435 1692.84C268.676 1691.24 271.833 1692.27 275.79 1693.7C276.59 1687.73 281.199 1679.67 287.724 1681.92C296.375 1684.93 296.038 1696.48 291.871 1703.93L282.441 1720.82C276.295 1724.03 269.202 1715.03 264.993 1713.62C257.121 1716.17 257.373 1727.11 258.131 1734.74L259.815 1751.91C262.846 1759.21 262.972 1765.03 264.445 1773.47C270.949 1767.3 265.456 1761.71 265.813 1756.77C272.233 1750.6 275.916 1745.15 282.378 1741.33C278.547 1738.55 277.727 1735.9 277.748 1732.91C277.748 1730.51 279.726 1729.31 283.536 1727.88L287.914 1742.52C287.64 1732.36 289.408 1725.28 299.511 1720.96C295.996 1718.27 294.27 1714.93 295.007 1712.28C296.817 1705.73 306.941 1708.87 314.518 1698.69C316.518 1705.86 323.127 1708.81 325.842 1712.99C327.652 1718.14 320.706 1723.99 318.054 1726.41C325.463 1730.89 330.304 1737.73 327.694 1745.36L316.223 1747.36C315.444 1751.72 312.287 1758.45 307.194 1758.76C300.395 1759.18 294.565 1753.19 291.997 1746.58C285.662 1751.91 281.957 1758.51 278.695 1766.46L266.592 1779.76L274.822 1799.32C277.095 1793.62 277.727 1789.6 281.536 1786.15L292.628 1805.69C294.039 1808.18 290.713 1811.96 288.208 1812.34L280.547 1813.48C290.355 1827.72 293.26 1841.71 297.869 1856.39C300.058 1849.26 300.164 1843.01 307.299 1840.15C296.649 1827.44 305.531 1818.92 316.855 1805.69C324.095 1810.19 325.253 1816.23 324.39 1825C332.493 1816.23 342.365 1811.37 353.751 1816.69C351.647 1831.08 346.111 1840.72 332.577 1839.45C336.387 1844.25 335.903 1856.75 329.883 1858.66C321.275 1861.39 311.698 1853.48 308.814 1845.68C311.698 1842.88 314.118 1842.53 316.034 1839.08C304.794 1838.47 303.51 1854.98 304.142 1871.11L304.773 1887.39C310.267 1920.8 305.72 1947.22 303.573 1980.7L316.707 1951.13C317.907 1948.42 320.054 1947.43 322.685 1948.71C323.99 1949.34 325.253 1950.08 327.463 1952.6C330.262 1945.89 336.324 1942.15 341.502 1935.94C336.829 1934.11 328.662 1932.26 328.704 1926.98C328.768 1920.44 332.388 1914.68 328.725 1907.76C327.231 1904.94 328.199 1899.24 330.367 1898.84L339.776 1897.11L342.996 1888.26C343.796 1886.03 349.879 1882.91 351.015 1886.11L354.741 1896.54C358.761 1900.31 361.287 1902.6 362.234 1907.5C363.055 1911.77 360.192 1914.61 358.508 1919.66L381.998 1900.92L394.458 1899.09C396.836 1892.9 402.246 1893.26 407.529 1888.57C399.888 1889.35 395.847 1889.83 391.322 1886.3C385.997 1882.16 386.565 1876.5 388.796 1871.05C390.669 1866.46 396.794 1865.03 401.93 1863.48C400.92 1858.41 397.699 1851.61 401.783 1846.44C404.919 1842.44 409.591 1839.14 416.179 1842.57C419.905 1844.5 422.304 1848.84 424.241 1853.91C425.251 1850.77 428.492 1844.84 431.818 1845.51C442.047 1847.59 446.951 1859.42 442.321 1869.11C451.266 1865.45 455.581 1865.43 463.853 1865.79C452.024 1857.69 440.637 1851 435.859 1838.15C451.435 1818.23 459.685 1869.66 500.96 1863.73C497.277 1860.47 487.384 1857.75 486.542 1850.98C485.764 1844.73 500.455 1843.11 504.054 1847.62L506.306 1839.75C506.727 1838.32 510.874 1836.68 511.61 1838.04C515.231 1844.9 519.693 1845.87 527.817 1846.88C527.691 1841.96 525.944 1835.6 520.514 1833.02C512.873 1829.4 506.98 1823.34 497.529 1821.43C499.508 1816.8 502.854 1815.03 502.034 1813.73L498.287 1807.88C496.245 1804.68 493.488 1799.24 489.11 1802.05C485.406 1804.43 481.259 1807.8 476.966 1806.91C473.935 1806.3 468.42 1803.21 467.452 1798.56C468.694 1795.32 477.744 1797.07 479.828 1802.75C483.006 1798.52 480.102 1796.42 479.597 1793.45C490.331 1790.57 497.635 1796.48 499.845 1805.76C501.255 1801.55 501.802 1798.81 504.138 1797.07C507.969 1800.22 508.727 1803.32 507.548 1807.86C518.725 1805.57 529.185 1810.51 531.08 1821.72L535.1 1845.51L540.846 1840.15C540.72 1839.73 540.278 1839.33 539.878 1839.22C535.268 1837.86 536.678 1833 536.489 1828.85C535.963 1817.28 540.299 1807.82 552.043 1805.95C555.116 1805.46 558.758 1804.37 560.063 1802.5C561.957 1799.76 561.725 1796.82 562.883 1792.61C566.145 1800.35 563.977 1808.13 558.758 1814.86L540.825 1837.94L541.961 1838.97L573.512 1825.51C580.226 1822.65 589.677 1828.6 594.686 1832.43L606.452 1825.28C596.896 1818.86 589.866 1813.48 583.363 1805.13C584.141 1811.01 581.931 1819.13 577.638 1819.58C558.884 1808.83 571.071 1794.02 565.388 1780.22L547.181 1797.74C546.15 1791.83 545.245 1785.96 546.192 1781.29C547.202 1776.35 565.219 1767.7 566.945 1768.1C568.419 1768.42 569.513 1772.06 574.165 1771.97C572.628 1767.6 571.618 1763.14 573.302 1759.14C574.838 1755.48 577.932 1753.67 583.278 1752.12C577.427 1749.47 573.765 1745.95 570.965 1740.11C569.892 1749.76 569.787 1758.7 564.483 1766C561.641 1766.19 557.642 1762.84 556 1761.14C555.643 1769.68 549.749 1774.18 541.561 1775.19C533.374 1776.2 533.353 1764.7 530.848 1759.48C527.859 1753.25 523.734 1749.91 527.922 1743.45C530.638 1739.29 535.647 1737.96 540.404 1739.47C539.604 1733.14 543.561 1729.84 546.508 1727.3C547.813 1725.91 547.644 1718.17 551.643 1719.34C560.778 1722.04 565.872 1732.72 569.471 1740.46C570.376 1735.77 571.597 1731.94 575.68 1731.63C577.343 1731.5 595.528 1736.95 593.95 1744.06L603.59 1743.13C605.715 1742.92 607.315 1738 609.357 1737.94C611.651 1737.85 614.156 1739.14 616.197 1740.8L624.216 1747.32C628.615 1750.9 627.71 1756.68 624.174 1759.56C620.954 1762.17 616.808 1761.69 611.967 1759.39C617.713 1775.09 638.782 1771.55 634.551 1794.73L620.491 1789.96C622.469 1786.74 623.543 1783.02 622.512 1781.84L617.881 1776.62L613.924 1789.62C612.83 1793.2 604.916 1791.39 603.442 1788.34C600.432 1782.22 606.094 1772.98 603.021 1774.39C602.137 1774.79 599.801 1775.55 598.875 1774.29C598.749 1774.12 595.57 1782.22 590.666 1780.07C586.562 1778.26 584.331 1769.95 580.71 1770.8C578.879 1771.24 574.312 1771.87 574.712 1773.11L576.943 1780.2C576.585 1792.59 587.193 1796.88 596.181 1803.21L623.269 1822.25C624.616 1825.47 618.702 1829.86 615.482 1828.96L606.263 1826.39C605.21 1836.93 598.622 1842.55 589.824 1845.79C589.172 1841.14 588.351 1838.61 584.983 1836.09C576.796 1844.21 569.218 1850.5 557.81 1851.86C558.105 1853.8 559.957 1855.92 560.926 1855.61L567.345 1853.42C568.145 1870.99 587.151 1876.33 590.14 1890.59C591.403 1896.61 590.435 1901.38 594.897 1907.38C597.128 1910.38 599.127 1916.67 597.128 1919.03L589.824 1927.63C588.73 1933.33 591.066 1940.44 584.036 1943.94C581.552 1945.18 578.332 1941.12 577.764 1938.21C576.438 1931.36 587.235 1928.07 580.921 1919.03C576.627 1912.87 578.374 1905.86 585.573 1901.82L579.384 1891.24C577.132 1895.26 578.058 1898.04 573.954 1901.3C569.05 1892.25 578.122 1884.87 571.576 1878.87C569.892 1877.34 567.703 1877.28 563.935 1880.22C565.535 1885.79 570.292 1890.78 569.997 1898.86C547.665 1885.21 558.042 1872.12 552.085 1855.08L537.373 1862.76C538.531 1866.59 538.236 1871.89 540.088 1875.87L546.739 1890.27C547.581 1892.11 553.369 1892.76 551.559 1896.9C550.865 1898.52 550.212 1900.75 547.686 1902.66C553.685 1907.82 551.243 1913.98 548.886 1920.59L541.709 1940.57C540.741 1943.26 537.31 1942.42 535.752 1940.3C534.931 1939.18 535.331 1937.92 537.647 1936.47C536.868 1932.87 538.531 1930.43 539.288 1928.26C536.826 1926.77 537.773 1923.89 542.509 1924.58C537.52 1921.2 536.215 1916.82 536.678 1911.69C537.099 1906.87 541.709 1902.66 544.761 1899.19C541.393 1896.25 539.899 1888.44 537.247 1885.5C531.522 1879.13 528.912 1873.68 532.953 1863.73C516.03 1874.71 505.738 1866.72 502.791 1891.33C499.234 1921.07 474.44 1934.43 480.944 1950.69C482.606 1946.27 484.606 1943.85 488.247 1942C492.941 1951.49 491.51 1962.17 483.427 1969.37C478.502 1966.88 478.271 1961.79 476.545 1956.62C475.219 1965.9 476.902 1974.25 469.157 1981.44C462.295 1970.42 461.117 1959.04 460.78 1946.73C454.823 1943.24 452.739 1936.36 455.812 1931.36C470.041 1929.74 464.126 1942.74 468.336 1959.02L477.365 1926.85C478.06 1924.35 479.197 1921.95 481.175 1921.58C482.27 1921.36 484.732 1922.67 485.637 1922.94C488.247 1919.26 483.469 1914.51 482.838 1911.92C482.733 1902.77 491.552 1895.83 495.004 1887.86C497.256 1882.66 495.172 1876.33 501.55 1873.01C492.267 1872.67 486.353 1873.01 478.46 1870.8L465.2 1879.4C466.589 1887.01 462.99 1890.97 459.917 1896.8L448.593 1918.1C443.184 1910.15 438.89 1901.76 441.563 1893.41C435.059 1893.87 435.796 1900.1 433.902 1901.95C426.83 1908.76 416.074 1908.81 408.476 1904.43C404.919 1908.2 398.457 1907.44 394.458 1909.06C374.084 1917.31 359.098 1932.3 345.69 1948.52L334.703 1958.3C347.9 1962.24 353.878 1942.97 367.075 1945.51C372 1946.46 375.641 1953.3 374.42 1957.19C373.2 1961.08 369.348 1964.07 364.233 1965.6C365.812 1968.67 368.801 1970.21 371.621 1970.59C375.115 1971.05 376.567 1967.22 379.682 1965.54C389.975 1959.94 408.35 1960.36 414.432 1971.68C417.021 1976.52 406.476 1981.42 402.014 1981.59C407.865 1992.42 407.971 2003.07 401.446 2011.27C395.742 2007.17 391.301 2005.23 388.417 1998.73C386.923 2001.8 380.966 2004.96 378.167 2002.27C368.548 1993.01 378.335 1977.3 362.634 1973.59C366.969 1981.69 362.444 1994.48 353.583 1995.32C345.774 1996.06 340.449 1996.4 336.029 1992.25C331.272 1987.81 331.462 1981.99 329.567 1974.52C322.495 1980.26 317.823 1984.39 314.118 1990.28C319.675 1989.27 322.011 1985.46 325.337 1985.86C328.368 1986.24 329.736 1989.2 330.409 1991.83C331.567 1996.44 323.674 2005.44 318.349 2003.89C313.234 2002.39 311.803 1999.97 311.024 1994.44L293.239 2039.25C290.755 2045.49 288.545 2051.49 292.165 2058.03C291.955 2049.13 297.006 2046.71 301.658 2040.87C304.815 2036.89 308.499 2028.62 315.529 2033.52C318.37 2035.5 316.518 2042.91 315.465 2048.58L334.724 2044.78C336.576 2053.47 331.188 2057.9 326.01 2063.77C322.453 2067.79 321.527 2075.95 314.518 2077.17C303.657 2079.04 293.47 2087.16 295.301 2100.06C297.175 2095.89 303.026 2095.43 305.825 2093.81C309.214 2086.36 316.749 2081.06 324.432 2079.86C332.577 2078.6 341.396 2081.17 345.879 2089.16L337.46 2100.04C333.545 2105.11 329.252 2106.77 321.696 2106.18C329.504 2112.49 328.768 2118.91 327.063 2127.53C326.263 2131.55 325.568 2141.43 318.728 2138.55C315.655 2137.25 312.392 2131.4 306.878 2134.77L297.848 2120.02C294.333 2114.28 299.006 2108.39 298.711 2101.7C295.617 2108.22 292.839 2113.29 284.125 2115.14C285.977 2116.07 289.092 2119.91 288.145 2121.87L279.242 2140.68C277.327 2144.74 268.066 2140.8 265.182 2136.55C260.909 2145.98 253.08 2150.96 242.998 2146.19C241.798 2152.98 235.82 2155.23 231.484 2160.11L211.784 2182.26C218.224 2184.83 224.665 2184.96 230.285 2182.16L233.294 2177.68C233.821 2176.88 236.725 2178.39 238.072 2179.51C248.47 2188.13 252.911 2166.28 264.256 2169.14C268.529 2170.21 274.948 2171.85 276.527 2176.73L248.765 2196.29C243.524 2194.23 236.957 2189.12 230.621 2193.9C238.346 2201.4 241.545 2209.88 240.24 2218.46L241.398 2219.54C242.724 2217.41 245.187 2215.25 247.649 2215.39C250.343 2215.54 253.079 2216.93 256.3 2219.89C259.015 2218.34 261.225 2214.38 262.446 2211.48C261.625 2210.07 259.183 2207.53 259.015 2205.84C258.847 2204.16 277.453 2186.64 285.199 2197.98C294.081 2211 267.813 2213.21 266.992 2223.09C268.108 2227.8 274.948 2233.5 273.012 2239.79C272.107 2242.72 268.844 2245.68 265.856 2247.68C268.844 2255.95 264.803 2260.39 258.783 2262.66C250.554 2265.75 244.955 2259.17 244.324 2250.75C240.051 2248.65 235.483 2247.64 233.863 2243.6C230.179 2234.39 234.263 2225.22 240.324 2220.63L239.251 2219.49C228.054 2217.85 235.084 2198.5 221.402 2195.03C219.277 2194.48 214.267 2197.3 213.215 2195.73L208.711 2189.04L194.566 2210.85C194.945 2211.06 196.04 2211.46 197.345 2211.21C198.692 2208.96 199.092 2206.56 202.628 2204.22L219.887 2208.11C228.054 2213.54 226.138 2226.46 217.866 2231.42C213.825 2233.84 208.374 2225.6 207.532 2221.58C206.185 2230.12 207.006 2239.04 199.576 2244.42L190.504 2243.18C175.602 2256.39 166.846 2274.17 165.457 2293.96L163.142 2327.09L172.656 2300.23C170.551 2296.95 169.014 2292.87 170.361 2289.65C171.708 2286.43 175.665 2285.06 178.423 2283.59C179.707 2277.4 184.99 2271.51 189.62 2267.79C191.262 2266.47 191.788 2259.76 196.44 2261.71C200.481 2263.42 206.248 2271.47 205.764 2276.18C204.901 2284.39 197.871 2289.96 192.062 2294.13C195.282 2295.79 197.366 2301.47 195.703 2303.03L179.349 2304.18C175.518 2307.09 179.896 2309.82 181.938 2306.69C186.716 2304.5 189.936 2306.22 192.209 2308.77C193.956 2310.72 195.072 2314.51 193.198 2317.46L186.484 2327.97C184.548 2331 178.444 2328.16 176.991 2325.89C175.055 2322.88 175.35 2318.78 174.066 2314.03C171.877 2325.53 164.236 2336.83 165.457 2349.74C166.615 2355.55 170.782 2362.39 167.078 2369.29C178.107 2389.69 182.969 2414.3 181.454 2438.07L184.358 2452.86L187.368 2452.82L186.042 2429.91C187.557 2418.23 194.545 2408.54 200.755 2398.65C192.293 2395.18 187.894 2389.56 187.557 2382.24C187.263 2375.89 188.989 2367.03 196.124 2365.16C199.428 2364.3 203.912 2369.22 206.122 2371.16C206.522 2365.46 207.721 2362.22 211.321 2358.68L220.308 2349.83L234.684 2364.13C237.967 2367.41 231.463 2382.5 237.672 2376.77C239.693 2374.9 243.229 2371.39 245.65 2371.6C248.07 2371.81 250.449 2375.89 251.543 2379.53C254.974 2374.94 258.615 2374.69 264.193 2376.67C267.645 2377.91 275.853 2381.32 272.57 2386.3C269.286 2391.29 261.562 2395.81 256.468 2399.68L249.838 2398.57C248.638 2398.36 248.07 2403.57 247.544 2405.3C246.092 2410.18 241.398 2409.46 238.178 2407.93C230.853 2404.46 233.063 2397.89 230.895 2396.11C227.128 2392.99 228.348 2403 226.601 2404.46C224.539 2406.18 214.92 2398.71 208.879 2408.2C216.393 2414.13 223.002 2423.89 217.74 2432.41C215.699 2435.71 198.608 2431.25 198.334 2430.75C196.924 2427.99 200.565 2424.17 199.555 2421.31C197.345 2415.02 191.451 2425.62 190.799 2440.17C191.346 2437.36 198.734 2431.11 200.733 2434.37C205.301 2441.79 197.724 2457.38 186.358 2455.93L185.621 2469.83C185.284 2476.21 182.653 2481.89 183.579 2488.93C183.327 2490.72 186.147 2491.25 186.042 2488.55C183.916 2484.52 187.642 2475.85 191.746 2476.44C203.322 2478.16 196.061 2511.29 191.83 2513.06C187.831 2514.72 184.463 2512.74 181.306 2510.68C177.77 2508.39 182.759 2504.37 178.233 2499.79C176.76 2522.78 164.805 2539.5 155.396 2558.94C152.45 2565.04 151.292 2571.9 145.651 2576.8L140.368 2586.05C130.623 2592.8 126.413 2602.84 119.383 2611.69L108.354 2625.58C101.43 2634.29 92.1686 2638.58 81.2658 2634.37C89.2008 2627.53 90.2743 2616.83 90.127 2605.87C88.2116 2610.64 85.0544 2611.93 81.2448 2612.66C77.2036 2613.44 69.058 2612.62 70.9523 2607.7L76.8668 2592.4C70.2156 2592.28 60.9967 2588.13 60.9546 2580.16C60.9335 2576.4 63.5224 2569.67 64.9537 2564.93C66.6585 2559.32 77.835 2561.69 79.7925 2566.89C80.7817 2569.52 84.886 2569.08 85.5175 2566.51C84.3809 2559.38 91.2214 2548.65 97.8094 2552.73C104.397 2556.81 104.461 2567.9 106.902 2573.2C108.354 2576.36 112.48 2577.83 112.269 2579.95C112.038 2582.27 111.722 2585.86 110.333 2587.84L100.756 2601.28C96.2308 2607.66 93.0315 2614.58 93.663 2623.43C98.5461 2618.36 104.797 2612.87 107.218 2605.95L117.005 2577.89L122.014 2557.95C124.351 2548.61 120.983 2537.88 131.991 2531.38C135.485 2541.06 131.612 2550.27 130.707 2559.46C129.36 2573.12 122.856 2581.93 116.037 2594.07C138.958 2573.81 151.776 2547.43 162.237 2519.69L170.635 2490.01C173.245 2480.77 172.193 2473.62 172.382 2464.49C172.845 2442.13 161.037 2417.92 153.607 2421.62L146.893 2424.97L135.443 2421.87C136.811 2424.71 137.485 2426.86 137.253 2428.69C137.106 2429.93 133.991 2430.81 132.559 2429.36L127.971 2424.67C125.971 2429.59 127.087 2434.41 126.603 2439.75C118.478 2442.99 114.29 2447.62 108.186 2454.92C100.461 2442.38 90.8215 2438.34 93.3473 2431.26C94.5049 2427.97 104.776 2424.46 100.44 2423.62L95.8941 2422.76L93.8313 2410.54C93.6209 2419.22 93.0737 2423.7 87.1803 2428.84C77.8982 2436.91 61.7965 2431.21 59.8181 2428.46C58.5762 2426.73 55.4821 2422.13 58.05 2420.11L72.3836 2408.81C69.6473 2406.73 69.1001 2399.58 72.8045 2399.01C82.9496 2397.41 90.8215 2413.84 103.745 2407.51C93.3052 2406.37 85.0334 2397.49 85.0544 2386.45L96.0414 2375.62C96.3571 2383.32 105.85 2384.37 106.565 2388.26L110.101 2407.34C108.354 2411.1 113.448 2411.59 112.332 2407.46C113.574 2399.98 120.604 2392.95 127.024 2395.26C133.044 2397.41 137.927 2402.77 136.979 2407.13C135.696 2412.95 133.633 2418.28 126.687 2420.36C132.938 2424.61 135.19 2417.79 143.041 2412.74C142.01 2409.97 141.715 2407.76 142.641 2406.52C145.251 2402.98 154.849 2403.87 156.091 2407.84C156.575 2409.36 154.575 2412.28 151.86 2414.45C161.479 2415.42 167.962 2421.2 169.625 2431.78C170.467 2435.02 174.781 2433.59 172.761 2430.52L168.488 2405.09C167.33 2398.17 162.069 2394.89 154.681 2396.11L149.608 2375.47C154.218 2374.63 156.386 2375.7 160.89 2376.88C155.712 2366.55 150.45 2357.02 140.242 2351.34C138.137 2355.38 134.727 2358.49 132.37 2358.14C123.993 2356.83 129.823 2345.2 125.992 2341.27C123.235 2338.45 119.594 2335.65 115.637 2338.64C111.133 2342.05 106.649 2343.41 101.135 2344.89C102.082 2352.69 101.872 2361.33 96.5886 2366.11C93.9155 2368.51 87.8328 2364.38 85.6648 2362.66C81.3921 2366.36 78.9716 2371.03 74.1937 2372.97C65.0168 2376.69 72.4678 2356.05 68.7844 2354.67L63.2278 2352.56C59.6076 2349.07 62.9962 2343.79 64.8274 2341.46C67.5005 2338.05 76.2985 2343.12 87.0119 2329.72L74.3411 2322.5C72.7625 2327.26 70.2156 2330.75 66.8059 2331.19C60.5757 2332.01 39.4016 2320.61 43.3586 2311.8L59.376 2300.92C65.3115 2307.63 70.9944 2310.07 75.3724 2318.7C74.2358 2321.98 75.8776 2318.89 76.4458 2316.47C77.0562 2307.88 84.2546 2302.1 91.4951 2300.25C93.1368 2305.99 97.6411 2301.7 94.2102 2299.15C89.3692 2297.2 85.6648 2293.69 85.4122 2289.69C85.1807 2286.05 86.4646 2280.14 90.6952 2278.94C92.4422 2279.99 95.2205 2280.39 95.2416 2279.23L95.3258 2274.46C95.3889 2270.19 97.4937 2267.73 100.525 2267.75C103.724 2267.77 103.787 2271.24 106.165 2274.14L113.385 2282.98C113.216 2285.19 110.67 2290.26 112.438 2291.5L119.131 2296.19C123.362 2304.54 115.995 2313.44 114.879 2320.42C117.194 2328.18 127.445 2333.36 135.001 2335.34C134.727 2328.88 135.906 2319.37 142.515 2317.33C148.829 2315.37 154.323 2324.73 152.365 2330.94C149.671 2339.56 150.955 2345.85 155.27 2354.06C156.701 2355.72 159.922 2352.71 156.407 2351.38L156.596 2293.33C156.596 2291.62 160.974 2288.91 156.596 2286.26C154.744 2293.83 149.777 2293.54 144.872 2293.48C138.979 2293.41 140.726 2287.38 137.927 2284.09C135.401 2281.13 128.834 2281.51 131.212 2275.51C134.412 2267.41 142.473 2271.12 143.525 2266.63C144.578 2262.15 138.306 2252.1 145.651 2249.26C150.429 2247.43 154.933 2251.51 155.923 2254.75C156.912 2257.99 156.217 2261.73 151.966 2264.8C158.448 2266 159.985 2271.43 161.374 2278.71C165.731 2259.04 161.774 2239.5 175.876 2220C177.202 2219.75 179.391 2220.9 180.549 2223.79C185.453 2212.03 193.409 2202.06 195.935 2186.53C192.42 2192.97 185.284 2193.9 178.886 2191.77C174.781 2190.4 167.478 2183.04 169.646 2177.57C173.308 2171.2 182.99 2162.36 190.188 2159.65C197.387 2156.94 202.67 2169.01 200.691 2177.03C212.773 2161.5 227.296 2140.74 220.076 2119.52C213.867 2124.92 211.11 2129.36 204.248 2131.4C191.283 2123.89 190.252 2115.5 182.295 2109.36C178.381 2101.57 197.029 2083.27 201.596 2083C211.847 2082.37 213.573 2096.23 224.433 2087.35C217.214 2080.37 216.393 2070.61 209.826 2070.29C205.048 2070.06 202.838 2081.78 195.493 2080.41C192.651 2079.89 189.999 2075.87 187.115 2072.4C183.327 2077.15 175.329 2079.15 171.519 2074.08C169.077 2070.82 173.561 2066 174.424 2063.5C173.077 2059.21 167.099 2054.64 167.436 2049.38C167.73 2044.78 173.308 2041.77 176.402 2040.89C180.843 2039.62 185.705 2042.67 188.82 2044.27C193.935 2040.32 197.745 2041.39 201.575 2045.18C210.605 2054.14 199.45 2060.24 212.541 2063.73C212.478 2054.41 206.059 2047.01 200.355 2038.93C186.021 2018.61 185.642 2003.51 173.855 1993.47L162.932 1984.18C162.7 1987.41 162.91 1991.1 160.932 1993.07L146.809 2007.31L136.159 1992.44C132.412 1999.32 126.834 1998.5 121.194 1999.76C115.005 2001.17 111.911 2001.15 107.555 1995.93C104.629 1992.44 109.407 1988.76 112.227 1984.62C116.142 1978.87 118.563 1974.63 127.108 1975.7C124.098 1970.67 123.067 1966.11 124.203 1960.72C125.066 1956.72 128.476 1953.61 132.096 1953.53C139.295 1953.38 148.009 1974.88 158.701 1961.16C151.839 1962.13 148.64 1959.59 145.904 1954.56C143.715 1950.54 142.494 1946.46 143.988 1941.56C144.893 1938.63 149.103 1936.47 154.554 1935.29C150.071 1931.48 147.209 1927.25 146.262 1921.81C145.672 1918.46 151.208 1912.99 151.355 1909.27C148.093 1905.04 142.789 1900.79 143.694 1894.97C144.367 1890.63 149.335 1884.39 154.512 1886.55C159.69 1888.72 163.668 1888.26 165.857 1891.77C167.583 1894.52 167.373 1899.7 168.088 1903.36C174.045 1904.26 179.959 1897.89 181.769 1890.8C173.687 1888.49 166.026 1882.24 164.826 1873.11L168.362 1864.8C166.657 1861.37 162.826 1856.01 163.773 1852.47C165.163 1847.22 171.498 1846.94 175.623 1847.81C179.749 1848.67 181.643 1851.59 184.8 1854.92C191.43 1861.88 191.472 1868.74 185.853 1877.25C199.723 1875.15 184.421 1852.85 198.25 1840.32C209.3 1848.63 210.289 1861.23 207.427 1873.3C219.066 1868.19 228.411 1868.55 238.409 1868.21C234.936 1864.07 234.136 1860.45 234.936 1857.94C236.241 1853.91 239.904 1852.47 244.26 1854.37C247.102 1855.59 251.753 1856.87 252.827 1855.31L257.836 1848.16C266.361 1846.31 270.212 1855.65 271.16 1862.19C272.149 1869.16 270.086 1876.39 263.456 1880.51C269.476 1881.57 272.086 1883.94 275.895 1888L274.906 1876.98C274.717 1874.77 279.41 1870.4 282.631 1871.22C287.977 1872.54 290.061 1879.02 292.165 1883.65C293.87 1862.95 284.735 1846.35 275.874 1829.65C270.507 1819.53 267.539 1811.44 255.689 1806.32L241.861 1789.26C240.64 1789.22 238.914 1790.84 238.409 1792.25C243.166 1795.39 244.176 1800.67 240.661 1804.47C238.514 1806.79 234.536 1806.64 230.179 1806.98L224.055 1811.69C219.382 1815.28 210.163 1803.42 204.859 1790.36C204.248 1787.71 212.352 1785.54 213.825 1783.23C215.467 1780.66 215.446 1774.81 219.213 1774.96L229.422 1775.38C225.275 1773.07 217.698 1767.24 211.72 1768.67C206.627 1772.02 203.301 1777.95 195.198 1774.25C199.513 1783.82 199.029 1788.19 195.556 1794.65C192.083 1801.11 187.957 1799.72 181.201 1801.51C181.369 1801.46 159.564 1814.78 156.933 1803.42C156.259 1800.54 156.449 1797.34 159.985 1794.25L158.848 1785.52L171.098 1772.25C162.742 1771.83 151.145 1768.04 150.113 1759.79C149.671 1756.3 169.099 1745.47 181.727 1743.83C177.328 1742.06 174.466 1740.95 171.961 1738.57C168.509 1735.29 173.876 1732.41 174.024 1730.01C174.403 1724.1 172.34 1715.98 169.54 1711.12C164.447 1711.58 161.374 1708.62 160.995 1705.69C160.616 1702.77 165.331 1697.76 168.404 1701.17C186.253 1720.86 182.443 1733.8 193.788 1740.51C196.461 1728.49 185.011 1716.74 193.535 1713.31C195.829 1712.38 198.923 1712.8 200.565 1713.94C203.912 1716.31 204.122 1734.57 199.029 1747.51C205.806 1758.36 219.592 1764.74 229.99 1769.28C221.466 1746.67 198.018 1738.23 208.879 1725.17C212.478 1720.84 217.761 1717.96 219.403 1710.76C220.097 1707.73 224.265 1704.51 226.706 1704.62C235.631 1705 233.147 1717.83 235.42 1718.82L242.24 1721.78C248.407 1730.85 242.535 1743.2 234.179 1748.77C231.063 1750.85 231.127 1754.68 232.326 1757.78C233.084 1759.75 237.104 1760.59 240.03 1762.19L248.217 1780.54L265.877 1799.57C254.532 1776.54 247.06 1751.19 247.165 1725.78C247.228 1709.08 247.607 1692.04 252.595 1676.56L259.773 1654.26L273.012 1621.05L268.844 1602.6C266.761 1593.41 257.184 1589.47 249.291 1586.61C249.817 1599.36 231.8 1611.62 226.433 1606.05C223.549 1603.06 223.234 1598.75 223.57 1592.92C215.656 1594.88 207.111 1592.57 205.111 1584.74C204.291 1581.52 209.237 1578.09 213.236 1578.05C210.268 1574.56 206.9 1572.01 205.217 1567.26C204.164 1564.25 207.216 1561.62 208.942 1560.66C212.71 1558.51 225.317 1562 234.305 1568.23C233.61 1562.36 229.253 1555.48 231.611 1551.15L241.019 1534L249.059 1543.47C253.564 1541.6 257.963 1541.43 260.341 1542.96C264.024 1545.34 263.793 1549.34 263.835 1553.25C263.961 1562.13 260.615 1568.5 252.722 1571.47C266.508 1572.58 260.572 1587.56 268.529 1585.01C269.202 1584.8 270.781 1582.89 267.455 1582.32C264.761 1578.41 263.203 1565.98 268.402 1562.95C272.233 1560.7 279.558 1562.67 282.483 1556.51C287.345 1561.6 289.808 1576.16 290.566 1574.96L287.745 1579.46C286.377 1587.41 282.925 1592.75 273.875 1593.89L279.474 1611.5L297.512 1579.04L303.721 1538.65L312.329 1517.7C314.813 1511.64 321.275 1506.99 317.402 1498.37C314.855 1500.62 313.445 1504.09 312.582 1507.63C308.414 1524.62 288.061 1529.78 286.419 1527.92L281.873 1522.75C273.917 1522.01 270.549 1518.44 268.36 1511.62C266.298 1505.23 271.517 1503.33 275.369 1498.05C280.526 1490.97 286.188 1484.51 295.301 1486.91C294.396 1489.47 293.218 1490.76 293.281 1491.53C293.323 1492.38 295.428 1493.26 296.228 1492.42C298.564 1490.04 299.195 1483.96 304.605 1483.96C309.109 1483.96 310.498 1490.08 315.129 1490.48C317.591 1490.69 318.623 1489.56 318.433 1487.18C317.991 1481.61 309.151 1479.78 302.374 1471.13C298.332 1477.1 293.849 1477.46 288.524 1477.36L269.181 1476.98C266.55 1476.94 262.572 1483.6 259.31 1481.12C257.479 1479.75 252.574 1478.03 251.185 1474.39C252.469 1467.97 260.152 1463.26 267.434 1462.74L257.436 1443.62C254.195 1437.43 268.465 1434.05 286.398 1439.85C286.798 1435.05 289.198 1427.23 293.702 1426.35C299.28 1425.25 303.237 1433.27 306.036 1437.03C312.119 1445.19 311.508 1454.39 303.994 1459.37C309.404 1466.97 312.919 1472.9 320.854 1478.66C330.157 1462.76 311.277 1457.84 313.087 1448.66C314.013 1443.99 317.612 1442.77 319.591 1438.82L327.105 1423.82C328.704 1420.62 334.219 1423.63 334.724 1426.66C335.019 1428.45 332.872 1431.39 338.302 1435.01C337.713 1429 340.344 1426.75 343.733 1425.8C347.984 1424.6 352.467 1428.98 351.794 1433.58C350.657 1441.45 354.067 1449.27 353.562 1456.78C352.825 1467.87 339.334 1471 329.588 1471.63C326.81 1478.91 321.59 1488.63 323.548 1495.47C327.378 1505.1 329.799 1514.74 320.159 1520.98C335.04 1525.09 318.938 1543.49 311.74 1562.11C321.548 1551.82 329.778 1542.17 337.271 1530.01C339.839 1525.86 339.292 1519.34 345.459 1516.52C324.369 1504.79 334.072 1499.06 331.146 1481.58C330.683 1477.61 339.881 1471.17 343.48 1472.81C348.342 1475.04 350.426 1480.81 350.215 1485.03C349.984 1489.75 347.29 1492.82 341.144 1494.84L348.005 1506.49C361.96 1481.92 377.809 1432.26 370.99 1411.98C370.442 1410.34 370.779 1406.22 368.864 1404.91C367.306 1403.84 358.803 1409.96 340.533 1393.72C342.933 1388.67 346.048 1386.02 349.815 1382.61C360.066 1386.13 365.412 1393.34 370.758 1403.73C373.515 1399.63 372.547 1394.06 371.705 1390.65L367.496 1373.8C366.128 1368.33 359.813 1364.19 355.667 1360.21C342.47 1367.15 356.067 1382.72 337.018 1388.08C337.523 1390.9 340.575 1393.76 336.682 1397.19C334.871 1392.29 329.715 1387.43 325.526 1390.46C323.064 1392.25 320.833 1396.35 317.486 1395.57C314.139 1394.79 300.984 1378.77 307.341 1366C302.247 1367.95 298.08 1369.51 295.238 1367.62C293.239 1366.29 293.639 1361.83 288.503 1359.58C290.439 1371.17 286.967 1378.16 279.431 1384.4C275.348 1387.81 273.959 1395.51 268.634 1397.68C266.803 1395.24 264.614 1393.91 262.93 1394.12C261.856 1394.27 259.92 1396.08 258.468 1397.61C249.943 1393.53 246.281 1384 246.049 1374.66C244.113 1379.96 242.492 1382.72 239.293 1385.26C236.094 1387.81 231.484 1386.19 227.569 1386.38C224.791 1386.51 220.119 1391.24 217.572 1388.74C215.867 1387.05 211.299 1383.98 211.005 1380.78L221.487 1368.02C227.843 1360.28 242.703 1359.64 250.575 1365.51L259.457 1360.57C251.585 1358.74 241.693 1361.33 235.02 1357.01L218.266 1331.08C221.781 1328.95 224.054 1328.81 225.317 1326.01C220.371 1313.14 231.526 1326.18 242.156 1322.73C243.145 1318.25 243.734 1314.73 245.65 1311.68C246.997 1309.52 251.438 1307.65 253.206 1311.73C253.711 1312.86 249.943 1314.76 248.849 1314.97C242.64 1316.14 257.984 1317.97 260.509 1322.22C262.235 1325.13 262.067 1328.85 259.667 1331.84C257.268 1334.82 254.7 1334.97 249.565 1333.6C246.618 1332.82 242.64 1339.39 242.808 1342.48C242.955 1345.32 244.829 1350.22 248.659 1351.46C250.533 1345.26 261.078 1336.97 266.255 1340.25C274.527 1345.51 284.188 1346.14 294.375 1359.71C295.933 1356.11 297.596 1350.85 302.163 1348.05C306.141 1345.61 308.877 1349.04 309.53 1352.91C309.93 1355.31 306.962 1357.39 306.162 1358.95C307.194 1363.98 317.465 1360.97 326.979 1356.59L313.887 1355.86L316.16 1343.3C317.044 1338.38 319.633 1335.31 323.632 1334.72C329.694 1333.81 333.293 1345.61 347.206 1340.14C350.489 1326.66 345.816 1314.63 334.64 1310.49C332.051 1312.27 328.936 1314.82 325.779 1314.04C319.191 1312.44 313.592 1302.93 314.939 1300.98L319.738 1294.1C320.812 1281.52 299.448 1286.38 289.05 1277.99C288.861 1282.93 289.619 1287.58 287.43 1291.26C278.611 1306.09 291.429 1312.4 297.869 1328.47L283.83 1343.49C264.445 1336.21 267.35 1313.43 269.834 1312.97C271.391 1312.67 275.958 1312.97 276.232 1308.97C275.853 1308 268.381 1307.65 269.939 1303.44C272.991 1299.61 275.559 1295.4 271.959 1291.72L270.823 1290.63C268.36 1295.38 266.15 1298.35 260.762 1299.61C254.7 1301.06 252.069 1299.78 246.807 1294.62C244.745 1292.61 239.293 1289.58 243.734 1284.65C247.628 1280.32 256.594 1273.44 263.014 1273.06C269.939 1272.64 272.128 1283.2 271.938 1288.17L273.117 1290.71C274.169 1284.32 278.379 1279.44 285.893 1276.6C279.81 1267.45 263.309 1274.2 253.374 1262.86C254.069 1271.25 251.101 1273.78 244.408 1276.05C239.609 1277.67 231.779 1280.09 229.485 1274.01L224.644 1261.14C222.834 1265.97 220.055 1270.39 216.751 1270.33L205.827 1270.12C202.017 1273.91 207.742 1280.83 208.521 1284.09C206.711 1288.78 202.123 1296.27 198.587 1298.41C192.23 1299.23 189.094 1300.64 184.337 1305.18C180.107 1306.57 175.392 1298.73 173.624 1295.13C171.266 1290.38 175.518 1284.34 177.539 1279.63C174.339 1277.33 165.31 1275.69 165.078 1269.15C164.678 1258.02 186.589 1259.37 182.738 1247.34C180.149 1239.22 182.464 1231.77 190.357 1227.02L206.248 1240.94C208.374 1242.79 208.942 1245.51 209.931 1248.83C213.236 1240.61 219.298 1235.41 228.853 1232.38C226.812 1226.01 226.18 1219.36 233.294 1216.67C226.475 1201.86 223.423 1220.94 203.47 1220.46C198.502 1220.33 190.062 1202.97 193.198 1198.22C194.609 1196.08 198.629 1194.83 202.986 1193.24C199.723 1189.26 194.356 1183.03 197.029 1178.11C199.008 1174.47 205.574 1177.1 207.953 1176.93L214.899 1168.1C226.201 1174.45 225.591 1185.56 226.706 1196.16C229.148 1189.34 227.022 1182.09 233.926 1177.75C239.967 1184.23 248.596 1183.48 254.363 1183.88C258.447 1188.76 251.88 1195.02 248.323 1197.59L250.785 1228.22C242.871 1226.05 243.397 1220.18 238.599 1216.63C240.367 1226.13 239.483 1233.81 230.011 1237.09C243.166 1244.33 249.165 1238.94 252.385 1242.08C253.985 1243.66 253.08 1248.14 254.174 1250.56C258.341 1259.79 269.56 1262.92 278.526 1262.57C257.352 1242.9 249.228 1226.72 254.174 1198.89C255.332 1192.42 260.888 1184.76 255.921 1177.9C254.195 1175.65 248.407 1174.75 247.376 1170.96C246.407 1167.38 249.291 1161.56 247.523 1159.03L238.746 1146.54L230.158 1157.33L221.676 1146.39L227.822 1142.6C223.676 1138.21 221.087 1133.83 214.962 1132.47C212.373 1134.78 211.405 1141.64 208.711 1142.84C200.881 1146.29 195.892 1138.48 192.756 1133.16C193.219 1138.44 194.503 1146.58 187.789 1147.53C184.421 1147.99 182.674 1141.68 183.895 1138.78C185.116 1135.87 187.726 1134.88 191.072 1129.52C182.064 1131.75 174.802 1128.95 168.509 1123.21C171.098 1120.79 172.866 1118.88 173.182 1117.26C173.603 1114.99 171.54 1112.65 170.298 1110.63C167.625 1106.3 172.235 1103.18 174.297 1101.38C177.939 1098.18 180.991 1100.79 186.168 1101.4C181.39 1096.07 176.613 1090.46 178.149 1083.26C178.759 1080.38 184.106 1079.37 186.652 1080.7C188.547 1081.67 189.094 1084.42 192.756 1088.27L197.976 1072.87C207.09 1078.38 219.34 1093.74 219.424 1092.52L218.814 1101.71C218.435 1107.41 219.403 1109.92 218.519 1118.79C223.297 1114.99 226.559 1113.87 229.148 1115.95C232.284 1118.48 232.726 1122.05 231.442 1124.89C229.843 1128.49 226.454 1129.25 221.634 1129.42C224.938 1133.31 232.263 1140.84 238.43 1139.01C244.597 1137.18 238.304 1129.88 236.304 1127.06C231.105 1119.72 233.779 1096.83 243.713 1099.5C245.692 1100.03 246.912 1104.95 247.376 1107.33C252.111 1109.71 254.405 1101.14 257.226 1099.65C260.657 1097.82 263.898 1103.31 260.867 1105.98C259.625 1107.08 258.762 1109.66 253.732 1110.67C258.32 1114.16 264.34 1120.08 265.14 1127.1C265.982 1134.51 248.07 1131.58 246.723 1140.33C246.449 1142.1 248.449 1145.51 250.112 1145.21L256.784 1144.08C258.889 1143.72 261.225 1148.14 262.109 1147.38L266.571 1143.68C272.907 1143.47 274.948 1151.69 275.201 1158.25L277.053 1127.59C284.82 1122.87 283.388 1107.1 289.492 1110.55C293.87 1113.03 294.817 1118.43 293.997 1122.01C296.901 1122.56 300.185 1123.27 300.563 1124.83L302.647 1133.24C305.278 1126.32 302.984 1119.17 299.49 1112.02L289.829 1092.16C282.168 1093.74 281.157 1099.73 275.895 1105.27C273.033 1099.12 275.559 1093.15 278.19 1088.35C280.105 1084.86 286.419 1087.85 289.534 1088.27C285.977 1081.73 279.726 1080.93 275.432 1076.74L261.688 1078.91C264.866 1083.73 263.098 1087.13 259.247 1090.73C255.71 1094.01 252.869 1096.1 248.091 1095.4C242.808 1094.62 235.21 1083.85 236.62 1078.05C237.294 1075.25 239.756 1069.09 243.86 1070.62C245.271 1071.15 247.944 1075.23 249.985 1074.07C251.501 1073.21 252.932 1070.9 253.985 1067.82L262.004 1075.12C265.182 1071.82 264.382 1066.6 261.246 1064.21C253.122 1057.96 249.985 1049.65 241.503 1041.64C243.418 1048.85 242.282 1057.1 235.168 1060.65C227.254 1064.63 220.413 1055.79 217.656 1049.1C215.341 1043.53 214.12 1039.78 216.204 1034.13C217.635 1030.26 222.034 1028.07 228.138 1027.21C225.696 1025.69 220.708 1024.22 218.035 1024.98C212.247 1026.62 213.446 1033.41 212.815 1039.01C212.415 1042.62 202.544 1040.18 201.891 1036.25C200.649 1039.45 200.291 1041.55 199.386 1042.52C198.797 1043.15 195.745 1043.23 194.272 1041.89C201.133 1032.86 195.177 1021.36 211.215 1018.94C207.279 1012.54 193.977 1011.87 191.451 1018.69C190.188 1022.09 191.283 1027.21 189.283 1030.15C187.284 1033.1 182.99 1031.33 180.338 1031.08C170.635 1038.23 162.995 1042.65 157.375 1036.34C154.133 1032.67 159.585 1028.57 159.985 1025.99C160.953 1019.7 161.374 1015.34 166.404 1013.47C169.898 1012.17 174.045 1014.4 177.244 1017.63C180.822 1015.34 185.032 1013.64 187.389 1010.23C189.746 1006.82 185.747 1001.88 181.917 1000.81C181.769 1004.91 182.464 1008.21 180.506 1011.85C172.55 1009.26 166.846 1006.7 161.29 1002.95L148.219 1015.89C143.083 1010.9 136.159 1011.98 130.834 1009.68C127.592 1008.27 128.624 1001.4 130.918 999.545C132.559 998.219 135.043 996.768 137.611 995.401C134.327 992.414 132.496 989.385 131.57 986.629C130.834 984.484 134.685 979.393 137.443 980.108C149.419 983.221 157.164 993.402 167.583 1001.94C169.519 994.749 159.964 991.068 159.017 986.166C156.912 975.186 164.131 966.414 171.793 962.607C175.244 965.405 177.181 967.003 178.675 969.38C179.707 971 177.202 974.155 177.644 977.584L184.4 973.062C191.767 979.099 192.609 990.142 184.737 997.925C194.798 1000.37 200.754 1002.89 207.364 1010.21C210.184 1005.54 210.5 997.504 207.111 994.854C204.438 992.771 201.26 992.729 200.607 991.11C200.102 989.89 200.144 984.568 201.407 984.231C205.511 983.264 209.658 988.039 210.226 993.276C214.267 990.079 215.909 988.543 218.456 987.975C220.645 987.492 224.033 991.551 226.391 992.54C233.168 978.783 204.817 982.128 209.637 961.534L209.047 948.303C212.562 947.841 214.057 949.039 218.035 949.923L204.627 913.07C199.828 912.102 195.345 909.367 194.293 904.487C193.367 900.112 196.566 896.431 202.017 894.538C206.016 895.737 209.868 902.51 211.952 908.252C214.499 912.312 217.719 907.117 213.594 905.812C208.5 890.562 203.596 876.405 195.366 863.174L180.991 860.608L175.834 871.189C168.762 866.414 165.436 861.428 164.152 853.288L152.408 863.911C154.07 871.041 148.914 875.711 146.598 881.37C144.999 885.303 145.209 897.735 137.274 895C130.96 892.834 134.264 879.834 132.117 874.807C131.086 884.651 132.602 893.065 122.604 897.987C119.552 899.481 117.721 902.279 114.69 900.385C112.101 898.766 109.659 897.293 109.996 893.486C110.501 887.785 113.848 883.894 118.289 880.297C116.311 879.077 113.701 876.321 114.795 874.407L117.931 868.959C119.341 866.519 120.52 864.71 122.057 864.037C123.74 863.28 126.855 864.142 126.855 865.383C126.813 867.823 126.329 869.8 128.034 872.598L132.496 858.694C136.011 860.818 136.201 863.174 135.275 867.486C152.05 864.352 139.674 846.809 153.755 842.707L150.787 828.025C150.176 824.996 154.975 821.483 157.901 821.946L163.373 838.353C169.688 839.194 173.792 841.824 176.907 847.23C184.821 842.812 185.305 850.343 191.009 850.595L164.11 812.185C158.911 804.76 142.831 795.967 131.486 792.686C125.045 795.378 120.225 798.618 112.711 797.671C108.902 798.155 106.628 807.326 105.934 810.902L87.3066 811.87C85.0123 819.632 78.8663 828.004 70.3209 827.962C65.4589 827.941 64.2591 821.062 64.7222 817.234C65.1431 813.91 58.5552 807.978 56.1347 809.682L44.7688 817.654C40.7908 820.452 37.6125 820.726 34.2028 816.939C31.8244 814.31 32.3716 811.533 36.1602 807.579C31.5507 810.713 25.8468 805.538 22.7527 806.38C13.8705 813.426 7.61933 817.086 0 809.009C14.7756 782.82 41.5696 798.323 57.7764 782.904C53.7773 781.369 49.673 780.023 47.5682 777.141C47.0841 775.732 50.2413 772.85 51.9251 773.88C53.6089 774.911 55.0823 776.257 56.7872 777.793C56.5977 774.617 58.7867 771.188 60.3232 771.651C61.7544 772.071 65.8587 773.859 66.6165 775.921C66.5533 785.05 53.1879 790.014 53.3773 795.673C53.4826 798.975 60.0075 806.863 60.66 806.926C61.3124 806.99 62.6805 805.791 63.754 804.129C60.4284 803.098 60.5758 800.995 61.2493 799.249C62.3859 796.304 65.522 793.695 67.1427 794.81C69.8368 796.661 72.973 812.164 74.3411 806.127L75.646 800.448C80.5712 804.129 84.886 806.695 91.6213 804.865C102.398 801.941 106.207 782.862 128.16 785.176C130.497 785.429 133.928 786.775 135.043 783.199C130.623 777.225 122.814 773.565 114.185 770.999C114.5 766.897 120.057 760.649 124.351 761.322C131.339 762.437 132.728 770.599 135.674 775.016C137.506 777.751 140.979 779.413 141.336 781.39C141.778 783.851 140.958 785.429 139.463 788.479C146.998 786.165 151.103 788.963 159.837 790.814L142.494 758.125C140.01 753.455 137.632 748.617 141.357 743.022L153.46 760.313C150.934 749.017 155.796 741.571 163.921 736.249L165.878 740.035C166.678 741.592 170.298 738.584 169.583 737.931C160.553 729.686 161.353 719.484 165.752 709.681L166.299 694.2C166.341 693.001 164.552 689.509 166.446 688.815C167.836 688.31 169.477 690.771 172.319 687.195L163.352 683.366C168.783 678.318 171.982 682.883 174.887 684.881C178.36 687.258 179.286 693.358 175.602 696.051C172.908 698.007 170.361 700.216 170.972 702.887C171.351 704.528 174.024 707.094 175.581 709.008L168.572 720.409C173.392 727.877 173.834 735.47 174.634 743.485C166.636 747.082 163.31 755.916 165.92 763.531C169.267 757.747 173.287 752.067 178.675 753.182C182.169 753.897 182.632 759.64 181.433 761.764C180.612 763.237 177.539 764.52 175.35 764.835C166.194 766.161 160.637 784.167 167.246 794.747L186.842 826.153C191.956 818.096 187.663 808.988 196.713 801.584C183.158 794.495 196.882 786.207 192.63 773.27C191.472 769.736 194.903 767.633 196.313 766.182C197.955 764.478 202.059 763.952 202.501 767.507C202.754 769.484 202.102 772.303 203.722 773.67C207.427 776.783 206.269 766.855 208.058 765.929C209.026 765.445 210.815 765.929 213.257 766.813L211.699 753.434C216.456 752.824 219.908 754.781 222.749 758.819L240.156 739.109C244.429 734.271 250.07 722.429 247.397 715.782C242.913 704.717 244.071 691.402 255.205 685.365C259.204 686.353 263.877 692.664 262.551 696.556C261.141 700.72 258.278 703.813 260.341 708.798L267.16 690.035C274.654 690.876 279.558 696.093 278.737 704.465C278.463 707.346 278.737 710.88 276.274 711.617L269.581 713.657C277.306 720.599 285.409 728.297 284.651 734.692C284.209 738.436 281.22 744.978 276.443 745.82C273.349 746.367 270.718 743.422 267.96 742.286C270.718 749.648 261.478 760.313 255.353 757.431C251.753 755.727 250.448 751.163 246.049 752.951C242.534 754.402 238.683 755.012 241.124 761.365L244.808 756.316C248.47 758.314 247.102 762.627 244.997 764.373C242.892 766.118 240.324 768.39 236.367 767.486L223.107 764.436C215.846 776.11 205.617 783.62 200.334 797.334C211.594 786.207 220.939 779.981 236.831 781.663C242.156 782.231 251.838 784.209 250.448 792.412C249.396 798.555 244.176 806.401 241.103 811.554C237.062 811.996 233.4 808.946 230.285 807.053C228.853 815.341 217.424 819.8 211.868 815.256C209.658 813.447 204.522 805.749 201.533 810.418C195.598 819.695 193.535 837.112 198.418 846.956C207.237 864.815 213.488 881.285 216.582 899.944C216.456 888.921 222.097 877.962 223.486 868.328C218.351 857.916 213.531 848.345 224.012 837.659C226.18 835.45 231.316 837.491 234.494 841.698C238.683 835.997 242.682 828.551 249.312 826.594C255.121 824.89 259.057 833.305 257.373 838.269C255.521 843.717 253.269 847.44 253.122 852.804C261.162 854.024 266.613 859.872 267.455 866.729L252.301 873.545C248.07 875.459 244.934 880.108 240.198 878.277C237.188 877.121 234.389 874.617 229.359 871.21C224.16 885.219 221.866 898.766 224.812 912.544L226.938 888.185C235.989 889.973 238.535 898.198 236.81 905.118C235.357 910.945 231.148 916.898 223.192 915.005C228.159 927.647 223.234 938.312 229.316 946.074C230.074 943.255 232.116 939.679 233.926 939.805C238.325 940.1 240.851 943.528 242.071 945.926C243.545 948.808 240.724 953.415 241.503 956.78C242.682 961.808 246.976 967.656 243.86 973.04C242.071 976.154 236.641 979.835 232.221 982.948C233.526 992.351 239.44 1002.43 238.514 1013.26C245.629 1010.48 242.345 995.359 251.206 999.292C254.49 1000.74 257.478 1002.47 257.626 1005.94C257.731 1008.48 255.837 1010.86 253.374 1012.48C258.215 1014.65 259.373 1017.61 258.257 1020.94C256.637 1025.84 253.311 1024.26 249.964 1025.27C245.734 1026.53 247.249 1034.38 250.491 1036.8L266.824 1049C267.581 1039.13 270.444 1026.66 266.255 1018.92C259.836 1007.03 260.657 995.927 265.224 984.946C259.057 980.466 252.048 974.029 256.7 963.743C257.942 961.008 258.573 957.622 262.509 958.211C264.319 958.484 265.961 961.913 267.813 962.923C275.243 966.961 277.221 972.473 277.179 981.959C281.094 967.172 283.978 952.721 292.818 940.331L274.885 932.864C270.339 930.97 267.624 926.153 268.592 922.767C269.749 918.665 271.454 915.573 276.022 913.553L274.001 903.877L285.998 905.455C286.335 902.11 292.628 897.924 294.439 900.133C298.732 905.392 300.416 912.039 302.121 918.349C296.396 920.263 295.954 913.995 293.997 912.459C292.271 911.092 290.924 914.626 291.85 915.51C292.334 915.972 289.387 916.183 287.493 914.563C285.83 918.749 290.966 922.556 295.175 923.903C298.143 924.849 303.636 921.547 304.794 917.929C307.867 908.231 314.518 903.057 320.959 895.863C335.124 880.002 344.659 854.844 337.292 834.125C333.146 837.659 326.031 842.812 321.717 839.973L305.005 828.95L313.908 816.287C309.046 811.028 304.563 804.865 306.562 797.356C314.897 796.262 322.495 798.155 330.493 799.943C334.198 801.941 335.924 808.904 338.05 813.553C340.154 810.65 342.238 806.527 341.628 802.173C340.87 796.619 326.957 793.17 326.579 787.28C326.452 785.176 328.094 782.21 330.872 780.696C322.032 773.144 323.863 765.193 328.641 756.863C332.746 749.711 333.882 740.813 341.944 734.755C348.742 742.601 351.099 751.92 352.952 761.259C358.066 755.033 364.675 749.459 371.39 751.752C375.473 753.14 377.767 758.167 379.051 760.649C380.587 763.636 377.893 767.696 376.125 770.304C378.062 781.095 369.727 787.848 359.813 790.393C349.9 792.938 348.489 807.579 345.922 815.277C344.448 819.716 339.355 822.787 339.881 826.657C340.281 829.623 343.312 834.714 345.648 836.249C346.995 824.533 348.91 815.277 358.803 811.723C362.634 810.355 366.927 815.74 366.759 819.842C366.275 832.673 370.358 837.89 349.752 849.964L345.879 842.665C346.532 853.666 345.416 862.922 341.06 872.219C351.668 867.907 358.803 854.992 370.4 852.215C391.427 847.167 411.338 839.005 424.03 817.865C427.482 812.122 430.239 804.718 429.608 796.746C417.947 802.698 418.873 816.645 404.435 815.761C404.161 808.504 408.497 803.919 413.443 799.627L399.867 793.17C395.195 790.94 399.594 782.757 402.646 780.275C402.646 774.764 398.015 772.618 396.815 768.622C396.142 765.319 401.151 757.599 404.498 757.368C410.665 757.052 417.569 761.154 420.705 767.339C421.294 758.924 425.019 752.467 433.354 746.472C441.605 756.253 442.131 767.233 448.235 776.026C444.868 789.678 429.945 793.485 434.954 807.579C457.959 788.836 449.393 773.27 454.95 752.593C456.718 746.051 453.013 737.027 456.591 731.516C458.296 728.886 460.38 726.951 459.096 724.259C458.359 722.702 453.581 722.66 452.087 723.417C450.95 723.985 450.866 727.919 450.761 729.749C446.088 733.367 438.259 735.008 433.102 735.975C423.904 728.718 429.671 719.442 429.313 711.154C429.019 704.233 426.219 699.837 433.081 695.504C437.332 692.811 442.994 694.704 448.698 698.154C448.319 693.611 448.867 684.797 452.613 683.661C458.296 681.915 460.654 688.899 463.727 692.958C466.442 687.7 471.746 678.76 477.302 682.02C484.732 686.353 485.279 698.764 483.175 705.958C485.279 710.754 488.058 713.657 488.984 718.979L473.977 723.27C471.556 723.964 469.22 726.173 466.842 725.226C464.19 724.175 463.6 712.963 460.148 718.958C459.159 720.683 461.032 721.566 461.937 722.618C463.516 728.529 465.621 734.797 464.779 740.813L459.475 778.74C474.819 763.531 483.512 745.357 491.889 725.563C498.834 709.155 507.506 690.434 504.58 671.902C500.981 668.432 491.762 662.079 496.14 656.799C499.297 652.971 505.338 660.838 508.18 665.907C510.326 655.874 511.379 645.104 508.348 636.227C500.181 629.79 502.728 618.284 489.215 613.53C484.648 615.865 482.859 618.957 479.723 622.007C474.671 620.808 470.714 620.892 465.831 623.248C467.894 626.046 469.536 635.049 466.147 637.237C459.222 640.897 453.392 642.832 448.656 651.604L441.542 634.818C439.69 637.51 436.68 639.508 435.143 639.067C433.06 638.478 432.155 635.343 431.776 633.156C430.239 624.447 433.712 620.282 440.49 617.379L439.29 616.117C430.239 614.54 428.45 623.08 419.379 627.813C415.864 629.643 412.243 625.478 408.707 624.931C404.687 624.3 399.488 624.805 397.405 622.575C395.679 620.724 392.416 615.676 395.005 612.92C398.52 609.197 404.982 607.114 406.097 601.309L404.835 596.218C403.34 590.16 418.495 596.513 431.629 607.935C433.039 599.1 417.505 598.805 419.147 585.743C419.568 582.44 424.914 579.748 430.829 578.107C433.733 583.934 427.987 594.451 435.312 596.849C436.533 597.249 437.922 591.738 439.164 591.296C442.952 590.055 445.141 594.577 444.931 598.132C444.699 602.381 442.7 605.263 437.564 606.736C439.227 609.197 440.153 609.786 440.89 610.228C442.3 611.069 443.226 612.962 440.911 614.498L441.395 616.012C443.478 616.138 445.583 616.601 448.93 615.36L445.225 612.079C442.742 609.87 450.087 590.959 468.252 591.633C476.671 591.948 471.598 607.535 477.197 609.66C481.175 611.174 483.49 601.456 485.553 601.561C484.859 601.519 502.055 613.341 507.106 624.91C506.622 610.333 504.728 595.566 495.93 588.751C494.056 594.577 490.415 595.966 485.616 595.208C477.05 593.862 476.966 579.159 470.335 569.104C468.652 566.559 470.062 563.488 471.788 562.352C475.471 559.933 480.186 564.518 486.606 563.151L475.092 542.431C464.589 544.766 460.569 555.536 456.002 548.868C453.245 544.851 464.61 535.195 456.339 530.484C451.203 527.56 437.943 531.935 437.732 537.278C440.237 548.027 430.113 561.826 426.872 561.7C424.956 561.615 421.02 557.261 418.852 557.703C415.779 558.334 411.97 566.664 407.55 562.814C403.866 559.617 404.414 553.075 407.592 548.321C402.898 546.197 399.657 545.566 396.016 541.779C397.11 535.7 402.667 531.788 408.876 532.924C411.338 525.688 416.432 523.521 423.799 525.73L413.654 514.476C411.38 511.952 418.074 497.059 422.683 494.219C426.009 492.158 428.934 493.02 434.28 494.156L424.493 483.197C419.905 474.867 427.187 471.691 431.229 466.579C433.944 463.129 434.596 458.333 439.269 458.249C444.489 458.165 451.224 471.564 450.719 482.734C451.813 486.31 460.864 488.266 456.991 496.827C455.665 499.73 454.297 506.335 450.908 509.028C447.814 511.489 443.521 512.141 442.447 517.358C453.308 518.788 461.643 522.974 469.262 530.252C470.378 525.856 469.052 523.1 468.252 519.756L478.123 510.437L488.963 519.251L483.554 542.116C487.026 546.028 490.373 551.855 492.92 557.703C491.468 533.828 488.037 513.109 493.93 488.834C489.152 488.834 486.521 488.603 484.774 486.415C482.501 483.575 482.059 478.401 479.597 476.781C477.534 475.435 473.808 476.76 472.482 475.351C470.735 473.478 469.031 470.197 469.767 467.778C470.314 465.99 476.587 465.317 477.281 463.571C479.807 457.345 475.64 439.633 485.574 439.318C491.615 439.128 491.489 448.257 495.951 455.578C498.203 454.168 499.739 455.557 500.602 455.956C501.402 456.314 499.866 452.107 500.034 451.244L505.296 424.972C506.222 420.302 510.411 420.281 511.358 418.451L527.228 387.508L514.283 382.712C511.674 376.654 508.201 373.036 507.169 365.611C511.989 361.677 519.482 351.202 526.618 351.559C536.72 352.064 537.436 365.737 538.173 374.635C539.836 363.234 546.571 355.072 551.643 345.165C557.916 332.922 555.958 317.209 555.495 305.03C544.319 325.034 543.161 313.233 542.382 284.415C542.993 282.859 545.413 280.524 544.424 279.514C542.403 277.453 540.404 276.548 539.225 273.351C546.045 273.793 550.507 276.443 556.484 279.325C555.348 283.111 554.906 287.003 558.968 289.295C562.841 281.05 556.211 275.118 553.327 267.945C551.707 263.906 550.107 260.919 546.466 260.646C540.13 260.162 538.341 267.061 534.026 267.23C531.164 267.335 525.923 259.994 513.568 255.597L506.264 236.792C505.296 234.289 508.958 226.947 511.421 227.515C521.082 231.007 529.248 234.52 533.311 229.976C543.498 233.826 544.992 244.974 547.876 255.955C552.296 238.916 539.604 225.769 529.438 213.801C527.48 211.487 529.501 206.649 530.469 204.545C520.892 202.063 514.452 193.922 517.483 184.415C509.59 181.428 504.496 178.609 498.729 171.162C495.803 179.85 491.489 184.751 485.637 191.777C480.354 190.01 477.45 186.139 474.187 179.008C467.368 192.282 445.667 190.346 442.552 183.783C440.616 179.661 446.573 176.737 447.625 174.255C451.414 165.441 455.602 161.276 465.915 161.844C463.453 157.805 460.212 152.063 461.811 147.75C464.632 140.157 474.65 140.136 480.375 145.668C484.838 149.98 487.447 155.239 495.172 155.744C496.835 155.849 498.792 157.889 498.687 158.92L498.245 163.548C501.339 169.185 507.632 171.878 514.052 174.36L506.559 148.907C501.886 151.263 498.287 151.894 494.099 151.684C491.215 151.537 482.691 138.874 485.385 134.646C486.605 132.71 489.447 131.238 492.815 129.66C488.921 124.507 480.27 117.986 481.344 109.761C481.87 105.617 491.047 100.001 484.816 94.153C481.638 91.187 478.25 85.9914 479.323 81.8264C480.165 78.566 484.227 72.8234 488.479 73.7279C501.276 76.4415 507.064 87.6742 508.516 99.0962C509.906 85.4234 521.798 80.1226 522.113 69.3316C518.64 72.1503 516.367 75.8314 512.705 75.8946C504.033 76.0418 504.223 55.9533 496.182 42.4698C499.445 38.4521 502.455 36.9586 506.517 34.3713L520.935 44.1106C523.166 45.6251 521.145 53.8919 526.681 54.3757C525.649 49.0538 528.007 36.0962 534.447 36.2855C539.751 36.4328 545.455 46.9293 544.087 51.0311C543.203 52.4825 538.489 55.0909 540.025 56.7737C547.055 64.5987 548.865 53.6184 567.303 58.7299C565.914 53.7657 559.284 51.7884 559.81 48.9276C562.525 33.8454 577.217 42.3436 593.15 36.4538C598.391 34.5186 597.528 27.0511 594.897 22.2551C593.697 20.0885 596.496 14.0725 592.687 11.8427C586.962 8.47714 580.647 5.2167 577.048 0.168281H627.521L626.932 0ZM608.01 220.868C613.103 225.833 618.976 233.321 613.208 240.452C607.904 247.015 608.241 255.913 609.083 264.39C609.251 266.01 605.736 269.459 609.757 271.416L632.467 241.251C634.909 238.012 633.583 230.713 632.299 227.431C629.899 221.268 618.534 223.245 618.26 213.38C618.176 210.351 618.618 207.238 622.722 205.996C625.606 211.297 630.489 219.796 637.708 218.113C645.475 216.304 636.803 194.974 647.979 184.162C653.41 188.285 645.959 195.121 648.969 199.77C653.557 206.859 654.378 190.704 662.545 179.85C667.175 182.9 666.649 186.476 667.807 191.461L670.185 177.62C675.742 180.649 676.794 185.74 676.71 189.905C676.626 194.427 667.807 203.073 665.954 201.663C665.007 200.948 665.091 197.54 663.555 195.395C662.502 201.348 660.65 207.09 655.746 211.697C646.19 220.679 642.928 232.816 637.771 243.965C643.938 244.322 643.475 238.222 644.928 236.918C662.629 221.037 661.408 198.192 676.12 209.783C680.646 208.899 686.834 205.323 689.759 201.621C689.675 198.908 690.875 190.83 693.906 191.062C701.841 196.152 696.895 205.092 697.295 213.464C703.377 206.438 707.84 198.676 708.303 190.83L709.734 166.913C713.186 157.405 720.216 149.307 718.953 138.537C717.458 140.43 716.659 146.004 713.123 146.404C710.955 146.636 707.145 147.33 704.935 145.584C706.051 142.26 706.935 140.598 706.135 139.652C705.146 138.453 700.115 138.621 698.936 138.243C699.168 136.728 700.999 133.552 700.073 131.911C699.147 130.27 697.232 129.071 693.906 127.473C696.305 125.032 699.294 123.223 699.968 120.194C695.379 118.911 693.001 119.795 691.001 121.688C690.159 122.487 691.043 124.759 691.591 126.168C691.17 132.858 693.78 135.929 695.842 141.356C697 144.385 689.696 145.521 687.465 143.985C683.887 145.71 682.035 147.182 680.183 145.142C673.931 138.243 681.298 132.184 678.33 130.502C672.605 127.262 660.335 129.324 660.924 121.351C661.492 113.842 671.364 114.305 679.657 103.976C686.013 108.941 693.085 103.871 697.905 103.156C704.809 107.721 707.524 120.131 703.904 128.861C707.398 131.217 709.229 126.736 711.039 125.18C714.07 122.571 710.471 120.594 709.502 117.334C707.861 111.801 707.692 102.357 701.483 99.9376C696.095 97.8341 689.338 98.7597 686.329 91.4815L694.516 82.163L706.661 88.4104C710.407 84.6662 714.259 81.574 715.269 78.4188C716.553 74.38 710.197 49.7269 698.431 44.1737C698.915 47.2658 698.389 53.0715 695.905 53.9339C681.593 58.9403 678.225 38.8097 676.289 38.1787C675.3 37.8631 673.068 41.0184 671.469 41.2077C666.88 41.7546 662.608 34.4555 663.239 30.8585C664.102 26.0204 666.944 21.9185 671.195 19.7519C665.912 17.4591 660.629 19.7519 656.251 20.6985C648.779 13.8621 640.655 19.2681 632.972 22.9072C625.879 26.2728 620.07 29.5543 615.208 37.2952C613.545 39.9456 602.684 39.1042 606.578 48.1493C609.062 42.7012 614.177 39.3566 619.607 40.0718C623.353 40.5767 631.331 44.4681 632.236 49.5586C633.962 59.1296 622.027 67.6909 612.808 64.788C611.546 67.6067 611.735 69.1844 612.808 71.4562C617.502 68.7216 624.301 65.377 630.194 68.2378C634.383 70.2571 640.697 76.9673 640.528 81.2375L628.994 91.9864C630.005 96.0672 634.467 99.1804 634.825 102.188C635.309 106.101 627.058 118.217 624.069 115.567L618.87 110.939C612.914 110.939 606.894 108.835 605.294 100.442L594.202 111.423C579.342 94.153 591.234 82.4154 590.666 81.2375L587.993 75.8314C582.247 81.5951 575.301 81.1533 569.092 78.0191C564.062 75.4949 562.146 68.0064 560.02 62.9159C543.456 64.6198 540.909 79.5126 534.784 81.6371C532.679 82.3523 528.596 79.5547 525.902 80.2488C520.661 81.574 515.188 90.0301 514.41 95.0365C522.155 108.878 512.852 119.879 516.43 121.898C520.324 124.086 518.619 113.211 528.112 113.042L524.05 109.151C524.702 105.596 528.554 103.072 531.038 103.072C532.995 103.072 538.046 104.229 539.162 106.879C543.182 116.555 539.73 128.608 533.669 136.181C532.153 133.846 530.49 132.773 529.985 133.362L527.27 136.455C524.113 140.073 513 136.686 513.42 131.322C513.61 128.966 515.694 126.21 515.294 125.032C514.894 123.855 511.421 123.35 510.158 124.002C508.011 125.096 510.874 134.141 514.662 143.228C514.789 158.899 517.42 172.151 524.976 187.086C526.154 184.961 526.197 182.206 525.733 178.02C534.658 180.018 531.143 188.874 533.184 193.88L550.107 235.425C555.895 229.114 555.011 224.024 557.263 218.365C575.764 210.582 568.755 195.521 572.102 192.092C577.09 187.002 574.859 216.009 581.468 228.041C587.804 239.59 570.671 264.853 560.252 257.175C556.505 254.419 557.053 245.416 553.832 241.546C552.254 251.832 557.116 260.288 562.209 268.281C565.409 273.309 563.178 279.83 564.209 286.056L571.218 274.971C573.302 280.355 581.363 280.271 584.899 283.258C589.172 287.066 586.288 295.248 587.151 300.654C599.443 290.137 598.517 277.684 596.581 260.54C593.95 266.136 588.161 276.758 581.91 276.716C574.691 274.676 575.512 265.967 578.774 260.456C580.879 256.88 582.1 252.757 591.15 253.094C583.089 247.457 583.91 245.059 583.973 239.716C584.057 231.638 587.698 230.439 591.613 225.538C597.296 218.428 597.233 206.459 597.57 198.235C607.673 193.859 600.643 206.144 607.925 220.805L608.01 220.868ZM405.929 1162L403.151 1178.83C402.793 1180.97 398.415 1183.6 400.393 1187.91L428.64 1165.64C433.312 1161.96 431.523 1155.46 427.882 1151.14L421.126 1143.09C422.704 1153.46 415.064 1158.8 407.15 1160.25C406.75 1160.36 406.076 1161.01 405.908 1162H405.929ZM292.376 1256.78C296.438 1263.62 298.122 1268.52 303.237 1272.6C304.457 1273.23 306.204 1268.04 305.152 1266.69C304.31 1265.64 302.563 1264.84 300.69 1263.79C294.965 1255.16 295.87 1246.14 293.344 1236.48C292.165 1231.92 284.63 1227.67 290.966 1221.17C280.294 1225.97 280.8 1210.74 267.118 1215.72C260.551 1218.1 262.235 1233.6 264.656 1234.97L269.16 1237.51C273.243 1233.52 275.369 1228.81 282.02 1226.89C281.789 1235.87 278.421 1242.79 275.053 1250.56L287.43 1263.2C288.945 1259.79 289.892 1257.94 292.355 1256.8L292.376 1256.78ZM229.485 2101.68L232.326 2091.9C232.747 2090.44 236.62 2089.41 237.567 2090.63C240.114 2093.94 242.745 2097.39 241.693 2100.18C238.346 2109.1 226.538 2113.27 229.422 2124.84C231.611 2133.65 226.412 2138.47 223.318 2147.95C247.944 2123.49 265.603 2093.24 276.611 2058.49L281.978 2028.27C289.892 2010.2 272.886 1997.34 283.999 1992.44C284.041 1996.31 282.988 1999.4 285.704 2003.07L287.998 1978.43C286.588 1970.27 290.671 1969.96 292.334 1965.88C295.743 1957.57 295.912 1943.79 293.365 1934.91C290.524 1931.19 287.03 1927.89 284.357 1922.29L278.821 1910.68C276.843 1915.58 268.697 1924.02 263.772 1921.81C255.479 1918.06 248.849 1910.47 251.017 1902.35C252.743 1895.87 260.278 1891.52 265.098 1888.36L257.331 1883.71C251.817 1888.51 243.04 1894.99 236.389 1891.79C228.369 1887.94 223.086 1882.16 222.118 1873.99L201.26 1889.05C195.029 1893.56 183.453 1896.48 180.064 1905.59C189.999 1923.05 171.919 1929.76 173.182 1935.5L182.169 1976.06C183.79 1968.06 183.39 1961.6 188.862 1955.76C190.441 1956.18 192.293 1957 192.967 1956.22C193.83 1955.23 194.209 1952.06 193.514 1951.3C192.862 1950.58 190.967 1950.01 189.494 1950.35C182.422 1951.93 178.528 1948.58 177.16 1942.74C176.129 1938.32 179.391 1934.97 182.632 1930.77C185.874 1926.56 185.979 1921.18 191.136 1919.2C194.63 1917.85 202.249 1914.42 204.733 1920.63C208.711 1930.58 202.123 1942.08 195.282 1950.08C204.122 1949.61 212.668 1935.79 217.319 1944.46C221.108 1951.51 210.163 1955 218.224 1966.27L212.036 1983.23C205.848 1984.45 199.428 1983.94 193.051 1989.92C191.051 1982.64 188.715 1978.5 182.969 1975.4C183.222 1986.41 188.231 1993.96 190.294 2003.09C196.798 1993.58 200.881 1985.31 202.059 1991.52C203.343 1998.27 192.883 1999.78 202.48 2023.45L222.202 2072.06C226.286 2082.14 231.695 2089.98 229.422 2101.61L229.485 2101.68Z" fill="var(--fill-0, #F3EEE1)" fill-opacity="0.52"/>
</svg>
