<svg width="1920" height="1080" viewBox="0 0 1920 1080" fill="none" xmlns="http://www.w3.org/2000/svg">
<g clip-path="url(#clip0_663_2497)">
<rect width="1920" height="1080" fill="url(#paint0_linear_663_2497)"/>
<path d="M1920 395.535C1918.25 396.562 1916.64 397.742 1915.11 399.382C1913.96 400.623 1915.73 403.796 1915.14 405.881C1911.17 420.258 1906.75 433.546 1920 441.47L1920 459.848L1903.53 454.161C1907.59 450.513 1910.67 450.237 1913.67 448.628L1905.57 436.658C1903.36 438.941 1902.07 442.221 1901.49 446.022C1904.69 446.298 1905.57 444.566 1907.5 442.666C1908.06 448.199 1903.87 450.161 1900.96 452.935C1894.49 459.081 1888.71 456.583 1887.17 459.725C1886.71 460.645 1888.47 463.189 1887.38 464.369L1884.87 467.113C1882.78 469.381 1891.53 469.734 1893.11 472.017C1893.69 472.86 1893.46 474.577 1892.96 476.462C1901.72 480.355 1910.87 482.823 1919.97 482.808L1919.97 516.497C1917.38 518.566 1913.3 518.597 1911.31 516.573C1908.97 514.182 1908.62 510.887 1909.7 506.703C1903.19 503.407 1896.3 508.864 1892.42 506.626C1890.98 505.798 1889.54 503.837 1889.13 500.051L1869.1 506.779C1864.51 508.327 1860.4 507.99 1855.73 511.056C1854.35 499.79 1871.17 496.418 1865.49 487.682C1863.65 484.877 1860.23 481.229 1855.62 485.015C1863.94 495.943 1854.33 501.292 1853 511.04C1859.46 513.063 1865.1 511.776 1871.16 510.473C1874.59 509.722 1884.68 514.719 1885.62 517.968C1886.09 519.639 1885.33 521.509 1884.71 524.421C1889.82 523.149 1895.5 524.007 1897.14 529.096C1896.14 530.874 1893.83 532.836 1895.21 534.322C1900.07 539.533 1903.85 538.108 1904.56 540.346C1904.91 541.434 1903.59 543.687 1901.49 544.591C1907.3 548.362 1918.44 550.293 1915.08 555.152C1911.39 560.486 1907.47 556.133 1904.42 555.06C1899.45 553.297 1902.55 548.745 1900.07 546.017L1885.2 529.678C1883.09 527.364 1880.46 525.203 1881.01 521.846L1862.39 516.022C1857.34 514.443 1853.58 515.24 1850.23 517.968C1846.5 520.988 1846.82 525.325 1846.06 530.215C1845.23 535.518 1843.38 539.763 1849.8 543.319C1847.51 545.097 1843.5 548.469 1843.91 551.565C1845.02 559.842 1852.51 564.271 1858.06 569.146C1861.56 572.226 1863.39 573.912 1867.91 572.272C1873.51 570.249 1874.65 575.522 1876.9 578.265C1879.15 581.009 1888.88 582.358 1887.1 587.937C1885.79 592.09 1878.31 589.316 1875.25 588.979C1866.44 588.013 1858.58 586.143 1852.86 578.771C1852.68 585.239 1852.6 588.918 1850.93 594.88L1858.41 587.615C1862.93 590.803 1866.64 591.784 1871.68 592.489C1875.55 593.041 1881.44 597.516 1879.66 601.486C1877.73 605.808 1872.07 605.578 1867.59 607.571C1873.16 608.107 1873.74 611.433 1876.12 615.755C1878.49 620.078 1882.45 623.097 1878.68 627.695C1872.07 635.757 1865.18 625.994 1863.39 629.105C1861.24 632.83 1861.79 639.237 1855.63 641.52C1849.93 643.636 1844.01 634.347 1841.48 637.643L1839.04 640.831L1831.12 649C1828.24 645.23 1825.85 641.214 1827.14 637.612C1828.26 634.485 1830.22 631.558 1832.84 628.692C1828.81 626.193 1825.11 625.09 1821.94 621.764C1821.84 615.127 1826.77 610.498 1832.82 609.073C1826.14 607.847 1820.82 606.038 1816.78 600.811C1820.9 596.367 1826.74 595.125 1831.64 593.485C1830.98 586.389 1839.27 585.316 1846.17 575.46C1842.87 569.161 1840.88 563.888 1839.36 556.761C1830.57 562.586 1843.91 570.74 1834.48 575.92L1821.73 569.697C1819.29 570.525 1820.15 574.142 1823.41 572.426C1822.52 575.506 1821.8 579.001 1819.72 581.867C1818.22 583.936 1814.86 581.499 1814.94 579.461C1814.99 578.219 1814.19 576.503 1815.86 574.158C1816.87 571.659 1813.39 571.015 1813.93 574.234C1808.7 575.859 1804.87 579.829 1800.16 581.959C1798.38 582.756 1793.08 581.821 1793.2 584.994L1796.92 588.304C1803.62 594.282 1784.31 590.895 1779.89 593.853C1769.34 600.903 1764.41 604.229 1752.74 595.094C1757.13 595.202 1759.22 592.749 1762.33 591.768L1780.79 585.913C1772.7 585.576 1765.87 585.438 1760.84 576.993C1767.03 576.457 1770.34 572.226 1774.51 570.648C1782.18 567.735 1789 573.269 1792.34 580.319C1797.83 573.253 1805.01 574.74 1811.43 570.632C1805.03 571.107 1798.59 561.237 1799.02 560.21C1801.3 554.615 1807.46 563.122 1824.82 556.393C1832.65 553.359 1837.62 549.052 1840.02 540.53L1844.79 523.593C1839.36 526.107 1834.78 526 1831.67 527.961C1824.46 532.498 1817.59 538.062 1808 536.238C1808.06 527.256 1815.52 528.283 1823.4 524.881C1808.67 518.121 1806.07 529.954 1795.85 530.215C1795.05 530.23 1793.12 531.885 1793.02 532.652C1792.94 533.157 1794.7 533.786 1795.62 533.755C1799.07 533.679 1801.29 535.64 1800.65 538.752C1800.31 540.361 1798.64 541.756 1795.93 542.967C1797.05 543.672 1799.04 545.281 1798.84 546.277C1797.83 551.044 1783.64 552.592 1773.43 543.871L1789.05 538.001C1789.22 540.085 1790.87 541.403 1792.05 540.944C1793.67 540.315 1790.6 539.35 1791.21 535.579L1777.79 534.521C1780.84 523.195 1794.35 533.479 1799.04 522.474C1794.38 522.827 1790.3 523.838 1786.6 520.42C1799.21 509.416 1803.02 521.509 1809.95 516.359C1816.87 511.209 1825.82 523.363 1840.99 518.735C1842.5 507.3 1848.25 498.763 1846 489.046C1840.44 491.422 1844.3 500.296 1838 499.606C1832.05 498.962 1830.78 491.973 1822.02 490.272L1819.2 482.532C1815.34 481.152 1811.85 480.187 1809.3 476.707C1811.86 473.489 1814.31 468.584 1812.06 465.105C1810.44 463.02 1806.27 462.668 1804.15 461.825C1803.91 464.17 1802.64 465.917 1801.3 466.116C1796.66 466.852 1793.92 459.786 1791.77 461.534C1788.28 464.369 1785.22 465.273 1781.36 464.384C1781.17 464.676 1780.88 464.982 1780.59 465.304C1783.95 465.718 1785.65 469.703 1788.13 471.925C1790.04 471.619 1794.04 469.396 1794.92 471.404C1798.18 478.976 1798.91 486.655 1793.23 492.51C1791.44 491.835 1790.29 490.303 1789.86 489.659C1793.44 487.099 1791.84 484.11 1791.33 482.103C1789.4 474.301 1775.49 479.604 1772.82 467.695C1772.36 465.641 1773.68 464.246 1774.43 463.618C1775.72 462.514 1777.79 462.499 1779.43 464.139L1780.57 463.679C1780.57 462.53 1779.36 460.077 1777.63 459.894C1770.95 459.204 1753.26 449.394 1755.14 441.792C1755.85 439.769 1760.47 438.466 1762.2 437.7L1749.76 431.002C1747.66 429.868 1745.8 435.585 1746.84 437.485L1749.86 443.003C1751.39 445.823 1748 447.003 1746.33 446.022C1743.14 444.168 1742.53 440.167 1739.87 438.512C1738.41 437.623 1735.44 438.711 1735.5 440.229L1735.91 448.95C1735.97 450.253 1738.32 452.077 1737.22 453.87L1734.53 458.238C1739.16 458.146 1742.47 458.545 1745.98 460.936L1735.99 471.604C1738.82 472.324 1740.23 471.22 1742.52 470.117C1746.06 473.642 1745.67 477.152 1744.23 481.673C1748.87 480.248 1753.15 478.915 1755.68 480.463C1757.73 481.735 1761.12 484.294 1762.11 487.774C1763 490.9 1758.25 493.537 1755.63 493.199C1753.01 492.862 1751.37 490.287 1749.14 487.314C1746.06 492.356 1738.99 500.602 1732.24 498.886C1727.76 497.752 1730.41 488.417 1733.4 486.425C1736.66 484.248 1737.51 480.463 1734.86 477.658C1731.48 481.489 1722.08 480.187 1722.49 475.42L1731.58 459.602C1725.69 462.852 1714.75 457.349 1714.83 457.472C1714.09 456.46 1715.29 447.831 1719.78 445.593C1722.34 444.306 1724.76 445.777 1728.76 445.915C1725.17 443.524 1724.21 440.995 1723.49 437.071C1721.14 438.374 1719.21 438.512 1717.88 437.715C1716.55 436.918 1715.72 434.803 1716.61 433.546L1719.4 429.53C1716.68 427.752 1713.33 427.906 1711.03 424.503L1722.23 418.464C1725.75 416.564 1726.67 411.184 1732.22 410.356L1735.44 418.74C1742.55 419.537 1738.23 415.123 1731.26 403.536C1725.48 393.925 1716.15 388.132 1707.69 381.204C1704.83 378.843 1701.75 377.357 1698.28 378.399L1695.54 375.87C1695.28 375.625 1693.52 377.449 1693.32 378.184C1692.71 380.514 1698.65 380.683 1703.31 388.009C1705.02 390.691 1701.01 402.876 1699.45 404.302C1696.89 406.647 1693.44 407.107 1690.45 406.065C1685.89 404.471 1684.42 400.608 1681.03 396.654C1677.83 400.547 1667.43 400.286 1666.41 395.381C1665.11 389.082 1671.95 381.909 1676.13 378.629L1682.64 380.422C1681.61 375.303 1677.34 377.249 1674.67 376.115C1671.53 374.782 1670.08 369.877 1666.8 368.237L1670.4 361.003C1665.08 352.557 1649.68 340.357 1649.59 340.372C1648.04 340.418 1646.86 340.096 1645.82 341.307C1649.35 343.545 1649.38 346.764 1647.37 349.86L1653.71 357.248C1650.6 357.907 1645.55 360.052 1646.37 363.486C1647.2 366.919 1651.77 370.981 1650.02 375.196C1647.09 382.261 1641.43 370.812 1634.07 363.256C1632.23 359.409 1638.65 355.562 1639.63 352.925C1637.53 347.362 1632.16 359.087 1618.73 360.558C1618.03 364.298 1617.91 367.21 1618.73 371.134C1621.86 370.751 1626.24 370.705 1627.97 373.77C1629.7 376.836 1629.81 382.752 1628.46 385.848C1626.52 387.626 1621.38 385.756 1620.14 383.856C1618.69 381.648 1618.17 379.242 1618.29 375.518C1611.38 378.721 1621.31 384.545 1613.05 391.151C1610.57 393.128 1600.93 390.875 1600.03 388.638C1599.21 386.63 1600.88 385.174 1601.77 383.764C1608.18 373.617 1618.38 374.291 1616.85 370.337C1616.54 369.54 1615 368.973 1614.6 369.479L1612.74 371.885C1605.37 376.391 1594.66 375.042 1588.52 368.206C1592.14 365.018 1591.85 359.899 1593.53 357.278L1602.59 352.297C1607.83 349.415 1614.15 352.174 1617.55 357.048C1623.85 351.239 1627.85 353.922 1631.57 346.748C1632.11 345.722 1631.07 343.637 1629.21 343.499C1625.26 345.538 1622.07 347.254 1617.8 346.58C1614.49 346.043 1611.1 344.357 1609.33 339.621L1617.49 330.302C1619.26 328.279 1622.41 326.011 1624.69 327.068C1632.06 330.471 1629.86 337.782 1634.36 341.951L1641.32 335.069C1629.31 325.735 1615.96 317.949 1601.04 313.397C1603.52 316.952 1610.06 319.451 1607.04 322.823C1604.32 325.858 1599.81 321.872 1598.39 319.19C1593.62 310.239 1584.17 307.296 1575.22 305.534L1550.81 300.706L1562.84 309.672C1565.49 307.189 1568.2 306.423 1570.98 307.373C1572.69 307.971 1576.37 309.795 1575.39 312.6C1573.69 317.458 1568.82 320.217 1564.83 321.244C1574.24 325.198 1573.21 317.412 1577.8 317.228C1579.17 317.167 1582.35 317.274 1582.65 319.865C1582.88 321.857 1577.46 322.394 1575.93 322.532C1576.02 325.398 1577.76 327.727 1579.45 324.202C1581.6 323.65 1586.61 325.766 1587.49 328.141C1588.86 331.804 1586.28 334.747 1584.38 336.249C1581.79 338.288 1578.52 336.479 1575.67 336.709C1571.73 337.016 1569.26 337.767 1566.67 333.904C1565.32 338.794 1568.39 341.077 1570.43 343.959C1570.76 344.449 1566.96 358.137 1561.65 358.351C1558.58 358.474 1555.84 353.431 1554.72 351.101C1554.17 354.673 1553.04 357.186 1550.28 357.477C1541.58 358.412 1545.24 345.798 1533.72 339.897C1540.76 334.732 1548.68 330.394 1557 328.187C1554.2 315.282 1547.77 329.061 1540.95 323.742C1538.3 321.673 1537.9 317.428 1540.44 313.948C1542.48 311.159 1545.25 312.308 1549.91 312.155C1540.96 307.404 1531.06 303.066 1520.62 302.867C1513.46 302.729 1506.55 307.097 1499.84 309.09C1484.1 313.78 1468.48 313.887 1452.93 316.799C1461.46 317.581 1469.06 317.198 1476.03 322.133C1480.01 324.953 1484.4 327.344 1489.27 328.08C1491.08 323.589 1494.43 320.861 1497.47 319.604C1504.11 316.845 1512.97 324.263 1512.74 327.39C1512.6 329.352 1511.59 331.283 1509.74 333.72C1514.36 335.468 1521.04 339.116 1521.99 344.894C1522.84 349.952 1516.22 350.396 1513.6 351.745C1508.11 354.565 1505.2 353.217 1499.33 349.293C1501.94 354.78 1506.72 357.37 1508.56 363.225C1507.41 365.432 1504.22 367.455 1503.92 369.111C1506.26 375.027 1503.21 379.656 1500.21 379.595C1494.16 379.472 1488.38 365.57 1488.32 365.846C1488.62 364.451 1490.03 362.888 1489.76 360.236L1482.53 361.907C1478.65 355.086 1482.37 348.833 1488.12 344.633C1488.12 341.583 1485.27 336.219 1482.14 336.188L1471.13 343.346C1468.95 344.756 1462.7 338.61 1462.78 335.79C1462.87 332.218 1463.53 329.122 1462.23 324.355C1467.19 327.498 1470.36 329.812 1474.91 327.16C1468.52 324.524 1464.29 321.428 1457.46 322.194C1459.01 323.988 1461.05 325.413 1460.69 328.034C1452.77 329.536 1446.97 324.647 1443.47 317.903L1429.93 315.895C1431.11 317.995 1432.59 318.24 1434.82 319.313C1429.99 325.949 1417.84 328.448 1411.34 324.754C1408.55 323.175 1405.6 318.945 1405.43 314.853L1414.96 311.925C1401.25 310.025 1388.93 304.706 1376.87 297.226C1373.61 295.203 1369.65 295.05 1366.48 292.276C1362.51 288.796 1356.49 287.938 1352.32 285.716C1349.03 276.397 1340.63 273.255 1333.79 268.197C1321.96 259.46 1313.07 248.363 1303.91 236.117L1299.99 248.133C1308.29 255.138 1315.08 253.053 1320.23 267.89C1314.39 270.388 1312.93 274.925 1313.84 280.888C1306.79 281.516 1302.67 275.937 1299.34 270.051L1292.49 278.129C1289.28 281.93 1281.11 283.539 1276.16 282.941C1268.36 282.006 1275.78 269.193 1275.07 268.028L1272.81 264.304C1282.31 253.36 1287.76 261.116 1289.58 257.376C1290.15 256.211 1292.91 254.77 1291.28 252.456C1286.61 254.694 1281.51 256.211 1278 253.636L1267 245.513L1282.54 235.427C1287.01 232.53 1292.88 237.175 1297.58 241.865C1298.64 231.58 1294.81 223.687 1290.73 215.226C1288.94 211.486 1288.59 206.919 1285.65 202.995C1277.71 192.358 1269.41 181.66 1258.54 173.643C1254.57 170.716 1250.16 169.72 1245.26 164.968C1246.59 178.977 1248.51 196.558 1240.97 196.558C1236.97 196.558 1232.2 193.538 1231.21 190.795C1230.73 189.507 1233.69 186.656 1233.74 185.261C1233.92 179.851 1227.09 180.878 1224.21 180.112C1217.66 178.364 1216.56 167.651 1220.02 163.267C1215.55 161.872 1212.24 166.654 1209.71 168.586L1193.1 165.597C1190.85 165.198 1188.78 163.328 1188.51 161.78C1187.76 157.565 1195.51 154.714 1190.65 152.185C1178.3 159.236 1179.01 139.173 1162.32 137.088C1152.96 135.923 1142.59 141.809 1136.06 150.791C1140.4 148.568 1143.97 150.147 1147.8 150.132L1155.83 140.092C1159.04 138.299 1161.13 140.797 1161.62 142.759C1162.14 144.89 1162.63 146.944 1160.79 150.07C1164.07 150.591 1169.37 151.342 1171.27 155.266C1172.51 157.841 1168.33 160.447 1165.34 160.033C1166.46 162.7 1168.1 165.045 1165.59 166.762C1167.27 166.976 1168.7 167.559 1169.02 168.248C1169.34 168.938 1168.45 170.501 1168.61 171.911L1173.03 168.938C1176.43 170.256 1178.07 174.057 1179.39 177.766C1182.72 175.621 1188.28 177.46 1189.12 182.257C1189.87 186.534 1182.56 190.335 1177.57 188.649C1179.51 193.063 1181.44 196.128 1181.97 200.727C1179.53 202.321 1175.73 205.34 1173.09 205.064C1167.36 204.451 1165.34 198.811 1162.23 195.101C1160.94 193.569 1158.77 192.496 1158.17 190.488C1157.76 189.109 1163.55 186.35 1155.97 175.146C1159.76 175.253 1161.91 175.023 1164.01 172.402C1160.3 172.31 1160.55 169.015 1159.5 168.248C1157.54 166.808 1154.69 166.991 1153.21 163.941C1153.21 170.18 1149.71 172.647 1146.44 176.111C1148.38 179.207 1150.59 182.87 1148.98 185.476C1147.03 188.633 1143.95 190.473 1140.25 187.515C1139.19 186.672 1138.04 184.618 1136.69 184.51C1133.07 184.204 1128.33 189.568 1123.02 185.967C1121.22 184.725 1120.14 180.556 1121.02 177.996C1121.6 176.28 1126.43 175.314 1126.2 173.168L1125.52 166.854C1125.41 165.811 1128.19 164.784 1129.2 163.573C1132.14 160.094 1135.31 159.88 1139.57 158.316L1144.72 156.446C1144.72 156.446 1148.67 164.524 1163.84 162.317C1160.12 161.106 1158.22 156.707 1154.79 154.883C1148.04 151.296 1139.2 154.377 1132.35 155.358C1127.94 155.987 1127.67 159.297 1125.35 160.815C1117.65 165.903 1108.39 163.727 1099.21 164.524C1106.17 168.31 1116.54 166.945 1116.51 174.18C1116.5 177.199 1114.86 179.575 1112.1 181.598L1107.26 185.123C1106.22 185.89 1103.63 183.269 1102.16 183.438C1095.86 184.189 1090.62 181.843 1086.9 176.694L1094.77 166.578C1093.24 163.849 1088.6 163.19 1086.08 165.076C1087.05 166.547 1087.14 168.647 1086.34 168.938C1085.79 169.137 1083.8 168.402 1083.07 168.34C1078.58 167.926 1075.6 165.183 1076.25 160.094C1070.47 158.025 1066.44 154.852 1063.82 149.396L1046.37 151.91C1049.7 153.488 1057.13 157.412 1054.64 161.305C1049.89 168.785 1035.58 167.022 1031.42 158.362C1030.05 159.834 1030.24 161.658 1027.1 163.328C1024.97 160.999 1021.83 156.722 1018.15 157.029C1009.34 157.765 998.936 161.213 992.991 167.834C988.517 172.8 984.549 176.448 979.83 181.123L965.918 194.948C973.349 192.358 978.757 193.783 986.295 195.132C984.196 191.454 978.298 192.802 976.245 191.362C972.598 187.959 979.186 185.445 981.316 184.035C986.924 180.326 993.451 177.061 1000.15 181.246C1003.18 183.146 1005.09 190.764 1000.74 192.848C998.415 193.967 993.374 191.806 992.255 196.42C1002.54 195.929 1012.14 201.478 1020.13 204.236C1020.98 203.961 1021.21 203.623 1021.37 203.332L1024.78 196.772C1020.8 197.171 1014.46 195.163 1015.54 190.488C1016.34 187.039 1020.94 183.928 1022.81 181.108C1038.91 179.958 1044.21 202.29 1052.59 205.386C1054.06 205.922 1053.77 209.371 1052.93 210.337C1048.88 214.981 1038.45 208.022 1036.11 207.149C1031.98 205.601 1026.19 206.505 1022.18 204.068L1021.41 204.819C1024.15 207.976 1028.46 209.187 1032.23 211.624C1041.05 217.356 1048.58 224.928 1059.82 225.894C1057.28 221.526 1057.1 215.962 1060.25 213.188C1063.07 210.689 1067.65 211.67 1071.67 213.785C1071.76 208.865 1072.82 205.953 1074.87 203.194C1076.65 200.803 1081.55 199.792 1084.23 202.811C1086.31 205.156 1087.78 212.13 1086.24 215.211C1084.46 218.782 1080.84 221.081 1083.39 225.817C1086.16 216.958 1094.57 211.011 1099.48 214.015C1100.29 214.506 1101.83 216.069 1100.88 217.724L1096.27 225.802C1107.66 223.901 1117.48 222.506 1117.2 228.883C1106.38 235.979 1103.52 242.999 1088.66 238.309C1087.08 235.642 1085.82 232.837 1082.36 232.408C1087.52 230.936 1091.28 229.955 1094.5 227.687C1091.42 226.476 1089.59 225.802 1088.44 226.231C1087.57 226.553 1086.57 227.595 1085.39 228.959L1081.53 226.338C1078.38 229.465 1075.71 230.952 1074.91 234.017L1075.68 234.891C1082.04 232.868 1085.85 241.435 1089.3 244.44C1092.69 242.876 1097.74 240.439 1103.09 245.252L1110.37 251.797C1111.53 252.839 1114.08 254.648 1113.19 256.671C1111.13 261.376 1105.3 259.154 1100.07 265.76C1092.49 268.243 1084.9 262.204 1079.04 258.939C1077.07 257.851 1073.83 259.399 1072.19 255.69C1071.9 263.89 1076.78 265.882 1082.41 268.963L1093.15 274.864C1101.88 279.661 1111.95 283.233 1106.28 283.723C1103.31 283.984 1098.71 277.669 1096.26 282.344L1100.76 286.666C1101.83 287.693 1101.93 291.801 1099.54 293.609C1095.49 289.808 1092.67 285.271 1094.34 279.815L1075.19 270.312C1074.18 282.436 1077.57 291.172 1083.97 299.234C1090.37 307.296 1092.04 302.07 1097.15 305.38C1098.25 306.101 1098.51 309.81 1097.39 311.067C1093.07 311.22 1088.89 308.216 1084.05 306.53C1087.6 311.787 1091.25 314.914 1093.07 321.581C1097.01 316.83 1100.26 315.481 1103.73 316.998C1107.53 318.654 1110.89 323.62 1107.44 326.961C1103.99 330.302 1098.37 327.068 1095.09 325.49C1096.36 327.712 1096.5 331.421 1095.17 331.222L1088.81 324.861C1088.87 329.781 1089.79 333.628 1088.12 336.878C1084.84 336.954 1079.6 336.908 1078.7 333.812C1077.24 328.754 1082.5 324.923 1085.01 321.52C1086.51 319.236 1083.34 315.251 1081.63 314.408C1080.55 318.148 1078.56 319.205 1075.71 319.19C1073.98 319.19 1070.81 317.152 1072.4 314.669C1073.6 312.814 1078.97 310.239 1077.81 306.928C1076.17 302.254 1073.31 298.468 1072.71 292.751C1070.87 301.242 1067.1 308.323 1063.39 316.477C1062.73 317.918 1063.94 320.846 1062.89 321.474C1062.01 321.995 1058.87 323.221 1058.58 324.478C1057.98 327.191 1061.22 330.609 1060.45 332.877C1058.8 337.782 1051.04 344.986 1048.84 339.759C1046.03 337.843 1049.73 335.544 1051.11 338.594C1055 338.487 1057.23 334.64 1057.62 331.728C1058 328.816 1056.07 325.582 1053.76 323.083C1060.36 313.167 1066.35 303.602 1068.83 291.157C1062.99 296.583 1056.77 299.801 1049.1 300.767C1047.35 291.387 1060.02 292.26 1068.69 283.294C1069.95 269.239 1064.79 256.456 1057.2 244.807C1051.96 236.745 1047.78 227.856 1037.73 223.395C1040.33 230.783 1046.45 234.032 1047.5 240.684C1048.35 246.003 1046.57 249.819 1043.02 252.088C1047.34 256.15 1049.42 260.855 1051.75 265.836C1052.97 268.457 1048.16 271.63 1045.97 272.396C1040.01 274.481 1036.32 261.407 1030.31 268.503C1027.11 265.468 1030.24 259.046 1032.72 254.602C1026.51 255.337 1024.95 260.227 1020.22 264.304C1026.62 269.653 1028.52 279.401 1022.71 286.497C1020.94 288.658 1017.26 289.164 1015.3 287.724C1014.1 286.835 1013.67 284.198 1013.18 282.543L1000.64 287.54C997.664 288.72 995.136 288.49 992.884 287.049C991.336 286.068 989.406 282.098 991.673 280.566C996.086 277.577 995.979 274.542 997.526 270.404C1001.54 259.644 1020.22 268.626 1018.75 256.747C1013.95 260.211 1007.87 263.369 1004.6 259.184L993.205 244.608L1005.6 241.573C1008.3 240.914 1011.27 236.577 1015.12 237.972C1020.2 239.811 1022.68 245.482 1023.37 250.126C1026.3 248.225 1026.22 244.194 1027.51 242.907C1031.42 241.374 1034.3 243.305 1038.36 244.087C1034.39 239.152 1033.62 234.86 1033.18 228.392C1031.86 230.584 1031.14 232.592 1029.5 233.128C1027.23 233.864 1024.92 233.159 1023.2 231.412L1016.36 224.468C1014.47 222.552 1014.79 219.962 1016.75 218.521C1018.18 217.479 1020.43 219.288 1024.32 218.828C1013.61 211.241 1001.79 202.688 987.582 201.294L973.625 199.914C974.115 203.899 977.271 203.961 978.911 205.294C981.056 207.026 978.987 210.873 977.47 211.639C975.141 212.804 968.492 208.574 968.507 208.681L968.262 205.57C968.032 202.811 965.964 200.788 964.263 197.983L946.276 206.673C950.627 207.256 957.644 210.03 956.802 214.521C955.561 221.127 946.766 220.82 942.568 217.157C941.22 215.977 938.707 215.548 939.151 213.862L940.117 210.107C934.356 212.084 929.683 211.348 923.539 215.211C932.149 217.219 939.734 218.675 940.163 224.729C940.27 226.231 938.906 230.308 937.144 230.063C922.099 227.917 922.466 240.715 917.426 230.967C911.374 230.967 905.122 226.43 904.157 219.594L888.1 219.38C881.359 219.288 875.276 216.529 868.075 218.705C873.392 219.962 877.467 222.077 880.884 227.135C882.692 224.576 884.867 223.671 887.258 223.947C889.832 224.254 891.64 225.756 893.57 227.917C896.267 230.921 895.761 233.895 893.478 236.454C891.394 238.784 888.79 237.205 885.005 236.178L896.389 255C897.691 252.256 900.158 250.203 902.686 250.172C904.693 250.157 909.229 252.241 909.458 254.464C907.804 256.931 905.184 258.663 907.16 262.48C907.237 261.851 908.202 260.395 908.8 260.441C909.397 260.487 910.117 261.729 912.155 262.71C912.354 257.79 914.223 254.739 917.211 252.149C920.429 249.36 924.167 249.298 928.38 251.505L931.062 259.092C935.152 258.893 937.65 259.935 939.488 262.372C940.76 264.058 943.15 267.997 940.699 270.434C936.777 274.312 930.541 274.251 924.78 274.833L930.893 281.516C929.499 284.888 927.001 286.758 924.167 286.819C921.547 286.896 914.668 280.29 915.863 277.071C916.353 275.753 917.854 275.048 920.444 273.868L906.578 263.736C908.371 267.246 913.35 270.159 912.415 274.481C911.358 279.416 904.877 279.677 900.449 277.454C904.172 284.106 910.991 287.708 916.184 292.552C915.434 295.188 912.14 296.307 909.52 296.399C912.063 298.759 913.335 301.196 912.477 304.124C911.772 306.515 908.616 309.335 905.705 307.833C901.185 305.472 899.852 300.077 896.68 296.782C888.376 288.183 898.504 282.098 897.308 278.65C896.435 276.136 891.042 275.922 891.165 272.32C891.302 268.534 897.554 266.695 897.14 263.399C896.879 261.437 895.179 259.874 893.999 258.142C891.946 255.123 889.617 253.85 887.273 256.042C885.281 257.928 885.296 259.583 886.4 262.985C886.798 264.61 883.703 267.553 883.335 269.883C885.634 272.396 887.334 275.048 886.491 278.006C885.848 280.29 877.498 290.191 872.166 285.455C870.496 283.968 869.99 280.857 870.94 277.01C864.092 280.336 859.25 279.554 855.358 274.573L862.268 268.84C855.435 248.961 886.43 261.851 886.66 249.36C886.737 244.915 878.984 242.876 874.893 237.389C876.241 233.971 876.15 226.905 872.319 224.821L855.466 215.609C847.866 211.456 839.7 208.635 831.549 207.271C834.598 211.808 836.697 214.965 835.134 217.709C832.866 221.694 828.822 222.261 824.194 219.564L826.738 233.542C842.044 236.347 849.168 250.356 843.867 254.019C841.278 255.797 831.212 256.119 827.412 249.85C827.029 252.655 827.106 256.165 828.086 257.897C831.135 261.253 833.05 263.92 833.249 267.844C833.418 271.017 832.56 275.186 828.101 276.106C823.306 277.102 820.272 271.553 818.633 268.273C816.089 263.215 824.7 253.713 823.122 240.96C821.084 247.428 817.468 257.115 810.543 257.176C803.618 257.238 798.24 238.845 798.225 238.86L801.136 234.738L782.827 234.201C788.771 238.293 793.643 239.351 793.475 244.884C793.368 248.593 788.143 255.582 784.818 252.655L776.56 245.39L766.984 249.988C763.813 251.505 760.519 248.425 759.829 245.926C759.032 243.014 760.013 239.979 762.679 237.282L751.801 229.894C752.276 223.472 755.937 220.33 761.913 218.261C764.226 217.464 765.651 213.939 768.501 215.962C770.707 217.525 772.959 218.337 774.798 221.985L779.701 215.119C784.175 216.468 787.469 218.951 789.691 223.135C790.794 225.204 790.211 226.875 788.695 227.978C787.775 228.637 786.427 229.066 784.466 228.009C782.643 225.48 779.808 228.07 782.459 229.909L818.158 230.737C820.563 225.204 819.659 219.502 816.825 214.46C813.224 220.683 809.256 222.062 803.48 220.069C800.339 218.981 797.596 217.847 796.095 215.762C793.981 212.85 795.865 210.137 795.574 206.673L794.839 198.182C798.424 195.853 803.664 195.393 807.387 197.768L809.471 201.11C809.9 201.799 812.795 201.186 812.857 200.711C810.022 194.396 804.108 194.565 800.002 191.316L752.184 153.442C748.047 150.162 745.029 145.84 739.88 143.985C738.762 148.354 743.757 150.653 744.171 153.212C745.81 163.62 757.286 158.086 758.542 161.566L760.917 168.095C761.76 168.723 766.601 166.348 766.616 169.689C766.616 173.996 759.124 175.605 754.895 173.153L747.679 179.054C749.135 182.732 750.514 184.725 754.421 187.423L748.69 189.829C752.766 190.396 754.957 192.664 754.942 195.761C754.942 198.351 752.306 200.88 749.564 201.248C744.768 201.876 742.271 191.316 740.248 196.91C737.858 203.516 727.792 205.309 725.003 202.857C723.977 201.953 720.698 190.273 720.606 189.522C720.1 185.185 726.061 178.931 730.611 178.548C735.161 178.165 739.865 177.399 739.436 171.712C735.989 176.356 730.09 177.751 725.463 177.429C721.587 177.169 713.512 172.892 715.489 167.681C717.71 162.623 725.203 159.987 730.351 157.443C725.907 155.879 723.318 151.925 722.598 146.407L709.406 144.169C703.216 143.112 700.091 138.345 696.597 133.839C693.104 129.333 678.779 124.045 677.155 128.29C675.837 131.708 684.876 128.091 686.975 132.291C688.14 134.651 687.389 136.95 686.347 139.832C690.699 140.414 696.567 143.771 694.927 148.522C692.736 154.822 684.325 154.576 678.901 151.542L666.598 144.675C664.254 140.2 670.811 135.034 671.838 131.969C669.984 126.237 662.017 126.42 656.455 126.972L643.953 128.198C638.636 130.406 634.392 130.497 628.248 131.57C632.738 136.306 636.813 132.306 640.414 132.567C644.903 137.241 648.871 139.924 651.66 144.629C653.682 141.84 655.613 141.242 657.788 141.257C659.535 141.257 660.408 142.698 661.45 145.472L650.786 148.66C658.187 148.461 663.35 149.748 666.491 157.105C668.452 154.546 670.888 153.289 672.818 153.825C677.583 155.144 675.301 162.516 682.716 168.034C677.492 169.49 675.347 174.303 672.298 176.28C668.544 177.598 664.285 172.54 662.523 170.609C659.259 176.004 654.28 179.529 648.718 177.629L647.262 169.275C644.091 168.708 639.188 166.409 638.958 162.7C638.652 157.749 643.018 153.504 647.829 151.634C643.953 147.02 639.142 144.323 633.35 141.947L623.667 133.134L609.418 139.127C613.57 140.782 616.497 141.242 619.01 144.016L604.776 152.093C602.968 153.12 600.21 150.699 599.934 148.875L599.107 143.296C588.734 150.438 578.546 152.553 567.851 155.91C573.045 157.504 577.596 157.581 579.679 162.776C588.934 155.021 595.139 161.489 604.776 169.735C601.497 175.008 597.1 175.851 590.711 175.222C597.1 181.123 600.639 188.312 596.763 196.604C586.283 195.071 579.266 191.04 580.185 181.184C576.692 183.959 567.591 183.606 566.197 179.223C564.205 172.954 569.966 165.98 575.65 163.88C577.688 165.98 577.948 167.742 580.461 169.137C580.905 160.953 568.878 160.018 557.126 160.477L545.267 160.937C520.937 164.938 501.693 161.627 477.302 160.064L498.843 169.628C500.82 170.501 501.54 172.065 500.605 173.981C500.146 174.931 499.609 175.851 497.771 177.46C502.658 179.498 505.386 183.913 509.906 187.683C511.239 184.28 512.587 178.334 516.432 178.364C521.197 178.41 525.395 181.046 530.436 178.38C532.489 177.291 536.641 177.996 536.933 179.575L538.189 186.426L544.639 188.771C546.263 189.354 548.531 193.783 546.202 194.611L538.603 197.324C535.86 200.251 534.19 202.091 530.62 202.78C527.51 203.378 525.442 201.294 521.764 200.067L535.416 217.173L536.749 226.246C541.253 227.978 540.993 231.917 544.409 235.764C543.843 230.201 543.49 227.258 546.064 223.963C549.083 220.085 553.204 220.499 557.172 222.123C560.512 223.487 561.554 227.948 562.688 231.687C566.38 230.952 571.329 228.607 575.098 231.58C578.009 233.864 580.415 237.267 577.917 242.064C576.508 244.777 573.352 246.524 569.659 247.934C571.942 248.67 576.263 251.03 575.772 253.452C574.256 260.901 565.645 264.472 558.582 261.1C561.248 267.614 561.263 270.756 561.003 276.78C566.901 268.166 571.774 259.874 581.135 256.395C595.644 267.737 558.183 273.745 562.504 303.802C564.879 301.119 566.855 293.916 571.789 293.303C576.339 292.735 577.519 303.434 574.24 306.055L579.971 307.695C581.012 308.001 582.208 311.021 581.212 311.557C576.217 314.194 575.512 317.443 574.777 323.359C578.362 323.267 582.989 321.995 584.873 318.041C587.509 312.477 591.921 308.185 593.315 301.303C596.686 302.744 597.973 305.181 598.923 304.583L603.182 301.855C605.511 300.368 609.48 298.361 607.426 295.172C605.695 292.475 603.244 289.455 603.887 286.329C604.332 284.122 606.584 280.106 609.97 279.401C612.329 280.305 611.058 286.896 606.921 288.413C610.001 290.728 611.533 288.612 613.693 288.245C615.792 296.061 611.487 301.38 604.73 302.989C607.794 304.016 609.786 304.415 611.058 306.116C608.76 308.906 606.507 309.457 603.198 308.599C604.868 316.738 601.267 324.355 593.101 325.735L575.772 328.662L579.679 332.847C579.986 332.755 580.277 332.433 580.354 332.142C581.349 328.785 584.889 329.812 587.907 329.674C596.334 329.291 603.228 332.448 604.592 341.001C604.945 343.238 605.741 345.89 607.105 346.84C609.097 348.22 611.242 348.051 614.306 348.894C608.668 351.27 602.999 349.691 598.096 345.89L581.288 332.831L580.537 333.659L590.343 356.634C592.427 361.524 588.091 368.406 585.302 372.054L590.512 380.621C595.185 373.663 599.107 368.544 605.19 363.808C600.9 364.375 594.985 362.765 594.664 359.639C602.493 345.982 613.279 354.856 623.33 350.718L610.567 337.46C614.873 336.709 619.147 336.05 622.549 336.74C626.149 337.475 632.447 350.595 632.155 351.852C631.926 352.925 629.275 353.722 629.336 357.11C632.523 355.991 635.771 355.255 638.682 356.481C641.348 357.6 642.666 359.853 643.8 363.746C645.73 359.485 648.289 356.818 652.548 354.78C645.516 353.998 639.004 353.922 633.688 350.059C633.55 347.99 635.986 345.078 637.227 343.882C631.006 343.622 627.728 339.33 626.992 333.368C626.257 327.405 634.637 327.39 638.437 325.566C642.972 323.39 645.408 320.386 650.112 323.436C653.146 325.413 654.111 329.061 653.008 332.525C657.62 331.942 660.025 334.824 661.879 336.97C662.89 337.92 668.529 337.797 667.671 340.709C665.709 347.361 657.926 351.071 652.288 353.692C655.704 354.351 658.493 355.24 658.723 358.213C658.815 359.424 654.846 372.667 649.668 371.517L650.342 378.537C650.495 380.085 654.08 381.25 654.126 382.737C654.188 384.407 653.253 386.231 652.043 387.718L647.293 393.558C644.688 396.761 640.475 396.102 638.376 393.527C636.476 391.182 636.828 388.162 638.499 384.637C627.069 388.821 629.643 404.164 612.758 401.083L616.236 390.845C618.581 392.285 621.292 393.067 622.15 392.316L625.95 388.944L616.482 386.063C613.877 385.266 615.195 379.503 617.416 378.43C621.875 376.238 628.601 380.361 627.574 378.123C627.283 377.479 626.732 375.778 627.651 375.104C627.773 375.012 621.875 372.697 623.437 369.126C624.755 366.137 630.807 364.513 630.194 361.876C629.872 360.543 629.413 357.217 628.509 357.508L623.346 359.133C614.321 358.872 611.196 366.597 606.584 373.142L592.718 392.868C590.374 393.849 587.172 389.542 587.83 387.197L589.7 380.483C582.024 379.717 577.933 374.92 575.573 368.513C578.959 368.038 580.798 367.44 582.636 364.988C576.722 359.025 572.141 353.508 571.145 345.2C569.736 345.415 568.188 346.764 568.418 347.469L570.012 352.144C557.218 352.726 553.327 366.566 542.939 368.743C538.557 369.662 535.079 368.957 530.712 372.207C528.521 373.831 523.94 375.288 522.224 373.831L515.958 368.513C511.805 367.716 506.627 369.417 504.083 364.298C503.179 362.489 506.136 360.144 508.251 359.73C513.246 358.765 515.636 366.628 522.224 362.03C526.713 358.903 531.815 360.175 534.757 365.417L542.464 360.911C539.537 359.271 537.515 359.945 535.14 356.956C541.728 353.385 547.106 359.991 551.473 355.224C552.591 353.998 552.637 352.404 550.492 349.661C546.432 350.825 542.801 354.289 536.917 354.075C546.861 337.813 556.391 345.369 568.801 341.031L563.209 330.318C560.42 331.161 556.559 330.946 553.664 332.295L543.168 337.138C541.835 337.751 541.36 341.966 538.342 340.648C537.162 340.142 535.538 339.667 534.144 337.828C530.39 342.196 525.901 340.418 521.09 338.702L506.535 333.475C504.574 332.77 505.187 330.272 506.734 329.137C507.546 328.54 508.465 328.831 509.522 330.517C512.142 329.95 513.92 331.161 515.498 331.712C516.586 329.919 518.685 330.609 518.179 334.057C520.646 330.425 523.833 329.475 527.571 329.812C531.08 330.118 534.144 333.475 536.672 335.698C538.817 333.245 544.501 332.157 546.646 330.226C551.289 326.057 555.257 324.156 562.504 327.099C554.506 314.776 560.328 307.281 542.402 305.135C520.738 302.545 511.009 284.489 499.165 289.226C502.383 290.436 504.145 291.892 505.493 294.544C498.583 297.962 490.8 296.92 485.56 291.034C487.368 287.448 491.076 287.279 494.845 286.022C488.088 285.057 482.005 286.283 476.765 280.642C484.794 275.646 493.083 274.787 502.046 274.542C504.589 270.205 509.599 268.687 513.246 270.925C514.425 281.286 504.957 276.979 493.098 280.045L516.524 286.62C518.348 287.126 520.094 287.953 520.37 289.394C520.523 290.191 519.573 291.984 519.374 292.644C522.056 294.544 525.518 291.065 527.403 290.605C534.067 290.528 539.124 296.95 544.93 299.464C548.715 301.104 553.327 299.587 555.747 304.231C555.992 297.472 555.747 293.165 557.356 287.417L551.09 277.761C545.543 278.772 542.663 276.151 538.419 273.914L522.898 265.668C528.69 261.729 534.803 258.602 540.885 260.548C540.548 255.812 536.013 256.349 534.665 254.969C529.701 249.819 529.67 241.987 532.857 236.454C530.114 233.864 530.666 229.158 529.486 226.246C523.48 211.41 512.556 200.497 500.743 190.733L493.619 182.732C490.754 192.343 504.788 196.695 502.934 206.306C502.245 209.892 497.265 212.544 494.431 211.655C491.596 210.766 489.421 207.961 488.302 204.236C486.065 205.386 484.947 207.562 484.671 209.616C484.334 212.161 487.123 213.218 488.348 215.487C492.424 222.982 492.117 236.362 483.874 240.792C480.35 242.677 476.781 234.998 476.658 231.749C468.767 236.01 461.015 236.086 455.039 231.335C458.027 227.181 459.437 223.947 464.171 221.847C461.934 220.759 459.636 216.422 461.597 214.383C468.338 207.379 479.784 214.506 482.48 203.072C476.581 206.229 467.266 202.934 466.653 196.481C466.117 190.795 465.872 186.917 468.89 183.698C472.123 180.234 476.367 180.372 481.806 178.993C477.623 173.843 474.62 170.44 470.33 167.742C471.066 171.789 473.839 173.49 473.548 175.912C473.272 178.119 471.112 179.115 469.197 179.606C465.841 180.449 459.283 174.701 460.417 170.823C461.505 167.099 463.267 166.056 467.296 165.489L434.662 152.538C430.111 150.729 425.745 149.12 420.98 151.756C427.461 151.603 429.223 155.282 433.482 158.669C436.378 160.968 442.399 163.65 438.829 168.769C437.389 170.839 431.996 169.49 427.859 168.723L430.632 182.748C424.305 184.097 421.072 180.173 416.797 176.402C413.871 173.812 407.926 173.138 407.037 168.034C405.674 160.125 399.76 152.707 390.368 154.04C393.401 155.404 393.738 159.665 394.918 161.704C400.342 164.171 404.203 169.658 405.076 175.253C405.995 181.184 404.126 187.606 398.304 190.871L390.383 184.74C386.69 181.889 385.48 178.763 385.909 173.26C381.313 178.947 376.64 178.41 370.358 177.169C367.431 176.586 360.23 176.08 362.329 171.099C363.279 168.861 367.539 166.486 365.087 162.47L375.828 155.895C380.01 153.335 384.3 156.738 389.172 156.523C384.423 154.27 380.73 152.247 379.382 145.901C378.708 147.25 375.904 149.518 374.479 148.829L360.782 142.345C357.825 140.951 360.69 134.207 363.785 132.107C356.921 128.995 353.29 123.294 356.768 115.952C351.819 115.078 350.179 110.725 346.625 107.568L330.491 93.2218C328.622 97.9119 328.53 102.602 330.568 106.694L333.831 108.886C334.414 109.269 333.31 111.384 332.498 112.365C326.217 119.937 342.136 123.171 340.052 131.432C339.271 134.544 338.075 139.219 334.521 140.368L320.272 120.152C321.773 116.335 325.497 111.553 322.019 106.94C316.549 112.565 310.374 114.894 304.123 113.944L303.342 114.787C304.889 115.753 306.467 117.546 306.36 119.339C306.253 121.301 305.242 123.294 303.081 125.639C304.215 127.616 307.096 129.225 309.21 130.114C310.236 129.517 312.09 127.739 313.316 127.616C314.542 127.493 327.304 141.043 319.046 146.683C309.562 153.151 307.953 134.023 300.752 133.425C297.32 134.237 293.168 139.219 288.587 137.809C286.457 137.149 284.297 134.774 282.842 132.597C276.82 134.774 273.587 131.831 271.933 127.447C269.68 121.454 274.476 117.377 280.605 116.918C282.137 113.806 282.872 110.48 285.814 109.3C292.525 106.618 299.205 109.591 302.545 114.005L303.372 113.224C304.567 105.07 318.663 110.189 321.191 100.226C321.59 98.6783 319.536 95.0304 320.686 94.264L325.558 90.9841L309.669 80.6842C309.516 80.9601 309.225 81.7571 309.409 82.7074C311.048 83.6883 312.795 83.9795 314.496 86.5545L311.661 99.1228C307.708 105.07 298.301 103.675 294.685 97.6514C292.923 94.7086 298.929 90.7388 301.856 90.1257C295.635 89.1448 289.139 89.7426 285.216 84.3321L286.12 77.7261C276.499 66.8744 263.552 60.4983 249.134 59.4867L225.003 57.8008L244.569 64.7286C246.959 63.1959 249.931 62.077 252.275 63.058C254.62 64.0389 255.615 66.9204 256.688 68.9282C261.192 69.8632 265.482 73.7103 268.194 77.0823C269.16 78.2778 274.047 78.661 272.622 82.0483C271.381 84.9911 265.513 89.1908 262.081 88.8383C256.106 88.2098 252.046 83.0906 249.012 78.8603C247.802 81.2053 243.665 82.7227 242.531 81.5119L241.688 69.6026C239.574 66.8131 237.582 70.0012 239.865 71.4879C241.458 74.9672 240.202 77.3122 238.348 78.9676C236.923 80.2397 234.165 81.0521 232.02 79.6879L224.36 74.7986C222.153 73.3885 224.222 68.9436 225.876 67.886C228.067 66.4759 231.055 66.6905 234.518 65.7556C226.137 64.1615 217.909 58.5977 208.502 59.4867C204.273 60.3297 199.294 63.3645 194.268 60.6669C179.406 68.6984 161.48 72.2389 144.167 71.1354L133.396 73.2505L133.427 75.4423L150.112 74.4767C158.615 75.5802 165.678 80.6689 172.88 85.1904C175.407 79.0289 179.498 75.8255 184.83 75.5802C189.457 75.3656 195.908 76.6225 197.271 81.8184C197.9 84.2248 194.314 87.4894 192.905 89.0988C197.057 89.39 199.416 90.2637 201.99 92.8846L208.441 99.4293L198.022 109.898C195.632 112.289 184.646 107.553 188.814 112.074C190.177 113.546 192.736 116.121 192.583 117.883C192.43 119.646 189.457 121.378 186.807 122.175C190.147 124.673 190.331 127.325 188.89 131.386C187.987 133.9 185.505 139.878 181.873 137.487C178.242 135.096 174.948 129.471 172.129 125.761L172.941 120.933C173.094 120.06 169.294 119.646 168.038 119.263C164.484 118.205 165.004 114.787 166.123 112.442C168.651 107.108 173.431 108.718 174.734 107.139C177.001 104.395 169.708 105.284 168.651 104.012C167.395 102.51 172.834 95.5055 165.924 91.1066C161.603 96.5784 154.494 101.391 148.289 97.5594C145.883 96.0727 149.131 83.627 149.499 83.4278C151.506 82.4008 154.295 85.0524 156.378 84.3167C160.96 82.7074 153.237 78.4158 142.635 77.9406C144.688 78.3391 149.239 83.719 146.864 85.175C141.455 88.501 130.102 82.9833 131.159 74.7066L121.032 74.1701C116.389 73.9249 112.253 72.009 107.12 72.6834C105.818 72.4995 105.434 74.5533 107.396 74.4767C110.337 72.9286 116.65 75.6416 116.221 78.6304C114.964 87.0603 90.8332 81.7724 89.5463 78.6916C88.3359 75.7795 89.7761 73.3271 91.2776 71.0281C92.9476 68.4531 95.8739 72.0856 99.214 68.7903C82.4676 67.7174 70.2871 59.0116 56.1301 52.1603C51.6869 50.0145 46.6921 49.1716 43.1222 45.0639L36.3807 41.2168C31.4625 34.1203 24.1543 31.0548 17.704 25.9356L7.59179 17.9042C1.24878 12.8615 -1.87696 6.11753 1.18738 -1.82194C6.16687 3.9564 13.9656 4.73812 21.948 4.63083C18.4701 3.23605 17.5353 0.936982 16.999 -1.83723C16.4321 -4.78005 17.0299 -10.7117 20.6151 -9.33224L31.7537 -5.02531C31.8456 -9.86869 34.864 -16.582 40.6708 -16.6126C43.4133 -16.628 48.3162 -14.7427 51.7635 -13.7005C55.8544 -12.459 54.1229 -4.32024 50.3385 -2.89481C48.4233 -2.17444 48.7452 0.814364 50.6144 1.27418C55.8083 0.446513 63.6222 5.42784 60.6499 10.2252C57.6775 15.0226 49.6031 15.0686 45.7421 16.8466C43.4438 17.9042 42.3715 20.9083 40.824 20.755C39.1387 20.5864 36.5187 20.3565 35.0785 19.3449L25.288 12.371C20.6456 9.07568 15.6049 6.74596 9.15442 7.20578C12.8469 10.7617 16.8459 15.3139 21.8867 17.0765L42.3254 24.2036L56.8502 27.8515C63.6528 29.5528 71.4668 27.1004 76.2012 35.1165C69.1533 37.6608 62.4425 34.8407 55.7471 34.1816C45.8035 33.2007 39.3838 28.4646 30.5433 23.4986C45.2978 40.1898 64.511 49.5241 84.72 57.1417L106.338 63.2572C113.065 65.1578 118.274 64.3914 124.923 64.5294C141.21 64.8666 158.845 56.268 156.149 50.8576L153.713 45.9682L155.965 37.6302C153.896 38.6265 152.334 39.1169 151.001 38.9483C150.097 38.841 149.453 36.5726 150.51 35.5304L153.927 32.189C150.342 30.733 146.833 31.5453 142.942 31.1928C140.582 25.2765 137.211 22.2264 131.895 17.7815C141.026 12.1564 143.968 5.13663 149.131 6.97589C151.521 7.81888 154.08 15.2985 154.693 12.1411L155.321 8.83046L164.223 7.32838C157.895 7.17511 154.632 6.77665 150.893 2.48504C145.01 -4.27424 149.162 -15.9995 151.169 -17.4403C152.425 -18.3446 155.781 -20.5977 157.252 -18.7278L165.479 -8.29C166.996 -10.2825 172.205 -10.681 172.619 -7.98343C173.784 -0.595741 161.818 5.13663 166.429 14.5475C167.257 6.94524 173.722 0.921658 181.766 0.936985L189.657 8.93777C184.049 9.16767 183.283 16.0802 180.448 16.6013L166.552 19.1763C163.809 17.9041 163.457 21.6133 166.46 20.801C171.914 21.7053 177.032 26.8246 175.346 31.4993C173.784 35.8829 169.877 39.4388 166.705 38.7491C162.461 37.8141 158.585 36.3121 157.068 31.2541C153.973 35.8063 158.937 37.4463 162.614 43.1633C164.637 42.4123 166.245 42.1977 167.149 42.8721C169.723 44.7726 169.08 51.7618 166.184 52.6662C165.081 53.0187 162.951 51.5626 161.373 49.5854C160.668 56.5899 156.455 61.3107 148.748 62.5215C146.389 63.1346 147.431 66.2766 149.668 64.8052L168.191 61.6938C173.232 60.8508 175.622 57.019 174.734 51.6392L189.764 47.9454C190.377 51.302 189.595 52.8807 188.737 56.1607C196.26 52.3903 203.201 48.5585 207.338 41.1248C204.396 39.5921 202.128 37.1091 202.389 35.3924C203.338 29.2922 211.811 33.5378 214.676 30.7483C216.729 28.7404 218.767 26.0889 216.592 23.2073C214.109 19.9273 213.114 16.6626 212.041 12.6469C206.357 13.3366 200.06 13.1834 196.582 9.33624C194.835 7.38969 197.838 2.96018 199.095 1.38149C196.398 -1.72993 192.997 -3.49257 191.587 -6.97184C188.875 -13.6545 203.906 -8.22867 204.917 -10.9109L206.449 -14.9573C208.992 -17.5935 212.838 -15.1259 214.539 -13.7924C217.021 -11.8459 213.328 -5.43912 223.088 2.3624L228.343 -6.86453C224.881 -8.01407 222.337 -9.86868 222.016 -12.3517C221.418 -16.8885 229.722 -32.3076 236.142 -29.4261L244.063 -17.7622C239.176 -13.4399 237.398 -9.30156 231.116 -6.11352C228.726 -6.94118 230.979 -5.74565 232.74 -5.33182C238.992 -4.88733 243.205 0.354552 244.553 5.62709C240.37 6.82261 243.496 10.1026 245.35 7.60431C246.775 4.07907 249.334 1.38145 252.245 1.19752C254.895 1.02892 259.201 1.9639 260.074 5.04466C259.308 6.31681 259.017 8.34 259.859 8.35533L263.337 8.41665C266.448 8.46264 268.24 9.99535 268.225 12.2025C268.21 14.5322 265.682 14.5782 263.567 16.3101L257.132 21.5673C255.524 21.4447 251.831 19.5902 250.927 20.8776L247.51 25.7517C241.428 28.8324 234.947 23.4679 229.86 22.6556C224.206 24.3415 220.437 31.8059 218.997 37.3083C223.701 37.1091 230.626 37.9674 232.112 42.7801C233.537 47.3783 226.719 51.3786 222.199 49.9532C215.917 47.9913 211.336 48.9263 205.361 52.0684C204.151 53.1106 206.342 55.4557 207.307 52.8961L249.594 53.034C250.835 53.034 252.812 56.222 254.742 53.034C249.226 51.6852 249.441 48.068 249.487 44.4968C249.533 40.2052 253.93 41.4773 256.32 39.4388C258.481 37.5995 258.205 32.8175 262.571 34.5494C268.47 36.8792 265.773 42.7495 269.037 43.5158C272.3 44.2822 279.624 39.7147 281.693 45.0639C283.025 48.5432 280.053 51.8231 277.694 52.5435C275.334 53.2639 272.607 52.7581 270.37 49.662C269.497 54.3828 265.544 55.5017 260.242 56.5133C274.568 59.686 288.802 56.8045 303.005 67.0737C303.188 68.0393 302.346 69.6333 300.247 70.4763C308.811 74.0475 316.074 79.8412 327.381 81.6805C322.693 79.1208 322.019 73.9249 323.566 69.2654C324.562 66.2767 329.925 60.9582 333.908 62.5368C338.551 65.2038 344.985 72.2542 346.962 77.4961C348.938 82.738 340.144 86.5852 334.307 85.1444C345.614 93.9422 360.736 104.518 376.195 99.2607C372.258 94.7392 369.025 92.7314 367.539 87.7347C373.008 78.2932 379.122 77.5421 383.595 71.7485C389.264 68.8976 402.594 82.4775 402.793 85.8035C403.253 93.2678 393.156 94.5246 399.622 102.433C404.708 97.1762 411.818 96.5785 412.047 91.7964C412.216 88.3171 403.682 86.7078 404.678 81.3586C405.061 79.2894 407.987 77.3582 410.515 75.2584C407.053 72.4995 405.597 66.6752 409.29 63.901C411.664 62.123 415.173 65.3877 416.996 66.0161C420.122 65.0352 423.447 60.6822 427.277 60.9275C430.632 61.1421 432.823 65.2038 433.467 67.4569C434.386 70.6909 432.164 74.2315 431 76.4999C433.88 80.2244 433.099 82.9986 430.341 85.7881C423.814 92.3635 419.371 84.2401 416.828 93.7736C423.615 93.7276 429.008 89.0528 434.892 84.8992C449.692 74.4614 460.693 74.1855 468.001 65.6023L474.773 57.6475C472.414 57.4789 469.733 57.6321 468.292 56.1914L457.92 45.9069L468.752 38.1513C463.742 35.4231 464.34 31.3614 463.42 27.2537C462.394 22.7475 462.409 20.4945 466.209 17.3217C468.752 15.1913 471.433 18.6705 474.452 20.7244C478.635 23.5752 481.729 25.3378 480.948 31.5606C484.61 29.3688 487.935 28.6179 491.857 29.4455C494.768 30.0739 497.036 32.5569 497.097 35.1932C497.204 40.4351 481.546 46.7805 491.535 54.5667C490.83 49.5701 492.684 47.2404 496.346 45.2478C499.272 43.6538 502.245 42.7648 505.815 43.853C507.944 44.5121 509.522 47.5775 510.38 51.5473C513.154 48.2826 516.233 46.1981 520.202 45.5084C522.638 45.0792 526.621 49.1103 529.333 49.2176C532.413 46.8418 535.508 42.9794 539.752 43.6384C542.908 44.1289 547.458 47.7461 545.88 51.5166C544.302 55.2871 544.639 58.1839 542.081 59.7779C540.073 61.0348 536.304 60.8815 533.639 61.4026C532.98 65.7402 537.622 70.0471 542.785 71.3653C544.471 65.4796 549.021 59.9006 555.671 59.0269L561.723 61.6019C564.22 60.3604 568.127 57.5708 570.701 58.2606C574.531 59.2722 574.731 63.8856 574.102 66.8898C573.474 69.8939 571.345 71.2733 568.924 73.5724C563.852 78.4004 558.858 78.4311 552.652 74.3387C554.185 84.4393 570.425 73.2965 579.557 83.3665C573.505 91.4132 564.327 92.1336 555.533 90.0491C559.256 98.525 558.995 105.33 559.241 112.611C562.259 110.082 564.894 109.499 566.717 110.082C569.659 111.032 570.701 113.699 569.322 116.872C568.433 118.941 567.499 122.328 568.633 123.11L573.842 126.758C575.19 132.965 568.387 135.77 563.623 136.46C558.551 137.18 553.281 135.678 550.278 130.85C549.511 135.234 547.78 137.134 544.823 139.908L552.852 139.188C554.46 139.05 557.647 142.468 557.05 144.813C556.084 148.706 551.365 150.224 547.995 151.756C563.071 152.998 575.16 146.346 587.325 139.893C594.694 135.985 600.593 133.823 604.316 125.194L616.742 115.124C616.773 114.235 615.593 112.979 614.566 112.611C612.283 116.075 608.438 116.81 605.665 114.251C603.979 112.687 604.086 109.79 603.841 106.618L600.409 102.158C597.789 98.7549 606.431 92.0416 615.945 88.1792C617.876 87.7347 619.454 93.6357 621.139 94.7086C623.009 95.9041 627.268 95.8888 627.161 98.6323L626.854 106.066C628.54 103.047 632.784 97.5288 631.742 93.1758C629.306 89.4667 624.985 87.045 627.682 81.144C620.71 84.2861 617.523 83.9336 612.82 81.4046C608.116 78.8756 609.127 75.8715 607.825 70.9515C607.856 71.0741 598.157 55.1951 606.431 53.2792C608.53 52.7888 610.859 52.9267 613.111 55.5017L619.469 54.674L629.137 63.5944C629.443 57.5096 632.201 49.0643 638.207 48.3133C640.751 47.9914 648.641 62.1383 649.836 71.3346C651.123 68.1313 651.935 66.0468 653.667 64.2229C656.057 61.7092 658.156 65.6176 659.903 65.7249C664.208 66.0008 670.122 64.4987 673.661 62.4602C673.324 58.751 675.484 56.5133 677.614 56.2374C679.744 55.9615 683.39 59.3948 680.908 61.6326C666.567 74.63 657.145 71.8558 652.257 80.1171C661.006 82.0637 669.57 73.7257 672.068 79.9332C672.742 81.6039 672.436 83.857 671.608 85.0525C669.877 87.4895 656.578 87.6427 647.155 83.9336C639.249 88.8689 634.607 98.9082 631.297 106.48C647.768 100.272 653.912 83.1979 663.427 91.1067C666.583 93.7276 668.682 97.5747 673.922 98.7703C676.128 99.2761 678.472 102.311 678.396 104.089C678.12 110.587 668.774 108.779 668.054 110.434L665.893 115.4C659.29 119.891 650.296 115.615 646.236 109.53C644.719 107.262 641.93 107.308 639.678 108.181C638.238 108.733 637.625 111.66 636.461 113.791L623.1 119.753L609.234 132.613C626.011 124.351 644.474 118.91 662.982 118.987C675.147 119.033 687.558 119.309 698.834 122.941L715.075 128.168L739.268 137.809L752.705 134.774C759.4 133.256 762.265 126.283 764.349 120.535C755.064 120.918 746.132 107.798 750.192 103.89C752.368 101.79 755.508 101.56 759.752 101.805C758.328 96.042 760.013 89.8192 765.713 88.3631C768.057 87.7654 770.554 91.3672 770.585 94.2794C773.128 92.1183 774.982 89.6659 778.445 88.4398C780.636 87.6734 782.551 89.8958 783.256 91.1527C784.818 93.8962 782.275 103.077 777.74 109.622C782.015 109.116 787.025 105.943 790.181 107.66L802.668 114.511L795.773 120.366C797.137 123.646 797.259 126.85 796.141 128.582C794.41 131.264 791.499 131.095 788.649 131.126C782.183 131.218 777.541 128.781 775.38 123.033C774.568 133.072 763.659 128.75 765.513 134.544C765.666 135.034 767.061 136.184 767.474 133.762C770.324 131.8 779.379 130.666 781.585 134.452C783.225 137.241 781.785 142.575 786.274 144.706C782.566 148.246 771.964 150.04 772.837 150.591L769.558 148.538C763.767 147.541 759.875 145.028 759.048 138.437L746.224 142.514L769.865 155.649L799.282 160.171L814.542 166.44C818.954 168.248 822.341 172.954 828.622 170.134C826.983 168.279 824.455 167.252 821.881 166.624C809.501 163.589 805.747 148.767 807.096 147.572L810.865 144.261C811.401 138.468 814.006 136.015 818.97 134.421C823.628 132.919 825.007 136.72 828.852 139.525C834.015 143.28 838.719 147.403 836.973 154.04C835.103 153.381 834.169 152.523 833.602 152.569C832.989 152.599 832.345 154.132 832.958 154.714C834.69 156.416 839.118 156.876 839.118 160.815C839.118 164.095 834.659 165.106 834.368 168.478C834.215 170.271 835.042 171.023 836.773 170.885C840.834 170.563 842.166 164.125 848.464 159.19C844.112 156.247 843.852 152.982 843.928 149.105L844.204 135.019C844.235 133.103 839.378 130.206 841.186 127.831C842.182 126.497 843.438 122.926 846.089 121.914C850.762 122.849 854.194 128.444 854.577 133.747L868.504 126.466C873.009 124.106 875.475 134.498 871.247 147.557C874.74 147.848 880.439 149.595 881.083 152.875C881.88 156.937 876.042 159.818 873.3 161.857C867.355 166.286 860.659 165.842 857.028 160.37C851.497 164.309 847.177 166.869 842.979 172.647C854.562 179.422 858.147 165.673 864.827 166.991C868.228 167.666 869.117 170.287 871.997 171.728L882.922 177.199C885.25 178.364 883.06 182.38 880.853 182.748C879.551 182.962 877.406 181.399 874.77 185.353C879.152 184.924 880.792 186.84 881.481 189.308C882.355 192.404 879.168 195.669 875.812 195.178C870.082 194.35 864.383 196.833 858.913 196.466C850.838 195.929 848.556 186.104 848.096 179.008C842.795 176.985 835.716 173.184 830.737 174.609C823.719 177.399 816.702 179.161 812.152 172.141C809.164 182.978 795.758 171.252 782.198 166.01C789.691 173.153 796.723 179.146 805.579 184.602C808.597 186.472 813.347 186.074 815.4 190.565C823.949 175.207 828.117 182.273 840.849 180.142C843.745 179.805 848.433 186.503 847.238 189.124C845.614 192.664 841.416 194.182 838.336 194.029C834.904 193.86 832.667 191.898 831.196 187.423L822.708 192.419C840.604 202.581 876.778 214.123 891.548 209.157C892.743 208.758 895.746 209.003 896.696 207.608C897.477 206.474 893.018 200.282 904.847 186.978C908.524 188.725 910.454 190.994 912.936 193.737C910.378 201.202 905.122 205.095 897.554 208.988C900.541 210.996 904.601 210.291 907.084 209.678L919.356 206.612C923.34 205.616 926.358 201.018 929.254 197.998C924.198 188.388 912.86 198.29 908.953 184.418C906.9 184.786 904.816 187.009 902.319 184.173C905.888 182.855 909.428 179.1 907.221 176.05C905.919 174.257 902.931 172.632 903.498 170.195C904.065 167.758 915.74 158.178 925.04 162.807C923.615 159.098 922.482 156.063 923.861 153.994C924.826 152.538 928.074 152.829 929.713 149.089C921.271 150.499 916.184 147.97 911.634 142.483C909.152 139.51 903.544 138.498 901.966 134.621C903.743 133.287 904.709 131.693 904.555 130.467C904.448 129.685 903.131 128.275 902.012 127.217C904.984 121.01 911.925 118.343 918.728 118.174C914.867 116.764 912.86 115.584 911.006 113.254C909.152 110.925 910.332 107.568 910.194 104.717C910.102 102.694 906.654 99.2914 908.478 97.4368C909.703 96.1953 911.94 92.8693 914.269 92.6547L923.569 100.288C929.208 104.916 929.667 115.737 925.393 121.47L928.993 127.938C930.326 122.205 928.442 115.002 931.583 110.143L950.474 97.9426C952.021 100.502 952.129 102.158 954.166 103.077C963.543 99.4753 954.044 107.599 956.556 115.339C959.82 116.059 962.379 116.488 964.6 117.883C966.178 118.864 967.542 122.098 964.57 123.386C963.742 123.754 962.363 121.01 962.21 120.213C961.352 115.691 960.019 126.865 956.924 128.704C954.81 129.961 952.098 129.838 949.922 128.091C947.747 126.344 947.639 124.474 948.635 120.734C949.202 118.588 944.422 115.691 942.17 115.814C940.101 115.921 936.531 117.285 935.627 120.075C940.147 121.439 946.184 129.118 943.794 132.889C939.963 138.912 939.504 145.947 929.621 153.366C932.241 154.5 936.072 155.711 938.109 159.037C939.887 161.934 937.389 163.926 934.57 164.401C932.824 164.692 931.307 162.531 930.173 161.949C926.511 162.7 928.702 170.18 931.889 177.107L932.425 167.574L941.572 169.229C945.157 169.873 947.394 171.758 947.823 174.67C948.482 179.085 939.887 181.706 943.87 191.837C953.691 194.228 962.455 190.825 965.474 182.686C964.171 180.801 962.317 178.533 962.884 176.234C964.049 171.436 970.974 167.359 972.399 168.34L977.409 171.835C986.571 172.617 983.032 157.059 989.145 149.488C985.545 149.35 982.159 149.902 979.477 148.308C968.676 141.886 964.079 151.22 952.374 155.91L941.434 145.687C946.735 131.57 963.329 133.686 963.666 135.494C963.88 136.628 963.666 139.954 966.577 140.154C967.281 139.878 967.542 134.437 970.606 135.571C973.395 137.793 976.459 139.663 979.14 137.042L979.937 136.215C976.474 134.421 974.314 132.812 973.395 128.888C972.338 124.474 973.272 122.558 977.026 118.726C978.497 117.224 980.703 113.254 984.288 116.488C987.445 119.324 992.455 125.853 992.73 130.528C993.037 135.571 985.345 137.165 981.73 137.027L979.876 137.885C984.533 138.652 988.088 141.717 990.156 147.189C996.821 142.759 991.903 130.743 1000.16 123.508C994.048 124.014 992.209 121.853 990.555 116.979C989.375 113.484 987.613 107.783 992.041 106.112L1001.42 102.587C997.894 101.269 994.676 99.2454 994.722 96.8391L994.875 88.8843C992.118 86.1101 987.077 90.279 984.702 90.8462C981.285 89.528 975.831 86.1867 974.268 83.6117C973.671 78.9829 972.644 76.6991 969.335 73.2352C968.323 70.1545 974.038 66.7212 976.658 65.4337C980.121 63.717 984.518 66.8132 987.95 68.2846C989.62 65.9548 990.815 59.3795 995.58 59.2109C1003.69 58.9197 1002.7 74.8752 1011.47 72.0704C1017.38 70.1851 1022.81 71.8711 1026.27 77.6188L1016.13 89.1908C1014.78 90.7388 1012.8 91.1527 1010.38 91.873C1016.37 94.2794 1020.16 98.6937 1022.36 105.652C1027 104.165 1031.85 103.706 1033.81 108.886C1044.59 103.92 1030.7 101.698 1031.05 87.1676C1031.14 83.5504 1043.78 77.4042 1047.24 79.688C1048.81 80.7149 1049.71 83.6424 1050.88 86.8151C1053.77 84.4394 1058.31 80.5309 1061.89 82.4775C1064.54 83.9182 1062.63 88.7003 1062.75 90.4323L1069.18 95.4903C1064.56 103.721 1056.47 103.276 1048.75 104.089C1053.71 105.867 1059 104.319 1062.15 109.346C1057.43 113.745 1057.98 120.029 1057.69 124.229C1054.14 127.202 1049.57 122.42 1047.7 119.83L1025.4 121.623C1026.97 115.86 1031.25 116.243 1033.84 112.749C1026.91 114.036 1021.32 113.392 1018.93 106.495C1013.66 116.075 1017.58 120.443 1015.3 122.788C1014.15 123.953 1010.89 123.294 1009.12 124.091C1002.4 127.126 1000.12 135.295 1000.38 141.824C1014.7 126.405 1026.48 120.489 1046.75 124.091C1051.47 124.934 1057.05 128.98 1062.04 125.363C1063.68 124.106 1064.34 119.891 1067.1 119.14C1069.71 118.435 1073.95 120.535 1075.79 119.247L1084.89 112.856L1077.03 106.602L1085 100.426L1087.75 104.901C1090.96 101.882 1094.14 99.9965 1095.14 95.5363C1093.45 93.651 1088.46 92.946 1087.59 90.9841C1085.07 85.2824 1090.76 81.6498 1094.63 79.3661C1090.79 79.7033 1084.86 80.6383 1084.17 75.7489C1083.83 73.2965 1088.43 72.0244 1090.54 72.9134C1092.66 73.8023 1093.38 75.7029 1097.28 78.1399C1095.66 71.5799 1097.7 66.292 1101.88 61.7092C1103.64 63.5944 1105.04 64.8819 1106.22 65.1118C1107.87 65.4184 1109.57 63.9163 1111.04 63.012C1114.2 61.0655 1116.47 64.4221 1117.78 65.9242C1120.11 68.5758 1118.21 70.7982 1117.77 74.5687C1121.65 71.0895 1125.74 67.6101 1130.98 68.729C1133.07 69.1735 1133.81 73.0666 1132.85 74.9212C1132.14 76.3007 1130.13 76.6992 1127.33 79.3661L1138.54 83.1672C1134.53 89.8039 1123.35 98.7243 1124.23 98.7856L1117.54 98.3411C1113.39 98.0652 1111.56 98.7703 1105.1 98.1266C1107.87 101.606 1108.68 103.982 1107.17 105.867C1105.33 108.15 1102.72 108.472 1100.65 107.537C1098.03 106.373 1097.48 103.905 1097.36 100.395C1094.53 102.801 1089.04 108.135 1090.37 112.626C1091.71 117.117 1097.02 112.534 1099.08 111.078C1104.42 107.292 1121.09 109.239 1119.15 116.473C1118.76 117.914 1115.18 118.803 1113.45 119.14C1111.72 122.589 1117.95 124.259 1119.04 126.313C1120.37 128.812 1116.37 131.172 1114.43 128.965C1113.63 128.06 1111.75 127.432 1111.01 123.769C1108.47 127.11 1104.16 131.494 1099.05 132.076C1093.65 132.689 1095.78 119.646 1089.41 118.665C1088.12 118.466 1085.64 119.922 1085.85 121.133L1086.68 125.991C1086.94 127.524 1083.72 129.225 1084.28 129.869L1086.97 133.118C1087.13 137.732 1081.14 139.219 1076.35 139.403L1098.69 140.751C1102.13 146.407 1113.62 145.365 1111.1 149.81C1109.3 152.998 1105.36 153.687 1102.75 153.09C1102.36 155.205 1101.83 157.596 1100.7 157.872L1094.57 159.389C1099.61 161.305 1104.82 159.634 1110.03 157.09L1124.49 150.055C1123.35 144.476 1118.98 143.74 1114.95 139.908C1119.42 137.824 1123.77 139.663 1127.27 141.579C1129.81 142.974 1127.64 147.572 1127.33 149.84C1132.09 147.25 1132.68 142.698 1135.73 139.571L1134.15 129.563C1130.64 131.877 1128.16 130.589 1125.54 127.785C1123.15 125.21 1121.63 123.14 1122.14 119.661C1122.7 115.814 1130.55 110.281 1134.78 111.308C1136.81 111.798 1141.3 113.592 1140.18 116.58C1139.8 117.607 1136.83 119.554 1137.67 121.041C1138.3 122.144 1139.98 123.186 1142.22 123.953L1136.91 129.792C1139.31 132.107 1143.11 131.524 1144.86 129.241C1149.41 123.324 1155.46 121.041 1161.3 114.864C1156.04 116.259 1150.04 115.431 1147.45 110.25C1144.55 104.487 1150.99 99.506 1155.86 97.4981C1159.92 95.8121 1162.65 94.9232 1166.77 96.4406C1169.59 97.4828 1171.18 100.686 1171.81 105.131C1172.91 103.353 1173.98 99.7206 1173.43 97.774C1172.24 93.559 1167.29 94.4327 1163.21 93.9729C1160.58 93.6817 1162.35 86.4933 1165.22 86.0181C1162.89 85.1138 1161.36 84.8532 1160.65 84.1942C1160.19 83.765 1160.13 81.5425 1161.11 80.4696C1167.69 85.4663 1176.07 81.1287 1177.83 92.808C1182.49 89.9418 1182.98 80.2551 1178.01 78.4158C1175.53 77.4962 1171.81 78.2932 1169.66 76.8371C1167.52 75.381 1168.8 72.2543 1168.99 70.3231C1163.78 63.2572 1160.56 57.6935 1165.16 53.6011C1167.82 51.2407 1170.81 55.2105 1172.7 55.5017C1177.28 56.2068 1180.45 56.5133 1181.81 60.1765C1182.76 62.7208 1181.14 65.7402 1178.78 68.07C1180.45 70.6756 1181.69 73.741 1184.17 75.4577C1186.65 77.1743 1190.25 74.2621 1191.04 71.4726C1188.05 71.3653 1185.64 71.8711 1182.99 70.4457C1184.88 64.652 1186.75 60.4984 1189.47 56.452L1180.05 46.9339C1183.68 43.194 1182.9 38.1514 1184.57 34.2736C1185.6 31.9132 1190.61 32.6643 1191.96 34.3349C1192.92 35.5304 1193.98 37.339 1194.97 39.209C1197.15 36.8179 1199.36 35.4845 1201.36 34.8101C1202.93 34.2736 1206.63 37.0785 1206.11 39.0863C1203.84 47.8075 1196.43 53.4479 1190.21 61.0348C1195.45 62.4449 1198.13 55.4864 1201.7 54.7966C1209.7 53.2639 1216.09 58.5212 1218.86 64.1002C1216.82 66.6139 1215.66 68.024 1213.93 69.1122C1212.75 69.8632 1210.45 68.0393 1207.95 68.3612L1211.24 73.2812C1206.85 78.6457 1198.8 79.2588 1193.14 73.5264C1191.36 80.8528 1189.52 85.1904 1184.19 90.0031C1187.59 92.057 1193.44 92.2869 1195.37 89.8192C1196.89 87.8727 1196.92 85.5583 1198.1 85.0831C1198.99 84.7153 1202.86 84.7459 1203.11 85.6656C1203.81 88.6544 1200.34 91.6738 1196.52 92.0877C1198.85 95.0305 1199.97 96.226 1200.38 98.0806C1200.73 99.6746 1197.78 102.142 1197.06 103.859C1207.08 108.794 1204.64 88.1486 1219.64 91.6585L1229.28 91.2293C1229.62 93.789 1228.74 94.8772 1228.1 97.774L1254.94 88.0106C1255.65 84.516 1257.64 81.2513 1261.19 80.485C1264.38 79.8106 1267.06 82.1403 1268.44 86.1101C1267.57 89.0222 1262.63 91.8271 1258.45 93.3445C1255.49 95.1991 1259.28 97.5441 1260.23 94.54C1271.34 90.8308 1281.65 87.2596 1291.28 81.2667L1293.15 70.7982L1285.45 67.0431C1288.92 61.8932 1292.56 59.4714 1298.49 58.5365L1290.75 49.9839C1285.55 51.1948 1282.15 47.4396 1278.03 45.7536C1275.17 44.5888 1266.11 44.7421 1268.1 38.9637C1269.68 34.3656 1279.15 36.7719 1282.81 35.2085C1275.64 34.4575 1269.51 35.5611 1265.93 28.2807C1264.84 26.0582 1262.8 24.7248 1264.18 22.5177C1265.36 20.6324 1266.43 18.8545 1269.21 19.0997C1273.36 19.4676 1276.19 21.9046 1278.81 25.1386C1279.7 23.6979 1281.71 21.7973 1283.1 22.5943L1287.07 24.878C1288.85 25.905 1290.17 26.7633 1290.66 27.8822C1291.21 29.1083 1290.58 31.3768 1289.68 31.3768C1287.9 31.3461 1286.46 30.9936 1284.42 32.2351L1294.55 35.4845C1293 38.0441 1291.28 38.182 1288.14 37.5076C1290.43 49.7234 1303.2 40.711 1306.19 50.9649L1316.89 48.8037C1319.09 48.3592 1321.65 51.8538 1321.31 53.9843L1309.36 57.9694C1308.75 62.5675 1306.84 65.5563 1302.9 67.8247C1306.12 73.5878 1300.63 73.9403 1300.45 78.094L1328.42 58.5058C1333.83 54.72 1340.24 43.0101 1342.63 34.7487C1340.67 30.0586 1338.31 26.5487 1339 21.0769C1338.64 18.3027 1331.96 16.6474 1329.36 16.1416L1328.65 2.57705C1323 0.906392 1316.9 -3.56915 1316.93 -9.79198C1316.95 -13.3326 1321.96 -14.2062 1324.75 -13.869C1327.17 -13.5625 1331.49 -18.3598 1330.25 -20.1225L1324.44 -28.3992C1322.4 -31.296 1322.2 -33.6104 1324.96 -36.0934C1326.88 -37.8254 1328.9 -37.4269 1331.78 -34.668C1329.5 -38.0246 1333.27 -42.1783 1332.65 -44.4314C1327.52 -50.8994 1324.85 -55.4516 1330.74 -61C1349.81 -50.2404 1338.52 -30.7289 1349.75 -18.927C1350.87 -21.8391 1351.85 -24.8279 1353.95 -26.3606C1354.98 -26.7132 1357.07 -24.4141 1356.32 -23.1879C1355.57 -21.9617 1354.59 -20.8888 1353.47 -19.6473C1355.79 -19.7853 1358.28 -18.1913 1357.95 -17.0724C1357.64 -16.0301 1356.34 -13.0413 1354.84 -12.4896C1348.19 -12.5356 1344.57 -22.2683 1340.45 -22.1304C1338.05 -22.0537 1332.3 -17.3023 1332.25 -16.8271C1332.21 -16.352 1333.08 -15.3557 1334.29 -14.574C1335.04 -16.9957 1336.57 -16.8884 1337.85 -16.398C1339.99 -15.5703 1341.89 -13.2866 1341.08 -12.1064C1339.73 -10.1445 1328.44 -7.86075 1332.84 -6.86449L1336.97 -5.91421C1334.29 -2.32765 1332.42 0.814408 1333.76 5.7191C1335.88 13.5666 1349.78 16.3408 1348.1 32.327C1347.91 34.0283 1346.93 36.5267 1349.54 37.339C1353.89 34.1203 1356.55 28.434 1358.42 22.1498C1361.41 22.3797 1365.96 26.4261 1365.47 29.5528C1364.66 34.6414 1358.71 35.653 1355.5 37.7988C1353.5 39.1323 1352.29 41.6613 1350.85 41.9219C1349.06 42.2437 1347.91 41.646 1345.69 40.5578C1347.38 46.0449 1345.34 49.0337 1343.99 55.3944L1367.8 42.7649C1371.2 40.9563 1374.72 39.2243 1378.8 41.9372L1366.21 50.7503C1374.43 48.911 1379.86 52.4516 1383.73 58.3679L1380.98 59.7933C1379.84 60.3758 1382.03 63.012 1382.51 62.4909C1388.51 55.9156 1395.95 56.498 1403.08 59.7014L1414.36 60.0999C1415.23 60.1305 1417.78 58.8277 1418.28 60.2071C1418.65 61.2187 1416.86 62.4143 1419.46 64.4834L1422.25 57.954C1425.93 61.9085 1422.6 64.2382 1421.15 66.3533C1419.42 68.8823 1414.97 69.5567 1413.01 66.8745C1411.59 64.9126 1409.98 63.058 1408.03 63.5025C1406.84 63.7784 1404.97 65.725 1403.58 66.8592L1395.27 61.7552C1389.83 65.2651 1384.3 65.587 1378.46 66.1694C1375.84 60.3451 1369.41 57.9234 1363.86 59.824C1368.08 62.261 1372.21 65.1885 1371.4 69.1122C1370.88 71.6565 1366.7 71.9938 1365.15 71.1201C1364.08 70.5224 1363.14 68.2846 1362.91 66.6905C1361.95 60.0232 1348.83 55.9769 1341.12 60.7896L1318.25 75.0592C1324.12 78.7837 1330.75 75.6569 1336.15 82.2476C1341.31 72.3769 1347.35 82.3702 1356.77 79.2741C1359.34 78.4311 1360.87 80.9295 1361.93 81.9564C1363.17 83.1519 1363.56 86.1407 1360.97 86.4626C1359.53 86.6465 1357.47 86.1714 1356.48 87.3516C1354.21 90.0492 1361.44 89.2062 1362.12 90.509C1362.47 91.214 1362.12 92.5168 1361.47 94.2948L1371.22 93.1605C1371.66 96.6245 1370.24 99.1381 1367.29 101.207L1381.65 113.883C1385.17 116.994 1393.8 121.102 1398.64 119.155C1406.7 115.891 1416.4 116.734 1420.8 124.842C1420.08 127.754 1415.48 131.157 1412.65 130.191C1409.61 129.164 1407.36 127.08 1403.73 128.582L1417.4 133.548C1416.78 139.004 1412.98 142.575 1406.88 141.978C1404.79 141.778 1402.21 141.978 1401.68 140.184L1400.19 135.31C1395.13 140.935 1389.53 146.836 1384.87 146.284C1382.14 145.963 1377.38 143.786 1376.76 140.307C1376.36 138.054 1378.51 136.138 1379.34 134.13C1373.97 136.138 1366.21 129.409 1368.31 124.949C1369.55 122.328 1372.87 121.378 1371.57 118.174C1370.51 115.615 1370.07 112.81 1365.44 114.588L1369.12 117.27C1367.66 119.937 1364.52 118.941 1363.25 117.408C1361.98 115.875 1360.32 114.005 1360.98 111.124L1363.2 101.468C1354.7 96.18 1349.23 88.731 1339.24 84.8839C1347.35 93.0839 1351.88 99.8892 1350.65 111.461C1350.24 115.339 1348.8 122.389 1342.83 121.378C1338.35 120.611 1332.64 116.81 1328.88 114.573C1328.56 111.63 1330.78 108.963 1332.16 106.694C1326.13 105.652 1322.88 97.3295 1326.19 93.2832C1327.5 91.6738 1333.11 87.934 1329.71 85.7575C1322.95 81.4353 1310.27 79.9332 1303.1 83.4891C1290.09 89.9112 1278.09 94.4634 1264.5 96.7164C1272.53 96.6245 1280.51 100.732 1287.53 101.744C1295.11 98.0039 1302.09 94.494 1309.87 102.127C1311.48 103.706 1309.99 107.445 1306.93 109.76C1311.08 112.81 1316.5 115.722 1317.93 120.55C1319.17 124.781 1313.04 127.647 1309.42 126.42C1305.46 125.072 1302.74 123.432 1298.84 123.324C1297.95 129.179 1293.69 133.149 1288.69 133.762L1283.73 122.727C1282.34 119.646 1278.95 117.362 1280.28 113.914C1281.13 111.722 1282.95 109.683 1285.43 106.02C1275.23 102.234 1265.36 100.564 1255.32 102.709L1273.07 104.257C1271.76 110.848 1265.77 112.703 1260.73 111.446C1256.49 110.388 1252.15 107.323 1253.53 101.529C1244.32 105.146 1236.56 101.56 1230.9 105.989C1232.96 106.541 1235.56 108.028 1235.47 109.346C1235.25 112.549 1232.76 114.389 1231.01 115.278C1228.91 116.351 1225.56 114.297 1223.1 114.864C1219.44 115.722 1215.18 118.849 1211.26 116.58C1208.99 115.278 1206.31 111.323 1204.04 108.105C1197.2 109.055 1189.86 113.362 1181.97 112.687C1183.99 117.868 1195 115.477 1192.14 121.93C1191.08 124.321 1189.83 126.497 1187.3 126.604C1185.44 126.681 1183.71 125.302 1182.53 123.508C1180.95 127.034 1178.79 127.877 1176.37 127.064C1172.8 125.884 1173.95 123.462 1173.22 121.025C1172.3 117.945 1166.58 119.048 1164.82 121.409L1155.93 133.302C1163.12 133.854 1172.21 135.939 1177.84 132.889C1186.5 128.214 1194.59 128.812 1202.59 132.138C1205.85 127.647 1210.54 122.543 1218.03 125.93C1220.02 126.834 1222.49 127.294 1222.06 130.16C1221.86 131.478 1219.37 132.674 1218.63 134.023C1215.69 139.433 1211.67 140.874 1204.76 140.843C1215.53 143.694 1226.06 145.794 1235.09 152.231L1240.52 139.173C1241.9 135.862 1245.41 133.885 1247.88 134.59C1250.87 135.433 1253.12 136.674 1254.59 140L1261.64 138.529L1260.49 147.265C1262.92 147.511 1265.97 152.093 1264.36 153.412C1260.53 156.538 1255.69 157.765 1251.1 159.006C1249.7 154.837 1254.27 154.515 1255.39 153.09C1256.38 151.833 1253.81 150.852 1253.16 151.526C1252.83 151.879 1252.67 149.733 1253.85 148.354C1250.8 147.143 1248.03 150.883 1247.05 153.948C1246.36 156.109 1248.77 160.11 1251.4 160.953C1258.47 163.19 1262.23 168.034 1267.47 172.724C1279.03 183.039 1297.35 189.982 1312.44 184.618C1309.87 181.598 1306.12 176.418 1308.18 173.276L1316.21 161.106L1325.44 167.589C1329.27 164.049 1333.76 160.784 1339.23 162.24C1340.02 168.31 1338.64 173.843 1337.34 179.667C1335.88 182.365 1330.81 183.621 1327.43 185.169C1329.54 186.702 1332.54 188.22 1335.72 187.775C1339.76 187.223 1342.27 177.092 1346.56 176.816C1348.1 176.724 1350.26 177.92 1351.36 179.943C1356.86 173.506 1362.65 174.839 1368.72 178.318C1373.93 181.307 1380.41 182.135 1384.82 188.005C1379.11 192.956 1372.32 194.672 1365.52 196.021C1370.05 199.746 1374.11 204.558 1372.44 209.448C1371.43 212.421 1367.77 214.092 1365.96 215.027C1363.79 216.146 1360.83 214.184 1358.93 212.896C1351.07 214.306 1346.15 208.237 1344.3 201.018C1342.44 193.799 1331.78 192.772 1326.17 190.902C1322.94 189.829 1320.7 186.12 1317.88 186.503C1315.72 186.794 1312.01 189.001 1310.9 190.703C1319.43 191.684 1326.17 193.078 1328.76 200.282C1329.76 203.072 1325.83 206.198 1322.85 206.076C1313.5 205.723 1309.7 208.697 1300.91 193.691L1306.22 190.871C1298.21 191.346 1291.47 190.534 1284.7 187.361C1287.84 195.086 1297.24 200.282 1299.27 208.727C1302.94 224.039 1308.89 238.539 1324.29 247.781C1328.47 250.295 1333.86 252.302 1339.67 251.843C1335.33 243.351 1325.18 244.026 1325.82 233.511C1331.1 233.312 1334.44 236.469 1337.57 240.071L1342.27 230.185C1343.9 226.783 1349.86 229.986 1351.67 232.209C1355.68 232.209 1357.24 228.837 1360.15 227.963C1362.56 227.472 1368.18 231.12 1368.35 233.557C1368.58 238.048 1365.59 243.076 1361.09 245.359C1367.22 245.788 1371.92 248.501 1376.29 254.571C1369.16 260.579 1361.17 260.962 1354.76 265.407C1344.82 262.955 1342.04 252.088 1331.78 255.736C1345.43 272.488 1356.77 266.25 1371.83 270.297C1376.59 271.584 1383.17 268.886 1387.18 271.492C1389.1 272.734 1390.51 274.251 1392.47 273.316C1393.6 272.78 1393.63 269.3 1393.08 268.212C1392.67 267.384 1389.8 267.323 1388.47 267.246C1385.83 263.844 1384.64 258.142 1383.93 254.387C1389.22 247.689 1395.98 251.889 1402.01 251.628C1407.05 251.413 1410.26 249.375 1413.41 254.372C1415.37 257.468 1413.99 261.591 1411.48 265.744C1414.79 265.468 1421.21 265.867 1422.04 268.595C1423.31 272.734 1418.22 274.45 1415.27 276.688C1419.1 278.665 1425.61 282.528 1423.23 286.574C1420.08 291.984 1411.04 292.383 1405.8 290.85C1402.3 292.383 1400.19 294.406 1396.31 295.081L1393.19 284.152C1392.68 282.39 1391.07 280.688 1391.76 278.956C1392.53 277.025 1400.69 276.596 1396.33 274.082C1395.07 273.362 1394.43 274.726 1393.66 275.385C1389.36 276.535 1384.79 278.067 1380.41 277.454L1352.78 273.592C1363.86 284.765 1377.1 291.096 1391.52 297.196C1403.47 302.254 1417.1 308.568 1430.6 306.438C1433.13 303.817 1437.76 297.104 1441.6 300.292C1444.39 302.591 1438.66 306.99 1434.97 309.059C1442.28 310.622 1450.12 311.389 1456.59 309.182C1461.28 303.235 1469.66 305.089 1473.12 295.249C1471.42 291.923 1469.17 290.62 1466.94 288.337C1467.82 284.658 1467.76 281.777 1466.04 278.221C1464 279.723 1457.45 280.918 1455.85 278.451C1453.19 273.408 1451.78 269.162 1445.39 265.714L1457.61 260.533C1455.65 259.184 1454.2 256.993 1454.52 255.874C1454.95 254.356 1457.23 253.697 1458.82 253.421C1465.17 252.302 1468.2 254.831 1470.32 259.767L1471.23 258.893C1472.38 252.302 1466.16 251 1462.72 244.394C1461.38 241.834 1464.42 239.198 1464.81 236.623C1465.27 233.695 1464.91 229.909 1466.53 228.392C1467.88 227.135 1471.56 224.76 1473.56 226.645C1476.28 229.204 1477.79 233.91 1482.02 234.722L1485.73 233.803C1490.14 232.714 1485.51 243.75 1477.19 253.314C1483.63 254.341 1483.84 243.03 1493.36 244.225C1495.76 244.532 1497.73 248.425 1498.92 252.732C1494.68 254.847 1487.02 250.662 1485.27 255.996C1484.98 256.885 1488.99 257.897 1489.31 258.801C1490.22 261.56 1486.92 263.154 1484.33 263.001C1481.24 262.832 1479.14 261.376 1478.07 257.636C1476.28 258.847 1475.85 259.522 1475.52 260.058C1474.91 261.085 1473.53 261.759 1472.41 260.073L1471.31 260.426C1471.22 261.943 1470.88 263.476 1471.79 265.913L1474.18 263.215C1475.79 261.407 1489.56 266.756 1489.07 279.983C1488.84 286.114 1477.49 282.42 1475.94 286.497C1474.84 289.394 1481.91 291.08 1481.84 292.582C1481.87 292.076 1473.26 304.599 1464.83 308.277C1475.45 307.925 1486.2 306.545 1491.17 300.139C1486.92 298.774 1485.91 296.123 1486.46 292.628C1487.44 286.39 1498.15 286.329 1505.48 281.501C1507.33 280.275 1509.57 281.301 1510.4 282.558C1512.16 285.241 1508.82 288.674 1509.81 293.349L1524.91 284.965C1523.21 277.316 1515.36 274.389 1520.22 271.063C1523.14 269.055 1530.18 277.332 1533.61 271.308C1535.74 267.568 1532.55 257.912 1528.66 257.759C1520.83 259.583 1510.78 252.21 1510.87 249.85C1510.93 248.455 1514.1 245.589 1513.78 244.01C1513.32 241.773 1507.26 238.998 1510.06 235.78C1512.39 233.098 1517.15 233.496 1520.62 235.81C1522.16 232.392 1522.62 230.032 1525.38 227.381C1529.81 228.178 1532.66 232.224 1531.83 236.745C1537.1 238.539 1538.68 242.248 1537.07 247.612L1545.27 240.225C1547.11 238.569 1557.95 243.443 1560.02 246.8C1561.52 249.222 1560.9 251.352 1560.07 255.245L1568.05 248.118C1574.12 244.777 1576.43 250.08 1580.15 253.023C1582.67 255 1586.16 255.475 1586.22 258.878C1586.28 262.679 1576.52 267.584 1568.39 267.216C1565.78 268.013 1564.36 274.603 1558.12 271.783C1556.01 270.818 1551.2 269.821 1549.24 267.354C1547.44 265.101 1546.97 261.974 1543.17 261.192C1542.13 269.101 1539.08 275.171 1533.78 280.719C1536.98 281.531 1538.99 280.566 1541.42 279.983L1548.21 287.172L1541.79 295.065L1525.14 291.126C1522.29 293.655 1518.04 296.092 1513.78 297.947C1531.17 296.889 1546.26 294.391 1563.94 298.682C1563.94 295.203 1564.11 293.287 1565.71 292.015C1567.78 290.36 1571.54 290.038 1572.72 288.245C1573.7 286.743 1572.74 284.03 1573.77 283.064C1575.13 281.792 1577.52 280.55 1579.28 281.087C1580.58 281.485 1581.07 286.053 1582.35 286.559C1586.88 288.398 1599.78 285.363 1600.01 292.598C1600.15 296.996 1593.5 296.905 1588.17 300.154C1589.19 301.794 1588.18 302.913 1587.89 303.541C1587.63 304.124 1590.7 303.005 1591.32 303.127L1610.46 306.959C1613.86 307.634 1613.88 310.684 1615.21 311.373L1637.75 322.93L1641.24 313.504C1645.65 311.603 1648.29 309.074 1653.7 308.323C1656.56 311.833 1664.19 317.29 1663.93 322.486C1663.56 329.843 1653.61 330.364 1647.12 330.9C1655.43 332.111 1661.37 337.016 1668.59 340.71C1677.51 345.277 1688.95 343.852 1697.82 343.514C1683.25 335.376 1691.85 334.533 1712.84 333.966C1713.97 334.41 1715.67 336.173 1716.41 335.452C1717.91 333.981 1718.57 332.525 1720.9 331.667C1720.58 336.633 1718.65 339.882 1716.55 344.235C1713.79 343.407 1710.95 343.085 1709.28 346.043C1715.29 348.864 1719.61 344.036 1724.84 341.936C1727.78 340.755 1729.95 339.591 1730.15 336.939C1730.5 332.326 1725.48 331.023 1725.36 327.881C1725.28 325.796 1730.63 321.98 1733.83 312.983L1747.53 307.664C1749.35 306.959 1754.7 309.626 1754.28 311.419C1751.74 318.455 1749.18 324.401 1752.49 327.36C1749.69 334.778 1741.57 335.866 1733.57 337.966C1745.98 341.185 1755.55 331.942 1764.27 324.539C1765.96 323.114 1769.48 324.585 1771.01 325.29C1772.82 318.317 1778.75 313.626 1785.68 315.834C1787.85 310.086 1789.91 306.377 1795.33 302.177C1789 300.047 1785.43 296.905 1780.31 292.644C1781.6 288.796 1784.42 286.681 1789.61 284.306C1779.95 279.34 1781.36 263.537 1786.14 261.269C1789.14 259.859 1791.27 264.196 1793.08 264.963C1799.5 267.722 1802.53 270.772 1802.12 278.282C1805.06 276.489 1809.24 274.128 1812.38 275.293C1817.91 277.347 1817.93 284.643 1813.9 288.812C1810.76 292.061 1806.93 293.962 1806.56 299.587C1806.48 300.798 1805 302.223 1804.25 302.146L1800.88 301.825C1796.77 304.078 1794.81 308.66 1793 313.335L1811.54 307.879C1809.82 304.476 1809.36 301.855 1809.52 298.805C1809.62 296.705 1818.85 290.498 1821.93 292.46C1823.34 293.349 1824.41 295.418 1825.56 297.87C1829.31 295.035 1834.06 288.735 1840.05 289.517C1843.07 289.9 1847.16 296.583 1851.42 292.046C1853.58 289.731 1857.37 287.264 1860.4 288.045C1862.77 288.659 1866.96 291.617 1866.3 294.713C1864.32 304.032 1856.14 308.247 1847.82 309.304C1857.78 310.316 1861.64 318.976 1869.5 319.206C1867.45 316.677 1864.77 315.021 1864.72 312.354C1864.61 306.039 1879.24 306.177 1889.07 300.322C1891.99 302.698 1893.08 304.89 1894.96 307.848L1887.87 318.347C1886.77 319.972 1880.75 318.501 1880.39 322.532C1884.27 321.781 1893.71 323.497 1893.57 328.187C1893.46 332.05 1885.82 336.203 1882.83 335.207C1881.77 334.563 1879.87 331.13 1878.65 332.249C1872.95 337.368 1880.95 338.686 1877.22 352.113C1880.84 351.101 1882.28 346.273 1884.36 346.656C1895.35 348.634 1889.16 359.332 1893.45 370.935C1894.86 374.751 1900.3 374.123 1903.79 372.207C1905.37 371.333 1909.75 373.372 1911.37 370.598C1913.83 366.429 1916.2 361.83 1919.88 359.209L1919.88 395.964L1920 395.535ZM1759.12 381.756C1755.51 385.465 1750.05 389.741 1744.86 385.541C1740.08 381.679 1733.6 381.924 1727.42 382.537C1726.24 382.66 1723.73 380.1 1722.31 383.028L1744.28 399.566C1746.64 401.344 1751.95 400.378 1754.34 399.443C1758.83 397.696 1757.39 389.419 1764.58 389.22C1766.79 389.159 1769.05 389.481 1769.96 392.469C1766.1 394.569 1759.91 398.125 1761.13 403.382C1762.45 409.038 1777.99 402.723 1785.86 410.862C1782.86 414.816 1777.88 409.391 1774.49 411.582C1769.33 414.924 1781.1 415.521 1789 421.468C1786.78 424.84 1784.18 424.457 1780.54 425.3L1790.63 427.032C1788.42 431.078 1784.71 431.845 1781.68 431.784C1778.38 431.722 1772.09 425.3 1773.11 423.951C1773.63 423.262 1776.12 423.323 1777.68 422.204C1773.34 421.438 1769.16 420.089 1765.8 416.518C1759.26 409.559 1750.42 407.183 1742.3 403.428C1742.04 407.919 1746.48 407.582 1747.43 408.64C1759 421.53 1775.64 420.641 1767.2 431.354C1767.84 434.65 1770.45 439.156 1773.14 441.286C1775.12 441.225 1781 442.099 1780.84 444.306C1777.13 450.084 1770.62 446.482 1764.52 446.773C1769.64 451.203 1775.29 454.452 1781 454.79L1798.42 455.832C1805.35 458.345 1811.25 463.465 1819.09 462.545C1817.71 461.457 1813.65 460.875 1813.36 458.3C1813.19 456.721 1812.69 453.947 1813.96 452.337C1816.38 453.15 1817.59 453.793 1818.28 453.211C1819.15 452.491 1819.03 448.827 1819.31 447.969C1820.41 448.138 1822.72 449.471 1823.92 448.797C1825.11 448.122 1825.99 446.728 1827.15 444.306C1828.93 446.053 1830.25 448.23 1832.45 448.72C1833.39 445.379 1832.74 443.647 1831.37 442.191C1830.78 441.578 1829.13 442.221 1828.1 442.62C1823.23 442.313 1820.99 444.214 1817.04 445.716C1814.83 446.559 1814.01 441.24 1815.12 439.616C1813.87 437.01 1812.8 435.661 1814.28 434.313C1819.31 429.76 1823.72 435.125 1824.95 432.964C1827.31 428.795 1825.8 419.859 1831.61 420.288C1837.08 420.702 1836.74 427.89 1844.27 433.929C1840.65 438.558 1844.34 443.708 1844.86 447.218C1841.54 452.245 1832.5 454.223 1826.14 451.586C1824.42 454.131 1827.69 455.464 1828.82 456.782C1830.72 458.989 1832.16 456.368 1834.54 455.663C1838.57 454.468 1845.45 454.345 1847.21 449.824C1848.74 445.9 1848.07 440.98 1853.37 438.788L1860.15 444.75L1855.6 453.594C1858.33 456.322 1860.58 459.127 1862.88 459.863C1865.82 460.798 1883.78 456.169 1887.82 447.601C1885.57 447.954 1881.34 447.57 1880.72 445.762C1877.07 435.339 1891.73 432.887 1892.19 431.477C1892.42 430.757 1890.12 429.132 1889.99 427.967C1889.59 424.626 1894.9 421.514 1897.52 421.974C1901.05 422.603 1904.04 424.672 1905.61 427.768C1907.28 423.921 1905.61 420.074 1904.92 416.886C1909.9 411.444 1905.97 405.528 1903.31 399.934C1900.86 394.768 1898.47 390.538 1892.84 386.998C1890.9 385.787 1891.52 377.878 1884.93 380.713C1888.9 382.522 1891.33 386.246 1890.81 390.201C1890.44 392.929 1887.61 398.738 1883.9 399.397C1876.93 400.654 1870.7 391.964 1872.81 385.25C1870.76 384.331 1869.61 384.469 1867.95 385.25C1869.94 388.668 1872.38 393.619 1870.3 397.911C1868.83 400.961 1863.94 405.559 1860.83 405.436L1853 397.037C1850.03 397.773 1847.76 401.022 1845.57 401.282C1842.72 401.635 1833.89 395.627 1835.82 393.45L1839.19 389.664C1839.19 385.327 1840.73 380.943 1846.84 379.778L1838.84 371.701C1851.42 360.88 1859.97 369.54 1860.83 369.126L1864.77 367.18C1860.57 362.995 1860.89 357.937 1863.17 353.416C1865.01 349.753 1870.47 348.358 1874.17 346.81C1872.93 334.747 1862.08 332.893 1860.54 328.432C1860.02 326.9 1862.05 323.926 1861.55 321.964C1860.58 318.148 1854.42 314.163 1850.78 313.596C1840.7 319.236 1832.68 312.462 1831.21 315.067C1829.62 317.903 1837.54 316.661 1837.66 323.574L1840.5 320.616C1843.09 321.091 1844.92 323.896 1844.92 325.704C1844.92 327.13 1844.08 330.808 1842.15 331.621C1835.1 334.548 1826.32 332.034 1820.81 327.62C1822.51 326.517 1823.29 325.306 1822.86 324.938L1820.61 322.961C1817.97 320.662 1820.44 312.569 1824.35 312.875C1826.06 313.013 1828.07 314.531 1828.93 314.24C1829.79 313.948 1830.15 311.419 1829.68 310.5C1828.88 308.936 1822.3 311.021 1815.68 313.78C1804.26 313.872 1794.61 315.788 1783.73 321.29C1785.28 322.148 1787.29 322.179 1790.33 321.842C1788.88 328.341 1782.43 325.781 1778.78 327.268L1748.52 339.591C1753.12 343.806 1756.83 343.162 1760.95 344.802C1766.62 358.274 1777.59 353.171 1780.08 355.608C1783.79 359.24 1762.66 357.615 1753.9 362.428C1745.49 367.042 1727.09 354.565 1732.68 346.978C1734.69 344.25 1741.24 344.649 1744.06 342.304C1736.57 341.154 1730.41 344.695 1724.59 348.404C1720.93 350.733 1716.18 349.109 1711.64 349.86L1719.72 354.964C1715.8 356.481 1715.86 362.351 1713.68 364.926C1710.91 368.038 1704.95 365.938 1701.01 366.566C1708.67 375.518 1717.74 374.843 1730.23 373.433C1726.15 371.517 1718.42 367.302 1718.45 362.75C1719.93 357.493 1726.28 358.091 1730.29 360.466C1732.89 361.999 1735.9 362.888 1735.65 369.479C1739.76 363.608 1741.51 364.206 1745.4 364.252C1751.28 364.313 1752.15 366.965 1755.72 369.816C1760.9 373.954 1769.62 373.908 1775.61 374.153C1778.8 381.51 1769.85 376.391 1759.17 381.694L1759.12 381.756ZM1073.63 234.6L1061.37 232.576C1059.81 232.316 1057.89 229.128 1054.75 230.569L1070.98 251.138C1073.66 254.54 1078.39 253.237 1081.53 250.586L1087.4 245.666C1079.85 246.815 1075.96 241.252 1074.9 235.489C1074.82 235.197 1074.35 234.707 1073.63 234.584L1073.63 234.6ZM1004.59 151.91C999.61 154.868 996.04 156.094 993.067 159.818C992.608 160.707 996.392 161.98 997.373 161.213C998.139 160.6 998.721 159.328 999.487 157.964C1005.77 153.795 1012.34 154.454 1019.37 152.615C1022.7 151.756 1025.79 146.269 1030.53 150.883C1027.04 143.112 1038.13 143.48 1034.5 133.517C1032.77 128.735 1021.47 129.961 1020.48 131.724L1018.62 135.004C1021.53 137.977 1024.97 139.525 1026.36 144.369C1019.82 144.2 1014.78 141.748 1009.12 139.295L999.916 148.308C1002.4 149.411 1003.75 150.101 1004.57 151.894L1004.59 151.91ZM389.188 106.112L396.312 108.181C397.369 108.488 398.12 111.308 397.232 111.998C394.826 113.852 392.313 115.768 390.276 115.002C383.779 112.565 380.746 103.966 372.319 106.066C365.899 107.66 362.391 103.874 355.481 101.621C373.299 119.554 395.332 132.413 420.643 140.429L442.66 144.338C455.821 150.101 465.182 137.717 468.752 145.809C465.933 145.84 463.681 145.074 461.015 147.051L478.956 148.721C484.901 147.695 485.131 150.668 488.103 151.879C494.155 154.362 504.191 154.484 510.656 152.63C513.368 150.561 515.774 148.016 519.849 146.07L528.307 142.039C524.737 140.598 518.593 134.666 520.202 131.08C522.929 125.041 528.46 120.213 534.374 121.792C539.093 123.048 542.265 128.536 544.563 132.046L547.949 126.39C544.455 122.374 539.736 115.983 542.065 111.139C544.869 105.3 549.083 101.453 555.027 100.747L544.057 85.5582C540.778 81.0214 538.649 72.5914 532.014 70.1238C519.298 77.3582 514.41 64.1922 510.227 65.1118L480.688 71.6565C486.51 72.8367 491.213 72.5455 495.473 76.5306C495.166 77.6801 494.569 79.0289 495.136 79.5193C495.856 80.1477 498.169 80.4236 498.721 79.9179C499.242 79.4427 499.656 78.0633 499.41 76.9904C498.261 71.8404 500.697 69.0049 504.957 68.0087C508.174 67.2576 510.61 69.6333 513.675 71.9937C516.739 74.3541 520.661 74.4307 522.101 78.1859C523.082 80.7302 525.579 86.2786 521.06 88.0872C513.812 90.984 505.432 86.1867 499.609 81.2053C499.947 87.6427 510.013 93.8656 503.7 97.2529C498.568 100.012 496.024 92.0416 487.812 97.9119L475.463 93.4057C474.574 88.8995 474.942 84.2248 470.591 79.5807C475.892 78.1246 478.91 76.4232 481.162 72.2389C473.149 72.4228 467.649 76.0707 461 77.5728C467.925 82.3089 473.946 85.2824 469.426 86.1407C464.508 87.0756 463.405 79.4581 446.168 86.4472L410.76 100.809C403.422 103.782 397.707 107.721 389.234 106.066L389.188 106.112Z" fill="#F3EEE1" fill-opacity="0.52"/>
</g>
<defs>
<linearGradient id="paint0_linear_663_2497" x1="960" y1="0" x2="960" y2="1080" gradientUnits="userSpaceOnUse">
<stop stop-color="#B9D6FE"/>
<stop offset="1" stop-color="#F3EEE1"/>
</linearGradient>
<clipPath id="clip0_663_2497">
<rect width="1920" height="1080" fill="white"/>
</clipPath>
</defs>
</svg>
