<svg preserveAspectRatio="none" width="100%" height="100%" overflow="visible" style="display: block;" viewBox="0 0 61 61" fill="none" xmlns="http://www.w3.org/2000/svg">
<g id="logo">
<path id="Vector" d="M61 30.5C61 22.4109 57.7866 14.6531 52.0668 8.93324C46.3469 3.21338 38.5891 0 30.5 0C22.4109 0 14.6531 3.21338 8.93324 8.93324C3.21338 14.6531 0 22.4109 0 30.5C0 38.5891 3.21338 46.3469 8.93324 52.0668C14.6531 57.7866 22.4109 61 30.5 61C38.5891 61 46.3469 57.7866 52.0668 52.0668C57.7866 46.3469 61 38.5891 61 30.5Z" fill="var(--fill-0, #520345)"/>
<path id="Vector_2" d="M48.2891 41.4723H12.081V39.871H48.2891V41.4723ZM48.2891 38.8142H44.2524V37.2435H48.2891V38.8142ZM48.2891 36.3818H46.7183V26.8353H48.2891V36.3818ZM45.8216 36.3818H44.2509V26.8353H45.8216V36.3818ZM36.8485 30.0622V30.0272C36.8485 29.1806 37.1848 28.3688 37.7834 27.7702C38.382 27.1716 39.1938 26.8353 40.0404 26.8353C40.8869 26.8353 41.6987 27.1716 42.2973 27.7702C42.8959 28.3688 43.2322 29.1806 43.2322 30.0272V38.8142H36.8485V30.0622ZM35.9122 38.8142H34.3064V37.2435H35.9076L35.9122 38.8142ZM34.3064 26.8353H35.8771V36.3818H34.3064V26.8353ZM26.9864 30.0622V30.0272C26.9864 29.1806 27.3226 28.3688 27.9212 27.7702C28.5198 27.1716 29.3317 26.8353 30.1782 26.8353C31.0247 26.8353 31.8366 27.1716 32.4351 27.7702C33.0337 28.3688 33.37 29.1806 33.37 30.0272V38.8142H26.9864V30.0622ZM26.0881 38.8142H24.4915V37.2435H26.0927L26.0881 38.8142ZM24.4899 26.8353H26.0607V36.3818H24.4899V26.8353ZM17.0129 30.0622V30.0272C17.0129 29.1806 17.3491 28.3688 17.9477 27.7702C18.5463 27.1716 19.3582 26.8353 20.2047 26.8353C21.0512 26.8353 21.8631 27.1716 22.4616 27.7702C23.0602 28.3688 23.3965 29.1806 23.3965 30.0272V38.8142H17.0129V30.0622ZM48.2845 25.8273H12.081V20.3846H48.2891L48.2845 25.8273ZM12.0749 26.8353H13.6457V36.3818H12.0749V26.8353ZM14.5424 26.8353H16.1131V36.3818H14.5424V26.8353ZM12.0749 37.2435H16.1131V38.8142H12.0749V37.2435Z" fill="var(--fill-0, #B9D6FE)"/>
</g>
</svg>
