<svg width="214" height="44" viewBox="0 0 214 44" fill="none" xmlns="http://www.w3.org/2000/svg">
  <path d="M200.948 43.5L13.1424 43.4968C12.4765 43.4944 11.9639 42.9872 11.9643 42.3214L11.9668 38.0722C9.0753 37.2592 6.53679 35.5753 4.57617 33.283C0.419075 28.4228 -0.639279 21.5618 1.77494 15.5985C3.58546 11.1263 7.33288 7.37353 12.0126 6.03076L12.0266 1.65521C12.0285 1.0734 12.5244 0.5 13.1478 0.5L200.775 0.502146C201.467 0.499163 201.995 1.03387 201.995 1.71946L201.998 6.04614C203.451 6.43127 204.771 7.01896 205.996 7.84413C210.782 11.0687 213.566 16.5254 213.499 22.3697C213.437 27.8007 210.838 32.8781 206.454 35.9763C205.087 36.9419 203.629 37.6492 201.981 38.0591L201.966 42.3805C201.964 42.9398 201.56 43.4062 200.948 43.5ZM200.696 42.6975C200.978 42.7142 201.175 42.5779 201.175 42.3244L201.179 37.4462C202.535 37.1406 203.766 36.671 204.96 35.9678C209.689 33.1828 212.607 28.0062 212.7 22.4457C212.795 16.7962 210.084 11.4963 205.424 8.43138C204.142 7.58823 202.753 7.00326 201.216 6.67366L201.206 1.64226C201.205 1.46672 200.958 1.29846 200.773 1.31925L13.2222 1.31649C12.9674 1.34641 12.8185 1.49116 12.8185 1.71425L12.8182 6.66652C7.49697 7.91192 3.46065 12.3716 1.9436 17.6106C-0.176398 24.932 3.08142 33.0292 9.81893 36.3907C10.7733 36.8668 11.6984 37.2057 12.7466 37.4384L12.7456 42.1715C12.7456 42.4762 12.8628 42.696 13.2239 42.696L200.696 42.6975Z" fill="#FD6500" stroke="#520345"/>
</svg>
