<svg preserveAspectRatio="none" width="100%" height="100%" overflow="visible" style="display: block;" viewBox="0 0 18.97 20.0001" fill="none" xmlns="http://www.w3.org/2000/svg">
<g id="Group">
<path id="Vector" d="M6.85065 0.0658994C11.3337 -0.516307 14.9702 2.83574 15.5425 7.09574C16.15 11.6185 13.0178 15.7231 8.94698 16.3217C4.58268 16.9636 0.757444 13.8607 0.0996037 9.51605C-0.584409 4.998 2.32629 0.653394 6.85065 0.0658994ZM6.86071 1.38208C3.06567 1.97803 0.706608 5.69231 1.34784 9.46793C1.94931 13.0088 5.24656 15.5988 8.74817 15.0346C12.2704 14.4672 14.7774 11.057 14.3053 7.31043C13.8458 3.66596 10.6623 0.785064 6.86071 1.38208Z" fill="var(--fill-0, #F3EEE1)"/>
<path id="Vector_2" d="M18.0922 20.0001L13.9605 15.6597L14.8317 14.7222L18.97 19.0599L18.0922 20.0001Z" fill="var(--fill-0, #F3EEE1)"/>
</g>
</svg>
