<svg width="111" height="33" viewBox="0 0 111 33" fill="none" xmlns="http://www.w3.org/2000/svg">
<path d="M8.77625 26.375L8.3573 26.3057C7.61253 26.1834 6.8902 25.8435 6.22351 25.251L6.2157 25.2441L5.98132 25.0342C4.82685 23.9424 3.95071 22.289 3.45496 20.3438C2.92762 18.2745 2.84159 15.9133 3.28699 13.6367C3.65698 11.7456 4.35419 10.1272 5.25183 8.93945C6.15038 7.75053 7.22876 7.0178 8.36707 6.82715L8.78308 6.75781L8.78406 6.33594L8.79285 3H102.217L102.22 6.32617V6.75L102.638 6.81934C104.134 7.06876 105.489 8.2114 106.474 10.0176C107.457 11.8172 108.036 14.2194 107.998 16.8428C107.962 19.3345 107.353 21.6007 106.38 23.293C105.403 24.992 104.096 26.058 102.683 26.2881L102.482 26.3203L102.361 26.4844L102.299 26.5693L102.2 26.7021V29.999H8.78015L8.77625 26.7988V26.375Z" fill="#520345" stroke="#520345"/>
<path d="M104.017 32.5L7.02883 32.4976C6.68494 32.4958 6.4202 32.1184 6.42043 31.6229L6.42174 28.4607C4.92846 27.8557 3.61749 26.6025 2.60496 24.8967C0.458105 21.2797 -0.0884625 16.1739 1.15832 11.7361C2.09333 8.40796 4.02861 5.61518 6.44535 4.61591L6.45262 1.35969C6.45358 0.926715 6.70967 0.5 7.03165 0.5L103.929 0.501597C104.285 0.499377 104.558 0.897297 104.558 1.40751L104.56 4.62736C105.31 4.91397 105.992 5.35132 106.624 5.9654C109.096 8.36506 110.534 12.4259 110.499 16.7751C110.467 20.8168 109.125 24.5953 106.861 26.901C106.155 27.6195 105.402 28.1459 104.551 28.451L104.543 31.6669C104.543 32.0831 104.334 32.4302 104.017 32.5ZM103.887 31.9028C104.033 31.9152 104.135 31.8138 104.135 31.6251L104.137 27.9949C104.837 27.7674 105.473 27.4179 106.089 26.8947C108.532 24.8221 110.039 20.9697 110.087 16.8317C110.136 12.6274 108.736 8.68326 106.329 6.40243C105.667 5.77496 104.95 5.33963 104.156 5.09435L104.151 1.35006C104.151 1.21942 104.023 1.0942 103.927 1.10967L7.07006 1.10762C6.93844 1.12989 6.86154 1.23761 6.86154 1.40363L6.86139 5.08904C4.11336 6.01584 2.02887 9.33469 1.24542 13.2335C0.150584 18.682 1.83303 24.7078 5.31249 27.2094C5.80535 27.5637 6.28313 27.8159 6.82444 27.9891L6.8239 31.5113C6.8239 31.7381 6.88446 31.9017 7.07091 31.9017L103.887 31.9028Z" fill="#FD6500" stroke="#520345"/>
<path d="M16.2161 13.198V11.49H24.2661V13.198H21.2561V21.5H19.2261V13.198H16.2161ZM26.1467 21.5V11.49H28.1767V21.5H26.1467ZM30.5684 21.5V11.49H34.9644C36.1264 11.49 36.9944 11.826 37.5824 12.428C38.1424 13.002 38.4784 13.786 38.4784 14.71C38.4784 16.6 37.2324 17.874 35.1324 17.874H32.6684V21.5H30.5684ZM32.6684 13.254V16.222H34.7684C35.8324 16.222 36.3924 15.634 36.3924 14.724C36.3924 13.786 35.8044 13.254 34.7964 13.254H32.6684ZM44.8552 21.724C41.9012 21.724 40.0252 19.512 40.0252 16.516C40.0252 13.52 41.9012 11.294 44.8552 11.294C47.8092 11.294 49.6712 13.52 49.6712 16.516C49.6712 19.512 47.8092 21.724 44.8552 21.724ZM44.8692 20.058C46.7032 20.058 47.5992 18.504 47.5992 16.516C47.5992 14.514 46.7032 12.96 44.8692 12.96C43.0352 12.96 42.0972 14.514 42.0972 16.516C42.0972 18.504 43.0352 20.058 44.8692 20.058ZM51.6214 21.5V11.49H53.6514V19.806H58.3554V21.5H51.6214ZM64.2539 21.724C61.2999 21.724 59.4239 19.512 59.4239 16.516C59.4239 13.52 61.2999 11.294 64.2539 11.294C67.2079 11.294 69.0699 13.52 69.0699 16.516C69.0699 19.512 67.2079 21.724 64.2539 21.724ZM64.2679 20.058C66.1019 20.058 66.9979 18.504 66.9979 16.516C66.9979 14.514 66.1019 12.96 64.2679 12.96C62.4339 12.96 61.4959 14.514 61.4959 16.516C61.4959 18.504 62.4339 20.058 64.2679 20.058ZM78.3562 21.5L78.2862 20.156H78.2582C77.5722 21.304 76.6342 21.71 75.4442 21.71C73.9322 21.71 72.7562 21.164 71.9302 20.254C71.1042 19.33 70.6282 18.042 70.6282 16.53C70.6282 14.864 71.2162 13.408 72.2662 12.442C73.0782 11.7 74.1422 11.294 75.4862 11.294C78.0062 11.294 79.4482 12.68 79.7702 14.64H77.7822C77.5582 13.674 76.8162 12.974 75.5282 12.974C73.6382 12.974 72.7002 14.542 72.7002 16.53C72.7002 18.574 73.7782 20.072 75.5002 20.072C77.0542 20.072 78.0762 18.91 78.0762 17.804V17.748H75.6682V16.18H79.8822V21.5H78.3562ZM82.1554 21.5V11.49H84.1854V21.5H82.1554ZM85.2214 9.208L83.8914 10.958H82.4074L82.9954 9.208H85.2214ZM85.8491 21.5L89.3351 11.49H91.4351L94.9631 21.5H92.8491L92.1771 19.372H88.5651L87.9071 21.5H85.8491ZM89.9371 14.934L89.0411 17.818H91.6871L90.7911 14.934C90.6231 14.402 90.3851 13.394 90.3851 13.394H90.3571C90.3571 13.394 90.1051 14.402 89.9371 14.934Z" fill="#F3EEE1"/>
</svg>
