<svg width="111" height="33" viewBox="0 0 111 33" fill="none" xmlns="http://www.w3.org/2000/svg">
<path d="M8.77625 26.375L8.3573 26.3057C7.61253 26.1834 6.8902 25.8435 6.22351 25.251L6.2157 25.2441L5.98132 25.0342C4.82685 23.9424 3.95071 22.289 3.45496 20.3438C2.92762 18.2745 2.84159 15.9133 3.28699 13.6367C3.65698 11.7456 4.35419 10.1272 5.25183 8.93945C6.15038 7.75053 7.22876 7.0178 8.36707 6.82715L8.78308 6.75781L8.78406 6.33594L8.79285 3H102.217L102.22 6.32617V6.75L102.638 6.81934C104.134 7.06876 105.489 8.2114 106.474 10.0176C107.457 11.8172 108.036 14.2194 107.998 16.8428C107.962 19.3345 107.353 21.6007 106.38 23.293C105.403 24.992 104.096 26.058 102.683 26.2881L102.482 26.3203L102.361 26.4844L102.299 26.5693L102.2 26.7021V29.999H8.78015L8.77625 26.7988V26.375Z" fill="#520345" stroke="#520345"/>
<path d="M104.017 32.5L7.02883 32.4976C6.68494 32.4958 6.4202 32.1184 6.42043 31.6229L6.42174 28.4607C4.92846 27.8557 3.61749 26.6025 2.60496 24.8967C0.458105 21.2797 -0.0884625 16.1739 1.15832 11.7361C2.09333 8.40796 4.02861 5.61518 6.44535 4.61591L6.45262 1.35969C6.45358 0.926715 6.70967 0.5 7.03165 0.5L103.929 0.501597C104.285 0.499377 104.558 0.897297 104.558 1.40751L104.56 4.62736C105.31 4.91397 105.992 5.35132 106.624 5.9654C109.096 8.36506 110.534 12.4259 110.499 16.7751C110.467 20.8168 109.125 24.5953 106.861 26.901C106.155 27.6195 105.402 28.1459 104.551 28.451L104.543 31.6669C104.543 32.0831 104.334 32.4302 104.017 32.5ZM103.887 31.9028C104.033 31.9152 104.135 31.8138 104.135 31.6251L104.137 27.9949C104.837 27.7674 105.473 27.4179 106.089 26.8947C108.532 24.8221 110.039 20.9697 110.087 16.8317C110.136 12.6274 108.736 8.68326 106.329 6.40243C105.667 5.77496 104.95 5.33963 104.156 5.09435L104.151 1.35006C104.151 1.21942 104.023 1.0942 103.927 1.10967L7.07006 1.10762C6.93844 1.12989 6.86154 1.23761 6.86154 1.40363L6.86139 5.08904C4.11336 6.01584 2.02887 9.33469 1.24542 13.2335C0.150584 18.682 1.83303 24.7078 5.31249 27.2094C5.80535 27.5637 6.28313 27.8159 6.82444 27.9891L6.8239 31.5113C6.8239 31.7381 6.88446 31.9017 7.07091 31.9017L103.887 31.9028Z" fill="#FD6500" stroke="#520345"/>
<path d="M23.576 21.5V11.49H27.972C29.134 11.49 30.002 11.826 30.5901 12.428C31.15 13.002 31.486 13.786 31.486 14.71C31.486 16.6 30.24 17.874 28.14 17.874H25.676V21.5H23.576ZM25.676 13.254V16.222H27.776C28.84 16.222 29.4 15.634 29.4 14.724C29.4 13.786 28.812 13.254 27.804 13.254H25.676ZM33.3301 21.5V11.49H40.6941V13.198H35.3601V15.438H40.0361V17.104H35.3601V19.806H40.7361V21.5H33.3301ZM42.8381 21.5V11.49H47.4301C49.3621 11.49 50.6501 12.61 50.6501 14.276C50.6501 15.452 50.1041 16.348 48.8161 16.698V16.74C49.7401 17.006 50.2161 17.538 50.3421 18.756C50.4821 20.17 50.4261 21.248 50.7761 21.402V21.5H48.8301C48.5781 21.388 48.5501 20.268 48.4661 19.19C48.3821 18.098 47.7661 17.482 46.5061 17.482H44.8681V21.5H42.8381ZM44.8681 13.128V15.914H47.0241C48.1301 15.914 48.6761 15.34 48.6761 14.542C48.6761 13.73 48.1581 13.128 47.0801 13.128H44.8681ZM52.8112 21.5V11.49H54.8412V21.5H52.8112ZM55.8772 9.208L54.5472 10.958H53.0632L53.6512 9.208H55.8772ZM61.6289 21.724C58.6749 21.724 56.7989 19.512 56.7989 16.516C56.7989 13.52 58.6749 11.294 61.6289 11.294C64.5829 11.294 66.4449 13.52 66.4449 16.516C66.4449 19.512 64.5829 21.724 61.6289 21.724ZM61.6429 20.058C63.4769 20.058 64.3729 18.504 64.3729 16.516C64.3729 14.514 63.4769 12.96 61.6429 12.96C59.8089 12.96 58.8709 14.514 58.8709 16.516C58.8709 18.504 59.8089 20.058 61.6429 20.058ZM68.3952 21.5V11.49H72.3012C74.9752 11.49 76.6972 13.646 76.6972 16.6C76.6972 18.224 76.1512 19.652 75.1012 20.534C74.3592 21.15 73.3932 21.5 72.1332 21.5H68.3952ZM70.4252 19.75H71.9932C73.8972 19.75 74.6392 18.588 74.6392 16.6C74.6392 14.612 73.7712 13.226 72.0492 13.226H70.4252V19.75ZM83.0374 21.724C80.0834 21.724 78.2074 19.512 78.2074 16.516C78.2074 13.52 80.0834 11.294 83.0374 11.294C85.9914 11.294 87.8534 13.52 87.8534 16.516C87.8534 19.512 85.9914 21.724 83.0374 21.724ZM83.0514 20.058C84.8854 20.058 85.7814 18.504 85.7814 16.516C85.7814 14.514 84.8854 12.96 83.0514 12.96C81.2174 12.96 80.2794 14.514 80.2794 16.516C80.2794 18.504 81.2174 20.058 83.0514 20.058Z" fill="#F3EEE1"/>
</svg>
