<svg width="25" height="25" viewBox="0 0 25 25" fill="none" xmlns="http://www.w3.org/2000/svg">
  <path d="M14.9887 24.9454C14.3814 25.1396 13.3525 23.5255 13.2525 23.1675C12.4523 23.8774 11.5377 24.8483 10.7518 25C7.66522 23.7075 7.44376 20.8739 8.55122 18.3436C6.85073 19.2113 6.38629 20.6069 5.4003 20.7768C2.49947 21.2744 -0.772901 17.0997 0.16308 15.1094C0.727526 13.9019 2.18509 12.925 4.4143 12.6095C3.06391 12.0816 2.25653 11.5961 1.49917 10.6495C0.541755 9.44803 1.72068 5.26124 4.42145 4.69693C5.73611 4.42387 7.09366 4.98211 8.55122 6.28063C8.49406 3.87169 8.29397 1.80863 10.2159 0.230985C10.6947 -0.163427 11.8521 -0.0238923 12.1094 0.431198L13.3097 2.54281C13.4097 1.99063 14.0599 0.0671169 14.9602 0.0428454C17.8681 1.38991 17.4037 4.33286 16.4177 6.82676C18.1182 5.72847 20.2974 3.82316 22.1551 4.77581C23.6555 5.54037 24.8344 7.59126 24.5915 8.67134C24.3057 9.93346 22.9553 11.5172 21.3906 11.9419C23.1696 12.6155 24.4915 13.4892 24.8844 14.5269C25.7204 16.7356 21.7835 20.1275 20.7189 19.8605C19.1614 19.4783 18.3754 18.6348 17.0465 17.6579C18.0825 20.4855 18.6612 23.295 14.9887 24.9454Z" fill="#B9D6FE"/>
</svg>
