<svg width="835" height="525" viewBox="0 0 835 525" fill="none" xmlns="http://www.w3.org/2000/svg">
<path d="M297.201 266.999L202.781 267L202.777 263.299C201.932 263.161 201.124 262.776 200.391 262.125C197.648 259.785 196.377 254.739 197.296 250.041C198.06 246.139 200.188 243.269 202.784 242.834L202.794 239L297.217 239L297.22 242.826C300.621 243.393 303.076 247.957 302.998 253.35C302.924 258.478 300.49 262.756 297.264 263.281L297.2 263.367L297.201 266.999Z" fill="#FD6500"/>
<path d="M298.518 269L201.529 268.998C201.185 268.996 200.92 268.618 200.921 268.123L200.922 264.961C199.429 264.356 198.118 263.103 197.105 261.397C194.958 257.78 194.412 252.674 195.658 248.236C196.593 244.908 198.529 242.115 200.945 241.116L200.953 237.86C200.954 237.427 201.21 237 201.532 237L298.429 237.002C298.786 236.999 299.058 237.397 299.059 237.908L299.06 241.127C299.811 241.414 300.492 241.851 301.125 242.465C303.597 244.865 305.034 248.926 304.999 253.275C304.967 257.317 303.625 261.095 301.361 263.401C300.656 264.12 299.902 264.646 299.051 264.951L299.044 268.167C299.043 268.583 298.834 268.93 298.518 269ZM298.388 268.403C298.533 268.415 298.635 268.314 298.635 268.125L298.637 264.495C299.337 264.267 299.973 263.918 300.59 263.395C303.032 261.322 304.539 257.47 304.587 253.332C304.636 249.127 303.236 245.183 300.829 242.902C300.167 242.275 299.45 241.84 298.656 241.594L298.651 237.85C298.651 237.719 298.523 237.594 298.427 237.61L201.57 237.608C201.439 237.63 201.362 237.738 201.362 237.904L201.362 241.589C198.613 242.516 196.529 245.835 195.746 249.733C194.651 255.182 196.333 261.208 199.813 263.709C200.305 264.064 200.783 264.316 201.325 264.489L201.324 268.011C201.324 268.238 201.385 268.402 201.571 268.402L298.388 268.403Z" fill="#FD6500" stroke="#FD6500"/>
<path d="M209.019 258V247.99H212.925C215.599 247.99 217.321 250.146 217.321 253.1C217.321 254.724 216.775 256.152 215.725 257.034C214.983 257.65 214.017 258 212.757 258H209.019ZM211.049 256.25H212.617C214.521 256.25 215.263 255.088 215.263 253.1C215.263 251.112 214.395 249.726 212.673 249.726H211.049V256.25ZM219.266 258V247.99H226.63V249.698H221.296V251.938H225.972V253.604H221.296V256.306H226.672V258H219.266ZM232.583 258.224C229.867 258.224 228.327 257.02 228.257 254.906H230.245C230.385 256.11 231.071 256.586 232.499 256.586C233.535 256.586 234.445 256.222 234.445 255.298C234.445 254.318 233.493 254.122 231.967 253.772C230.175 253.366 228.537 252.89 228.537 250.804C228.537 248.83 230.147 247.808 232.373 247.808C234.627 247.808 236.083 248.914 236.237 250.93H234.291C234.179 249.922 233.395 249.418 232.359 249.418C231.267 249.418 230.553 249.88 230.553 250.594C230.553 251.406 231.253 251.644 232.737 251.966C234.795 252.414 236.475 252.904 236.475 255.06C236.475 257.09 234.837 258.224 232.583 258.224ZM242.91 258.21C240.096 258.21 238.094 256.04 238.094 253.03C238.094 250.062 239.942 247.794 242.896 247.794C245.36 247.794 246.816 249.264 247.026 251.168H245.01C244.828 250.16 244.072 249.502 242.896 249.502C241.048 249.502 240.166 251.042 240.166 253.03C240.166 255.074 241.23 256.544 242.91 256.544C244.1 256.544 244.94 255.83 245.066 254.78H247.054C246.998 255.662 246.62 256.516 245.948 257.146C245.262 257.79 244.296 258.21 242.91 258.21ZM252.802 258.168C250.212 258.168 248.854 256.95 248.854 254.78V247.99H250.884V254.78C250.884 255.816 251.402 256.544 252.76 256.544C254.048 256.544 254.65 255.788 254.65 254.752V247.99H256.68V254.78C256.68 256.922 255.364 258.168 252.802 258.168ZM258.979 258V247.99H263.459C264.537 247.99 265.363 248.256 265.881 248.718C266.427 249.208 266.679 249.81 266.679 250.594C266.679 251.616 266.049 252.274 265.111 252.596V252.638C266.217 252.96 266.973 253.884 266.973 255.116C266.973 256.054 266.679 256.698 266.091 257.202C265.517 257.706 264.635 258 263.571 258H258.979ZM261.009 253.52V256.32H263.347C264.327 256.32 264.915 255.774 264.915 254.962C264.915 254.01 264.215 253.52 263.291 253.52H261.009ZM261.009 252.022H263.207C264.089 252.022 264.691 251.602 264.691 250.818C264.691 250.076 264.145 249.642 263.249 249.642H261.009V252.022ZM269.007 258V247.99H273.599C275.531 247.99 276.819 249.11 276.819 250.776C276.819 251.952 276.273 252.848 274.985 253.198V253.24C275.909 253.506 276.385 254.038 276.511 255.256C276.651 256.67 276.595 257.748 276.945 257.902V258H274.999C274.747 257.888 274.719 256.768 274.635 255.69C274.551 254.598 273.935 253.982 272.675 253.982H271.037V258H269.007ZM271.037 249.628V252.414H273.193C274.299 252.414 274.845 251.84 274.845 251.042C274.845 250.23 274.327 249.628 273.249 249.628H271.037ZM278.98 258V247.99H281.01V258H278.98ZM283.401 258V247.99H287.993C289.925 247.99 291.213 249.11 291.213 250.776C291.213 251.952 290.667 252.848 289.379 253.198V253.24C290.303 253.506 290.779 254.038 290.905 255.256C291.045 256.67 290.989 257.748 291.339 257.902V258H289.393C289.141 257.888 289.113 256.768 289.029 255.69C288.945 254.598 288.329 253.982 287.069 253.982H285.431V258H283.401ZM285.431 249.628V252.414H287.587C288.693 252.414 289.239 251.84 289.239 251.042C289.239 250.23 288.721 249.628 287.643 249.628H285.431Z" fill="#F3EEE1"/>
<path d="M293.518 77L196.529 76.9976C196.185 76.9958 195.92 76.6184 195.921 76.1229L195.922 72.9607C194.429 72.3557 193.118 71.1025 192.105 69.3967C189.958 65.7797 189.412 60.6739 190.658 56.2361C191.593 52.908 193.529 50.1152 195.945 49.1159L195.953 45.8597C195.954 45.4267 196.21 45 196.532 45L293.429 45.0016C293.786 44.9994 294.058 45.3973 294.059 45.9075L294.06 49.1274C294.811 49.414 295.492 49.8513 296.125 50.4654C298.597 52.8651 300.034 56.9259 299.999 61.2751C299.967 65.3168 298.625 69.0953 296.361 71.401C295.656 72.1195 294.902 72.6459 294.051 72.951L294.044 76.1669C294.043 76.5831 293.834 76.9302 293.518 77ZM293.388 76.4028C293.533 76.4152 293.635 76.3138 293.635 76.1251L293.637 72.4949C294.337 72.2674 294.973 71.9179 295.59 71.3947C298.032 69.3221 299.539 65.4697 299.587 61.3317C299.636 57.1274 298.236 53.1833 295.829 50.9024C295.167 50.275 294.45 49.8396 293.656 49.5944L293.651 45.8501C293.651 45.7194 293.523 45.5942 293.427 45.6097L196.57 45.6076C196.439 45.6299 196.362 45.7376 196.362 45.9036L196.362 49.589C193.613 50.5158 191.529 53.8347 190.746 57.7335C189.651 63.182 191.333 69.2078 194.813 71.7094C195.305 72.0637 195.783 72.3159 196.325 72.4891L196.324 76.0113C196.324 76.2381 196.385 76.4017 196.571 76.4017L293.388 76.4028Z" stroke="#520345"/>
<path d="M213.076 66V55.99H217.472C218.634 55.99 219.502 56.326 220.09 56.928C220.65 57.502 220.986 58.286 220.986 59.21C220.986 61.1 219.74 62.374 217.64 62.374H215.176V66H213.076ZM215.176 57.754V60.722H217.276C218.34 60.722 218.9 60.134 218.9 59.224C218.9 58.286 218.312 57.754 217.304 57.754H215.176ZM222.83 66V55.99H230.194V57.698H224.86V59.938H229.536V61.604H224.86V64.306H230.236V66H222.83ZM232.338 66V55.99H236.93C238.862 55.99 240.15 57.11 240.15 58.776C240.15 59.952 239.604 60.848 238.316 61.198V61.24C239.24 61.506 239.716 62.038 239.842 63.256C239.982 64.67 239.926 65.748 240.276 65.902V66H238.33C238.078 65.888 238.05 64.768 237.966 63.69C237.882 62.598 237.266 61.982 236.006 61.982H234.368V66H232.338ZM234.368 57.628V60.414H236.524C237.63 60.414 238.176 59.84 238.176 59.042C238.176 58.23 237.658 57.628 236.58 57.628H234.368ZM242.311 66V55.99H244.341V66H242.311ZM245.377 53.708L244.047 55.458H242.563L243.151 53.708H245.377ZM251.129 66.224C248.175 66.224 246.299 64.012 246.299 61.016C246.299 58.02 248.175 55.794 251.129 55.794C254.083 55.794 255.945 58.02 255.945 61.016C255.945 64.012 254.083 66.224 251.129 66.224ZM251.143 64.558C252.977 64.558 253.873 63.004 253.873 61.016C253.873 59.014 252.977 57.46 251.143 57.46C249.309 57.46 248.371 59.014 248.371 61.016C248.371 63.004 249.309 64.558 251.143 64.558ZM257.895 66V55.99H261.801C264.475 55.99 266.197 58.146 266.197 61.1C266.197 62.724 265.651 64.152 264.601 65.034C263.859 65.65 262.893 66 261.633 66H257.895ZM259.925 64.25H261.493C263.397 64.25 264.139 63.088 264.139 61.1C264.139 59.112 263.271 57.726 261.549 57.726H259.925V64.25ZM272.538 66.224C269.584 66.224 267.708 64.012 267.708 61.016C267.708 58.02 269.584 55.794 272.538 55.794C275.492 55.794 277.354 58.02 277.354 61.016C277.354 64.012 275.492 66.224 272.538 66.224ZM272.552 64.558C274.386 64.558 275.282 63.004 275.282 61.016C275.282 59.014 274.386 57.46 272.552 57.46C270.718 57.46 269.78 59.014 269.78 61.016C269.78 63.004 270.718 64.558 272.552 64.558Z" fill="#520345"/>
<path d="M421.518 77L324.529 76.9976C324.185 76.9958 323.92 76.6184 323.921 76.1229L323.922 72.9607C322.429 72.3557 321.118 71.1025 320.105 69.3967C317.958 65.7797 317.412 60.6739 318.658 56.2361C319.593 52.908 321.529 50.1152 323.945 49.1159L323.953 45.8597C323.954 45.4267 324.21 45 324.532 45L421.429 45.0016C421.786 44.9994 422.058 45.3973 422.059 45.9075L422.06 49.1274C422.811 49.414 423.492 49.8513 424.125 50.4654C426.597 52.8651 428.034 56.9259 427.999 61.2751C427.967 65.3168 426.625 69.0953 424.361 71.401C423.656 72.1195 422.902 72.6459 422.051 72.951L422.044 76.1669C422.043 76.5831 421.834 76.9302 421.518 77ZM421.388 76.4028C421.533 76.4152 421.635 76.3138 421.635 76.1251L421.637 72.4949C422.337 72.2674 422.973 71.9179 423.59 71.3947C426.032 69.3221 427.539 65.4697 427.587 61.3317C427.636 57.1274 426.236 53.1833 423.829 50.9024C423.167 50.275 422.45 49.8396 421.656 49.5944L421.651 45.8501C421.651 45.7194 421.523 45.5942 421.427 45.6097L324.57 45.6076C324.439 45.6299 324.362 45.7376 324.362 45.9036L324.362 49.589C321.613 50.5158 319.529 53.8347 318.746 57.7335C317.651 63.182 319.333 69.2078 322.813 71.7094C323.305 72.0637 323.783 72.3159 324.325 72.4891L324.324 76.0113C324.324 76.2381 324.385 76.4017 324.571 76.4017L421.388 76.4028Z" stroke="#520345"/>
<path d="M331.247 66V55.99H335.153C337.827 55.99 339.549 58.146 339.549 61.1C339.549 62.724 339.003 64.152 337.953 65.034C337.211 65.65 336.245 66 334.985 66H331.247ZM333.277 64.25H334.845C336.749 64.25 337.491 63.088 337.491 61.1C337.491 59.112 336.623 57.726 334.901 57.726H333.277V64.25ZM341.507 66V55.99H343.537V66H341.507ZM349.807 66.224C347.091 66.224 345.551 65.02 345.481 62.906H347.469C347.609 64.11 348.295 64.586 349.723 64.586C350.759 64.586 351.669 64.222 351.669 63.298C351.669 62.318 350.717 62.122 349.191 61.772C347.399 61.366 345.761 60.89 345.761 58.804C345.761 56.83 347.371 55.808 349.597 55.808C351.851 55.808 353.307 56.914 353.461 58.93H351.515C351.403 57.922 350.619 57.418 349.583 57.418C348.491 57.418 347.777 57.88 347.777 58.594C347.777 59.406 348.477 59.644 349.961 59.966C352.019 60.414 353.699 60.904 353.699 63.06C353.699 65.09 352.061 66.224 349.807 66.224ZM355.751 66V55.99H363.115V57.698H357.781V59.938H362.457V61.604H357.781V64.306H363.157V66H355.751ZM365.259 66V55.99H367.317L370.649 61.576C370.971 62.122 371.349 62.976 371.349 62.976H371.377C371.377 62.976 371.321 61.94 371.321 61.24V55.99H373.323V66H371.363L367.947 60.47C367.625 59.938 367.233 59.084 367.233 59.084H367.205C367.205 59.084 367.261 60.134 367.261 60.834V66H365.259ZM370.201 55.43C369.529 55.43 369.053 54.968 368.675 54.968C368.479 54.968 368.339 55.136 368.297 55.402H367.289C367.289 54.31 367.849 53.75 368.549 53.75C369.235 53.75 369.697 54.24 370.075 54.24C370.341 54.24 370.425 54.072 370.481 53.806H371.489C371.489 54.758 371.013 55.43 370.201 55.43ZM374.969 66L378.455 55.99H380.555L384.083 66H381.969L381.297 63.872H377.685L377.027 66H374.969ZM379.057 59.434L378.161 62.318H380.807L379.911 59.434C379.743 58.902 379.505 57.894 379.505 57.894H379.477C379.477 57.894 379.225 58.902 379.057 59.434ZM385.765 66V55.99H389.671C392.345 55.99 394.067 58.146 394.067 61.1C394.067 62.724 393.521 64.152 392.471 65.034C391.729 65.65 390.763 66 389.503 66H385.765ZM387.795 64.25H389.363C391.267 64.25 392.009 63.088 392.009 61.1C392.009 59.112 391.141 57.726 389.419 57.726H387.795V64.25ZM400.408 66.224C397.454 66.224 395.578 64.012 395.578 61.016C395.578 58.02 397.454 55.794 400.408 55.794C403.362 55.794 405.224 58.02 405.224 61.016C405.224 64.012 403.362 66.224 400.408 66.224ZM400.422 64.558C402.256 64.558 403.152 63.004 403.152 61.016C403.152 59.014 402.256 57.46 400.422 57.46C398.588 57.46 397.65 59.014 397.65 61.016C397.65 63.004 398.588 64.558 400.422 64.558ZM407.174 66V55.99H411.766C413.698 55.99 414.986 57.11 414.986 58.776C414.986 59.952 414.44 60.848 413.152 61.198V61.24C414.076 61.506 414.552 62.038 414.678 63.256C414.818 64.67 414.762 65.748 415.112 65.902V66H413.166C412.914 65.888 412.886 64.768 412.802 63.69C412.718 62.598 412.102 61.982 410.842 61.982H409.204V66H407.174ZM409.204 57.628V60.414H411.36C412.466 60.414 413.012 59.84 413.012 59.042C413.012 58.23 412.494 57.628 411.416 57.628H409.204Z" fill="#520345"/>
<path d="M549.518 77L452.529 76.9976C452.185 76.9958 451.92 76.6184 451.921 76.1229L451.922 72.9607C450.429 72.3557 449.118 71.1025 448.105 69.3967C445.958 65.7797 445.412 60.6739 446.658 56.2361C447.593 52.908 449.529 50.1152 451.945 49.1159L451.953 45.8597C451.954 45.4267 452.21 45 452.532 45L549.429 45.0016C549.786 44.9994 550.058 45.3973 550.059 45.9075L550.06 49.1274C550.811 49.414 551.492 49.8513 552.125 50.4654C554.597 52.8651 556.034 56.9259 555.999 61.2751C555.967 65.3168 554.625 69.0953 552.361 71.401C551.656 72.1195 550.902 72.6459 550.051 72.951L550.044 76.1669C550.043 76.5831 549.834 76.9302 549.518 77ZM549.388 76.4028C549.533 76.4152 549.635 76.3138 549.635 76.1251L549.637 72.4949C550.337 72.2674 550.973 71.9179 551.59 71.3947C554.032 69.3221 555.539 65.4697 555.587 61.3317C555.636 57.1274 554.236 53.1833 551.829 50.9024C551.167 50.275 550.45 49.8396 549.656 49.5944L549.651 45.8501C549.651 45.7194 549.523 45.5942 549.427 45.6097L452.57 45.6076C452.439 45.6299 452.362 45.7376 452.362 45.9036L452.362 49.589C449.613 50.5158 447.529 53.8347 446.746 57.7335C445.651 63.182 447.333 69.2078 450.813 71.7094C451.305 72.0637 451.783 72.3159 452.325 72.4891L452.324 76.0113C452.324 76.2381 452.385 76.4017 452.571 76.4017L549.388 76.4028Z" stroke="#520345"/>
<path d="M461.716 57.698V55.99H469.766V57.698H466.756V66H464.726V57.698H461.716ZM471.647 66V55.99H473.677V66H471.647ZM476.069 66V55.99H480.465C481.627 55.99 482.495 56.326 483.083 56.928C483.643 57.502 483.979 58.286 483.979 59.21C483.979 61.1 482.733 62.374 480.633 62.374H478.169V66H476.069ZM478.169 57.754V60.722H480.269C481.333 60.722 481.893 60.134 481.893 59.224C481.893 58.286 481.305 57.754 480.297 57.754H478.169ZM490.355 66.224C487.401 66.224 485.525 64.012 485.525 61.016C485.525 58.02 487.401 55.794 490.355 55.794C493.309 55.794 495.171 58.02 495.171 61.016C495.171 64.012 493.309 66.224 490.355 66.224ZM490.369 64.558C492.203 64.558 493.099 63.004 493.099 61.016C493.099 59.014 492.203 57.46 490.369 57.46C488.535 57.46 487.597 59.014 487.597 61.016C487.597 63.004 488.535 64.558 490.369 64.558ZM497.122 66V55.99H499.152V64.306H503.856V66H497.122ZM509.754 66.224C506.8 66.224 504.924 64.012 504.924 61.016C504.924 58.02 506.8 55.794 509.754 55.794C512.708 55.794 514.57 58.02 514.57 61.016C514.57 64.012 512.708 66.224 509.754 66.224ZM509.768 64.558C511.602 64.558 512.498 63.004 512.498 61.016C512.498 59.014 511.602 57.46 509.768 57.46C507.934 57.46 506.996 59.014 506.996 61.016C506.996 63.004 507.934 64.558 509.768 64.558ZM523.856 66L523.786 64.656H523.758C523.072 65.804 522.134 66.21 520.944 66.21C519.432 66.21 518.256 65.664 517.43 64.754C516.604 63.83 516.128 62.542 516.128 61.03C516.128 59.364 516.716 57.908 517.766 56.942C518.578 56.2 519.642 55.794 520.986 55.794C523.506 55.794 524.948 57.18 525.27 59.14H523.282C523.058 58.174 522.316 57.474 521.028 57.474C519.138 57.474 518.2 59.042 518.2 61.03C518.2 63.074 519.278 64.572 521 64.572C522.554 64.572 523.576 63.41 523.576 62.304V62.248H521.168V60.68H525.382V66H523.856ZM527.656 66V55.99H529.686V66H527.656ZM530.722 53.708L529.392 55.458H527.908L528.496 53.708H530.722ZM531.349 66L534.835 55.99H536.935L540.463 66H538.349L537.677 63.872H534.065L533.407 66H531.349ZM535.437 59.434L534.541 62.318H537.187L536.291 59.434C536.123 58.902 535.885 57.894 535.885 57.894H535.857C535.857 57.894 535.605 58.902 535.437 59.434Z" fill="#520345"/>
<path d="M677.518 77L580.529 76.9976C580.185 76.9958 579.92 76.6184 579.921 76.1229L579.922 72.9607C578.429 72.3557 577.118 71.1025 576.105 69.3967C573.958 65.7797 573.412 60.6739 574.658 56.2361C575.593 52.908 577.529 50.1152 579.945 49.1159L579.953 45.8597C579.954 45.4267 580.21 45 580.532 45L677.429 45.0016C677.786 44.9994 678.058 45.3973 678.059 45.9075L678.06 49.1274C678.811 49.414 679.492 49.8513 680.125 50.4654C682.597 52.8651 684.034 56.9259 683.999 61.2751C683.967 65.3168 682.625 69.0953 680.361 71.401C679.656 72.1195 678.902 72.6459 678.051 72.951L678.044 76.1669C678.043 76.5831 677.834 76.9302 677.518 77ZM677.388 76.4028C677.533 76.4152 677.635 76.3138 677.635 76.1251L677.637 72.4949C678.337 72.2674 678.973 71.9179 679.59 71.3947C682.032 69.3221 683.539 65.4697 683.587 61.3317C683.636 57.1274 682.236 53.1833 679.829 50.9024C679.167 50.275 678.45 49.8396 677.656 49.5944L677.651 45.8501C677.651 45.7194 677.523 45.5942 677.427 45.6097L580.57 45.6076C580.439 45.6299 580.362 45.7376 580.362 45.9036L580.362 49.589C577.613 50.5158 575.529 53.8347 574.746 57.7335C573.651 63.182 575.333 69.2078 578.813 71.7094C579.305 72.0637 579.783 72.3159 580.325 72.4891L580.324 76.0113C580.324 76.2381 580.385 76.4017 580.571 76.4017L677.388 76.4028Z" stroke="#520345"/>
<path d="M594.148 66V55.99H597.004L598.418 61.016C598.768 62.276 599.048 63.718 599.048 63.718H599.076C599.076 63.718 599.342 62.276 599.692 61.016L601.106 55.99H604.004V66H602.114V60.26C602.114 59.448 602.198 58.188 602.198 58.188H602.17C602.17 58.188 601.946 59.364 601.736 60.092L600.014 66H598.068L596.388 60.092C596.178 59.364 595.954 58.188 595.954 58.188H595.926C595.926 58.188 596.01 59.448 596.01 60.26V66H594.148ZM605.663 66L609.149 55.99H611.249L614.777 66H612.663L611.991 63.872H608.379L607.721 66H605.663ZM609.751 59.434L608.855 62.318H611.501L610.605 59.434C610.437 58.902 610.199 57.894 610.199 57.894H610.171C610.171 57.894 609.919 58.902 609.751 59.434ZM614.683 57.698V55.99H622.733V57.698H619.723V66H617.693V57.698H614.683ZM624.6 66V55.99H631.964V57.698H626.63V59.938H631.306V61.604H626.63V64.306H632.006V66H624.6ZM634.108 66V55.99H638.7C640.632 55.99 641.92 57.11 641.92 58.776C641.92 59.952 641.374 60.848 640.086 61.198V61.24C641.01 61.506 641.486 62.038 641.612 63.256C641.752 64.67 641.696 65.748 642.046 65.902V66H640.1C639.848 65.888 639.82 64.768 639.736 63.69C639.652 62.598 639.036 61.982 637.776 61.982H636.138V66H634.108ZM636.138 57.628V60.414H638.294C639.4 60.414 639.946 59.84 639.946 59.042C639.946 58.23 639.428 57.628 638.35 57.628H636.138ZM644.081 66V55.99H646.111V66H644.081ZM647.775 66L651.261 55.99H653.361L656.889 66H654.775L654.103 63.872H650.491L649.833 66H647.775ZM651.863 59.434L650.967 62.318H653.613L652.717 59.434C652.549 58.902 652.311 57.894 652.311 57.894H652.283C652.283 57.894 652.031 58.902 651.863 59.434ZM658.571 66V55.99H660.601V64.306H665.305V66H658.571Z" fill="#520345"/>
<path d="M805.518 77L708.529 76.9976C708.185 76.9958 707.92 76.6184 707.921 76.1229L707.922 72.9607C706.429 72.3557 705.118 71.1025 704.105 69.3967C701.958 65.7797 701.412 60.6739 702.658 56.2361C703.593 52.908 705.529 50.1152 707.945 49.1159L707.953 45.8597C707.954 45.4267 708.21 45 708.532 45L805.429 45.0016C805.786 44.9994 806.058 45.3973 806.059 45.9075L806.06 49.1274C806.811 49.414 807.492 49.8513 808.125 50.4654C810.597 52.8651 812.034 56.9259 811.999 61.2751C811.967 65.3168 810.625 69.0953 808.361 71.401C807.656 72.1195 806.902 72.6459 806.051 72.951L806.044 76.1669C806.043 76.5831 805.834 76.9302 805.518 77ZM805.388 76.4028C805.533 76.4152 805.635 76.3138 805.635 76.1251L805.637 72.4949C806.337 72.2674 806.973 71.9179 807.59 71.3947C810.032 69.3221 811.539 65.4697 811.587 61.3317C811.636 57.1274 810.236 53.1833 807.829 50.9024C807.167 50.275 806.45 49.8396 805.656 49.5944L805.651 45.8501C805.651 45.7194 805.523 45.5942 805.427 45.6097L708.57 45.6076C708.439 45.6299 708.362 45.7376 708.362 45.9036L708.362 49.589C705.613 50.5158 703.529 53.8347 702.746 57.7335C701.651 63.182 703.333 69.2078 706.813 71.7094C707.305 72.0637 707.783 72.3159 708.325 72.4891L708.324 76.0113C708.324 76.2381 708.385 76.4017 708.571 76.4017L805.388 76.4028Z" stroke="#520345"/>
<path d="M737.607 66.21C734.793 66.21 732.791 64.04 732.791 61.03C732.791 58.062 734.639 55.794 737.593 55.794C740.057 55.794 741.513 57.264 741.723 59.168H739.707C739.525 58.16 738.769 57.502 737.593 57.502C735.745 57.502 734.863 59.042 734.863 61.03C734.863 63.074 735.927 64.544 737.607 64.544C738.797 64.544 739.637 63.83 739.763 62.78H741.751C741.695 63.662 741.317 64.516 740.645 65.146C739.959 65.79 738.993 66.21 737.607 66.21ZM748.031 66.224C745.077 66.224 743.201 64.012 743.201 61.016C743.201 58.02 745.077 55.794 748.031 55.794C750.985 55.794 752.847 58.02 752.847 61.016C752.847 64.012 750.985 66.224 748.031 66.224ZM748.045 64.558C749.879 64.558 750.775 63.004 750.775 61.016C750.775 59.014 749.879 57.46 748.045 57.46C746.211 57.46 745.273 59.014 745.273 61.016C745.273 63.004 746.211 64.558 748.045 64.558ZM754.797 66V55.99H756.827V64.306H761.531V66H754.797ZM767.43 66.224C764.476 66.224 762.6 64.012 762.6 61.016C762.6 58.02 764.476 55.794 767.43 55.794C770.384 55.794 772.246 58.02 772.246 61.016C772.246 64.012 770.384 66.224 767.43 66.224ZM767.444 64.558C769.278 64.558 770.174 63.004 770.174 61.016C770.174 59.014 769.278 57.46 767.444 57.46C765.61 57.46 764.672 59.014 764.672 61.016C764.672 63.004 765.61 64.558 767.444 64.558ZM774.196 66V55.99H778.788C780.72 55.99 782.008 57.11 782.008 58.776C782.008 59.952 781.462 60.848 780.174 61.198V61.24C781.098 61.506 781.574 62.038 781.7 63.256C781.84 64.67 781.784 65.748 782.134 65.902V66H780.188C779.936 65.888 779.908 64.768 779.824 63.69C779.74 62.598 779.124 61.982 777.864 61.982H776.226V66H774.196ZM776.226 57.628V60.414H778.382C779.488 60.414 780.034 59.84 780.034 59.042C780.034 58.23 779.516 57.628 778.438 57.628H776.226Z" fill="#520345"/>
<path d="M198.276 126.875L197.857 126.806C197.113 126.683 196.39 126.343 195.724 125.751L195.716 125.744L195.481 125.534C194.327 124.442 193.451 122.789 192.955 120.844C192.428 118.774 192.342 116.413 192.787 114.137C193.157 112.246 193.854 110.627 194.752 109.439C195.651 108.251 196.729 107.518 197.867 107.327L198.283 107.258L198.284 106.836L198.293 103.5H291.717L291.72 106.826V107.25L292.138 107.319C293.634 107.569 294.989 108.711 295.975 110.518C296.957 112.317 297.536 114.719 297.498 117.343C297.462 119.834 296.853 122.101 295.88 123.793C294.903 125.492 293.596 126.558 292.184 126.788L291.982 126.82L291.861 126.984L291.799 127.069L291.7 127.202V130.499H198.28L198.276 127.299V126.875Z" fill="#520345" stroke="#520345"/>
<path d="M293.518 133L196.529 132.998C196.185 132.996 195.92 132.618 195.921 132.123L195.922 128.961C194.429 128.356 193.118 127.103 192.105 125.397C189.958 121.78 189.412 116.674 190.658 112.236C191.593 108.908 193.529 106.115 195.945 105.116L195.953 101.86C195.954 101.427 196.21 101 196.532 101L293.429 101.002C293.786 100.999 294.058 101.397 294.059 101.908L294.06 105.127C294.811 105.414 295.492 105.851 296.125 106.465C298.597 108.865 300.034 112.926 299.999 117.275C299.967 121.317 298.625 125.095 296.361 127.401C295.656 128.12 294.902 128.646 294.051 128.951L294.044 132.167C294.043 132.583 293.834 132.93 293.518 133ZM293.388 132.403C293.533 132.415 293.635 132.314 293.635 132.125L293.637 128.495C294.337 128.267 294.973 127.918 295.59 127.395C298.032 125.322 299.539 121.47 299.587 117.332C299.636 113.127 298.236 109.183 295.829 106.902C295.167 106.275 294.45 105.84 293.656 105.594L293.651 101.85C293.651 101.719 293.523 101.594 293.427 101.61L196.57 101.608C196.439 101.63 196.362 101.738 196.362 101.904L196.362 105.589C193.613 106.516 191.529 109.835 190.746 113.733C189.651 119.182 191.333 125.208 194.813 127.709C195.305 128.064 195.783 128.316 196.325 128.489L196.324 132.011C196.324 132.238 196.385 132.402 196.571 132.402L293.388 132.403Z" fill="#FD6500" stroke="#520345"/>
<path d="M213.076 122V111.99H217.472C218.634 111.99 219.502 112.326 220.09 112.928C220.65 113.502 220.986 114.286 220.986 115.21C220.986 117.1 219.74 118.374 217.64 118.374H215.176V122H213.076ZM215.176 113.754V116.722H217.276C218.34 116.722 218.9 116.134 218.9 115.224C218.9 114.286 218.312 113.754 217.304 113.754H215.176ZM222.83 122V111.99H230.194V113.698H224.86V115.938H229.536V117.604H224.86V120.306H230.236V122H222.83ZM232.338 122V111.99H236.93C238.862 111.99 240.15 113.11 240.15 114.776C240.15 115.952 239.604 116.848 238.316 117.198V117.24C239.24 117.506 239.716 118.038 239.842 119.256C239.982 120.67 239.926 121.748 240.276 121.902V122H238.33C238.078 121.888 238.05 120.768 237.966 119.69C237.882 118.598 237.266 117.982 236.006 117.982H234.368V122H232.338ZM234.368 113.628V116.414H236.524C237.63 116.414 238.176 115.84 238.176 115.042C238.176 114.23 237.658 113.628 236.58 113.628H234.368ZM242.311 122V111.99H244.341V122H242.311ZM245.377 109.708L244.047 111.458H242.563L243.151 109.708H245.377ZM251.129 122.224C248.175 122.224 246.299 120.012 246.299 117.016C246.299 114.02 248.175 111.794 251.129 111.794C254.083 111.794 255.945 114.02 255.945 117.016C255.945 120.012 254.083 122.224 251.129 122.224ZM251.143 120.558C252.977 120.558 253.873 119.004 253.873 117.016C253.873 115.014 252.977 113.46 251.143 113.46C249.309 113.46 248.371 115.014 248.371 117.016C248.371 119.004 249.309 120.558 251.143 120.558ZM257.895 122V111.99H261.801C264.475 111.99 266.197 114.146 266.197 117.1C266.197 118.724 265.651 120.152 264.601 121.034C263.859 121.65 262.893 122 261.633 122H257.895ZM259.925 120.25H261.493C263.397 120.25 264.139 119.088 264.139 117.1C264.139 115.112 263.271 113.726 261.549 113.726H259.925V120.25ZM272.538 122.224C269.584 122.224 267.708 120.012 267.708 117.016C267.708 114.02 269.584 111.794 272.538 111.794C275.492 111.794 277.354 114.02 277.354 117.016C277.354 120.012 275.492 122.224 272.538 122.224ZM272.552 120.558C274.386 120.558 275.282 119.004 275.282 117.016C275.282 115.014 274.386 113.46 272.552 113.46C270.718 113.46 269.78 115.014 269.78 117.016C269.78 119.004 270.718 120.558 272.552 120.558Z" fill="#F3EEE1"/>
<path d="M44.9887 145.945C44.3814 146.14 43.3525 144.525 43.2525 144.167C42.4523 144.877 41.5377 145.848 40.7518 146C37.6652 144.708 37.4438 141.874 38.5512 139.344C36.8507 140.211 36.3863 141.607 35.4003 141.777C32.4995 142.274 29.2271 138.1 30.1631 136.109C30.7275 134.902 32.1851 133.925 34.4143 133.609C33.0639 133.082 32.2565 132.596 31.4992 131.649C30.5418 130.448 31.7207 126.261 34.4214 125.697C35.7361 125.424 37.0937 125.982 38.5512 127.281C38.4941 124.872 38.294 122.809 40.2159 121.231C40.6947 120.837 41.8521 120.976 42.1094 121.431L43.3097 123.543C43.4097 122.991 44.0599 121.067 44.9602 121.043C47.8681 122.39 47.4037 125.333 46.4177 127.827C48.1182 126.728 50.2974 124.823 52.1551 125.776C53.6555 126.54 54.8344 128.591 54.5915 129.671C54.3057 130.933 52.9553 132.517 51.3906 132.942C53.1696 133.615 54.4915 134.489 54.8844 135.527C55.7204 137.736 51.7835 141.128 50.7189 140.861C49.1614 140.478 48.3754 139.635 47.0465 138.658C48.0825 141.486 48.6612 144.295 44.9887 145.945Z" fill="#B9D6FE"/>
<path d="M99.3869 169.937C98.6824 170.162 97.489 168.29 97.3729 167.874C96.4447 168.698 95.3838 169.824 94.4721 170C90.8917 168.501 90.6348 165.214 91.9194 162.279C89.9468 163.285 89.4081 164.904 88.2643 165.101C84.8994 165.678 81.1034 160.836 82.1892 158.527C82.8439 157.126 84.5347 155.993 87.1206 155.627C85.5541 155.015 84.6176 154.451 83.739 153.353C82.6284 151.96 83.996 147.103 87.1289 146.448C88.6539 146.132 90.2286 146.779 91.9194 148.286C91.8531 145.491 91.621 143.098 93.8505 141.268C94.4058 140.81 95.7485 140.972 96.0469 141.5L97.4392 143.95C97.5553 143.309 98.3095 141.078 99.3538 141.05C102.727 142.612 102.188 146.026 101.045 148.919C103.017 147.645 105.545 145.435 107.7 146.54C109.44 147.427 110.808 149.806 110.526 151.059C110.195 152.523 108.628 154.36 106.813 154.853C108.877 155.634 110.41 156.648 110.866 157.851C111.836 160.413 107.269 164.348 106.034 164.038C104.227 163.595 103.315 162.616 101.774 161.483C102.976 164.763 103.647 168.022 99.3869 169.937Z" fill="#FD6500"/>
<rect x="196" y="330" width="550" height="67" rx="4" fill="#520345"/>
<rect x="193" y="327" width="556" height="73" rx="3" stroke="#520345" stroke-width="2"/>
<path d="M614.43 156.188L614.435 160.829L614.436 161.274L614.877 161.325C621.163 162.052 625.77 167.924 625.624 174.96C625.485 181.644 620.921 187.145 614.964 187.818L614.799 187.838L614.678 187.951L614.556 188.066L614.397 188.215V192.812H432.566L432.559 188.339L432.558 187.894L432.115 187.843C430.548 187.664 429.054 187.17 427.702 186.336L427.694 186.331C422.598 183.314 420.203 176.778 421.928 170.659C423.359 165.582 427.333 161.894 432.131 161.336L432.571 161.285L432.573 160.842L432.591 156.188H614.43Z" fill="#520345" stroke="#520345"/>
<path d="M617.448 196L429.642 195.997C428.977 195.994 428.464 195.487 428.464 194.821L428.467 190.572C425.575 189.759 423.037 188.075 421.076 185.783C416.919 180.923 415.861 174.062 418.275 168.099C420.085 163.626 423.833 159.874 428.513 158.531L428.527 154.155C428.529 153.573 429.024 153 429.648 153L617.276 153.002C617.967 152.999 618.495 153.534 618.495 154.219L618.498 158.546C619.951 158.931 621.271 159.519 622.496 160.344C627.283 163.569 630.066 169.025 629.999 174.87C629.937 180.301 627.338 185.378 622.954 188.476C621.587 189.442 620.129 190.149 618.481 190.559L618.466 194.881C618.464 195.44 618.06 195.906 617.448 196ZM617.196 195.197C617.478 195.214 617.675 195.078 617.675 194.824L617.679 189.946C619.035 189.641 620.266 189.171 621.46 188.468C626.189 185.683 629.107 180.506 629.2 174.946C629.295 169.296 626.584 163.996 621.924 160.931C620.642 160.088 619.253 159.503 617.716 159.174L617.706 154.142C617.705 153.967 617.458 153.798 617.273 153.819L429.722 153.816C429.467 153.846 429.318 153.991 429.318 154.214L429.318 159.167C423.997 160.412 419.961 164.872 418.444 170.111C416.324 177.432 419.581 185.529 426.319 188.891C427.273 189.367 428.198 189.706 429.247 189.938L429.246 194.671C429.246 194.976 429.363 195.196 429.724 195.196L617.196 195.197Z" fill="#FD6500" stroke="#520345"/>
<path d="M445.586 179.139V169.129H450.178C452.11 169.129 453.398 170.249 453.398 171.915C453.398 173.091 452.852 173.987 451.564 174.337V174.379C452.488 174.645 452.964 175.177 453.09 176.395C453.23 177.809 453.174 178.887 453.524 179.041V179.139H451.578C451.326 179.027 451.298 177.907 451.214 176.829C451.13 175.737 450.514 175.121 449.254 175.121H447.616V179.139H445.586ZM447.616 170.767V173.553H449.772C450.878 173.553 451.424 172.979 451.424 172.181C451.424 171.369 450.906 170.767 449.828 170.767H447.616ZM455.545 179.139V169.129H462.909V170.837H457.575V173.077H462.251V174.743H457.575V177.445H462.951V179.139H455.545ZM468.863 179.363C466.147 179.363 464.607 178.159 464.537 176.045H466.525C466.665 177.249 467.351 177.725 468.779 177.725C469.815 177.725 470.725 177.361 470.725 176.437C470.725 175.457 469.773 175.261 468.247 174.911C466.455 174.505 464.817 174.029 464.817 171.943C464.817 169.969 466.427 168.947 468.653 168.947C470.907 168.947 472.363 170.053 472.517 172.069H470.571C470.459 171.061 469.675 170.557 468.639 170.557C467.547 170.557 466.833 171.019 466.833 171.733C466.833 172.545 467.533 172.783 469.017 173.105C471.075 173.553 472.755 174.043 472.755 176.199C472.755 178.229 471.117 179.363 468.863 179.363ZM474.807 179.139V169.129H482.171V170.837H476.837V173.077H481.513V174.743H476.837V177.445H482.213V179.139H474.807ZM484.315 179.139V169.129H488.907C490.839 169.129 492.127 170.249 492.127 171.915C492.127 173.091 491.581 173.987 490.293 174.337V174.379C491.217 174.645 491.693 175.177 491.819 176.395C491.959 177.809 491.903 178.887 492.253 179.041V179.139H490.307C490.055 179.027 490.027 177.907 489.943 176.829C489.859 175.737 489.243 175.121 487.983 175.121H486.345V179.139H484.315ZM486.345 170.767V173.553H488.501C489.607 173.553 490.153 172.979 490.153 172.181C490.153 171.369 489.635 170.767 488.557 170.767H486.345ZM496.838 179.139L493.464 169.129H495.592L497.356 174.925C497.552 175.583 497.79 176.521 497.79 176.521H497.818C497.818 176.521 498.056 175.569 498.252 174.925L500.002 169.129H502.06L498.686 179.139H496.838ZM501.92 179.139L505.406 169.129H507.506L511.034 179.139H508.92L508.248 177.011H504.636L503.978 179.139H501.92ZM506.008 172.573L505.112 175.457H507.758L506.862 172.573C506.694 172.041 506.456 171.033 506.456 171.033H506.428C506.428 171.033 506.176 172.041 506.008 172.573ZM512.716 179.139V169.129H517.308C519.24 169.129 520.528 170.249 520.528 171.915C520.528 173.091 519.982 173.987 518.694 174.337V174.379C519.618 174.645 520.094 175.177 520.22 176.395C520.36 177.809 520.304 178.887 520.654 179.041V179.139H518.708C518.456 179.027 518.428 177.907 518.344 176.829C518.26 175.737 517.644 175.121 516.384 175.121H514.746V179.139H512.716ZM514.746 170.767V173.553H516.902C518.008 173.553 518.554 172.979 518.554 172.181C518.554 171.369 518.036 170.767 516.958 170.767H514.746ZM525.867 179.139V169.129H533.231V170.837H527.897V173.077H532.573V174.743H527.897V177.445H533.273V179.139H525.867ZM535.375 179.139V169.129H537.433L540.765 174.715C541.087 175.261 541.465 176.115 541.465 176.115H541.493C541.493 176.115 541.437 175.079 541.437 174.379V169.129H543.439V179.139H541.479L538.063 173.609C537.741 173.077 537.349 172.223 537.349 172.223H537.321C537.321 172.223 537.377 173.273 537.377 173.973V179.139H535.375ZM545.295 170.837V169.129H553.345V170.837H550.335V179.139H548.305V170.837H545.295ZM555.211 179.139V169.129H559.803C561.735 169.129 563.023 170.249 563.023 171.915C563.023 173.091 562.477 173.987 561.189 174.337V174.379C562.113 174.645 562.589 175.177 562.715 176.395C562.855 177.809 562.799 178.887 563.149 179.041V179.139H561.203C560.951 179.027 560.923 177.907 560.839 176.829C560.755 175.737 560.139 175.121 558.879 175.121H557.241V179.139H555.211ZM557.241 170.767V173.553H559.397C560.503 173.553 561.049 172.979 561.049 172.181C561.049 171.369 560.531 170.767 559.453 170.767H557.241ZM564.511 179.139L567.997 169.129H570.097L573.625 179.139H571.511L570.839 177.011H567.227L566.569 179.139H564.511ZM568.599 172.573L567.703 175.457H570.349L569.453 172.573C569.285 172.041 569.047 171.033 569.047 171.033H569.019C569.019 171.033 568.767 172.041 568.599 172.573ZM575.307 179.139V169.129H579.213C581.887 169.129 583.609 171.285 583.609 174.239C583.609 175.863 583.063 177.291 582.013 178.173C581.271 178.789 580.305 179.139 579.045 179.139H575.307ZM577.337 177.389H578.905C580.809 177.389 581.551 176.227 581.551 174.239C581.551 172.251 580.683 170.865 578.961 170.865H577.337V177.389ZM584.265 179.139L587.751 169.129H589.851L593.379 179.139H591.265L590.593 177.011H586.981L586.323 179.139H584.265ZM588.353 172.573L587.457 175.457H590.103L589.207 172.573C589.039 172.041 588.801 171.033 588.801 171.033H588.773C588.773 171.033 588.521 172.041 588.353 172.573ZM598.803 179.363C596.087 179.363 594.547 178.159 594.477 176.045H596.465C596.605 177.249 597.291 177.725 598.719 177.725C599.755 177.725 600.665 177.361 600.665 176.437C600.665 175.457 599.713 175.261 598.187 174.911C596.395 174.505 594.757 174.029 594.757 171.943C594.757 169.969 596.367 168.947 598.593 168.947C600.847 168.947 602.303 170.053 602.457 172.069H600.511C600.399 171.061 599.615 170.557 598.579 170.557C597.487 170.557 596.773 171.019 596.773 171.733C596.773 172.545 597.473 172.783 598.957 173.105C601.015 173.553 602.695 174.043 602.695 176.199C602.695 178.229 601.057 179.363 598.803 179.363Z" fill="#F3EEE1"/>
<path d="M382.43 160.188L382.435 164.829L382.436 165.274L382.877 165.325C389.163 166.052 393.77 171.924 393.624 178.96C393.485 185.644 388.921 191.145 382.964 191.818L382.799 191.838L382.678 191.951L382.556 192.066L382.397 192.215V196.812H200.566L200.559 192.339L200.558 191.894L200.115 191.843C198.548 191.664 197.054 191.17 195.702 190.336L195.694 190.331C190.598 187.314 188.203 180.778 189.928 174.659C191.359 169.582 195.333 165.894 200.131 165.336L200.571 165.285L200.573 164.842L200.591 160.188H382.43Z" fill="#520345" stroke="#520345"/>
<path d="M385.448 200L197.642 199.997C196.977 199.994 196.464 199.487 196.464 198.821L196.467 194.572C193.575 193.759 191.037 192.075 189.076 189.783C184.919 184.923 183.861 178.062 186.275 172.099C188.085 167.626 191.833 163.874 196.513 162.531L196.527 158.155C196.529 157.573 197.024 157 197.648 157L385.276 157.002C385.967 156.999 386.495 157.534 386.495 158.219L386.498 162.546C387.951 162.931 389.271 163.519 390.496 164.344C395.283 167.569 398.066 173.025 397.999 178.87C397.937 184.301 395.338 189.378 390.954 192.476C389.587 193.442 388.129 194.149 386.481 194.559L386.466 198.881C386.464 199.44 386.06 199.906 385.448 200ZM385.196 199.197C385.478 199.214 385.675 199.078 385.675 198.824L385.679 193.946C387.035 193.641 388.266 193.171 389.46 192.468C394.189 189.683 397.107 184.506 397.2 178.946C397.295 173.296 394.584 167.996 389.924 164.931C388.642 164.088 387.253 163.503 385.716 163.174L385.706 158.142C385.705 157.967 385.458 157.798 385.273 157.819L197.722 157.816C197.467 157.846 197.318 157.991 197.318 158.214L197.318 163.167C191.997 164.412 187.961 168.872 186.444 174.111C184.324 181.432 187.581 189.529 194.319 192.891C195.273 193.367 196.198 193.706 197.247 193.938L197.246 198.671C197.246 198.976 197.363 199.196 197.724 199.196L385.196 199.197Z" fill="#FD6500" stroke="#520345"/>
<path d="M205.084 183.139L201.71 173.129H203.838L205.602 178.925C205.798 179.583 206.036 180.521 206.036 180.521H206.064C206.064 180.521 206.302 179.569 206.498 178.925L208.248 173.129H210.306L206.932 183.139H205.084ZM215.85 183.363C212.896 183.363 211.02 181.151 211.02 178.155C211.02 175.159 212.896 172.933 215.85 172.933C218.804 172.933 220.666 175.159 220.666 178.155C220.666 181.151 218.804 183.363 215.85 183.363ZM215.864 181.697C217.698 181.697 218.594 180.143 218.594 178.155C218.594 176.153 217.698 174.599 215.864 174.599C214.03 174.599 213.092 176.153 213.092 178.155C213.092 180.143 214.03 181.697 215.864 181.697ZM222.617 183.139V173.129H224.647V181.445H229.351V183.139H222.617ZM232.719 183.139L229.345 173.129H231.473L233.237 178.925C233.433 179.583 233.671 180.521 233.671 180.521H233.699C233.699 180.521 233.937 179.569 234.133 178.925L235.883 173.129H237.941L234.567 183.139H232.719ZM239.582 183.139V173.129H246.946V174.837H241.612V177.077H246.288V178.743H241.612V181.445H246.988V183.139H239.582ZM249.09 183.139V173.129H253.682C255.614 173.129 256.902 174.249 256.902 175.915C256.902 177.091 256.356 177.987 255.068 178.337V178.379C255.992 178.645 256.468 179.177 256.594 180.395C256.734 181.809 256.678 182.887 257.028 183.041V183.139H255.082C254.83 183.027 254.802 181.907 254.718 180.829C254.634 179.737 254.018 179.121 252.758 179.121H251.12V183.139H249.09ZM251.12 174.767V177.553H253.276C254.382 177.553 254.928 176.979 254.928 176.181C254.928 175.369 254.41 174.767 253.332 174.767H251.12ZM261.512 183.139L264.998 173.129H267.098L270.626 183.139H268.512L267.84 181.011H264.228L263.57 183.139H261.512ZM265.6 176.573L264.704 179.457H267.35L266.454 176.573C266.286 176.041 266.048 175.033 266.048 175.033H266.02C266.02 175.033 265.768 176.041 265.6 176.573ZM275.5 183.139V173.129H277.53V181.445H282.234V183.139H275.5ZM283.501 183.139L286.987 173.129H289.087L292.615 183.139H290.501L289.829 181.011H286.217L285.559 183.139H283.501ZM287.589 176.573L286.693 179.457H289.339L288.443 176.573C288.275 176.041 288.037 175.033 288.037 175.033H288.009C288.009 175.033 287.757 176.041 287.589 176.573ZM301.871 183.349C299.057 183.349 297.055 181.179 297.055 178.169C297.055 175.201 298.903 172.933 301.857 172.933C304.321 172.933 305.777 174.403 305.987 176.307H303.971C303.789 175.299 303.033 174.641 301.857 174.641C300.009 174.641 299.127 176.181 299.127 178.169C299.127 180.213 300.191 181.683 301.871 181.683C303.061 181.683 303.901 180.969 304.027 179.919H306.015C305.959 180.801 305.581 181.655 304.909 182.285C304.223 182.929 303.257 183.349 301.871 183.349ZM312.296 183.363C309.342 183.363 307.466 181.151 307.466 178.155C307.466 175.159 309.342 172.933 312.296 172.933C315.25 172.933 317.112 175.159 317.112 178.155C317.112 181.151 315.25 183.363 312.296 183.363ZM312.31 181.697C314.144 181.697 315.04 180.143 315.04 178.155C315.04 176.153 314.144 174.599 312.31 174.599C310.476 174.599 309.538 176.153 309.538 178.155C309.538 180.143 310.476 181.697 312.31 181.697ZM319.062 183.139V173.129H321.092V181.445H325.796V183.139H319.062ZM327.722 183.139V173.129H335.086V174.837H329.752V177.077H334.428V178.743H329.752V181.445H335.128V183.139H327.722ZM341.407 183.349C338.593 183.349 336.591 181.179 336.591 178.169C336.591 175.201 338.439 172.933 341.393 172.933C343.857 172.933 345.313 174.403 345.523 176.307H343.507C343.325 175.299 342.569 174.641 341.393 174.641C339.545 174.641 338.663 176.181 338.663 178.169C338.663 180.213 339.727 181.683 341.407 181.683C342.597 181.683 343.437 180.969 343.563 179.919H345.551C345.495 180.801 345.117 181.655 344.445 182.285C343.759 182.929 342.793 183.349 341.407 183.349ZM351.817 183.349C349.003 183.349 347.001 181.179 347.001 178.169C347.001 175.201 348.849 172.933 351.803 172.933C354.267 172.933 355.723 174.403 355.933 176.307H353.917C353.735 175.299 352.979 174.641 351.803 174.641C349.955 174.641 349.073 176.181 349.073 178.169C349.073 180.213 350.137 181.683 351.817 181.683C353.007 181.683 353.847 180.969 353.973 179.919H355.961C355.905 180.801 355.527 181.655 354.855 182.285C354.169 182.929 353.203 183.349 351.817 183.349ZM357.86 183.139V173.129H359.89V183.139H357.86ZM366.677 183.363C363.723 183.363 361.847 181.151 361.847 178.155C361.847 175.159 363.723 172.933 366.677 172.933C369.631 172.933 371.493 175.159 371.493 178.155C371.493 181.151 369.631 183.363 366.677 183.363ZM366.691 181.697C368.525 181.697 369.421 180.143 369.421 178.155C369.421 176.153 368.525 174.599 366.691 174.599C364.857 174.599 363.919 176.153 363.919 178.155C363.919 180.143 364.857 181.697 366.691 181.697ZM368.721 170.847L367.391 172.597H365.907L366.495 170.847H368.721ZM373.444 183.139V173.129H375.502L378.834 178.715C379.156 179.261 379.534 180.115 379.534 180.115H379.562C379.562 180.115 379.506 179.079 379.506 178.379V173.129H381.508V183.139H379.548L376.132 177.609C375.81 177.077 375.418 176.223 375.418 176.223H375.39C375.39 176.223 375.446 177.273 375.446 177.973V183.139H373.444Z" fill="#F3EEE1"/>
<path d="M46.4229 56.5273C46.5319 56.4928 46.616 56.4946 46.6797 56.5127C46.7406 56.53 46.8159 56.5714 46.8965 56.6738C47.0579 56.8793 47.1097 57.1979 47.0098 57.6367C46.9114 58.0687 46.6815 58.533 46.4141 58.9189C45.4096 60.3685 43.9774 61.4288 42.5225 62.2959C40.8364 63.3006 39.1009 64.0549 37.293 64.7148L37.4307 65.6836C38.2147 65.736 38.9409 65.5866 39.6035 65.4834C39.9888 65.4234 40.369 65.3262 40.7051 65.25C41.0527 65.1712 41.3733 65.1095 41.6982 65.0937L50.0264 64.6914C50.6329 64.6621 51.1053 64.7109 51.5215 64.9922C52.0486 65.3485 52.7658 65.7261 53.5957 65.4639C53.6416 65.4493 53.675 65.4426 53.6973 65.4385C53.7763 65.5319 53.9902 65.8062 54.3916 65.9531C54.9339 66.1516 55.4723 66.2569 56.0215 66.3154C56.1857 66.3329 56.3312 66.3786 56.4238 66.4346C56.4676 66.4611 56.4883 66.4828 56.4961 66.4932C56.4972 66.4947 56.4984 66.4961 56.499 66.4971L56.5 66.499L56.499 66.498C56.5009 66.5178 56.4982 66.5267 56.4951 66.5332C56.4906 66.5425 56.4776 66.5627 56.4443 66.5889C56.3724 66.6455 56.2403 66.7001 56.0703 66.7148C55.7306 66.7443 55.2883 66.7964 54.8711 66.9111C54.4693 67.0217 54.0041 67.2129 53.7041 67.582C53.701 67.5859 53.6963 67.5883 53.6934 67.5918C53.3238 67.4745 52.9876 67.462 52.6719 67.5234C52.3349 67.589 52.0463 67.7338 51.8066 67.8643C51.303 68.1384 50.9641 68.3585 50.4385 68.335L41.8701 67.9512C41.4977 67.9344 41.1341 67.8691 40.749 67.7871C40.3755 67.7075 39.9591 67.6057 39.54 67.5391C38.8748 67.4332 38.1638 67.2957 37.3887 67.335L37.251 68.3066C39.2596 69.0005 41.1904 69.8794 43.0342 71.0693C44.2878 71.8784 45.5792 72.9522 46.377 74.2773C46.6001 74.6481 46.772 75.0973 46.8291 75.5039C46.8881 75.9244 46.814 76.1997 46.6846 76.3447C46.5813 76.4605 46.504 76.4892 46.46 76.4971C46.4133 76.5054 46.342 76.501 46.2363 76.4492C46.0059 76.3362 45.7242 76.0513 45.459 75.6318C44.7029 74.436 43.8707 73.3927 42.8984 72.4414C40.6216 70.2138 38.009 68.6414 35.1816 67.7617L35.1729 67.7588L35.1641 67.7568L31.5234 66.7646L30.793 66.501C30.8315 66.4852 30.8721 66.4673 30.916 66.4512C31.2857 66.3149 31.728 66.2057 32.0518 66.1211L34.7305 65.4209C37.3093 64.7471 39.6632 63.3745 41.8145 61.5791C43.288 60.3493 44.556 58.8921 45.6592 57.1963C45.9028 56.8218 46.1934 56.6002 46.4229 56.5273Z" fill="#F3EEE1" stroke="#F3EEE1"/>
<circle cx="44.5" cy="66.5" r="20" transform="rotate(180 44.5 66.5)" stroke="#F3EEE1"/>
<path d="M90.5771 76.4727C90.4681 76.5072 90.384 76.5054 90.3203 76.4873C90.2594 76.47 90.1841 76.4286 90.1035 76.3262C89.9421 76.1207 89.8903 75.8021 89.9902 75.3633C90.0886 74.9313 90.3185 74.467 90.5859 74.0811C91.5904 72.6315 93.0226 71.5712 94.4775 70.7041C96.1636 69.6994 97.8991 68.9451 99.707 68.2852L99.5693 67.3164C98.7853 67.264 98.0591 67.4134 97.3965 67.5166C97.0112 67.5766 96.631 67.6738 96.2949 67.75C95.9473 67.8288 95.6267 67.8905 95.3018 67.9063L86.9736 68.3086C86.3671 68.3379 85.8947 68.2891 85.4785 68.0078C84.9514 67.6515 84.2342 67.2739 83.4043 67.5361C83.3584 67.5507 83.325 67.5574 83.3027 67.5615C83.2237 67.4681 83.0098 67.1938 82.6084 67.0469C82.0661 66.8484 81.5277 66.7431 80.9785 66.6846C80.8143 66.6671 80.6688 66.6214 80.5762 66.5654C80.5324 66.5389 80.5117 66.5172 80.5039 66.5068C80.5028 66.5053 80.5016 66.5039 80.501 66.5029L80.5 66.501L80.501 66.502C80.4991 66.4822 80.5018 66.4733 80.5049 66.4668C80.5094 66.4575 80.5224 66.4373 80.5557 66.4111C80.6276 66.3545 80.7597 66.2999 80.9297 66.2852C81.2694 66.2557 81.7117 66.2036 82.1289 66.0889C82.5307 65.9783 82.9959 65.7871 83.2959 65.418C83.299 65.4141 83.3037 65.4117 83.3066 65.4082C83.6762 65.5255 84.0124 65.538 84.3281 65.4766C84.6651 65.411 84.9537 65.2662 85.1934 65.1357C85.697 64.8616 86.0359 64.6415 86.5615 64.665L95.1299 65.0488C95.5023 65.0656 95.866 65.1309 96.251 65.2129C96.6245 65.2925 97.0409 65.3943 97.46 65.4609C98.1252 65.5668 98.8362 65.7043 99.6113 65.665L99.749 64.6934C97.7404 63.9995 95.8096 63.1206 93.9658 61.9307C92.7122 61.1216 91.4208 60.0478 90.623 58.7227C90.3999 58.3519 90.228 57.9027 90.1709 57.4961C90.1119 57.0756 90.186 56.8003 90.3154 56.6553C90.4187 56.5395 90.496 56.5108 90.54 56.5029C90.5867 56.4946 90.658 56.499 90.7637 56.5508C90.9941 56.6638 91.2758 56.9487 91.541 57.3682C92.2971 58.564 93.1293 59.6073 94.1016 60.5586C96.3784 62.7862 98.991 64.3586 101.818 65.2383L101.827 65.2412L101.836 65.2432L105.477 66.2354L106.207 66.499C106.168 66.5148 106.128 66.5327 106.084 66.5488C105.714 66.6851 105.272 66.7943 104.948 66.8789L102.27 67.5791C99.6907 68.2529 97.3368 69.6255 95.1855 71.4209C93.712 72.6507 92.444 74.1079 91.3408 75.8037C91.0972 76.1782 90.8066 76.3998 90.5771 76.4727Z" fill="#F3EEE1" stroke="#F3EEE1"/>
<circle cx="92.5" cy="66.5" r="20" stroke="#F3EEE1"/>
<path d="M24 476.862C24.6874 476.643 25.5113 476.05 26.5879 476.065C27.2299 476.073 28.3217 476.725 28.5289 477.186C28.7614 477.706 25.5366 477.037 26.2847 478.013C25.4355 478.357 26.4666 478.883 26.8356 478.249C29.7117 477.575 33.4571 477.592 36.2017 477.893C36.5252 477.928 36.9447 478.454 37.1874 478.509C37.5614 478.594 37.7282 478.369 37.6928 478.162C37.5563 477.361 35.4991 477.624 35.1554 476.649C35.0088 476.228 35.1605 475.857 35.767 475.422C35.8681 475.288 35.3424 474.87 36.3129 474.677C37.5108 476.514 40.7357 474.672 41.2158 476.611C40.857 476.935 41.3675 477.192 41.7213 477.078C42.8737 476.176 43.7937 476.917 44.6934 477.046C46.695 477.332 48.5753 477.136 50.2686 477.078C50.2787 477.014 50.213 476.903 50.0108 476.856C49.2526 476.874 48.4843 476.944 47.7564 476.76C48.5298 476.094 49.3385 475.822 50.036 475.667C51.0116 475.451 51.8506 476.062 52.5279 476.088C54.0898 476.146 54.2516 476.733 55.1715 477.207C55.9701 477.615 58.4468 477.23 58.8209 478.275L62.4854 477.872C62.1619 476.684 63.2638 476.111 64.664 475.968C67.3479 475.697 66.8172 477.963 72.9635 478.036C72.6855 477.531 71.8869 477.268 71.523 477.063C72.0891 476.111 73.4286 476.558 74.0958 476.374C75.1623 476.082 76.1732 475.694 77.083 476.141C77.6744 476.43 77.6592 477.113 77.5076 477.773C78.6449 477.615 79.4132 477.376 80.6465 477.469C81.0306 477.443 81.157 477.215 80.7577 477.055C80.414 476.622 79.9591 476.015 80.1461 475.624C80.2977 475.305 81.2379 474.894 82.0769 474.715C84.1897 474.266 86.2773 475.428 87.5005 476.38C88.754 476.298 89.9924 476.514 91.3167 476.783L95.2238 476.532C94.7841 476.091 94.5819 475.752 94.7689 475.311C95.0065 474.756 97.3366 474.21 99.126 474.733C99.4798 474.835 101.633 476.847 101.234 475.872L101.082 475.504C101.325 474.879 102.634 474.581 103.473 475.025C104.181 475.399 104.469 476.085 104.913 476.558C107.284 476.719 108.932 476.964 109.978 476.497C111.161 475.968 111.621 474.044 114.77 474.721C116.16 475.019 116.933 475.513 117.236 476.415C117.297 476.59 118.303 476.856 118.318 477.046C118.333 477.236 117.722 477.507 118.394 477.837C119.051 477.481 120.385 477.093 120.663 476.71C121.154 475.752 121.624 474.803 123.272 474.485C123.828 475.042 124.025 475.44 124.08 475.857C124.131 476.217 123.59 476.526 122.983 476.786C128.2 477.291 127.356 474.987 128.887 475.092C132.688 475.349 131.783 476.482 134.013 476.777C134.437 476.406 134.993 475.898 135.898 475.939C136.626 475.974 137.424 475.995 137.561 476.602C136.727 477.063 137.899 477.522 138.491 476.868C140.179 477.008 142.393 477.44 143.495 476.424C143.869 476.076 143.657 475.323 144.723 475.209C145.34 475.142 146.113 475.037 146.806 475.39L150.162 477.096C150.354 476.345 150.875 475.898 151.602 475.749C152.108 475.647 152.977 475.922 153.457 476.348C153.796 476.649 153.584 477.014 152.699 477.411C155.378 477.323 157.769 478.054 160.231 478.413C160.832 478.433 161.803 477.799 162.985 477.998C161.954 476.973 163.172 476.287 164.335 476.05C167.191 475.469 166.711 477.154 169.319 477.975C169.859 478.144 170.739 478.039 170.774 477.542C170.79 477.315 170.41 476.882 170.496 476.719C170.87 476.018 173.453 477.385 175.273 478.865C175.9 478.629 177.244 477.881 176.708 477.44C176.233 477.046 175.47 476.809 175.495 476.409C175.521 476.009 176.006 475.808 176.385 475.723C176.764 475.638 177.967 475.568 178.311 475.951C179.195 476.938 182.592 477.878 183.906 476.806C184.7 476.161 184.31 475.168 186.509 475.171C187.576 475.171 188.288 475.74 189.284 476.228C190.528 476.839 191.458 476.839 191.453 478.354C192.15 477.075 195.643 476.476 197.23 476.549C199.818 476.666 199.348 474.812 201.572 474.505C202.502 474.377 203.371 474.818 204.236 475.002C204.675 474.926 205.398 474.552 205.873 474.657C206.586 474.815 207.086 474.967 206.5 475.527C206.278 475.74 206.394 475.933 206.798 475.983L213.996 476.853C214.643 476.932 214.987 476.771 214.961 476.491C214.936 476.237 214.234 476.015 213.617 476.287C213.122 475.761 214.046 475.431 214.754 475.153C216.083 474.631 218.343 475.594 218.429 475.904C218.51 476.193 218.232 476.485 217.918 477.096C221.138 476.441 222.574 478.074 224.894 476.205C225.283 475.892 226.208 475.93 226.567 476.117C226.926 476.304 226.88 476.745 227.406 477.005L229.609 478.094C229.225 478.389 229.807 478.789 230.267 478.398C229.791 477.759 230.307 476.681 231.111 476.725C231.914 476.768 232.233 476.739 232.662 476.465C232.875 476.33 232.89 476.059 232.925 475.764C233.006 475.115 234.047 474.931 234.866 474.832C236.302 474.66 236.292 474.899 237.141 475.489C238.44 476.392 242.443 476.792 244.404 476.129C245.076 475.577 246.264 474.064 247.882 474.777C249.14 475.332 249.797 476.447 252.173 476.599C251.829 475.802 252.759 474.926 254.195 474.791L255.918 476.555C257.46 476.541 258.638 476.669 260.048 476.76C260.493 476.059 261.544 475.127 262.661 475.2C263.071 475.361 263.687 476.003 264.279 475.977C264.663 475.962 265.143 475.653 265.719 475.516C266.518 475.323 267.251 475.91 267.418 476.231C267.62 476.62 267.195 477.043 267.028 477.499C266.902 477.832 268.358 477.916 268.439 477.595C268.484 477.426 268.504 476.912 268.894 476.78C270.102 476.368 271.876 477.04 272.31 477.788C273.225 477.081 273.756 476.225 275.151 476.027C276.713 475.802 277.875 476.804 278.305 477.522L279.488 476.941C279.7 476.836 280.322 476.952 280.575 477.344C279.887 477.607 278.947 478.2 280.165 478.819C280.645 478.311 280.367 477.875 280.848 477.753C281.515 477.586 281.97 477.586 282.97 477.735C282.753 476.938 282.859 475.743 284.133 475.148C284.846 474.815 286.17 474.891 286.933 474.888C287.717 475.758 288.844 476.076 290.057 476.552C289.961 476.094 290.461 475.653 290.931 475.691C291.108 475.705 293.732 476.576 293.615 476.427C293.722 476.564 293.403 476.964 293.221 477.166C292.908 477.504 293.358 477.794 293.742 477.642C293.863 477.595 294.05 477.466 294.025 477.338L293.944 476.941C296.38 475.869 294.919 474.759 298.266 474.648C299.797 474.599 301.071 474.438 302.228 475.218C303.189 475.863 304.766 476.138 306.333 476.009C309.906 475.714 311.701 476.973 313.065 476.783C314.43 476.593 313.92 474.996 316.31 474.899C318.408 474.815 317.877 476.938 320.243 477.096C319.586 477.513 319.04 477.759 319.191 478.109C320.369 477.957 320.531 477.487 320.976 477.335C321.512 477.154 323.154 477.712 324.655 477.414C325.419 477.262 325.682 475.714 327.329 475.708C328.977 475.703 329.781 477.747 332.399 477.858C332.788 476.617 334.345 475.478 336.68 475.469C337.6 475.466 338.096 476.228 338.646 476.728C339.218 476.322 339.956 475.682 340.658 475.781C342.392 476.03 343.706 476.66 344.778 477.618C346.658 475.6 351.207 477.545 349.817 475.422C350.57 474.537 352.562 474.517 353.997 474.926C354.578 475.092 355.918 474.747 356.191 475.066L357.151 476.193C358.632 476.33 360.664 476.465 361.645 477.487C363.055 476.766 363.48 475.784 364.303 474.724C367.938 475.311 370.374 477.983 372.381 476.83C373.103 476.412 373.27 475.729 374.347 475.659C375.242 475.6 376.136 476.231 376.778 476.447C377.233 476.602 378.663 476.015 379.088 476.76C379.174 477.11 378.294 477.75 378.861 478.372C379.265 477.431 380.554 477.134 382.313 477.063C381.908 476.509 381.58 475.96 381.898 475.74C382.197 475.539 382.955 475.153 383.693 475.019C385.492 474.689 387.822 475.808 388.019 476.952C388.813 476.763 388.879 476.459 388.944 476.009C391.037 476.424 392.983 476.319 395.45 476.278C396.314 476.541 396.461 475.811 395.475 476C394.575 475.819 394.611 475.355 394.808 475.007C394.904 474.838 395.278 474.639 395.814 474.561C398.022 474.228 399.215 474.993 400.145 476.196C401.207 475.705 401.591 474.818 402.476 474.701C403.507 474.564 405.2 475.408 404.831 475.919L404.442 476.459C404.219 476.771 405.599 476.1 408.551 476.544C409.87 476.742 410.169 475.653 410.548 475.27C411.26 474.543 412.529 474.847 413.338 475.031C414.328 475.256 414.419 475.825 414.763 476.494C414.925 476.806 416.209 477.122 415.759 477.686C415.253 477.905 415.905 478.273 416.274 477.954C418.129 477.247 420.364 477.034 422.466 477.469C422.83 476.547 423.558 475.968 425.004 475.755C425.701 476.181 426.207 476.669 427.056 476.806C426.758 474.645 429.598 476.658 431.105 475.279C432.388 475.77 431.337 476.666 431.767 476.976C432.308 477.367 434.117 477.239 434.754 477.107C435.638 476.929 435.264 475.288 437.959 475.372C438.838 475.399 438.838 476.231 439.531 476.403L441.138 476.795L441.466 477.756L442.624 476.941L444.125 476.964C445.085 476.593 445.925 476.611 447.405 476.885C446.475 476.33 446.177 475.954 446.668 475.483C447.052 475.118 447.739 474.742 448.699 474.666C450.949 474.488 452.45 475.592 453.719 476.766C454.522 476.316 454.77 475.857 455.215 475.732C455.705 475.592 456.787 475.667 456.832 475.889C456.099 476.479 459.056 477.867 460.173 477.721C461.048 477.607 462.857 477.633 462.994 476.964C463.14 476.225 463.484 475.743 464.475 475.521C467.002 474.961 469.1 478.5 472.289 477.271C472.906 477.034 473.052 476.211 473.775 476.222C476.161 476.257 474.827 477.481 477.44 477.899C477.354 478.08 477.086 478.389 477.157 478.492C477.258 478.632 477.682 478.716 477.884 478.626C478.173 478.495 478.137 478.319 478.218 478.071C478.446 477.356 479.916 477.303 481.16 477.504C480.781 476.982 480.538 476.649 480.715 476.211C480.846 475.881 481.296 475.592 482.11 475.282C480.887 474.753 481.185 473.343 482.454 473.065C483.414 472.855 484.319 473.197 484.213 473.465C484.071 473.833 482.429 474.193 482.909 474.555C483.687 475.145 486.427 473.994 487.685 475.968C488.999 476.123 489.803 476.403 490.101 477.411L491.178 476.368C491.405 476.149 492.31 476.254 492.73 476.301C495.191 476.57 494.398 474.228 497.537 474.531C499.164 474.689 500.074 476.129 501.095 476.009C501.55 475.957 500.403 475.153 501.873 474.683C502.167 474.59 502.814 474.683 503.274 474.931C504.047 475.346 504.022 475.857 503.915 476.69C505.836 476.024 507.853 476.465 509.754 476.193C510.461 475.755 511.073 474.523 512.569 474.593C513.711 474.645 514.864 475.162 515.981 475.454C516.046 476.132 515.849 476.693 516.294 477.25C517.047 477.262 517.148 476.879 516.638 476.687C516.218 476.275 517.462 476.018 517.502 476.62L520.216 476.739C523.775 477.51 524.604 474.958 526.605 475.828C526.99 475.995 527.141 476.468 527.328 476.833C528.278 476.579 528.991 476.517 529.845 476.599C530.391 476.652 530.654 477.283 530.821 477.648L533.631 477.417C533.753 476.056 534.996 475.031 537.286 474.87L540.945 476.634C541.648 476.132 542.335 475.962 543.048 475.965C543.649 475.965 544.205 476.252 545.125 476.716C545.757 475.431 547.415 474.455 549.836 474.601C551.772 474.718 551.898 476.798 553.117 476.599C553.698 476.506 552.834 476.144 553.086 475.831C553.405 475.437 554.658 475.037 555.184 475.174C555.856 475.349 556.18 476.038 555.876 476.804L560.744 476.459C561.189 475.997 561.649 475.2 562.639 475.016C563.63 474.832 564.757 474.759 565.723 475.399C566.087 475.641 565.89 476.365 566.183 476.786C567.234 476.766 567.997 477.172 568.386 477.7C569.908 477.376 571.601 477.484 573.193 477.61C573.855 477.017 574.598 476.035 575.953 475.986C577.591 476.941 578.546 478.106 580.785 478.708C579.982 477.636 578.971 476.389 580.932 475.773C581.715 475.527 582.878 476.514 582.757 477.113L588.14 477.104C588.766 476.672 587.579 476.094 587.392 475.857C587.528 475.393 588.842 475.282 589.484 475.399C589.959 475.486 590.308 475.764 590.505 476.199C592.224 475.778 593.492 476.497 594.867 476.774C595.979 476.999 596.475 475.933 596.465 475.498C598.916 475.776 599.765 474.417 601.757 475.037C602.333 475.215 602.778 475.416 603.01 476.038C603.228 476.611 605.846 477.174 606.296 476.658C606.917 475.945 607.211 475.218 608.247 475.115C609.283 475.013 610.213 475.226 610.961 475.866L609.455 476.774C611.628 477.376 613.17 476.631 614.742 477.075C615.01 477.151 615.54 477.201 615.763 477.183C615.97 477.169 616.152 476.906 616.056 476.769C615.98 476.663 615.763 476.403 615.379 476.444L614.262 476.567C613.382 476.663 615.07 475.089 616.294 475.133C616.764 475.151 617.679 475.416 618.058 475.778C619.569 477.215 622.94 477.89 625.483 476.76C625.933 476.558 625.998 475.866 626.979 475.968C627.606 476.033 627.975 475.974 628.804 476.339C629.208 476.517 630.542 476.447 630.674 476.952C630.381 477.186 630.234 477.388 630.219 477.604C630.209 477.718 630.472 477.761 630.704 477.615L631.296 477.25C631.619 477.052 632.114 476.839 632.382 476.877C634.045 477.11 632.079 477.709 632.2 478.477C632.281 479 632.68 477.583 635.279 477.677C634.637 477.353 634.566 476.652 635.385 476.45L638.291 475.732C640.176 475.264 641.112 478.089 645.989 477.665L646.727 475.919C648.067 474.958 650.589 475.536 651.691 476.427C652.555 477.128 654.89 477.087 655.477 476.398C656.508 475.183 658.024 475.054 660.142 475.189C661.168 475.253 662.199 475.311 662.477 475.942C662.755 476.573 661.628 476.879 661.021 477.499C662.785 477.026 663.999 476.514 665.869 477.177L669.468 475.919C670.241 475.65 670.913 475.685 671.414 475.98C672.328 476.517 671.687 477.615 673.577 477.54C673.754 478.016 674.861 477.767 674.416 477.449C674.072 476.757 674.482 476.135 674.846 475.521C675.114 475.072 676.21 474.993 676.908 475.165C677.878 475.405 676.074 476.728 676.979 477.557C679.632 476.582 681.417 477.905 681.669 477.125C682.2 476.488 683.413 475.641 684.338 475.323C686.537 474.569 687.649 475.51 688.786 476.301C689.64 476.897 691.121 477.11 690.919 478.089L692.168 477.309C692.279 477.242 692.673 477.145 692.683 477.026C692.693 476.929 692.395 476.78 692.248 476.684C691.44 476.164 691.91 475.84 692.623 475.454C693.098 475.2 693.891 475.113 694.599 475.635L695.817 476.538C696.54 477.072 699.335 475.735 701.377 476.938C702.211 477.122 702.681 476.622 701.872 476.421L700.184 475.714C699.603 475.472 700.872 474.666 701.508 474.47C702.226 474.251 702.924 474.581 703.808 474.651C706.058 474.832 705.4 476.877 706.78 476.514C708.554 476.047 711.653 477.414 712.735 475.843C713.119 475.288 713.973 475.095 714.797 475.092C715.858 475.089 718.482 476.634 717.653 477.253C717.461 477.396 717.592 477.712 717.794 477.735C718.279 477.794 719.402 476.234 720.574 476.859C721.252 477.221 721.964 477.54 722.657 477.37C723.405 477.186 723.819 476.774 724.128 476.292C724.613 475.53 726.089 475.603 727.074 475.927C727.949 476.214 727.898 476.842 727.15 477.464C730.709 477.081 730.491 479.374 731.583 477.656C730.35 477.373 730.127 476.535 730.537 476.073C731.169 475.364 733.388 475.168 734.211 475.773C735.192 476.494 736.4 477.028 737.911 476.678C737.704 476.31 737.28 475.808 737.371 475.594C737.477 475.346 738.068 475.063 738.548 475.118C740.221 475.317 740.575 476.701 741.955 476.108C742.177 476.012 742.43 475.77 742.582 475.74C742.733 475.711 743.097 475.971 743.148 476.123L743.335 476.725C743.375 476.856 743.891 476.964 743.84 476.611C745.584 476.459 745.862 475.863 746.428 475.159C746.994 474.455 748.779 474.765 749.613 474.823C750.947 474.92 751.159 475.735 751.928 476.307C752.752 476.383 754.859 476.047 755.314 476.713C755.274 476.929 754.844 477.396 755.243 477.484C755.83 477.613 756.517 477.399 756.472 477.242C756.214 476.398 757.594 476.19 757.882 475.77C758.125 475.419 757.407 474.8 757.695 474.578C757.983 474.356 758.423 474.149 758.787 474.006C760.136 474.724 760.313 475.524 760.915 476.406C761.501 476.795 763.366 476.622 764.124 476.395L765.671 477.131C766 477.285 766.48 477.174 766.53 477.052C766.571 476.953 766.166 476.757 765.969 476.687C764.701 476.225 765.07 475.752 765.797 475.39C766.424 475.08 767.587 474.958 767.981 475.498L769.801 478.004C772.394 477.014 774.936 477.528 775.189 477.344C775.912 476.83 775.821 475.592 777.928 475.697C779.354 475.77 779.743 477.37 780.86 477.139C781.456 477.017 782.23 476.348 782.902 476.634C783.069 476.704 783.22 476.92 783.322 477.186C783.519 477.7 784.156 477.376 784.439 477.136L785.131 476.547C785.692 476.068 785.672 475.495 786.284 475.267C786.845 475.06 787.941 474.981 788.396 475.373C788.851 475.764 789.17 476.211 789.68 476.278C791.636 476.529 792.819 475.735 793.168 476.409L793.456 476.97C792.946 477.21 793.542 477.592 793.886 477.341C793.744 476.295 796.145 476.69 796.185 476.199C796.201 476.006 795.928 475.676 796.135 475.373C796.575 474.73 797.762 474.496 798.546 474.604C799.769 474.771 800.138 475.165 799.956 476.076C799.901 476.354 800.209 477.005 799.597 477.142C798.778 477.326 795.195 477.408 796.514 477.908L797.404 478.243C797.641 478.334 797.287 478.664 797.09 478.652C794.74 478.518 794.108 479.49 792.324 479.134C791.257 478.921 790.165 478.696 789.7 477.858L786.091 478.202C785.161 479.832 781.269 480.451 780.334 479.923L778.429 478.845C777.453 478.293 775.401 478.568 774.057 478.445C772.454 479.987 769.3 480.264 766.925 479.309C766.212 479.023 767.177 477.54 765.712 477.84C759.393 476.871 758.023 480.819 754.046 479.382C752.999 479.006 752.347 478.41 752.984 477.484C748.662 477.542 747.889 476.538 745.68 478.471C744.811 479.233 743.011 479.339 741.743 479.193C740.474 479.047 739.883 478.55 739.478 477.7C734.333 477.77 733.175 481.082 728.505 479.812C727.807 479.622 727.393 478.979 726.973 478.497C725.078 478.185 722.394 478.004 720.736 478.716C719.038 479.447 717.061 480.022 715.1 479.163C714.62 478.953 714.529 478.264 714.428 477.761L709.717 477.668L705.951 479.213C704.713 479.295 703.662 479.286 702.767 478.898C702.246 478.67 701.958 478.118 701.807 477.42C699.835 477.785 698.087 477.811 696.009 477.788C694.675 479.601 691.293 480.454 688.437 479.42C687.432 479.055 687.411 478.346 687.073 477.753C685.541 478.614 683.231 477.884 681.851 478.089C679.622 478.871 677.914 480.06 675.164 480.13C673.238 480.18 671.929 479.502 671.54 478.433C669.533 478.419 667.537 477.823 665.606 478.15C663.968 478.43 661.547 480.285 658.909 479.765C656.973 479.385 657.17 478.016 656.341 478.112C654.056 478.378 651.721 477.639 650.513 478.386C648.769 479.461 646.97 480.434 644.215 480.083C642.941 479.923 643.25 478.261 637.978 478.524C635.936 478.626 634.394 480.662 631.119 480.364C629.587 480.223 628.859 479.818 628.056 478.9C627.085 478.492 624.007 478.156 622.758 478.439C621.272 479.12 620.388 479.686 618.331 479.587C616.728 479.508 616.021 478.973 615.141 478.065L611.33 477.867C610.243 479.368 607.792 480.086 605.472 479.628C603.784 479.295 603.632 478.553 603.147 477.94C601.721 477.542 598.087 477.627 596.96 478.311C595.626 479.12 594.978 479.622 593.058 479.566C591.546 479.523 590.546 479.023 589.98 477.96L585.072 478.568C583.919 479.952 579.997 481.138 577.894 480.031C576.514 479.304 576.282 478.898 574.219 478.778C572.278 478.667 571.055 478.497 569.62 479.598C568.857 480.186 566.653 480.285 565.601 479.964C564.338 479.578 563.817 478.807 564.004 477.832C562.372 477.834 560.8 477.367 559.278 477.653L556.71 479.041C555.497 479.304 554.486 479.619 553.42 479.406C550.797 478.883 552.252 477.688 549.912 477.291C549.26 477.18 548.942 477.767 548.477 478.065L547.056 477.458C546.258 477.116 545.969 479.044 542.553 479.193C541.122 479.254 540.243 478.392 539.323 477.788C538.312 477.881 536.907 478.132 535.769 477.77C534.617 478.956 532.964 479.85 530.695 480.107C528.425 480.364 526.732 479.818 526.413 478.462L520.591 477.998C519.029 478.854 517.143 479.414 515.015 479.549C513.211 479.663 512.129 478.781 512.271 477.852C505.836 476.43 506.074 478.921 503.531 478.953C502.212 478.968 500.721 479.122 500.079 478.243C499.831 477.905 499.912 477.247 499.538 477.233L497.931 477.169C493.144 476.254 493.629 479.467 489.586 479.242C488.282 479.169 487.271 478.655 486.685 477.767C485.123 478.036 483.899 478.147 482.115 478.059C481.827 479.502 479.831 479.964 477.697 480.165C475.413 480.381 474.478 479.654 473.366 478.81L466.502 478.287C465.147 479.812 461.958 480.256 459.542 479.528C459.082 479.128 458.753 478.579 458.167 478.36C457.272 479.006 456.226 479.198 455.179 479.277C453.8 479.379 451.313 476.935 445.667 477.948C443.422 480.191 439.505 480.136 439.005 479.604L438.009 478.541C435.431 477.61 432.601 478.445 430.73 479.499C429.942 479.943 428.36 479.917 427.617 479.961C426.581 480.022 426.075 479.052 425.403 478.874C423.801 478.454 421.89 478.451 420.222 478.348C418.291 479.937 414.713 480.326 413.166 479.268C412.458 478.787 412.357 478.296 412.438 477.405C410.987 477.992 409.35 477.61 407.864 477.443C406.155 478.503 403.785 479.561 401.207 478.725C400.307 478.433 399.943 477.688 399.524 477.192L394.868 477.245C394.53 478.319 393.069 478.985 391.517 479.084C389.844 479.193 388.697 478.606 387.898 477.645L383.314 478.497C382.237 479.841 379.351 480.516 377.006 479.908C376.05 479.66 375.656 478.778 375.095 478.518C373.912 478.646 373.023 478.115 371.946 478.147L368.61 478.243C367.245 478.9 365.547 479.73 363.51 479.861C361.801 479.972 360.548 479.485 360.037 478.603C358.642 476.187 352.36 480.837 351.258 477.51L347.891 477.738C348.002 478.457 347.659 478.994 347.027 479.219C345.829 479.648 343.463 479.707 342.478 479.274C342.003 479.064 341.902 478.591 341.568 478.129C341.371 477.887 340.365 478.372 340.112 478.503C338.869 478.357 337.433 478.454 336.584 479.207C335.189 480.44 331.6 480.892 329.821 479.753C329.371 479.464 329.245 478.807 328.81 478.693C328.376 478.579 327.344 478.924 326.824 478.842C326.056 478.722 325.419 478.384 324.837 478.363C323.493 478.313 322.866 480.279 318.534 479.724C316.937 479.52 316.654 478.527 316.149 477.797C314.733 477.846 312.969 478.071 311.544 477.706C310.366 479.055 308.37 479.733 305.974 479.505C305.054 479.417 304.452 479.157 303.891 478.784C303.537 478.547 303.775 477.989 303.669 477.598C301.996 477.087 298.468 477.017 297.133 477.916C295.647 478.912 293.171 480.212 291.204 478.997C290.102 478.316 289.147 477.834 287.434 477.817C285.953 477.802 285.553 478.518 284.472 479.143C282.748 480.139 279.266 480.498 277.208 479.8C276.667 479.616 276.703 478.743 276.233 478.667C275.646 478.573 274.742 478.88 273.928 478.877C272.907 478.877 271.32 478.343 270.238 478.784C267.898 479.733 265.972 480.758 263.374 479.739C262.778 479.505 262.742 478.582 262.171 478.284C260.402 477.358 257.688 478.021 256.222 478.807C255.145 479.382 253.669 479.365 252.421 479.108C251.501 478.918 251.248 478.217 250.48 477.627C249.494 476.874 246.36 477.081 245.385 477.782C244.247 478.6 243.611 479.035 241.978 479.003C240.492 478.971 239.4 478.76 238.546 477.773C237.338 477.922 235.286 477.925 234.487 478.524C233.133 479.534 231.323 480.334 229.048 480.223C227.138 480.13 226.395 479.312 226.086 478.445C224.808 478.641 223.13 478.714 221.932 478.1L217.751 479.391C216.367 479.818 215.457 479.908 214.233 479.531C213.243 479.225 213.066 478.483 212.773 477.94C211.378 477.601 209.583 477.525 208.026 477.469C206.768 478.719 204.736 478.941 202.441 478.547L201.304 477.259C199.848 477.531 198.438 477.487 196.836 477.519C194.996 479.823 191.154 480.457 189.011 479.584C188.395 479.333 187.96 478.752 187.606 478.135C184.23 478.643 182.971 477.77 179.13 479.514C177.674 480.174 177.093 480.489 175.329 480.475C173.848 480.463 173.12 479.765 172.144 479.187L165.583 478.941C164.82 479.899 163.637 480.343 162.359 480.58C161.08 480.816 158.962 480.685 158.052 480.004C157.233 479.391 157.39 478.906 155.707 478.83C153.215 478.719 152.487 480.644 147.766 479.543L146.331 478.331C144.475 478.465 142.964 478.275 141.246 478.007C138.344 480.261 133.446 480.994 131.576 479.689C131.01 479.295 131.086 478.681 131.061 478.077L127.442 478.264C125.041 477.747 124.197 478.197 122.544 478.944C120.891 479.692 115.609 480.296 114.416 479.412C113.88 479.014 113.9 478.518 113.87 477.639C112.334 478.238 110.211 477.633 109.013 477.662C106.713 478.252 104.817 479.631 102.068 479.438C100.253 479.309 99.04 478.658 99.2624 477.537C97.9027 477.49 96.9121 477.332 95.6686 477.201C93.106 476.935 92.8128 479.006 91.7008 479.397C90.6646 479.759 86.3733 479.344 86.5401 477.718C85.2714 478.124 84.028 477.98 82.6784 478.144C80.2825 479.128 79.0745 480.752 76.4461 480.629C74.8641 480.556 73.6459 479.873 72.8574 479.09C70.8962 479.365 69.208 478.267 65.8063 478.684C64.9217 480.007 61.1207 481.062 59.0686 480.022C58.1436 479.555 58.4671 478.947 56.9709 478.886C54.6913 478.792 55.0552 479.747 50.7538 479.809C49.4295 479.829 49.0454 478.798 48.1911 478.576C44.936 477.729 41.883 478.93 39.8359 480.121C38.7593 480.749 37.3289 480.632 36.2977 480.548C34.9229 480.437 34.8623 479.782 34.0687 479.289C32.3552 478.226 29.4994 478.848 28.2206 479.864C27.1237 480.735 25.5871 481.085 24.0303 480.983L24.0303 476.897L24 476.862Z" fill="#FD6500"/>
</svg>
