<svg preserveAspectRatio="none" width="100%" height="100%" overflow="visible" style="display: block;" viewBox="0 0 199 268" fill="none" xmlns="http://www.w3.org/2000/svg">
<path id="Vector" d="M198.5 266.981V267.481H198L1 267.5H0.500005V267L0.500981 46.5729V46.195L0.864262 46.0925C9.40176 43.664 16.0411 37.2312 18.4414 28.6491L18.5439 28.2829L18.9238 28.2839L32.0332 28.3044C41.3983 15.9063 56.2948 8.09475 71.207 4.15203C98.0524 -2.94595 130.275 -0.00157843 153.546 15.6618C158.85 19.2319 163.224 23.5009 167.063 28.4235H178.684C178.918 28.4209 179.256 28.4209 179.532 28.4216C179.671 28.4219 179.795 28.4231 179.885 28.4235H180.029L180.393 28.4264L180.503 28.7712C181.477 31.8152 182.82 34.4014 184.515 36.8669L184.683 37.0407L184.69 37.0485L184.697 37.0563L187.468 40.1872C190.512 42.9355 194.009 44.8634 198.134 46.0593L198.494 46.1637V46.5397L198.5 266.981Z" stroke="var(--stroke-0, #F3EEE1)" stroke-miterlimit="10"/>
</svg>
