<svg preserveAspectRatio="none" width="100%" height="100%" overflow="visible" style="display: block;" viewBox="0 0 13.9999 1436" fill="none" xmlns="http://www.w3.org/2000/svg">
<path id="Vector" d="M7.24155 0C7.62486 1.27208 8.66236 2.79671 8.63681 4.78902C8.62148 5.97692 7.48176 7.99728 6.67424 8.38078C5.76451 8.81104 6.9349 2.84348 5.22787 4.2278C4.62479 2.65641 3.70483 4.56453 4.81389 5.24734C5.9945 10.5695 5.96383 17.5005 5.43741 22.5795C5.37608 23.1781 4.45613 23.9544 4.35902 24.4034C4.21081 25.0956 4.60434 25.4042 4.96721 25.3388C6.36759 25.0862 5.90761 21.2793 7.61464 20.6433C8.3506 20.372 8.99968 20.6526 9.7612 21.7751C9.9963 21.9621 10.7272 20.9894 11.0645 22.7852C7.84974 25.002 11.0747 30.9696 7.68108 31.8582C7.11378 31.1941 6.66402 32.1388 6.86334 32.7935C8.4426 34.9261 7.14444 36.6285 6.91956 38.2934C6.4187 41.9974 6.76113 45.4769 6.86334 48.6104C6.97578 48.6291 7.17 48.5075 7.25177 48.1333C7.2211 46.7303 7.09844 45.3086 7.42043 43.9617C8.5857 45.3928 9.06101 46.8893 9.33189 48.1801C9.71009 49.9853 8.64192 51.538 8.59592 52.7914C8.49371 55.6817 7.46642 55.981 6.63847 57.6833C5.92295 59.1612 6.59758 63.7444 4.76789 64.4366L5.47319 71.2179C7.55331 70.6193 8.55504 72.6583 8.80547 75.2493C9.28078 80.216 5.31475 79.2339 5.18698 90.6078C6.07116 90.0934 6.53114 88.6155 6.8889 87.942C8.55504 88.9896 7.77308 91.4683 8.09506 92.703C8.60615 94.6766 9.28589 96.5473 8.50393 98.2309C7.99795 99.3253 6.80201 99.2972 5.64696 99.0166C5.92295 101.121 6.34204 102.543 6.17849 104.825C6.22449 105.536 6.62313 105.77 6.90423 105.031C7.66064 104.395 8.7237 103.553 9.40855 103.899C9.96563 104.18 10.6863 105.92 10.998 107.472C11.7851 111.382 9.75098 115.245 8.08484 117.509C8.22794 119.828 7.84974 122.12 7.37954 124.571L7.81907 131.801C8.59081 130.987 9.18367 130.613 9.95541 130.959C10.9265 131.399 11.8822 135.711 10.9674 139.022C10.7885 139.676 7.2671 143.661 8.97413 142.922L9.6181 142.642C10.7118 143.091 11.2331 145.513 10.4563 147.066C9.80209 148.375 8.60104 148.908 7.77308 149.732C7.49198 154.118 7.06267 157.168 7.8804 159.104C8.80547 161.293 12.1735 162.144 10.9878 167.971C10.4665 170.543 9.60276 171.974 8.02351 172.536C7.71686 172.648 7.25177 174.509 6.91956 174.537C6.58736 174.565 6.11205 173.433 5.53452 174.677C6.15805 175.893 6.83779 178.363 7.50731 178.877C9.18367 179.785 10.8447 180.654 11.4018 183.704C10.4256 184.733 9.73054 185.097 8.99968 185.2C8.37105 185.294 7.8293 184.293 7.37443 183.17C6.49025 192.823 10.5227 191.261 10.3387 194.095C9.88897 201.129 7.90596 199.455 7.38976 203.58C8.03884 204.366 8.92813 205.395 8.85658 207.069C8.79525 208.416 8.75947 209.894 7.69641 210.146C6.8889 208.603 6.08649 210.773 7.23132 211.867C6.986 214.991 6.2296 219.088 8.00818 221.127C8.61637 221.819 9.93497 221.426 10.1343 223.4C10.2518 224.541 10.4358 225.972 9.81742 227.254L6.83268 233.464C8.14617 233.82 8.92813 234.783 9.18878 236.13C9.36766 237.066 8.88724 238.674 8.14106 239.563C7.61464 240.19 6.97578 239.797 6.28071 238.16C6.43403 243.117 5.15632 247.542 4.52768 252.097C4.49191 253.21 5.60096 255.006 5.25342 257.194C7.04733 255.286 8.24839 257.541 8.66237 259.692C9.67943 264.977 6.73046 264.088 5.29431 268.914C4.99788 269.915 5.18187 271.543 6.05072 271.608C6.44936 271.636 7.20577 270.935 7.49198 271.094C8.71859 271.786 6.3267 276.566 3.7355 279.933C4.14948 281.093 5.45786 283.581 6.2296 282.589C6.91956 281.71 7.33354 280.298 8.03373 280.344C8.73392 280.391 9.08657 281.289 9.23478 281.991C9.383 282.692 9.50566 284.918 8.83614 285.554C7.10867 287.191 5.46297 293.477 7.33865 295.909C8.46815 297.377 10.2058 296.657 10.2007 300.726C10.2007 302.699 9.20412 304.018 8.3506 305.861C7.28243 308.162 7.28243 309.883 4.6299 309.874C6.86846 311.164 7.91618 317.628 7.78841 320.565C7.58397 325.354 10.8294 324.484 11.366 328.599C11.5909 330.32 10.8191 331.929 10.4972 333.529C10.63 334.342 11.2842 335.68 11.1002 336.559C10.8243 337.878 10.5585 338.804 9.57721 337.719C9.20412 337.308 8.8668 337.523 8.77992 338.271L7.25688 351.59C7.11889 352.788 7.39998 353.424 7.89063 353.377C8.33527 353.33 8.7237 352.03 8.24839 350.889C9.16834 349.972 9.74587 351.684 10.2314 352.993C11.1462 355.453 9.45966 359.634 8.91791 359.793C8.41193 359.943 7.90085 359.429 6.83268 358.849C7.97751 364.807 5.12054 367.463 8.39149 371.757C8.93835 372.477 8.87191 374.189 8.54482 374.853C8.21772 375.517 7.44598 375.433 6.99112 376.405L5.08477 380.484C4.56857 379.773 3.86838 380.848 4.55324 381.699C5.67251 380.82 7.55842 381.774 7.48176 383.262C7.4051 384.749 7.4562 385.338 7.93662 386.133C8.17172 386.526 8.64703 386.554 9.16323 386.619C10.2978 386.769 10.6198 388.696 10.7936 390.211C11.0951 392.868 10.676 392.849 9.64365 394.42C8.0644 396.824 7.36421 404.232 8.52437 407.861C9.49032 409.105 12.1377 411.303 10.8907 414.297C9.91964 416.626 7.96729 417.842 7.70152 422.238C9.09679 421.602 10.63 423.323 10.8651 425.979L7.77819 429.169C7.80374 432.022 7.57886 434.201 7.42043 436.811C8.64703 437.634 10.2774 439.579 10.1496 441.646C9.86853 442.404 8.74414 443.545 8.79014 444.64C8.81569 445.35 9.35744 446.239 9.59765 447.305C9.93497 448.783 8.90769 450.139 8.34549 450.448C7.66575 450.822 6.92467 450.037 6.12738 449.728C5.54474 449.494 5.39653 452.188 5.95872 452.337C6.25515 452.422 7.15466 452.459 7.38465 453.179C8.10528 455.415 6.92979 458.698 5.62141 459.502C6.85823 461.195 8.35571 462.177 8.70325 464.759C9.09679 467.649 7.34377 469.801 6.08649 470.596L7.10355 472.784C7.28754 473.177 7.08311 474.328 6.39826 474.795C5.93828 473.523 4.90077 471.783 3.81727 474.038C4.70656 474.926 5.46808 474.412 5.68274 475.3C5.97405 476.535 5.97406 477.377 5.7134 479.229C7.10867 478.827 9.19901 479.023 10.2416 481.38C10.8243 482.699 10.6914 485.15 10.6965 486.562C9.17345 488.012 8.61637 490.098 7.7833 492.343C8.5857 492.165 9.35744 493.091 9.291 493.961C9.26545 494.288 7.74241 499.143 8.00307 498.927C7.76286 499.124 7.06267 498.535 6.71002 498.198C6.11716 497.618 5.61118 498.45 5.87695 499.161C5.95872 499.386 6.1836 499.732 6.40848 499.685L7.10355 499.535C8.97924 504.044 10.9214 501.341 11.1156 507.533C11.2025 510.367 11.4836 512.724 10.119 514.866C8.98946 516.643 8.50904 519.561 8.73392 522.461C9.25011 529.074 7.04733 532.394 7.37954 534.92C7.71175 537.445 10.5074 536.501 10.676 540.925C10.8243 544.807 7.10866 543.825 6.83268 548.202C6.10183 546.986 5.67251 545.976 5.05921 546.256C5.32497 548.436 6.14782 548.735 6.41359 549.558C6.73046 550.55 5.75429 553.59 6.2756 556.368C6.54136 557.78 9.25011 558.266 9.26034 561.316C9.27056 564.365 5.69296 565.852 5.49874 570.697C7.67086 571.417 9.66409 574.298 9.67943 578.62C9.68454 580.322 8.3506 581.239 7.47665 582.258C8.18706 583.315 9.30633 584.681 9.13256 585.981C8.69814 589.189 7.5942 591.621 5.91783 593.604C9.44944 597.084 6.04561 605.502 9.7612 602.93C11.3098 604.323 11.3456 608.009 10.63 610.665C10.3387 611.741 10.9418 614.219 10.3847 614.724L8.41193 616.502C8.17172 619.242 7.93662 623.002 6.14782 624.817C7.41021 627.427 9.12745 628.212 10.9827 629.737C9.95541 636.462 5.27898 640.97 7.29777 644.684C8.02862 646.021 9.22456 646.33 9.34722 648.322C9.44944 649.978 8.34549 651.633 7.96729 652.821C7.69641 653.663 8.7237 656.31 7.42043 657.096C6.80712 657.255 5.68785 655.627 4.59923 656.675C6.24493 657.423 6.76624 659.808 6.8889 663.064C7.85996 662.315 8.8208 661.707 9.20412 662.297C9.55677 662.848 10.2314 664.251 10.4665 665.617C11.044 668.947 9.08657 673.259 7.08311 673.624C7.41532 675.092 7.94685 675.214 8.73392 675.335C8.00818 679.208 8.19217 682.809 8.26372 687.373C7.80374 688.973 9.08146 689.244 8.74925 687.42C9.06612 685.755 9.87875 685.821 10.4869 686.185C10.7834 686.363 11.1309 687.055 11.2689 688.047C11.8515 692.134 10.5125 694.342 8.40682 696.063C9.26545 698.027 10.8191 698.738 11.0236 700.375C11.2638 702.283 9.78675 705.416 8.89235 704.734L7.94685 704.013C7.39998 703.602 8.57548 706.155 7.79863 711.618C7.45109 714.059 9.35744 714.611 10.027 715.312C11.2996 716.631 10.768 718.979 10.4461 720.476C10.0525 722.309 9.0559 722.477 7.88552 723.113C7.33865 723.413 6.78668 725.788 5.80029 724.956C5.41697 724.021 4.773 725.227 5.33009 725.91C6.56691 729.343 6.94001 733.477 6.17849 737.368C7.79352 738.042 8.80547 739.388 9.17856 742.064C8.43238 743.354 7.57886 744.29 7.33865 745.861C11.1207 745.309 7.59931 750.566 10.0116 753.353C9.15301 755.729 7.58397 753.784 7.04222 754.579C6.35737 755.579 6.58225 758.928 6.81223 760.107C7.124 761.743 9.9963 761.051 9.84808 766.037C9.80209 767.664 8.34549 767.664 8.04395 768.946L7.3591 771.92L5.67763 772.528L7.10355 774.67L7.06267 777.448C7.71175 779.225 7.68108 780.778 7.20066 783.518C8.17172 781.797 8.83102 781.246 9.65387 782.153C10.2927 782.864 10.952 784.136 11.0849 785.913C11.3967 790.075 9.46477 792.853 7.41021 795.201C8.19728 796.688 8.99968 797.147 9.21945 797.97C9.46477 798.877 9.33189 800.879 8.94346 800.963C7.91107 799.607 5.48341 805.078 5.73896 807.145C5.93828 808.764 5.89228 812.112 7.06267 812.365C8.35572 812.636 9.19901 813.272 9.58743 815.105C10.5687 819.782 4.37436 823.664 6.52603 829.566C6.94001 830.707 8.38127 830.978 8.36083 832.316C8.2995 836.731 6.15805 834.262 5.42719 839.097C5.11032 838.938 4.56857 838.442 4.38969 838.573C4.14437 838.761 3.99615 839.546 4.15459 839.92C4.38458 840.453 4.69123 840.388 5.12565 840.538C6.37781 840.959 6.46981 843.681 6.11716 845.981C7.032 845.28 7.61464 844.831 8.38127 845.158C8.95879 845.402 9.46477 846.234 10.0065 847.74C10.9316 845.476 13.4001 846.028 13.8857 848.376C14.2536 850.153 13.6557 851.827 13.1855 851.631C12.5415 851.369 11.9129 848.329 11.2791 849.218C10.2467 850.658 12.2604 855.728 8.80547 858.057C8.53459 860.489 8.04395 861.976 6.28071 862.528L8.10528 864.52C8.4886 864.941 8.30461 866.615 8.22283 867.392C7.75263 871.947 11.8515 870.478 11.32 876.287C11.044 879.299 8.52437 880.982 8.73392 882.872C8.82591 883.714 10.2314 881.59 11.0542 884.312C11.2178 884.855 11.0542 886.052 10.6198 886.903C9.89408 888.334 8.99968 888.288 7.54309 888.091C8.70836 891.645 7.93662 895.378 8.41193 898.895C9.17856 900.204 11.3353 901.336 11.2127 904.104C11.1207 906.218 10.2161 908.351 9.70498 910.418C8.51926 910.54 7.53798 910.175 6.5618 910.998C6.54136 912.392 7.21088 912.579 7.5482 911.634C8.26883 910.858 8.71859 913.159 7.66575 913.233L7.4562 918.256C6.10694 924.841 10.5738 926.375 9.05079 930.079C8.75947 930.79 7.93151 931.071 7.29266 931.417C7.7373 933.175 7.84463 934.494 7.70152 936.075C7.60953 937.085 6.50558 937.571 5.86673 937.88L6.27049 943.081C8.65215 943.305 10.4461 945.606 10.7272 949.843L7.6402 956.615C8.51926 957.915 8.81569 959.187 8.81058 960.506C8.81058 961.619 8.30972 962.648 7.49709 964.351C9.74587 965.52 11.4529 968.588 11.1974 973.068C10.9929 976.65 7.35399 976.884 7.70152 979.139C7.86507 980.214 8.49882 978.615 9.04568 979.082C9.73565 979.672 10.4358 981.991 10.1956 982.964C9.88897 984.208 8.68281 984.807 7.34376 984.246L7.94685 993.253C8.75436 994.076 10.1496 994.927 10.4716 996.761C10.7936 998.594 10.9214 1000.68 9.80209 1002.47C9.37789 1003.14 8.11039 1002.77 7.37443 1003.32C7.41021 1005.26 6.6998 1006.68 5.77473 1007.4C6.34204 1010.21 6.15294 1013.34 5.93317 1016.29C6.97067 1017.52 8.68792 1018.89 8.7748 1021.4C7.10355 1024.43 5.06432 1026.2 4.01148 1030.34C5.88717 1028.85 8.06951 1026.98 9.1479 1030.61C9.57721 1032.06 7.84974 1034.21 6.80201 1033.99L6.81735 1043.95C7.57375 1045.11 8.5857 1042.91 8.99968 1042.56C9.81231 1042.82 10.0065 1045.25 9.80209 1046.44C9.64876 1047.32 9.16323 1047.96 8.40171 1048.33C9.13767 1051.51 7.8804 1053.85 7.39487 1056.4C7.00134 1058.46 8.8668 1059.37 9.62832 1059.35C9.14279 1063.89 11.5193 1065.46 10.4358 1069.15C10.1241 1070.21 9.77142 1071.04 8.68281 1071.47C7.68108 1071.87 6.69469 1076.71 7.59931 1077.55C8.84636 1078.7 10.119 1079.24 10.2978 1081.16C10.4767 1083.08 10.1036 1084.8 8.98435 1086.18L7.39487 1083.39C6.34204 1087.42 7.6453 1090.27 6.86845 1093.18C6.73557 1093.67 6.64869 1094.65 6.67935 1095.07C6.70491 1095.45 7.16488 1095.79 7.40509 1095.61C7.58909 1095.47 8.04395 1095.07 7.9724 1094.36L7.75774 1092.29C7.58909 1090.66 10.3438 1093.79 10.2672 1096.05C10.2365 1096.92 9.77142 1098.61 9.13767 1099.31C6.62313 1102.11 5.44253 1108.35 7.42043 1113.05C7.77308 1113.89 8.98435 1114.01 8.80547 1115.82C8.69303 1116.98 8.79525 1117.66 8.15639 1119.2C7.84463 1119.95 7.96729 1122.42 7.08311 1122.66C6.67424 1122.12 6.32159 1121.85 5.94339 1121.82C5.74407 1121.8 5.6674 1122.29 5.92295 1122.72L6.5618 1123.81C6.90934 1124.41 7.28243 1125.33 7.21599 1125.82C6.80712 1128.9 5.7594 1125.26 4.41524 1125.48C3.5004 1125.63 5.97916 1126.37 5.81562 1131.18C6.38292 1129.99 7.60953 1129.86 7.96218 1131.38L9.21945 1136.76C10.0372 1140.24 5.09499 1141.97 5.83606 1151L8.89235 1152.37C10.5738 1154.84 9.56188 1159.51 8.00307 1161.55C6.77646 1163.15 6.84801 1167.47 8.05417 1168.56C10.1803 1170.47 10.4052 1173.27 10.1701 1177.19C10.0576 1179.09 9.95541 1181 8.85147 1181.51C7.74752 1182.03 7.21088 1179.94 6.12738 1178.82C6.95534 1182.08 7.84974 1184.33 6.68958 1187.79L8.89235 1194.45C9.36255 1195.88 9.30122 1197.12 8.78503 1198.05C7.84463 1199.74 5.92295 1198.55 6.05583 1202.05C5.22276 1202.38 5.65718 1204.43 6.21427 1203.6C7.42554 1202.97 8.51415 1203.73 9.58743 1204.4C10.3745 1204.9 10.5125 1206.93 10.211 1208.22C9.79187 1210.01 7.47665 1206.67 6.02516 1208.35C7.73219 1213.26 5.41697 1216.56 6.78157 1217.03C7.89574 1218.01 9.37789 1220.25 9.93497 1221.97C11.2536 1226.03 9.60788 1228.09 8.22283 1230.2C7.18022 1231.78 6.80712 1234.52 5.09499 1234.14L6.45959 1236.45C6.57714 1236.66 6.74579 1237.39 6.95534 1237.41C7.124 1237.43 7.38465 1236.88 7.55331 1236.6C8.46304 1235.11 9.03035 1235.98 9.70498 1237.3C10.1496 1238.18 10.303 1239.64 9.38811 1240.95L7.80885 1243.21C6.87357 1244.55 9.21434 1249.72 7.10867 1253.5C6.78668 1255.04 7.66064 1255.91 8.01329 1254.41L9.25011 1251.29C9.67431 1250.21 11.0849 1252.56 11.4273 1253.74C11.8107 1255.07 11.2331 1256.36 11.1105 1258C10.7936 1262.16 7.21599 1260.94 7.84974 1263.5C8.66748 1266.78 6.2756 1272.51 9.02524 1274.51C9.9963 1275.23 10.3336 1276.81 10.3387 1278.33C10.3438 1280.29 7.64019 1285.15 6.55669 1283.62C6.30626 1283.26 5.75429 1283.5 5.7134 1283.88C5.61118 1284.77 8.34038 1286.85 7.24666 1289.02C6.61291 1290.27 6.05583 1291.59 6.35226 1292.88C6.67424 1294.26 7.39487 1295.03 8.23816 1295.6C9.5721 1296.49 9.44433 1299.23 8.87702 1301.05C8.37616 1302.67 7.27732 1302.57 6.18871 1301.19C6.85823 1307.78 2.84621 1307.37 5.85139 1309.39C6.34715 1307.11 7.81396 1306.7 8.62148 1307.46C9.86342 1308.63 10.2058 1312.73 9.1479 1314.26C7.88551 1316.07 6.95023 1318.31 7.56353 1321.1C8.2075 1320.72 9.08657 1319.93 9.45966 1320.1C9.89408 1320.3 10.3898 1321.39 10.2927 1322.28C9.94519 1325.38 7.52264 1326.03 8.56015 1328.59C8.72881 1329 9.15301 1329.47 9.20412 1329.75C9.25522 1330.03 8.80036 1330.7 8.53459 1330.79L7.48176 1331.14C7.25177 1331.22 7.06267 1332.17 7.68108 1332.08C7.94685 1335.3 8.98946 1335.82 10.2212 1336.86C11.4529 1337.91 10.9111 1341.21 10.8089 1342.76C10.6403 1345.23 9.21434 1345.62 8.21261 1347.04C8.07973 1348.57 8.66748 1352.47 7.5022 1353.31C7.124 1353.23 6.30626 1352.44 6.15294 1353.18C5.92806 1354.26 6.30115 1355.53 6.57714 1355.45C8.05417 1354.97 8.41704 1357.53 9.15301 1358.06C9.76631 1358.51 10.8498 1357.18 11.2382 1357.71C11.6267 1358.25 11.9895 1359.06 12.24 1359.73C10.9827 1362.23 9.58232 1362.56 8.03884 1363.67C7.3591 1364.76 7.66064 1368.21 8.05929 1369.61L6.77135 1372.47C6.50047 1373.08 6.69469 1373.97 6.90934 1374.06C7.08311 1374.14 7.42554 1373.39 7.5482 1373.03C8.35572 1370.68 9.18367 1371.36 9.81742 1372.71C10.3592 1373.87 10.5738 1376.02 9.62832 1376.75L5.2432 1380.12C6.97578 1384.91 6.07627 1389.62 6.39826 1390.09C7.29777 1391.42 9.46477 1391.26 9.28078 1395.16C9.15301 1397.79 6.35226 1398.51 6.75602 1400.58C6.97067 1401.68 8.14106 1403.12 7.6402 1404.36C7.51753 1404.67 7.13933 1404.95 6.67424 1405.14C5.77473 1405.5 6.34204 1406.68 6.76113 1407.2L7.79352 1408.48C8.6317 1409.52 9.63343 1409.49 10.0321 1410.62C10.3949 1411.66 10.5329 1413.69 9.84808 1414.53C9.16323 1415.37 8.38127 1415.96 8.26372 1416.9C7.82418 1420.52 9.21434 1422.71 8.03373 1423.36L7.05245 1423.89C6.63336 1422.95 5.96383 1424.05 6.40337 1424.69C8.23305 1424.42 7.54309 1428.87 8.40171 1428.94C8.73903 1428.97 9.31656 1428.46 9.84808 1428.85C10.9725 1429.66 11.3813 1431.86 11.1922 1433.31C10.9009 1435.57 10.211 1436.26 8.61637 1435.92C8.13084 1435.82 6.99112 1436.39 6.75091 1435.25C6.42892 1433.74 6.28582 1427.11 5.41186 1429.55L4.82411 1431.2C4.66567 1431.63 4.08815 1430.98 4.10859 1430.62C4.34369 1426.27 2.64178 1425.1 3.2653 1421.8C3.63839 1419.82 4.03193 1417.8 5.49874 1416.94L4.89566 1410.26C2.0438 1408.54 0.960303 1401.34 1.88537 1399.61L3.77127 1396.08C4.73723 1394.28 4.25681 1390.48 4.47146 1387.99C1.77293 1385.03 1.2874 1379.19 2.95865 1374.79C3.45951 1373.47 6.05583 1375.26 5.52941 1372.55C7.22622 1360.86 0.316335 1358.32 2.83088 1350.96C3.49018 1349.02 4.53279 1347.82 6.15294 1349C6.05072 1341 7.80885 1339.57 4.42547 1335.48C3.09153 1333.87 2.90754 1330.54 3.16308 1328.19C3.41863 1325.85 4.28747 1324.75 5.77473 1324C5.65207 1314.48 -0.143642 1312.34 2.07958 1303.7C2.41179 1302.41 3.53618 1301.64 4.37947 1300.86C4.92633 1297.36 5.2432 1292.39 3.99615 1289.32C2.71844 1286.18 1.7116 1282.52 3.21419 1278.89C3.58217 1278 4.78834 1277.83 5.6674 1277.65L5.83095 1268.93L3.12731 1261.96C2.9842 1259.67 2.99954 1257.72 3.67928 1256.07C4.07793 1255.11 5.04388 1254.57 6.26537 1254.29C5.62652 1250.64 5.58052 1247.41 5.62141 1243.56C2.44756 1241.09 0.955192 1234.84 2.76444 1229.55C3.40329 1227.69 4.64523 1227.65 5.68274 1227.03C4.17503 1224.19 5.45275 1219.92 5.09499 1217.36C3.72528 1213.24 1.64516 1210.08 1.5225 1204.99C1.43561 1201.43 2.62133 1199 4.49191 1198.28C4.51746 1194.57 5.56007 1190.87 4.98766 1187.3C4.49702 1184.27 1.25162 1179.79 2.16135 1174.91C2.82577 1171.33 5.22276 1171.69 5.0541 1170.16C4.58901 1165.93 5.88206 1161.61 4.57368 1159.37C2.69288 1156.15 0.990968 1152.82 1.60427 1147.72C1.88537 1145.36 4.79345 1145.93 4.33347 1136.18C4.15459 1132.4 0.592321 1129.54 1.11363 1123.48C1.35895 1120.65 2.06936 1119.3 3.67417 1117.81C4.38969 1116.02 4.97744 1110.32 4.48168 1108.01C3.29085 1105.26 2.29935 1103.62 2.47312 1099.82C2.61111 1096.85 3.5464 1095.54 5.13587 1093.92L5.48341 1086.86C2.85643 1084.85 1.59916 1080.32 2.40156 1076.02C2.9842 1072.9 4.28236 1072.62 5.35564 1071.72C6.05072 1069.08 5.9025 1062.36 4.70656 1060.27C3.29085 1057.8 2.41179 1056.6 2.50889 1053.05C2.58556 1050.25 3.45951 1048.4 5.31987 1047.35L4.25681 1038.27C1.83426 1036.14 -0.240748 1028.88 1.69627 1024.99C2.96887 1022.44 3.67928 1022.01 3.88882 1018.19C4.08304 1014.6 4.37947 1012.33 2.45267 1009.68C1.42539 1008.27 1.25162 1004.19 1.81382 1002.24C2.48845 999.903 3.83772 998.94 5.54474 999.286C5.53963 996.265 6.35737 993.356 5.85651 990.54L3.42885 985.789C2.96887 983.544 2.4169 981.673 2.78999 979.7C3.70483 974.845 5.79518 977.539 6.49025 973.208C6.68446 972.002 5.65718 971.413 5.13587 970.552L6.19893 967.924C6.7969 966.446 3.42374 965.913 3.16308 959.59C3.05575 956.943 4.56346 955.315 5.62141 953.613C5.45786 951.742 5.01832 949.142 5.65207 947.037C3.57706 944.905 2.01314 941.846 1.56338 937.646C1.11363 933.446 2.06936 930.313 4.4408 929.724L5.25342 918.949C3.75594 916.058 2.77466 912.569 2.53956 908.631C2.34023 905.292 3.88371 903.291 5.50897 903.552C7.99795 891.645 3.63839 892.085 3.58217 887.38C3.55662 884.939 3.28574 882.18 4.82411 880.992C5.41697 880.533 6.56691 880.683 6.59247 879.991L6.70491 877.016C8.30461 868.159 2.68266 869.057 3.0762 861.574C3.20397 859.161 4.10348 857.29 5.65718 856.205C5.18698 853.315 4.99277 851.051 5.1461 847.749C2.62133 847.216 1.81382 843.521 1.46117 839.574C1.08296 835.346 2.35557 833.616 3.83261 831.558L4.74745 818.856C2.07958 816.349 1.30273 810.447 2.57533 805.976C3.27552 805.125 4.23636 804.517 4.61968 803.432C3.49018 801.777 3.15286 799.84 3.01487 797.904C2.83599 795.351 7.11378 790.749 5.34031 780.301C1.41517 776.148 1.51228 768.899 2.44245 767.973L4.3028 766.13C5.93317 761.36 4.47146 756.122 2.62644 752.661C1.84959 751.202 1.89559 748.274 1.81893 746.899C1.7116 744.982 3.4084 744.047 3.72017 742.802C4.45613 739.837 4.46124 736.302 4.64012 733.215C1.85981 729.642 1.18007 723.02 3.0302 720.158C3.87349 718.848 4.73212 718.661 6.29093 718.811C5.26364 716.126 5.93317 713.096 6.22449 710.346C4.36925 707.184 2.51911 702.797 3.98082 698.027C4.49191 696.362 5.79518 695.689 6.66402 694.912L6.57203 686.298C4.69123 685.671 3.52595 682.968 3.35218 680.096C3.16308 677 4.19036 674.877 5.87184 673.399L4.37947 664.916C2.02847 662.923 0.847865 657.582 1.91092 653.242C2.34535 651.474 3.88883 650.745 4.34369 649.707C4.11881 647.518 5.04899 645.872 4.99277 643.879L4.82411 637.706C3.67417 635.181 2.22269 632.038 1.9927 628.268C1.79848 625.107 2.652 622.787 4.19548 621.842C8.42216 619.261 0.285671 607.634 6.10694 605.595L5.70829 599.366C4.45102 599.572 3.51062 598.936 3.11708 597.766C2.36579 595.55 2.26357 591.172 3.01998 589.348C3.38796 588.469 4.21592 588.282 5.02343 587.665C5.44764 587.3 4.59923 585.438 4.36925 584.971C4.62479 582.67 4.45613 580.013 3.13753 578.442C0.980746 575.86 0.188563 569.219 2.1818 565.927C2.68777 565.094 3.83772 564.861 4.03704 564.056C4.23636 563.252 3.63328 561.344 3.77639 560.38C3.98593 558.959 4.57879 557.78 4.61457 556.704C4.70145 554.216 1.26184 553.056 2.23291 545.04C2.59067 542.085 4.32836 541.561 5.60607 540.626C5.51919 538.007 5.12565 534.742 5.76451 532.105C3.40329 529.925 2.21757 526.23 2.61622 521.797C2.76955 520.095 3.22441 518.981 3.8786 517.943C4.29258 517.288 5.26876 517.728 5.95361 517.532C6.84801 514.436 6.97067 507.907 5.39653 505.438C3.65372 502.688 1.37939 498.104 3.50551 494.466C4.69634 492.427 5.53963 490.659 5.5703 487.488C5.59585 484.747 4.34369 484.009 3.24997 482.007C1.50716 478.817 0.878529 472.373 2.10002 468.566C2.42201 467.565 3.95016 467.631 4.08304 466.761C4.24658 465.676 3.70994 464.001 3.71505 462.495C3.71505 460.606 4.65034 457.669 3.8786 455.667C2.21757 451.337 0.423663 447.773 2.20735 442.965C2.61622 441.861 4.23125 441.796 4.75256 440.739C6.3727 437.465 5.21254 432.442 3.83772 429.73C2.83088 427.738 2.86154 425.006 3.3113 422.696C3.6435 420.994 4.87011 420.526 5.9025 419.104C7.2211 417.28 6.85823 411.481 5.63163 409.676C4.20059 407.571 3.43907 406.393 3.49529 403.372C3.55151 400.622 3.91949 398.601 5.64696 397.021C5.38631 394.785 5.3812 390.988 4.33347 389.51C2.56511 387.003 1.16474 383.654 1.35895 379.445C1.5225 375.91 2.95354 374.535 4.47146 373.964C4.12904 371.598 4.00126 368.492 5.07454 366.275L2.81554 358.54C2.06936 355.977 1.91092 354.294 2.57022 352.03C3.10686 350.197 4.40502 349.869 5.35564 349.327C5.9485 346.745 6.08138 343.425 6.17849 340.544C3.99104 338.215 3.60262 334.455 4.29258 330.208L6.54647 328.104C6.07116 325.41 6.14782 322.8 6.0916 319.835C2.05914 316.43 0.950081 309.322 2.47823 305.356C2.91776 304.215 3.93482 303.41 5.01321 302.756C4.12392 296.507 5.65207 294.178 2.60089 287.07C1.44583 284.376 0.893862 283.3 0.919416 280.036C0.93986 277.295 2.16135 275.948 3.1733 274.143L3.60262 262.002C1.92626 260.59 1.1494 258.401 0.735425 256.035C0.321446 253.668 0.551435 249.749 1.74226 248.065C2.81554 246.55 3.66395 246.84 3.79683 243.725C3.99104 239.114 0.622987 237.767 2.54978 229.031L4.67079 226.375C4.43569 222.942 4.76789 220.145 5.23809 216.965C1.29251 211.596 0.00968383 202.532 2.29424 199.072C2.9842 198.024 4.05748 198.164 5.11543 198.117L4.78834 191.42C5.69296 186.977 4.90589 185.415 3.59751 182.357C2.28913 179.298 1.23118 169.524 2.77977 167.316C3.47484 166.325 4.34369 166.362 5.88206 166.306C4.83433 163.463 5.89228 159.534 5.84117 157.317C4.80878 153.061 2.39645 149.554 2.73377 144.466C2.95865 141.108 4.09837 138.863 6.06094 139.274C6.14271 136.758 6.4187 134.925 6.64869 132.624C7.11378 127.882 3.49018 127.339 2.80532 125.281C2.17158 123.364 2.89732 115.423 5.74407 115.731C5.03366 113.384 5.28409 111.083 4.99788 108.585C3.27552 104.152 0.433884 101.916 0.64854 97.0524C0.776312 94.1247 1.97225 91.8705 3.34196 90.4114C2.86154 86.7822 4.78322 83.6581 4.05237 77.3632C1.73715 75.7263 -0.107866 68.6924 1.7116 64.8949C2.52934 63.1832 3.5924 63.7818 3.69972 61.0132C3.86327 56.7947 2.19202 57.4682 2.08469 49.5083C2.04892 47.0577 3.85305 46.3468 4.24147 44.7661C5.72362 38.7424 3.62306 33.0928 1.53783 29.3047C0.438995 27.3124 0.64343 24.6653 0.791645 22.7572C0.985857 20.213 2.13069 20.1008 2.99442 18.6323C4.85478 15.4614 3.76616 10.1767 1.98759 7.81021C0.46455 5.78049 -0.148753 2.93701 0.0301271 0.0561213H7.18022L7.24155 0Z" fill="var(--fill-0, #520345)"/>
</svg>
