<svg preserveAspectRatio="none" width="100%" height="100%" overflow="visible" style="display: block;" viewBox="0 0 263 45.3251" fill="none" xmlns="http://www.w3.org/2000/svg">
<g id="Group 3201">
<path id="Vector" d="M247.501 45.3251L15.6101 45.3217C14.7879 45.3192 14.1549 44.7845 14.1555 44.0828L14.1586 39.6038C10.5883 38.7469 7.45393 36.9719 5.03307 34.5557C-0.0998742 29.4326 -1.40667 22.2006 1.57427 15.9149C3.80979 11.2009 8.43689 7.2452 14.2151 5.82983L14.2325 1.21769C14.2348 0.604416 14.8471 1.33514e-05 15.6169 1.33514e-05L247.289 0.00227527C248.142 -0.000868782 248.794 0.562748 248.795 1.28542L248.798 5.84604C250.593 6.25199 252.222 6.87146 253.734 7.74125C259.645 11.1402 263.081 16.8919 262.999 23.0522C262.922 28.7769 259.713 34.1289 254.3 37.3946C252.613 38.4124 250.812 39.158 248.777 39.59L248.759 44.1451C248.757 44.7346 248.257 45.2262 247.501 45.3251ZM247.19 44.4792C247.539 44.4968 247.781 44.3531 247.782 44.0859L247.787 38.944C249.461 38.6218 250.981 38.1268 252.455 37.3856C258.294 34.45 261.897 28.9935 262.013 23.1324C262.13 17.1774 258.782 11.5909 253.028 8.36026C251.445 7.47151 249.731 6.85491 247.833 6.50749L247.82 1.20404C247.819 1.019 247.514 0.841643 247.285 0.863559L15.7087 0.860656C15.394 0.892189 15.2102 1.04477 15.2102 1.27992L15.2098 6.49997C8.6395 7.8127 3.65568 12.5135 1.78253 18.0358C-0.83513 25.7531 3.18744 34.2881 11.5065 37.8314C12.6849 38.3332 13.8272 38.6904 15.1215 38.9358L15.1202 43.9247C15.1202 44.2459 15.2649 44.4776 15.7107 44.4776L247.19 44.4792Z" fill="var(--fill-0, #141414)"/>
<g id="Group">
<path id="Vector_2" d="M245.438 41.9922L17.6192 41.9923L17.5995 37.037C15.8027 36.7339 14.1181 36.2573 12.5069 35.4942C8.78869 33.6962 5.97461 30.8486 4.61894 27.3743C3.30402 23.9272 3.53842 20.2497 5.22836 16.9318C7.42499 12.5195 12.0808 9.33061 17.6339 8.45583L17.6438 3.3364H245.478L245.495 8.45389C249.157 8.97543 252.391 10.547 254.893 12.8524C257.972 15.7258 259.538 19.525 259.305 23.4325C259.255 25.3267 258.736 27.0755 257.846 28.7896C255.595 33.1242 250.994 36.2584 245.46 37.0406L245.438 41.9922ZM244.056 40.7609L244.055 36.0644L244.207 35.9537C251.925 35.2746 257.75 29.743 257.927 23.1123C258.113 16.1395 252.24 10.2377 244.101 9.50474L244.095 4.55758L19.0455 4.55758L19.0213 9.51482C12.8083 10.0772 7.71704 13.7883 5.89072 18.833C3.69151 24.9079 6.7314 31.4321 13.2957 34.4577C15.0483 35.2995 16.9821 35.7969 19.003 35.9762L19.0139 40.7613L244.056 40.7609Z" fill="var(--fill-0, #141414)"/>
<path id="Vector_3" d="M244.93 40.8942L19.0154 40.8952L19.0045 36.0576C16.9836 35.8763 15.0497 35.3734 13.2972 34.5225C6.73278 31.4635 3.69289 24.8677 5.8922 18.7262C7.71851 13.6261 12.8098 9.87423 19.0228 9.30571L19.047 4.29401L244.968 4.29362L244.975 9.29506C253.113 10.036 258.987 16.0026 258.801 23.0519C258.624 29.7554 252.799 35.3477 245.08 36.0343L244.928 36.1463L244.93 40.8942Z" fill="var(--fill-0, #141414)"/>
</g>
</g>
</svg>
