<svg preserveAspectRatio="none" width="100%" height="100%" overflow="visible" style="display: block;" viewBox="0 0 53 42" fill="none" xmlns="http://www.w3.org/2000/svg">
<path id="Vector" d="M32.0947 0.578125C32.3816 0.485407 32.6423 0.477773 32.8711 0.543945C33.0972 0.609403 33.3282 0.756805 33.543 1.03516C33.9903 1.61529 34.072 2.43538 33.8594 3.38672C33.6484 4.33058 33.1642 5.31829 32.6143 6.12695C30.5842 9.11204 27.7038 11.2746 24.8252 13.0225C21.4814 15.0528 18.0441 16.5738 14.4775 17.9004L14.6182 18.8682C16.0907 18.9685 17.4473 18.6839 18.7783 18.4727C19.5135 18.356 20.2329 18.1689 20.9092 18.0127C21.5972 17.8538 22.2596 17.721 22.9404 17.6875L39.2881 16.8828C40.5068 16.8229 41.5642 16.914 42.5127 17.5674C43.5271 18.2661 44.7686 18.9033 46.1758 18.4502C46.4765 18.3534 46.6123 18.3612 46.667 18.373C46.7038 18.3811 46.7411 18.3968 46.8242 18.4854C46.9976 18.6701 47.3151 19.1644 48.042 19.4355C49.0611 19.8157 50.0786 20.0187 51.1299 20.1328C51.4997 20.173 51.8573 20.2804 52.1152 20.4395C52.3697 20.5964 52.4792 20.7695 52.4961 20.9473C52.5193 21.1921 52.4221 21.3976 52.2031 21.5732C51.9717 21.7588 51.6172 21.8932 51.2148 21.9287C50.5559 21.9869 49.7236 22.0871 48.9473 22.3047C48.233 22.5049 47.4919 22.8241 46.9971 23.3711L46.9014 23.4834C46.7981 23.6128 46.7101 23.6886 46.6465 23.7227C46.6186 23.7376 46.6035 23.7398 46.5996 23.7402C46.5984 23.7404 46.5955 23.741 46.5859 23.7373C45.8435 23.4547 45.1935 23.4192 44.5938 23.5381C44.0082 23.6542 43.4968 23.9138 43.0332 24.1709C42.0801 24.6995 41.2888 25.2242 40.0986 25.1699L23.2803 24.4014C22.5092 24.3661 21.765 24.2281 21.002 24.0625C20.2506 23.8994 19.4582 23.704 18.6514 23.5732C17.3234 23.358 15.9875 23.0936 14.5273 23.1689L14.3867 24.1396C18.3583 25.5374 22.1848 27.3106 25.8428 29.7158C28.3311 31.352 30.9361 33.5494 32.5576 36.2939C33.0241 37.0835 33.3888 38.0451 33.5117 38.9365C33.6366 39.8426 33.5006 40.5753 33.1064 41.0254C32.8459 41.3228 32.6033 41.447 32.3926 41.4854C32.1794 41.5241 31.9382 41.486 31.6631 41.3486C31.0931 41.0638 30.4809 40.4038 29.9414 39.5342H29.9404C28.4752 37.173 26.8647 35.1167 24.9854 33.2432C20.5681 28.84 15.5054 25.7364 10.0313 24.001L10.0225 23.998L10.0137 23.9961L2.83398 22.0029L0.579102 21.1729C0.569178 21.1594 0.555651 21.1419 0.542969 21.1191C0.529516 21.0949 0.519475 21.0715 0.511719 21.0518C0.534223 21.0209 0.590844 20.9567 0.728516 20.8643C0.942898 20.7204 1.2568 20.5745 1.63477 20.4326C2.38777 20.1499 3.28392 19.924 3.9082 19.7578L9.16602 18.3574C14.1436 17.0323 18.7028 14.3292 22.8867 10.7715C25.7389 8.34606 28.1965 5.47017 30.3379 2.11621C30.8576 1.30221 31.5088 0.767599 32.0947 0.578125Z" fill="var(--fill-0, #F3EEE1)" stroke="var(--stroke-0, #F3EEE1)"/>
</svg>
