<svg width="1345" height="61" viewBox="0 0 1345 61" fill="none" xmlns="http://www.w3.org/2000/svg">
<g clip-path="url(#clip0_233_1879)">
<rect width="889" height="61" transform="translate(446)" fill="#FD6500"/>
<path d="M488.402 36L485.028 25.99H487.156L488.92 31.786C489.116 32.444 489.354 33.382 489.354 33.382H489.382C489.382 33.382 489.62 32.43 489.816 31.786L491.566 25.99H493.624L490.25 36H488.402ZM495.278 36V25.99H497.308V36H495.278ZM503.578 36.224C500.862 36.224 499.322 35.02 499.252 32.906H501.24C501.38 34.11 502.066 34.586 503.494 34.586C504.53 34.586 505.44 34.222 505.44 33.298C505.44 32.318 504.488 32.122 502.962 31.772C501.17 31.366 499.532 30.89 499.532 28.804C499.532 26.83 501.142 25.808 503.368 25.808C505.622 25.808 507.078 26.914 507.232 28.93H505.286C505.174 27.922 504.39 27.418 503.354 27.418C502.262 27.418 501.548 27.88 501.548 28.594C501.548 29.406 502.248 29.644 503.732 29.966C505.79 30.414 507.47 30.904 507.47 33.06C507.47 35.09 505.832 36.224 503.578 36.224ZM509.536 36V25.99H511.566V36H509.536ZM513.44 27.698V25.99H521.49V27.698H518.48V36H516.45V27.698H513.44ZM521.371 36L524.857 25.99H526.957L530.485 36H528.371L527.699 33.872H524.087L523.429 36H521.371ZM525.459 29.434L524.563 32.318H527.209L526.313 29.434C526.145 28.902 525.907 27.894 525.907 27.894H525.879C525.879 27.894 525.627 28.902 525.459 29.434ZM532.167 36V25.99H536.759C538.691 25.99 539.979 27.11 539.979 28.776C539.979 29.952 539.433 30.848 538.145 31.198V31.24C539.069 31.506 539.545 32.038 539.671 33.256C539.811 34.67 539.755 35.748 540.105 35.902V36H538.159C537.907 35.888 537.879 34.768 537.795 33.69C537.711 32.598 537.095 31.982 535.835 31.982H534.197V36H532.167ZM534.197 27.628V30.414H536.353C537.459 30.414 538.005 29.84 538.005 29.042C538.005 28.23 537.487 27.628 536.409 27.628H534.197Z" fill="#F3EEE1"/>
<path d="M579.77 36V25.99H587.134V27.698H581.8V29.938H586.476V31.604H581.8V34.306H587.176V36H579.77ZM588.62 36L591.854 30.764L588.858 25.99H591.14L592.988 29.154H593.016L594.864 25.99H597.076L594.136 30.75L597.454 36H595.088L593.044 32.346H593.016L590.944 36H588.62ZM599.182 36V25.99H603.578C604.74 25.99 605.608 26.326 606.196 26.928C606.756 27.502 607.092 28.286 607.092 29.21C607.092 31.1 605.846 32.374 603.746 32.374H601.282V36H599.182ZM601.282 27.754V30.722H603.382C604.446 30.722 605.006 30.134 605.006 29.224C605.006 28.286 604.418 27.754 603.41 27.754H601.282ZM613.469 36.224C610.515 36.224 608.639 34.012 608.639 31.016C608.639 28.02 610.515 25.794 613.469 25.794C616.423 25.794 618.285 28.02 618.285 31.016C618.285 34.012 616.423 36.224 613.469 36.224ZM613.483 34.558C615.317 34.558 616.213 33.004 616.213 31.016C616.213 29.014 615.317 27.46 613.483 27.46C611.649 27.46 610.711 29.014 610.711 31.016C610.711 33.004 611.649 34.558 613.483 34.558ZM624.113 36.224C621.397 36.224 619.857 35.02 619.787 32.906H621.775C621.915 34.11 622.601 34.586 624.029 34.586C625.065 34.586 625.975 34.222 625.975 33.298C625.975 32.318 625.023 32.122 623.497 31.772C621.705 31.366 620.067 30.89 620.067 28.804C620.067 26.83 621.677 25.808 623.903 25.808C626.157 25.808 627.613 26.914 627.767 28.93H625.821C625.709 27.922 624.925 27.418 623.889 27.418C622.797 27.418 622.083 27.88 622.083 28.594C622.083 29.406 622.783 29.644 624.267 29.966C626.325 30.414 628.005 30.904 628.005 33.06C628.005 35.09 626.367 36.224 624.113 36.224ZM630.072 36V25.99H632.102V36H630.072ZM638.876 36.21C636.062 36.21 634.06 34.04 634.06 31.03C634.06 28.062 635.908 25.794 638.862 25.794C641.326 25.794 642.782 27.264 642.992 29.168H640.976C640.794 28.16 640.038 27.502 638.862 27.502C637.014 27.502 636.132 29.042 636.132 31.03C636.132 33.074 637.196 34.544 638.876 34.544C640.066 34.544 640.906 33.83 641.032 32.78H643.02C642.964 33.662 642.586 34.516 641.914 35.146C641.228 35.79 640.262 36.21 638.876 36.21ZM644.918 36V25.99H646.948V36H644.918ZM653.736 36.224C650.782 36.224 648.906 34.012 648.906 31.016C648.906 28.02 650.782 25.794 653.736 25.794C656.69 25.794 658.552 28.02 658.552 31.016C658.552 34.012 656.69 36.224 653.736 36.224ZM653.75 34.558C655.584 34.558 656.48 33.004 656.48 31.016C656.48 29.014 655.584 27.46 653.75 27.46C651.916 27.46 650.978 29.014 650.978 31.016C650.978 33.004 651.916 34.558 653.75 34.558ZM660.502 36V25.99H662.56L665.892 31.576C666.214 32.122 666.592 32.976 666.592 32.976H666.62C666.62 32.976 666.564 31.94 666.564 31.24V25.99H668.566V36H666.606L663.19 30.47C662.868 29.938 662.476 29.084 662.476 29.084H662.448C662.448 29.084 662.504 30.134 662.504 30.834V36H660.502ZM670.94 36V25.99H678.304V27.698H672.97V29.938H677.646V31.604H672.97V34.306H678.346V36H670.94ZM684.257 36.224C681.541 36.224 680.001 35.02 679.931 32.906H681.919C682.059 34.11 682.745 34.586 684.173 34.586C685.209 34.586 686.119 34.222 686.119 33.298C686.119 32.318 685.167 32.122 683.641 31.772C681.849 31.366 680.211 30.89 680.211 28.804C680.211 26.83 681.821 25.808 684.047 25.808C686.301 25.808 687.757 26.914 687.911 28.93H685.965C685.853 27.922 685.069 27.418 684.033 27.418C682.941 27.418 682.227 27.88 682.227 28.594C682.227 29.406 682.927 29.644 684.411 29.966C686.469 30.414 688.149 30.904 688.149 33.06C688.149 35.09 686.511 36.224 684.257 36.224Z" fill="#F3EEE1"/>
<path d="M725.152 36.21C722.338 36.21 720.336 34.04 720.336 31.03C720.336 28.062 722.184 25.794 725.138 25.794C727.602 25.794 729.058 27.264 729.268 29.168H727.252C727.07 28.16 726.314 27.502 725.138 27.502C723.29 27.502 722.408 29.042 722.408 31.03C722.408 33.074 723.472 34.544 725.152 34.544C726.342 34.544 727.182 33.83 727.308 32.78H729.296C729.24 33.662 728.862 34.516 728.19 35.146C727.504 35.79 726.538 36.21 725.152 36.21ZM735.576 36.224C732.622 36.224 730.746 34.012 730.746 31.016C730.746 28.02 732.622 25.794 735.576 25.794C738.53 25.794 740.392 28.02 740.392 31.016C740.392 34.012 738.53 36.224 735.576 36.224ZM735.59 34.558C737.424 34.558 738.32 33.004 738.32 31.016C738.32 29.014 737.424 27.46 735.59 27.46C733.756 27.46 732.818 29.014 732.818 31.016C732.818 33.004 733.756 34.558 735.59 34.558ZM742.343 36V25.99H744.373V34.306H749.077V36H742.343ZM751.003 36V25.99H758.367V27.698H753.033V29.938H757.709V31.604H753.033V34.306H758.409V36H751.003ZM764.688 36.21C761.874 36.21 759.872 34.04 759.872 31.03C759.872 28.062 761.72 25.794 764.674 25.794C767.138 25.794 768.594 27.264 768.804 29.168H766.788C766.606 28.16 765.85 27.502 764.674 27.502C762.826 27.502 761.944 29.042 761.944 31.03C761.944 33.074 763.008 34.544 764.688 34.544C765.878 34.544 766.718 33.83 766.844 32.78H768.832C768.776 33.662 768.398 34.516 767.726 35.146C767.04 35.79 766.074 36.21 764.688 36.21ZM775.098 36.21C772.284 36.21 770.282 34.04 770.282 31.03C770.282 28.062 772.13 25.794 775.084 25.794C777.548 25.794 779.004 27.264 779.214 29.168H777.198C777.016 28.16 776.26 27.502 775.084 27.502C773.236 27.502 772.354 29.042 772.354 31.03C772.354 33.074 773.418 34.544 775.098 34.544C776.288 34.544 777.128 33.83 777.254 32.78H779.242C779.186 33.662 778.808 34.516 778.136 35.146C777.45 35.79 776.484 36.21 775.098 36.21ZM781.14 36V25.99H783.17V36H781.14ZM789.958 36.224C787.004 36.224 785.128 34.012 785.128 31.016C785.128 28.02 787.004 25.794 789.958 25.794C792.912 25.794 794.774 28.02 794.774 31.016C794.774 34.012 792.912 36.224 789.958 36.224ZM789.972 34.558C791.806 34.558 792.702 33.004 792.702 31.016C792.702 29.014 791.806 27.46 789.972 27.46C788.138 27.46 787.2 29.014 787.2 31.016C787.2 33.004 788.138 34.558 789.972 34.558ZM796.724 36V25.99H798.782L802.114 31.576C802.436 32.122 802.814 32.976 802.814 32.976H802.842C802.842 32.976 802.786 31.94 802.786 31.24V25.99H804.788V36H802.828L799.412 30.47C799.09 29.938 798.698 29.084 798.698 29.084H798.67C798.67 29.084 798.726 30.134 798.726 30.834V36H796.724ZM807.162 36V25.99H814.526V27.698H809.192V29.938H813.868V31.604H809.192V34.306H814.568V36H807.162ZM820.48 36.224C817.764 36.224 816.224 35.02 816.154 32.906H818.142C818.282 34.11 818.968 34.586 820.396 34.586C821.432 34.586 822.342 34.222 822.342 33.298C822.342 32.318 821.39 32.122 819.864 31.772C818.072 31.366 816.434 30.89 816.434 28.804C816.434 26.83 818.044 25.808 820.27 25.808C822.524 25.808 823.98 26.914 824.134 28.93H822.188C822.076 27.922 821.292 27.418 820.256 27.418C819.164 27.418 818.45 27.88 818.45 28.594C818.45 29.406 819.15 29.644 820.634 29.966C822.692 30.414 824.372 30.904 824.372 33.06C824.372 35.09 822.734 36.224 820.48 36.224Z" fill="#141414"/>
<path d="M857.77 36V25.99H865.134V27.698H859.8V29.938H864.476V31.604H859.8V34.306H865.176V36H857.77ZM867.278 36V25.99H869.308V34.306H874.012V36H867.278ZM879.13 36V25.99H881.986L883.4 31.016C883.75 32.276 884.03 33.718 884.03 33.718H884.058C884.058 33.718 884.324 32.276 884.674 31.016L886.088 25.99H888.986V36H887.096V30.26C887.096 29.448 887.18 28.188 887.18 28.188H887.152C887.152 28.188 886.928 29.364 886.718 30.092L884.996 36H883.05L881.37 30.092C881.16 29.364 880.936 28.188 880.936 28.188H880.908C880.908 28.188 880.992 29.448 880.992 30.26V36H879.13ZM895.236 36.168C892.646 36.168 891.288 34.95 891.288 32.78V25.99H893.318V32.78C893.318 33.816 893.836 34.544 895.194 34.544C896.482 34.544 897.084 33.788 897.084 32.752V25.99H899.114V32.78C899.114 34.922 897.798 36.168 895.236 36.168ZM905.36 36.224C902.644 36.224 901.104 35.02 901.034 32.906H903.022C903.162 34.11 903.848 34.586 905.276 34.586C906.312 34.586 907.222 34.222 907.222 33.298C907.222 32.318 906.27 32.122 904.744 31.772C902.952 31.366 901.314 30.89 901.314 28.804C901.314 26.83 902.924 25.808 905.15 25.808C907.404 25.808 908.86 26.914 909.014 28.93H907.068C906.956 27.922 906.172 27.418 905.136 27.418C904.044 27.418 903.33 27.88 903.33 28.594C903.33 29.406 904.03 29.644 905.514 29.966C907.572 30.414 909.252 30.904 909.252 33.06C909.252 35.09 907.614 36.224 905.36 36.224ZM911.304 36V25.99H918.668V27.698H913.334V29.938H918.01V31.604H913.334V34.306H918.71V36H911.304ZM925.003 36.224C922.049 36.224 920.173 34.012 920.173 31.016C920.173 28.02 922.049 25.794 925.003 25.794C927.957 25.794 929.819 28.02 929.819 31.016C929.819 34.012 927.957 36.224 925.003 36.224ZM925.017 34.558C926.851 34.558 927.747 33.004 927.747 31.016C927.747 29.014 926.851 27.46 925.017 27.46C923.183 27.46 922.245 29.014 922.245 31.016C922.245 33.004 923.183 34.558 925.017 34.558Z" fill="#F3EEE1"/>
<path d="M967.042 36L970.528 25.99H972.628L976.156 36H974.042L973.37 33.872H969.758L969.1 36H967.042ZM971.13 29.434L970.234 32.318H972.88L971.984 29.434C971.816 28.902 971.578 27.894 971.578 27.894H971.55C971.55 27.894 971.298 28.902 971.13 29.434ZM984.614 36L984.544 34.656H984.516C983.83 35.804 982.892 36.21 981.702 36.21C980.19 36.21 979.014 35.664 978.188 34.754C977.362 33.83 976.886 32.542 976.886 31.03C976.886 29.364 977.474 27.908 978.524 26.942C979.336 26.2 980.4 25.794 981.744 25.794C984.264 25.794 985.706 27.18 986.028 29.14H984.04C983.816 28.174 983.074 27.474 981.786 27.474C979.896 27.474 978.958 29.042 978.958 31.03C978.958 33.074 980.036 34.572 981.758 34.572C983.312 34.572 984.334 33.41 984.334 32.304V32.248H981.926V30.68H986.14V36H984.614ZM988.399 36V25.99H995.763V27.698H990.429V29.938H995.105V31.604H990.429V34.306H995.805V36H988.399ZM997.907 36V25.99H999.965L1003.3 31.576C1003.62 32.122 1004 32.976 1004 32.976H1004.03C1004.03 32.976 1003.97 31.94 1003.97 31.24V25.99H1005.97V36H1004.01L1000.6 30.47C1000.27 29.938 999.881 29.084 999.881 29.084H999.853C999.853 29.084 999.909 30.134 999.909 30.834V36H997.907ZM1008.34 36V25.99H1012.25C1014.92 25.99 1016.65 28.146 1016.65 31.1C1016.65 32.724 1016.1 34.152 1015.05 35.034C1014.31 35.65 1013.34 36 1012.08 36H1008.34ZM1010.37 34.25H1011.94C1013.85 34.25 1014.59 33.088 1014.59 31.1C1014.59 29.112 1013.72 27.726 1012 27.726H1010.37V34.25ZM1017.3 36L1020.79 25.99H1022.89L1026.42 36H1024.3L1023.63 33.872H1020.02L1019.36 36H1017.3ZM1021.39 29.434L1020.49 32.318H1023.14L1022.24 29.434C1022.08 28.902 1021.84 27.894 1021.84 27.894H1021.81C1021.81 27.894 1021.56 28.902 1021.39 29.434Z" fill="#F3EEE1"/>
<rect x="1120" y="14" width="110" height="32" rx="2" fill="#141414"/>
<path d="M1137.25 36V25.99H1144.61V27.698H1139.28V29.938H1143.96V31.604H1139.28V34.306H1144.66V36H1137.25ZM1146.76 36V25.99H1148.82L1152.15 31.576C1152.47 32.122 1152.85 32.976 1152.85 32.976H1152.88C1152.88 32.976 1152.82 31.94 1152.82 31.24V25.99H1154.82V36H1152.86L1149.45 30.47C1149.12 29.938 1148.73 29.084 1148.73 29.084H1148.7C1148.7 29.084 1148.76 30.134 1148.76 30.834V36H1146.76ZM1156.68 27.698V25.99H1164.73V27.698H1161.72V36H1159.69V27.698H1156.68ZM1166.59 36V25.99H1171.19C1173.12 25.99 1174.41 27.11 1174.41 28.776C1174.41 29.952 1173.86 30.848 1172.57 31.198V31.24C1173.5 31.506 1173.97 32.038 1174.1 33.256C1174.24 34.67 1174.18 35.748 1174.53 35.902V36H1172.59C1172.33 35.888 1172.31 34.768 1172.22 33.69C1172.14 32.598 1171.52 31.982 1170.26 31.982H1168.62V36H1166.59ZM1168.62 27.628V30.414H1170.78C1171.89 30.414 1172.43 29.84 1172.43 29.042C1172.43 28.23 1171.91 27.628 1170.84 27.628H1168.62ZM1175.89 36L1179.38 25.99H1181.48L1185.01 36H1182.89L1182.22 33.872H1178.61L1177.95 36H1175.89ZM1179.98 29.434L1179.09 32.318H1181.73L1180.84 29.434C1180.67 28.902 1180.43 27.894 1180.43 27.894H1180.4C1180.4 27.894 1180.15 28.902 1179.98 29.434ZM1186.69 36V25.99H1190.6C1193.27 25.99 1194.99 28.146 1194.99 31.1C1194.99 32.724 1194.45 34.152 1193.4 35.034C1192.65 35.65 1191.69 36 1190.43 36H1186.69ZM1188.72 34.25H1190.29C1192.19 34.25 1192.93 33.088 1192.93 31.1C1192.93 29.112 1192.07 27.726 1190.34 27.726H1188.72V34.25ZM1195.65 36L1199.13 25.99H1201.23L1204.76 36H1202.65L1201.98 33.872H1198.36L1197.71 36H1195.65ZM1199.74 29.434L1198.84 32.318H1201.49L1200.59 29.434C1200.42 28.902 1200.18 27.894 1200.18 27.894H1200.16C1200.16 27.894 1199.9 28.902 1199.74 29.434ZM1210.19 36.224C1207.47 36.224 1205.93 35.02 1205.86 32.906H1207.85C1207.99 34.11 1208.67 34.586 1210.1 34.586C1211.14 34.586 1212.05 34.222 1212.05 33.298C1212.05 32.318 1211.1 32.122 1209.57 31.772C1207.78 31.366 1206.14 30.89 1206.14 28.804C1206.14 26.83 1207.75 25.808 1209.98 25.808C1212.23 25.808 1213.69 26.914 1213.84 28.93H1211.89C1211.78 27.922 1211 27.418 1209.96 27.418C1208.87 27.418 1208.16 27.88 1208.16 28.594C1208.16 29.406 1208.86 29.644 1210.34 29.966C1212.4 30.414 1214.08 30.904 1214.08 33.06C1214.08 35.09 1212.44 36.224 1210.19 36.224Z" fill="#F3EEE1"/>
<path d="M1284.85 20.0659C1289.33 19.4837 1292.97 22.8357 1293.54 27.0957C1294.15 31.6185 1291.02 35.7231 1286.95 36.3217C1282.58 36.9636 1278.76 33.8607 1278.1 29.5161C1277.42 24.998 1280.33 20.6534 1284.85 20.0659ZM1284.86 21.3821C1281.07 21.978 1278.71 25.6923 1279.35 29.4679C1279.95 33.0088 1283.25 35.5988 1286.75 35.0346C1290.27 34.4672 1292.78 31.057 1292.31 27.3104C1291.85 23.666 1288.66 20.7851 1284.86 21.3821Z" fill="#F3EEE1"/>
<path d="M1296.09 40.0001L1291.96 35.6597L1292.83 34.7222L1296.97 39.0599L1296.09 40.0001Z" fill="#F3EEE1"/>
</g>
<path d="M61 30.5C61 22.4109 57.7866 14.6531 52.0668 8.93324C46.3469 3.21338 38.5891 0 30.5 0C22.4109 0 14.6531 3.21338 8.93324 8.93324C3.21338 14.6531 0 22.4109 0 30.5C0 38.5891 3.21338 46.3469 8.93324 52.0668C14.6531 57.7866 22.4109 61 30.5 61C38.5891 61 46.3469 57.7866 52.0668 52.0668C57.7866 46.3469 61 38.5891 61 30.5Z" fill="#FD6500"/>
<path d="M48.2891 41.4723H12.081V39.871H48.2891V41.4723ZM48.2891 38.8142H44.2524V37.2435H48.2891V38.8142ZM48.2891 36.3818H46.7183V26.8353H48.2891V36.3818ZM45.8216 36.3818H44.2509V26.8353H45.8216V36.3818ZM36.8485 30.0622V30.0272C36.8485 29.1806 37.1848 28.3688 37.7834 27.7702C38.382 27.1716 39.1938 26.8353 40.0404 26.8353C40.8869 26.8353 41.6987 27.1716 42.2973 27.7702C42.8959 28.3688 43.2322 29.1806 43.2322 30.0272V38.8142H36.8485V30.0622ZM35.9122 38.8142H34.3064V37.2435H35.9076L35.9122 38.8142ZM34.3064 26.8353H35.8771V36.3818H34.3064V26.8353ZM26.9864 30.0622V30.0272C26.9864 29.1806 27.3226 28.3688 27.9212 27.7702C28.5198 27.1716 29.3317 26.8353 30.1782 26.8353C31.0247 26.8353 31.8366 27.1716 32.4351 27.7702C33.0337 28.3688 33.37 29.1806 33.37 30.0272V38.8142H26.9864V30.0622ZM26.0881 38.8142H24.4915V37.2435H26.0927L26.0881 38.8142ZM24.4899 26.8353H26.0607V36.3818H24.4899V26.8353ZM17.0129 30.0622V30.0272C17.0129 29.1806 17.3491 28.3688 17.9477 27.7702C18.5463 27.1716 19.3582 26.8353 20.2047 26.8353C21.0512 26.8353 21.8631 27.1716 22.4616 27.7702C23.0602 28.3688 23.3965 29.1806 23.3965 30.0272V38.8142H17.0129V30.0622ZM48.2845 25.8273H12.081V20.3846H48.2891L48.2845 25.8273ZM12.0749 26.8353H13.6457V36.3818H12.0749V26.8353ZM14.5424 26.8353H16.1131V36.3818H14.5424V26.8353ZM12.0749 37.2435H16.1131V38.8142H12.0749V37.2435Z" fill="#141414"/>
<path d="M61 30.5C61 22.4109 57.7866 14.6531 52.0668 8.93324C46.3469 3.21338 38.5891 0 30.5 0C22.4109 0 14.6531 3.21338 8.93324 8.93324C3.21338 14.6531 0 22.4109 0 30.5C0 38.5891 3.21338 46.3469 8.93324 52.0668C14.6531 57.7866 22.4109 61 30.5 61C38.5891 61 46.3469 57.7866 52.0668 52.0668C57.7866 46.3469 61 38.5891 61 30.5Z" fill="#FD6500"/>
<path d="M48.2891 41.4723H12.081V39.871H48.2891V41.4723ZM48.2891 38.8142H44.2524V37.2435H48.2891V38.8142ZM48.2891 36.3818H46.7183V26.8353H48.2891V36.3818ZM45.8216 36.3818H44.2509V26.8353H45.8216V36.3818ZM36.8485 30.0622V30.0272C36.8485 29.1806 37.1848 28.3688 37.7834 27.7702C38.382 27.1716 39.1938 26.8353 40.0404 26.8353C40.8869 26.8353 41.6987 27.1716 42.2973 27.7702C42.8959 28.3688 43.2322 29.1806 43.2322 30.0272V38.8142H36.8485V30.0622ZM35.9122 38.8142H34.3064V37.2435H35.9076L35.9122 38.8142ZM34.3064 26.8353H35.8771V36.3818H34.3064V26.8353ZM26.9864 30.0622V30.0272C26.9864 29.1806 27.3226 28.3688 27.9212 27.7702C28.5198 27.1716 29.3317 26.8353 30.1782 26.8353C31.0247 26.8353 31.8366 27.1716 32.4351 27.7702C33.0337 28.3688 33.37 29.1806 33.37 30.0272V38.8142H26.9864V30.0622ZM26.0881 38.8142H24.4915V37.2435H26.0927L26.0881 38.8142ZM24.4899 26.8353H26.0607V36.3818H24.4899V26.8353ZM17.0129 30.0622V30.0272C17.0129 29.1806 17.3491 28.3688 17.9477 27.7702C18.5463 27.1716 19.3582 26.8353 20.2047 26.8353C21.0512 26.8353 21.8631 27.1716 22.4616 27.7702C23.0602 28.3688 23.3965 29.1806 23.3965 30.0272V38.8142H17.0129V30.0622ZM48.2845 25.8273H12.081V20.3846H48.2891L48.2845 25.8273ZM12.0749 26.8353H13.6457V36.3818H12.0749V26.8353ZM14.5424 26.8353H16.1131V36.3818H14.5424V26.8353ZM12.0749 37.2435H16.1131V38.8142H12.0749V37.2435Z" fill="#141414"/>
<defs>
<clipPath id="clip0_233_1879">
<rect width="889" height="61" fill="white" transform="translate(446)"/>
</clipPath>
</defs>
</svg>
