<svg width="1310" height="451" viewBox="0 0 1310 451" fill="none" xmlns="http://www.w3.org/2000/svg">
<path d="M552.611 28.896L544.035 69.216C542.947 74.4 544.227 75.616 548.579 75.616L548.515 76H533.154L533.218 75.616C537.571 75.616 539.747 74.4 540.835 69.216L547.491 37.92C545.187 39.264 542.115 40.352 539.299 40.8L539.363 40.416C546.019 37.984 549.027 34.528 552.227 28.896H552.611ZM556.373 37.664L559.189 29.408H585.365V29.664C573.845 44.512 563.221 60.448 560.469 76H556.245C560.789 60.64 570.773 46.24 582.357 32.48H567.573C560.533 32.48 559.829 32.8 556.757 37.664H556.373ZM596.298 28.896L587.722 69.216C586.634 74.4 587.914 75.616 592.266 75.616L592.202 76H576.842L576.906 75.616C581.258 75.616 583.434 74.4 584.522 69.216L591.178 37.92C588.874 39.264 585.802 40.352 582.986 40.8L583.05 40.416C589.706 37.984 592.714 34.528 595.914 28.896H596.298ZM619.606 33.504C616.406 33.504 612.885 32.992 608.918 32.16L604.566 45.728L608.982 46.624C617.494 48.352 622.934 53.408 622.934 60.384C622.934 69.088 615.51 76.768 605.206 76.768C601.622 76.768 596.438 75.808 594.837 74.656L597.142 67.296H597.526C596.886 72.608 600.214 75.872 605.91 75.872C613.59 75.872 619.798 69.856 619.798 62.624C619.798 56.352 615.062 51.68 606.998 50.016L602.326 49.056L608.854 28.64C613.846 29.792 618.262 30.048 620.822 30.048C625.43 30.048 627.99 29.216 629.333 28.256H629.718C627.67 32.096 624.214 33.504 619.606 33.504ZM653.585 57.952H640.593L641.105 55.904H654.097L653.585 57.952ZM686.423 28.896L677.847 69.216C676.759 74.4 678.039 75.616 682.391 75.616L682.327 76H666.967L667.031 75.616C671.383 75.616 673.559 74.4 674.647 69.216L681.303 37.92C678.999 39.264 675.927 40.352 673.111 40.8L673.175 40.416C679.831 37.984 682.839 34.528 686.039 28.896H686.423ZM690.186 37.664L693.002 29.408H719.178V29.664C707.658 44.512 697.034 60.448 694.282 76H690.058C694.602 60.64 704.586 46.24 716.17 32.48H701.385C694.345 32.48 693.642 32.8 690.57 37.664H690.186ZM732.241 51.168L733.073 51.616C735.889 53.216 741.457 56.416 741.457 62.816C741.457 70.048 734.801 76.768 725.201 76.768C718.097 76.768 712.273 73.12 712.273 66.016C712.273 58.464 718.801 54.56 726.417 52C723.345 50.08 719.76 46.752 719.76 41.632C719.76 34.464 726.161 28.64 733.841 28.64C739.729 28.64 744.593 32.096 744.593 38.24C744.593 44.96 738.833 48.864 732.241 51.168ZM722.833 40.288C722.833 45.6 727.505 48.48 730.001 49.888L731.537 50.72C737.617 47.904 741.777 43.616 741.777 37.664C741.777 32.928 739.089 29.536 733.905 29.536C727.441 29.536 722.833 34.72 722.833 40.288ZM725.393 75.872C733.265 75.872 738.321 70.432 738.321 64.352C738.321 58.912 733.905 56.288 730.641 54.432L727.569 52.704L727.121 52.448C720.273 55.136 715.153 59.808 715.153 66.592C715.153 72.928 719.569 75.872 725.393 75.872ZM764.928 28.64C770.944 28.64 776 32.416 776 42.208C776 55.136 767.104 70.624 749.76 76.768L749.632 76.384C760.896 71.84 768.576 61.344 771.328 50.272C768.896 53.92 764.288 57.312 758.656 57.312C752.64 57.312 748.288 53.344 748.288 46.432C748.288 37.472 755.648 28.64 764.928 28.64ZM760.576 55.008C765.248 55.008 769.408 52.128 771.712 48.608C772.16 46.24 772.416 43.808 772.416 41.44C772.416 32.8 769.088 29.536 764.48 29.536C757.056 29.536 752.064 38.176 752.064 45.472C752.064 51.104 755.072 55.008 760.576 55.008Z" fill="#141414"/>
<path d="M266.121 407L270.537 384.12H277.705C283.881 384.12 286.761 387.704 286.761 393.24C286.761 400.664 282.569 407 274.345 407H266.121ZM269.417 404.504H274.281C280.809 404.504 283.849 399.608 283.849 393.432C283.849 389.272 282.057 386.584 277.545 386.584H272.873L269.417 404.504ZM302.977 399.352H290.657C290.625 399.672 290.625 399.96 290.625 400.28C290.625 403.224 292.161 405.304 295.201 405.304C297.345 405.304 299.137 404.056 299.873 401.88H302.369C301.089 405.592 298.369 407.448 294.945 407.448C291.105 407.448 288.033 404.76 288.033 400.248C288.033 394.648 291.777 390.04 296.641 390.04C298.401 390.04 299.777 390.488 300.801 391.256C302.881 392.824 303.521 395.8 302.977 399.352ZM296.545 392.056C293.633 392.056 291.649 394.264 290.913 397.4H300.545C300.865 394.328 299.585 392.056 296.545 392.056ZM303.99 407L308.406 384.12H310.966L306.55 407H303.99ZM320.966 390.456L320.454 393.08H320.518C321.766 391.352 323.366 390.264 325.254 390.264C326.054 390.264 326.31 390.328 326.598 390.456L326.118 392.92H326.022C325.67 392.792 325.35 392.76 324.838 392.76C322.342 392.76 320.102 394.744 319.43 398.264L317.766 407H315.206L318.406 390.456H320.966ZM340.946 399.352H328.626C328.594 399.672 328.594 399.96 328.594 400.28C328.594 403.224 330.13 405.304 333.17 405.304C335.314 405.304 337.106 404.056 337.842 401.88H340.338C339.058 405.592 336.338 407.448 332.914 407.448C329.074 407.448 326.002 404.76 326.002 400.248C326.002 394.648 329.746 390.04 334.61 390.04C336.37 390.04 337.746 390.488 338.77 391.256C340.85 392.824 341.49 395.8 340.946 399.352ZM334.514 392.056C331.602 392.056 329.618 394.264 328.882 397.4H338.514C338.834 394.328 337.554 392.056 334.514 392.056ZM341.862 407L345.062 390.456H347.622L344.422 407H341.862ZM345.67 387.32L346.278 384.12H348.838L348.23 387.32H345.67ZM353.654 390.456L353.174 393.016H353.238C354.614 391.224 356.854 390.072 359.318 390.072C362.582 390.072 363.958 392.088 363.35 395.32L361.078 407H358.55L360.822 395.32C361.206 393.272 360.63 392.216 358.646 392.216C355.606 392.216 352.822 394.776 352.246 397.72L350.454 407H347.894L351.094 390.456H353.654ZM377.098 407.16C375.338 407.16 374.826 406.104 374.794 404.888H374.762C373.674 406.296 371.882 407.32 369.546 407.32C366.25 407.32 364.394 405.144 364.394 402.648C364.394 398.424 367.626 397.56 370.922 397.368C375.466 397.112 376.554 396.824 376.554 394.68C376.554 392.632 374.954 392.152 373.162 392.12C370.474 392.088 368.938 393.016 368.49 395.448H365.898C366.474 392.152 369.066 390.104 373.354 390.104C376.554 390.104 379.562 391.608 378.762 395.736L377.258 403.384C377.034 404.6 377.162 405.368 378.698 405.08H378.794L378.41 406.936C378.09 407.032 377.706 407.16 377.098 407.16ZM366.986 402.456C366.986 404.184 368.106 405.336 370.09 405.336C373.29 405.336 374.986 403.128 375.466 400.696L375.914 398.424C374.89 399 373.578 399.096 370.826 399.32C369.546 399.416 366.986 399.608 366.986 402.456ZM387.024 407.48C383.28 407.48 380.72 404.984 380.752 400.568C380.784 395.736 383.76 390.072 389.456 390.072C391.632 390.072 393.232 391.064 394.256 392.984H394.32L396.016 384.12H398.576L394.16 407H391.6L391.952 405.208H391.888C390.64 406.616 389.04 407.48 387.024 407.48ZM383.344 400.44C383.344 403.032 384.4 405.336 387.376 405.336C391.6 405.336 393.488 400.888 393.488 396.792C393.488 394.264 392.048 392.248 389.36 392.248C385.296 392.248 383.344 396.952 383.344 400.44ZM405.196 407.448C401.26 407.448 398.22 404.856 398.22 400.216C398.22 394.84 401.516 390.04 406.956 390.04C410.956 390.04 413.9 392.824 413.9 397.336C413.9 402.584 410.828 407.448 405.196 407.448ZM400.78 400.184C400.78 403.096 402.284 405.304 405.292 405.304C409.228 405.304 411.308 401.56 411.308 397.336C411.308 394.584 409.964 392.152 406.892 392.152C402.828 392.152 400.78 396.088 400.78 400.184ZM426.742 407.48C422.998 407.48 420.438 404.984 420.47 400.568C420.502 395.736 423.478 390.072 429.174 390.072C431.35 390.072 432.95 391.064 433.974 392.984H434.038L435.734 384.12H438.294L433.878 407H431.318L431.67 405.208H431.606C430.358 406.616 428.758 407.48 426.742 407.48ZM423.062 400.44C423.062 403.032 424.118 405.336 427.094 405.336C431.318 405.336 433.206 400.888 433.206 396.792C433.206 394.264 431.766 392.248 429.078 392.248C425.014 392.248 423.062 396.952 423.062 400.44ZM452.883 399.352H440.563C440.531 399.672 440.531 399.96 440.531 400.28C440.531 403.224 442.067 405.304 445.107 405.304C447.251 405.304 449.043 404.056 449.779 401.88H452.275C450.995 405.592 448.275 407.448 444.851 407.448C441.011 407.448 437.939 404.76 437.939 400.248C437.939 394.648 441.683 390.04 446.547 390.04C448.307 390.04 449.683 390.488 450.707 391.256C452.787 392.824 453.427 395.8 452.883 399.352ZM446.451 392.056C443.539 392.056 441.555 394.264 440.819 397.4H450.451C450.771 394.328 449.491 392.056 446.451 392.056ZM459.278 407L463.694 384.12H466.51L462.606 404.376H474.094L473.582 407H459.278ZM485.787 407L486.203 404.696H486.139C484.795 406.296 483.003 407.384 480.571 407.384C477.339 407.384 475.803 405.336 476.443 401.976L478.683 390.456H481.211L478.971 401.944C478.523 404.216 479.163 405.24 481.179 405.24C484.123 405.24 486.587 402.776 487.195 399.704L488.987 390.456H491.547L488.347 407H485.787ZM491.8 407L495 390.456H497.56L494.36 407H491.8ZM495.608 387.32L496.216 384.12H498.776L498.168 387.32H495.608ZM504.519 407.48C500.935 407.48 497.639 405.656 497.639 401.624H500.103C500.167 404.088 501.831 405.368 504.711 405.368C506.471 405.368 508.455 404.728 508.455 402.392C508.455 401.08 507.335 400.504 504.647 399.448C501.927 398.392 499.687 397.432 499.687 394.584C499.687 391.704 502.087 390.104 505.415 390.104C508.743 390.104 511.527 391.576 511.751 395.288H509.255C508.999 393.016 507.495 392.088 505.415 392.088C503.719 392.088 502.087 392.6 502.087 394.456C502.087 395.8 503.239 396.312 505.895 397.368C508.807 398.52 510.951 399.48 510.951 402.328C510.951 405.912 507.911 407.48 504.519 407.48ZM516.425 407L525.865 395.128L520.553 384.12H523.721L527.817 393.208H527.881L534.857 384.12H537.961L529.001 395.48L534.569 407H531.433L527.113 397.336H527.049L519.593 407H516.425ZM542.798 407L538.958 384.12H541.87L544.462 401.144C544.622 402.2 544.814 404.216 544.814 404.216H544.878C544.878 404.216 545.806 402.168 546.35 401.144L554.798 384.12H557.806L545.902 407H542.798ZM573.098 407.16C571.338 407.16 570.826 406.104 570.794 404.888H570.762C569.674 406.296 567.882 407.32 565.546 407.32C562.25 407.32 560.394 405.144 560.394 402.648C560.394 398.424 563.626 397.56 566.922 397.368C571.466 397.112 572.554 396.824 572.554 394.68C572.554 392.632 570.954 392.152 569.162 392.12C566.474 392.088 564.938 393.016 564.49 395.448H561.898C562.474 392.152 565.066 390.104 569.354 390.104C572.554 390.104 575.562 391.608 574.762 395.736L573.258 403.384C573.034 404.6 573.162 405.368 574.698 405.08H574.794L574.41 406.936C574.09 407.032 573.706 407.16 573.098 407.16ZM562.986 402.456C562.986 404.184 564.106 405.336 566.09 405.336C569.29 405.336 570.986 403.128 571.466 400.696L571.914 398.424C570.89 399 569.578 399.096 566.826 399.32C565.546 399.416 562.986 399.608 562.986 402.456ZM576.396 407L580.812 384.12H583.372L578.956 407H576.396ZM603.164 399.352H590.844C590.812 399.672 590.812 399.96 590.812 400.28C590.812 403.224 592.348 405.304 595.388 405.304C597.532 405.304 599.324 404.056 600.06 401.88H602.556C601.276 405.592 598.556 407.448 595.132 407.448C591.292 407.448 588.22 404.76 588.22 400.248C588.22 394.648 591.964 390.04 596.828 390.04C598.588 390.04 599.964 390.488 600.988 391.256C603.068 392.824 603.708 395.8 603.164 399.352ZM596.732 392.056C593.82 392.056 591.836 394.264 591.1 397.4H600.732C601.052 394.328 599.772 392.056 596.732 392.056ZM610.769 407.48C607.185 407.48 603.889 405.656 603.889 401.624H606.353C606.417 404.088 608.081 405.368 610.961 405.368C612.721 405.368 614.705 404.728 614.705 402.392C614.705 401.08 613.585 400.504 610.897 399.448C608.177 398.392 605.937 397.432 605.937 394.584C605.937 391.704 608.337 390.104 611.665 390.104C614.993 390.104 617.777 391.576 618.001 395.288H615.505C615.249 393.016 613.745 392.088 611.665 392.088C609.969 392.088 608.337 392.6 608.337 394.456C608.337 395.8 609.489 396.312 612.145 397.368C615.057 398.52 617.201 399.48 617.201 402.328C617.201 405.912 614.161 407.48 610.769 407.48ZM619.716 392.536L620.132 390.456H622.468L623.492 385.24H626.052L625.028 390.456H628.196L627.78 392.536H624.612L622.596 403.032C622.34 404.312 622.788 404.888 624.036 404.888C624.676 404.888 625.22 404.728 625.508 404.6H625.604L625.156 406.84C624.708 407 624.068 407.096 623.364 407.096C620.804 407.096 619.492 405.688 620.036 402.936L622.052 392.536H619.716ZM640.316 407.16C638.556 407.16 638.044 406.104 638.012 404.888H637.98C636.892 406.296 635.1 407.32 632.764 407.32C629.468 407.32 627.612 405.144 627.612 402.648C627.612 398.424 630.844 397.56 634.14 397.368C638.684 397.112 639.772 396.824 639.772 394.68C639.772 392.632 638.172 392.152 636.38 392.12C633.692 392.088 632.156 393.016 631.708 395.448H629.116C629.692 392.152 632.284 390.104 636.572 390.104C639.772 390.104 642.78 391.608 641.98 395.736L640.476 403.384C640.252 404.6 640.38 405.368 641.916 405.08H642.012L641.628 406.936C641.308 407.032 640.924 407.16 640.316 407.16ZM630.204 402.456C630.204 404.184 631.324 405.336 633.308 405.336C636.508 405.336 638.204 403.128 638.684 400.696L639.132 398.424C638.108 399 636.796 399.096 634.044 399.32C632.764 399.416 630.204 399.608 630.204 402.456ZM643.615 407L648.031 384.12H650.591L646.175 407H643.615ZM649.833 407L654.249 384.12H656.809L652.393 407H649.833ZM655.956 407L659.156 390.456H661.716L658.516 407H655.956ZM659.764 387.32L660.372 384.12H662.932L662.324 387.32H659.764ZM668.867 407.48C665.123 407.48 662.563 404.984 662.595 400.568C662.627 395.736 665.603 390.072 671.299 390.072C673.475 390.072 675.075 391.064 676.099 392.984H676.163L677.859 384.12H680.419L676.003 407H673.443L673.795 405.208H673.731C672.483 406.616 670.883 407.48 668.867 407.48ZM665.187 400.44C665.187 403.032 666.243 405.336 669.219 405.336C673.443 405.336 675.331 400.888 675.331 396.792C675.331 394.264 673.891 392.248 671.203 392.248C667.139 392.248 665.187 396.952 665.187 400.44ZM687.04 407.448C683.104 407.448 680.064 404.856 680.064 400.216C680.064 394.84 683.36 390.04 688.8 390.04C692.8 390.04 695.744 392.824 695.744 397.336C695.744 402.584 692.672 407.448 687.04 407.448ZM682.624 400.184C682.624 403.096 684.128 405.304 687.136 405.304C691.072 405.304 693.152 401.56 693.152 397.336C693.152 394.584 691.808 392.152 688.736 392.152C684.672 392.152 682.624 396.088 682.624 400.184ZM708.586 407.48C704.842 407.48 702.282 404.984 702.314 400.568C702.346 395.736 705.322 390.072 711.018 390.072C713.194 390.072 714.794 391.064 715.818 392.984H715.882L717.578 384.12H720.138L715.722 407H713.162L713.514 405.208H713.45C712.202 406.616 710.602 407.48 708.586 407.48ZM704.906 400.44C704.906 403.032 705.962 405.336 708.938 405.336C713.162 405.336 715.05 400.888 715.05 396.792C715.05 394.264 713.61 392.248 710.922 392.248C706.858 392.248 704.906 396.952 704.906 400.44ZM734.727 399.352H722.407C722.375 399.672 722.375 399.96 722.375 400.28C722.375 403.224 723.911 405.304 726.951 405.304C729.095 405.304 730.887 404.056 731.623 401.88H734.119C732.839 405.592 730.119 407.448 726.695 407.448C722.855 407.448 719.783 404.76 719.783 400.248C719.783 394.648 723.527 390.04 728.391 390.04C730.151 390.04 731.527 390.488 732.551 391.256C734.631 392.824 735.271 395.8 734.727 399.352ZM728.295 392.056C725.383 392.056 723.399 394.264 722.663 397.4H732.295C732.615 394.328 731.335 392.056 728.295 392.056ZM740.833 407L745.249 384.12H747.809L743.393 407H740.833ZM759.66 407.16C757.9 407.16 757.388 406.104 757.356 404.888H757.324C756.236 406.296 754.444 407.32 752.108 407.32C748.812 407.32 746.956 405.144 746.956 402.648C746.956 398.424 750.188 397.56 753.484 397.368C758.028 397.112 759.116 396.824 759.116 394.68C759.116 392.632 757.516 392.152 755.724 392.12C753.036 392.088 751.5 393.016 751.052 395.448H748.46C749.036 392.152 751.628 390.104 755.916 390.104C759.116 390.104 762.124 391.608 761.324 395.736L759.82 403.384C759.596 404.6 759.724 405.368 761.26 405.08H761.356L760.972 406.936C760.652 407.032 760.268 407.16 759.66 407.16ZM749.548 402.456C749.548 404.184 750.668 405.336 752.652 405.336C755.852 405.336 757.548 403.128 758.028 400.696L758.476 398.424C757.452 399 756.14 399.096 753.388 399.32C752.108 399.416 749.548 399.608 749.548 402.456ZM768.34 407L772.756 384.12H781.428C783.252 384.12 784.884 384.568 786.036 385.432C787.444 386.488 788.148 388.152 788.148 390.104C788.148 393.24 786.26 395.288 783.7 396.152V396.248C785.716 397.176 786.132 398.584 785.908 401.976C785.652 405.656 786.132 406.584 786.516 406.872V407H783.636C783.22 406.424 782.9 405.528 783.156 401.88C783.38 398.52 782.484 397.304 779.444 397.304H773.012L771.156 407H768.34ZM775.092 386.584L773.46 395H779.892C783.124 395 785.204 393.304 785.204 390.168C785.204 387.8 783.732 386.584 781.012 386.584H775.092ZM803.914 399.352H791.594C791.562 399.672 791.562 399.96 791.562 400.28C791.562 403.224 793.098 405.304 796.138 405.304C798.282 405.304 800.074 404.056 800.81 401.88H803.306C802.026 405.592 799.306 407.448 795.882 407.448C792.042 407.448 788.97 404.76 788.97 400.248C788.97 394.648 792.714 390.04 797.578 390.04C799.338 390.04 800.714 390.488 801.738 391.256C803.818 392.824 804.458 395.8 803.914 399.352ZM797.482 392.056C794.57 392.056 792.586 394.264 791.85 397.4H801.482C801.802 394.328 800.522 392.056 797.482 392.056ZM808.458 407L805.802 390.456H808.49L809.962 400.952C810.186 402.424 810.346 404.504 810.346 404.504H810.41C810.41 404.504 811.242 402.584 812.042 400.952L817.322 390.456H820.042L811.306 407H808.458ZM826.165 407.448C822.229 407.448 819.189 404.856 819.189 400.216C819.189 394.84 822.485 390.04 827.925 390.04C831.925 390.04 834.869 392.824 834.869 397.336C834.869 402.584 831.797 407.448 826.165 407.448ZM821.749 400.184C821.749 403.096 823.253 405.304 826.261 405.304C830.197 405.304 832.277 401.56 832.277 397.336C832.277 394.584 830.933 392.152 827.861 392.152C823.797 392.152 821.749 396.088 821.749 400.184ZM835.833 407L840.249 384.12H842.809L838.393 407H835.833ZM852.068 407L852.484 404.696H852.42C851.076 406.296 849.284 407.384 846.852 407.384C843.62 407.384 842.084 405.336 842.724 401.976L844.964 390.456H847.492L845.252 401.944C844.804 404.216 845.444 405.24 847.46 405.24C850.404 405.24 852.868 402.776 853.476 399.704L855.268 390.456H857.828L854.628 407H852.068ZM865.601 407.448C861.505 407.448 858.689 405.016 858.689 400.344C858.689 395.192 862.145 390.04 867.521 390.04C871.233 390.04 873.377 392.12 873.697 395.8H871.105C870.881 393.624 869.793 392.152 867.393 392.152C863.393 392.152 861.281 396.376 861.281 400.408C861.281 403.128 862.465 405.304 865.633 405.304C867.969 405.304 869.793 403.8 870.465 401.176H872.929C872.001 405.176 869.153 407.448 865.601 407.448ZM874.175 407L877.375 390.456H879.935L876.735 407H874.175ZM877.983 387.32L878.591 384.12H881.151L880.543 387.32H877.983ZM887.79 407.448C883.854 407.448 880.814 404.856 880.814 400.216C880.814 394.84 884.11 390.04 889.55 390.04C893.55 390.04 896.494 392.824 896.494 397.336C896.494 402.584 893.422 407.448 887.79 407.448ZM883.374 400.184C883.374 403.096 884.878 405.304 887.886 405.304C891.822 405.304 893.902 401.56 893.902 397.336C893.902 394.584 892.558 392.152 889.486 392.152C885.422 392.152 883.374 396.088 883.374 400.184ZM888.942 387.864L890.958 383.8H894.094L891.15 387.864H888.942ZM903.122 390.456L902.642 393.016H902.706C904.082 391.224 906.322 390.072 908.786 390.072C912.05 390.072 913.426 392.088 912.818 395.32L910.546 407H908.018L910.29 395.32C910.674 393.272 910.098 392.216 908.114 392.216C905.074 392.216 902.29 394.776 901.714 397.72L899.922 407H897.362L900.562 390.456H903.122ZM913.51 407L914.118 403.832H917.19L916.582 407H913.51ZM925.153 407L929.569 384.12H938.241C940.065 384.12 941.697 384.568 942.849 385.432C944.257 386.488 944.961 388.152 944.961 390.104C944.961 393.24 943.073 395.288 940.513 396.152V396.248C942.529 397.176 942.945 398.584 942.721 401.976C942.465 405.656 942.945 406.584 943.329 406.872V407H940.449C940.033 406.424 939.713 405.528 939.969 401.88C940.193 398.52 939.297 397.304 936.257 397.304H929.825L927.969 407H925.153ZM931.905 386.584L930.273 395H936.705C939.937 395 942.017 393.304 942.017 390.168C942.017 387.8 940.545 386.584 937.825 386.584H931.905ZM952.759 407.448C948.823 407.448 945.783 404.856 945.783 400.216C945.783 394.84 949.079 390.04 954.519 390.04C958.519 390.04 961.463 392.824 961.463 397.336C961.463 402.584 958.391 407.448 952.759 407.448ZM948.343 400.184C948.343 403.096 949.847 405.304 952.855 405.304C956.791 405.304 958.871 401.56 958.871 397.336C958.871 394.584 957.527 392.152 954.455 392.152C950.391 392.152 948.343 396.088 948.343 400.184ZM962.331 407L966.747 384.12H969.307L967.675 392.728H967.739C969.019 391.128 970.875 390.072 973.083 390.072C976.699 390.072 978.907 392.824 978.907 396.92C978.907 401.912 976.187 407.48 970.555 407.48C968.123 407.48 966.395 406.424 965.403 404.568H965.339L964.891 407H962.331ZM966.203 400.344C966.171 403.16 967.515 405.336 970.459 405.336C974.555 405.336 976.283 400.76 976.283 397.08C976.283 394.52 975.323 392.248 972.411 392.248C968.411 392.248 966.235 396.408 966.203 400.344ZM995.383 399.352H983.063C983.031 399.672 983.031 399.96 983.031 400.28C983.031 403.224 984.567 405.304 987.607 405.304C989.751 405.304 991.543 404.056 992.279 401.88H994.775C993.495 405.592 990.775 407.448 987.351 407.448C983.511 407.448 980.439 404.76 980.439 400.248C980.439 394.648 984.183 390.04 989.047 390.04C990.807 390.04 992.183 390.488 993.207 391.256C995.287 392.824 995.927 395.8 995.383 399.352ZM988.951 392.056C986.039 392.056 984.055 394.264 983.319 397.4H992.951C993.271 394.328 991.991 392.056 988.951 392.056ZM1014.1 407.16C1012.34 407.16 1011.83 406.104 1011.79 404.888H1011.76C1010.67 406.296 1008.88 407.32 1006.55 407.32C1003.25 407.32 1001.39 405.144 1001.39 402.648C1001.39 398.424 1004.63 397.56 1007.92 397.368C1012.47 397.112 1013.55 396.824 1013.55 394.68C1013.55 392.632 1011.95 392.152 1010.16 392.12C1007.47 392.088 1005.94 393.016 1005.49 395.448H1002.9C1003.47 392.152 1006.07 390.104 1010.35 390.104C1013.55 390.104 1016.56 391.608 1015.76 395.736L1014.26 403.384C1014.03 404.6 1014.16 405.368 1015.7 405.08H1015.79L1015.41 406.936C1015.09 407.032 1014.71 407.16 1014.1 407.16ZM1003.99 402.456C1003.99 404.184 1005.11 405.336 1007.09 405.336C1010.29 405.336 1011.99 403.128 1012.47 400.696L1012.91 398.424C1011.89 399 1010.58 399.096 1007.83 399.32C1006.55 399.416 1003.99 399.608 1003.99 402.456ZM1009.78 387.864L1007.54 383.8H1010.58L1011.92 387.864H1009.78ZM1022.49 407L1026.91 384.12H1029.47L1025.05 407H1022.49ZM1041.32 407.16C1039.56 407.16 1039.04 406.104 1039.01 404.888H1038.98C1037.89 406.296 1036.1 407.32 1033.76 407.32C1030.47 407.32 1028.61 405.144 1028.61 402.648C1028.61 398.424 1031.84 397.56 1035.14 397.368C1039.68 397.112 1040.77 396.824 1040.77 394.68C1040.77 392.632 1039.17 392.152 1037.38 392.12C1034.69 392.088 1033.16 393.016 1032.71 395.448H1030.12C1030.69 392.152 1033.28 390.104 1037.57 390.104C1040.77 390.104 1043.78 391.608 1042.98 395.736L1041.48 403.384C1041.25 404.6 1041.38 405.368 1042.92 405.08H1043.01L1042.63 406.936C1042.31 407.032 1041.92 407.16 1041.32 407.16ZM1031.2 402.456C1031.2 404.184 1032.32 405.336 1034.31 405.336C1037.51 405.336 1039.2 403.128 1039.68 400.696L1040.13 398.424C1039.11 399 1037.8 399.096 1035.04 399.32C1033.76 399.416 1031.2 399.608 1031.2 402.456ZM337.591 429.536L338.007 427.456H340.247L340.759 424.8C341.303 422.016 342.711 420.928 345.527 420.928C345.943 420.928 346.583 420.96 346.935 420.992L346.519 423.168C346.071 423.136 345.719 423.136 345.527 423.136C343.863 423.136 343.479 423.776 343.255 424.928L342.775 427.456H345.815L345.399 429.536H342.359L339.575 444H337.047L339.831 429.536H337.591ZM350.841 427.456L350.329 430.08H350.393C351.641 428.352 353.241 427.264 355.129 427.264C355.929 427.264 356.185 427.328 356.473 427.456L355.993 429.92H355.897C355.545 429.792 355.225 429.76 354.713 429.76C352.217 429.76 349.977 431.744 349.305 435.264L347.641 444H345.081L348.281 427.456H350.841ZM368.285 444.16C366.525 444.16 366.013 443.104 365.981 441.888H365.949C364.861 443.296 363.069 444.32 360.733 444.32C357.437 444.32 355.581 442.144 355.581 439.648C355.581 435.424 358.813 434.56 362.109 434.368C366.653 434.112 367.741 433.824 367.741 431.68C367.741 429.632 366.141 429.152 364.349 429.12C361.661 429.088 360.125 430.016 359.677 432.448H357.085C357.661 429.152 360.253 427.104 364.541 427.104C367.741 427.104 370.749 428.608 369.949 432.736L368.445 440.384C368.221 441.6 368.349 442.368 369.885 442.08H369.981L369.597 443.936C369.277 444.032 368.893 444.16 368.285 444.16ZM358.173 439.456C358.173 441.184 359.293 442.336 361.277 442.336C364.477 442.336 366.173 440.128 366.653 437.696L367.101 435.424C366.077 436 364.765 436.096 362.013 436.32C360.733 436.416 358.173 436.608 358.173 439.456ZM377.247 427.456L376.767 430.016H376.831C378.207 428.224 380.447 427.072 382.911 427.072C386.175 427.072 387.551 429.088 386.943 432.32L384.671 444H382.143L384.415 432.32C384.799 430.272 384.223 429.216 382.239 429.216C379.199 429.216 376.415 431.776 375.839 434.72L374.047 444H371.487L374.687 427.456H377.247ZM393.747 450.112C392.083 450.112 391.091 449.632 390.355 449.12L390.899 448.192C391.539 448.512 392.403 448.736 393.203 448.736C393.907 448.736 395.091 448.672 395.091 447.648C395.091 447.136 394.707 446.816 393.971 446.816C393.395 446.816 393.075 446.912 392.691 447.04L392.307 446.304L394.035 444.32C390.739 443.808 388.595 441.44 388.595 437.344C388.595 432.192 392.051 427.04 397.427 427.04C401.139 427.04 403.283 429.12 403.603 432.8H401.011C400.787 430.624 399.699 429.152 397.299 429.152C393.299 429.152 391.187 433.376 391.187 437.408C391.187 440.128 392.371 442.304 395.539 442.304C397.875 442.304 399.699 440.8 400.371 438.176H402.835C401.907 442.112 399.187 444.352 395.731 444.448L394.419 445.6V445.664C395.667 445.44 397.139 445.984 397.139 447.488C397.139 449.248 395.603 450.112 393.747 450.112ZM416.785 444.16C415.025 444.16 414.513 443.104 414.481 441.888H414.449C413.361 443.296 411.569 444.32 409.233 444.32C405.937 444.32 404.081 442.144 404.081 439.648C404.081 435.424 407.313 434.56 410.609 434.368C415.153 434.112 416.241 433.824 416.241 431.68C416.241 429.632 414.641 429.152 412.849 429.12C410.161 429.088 408.625 430.016 408.177 432.448H405.585C406.161 429.152 408.753 427.104 413.041 427.104C416.241 427.104 419.249 428.608 418.449 432.736L416.945 440.384C416.721 441.6 416.849 442.368 418.385 442.08H418.481L418.097 443.936C417.777 444.032 417.393 444.16 416.785 444.16ZM406.673 439.456C406.673 441.184 407.793 442.336 409.777 442.336C412.977 442.336 414.673 440.128 415.153 437.696L415.601 435.424C414.577 436 413.265 436.096 410.513 436.32C409.233 436.416 406.673 436.608 406.673 439.456ZM419.987 444L423.187 427.456H425.747L422.547 444H419.987ZM423.795 424.32L424.403 421.12H426.963L426.355 424.32H423.795ZM432.707 444.48C429.123 444.48 425.827 442.656 425.827 438.624H428.291C428.355 441.088 430.019 442.368 432.899 442.368C434.659 442.368 436.643 441.728 436.643 439.392C436.643 438.08 435.523 437.504 432.835 436.448C430.115 435.392 427.875 434.432 427.875 431.584C427.875 428.704 430.275 427.104 433.603 427.104C436.931 427.104 439.715 428.576 439.939 432.288H437.443C437.187 430.016 435.683 429.088 433.603 429.088C431.907 429.088 430.275 429.6 430.275 431.456C430.275 432.8 431.427 433.312 434.083 434.368C436.995 435.52 439.139 436.48 439.139 439.328C439.139 442.912 436.099 444.48 432.707 444.48ZM456.258 436.352H443.938C443.906 436.672 443.906 436.96 443.906 437.28C443.906 440.224 445.442 442.304 448.482 442.304C450.626 442.304 452.418 441.056 453.154 438.88H455.65C454.37 442.592 451.65 444.448 448.226 444.448C444.386 444.448 441.314 441.76 441.314 437.248C441.314 431.648 445.058 427.04 449.922 427.04C451.682 427.04 453.058 427.488 454.082 428.256C456.162 429.824 456.802 432.8 456.258 436.352ZM449.826 429.056C446.914 429.056 444.93 431.264 444.194 434.4H453.826C454.146 431.328 452.866 429.056 449.826 429.056ZM456.055 448.096L456.311 446.656C457.079 446.432 457.911 445.984 458.295 444H456.823L457.431 440.832H460.503L459.831 444.256C459.351 446.72 457.975 447.808 456.055 448.096ZM467.057 449.312L471.313 427.456H473.873L473.425 429.728H473.489C474.769 428.064 476.625 427.072 478.833 427.072C482.449 427.072 484.657 429.824 484.657 433.92C484.657 438.912 481.937 444.48 476.305 444.48C473.873 444.48 472.113 443.36 471.185 441.504H471.121L469.617 449.312H467.057ZM471.953 437.344C471.921 440.16 473.265 442.336 476.209 442.336C480.305 442.336 482.033 437.76 482.033 434.08C482.033 431.52 481.073 429.248 478.161 429.248C474.161 429.248 471.985 433.408 471.953 437.344ZM498.285 444.16C496.525 444.16 496.013 443.104 495.981 441.888H495.949C494.861 443.296 493.069 444.32 490.733 444.32C487.437 444.32 485.581 442.144 485.581 439.648C485.581 435.424 488.813 434.56 492.109 434.368C496.653 434.112 497.741 433.824 497.741 431.68C497.741 429.632 496.141 429.152 494.349 429.12C491.661 429.088 490.125 430.016 489.677 432.448H487.085C487.661 429.152 490.253 427.104 494.541 427.104C497.741 427.104 500.749 428.608 499.949 432.736L498.445 440.384C498.221 441.6 498.349 442.368 499.885 442.08H499.981L499.597 443.936C499.277 444.032 498.893 444.16 498.285 444.16ZM488.173 439.456C488.173 441.184 489.293 442.336 491.277 442.336C494.477 442.336 496.173 440.128 496.653 437.696L497.101 435.424C496.077 436 494.765 436.096 492.013 436.32C490.733 436.416 488.173 436.608 488.173 439.456ZM507.247 427.456L506.767 430.016H506.831C508.207 428.224 510.447 427.072 512.911 427.072C516.175 427.072 517.551 429.088 516.943 432.32L514.671 444H512.143L514.415 432.32C514.799 430.272 514.223 429.216 512.239 429.216C509.199 429.216 506.415 431.776 505.839 434.72L504.047 444H501.487L504.687 427.456H507.247ZM517.987 444L521.187 427.456H523.747L520.547 444H517.987ZM521.795 424.32L522.403 421.12H524.963L524.355 424.32H521.795ZM539.571 436.352H527.251C527.219 436.672 527.219 436.96 527.219 437.28C527.219 440.224 528.755 442.304 531.795 442.304C533.939 442.304 535.731 441.056 536.467 438.88H538.963C537.683 442.592 534.963 444.448 531.539 444.448C527.699 444.448 524.627 441.76 524.627 437.248C524.627 431.648 528.371 427.04 533.235 427.04C534.995 427.04 536.371 427.488 537.395 428.256C539.475 429.824 540.115 432.8 539.571 436.352ZM533.139 429.056C530.227 429.056 528.243 431.264 527.507 434.4H537.139C537.459 431.328 536.179 429.056 533.139 429.056ZM546.247 427.456L545.735 430.08H545.799C547.047 428.352 548.647 427.264 550.535 427.264C551.335 427.264 551.591 427.328 551.879 427.456L551.399 429.92H551.303C550.951 429.792 550.631 429.76 550.119 429.76C547.623 429.76 545.383 431.744 544.711 435.264L543.047 444H540.487L543.687 427.456H546.247ZM547.961 448.096L548.217 446.656C548.985 446.432 549.817 445.984 550.201 444H548.729L549.337 440.832H552.409L551.737 444.256C551.257 446.72 549.881 447.808 547.961 448.096ZM558.963 449.312L563.219 427.456H565.779L565.331 429.728H565.395C566.675 428.064 568.531 427.072 570.739 427.072C574.355 427.072 576.563 429.824 576.563 433.92C576.563 438.912 573.843 444.48 568.211 444.48C565.779 444.48 564.019 443.36 563.091 441.504H563.027L561.523 449.312H558.963ZM563.859 437.344C563.827 440.16 565.171 442.336 568.115 442.336C572.211 442.336 573.939 437.76 573.939 434.08C573.939 431.52 572.979 429.248 570.067 429.248C566.067 429.248 563.891 433.408 563.859 437.344ZM577.583 444L581.999 421.12H584.559L580.143 444H577.583ZM583.706 444L586.906 427.456H589.466L586.266 444H583.706ZM587.514 424.32L588.122 421.12H590.682L590.074 424.32H587.514ZM605.289 436.352H592.969C592.937 436.672 592.937 436.96 592.937 437.28C592.937 440.224 594.473 442.304 597.513 442.304C599.657 442.304 601.449 441.056 602.185 438.88H604.681C603.401 442.592 600.681 444.448 597.257 444.448C593.417 444.448 590.345 441.76 590.345 437.248C590.345 431.648 594.089 427.04 598.953 427.04C600.713 427.04 602.089 427.488 603.113 428.256C605.193 429.824 605.833 432.8 605.289 436.352ZM598.857 429.056C595.945 429.056 593.961 431.264 593.225 434.4H602.857C603.177 431.328 601.897 429.056 598.857 429.056ZM612.542 449.504C609.342 449.504 606.366 448.288 606.27 444.928H608.798C608.958 446.912 610.59 447.488 612.51 447.488C615.198 447.488 616.798 446.08 617.246 443.776L617.758 441.184H617.726C616.478 442.56 615.006 443.424 612.958 443.424C609.374 443.424 606.846 440.896 606.846 436.832C606.846 431.84 609.822 427.072 615.166 427.072C617.342 427.072 618.942 428.064 619.902 429.856H619.934L620.414 427.456H622.942L619.742 444C619.102 447.36 616.414 449.504 612.542 449.504ZM609.406 436.672C609.406 439.296 610.558 441.28 613.438 441.28C617.438 441.312 619.262 437.312 619.262 433.76C619.262 430.944 617.886 429.248 615.038 429.248C611.166 429.248 609.406 433.024 609.406 436.672ZM633.318 444L633.734 441.696H633.67C632.326 443.296 630.534 444.384 628.102 444.384C624.87 444.384 623.334 442.336 623.974 438.976L626.214 427.456H628.742L626.502 438.944C626.054 441.216 626.694 442.24 628.71 442.24C631.654 442.24 634.118 439.776 634.726 436.704L636.518 427.456H639.078L635.878 444H633.318ZM654.883 436.352H642.563C642.531 436.672 642.531 436.96 642.531 437.28C642.531 440.224 644.067 442.304 647.107 442.304C649.251 442.304 651.043 441.056 651.779 438.88H654.275C652.995 442.592 650.275 444.448 646.851 444.448C643.011 444.448 639.939 441.76 639.939 437.248C639.939 431.648 643.683 427.04 648.547 427.04C650.307 427.04 651.683 427.488 652.707 428.256C654.787 429.824 655.427 432.8 654.883 436.352ZM648.451 429.056C645.539 429.056 643.555 431.264 642.819 434.4H652.451C652.771 431.328 651.491 429.056 648.451 429.056ZM665.598 444L663.774 421.12H666.654L667.582 436C667.71 437.536 667.774 439.872 667.774 439.872H667.838C667.838 439.872 668.798 437.44 669.47 435.936L676.03 421.12H679.102L680.51 435.936C680.67 437.472 680.734 439.872 680.734 439.872H680.798C680.798 439.872 681.758 437.408 682.334 436L688.638 421.12H691.518L681.406 444H678.686L677.278 427.872C677.15 426.496 677.086 424.32 677.086 424.32H677.022C677.022 424.32 676.222 426.4 675.582 427.872L668.414 444H665.598ZM701.129 444.16C699.369 444.16 698.857 443.104 698.825 441.888H698.793C697.705 443.296 695.913 444.32 693.577 444.32C690.281 444.32 688.425 442.144 688.425 439.648C688.425 435.424 691.657 434.56 694.953 434.368C699.497 434.112 700.585 433.824 700.585 431.68C700.585 429.632 698.985 429.152 697.193 429.12C694.505 429.088 692.969 430.016 692.521 432.448H689.929C690.505 429.152 693.097 427.104 697.385 427.104C700.585 427.104 703.593 428.608 702.793 432.736L701.289 440.384C701.065 441.6 701.193 442.368 702.729 442.08H702.825L702.441 443.936C702.121 444.032 701.737 444.16 701.129 444.16ZM691.017 439.456C691.017 441.184 692.137 442.336 694.121 442.336C697.321 442.336 699.017 440.128 699.497 437.696L699.945 435.424C698.921 436 697.609 436.096 694.857 436.32C693.577 436.416 691.017 436.608 691.017 439.456ZM705.466 429.536L705.882 427.456H708.218L709.242 422.24H711.802L710.778 427.456H713.946L713.53 429.536H710.362L708.346 440.032C708.09 441.312 708.538 441.888 709.786 441.888C710.426 441.888 710.97 441.728 711.258 441.6H711.354L710.906 443.84C710.458 444 709.818 444.096 709.114 444.096C706.554 444.096 705.242 442.688 705.786 439.936L707.802 429.536H705.466ZM714.654 429.536L715.07 427.456H717.406L718.43 422.24H720.99L719.966 427.456H723.134L722.718 429.536H719.55L717.534 440.032C717.278 441.312 717.726 441.888 718.974 441.888C719.614 441.888 720.158 441.728 720.446 441.6H720.542L720.094 443.84C719.646 444 719.006 444.096 718.302 444.096C715.742 444.096 714.43 442.688 714.974 439.936L716.99 429.536H714.654ZM737.946 436.352H725.626C725.594 436.672 725.594 436.96 725.594 437.28C725.594 440.224 727.13 442.304 730.17 442.304C732.314 442.304 734.106 441.056 734.842 438.88H737.338C736.058 442.592 733.338 444.448 729.914 444.448C726.074 444.448 723.002 441.76 723.002 437.248C723.002 431.648 726.746 427.04 731.61 427.04C733.37 427.04 734.746 427.488 735.77 428.256C737.85 429.824 738.49 432.8 737.946 436.352ZM731.514 429.056C728.602 429.056 726.618 431.264 725.882 434.4H735.514C735.834 431.328 734.554 429.056 731.514 429.056ZM751.566 444.16C749.806 444.16 749.294 443.104 749.262 441.888H749.23C748.142 443.296 746.35 444.32 744.014 444.32C740.718 444.32 738.862 442.144 738.862 439.648C738.862 435.424 742.094 434.56 745.39 434.368C749.934 434.112 751.022 433.824 751.022 431.68C751.022 429.632 749.422 429.152 747.63 429.12C744.942 429.088 743.406 430.016 742.958 432.448H740.366C740.942 429.152 743.534 427.104 747.822 427.104C751.022 427.104 754.03 428.608 753.23 432.736L751.726 440.384C751.502 441.6 751.63 442.368 753.166 442.08H753.262L752.878 443.936C752.558 444.032 752.174 444.16 751.566 444.16ZM741.454 439.456C741.454 441.184 742.574 442.336 744.558 442.336C747.758 442.336 749.454 440.128 749.934 437.696L750.382 435.424C749.358 436 748.046 436.096 745.294 436.32C744.014 436.416 741.454 436.608 741.454 439.456ZM764.881 444L765.297 441.696H765.233C763.889 443.296 762.097 444.384 759.665 444.384C756.433 444.384 754.897 442.336 755.537 438.976L757.777 427.456H760.305L758.065 438.944C757.617 441.216 758.257 442.24 760.273 442.24C763.217 442.24 765.681 439.776 766.289 436.704L768.081 427.456H770.641L767.441 444H764.881ZM769.774 448.096L770.03 446.656C770.798 446.432 771.63 445.984 772.014 444H770.542L771.15 440.832H774.222L773.55 444.256C773.07 446.72 771.694 447.808 769.774 448.096ZM788.488 444.48C784.904 444.48 781.608 442.656 781.608 438.624H784.072C784.136 441.088 785.8 442.368 788.68 442.368C790.44 442.368 792.424 441.728 792.424 439.392C792.424 438.08 791.304 437.504 788.616 436.448C785.896 435.392 783.656 434.432 783.656 431.584C783.656 428.704 786.056 427.104 789.384 427.104C792.712 427.104 795.496 428.576 795.72 432.288H793.224C792.968 430.016 791.464 429.088 789.384 429.088C787.688 429.088 786.056 429.6 786.056 431.456C786.056 432.8 787.208 433.312 789.864 434.368C792.776 435.52 794.92 436.48 794.92 439.328C794.92 442.912 791.88 444.48 788.488 444.48ZM812.039 436.352H799.719C799.687 436.672 799.687 436.96 799.687 437.28C799.687 440.224 801.223 442.304 804.263 442.304C806.407 442.304 808.199 441.056 808.935 438.88H811.431C810.151 442.592 807.431 444.448 804.007 444.448C800.167 444.448 797.095 441.76 797.095 437.248C797.095 431.648 800.839 427.04 805.703 427.04C807.463 427.04 808.839 427.488 809.863 428.256C811.943 429.824 812.583 432.8 812.039 436.352ZM805.607 429.056C802.695 429.056 800.711 431.264 799.975 434.4H809.607C809.927 431.328 808.647 429.056 805.607 429.056ZM819.836 444.48C816.092 444.48 813.532 441.984 813.564 437.568C813.596 432.736 816.572 427.072 822.268 427.072C824.444 427.072 826.044 428.064 827.068 429.984H827.132L828.828 421.12H831.388L826.972 444H824.412L824.764 442.208H824.7C823.452 443.616 821.852 444.48 819.836 444.48ZM816.156 437.44C816.156 440.032 817.212 442.336 820.188 442.336C824.412 442.336 826.3 437.888 826.3 433.792C826.3 431.264 824.86 429.248 822.172 429.248C818.108 429.248 816.156 433.952 816.156 437.44ZM843.129 444.16C841.369 444.16 840.857 443.104 840.825 441.888H840.793C839.705 443.296 837.913 444.32 835.577 444.32C832.281 444.32 830.425 442.144 830.425 439.648C830.425 435.424 833.657 434.56 836.953 434.368C841.497 434.112 842.585 433.824 842.585 431.68C842.585 429.632 840.985 429.152 839.193 429.12C836.505 429.088 834.969 430.016 834.521 432.448H831.929C832.505 429.152 835.097 427.104 839.385 427.104C842.585 427.104 845.593 428.608 844.793 432.736L843.289 440.384C843.065 441.6 843.193 442.368 844.729 442.08H844.825L844.441 443.936C844.121 444.032 843.737 444.16 843.129 444.16ZM833.017 439.456C833.017 441.184 834.137 442.336 836.121 442.336C839.321 442.336 841.017 440.128 841.497 437.696L841.945 435.424C840.921 436 839.609 436.096 836.857 436.32C835.577 436.416 833.017 436.608 833.017 439.456ZM852.863 444.48C849.279 444.48 845.983 442.656 845.983 438.624H848.447C848.511 441.088 850.175 442.368 853.055 442.368C854.815 442.368 856.799 441.728 856.799 439.392C856.799 438.08 855.679 437.504 852.991 436.448C850.271 435.392 848.031 434.432 848.031 431.584C848.031 428.704 850.431 427.104 853.759 427.104C857.087 427.104 859.871 428.576 860.095 432.288H857.599C857.343 430.016 855.839 429.088 853.759 429.088C852.063 429.088 850.431 429.6 850.431 431.456C850.431 432.8 851.583 433.312 854.239 434.368C857.151 435.52 859.295 436.48 859.295 439.328C859.295 442.912 856.255 444.48 852.863 444.48ZM872.992 444.48C869.248 444.48 866.688 441.984 866.72 437.568C866.752 432.736 869.728 427.072 875.424 427.072C877.6 427.072 879.2 428.064 880.224 429.984H880.288L881.984 421.12H884.544L880.128 444H877.568L877.92 442.208H877.856C876.608 443.616 875.008 444.48 872.992 444.48ZM869.312 437.44C869.312 440.032 870.368 442.336 873.344 442.336C877.568 442.336 879.456 437.888 879.456 433.792C879.456 431.264 878.016 429.248 875.328 429.248C871.264 429.248 869.312 433.952 869.312 437.44ZM899.133 436.352H886.813C886.781 436.672 886.781 436.96 886.781 437.28C886.781 440.224 888.317 442.304 891.357 442.304C893.501 442.304 895.293 441.056 896.029 438.88H898.525C897.245 442.592 894.525 444.448 891.101 444.448C887.261 444.448 884.189 441.76 884.189 437.248C884.189 431.648 887.933 427.04 892.797 427.04C894.557 427.04 895.933 427.488 896.957 428.256C899.037 429.824 899.677 432.8 899.133 436.352ZM892.701 429.056C889.789 429.056 887.805 431.264 887.069 434.4H896.701C897.021 431.328 895.741 429.056 892.701 429.056ZM905.528 444L909.944 421.12H912.76L908.856 441.376H920.344L919.832 444H905.528ZM921.767 449.472C920.903 449.472 920.135 449.344 919.559 449.088L920.007 446.848H920.135C920.455 447.008 920.935 447.2 921.799 447.2C922.855 447.2 923.719 446.784 924.359 445.568L925.447 443.488L921.927 427.456H924.551L926.663 437.696C926.951 439.104 927.143 440.928 927.143 440.928H927.207C927.207 440.928 927.943 439.232 928.679 437.728L933.767 427.456H936.423L926.759 446.048C925.415 448.64 923.783 449.472 921.767 449.472ZM942.54 444.448C938.604 444.448 935.564 441.856 935.564 437.216C935.564 431.84 938.86 427.04 944.3 427.04C948.3 427.04 951.244 429.824 951.244 434.336C951.244 439.584 948.172 444.448 942.54 444.448ZM938.124 437.184C938.124 440.096 939.628 442.304 942.636 442.304C946.572 442.304 948.652 438.56 948.652 434.336C948.652 431.584 947.308 429.152 944.236 429.152C940.172 429.152 938.124 433.088 938.124 437.184ZM957.872 427.456L957.392 430.016H957.456C958.832 428.224 961.072 427.072 963.536 427.072C966.8 427.072 968.176 429.088 967.568 432.32L965.296 444H962.768L965.04 432.32C965.424 430.272 964.848 429.216 962.864 429.216C959.824 429.216 957.04 431.776 956.464 434.72L954.672 444H952.112L955.312 427.456H957.872ZM968.26 444L968.868 440.832H971.94L971.332 444H968.26Z" fill="#141414"/>
<path d="M437.269 272.2C455.869 308.2 460.069 315.8 472.069 319.8V321C470.069 321.4 464.069 321.8 459.269 321.8C448.069 321.8 444.469 313.4 419.269 262.2C415.269 254.2 410.069 253 403.669 253H390.069V297.4C390.069 312.2 390.269 319.8 403.869 319.8V321H364.469V319.8C378.069 319.8 378.869 312.2 378.869 297.4V199C378.869 184.2 378.069 176.6 364.469 176.6V175.4H408.069C437.269 175.4 455.669 191 455.669 214.2C455.669 234.4 439.269 246.6 422.669 251.2V251.6C428.269 255.4 433.069 264.2 437.269 272.2ZM390.069 185.8V249.8H406.869C431.669 249.8 443.269 236.6 443.269 215C443.269 194.2 432.069 178.6 407.069 178.6H397.669C392.869 178.6 390.069 181 390.069 185.8ZM515.989 323.4C488.789 323.4 468.789 302.6 468.789 269C468.789 235.8 489.589 213.8 516.389 213.8C543.589 213.8 563.589 234.6 563.589 268.2C563.589 301.4 542.789 323.4 515.989 323.4ZM516.389 320.6C538.989 320.6 552.389 299.6 552.389 268.6C552.389 238.8 538.589 216.6 515.989 216.6C493.389 216.6 479.989 237.6 479.989 268.6C479.989 298.4 493.789 320.6 516.389 320.6ZM615.072 323.4C590.072 323.4 573.672 300.6 573.672 270C573.672 236.6 595.272 213.8 619.272 213.8C633.072 213.8 646.072 221 652.472 231.2L646.272 240.6H645.072C640.672 225.8 632.872 216.6 619.272 216.6C597.872 216.6 584.472 240 584.472 265.4C584.472 292.4 596.872 315.8 619.672 315.8C634.872 315.8 646.472 306.8 652.872 297.4L654.072 298.2C647.672 309 635.472 323.4 615.072 323.4ZM706.419 323.4C679.219 323.4 659.219 302.6 659.219 269C659.219 235.8 680.019 213.8 706.819 213.8C734.019 213.8 754.019 234.6 754.019 268.2C754.019 301.4 733.219 323.4 706.419 323.4ZM706.819 320.6C729.419 320.6 742.819 299.6 742.819 268.6C742.819 238.8 729.019 216.6 706.419 216.6C683.819 216.6 670.419 237.6 670.419 268.6C670.419 298.4 684.219 320.6 706.819 320.6ZM805.502 323.4C780.502 323.4 764.102 300.6 764.102 270C764.102 236.6 785.702 213.8 809.702 213.8C823.502 213.8 836.502 221 842.902 231.2L836.702 240.6H835.502C831.102 225.8 823.302 216.6 809.702 216.6C788.302 216.6 774.902 240 774.902 265.4C774.902 292.4 787.302 315.8 810.102 315.8C825.302 315.8 836.902 306.8 843.302 297.4L844.502 298.2C838.102 309 825.902 323.4 805.502 323.4ZM888.848 203.8L888.048 203.2C894.248 191.8 905.448 166.4 906.848 163.8C907.848 161.8 909.648 160.8 911.648 160.8C914.448 160.8 917.048 163.2 917.048 166.2C917.048 167.4 916.648 168.6 916.048 169.6C914.448 172 896.248 193.2 888.848 203.8ZM896.848 323.4C869.648 323.4 849.648 302.6 849.648 269C849.648 235.8 870.448 213.8 897.248 213.8C924.448 213.8 944.448 234.6 944.448 268.2C944.448 301.4 923.648 323.4 896.848 323.4ZM897.248 320.6C919.848 320.6 933.248 299.6 933.248 268.6C933.248 238.8 919.448 216.6 896.848 216.6C874.248 216.6 860.848 237.6 860.848 268.6C860.848 298.4 874.648 320.6 897.248 320.6Z" fill="#B9D6FE"/>
<path d="M850.576 48.5271C850.467 48.4925 850.383 48.4944 850.319 48.5124C850.258 48.5297 850.183 48.5711 850.103 48.6736C849.941 48.879 849.889 49.1977 849.989 49.6365C850.088 50.0685 850.318 50.5327 850.585 50.9187C851.589 52.3683 853.022 53.4286 854.477 54.2957C856.163 55.3004 857.898 56.0546 859.706 56.7146L859.568 57.6833C858.784 57.7358 858.058 57.5864 857.396 57.4832C857.01 57.4231 856.63 57.3259 856.294 57.2498C855.946 57.1709 855.626 57.1092 855.301 57.0935L846.973 56.6912C846.366 56.6619 845.894 56.7107 845.478 56.9919C844.95 57.3483 844.233 57.7258 843.403 57.4636C843.357 57.4491 843.324 57.4423 843.302 57.4382C843.223 57.5317 843.009 57.8059 842.607 57.9529C842.065 58.1514 841.527 58.2566 840.978 58.3152C840.813 58.3327 840.668 58.3783 840.575 58.4343C840.531 58.4608 840.511 58.4826 840.503 58.4929C840.502 58.4945 840.501 58.4959 840.5 58.4968L840.499 58.4988L840.5 58.4978C840.498 58.5176 840.501 58.5265 840.504 58.533C840.508 58.5423 840.521 58.5624 840.555 58.5886C840.627 58.6452 840.759 58.6998 840.929 58.7146C841.268 58.7441 841.711 58.7961 842.128 58.9109C842.53 59.0215 842.995 59.2127 843.295 59.5818C843.298 59.5856 843.303 59.5881 843.306 59.5915C843.675 59.4742 844.011 59.4618 844.327 59.5232C844.664 59.5888 844.953 59.7336 845.192 59.864C845.696 60.1382 846.035 60.3582 846.561 60.3347L855.129 59.9509C855.501 59.9342 855.865 59.8689 856.25 59.7869C856.624 59.7073 857.04 59.6055 857.459 59.5388C858.124 59.433 858.835 59.2955 859.61 59.3347L859.748 60.3064C857.739 61.0002 855.809 61.8792 853.965 63.0691C852.711 63.8782 851.42 64.9519 850.622 66.2771C850.399 66.6478 850.227 67.0971 850.17 67.5037C850.111 67.9241 850.185 68.1994 850.314 68.3445C850.418 68.4603 850.495 68.4889 850.539 68.4968C850.586 68.5052 850.657 68.5008 850.763 68.449C850.993 68.3359 851.275 68.0511 851.54 67.6316C852.296 66.4357 853.128 65.3924 854.101 64.4412C856.377 62.2135 858.99 60.6412 861.817 59.7615L861.826 59.7585L861.835 59.7566L865.476 58.7644L866.206 58.5007C866.167 58.485 866.127 58.4671 866.083 58.4509C865.713 58.3147 865.271 58.2054 864.947 58.1208L862.269 57.4207C859.69 56.7468 857.336 55.3742 855.185 53.5789C853.711 52.349 852.443 50.8919 851.34 49.196C851.096 48.8215 850.806 48.5999 850.576 48.5271Z" fill="#141414" stroke="#141414"/>
<circle cx="20.5" cy="20.5" r="20" transform="matrix(1 8.74228e-08 8.74228e-08 -1 831.999 78.9998)" stroke="#141414"/>
<path d="M460.424 48.5271C460.533 48.4925 460.617 48.4944 460.681 48.5124C460.742 48.5297 460.817 48.5711 460.897 48.6736C461.059 48.879 461.111 49.1977 461.011 49.6365C460.912 50.0685 460.682 50.5327 460.415 50.9187C459.411 52.3683 457.978 53.4286 456.523 54.2957C454.837 55.3004 453.102 56.0546 451.294 56.7146L451.432 57.6833C452.216 57.7358 452.942 57.5864 453.604 57.4832C453.99 57.4231 454.37 57.3259 454.706 57.2498C455.054 57.1709 455.374 57.1092 455.699 57.0935L464.027 56.6912C464.634 56.6619 465.106 56.7107 465.522 56.9919C466.05 57.3483 466.767 57.7258 467.597 57.4636C467.643 57.4491 467.676 57.4423 467.698 57.4382C467.777 57.5317 467.991 57.8059 468.393 57.9529C468.935 58.1514 469.473 58.2566 470.022 58.3152C470.187 58.3327 470.332 58.3783 470.425 58.4343C470.469 58.4608 470.489 58.4826 470.497 58.4929C470.498 58.4945 470.499 58.4959 470.5 58.4968L470.501 58.4988L470.5 58.4978C470.502 58.5176 470.499 58.5265 470.496 58.533C470.492 58.5423 470.479 58.5624 470.445 58.5886C470.373 58.6452 470.241 58.6998 470.071 58.7146C469.732 58.7441 469.289 58.7961 468.872 58.9109C468.47 59.0215 468.005 59.2127 467.705 59.5818C467.702 59.5856 467.697 59.5881 467.694 59.5915C467.325 59.4742 466.989 59.4618 466.673 59.5232C466.336 59.5888 466.047 59.7336 465.808 59.864C465.304 60.1382 464.965 60.3582 464.439 60.3347L455.871 59.9509C455.499 59.9342 455.135 59.8689 454.75 59.7869C454.376 59.7073 453.96 59.6055 453.541 59.5388C452.876 59.433 452.165 59.2955 451.39 59.3347L451.252 60.3064C453.261 61.0002 455.191 61.8792 457.035 63.0691C458.289 63.8782 459.58 64.9519 460.378 66.2771C460.601 66.6478 460.773 67.0971 460.83 67.5037C460.889 67.9241 460.815 68.1994 460.686 68.3445C460.582 68.4603 460.505 68.4889 460.461 68.4968C460.414 68.5052 460.343 68.5008 460.237 68.449C460.007 68.3359 459.725 68.0511 459.46 67.6316C458.704 66.4357 457.872 65.3924 456.899 64.4412C454.623 62.2135 452.01 60.6412 449.183 59.7615L449.174 59.7585L449.165 59.7566L445.524 58.7644L444.794 58.5007C444.833 58.485 444.873 58.4671 444.917 58.4509C445.287 58.3147 445.729 58.2054 446.053 58.1208L448.731 57.4207C451.31 56.7468 453.664 55.3742 455.815 53.5789C457.289 52.349 458.557 50.8919 459.66 49.196C459.904 48.8215 460.194 48.5999 460.424 48.5271Z" fill="#141414" stroke="#141414"/>
<circle cx="458.501" cy="58.4998" r="20" transform="rotate(180 458.501 58.4998)" stroke="#141414"/>
</svg>

