<svg width="856" height="451" viewBox="0 0 856 451" fill="none" xmlns="http://www.w3.org/2000/svg">
<path d="M324.017 28.896L315.441 69.216C314.353 74.4 315.633 75.616 319.985 75.616L319.921 76H304.561L304.625 75.616C308.977 75.616 311.153 74.4 312.241 69.216L318.897 37.92C316.593 39.264 313.521 40.352 310.705 40.8L310.769 40.416C317.425 37.984 320.433 34.528 323.633 28.896H324.017ZM327.779 37.664L330.595 29.408H356.771V29.664C345.251 44.512 334.627 60.448 331.875 76H327.651C332.195 60.64 342.179 46.24 353.763 32.48H338.979C331.939 32.48 331.235 32.8 328.163 37.664H327.779ZM371.647 28.64C377.663 28.64 382.719 32.416 382.719 42.208C382.719 55.136 373.823 70.624 356.479 76.768L356.351 76.384C367.615 71.84 375.295 61.344 378.047 50.272C375.615 53.92 371.007 57.312 365.375 57.312C359.359 57.312 355.007 53.344 355.007 46.432C355.007 37.472 362.367 28.64 371.647 28.64ZM367.295 55.008C371.967 55.008 376.127 52.128 378.431 48.608C378.879 46.24 379.135 43.808 379.135 41.44C379.135 32.8 375.807 29.536 371.199 29.536C363.775 29.536 358.783 38.176 358.783 45.472C358.783 51.104 361.791 55.008 367.295 55.008ZM404.449 33.504C401.249 33.504 397.729 32.992 393.761 32.16L389.409 45.728L393.825 46.624C402.337 48.352 407.777 53.408 407.777 60.384C407.777 69.088 400.353 76.768 390.049 76.768C386.465 76.768 381.281 75.808 379.681 74.656L381.985 67.296H382.369C381.729 72.608 385.057 75.872 390.753 75.872C398.433 75.872 404.641 69.856 404.641 62.624C404.641 56.352 399.905 51.68 391.841 50.016L387.169 49.056L393.697 28.64C398.689 29.792 403.105 30.048 405.665 30.048C410.273 30.048 412.833 29.216 414.177 28.256H414.561C412.513 32.096 409.057 33.504 404.449 33.504ZM438.428 57.952H425.436L425.948 55.904H438.94L438.428 57.952ZM471.267 28.896L462.691 69.216C461.603 74.4 462.883 75.616 467.235 75.616L467.171 76H451.811L451.875 75.616C456.227 75.616 458.403 74.4 459.491 69.216L466.147 37.92C463.843 39.264 460.771 40.352 457.955 40.8L458.019 40.416C464.675 37.984 467.683 34.528 470.883 28.896H471.267ZM490.397 51.168L491.229 51.616C494.045 53.216 499.613 56.416 499.613 62.816C499.613 70.048 492.957 76.768 483.357 76.768C476.253 76.768 470.429 73.12 470.429 66.016C470.429 58.464 476.957 54.56 484.573 52C481.501 50.08 477.917 46.752 477.917 41.632C477.917 34.464 484.317 28.64 491.997 28.64C497.885 28.64 502.749 32.096 502.749 38.24C502.749 44.96 496.989 48.864 490.397 51.168ZM480.989 40.288C480.989 45.6 485.661 48.48 488.157 49.888L489.693 50.72C495.773 47.904 499.933 43.616 499.933 37.664C499.933 32.928 497.245 29.536 492.061 29.536C485.597 29.536 480.989 34.72 480.989 40.288ZM483.549 75.872C491.421 75.872 496.477 70.432 496.477 64.352C496.477 58.912 492.061 56.288 488.797 54.432L485.725 52.704L485.277 52.448C478.429 55.136 473.309 59.808 473.309 66.592C473.309 72.928 477.725 75.872 483.549 75.872ZM520.954 28.896L512.378 69.216C511.29 74.4 512.57 75.616 516.922 75.616L516.858 76H501.498L501.562 75.616C505.914 75.616 508.09 74.4 509.178 69.216L515.834 37.92C513.53 39.264 510.458 40.352 507.642 40.8L507.706 40.416C514.362 37.984 517.37 34.528 520.57 28.896H520.954ZM544.262 33.504C541.062 33.504 537.542 32.992 533.574 32.16L529.222 45.728L533.638 46.624C542.15 48.352 547.59 53.408 547.59 60.384C547.59 69.088 540.166 76.768 529.862 76.768C526.278 76.768 521.094 75.808 519.494 74.656L521.798 67.296H522.182C521.542 72.608 524.87 75.872 530.566 75.872C538.246 75.872 544.454 69.856 544.454 62.624C544.454 56.352 539.718 51.68 531.654 50.016L526.982 49.056L533.51 28.64C538.502 29.792 542.918 30.048 545.478 30.048C550.086 30.048 552.646 29.216 553.99 28.256H554.374C552.326 32.096 548.87 33.504 544.262 33.504Z" fill="#141414"/>
<path d="M28.387 407L32.803 384.12H39.971C46.147 384.12 49.027 387.704 49.027 393.24C49.027 400.664 44.835 407 36.611 407H28.387ZM31.683 404.504H36.547C43.075 404.504 46.115 399.608 46.115 393.432C46.115 389.272 44.323 386.584 39.811 386.584H35.139L31.683 404.504ZM65.2425 399.352H52.9225C52.8905 399.672 52.8905 399.96 52.8905 400.28C52.8905 403.224 54.4265 405.304 57.4665 405.304C59.6105 405.304 61.4025 404.056 62.1385 401.88H64.6345C63.3545 405.592 60.6345 407.448 57.2105 407.448C53.3705 407.448 50.2985 404.76 50.2985 400.248C50.2985 394.648 54.0425 390.04 58.9065 390.04C60.6665 390.04 62.0425 390.488 63.0665 391.256C65.1465 392.824 65.7865 395.8 65.2425 399.352ZM58.8105 392.056C55.8985 392.056 53.9145 394.264 53.1785 397.4H62.8105C63.1305 394.328 61.8505 392.056 58.8105 392.056ZM66.2553 407L70.6713 384.12H73.2313L68.8153 407H66.2553ZM79.2318 392.536L79.6478 390.456H81.8878L82.3998 387.8C82.9438 385.016 84.3518 383.928 87.1678 383.928C87.5838 383.928 88.2238 383.96 88.5758 383.992L88.1598 386.168C87.7118 386.136 87.3598 386.136 87.1678 386.136C85.5038 386.136 85.1198 386.776 84.8958 387.928L84.4158 390.456H87.4558L87.0398 392.536H83.9998L81.2158 407H78.6878L81.4718 392.536H79.2318ZM86.4318 407L89.6318 390.456H92.1918L88.9918 407H86.4318ZM90.2398 387.32L90.8478 384.12H93.4078L92.7998 387.32H90.2398ZM98.2005 390.456L97.7205 393.016H97.7845C99.1605 391.224 101.401 390.072 103.865 390.072C107.129 390.072 108.505 392.088 107.897 395.32L105.625 407H103.097L105.369 395.32C105.753 393.272 105.177 392.216 103.193 392.216C100.153 392.216 97.3685 394.776 96.7925 397.72L95.0005 407H92.4405L95.6405 390.456H98.2005ZM120.914 407.48C117.17 407.48 114.61 404.984 114.642 400.568C114.674 395.736 117.65 390.072 123.346 390.072C125.522 390.072 127.122 391.064 128.146 392.984H128.21L129.906 384.12H132.466L128.05 407H125.49L125.842 405.208H125.778C124.53 406.616 122.93 407.48 120.914 407.48ZM117.234 400.44C117.234 403.032 118.29 405.336 121.266 405.336C125.49 405.336 127.378 400.888 127.378 396.792C127.378 394.264 125.938 392.248 123.25 392.248C119.186 392.248 117.234 396.952 117.234 400.44ZM147.055 399.352H134.735C134.703 399.672 134.703 399.96 134.703 400.28C134.703 403.224 136.239 405.304 139.279 405.304C141.423 405.304 143.215 404.056 143.951 401.88H146.447C145.167 405.592 142.447 407.448 139.023 407.448C135.183 407.448 132.111 404.76 132.111 400.248C132.111 394.648 135.855 390.04 140.719 390.04C142.479 390.04 143.855 390.488 144.879 391.256C146.959 392.824 147.599 395.8 147.055 399.352ZM140.623 392.056C137.711 392.056 135.727 394.264 134.991 397.4H144.623C144.943 394.328 143.663 392.056 140.623 392.056ZM153.162 407L157.578 384.12H160.138L155.722 407H153.162ZM171.988 407.16C170.228 407.16 169.716 406.104 169.684 404.888H169.652C168.564 406.296 166.772 407.32 164.436 407.32C161.14 407.32 159.284 405.144 159.284 402.648C159.284 398.424 162.516 397.56 165.812 397.368C170.356 397.112 171.444 396.824 171.444 394.68C171.444 392.632 169.844 392.152 168.052 392.12C165.364 392.088 163.828 393.016 163.38 395.448H160.788C161.364 392.152 163.956 390.104 168.244 390.104C171.444 390.104 174.452 391.608 173.652 395.736L172.148 403.384C171.924 404.6 172.052 405.368 173.588 405.08H173.684L173.3 406.936C172.98 407.032 172.596 407.16 171.988 407.16ZM161.876 402.456C161.876 404.184 162.996 405.336 164.98 405.336C168.18 405.336 169.876 403.128 170.356 400.696L170.804 398.424C169.78 399 168.468 399.096 165.716 399.32C164.436 399.416 161.876 399.608 161.876 402.456ZM180.668 407L185.084 384.12H193.756C195.58 384.12 197.212 384.568 198.364 385.432C199.772 386.488 200.476 388.152 200.476 390.104C200.476 393.24 198.588 395.288 196.028 396.152V396.248C198.044 397.176 198.46 398.584 198.236 401.976C197.98 405.656 198.46 406.584 198.844 406.872V407H195.964C195.548 406.424 195.228 405.528 195.484 401.88C195.708 398.52 194.812 397.304 191.772 397.304H185.34L183.484 407H180.668ZM187.42 386.584L185.788 395H192.22C195.452 395 197.532 393.304 197.532 390.168C197.532 387.8 196.06 386.584 193.34 386.584H187.42ZM216.243 399.352H203.923C203.891 399.672 203.891 399.96 203.891 400.28C203.891 403.224 205.427 405.304 208.467 405.304C210.611 405.304 212.403 404.056 213.139 401.88H215.635C214.355 405.592 211.635 407.448 208.211 407.448C204.371 407.448 201.299 404.76 201.299 400.248C201.299 394.648 205.043 390.04 209.907 390.04C211.667 390.04 213.043 390.488 214.067 391.256C216.147 392.824 216.787 395.8 216.243 399.352ZM209.811 392.056C206.899 392.056 204.915 394.264 204.179 397.4H213.811C214.131 394.328 212.851 392.056 209.811 392.056ZM220.786 407L218.131 390.456H220.819L222.291 400.952C222.515 402.424 222.675 404.504 222.675 404.504H222.739C222.739 404.504 223.571 402.584 224.371 400.952L229.651 390.456H232.371L223.635 407H220.786ZM238.493 407.448C234.557 407.448 231.517 404.856 231.517 400.216C231.517 394.84 234.813 390.04 240.253 390.04C244.253 390.04 247.197 392.824 247.197 397.336C247.197 402.584 244.125 407.448 238.493 407.448ZM234.077 400.184C234.077 403.096 235.581 405.304 238.589 405.304C242.525 405.304 244.605 401.56 244.605 397.336C244.605 394.584 243.261 392.152 240.189 392.152C236.125 392.152 234.077 396.088 234.077 400.184ZM248.162 407L252.578 384.12H255.138L250.722 407H248.162ZM264.396 407L264.812 404.696H264.748C263.404 406.296 261.612 407.384 259.18 407.384C255.948 407.384 254.412 405.336 255.052 401.976L257.292 390.456H259.82L257.58 401.944C257.132 404.216 257.772 405.24 259.788 405.24C262.732 405.24 265.196 402.776 265.804 399.704L267.596 390.456H270.156L266.956 407H264.396ZM277.929 407.448C273.833 407.448 271.017 405.016 271.017 400.344C271.017 395.192 274.473 390.04 279.849 390.04C283.561 390.04 285.705 392.12 286.025 395.8H283.433C283.209 393.624 282.121 392.152 279.721 392.152C275.721 392.152 273.609 396.376 273.609 400.408C273.609 403.128 274.793 405.304 277.961 405.304C280.297 405.304 282.121 403.8 282.793 401.176H285.257C284.329 405.176 281.481 407.448 277.929 407.448ZM286.503 407L289.703 390.456H292.263L289.063 407H286.503ZM290.311 387.32L290.919 384.12H293.479L292.871 387.32H290.311ZM300.118 407.448C296.182 407.448 293.142 404.856 293.142 400.216C293.142 394.84 296.438 390.04 301.878 390.04C305.878 390.04 308.822 392.824 308.822 397.336C308.822 402.584 305.75 407.448 300.118 407.448ZM295.702 400.184C295.702 403.096 297.206 405.304 300.214 405.304C304.15 405.304 306.23 401.56 306.23 397.336C306.23 394.584 304.886 392.152 301.814 392.152C297.75 392.152 295.702 396.088 295.702 400.184ZM301.27 387.864L303.286 383.8H306.422L303.478 387.864H301.27ZM315.451 390.456L314.971 393.016H315.035C316.411 391.224 318.651 390.072 321.115 390.072C324.379 390.072 325.755 392.088 325.147 395.32L322.875 407H320.347L322.619 395.32C323.003 393.272 322.427 392.216 320.443 392.216C317.403 392.216 314.619 394.776 314.043 397.72L312.251 407H309.691L312.891 390.456H315.451ZM343.988 407.16C342.228 407.16 341.716 406.104 341.684 404.888H341.652C340.564 406.296 338.772 407.32 336.436 407.32C333.14 407.32 331.284 405.144 331.284 402.648C331.284 398.424 334.516 397.56 337.812 397.368C342.356 397.112 343.444 396.824 343.444 394.68C343.444 392.632 341.844 392.152 340.052 392.12C337.364 392.088 335.828 393.016 335.38 395.448H332.788C333.364 392.152 335.956 390.104 340.244 390.104C343.444 390.104 346.452 391.608 345.652 395.736L344.148 403.384C343.924 404.6 344.052 405.368 345.588 405.08H345.684L345.3 406.936C344.98 407.032 344.596 407.16 343.988 407.16ZM333.876 402.456C333.876 404.184 334.996 405.336 336.98 405.336C340.18 405.336 341.876 403.128 342.356 400.696L342.804 398.424C341.78 399 340.468 399.096 337.716 399.32C336.436 399.416 333.876 399.608 333.876 402.456ZM347.287 407L351.703 384.12H354.263L349.847 407H347.287ZM366.087 407.448C362.151 407.448 359.111 404.856 359.111 400.216C359.111 394.84 362.407 390.04 367.847 390.04C371.847 390.04 374.791 392.824 374.791 397.336C374.791 402.584 371.719 407.448 366.087 407.448ZM361.671 400.184C361.671 403.096 363.175 405.304 366.183 405.304C370.119 405.304 372.199 401.56 372.199 397.336C372.199 394.584 370.855 392.152 367.783 392.152C363.719 392.152 361.671 396.088 361.671 400.184ZM383.179 407.448C379.083 407.448 376.267 405.016 376.267 400.344C376.267 395.192 379.723 390.04 385.099 390.04C388.811 390.04 390.955 392.12 391.275 395.8H388.683C388.459 393.624 387.371 392.152 384.971 392.152C380.971 392.152 378.859 396.376 378.859 400.408C378.859 403.128 380.043 405.304 383.211 405.304C385.547 405.304 387.371 403.8 388.043 401.176H390.507C389.579 405.176 386.731 407.448 383.179 407.448ZM404.457 407.16C402.697 407.16 402.185 406.104 402.153 404.888H402.121C401.033 406.296 399.241 407.32 396.905 407.32C393.609 407.32 391.753 405.144 391.753 402.648C391.753 398.424 394.985 397.56 398.281 397.368C402.825 397.112 403.913 396.824 403.913 394.68C403.913 392.632 402.313 392.152 400.521 392.12C397.833 392.088 396.297 393.016 395.849 395.448H393.257C393.833 392.152 396.425 390.104 400.713 390.104C403.913 390.104 406.921 391.608 406.121 395.736L404.617 403.384C404.393 404.6 404.521 405.368 406.057 405.08H406.153L405.769 406.936C405.449 407.032 405.065 407.16 404.457 407.16ZM394.345 402.456C394.345 404.184 395.465 405.336 397.449 405.336C400.649 405.336 402.345 403.128 402.825 400.696L403.273 398.424C402.249 399 400.937 399.096 398.185 399.32C396.905 399.416 394.345 399.608 394.345 402.456ZM414.191 407.48C410.607 407.48 407.311 405.656 407.311 401.624H409.775C409.839 404.088 411.503 405.368 414.383 405.368C416.143 405.368 418.127 404.728 418.127 402.392C418.127 401.08 417.007 400.504 414.319 399.448C411.599 398.392 409.359 397.432 409.359 394.584C409.359 391.704 411.759 390.104 415.087 390.104C418.415 390.104 421.199 391.576 421.423 395.288H418.927C418.671 393.016 417.167 392.088 415.087 392.088C413.391 392.088 411.759 392.6 411.759 394.456C411.759 395.8 412.911 396.312 415.567 397.368C418.479 398.52 420.623 399.48 420.623 402.328C420.623 405.912 417.583 407.48 414.191 407.48ZM429.775 407.448C425.839 407.448 422.799 404.856 422.799 400.216C422.799 394.84 426.095 390.04 431.535 390.04C435.535 390.04 438.479 392.824 438.479 397.336C438.479 402.584 435.407 407.448 429.775 407.448ZM425.359 400.184C425.359 403.096 426.863 405.304 429.871 405.304C433.807 405.304 435.887 401.56 435.887 397.336C435.887 394.584 434.543 392.152 431.47 392.152C427.407 392.152 425.359 396.088 425.359 400.184ZM451.321 407.48C447.577 407.48 445.017 404.984 445.049 400.568C445.081 395.736 448.057 390.072 453.753 390.072C455.929 390.072 457.529 391.064 458.553 392.984H458.617L460.312 384.12H462.873L458.457 407H455.897L456.249 405.208H456.185C454.937 406.616 453.337 407.48 451.321 407.48ZM447.641 400.44C447.641 403.032 448.697 405.336 451.673 405.336C455.897 405.336 457.785 400.888 457.785 396.792C457.785 394.264 456.345 392.248 453.657 392.248C449.593 392.248 447.641 396.952 447.641 400.44ZM477.461 399.352H465.141C465.109 399.672 465.109 399.96 465.109 400.28C465.109 403.224 466.645 405.304 469.685 405.304C471.829 405.304 473.621 404.056 474.357 401.88H476.853C475.573 405.592 472.853 407.448 469.429 407.448C465.589 407.448 462.517 404.76 462.517 400.248C462.517 394.648 466.261 390.04 471.125 390.04C472.885 390.04 474.261 390.488 475.285 391.256C477.365 392.824 478.005 395.8 477.461 399.352ZM471.029 392.056C468.117 392.056 466.133 394.264 465.397 397.4H475.029C475.349 394.328 474.069 392.056 471.029 392.056ZM478.474 407L482.89 384.12H485.45L481.034 407H478.474ZM490.139 407L494.555 384.12H497.371L492.955 407H490.139ZM496.847 407L500.047 390.456H502.607L502.127 392.984H502.191C503.471 391.448 505.167 390.072 507.567 390.072C509.327 390.072 510.639 391.032 510.991 393.08H511.055C512.687 391.128 514.543 390.072 516.783 390.072C519.247 390.072 521.199 391.48 520.463 395.256L518.191 407H515.663L517.967 395.192C518.383 393.016 517.519 392.216 515.951 392.216C513.615 392.216 511.247 394.392 510.703 397.272L508.815 407H506.255L508.559 395.032C508.911 393.24 508.271 392.216 506.639 392.216C504.335 392.216 501.807 394.584 501.295 397.272L499.407 407H496.847ZM520.51 412.312L524.766 390.456H527.326L526.878 392.728H526.942C528.222 391.064 530.078 390.072 532.286 390.072C535.902 390.072 538.11 392.824 538.11 396.92C538.11 401.912 535.39 407.48 529.758 407.48C527.326 407.48 525.566 406.36 524.638 404.504H524.574L523.07 412.312H520.51ZM525.406 400.344C525.374 403.16 526.718 405.336 529.662 405.336C533.758 405.336 535.486 400.76 535.486 397.08C535.486 394.52 534.526 392.248 531.614 392.248C527.614 392.248 525.438 396.408 525.406 400.344ZM554.586 399.352H542.266C542.234 399.672 542.234 399.96 542.234 400.28C542.234 403.224 543.77 405.304 546.81 405.304C548.954 405.304 550.746 404.056 551.482 401.88H553.978C552.698 405.592 549.978 407.448 546.554 407.448C542.714 407.448 539.642 404.76 539.642 400.248C539.642 394.648 543.386 390.04 548.25 390.04C550.01 390.04 551.386 390.488 552.41 391.256C554.49 392.824 555.13 395.8 554.586 399.352ZM548.154 392.056C545.242 392.056 543.258 394.264 542.522 397.4H552.154C552.474 394.328 551.194 392.056 548.154 392.056ZM561.263 390.456L560.751 393.08H560.815C562.063 391.352 563.663 390.264 565.551 390.264C566.351 390.264 566.607 390.328 566.895 390.456L566.415 392.92H566.319C565.967 392.792 565.647 392.76 565.135 392.76C562.639 392.76 560.399 394.744 559.727 398.264L558.063 407H555.503L558.703 390.456H561.263ZM566.003 407L569.203 390.456H571.763L568.563 407H566.003ZM569.811 387.32L570.419 384.12H572.979L572.371 387.32H569.811ZM579.618 407.448C575.682 407.448 572.642 404.856 572.642 400.216C572.642 394.84 575.938 390.04 581.378 390.04C585.378 390.04 588.322 392.824 588.322 397.336C588.322 402.584 585.25 407.448 579.618 407.448ZM575.202 400.184C575.202 403.096 576.706 405.304 579.714 405.304C583.65 405.304 585.73 401.56 585.73 397.336C585.73 394.584 584.386 392.152 581.314 392.152C577.25 392.152 575.202 396.088 575.202 400.184ZM600.044 390.456L599.564 393.016H599.628C601.004 391.224 603.244 390.072 605.708 390.072C608.972 390.072 610.348 392.088 609.74 395.32L607.468 407H604.94L607.212 395.32C607.596 393.272 607.02 392.216 605.036 392.216C601.996 392.216 599.212 394.776 598.636 397.72L596.844 407H594.284L597.484 390.456H600.044ZM623.488 407.16C621.728 407.16 621.216 406.104 621.184 404.888H621.152C620.064 406.296 618.272 407.32 615.936 407.32C612.64 407.32 610.784 405.144 610.784 402.648C610.784 398.424 614.016 397.56 617.312 397.368C621.856 397.112 622.944 396.824 622.944 394.68C622.944 392.632 621.344 392.152 619.552 392.12C616.864 392.088 615.328 393.016 614.88 395.448H612.288C612.864 392.152 615.456 390.104 619.744 390.104C622.944 390.104 625.952 391.608 625.152 395.736L623.648 403.384C623.424 404.6 623.552 405.368 625.088 405.08H625.184L624.8 406.936C624.48 407.032 624.096 407.16 623.488 407.16ZM613.376 402.456C613.376 404.184 614.496 405.336 616.48 405.336C619.68 405.336 621.376 403.128 621.856 400.696L622.304 398.424C621.28 399 619.968 399.096 617.216 399.32C615.936 399.416 613.376 399.608 613.376 402.456ZM625.666 412.312L629.923 390.456H632.483L632.035 392.728H632.099C633.379 391.064 635.235 390.072 637.443 390.072C641.059 390.072 643.267 392.824 643.267 396.92C643.267 401.912 640.547 407.48 634.915 407.48C632.483 407.48 630.723 406.36 629.795 404.504H629.731L628.227 412.312H625.666ZM630.562 400.344C630.531 403.16 631.875 405.336 634.819 405.336C638.915 405.336 640.643 400.76 640.643 397.08C640.643 394.52 639.683 392.248 636.771 392.248C632.771 392.248 630.595 396.408 630.562 400.344ZM651.775 407.448C647.839 407.448 644.799 404.856 644.799 400.216C644.799 394.84 648.095 390.04 653.535 390.04C657.535 390.04 660.479 392.824 660.479 397.336C660.479 402.584 657.407 407.448 651.775 407.448ZM647.359 400.184C647.359 403.096 648.863 405.304 651.871 405.304C655.807 405.304 657.887 401.56 657.887 397.336C657.887 394.584 656.543 392.152 653.47 392.152C649.407 392.152 647.359 396.088 647.359 400.184ZM661.443 407L665.859 384.12H668.419L664.003 407H661.443ZM683.118 399.352H670.798C670.766 399.672 670.766 399.96 670.766 400.28C670.766 403.224 672.302 405.304 675.342 405.304C677.486 405.304 679.278 404.056 680.014 401.88H682.51C681.23 405.592 678.51 407.448 675.086 407.448C671.246 407.448 668.174 404.76 668.174 400.248C668.174 394.648 671.918 390.04 676.782 390.04C678.542 390.04 679.918 390.488 680.942 391.256C683.022 392.824 683.662 395.8 683.118 399.352ZM676.686 392.056C673.774 392.056 671.79 394.264 671.054 397.4H680.686C681.006 394.328 679.726 392.056 676.686 392.056ZM691.618 407.448C687.682 407.448 684.642 404.856 684.642 400.216C684.642 394.84 687.938 390.04 693.378 390.04C697.378 390.04 700.322 392.824 700.322 397.336C700.322 402.584 697.25 407.448 691.618 407.448ZM687.202 400.184C687.202 403.096 688.706 405.304 691.714 405.304C695.65 405.304 697.73 401.56 697.73 397.336C697.73 394.584 696.386 392.152 693.314 392.152C689.25 392.152 687.202 396.088 687.202 400.184ZM692.77 387.864L694.786 383.8H697.922L694.978 387.864H692.77ZM706.951 390.456L706.471 393.016H706.535C707.911 391.224 710.151 390.072 712.615 390.072C715.879 390.072 717.255 392.088 716.647 395.32L714.375 407H711.847L714.119 395.32C714.503 393.272 713.927 392.216 711.943 392.216C708.903 392.216 706.119 394.776 705.543 397.72L703.751 407H701.191L704.391 390.456H706.951ZM717.691 407L720.891 390.456H723.451L720.251 407H717.691ZM721.499 387.32L722.107 384.12H724.667L724.059 387.32H721.499ZM731.242 407.448C727.146 407.448 724.33 405.016 724.33 400.344C724.33 395.192 727.786 390.04 733.162 390.04C736.874 390.04 739.018 392.12 739.338 395.8H736.746C736.522 393.624 735.434 392.152 733.034 392.152C729.034 392.152 726.922 396.376 726.922 400.408C726.922 403.128 728.106 405.304 731.274 405.304C733.61 405.304 735.434 403.8 736.106 401.176H738.57C737.642 405.176 734.794 407.448 731.242 407.448ZM747.4 407.448C743.464 407.448 740.424 404.856 740.424 400.216C740.424 394.84 743.72 390.04 749.16 390.04C753.16 390.04 756.104 392.824 756.104 397.336C756.104 402.584 753.032 407.448 747.4 407.448ZM742.984 400.184C742.984 403.096 744.488 405.304 747.496 405.304C751.432 405.304 753.512 401.56 753.512 397.336C753.512 394.584 752.168 392.152 749.095 392.152C745.032 392.152 742.984 396.088 742.984 400.184ZM756.62 407L757.228 403.832H760.3L759.692 407H756.62ZM770.63 386.616L771.11 384.12H788.486L788.006 386.616H780.71L776.774 407H773.958L777.894 386.616H770.63ZM796.145 407.16C794.385 407.16 793.873 406.104 793.841 404.888H793.809C792.72 406.296 790.929 407.32 788.593 407.32C785.297 407.32 783.441 405.144 783.441 402.648C783.441 398.424 786.673 397.56 789.969 397.368C794.513 397.112 795.601 396.824 795.601 394.68C795.601 392.632 794.001 392.152 792.209 392.12C789.521 392.088 787.985 393.016 787.536 395.448H784.945C785.521 392.152 788.113 390.104 792.401 390.104C795.601 390.104 798.609 391.608 797.809 395.736L796.305 403.384C796.081 404.6 796.209 405.368 797.745 405.08H797.841L797.457 406.936C797.137 407.032 796.753 407.16 796.145 407.16ZM786.033 402.456C786.033 404.184 787.153 405.336 789.137 405.336C792.337 405.336 794.033 403.128 794.513 400.696L794.961 398.424C793.937 399 792.625 399.096 789.873 399.32C788.593 399.416 786.033 399.608 786.033 402.456ZM799.443 407L803.859 384.12H806.419L802.003 407H799.443ZM805.662 407L810.078 384.12H812.638L808.222 407H805.662ZM827.336 399.352H815.016C814.984 399.672 814.984 399.96 814.984 400.28C814.984 403.224 816.52 405.304 819.56 405.304C821.704 405.304 823.496 404.056 824.232 401.88H826.728C825.448 405.592 822.728 407.448 819.304 407.448C815.464 407.448 812.392 404.76 812.392 400.248C812.392 394.648 816.136 390.04 821 390.04C822.76 390.04 824.136 390.488 825.16 391.256C827.24 392.824 827.88 395.8 827.336 399.352ZM820.904 392.056C817.992 392.056 816.008 394.264 815.272 397.4H824.904C825.224 394.328 823.944 392.056 820.904 392.056ZM70.3624 444L73.5624 427.456H76.1224L72.9224 444H70.3624ZM74.1704 424.32L74.7784 421.12H77.3384L76.7304 424.32H74.1704ZM76.3936 444L79.5936 427.456H82.1536L81.6736 429.984H81.7376C83.0176 428.448 84.7136 427.072 87.1136 427.072C88.8736 427.072 90.1856 428.032 90.5376 430.08H90.6016C92.2336 428.128 94.0896 427.072 96.3296 427.072C98.7936 427.072 100.746 428.48 100.01 432.256L97.7376 444H95.2096L97.5136 432.192C97.9296 430.016 97.0656 429.216 95.4976 429.216C93.1616 429.216 90.7936 431.392 90.2496 434.272L88.3616 444H85.8016L88.1056 432.032C88.4576 430.24 87.8176 429.216 86.1856 429.216C83.8816 429.216 81.3536 431.584 80.8416 434.272L78.9536 444H76.3936ZM100.057 449.312L104.313 427.456H106.873L106.425 429.728H106.489C107.769 428.064 109.625 427.072 111.833 427.072C115.449 427.072 117.657 429.824 117.657 433.92C117.657 438.912 114.937 444.48 109.305 444.48C106.873 444.48 105.113 443.36 104.185 441.504H104.121L102.617 449.312H100.057ZM104.953 437.344C104.921 440.16 106.265 442.336 109.209 442.336C113.305 442.336 115.033 437.76 115.033 434.08C115.033 431.52 114.073 429.248 111.161 429.248C107.161 429.248 104.985 433.408 104.953 437.344ZM134.133 436.352H121.813C121.781 436.672 121.781 436.96 121.781 437.28C121.781 440.224 123.317 442.304 126.357 442.304C128.501 442.304 130.293 441.056 131.029 438.88H133.525C132.245 442.592 129.525 444.448 126.101 444.448C122.261 444.448 119.189 441.76 119.189 437.248C119.189 431.648 122.933 427.04 127.797 427.04C129.557 427.04 130.933 427.488 131.957 428.256C134.037 429.824 134.677 432.8 134.133 436.352ZM127.701 429.056C124.789 429.056 122.805 431.264 122.069 434.4H131.701C132.021 431.328 130.741 429.056 127.701 429.056ZM140.81 427.456L140.298 430.08H140.362C141.61 428.352 143.21 427.264 145.098 427.264C145.898 427.264 146.154 427.328 146.442 427.456L145.962 429.92H145.866C145.514 429.792 145.194 429.76 144.682 429.76C142.186 429.76 139.946 431.744 139.274 435.264L137.61 444H135.05L138.25 427.456H140.81ZM145.55 444L148.75 427.456H151.31L148.11 444H145.55ZM149.358 424.32L149.966 421.12H152.526L151.918 424.32H149.358ZM159.165 444.448C155.229 444.448 152.189 441.856 152.189 437.216C152.189 431.84 155.485 427.04 160.925 427.04C164.925 427.04 167.869 429.824 167.869 434.336C167.869 439.584 164.797 444.448 159.165 444.448ZM154.749 437.184C154.749 440.096 156.253 442.304 159.261 442.304C163.197 442.304 165.277 438.56 165.277 434.336C165.277 431.584 163.933 429.152 160.861 429.152C156.797 429.152 154.749 433.088 154.749 437.184ZM167.617 448.096L167.873 446.656C168.641 446.432 169.473 445.984 169.857 444H168.385L168.993 440.832H172.065L171.393 444.256C170.913 446.72 169.537 447.808 167.617 448.096ZM179.644 444L182.844 427.456H185.404L184.924 429.984H184.988C186.268 428.448 187.964 427.072 190.364 427.072C192.124 427.072 193.436 428.032 193.788 430.08H193.852C195.484 428.128 197.34 427.072 199.58 427.072C202.044 427.072 203.996 428.48 203.26 432.256L200.988 444H198.46L200.764 432.192C201.18 430.016 200.316 429.216 198.748 429.216C196.412 429.216 194.044 431.392 193.5 434.272L191.612 444H189.052L191.356 432.032C191.708 430.24 191.068 429.216 189.436 429.216C187.132 429.216 184.604 431.584 184.092 434.272L182.204 444H179.644ZM214.443 444L214.859 441.696H214.795C213.451 443.296 211.659 444.384 209.227 444.384C205.995 444.384 204.459 442.336 205.099 438.976L207.339 427.456H209.867L207.627 438.944C207.179 441.216 207.819 442.24 209.835 442.24C212.779 442.24 215.243 439.776 215.851 436.704L217.643 427.456H220.203L217.003 444H214.443ZM227.144 444.48C223.56 444.48 220.264 442.656 220.264 438.624H222.728C222.792 441.088 224.456 442.368 227.336 442.368C229.096 442.368 231.08 441.728 231.08 439.392C231.08 438.08 229.96 437.504 227.272 436.448C224.552 435.392 222.312 434.432 222.312 431.584C222.312 428.704 224.712 427.104 228.04 427.104C231.368 427.104 234.152 428.576 234.376 432.288H231.88C231.624 430.016 230.12 429.088 228.04 429.088C226.344 429.088 224.712 429.6 224.712 431.456C224.712 432.8 225.864 433.312 228.52 434.368C231.432 435.52 233.576 436.48 233.576 439.328C233.576 442.912 230.536 444.48 227.144 444.48ZM250.696 436.352H238.376C238.344 436.672 238.344 436.96 238.344 437.28C238.344 440.224 239.88 442.304 242.92 442.304C245.064 442.304 246.856 441.056 247.592 438.88H250.088C248.808 442.592 246.088 444.448 242.664 444.448C238.824 444.448 235.752 441.76 235.752 437.248C235.752 431.648 239.496 427.04 244.36 427.04C246.12 427.04 247.496 427.488 248.52 428.256C250.6 429.824 251.24 432.8 250.696 436.352ZM244.264 429.056C241.352 429.056 239.368 431.264 238.632 434.4H248.264C248.584 431.328 247.304 429.056 244.264 429.056ZM251.708 444L256.124 421.12H258.684L254.268 444H251.708ZM257.831 444L261.031 427.456H263.591L260.391 444H257.831ZM261.639 424.32L262.247 421.12H264.807L264.199 424.32H261.639ZM269.622 427.456L269.142 430.016H269.206C270.582 428.224 272.822 427.072 275.286 427.072C278.55 427.072 279.926 429.088 279.318 432.32L277.046 444H274.518L276.79 432.32C277.174 430.272 276.598 429.216 274.614 429.216C271.574 429.216 268.79 431.776 268.214 434.72L266.422 444H263.862L267.062 427.456H269.622ZM293.066 444.16C291.306 444.16 290.794 443.104 290.762 441.888H290.73C289.642 443.296 287.85 444.32 285.514 444.32C282.218 444.32 280.362 442.144 280.362 439.648C280.362 435.424 283.594 434.56 286.89 434.368C291.434 434.112 292.522 433.824 292.522 431.68C292.522 429.632 290.922 429.152 289.13 429.12C286.442 429.088 284.906 430.016 284.458 432.448H281.866C282.442 429.152 285.034 427.104 289.322 427.104C292.522 427.104 295.53 428.608 294.73 432.736L293.226 440.384C293.002 441.6 293.13 442.368 294.666 442.08H294.762L294.378 443.936C294.058 444.032 293.674 444.16 293.066 444.16ZM282.954 439.456C282.954 441.184 284.074 442.336 286.058 442.336C289.258 442.336 290.954 440.128 291.434 437.696L291.882 435.424C290.858 436 289.546 436.096 286.794 436.32C285.514 436.416 282.954 436.608 282.954 439.456ZM301.362 444L305.778 421.12H308.338L306.706 429.728H306.77C308.05 428.128 309.906 427.072 312.114 427.072C315.73 427.072 317.938 429.824 317.938 433.92C317.938 438.912 315.218 444.48 309.586 444.48C307.154 444.48 305.426 443.424 304.434 441.568H304.37L303.922 444H301.362ZM305.234 437.344C305.202 440.16 306.546 442.336 309.49 442.336C313.586 442.336 315.314 437.76 315.314 434.08C315.314 431.52 314.354 429.248 311.442 429.248C307.442 429.248 305.266 433.408 305.234 437.344ZM318.958 444L323.374 421.12H325.934L321.518 444H318.958ZM337.785 444.16C336.025 444.16 335.513 443.104 335.481 441.888H335.449C334.361 443.296 332.569 444.32 330.233 444.32C326.937 444.32 325.081 442.144 325.081 439.648C325.081 435.424 328.313 434.56 331.609 434.368C336.153 434.112 337.241 433.824 337.241 431.68C337.241 429.632 335.641 429.152 333.849 429.12C331.161 429.088 329.625 430.016 329.177 432.448H326.585C327.161 429.152 329.753 427.104 334.041 427.104C337.241 427.104 340.249 428.608 339.449 432.736L337.945 440.384C337.721 441.6 337.849 442.368 339.385 442.08H339.481L339.097 443.936C338.777 444.032 338.393 444.16 337.785 444.16ZM327.673 439.456C327.673 441.184 328.793 442.336 330.777 442.336C333.977 442.336 335.673 440.128 336.153 437.696L336.601 435.424C335.577 436 334.265 436.096 331.513 436.32C330.233 436.416 327.673 436.608 327.673 439.456ZM346.747 427.456L346.267 430.016H346.331C347.707 428.224 349.947 427.072 352.411 427.072C355.675 427.072 357.051 429.088 356.443 432.32L354.171 444H351.643L353.915 432.32C354.299 430.272 353.723 429.216 351.739 429.216C348.699 429.216 345.915 431.776 345.339 434.72L343.547 444H340.987L344.187 427.456H346.747ZM365.007 444.448C360.911 444.448 358.095 442.016 358.095 437.344C358.095 432.192 361.551 427.04 366.927 427.04C370.639 427.04 372.783 429.12 373.103 432.8H370.511C370.287 430.624 369.199 429.152 366.799 429.152C362.799 429.152 360.687 433.376 360.687 437.408C360.687 440.128 361.871 442.304 365.039 442.304C367.375 442.304 369.199 440.8 369.871 438.176H372.335C371.407 442.176 368.559 444.448 365.007 444.448ZM386.285 444.16C384.525 444.16 384.013 443.104 383.981 441.888H383.949C382.861 443.296 381.069 444.32 378.733 444.32C375.437 444.32 373.581 442.144 373.581 439.648C373.581 435.424 376.813 434.56 380.109 434.368C384.653 434.112 385.741 433.824 385.741 431.68C385.741 429.632 384.141 429.152 382.349 429.12C379.661 429.088 378.125 430.016 377.677 432.448H375.085C375.661 429.152 378.253 427.104 382.541 427.104C385.741 427.104 388.749 428.608 387.949 432.736L386.445 440.384C386.221 441.6 386.349 442.368 387.885 442.08H387.981L387.597 443.936C387.277 444.032 386.893 444.16 386.285 444.16ZM376.173 439.456C376.173 441.184 377.293 442.336 379.277 442.336C382.477 442.336 384.173 440.128 384.653 437.696L385.101 435.424C384.077 436 382.765 436.096 380.013 436.32C378.733 436.416 376.173 436.608 376.173 439.456ZM388.992 448.096L389.248 446.656C390.016 446.432 390.848 445.984 391.232 444H389.76L390.368 440.832H393.44L392.768 444.256C392.288 446.72 390.912 447.808 388.992 448.096ZM408.539 444.448C404.443 444.448 401.627 442.016 401.627 437.344C401.627 432.192 405.083 427.04 410.459 427.04C414.171 427.04 416.315 429.12 416.635 432.8H414.043C413.819 430.624 412.731 429.152 410.331 429.152C406.331 429.152 404.219 433.376 404.219 437.408C404.219 440.128 405.403 442.304 408.571 442.304C410.907 442.304 412.731 440.8 413.403 438.176H415.867C414.939 442.176 412.091 444.448 408.539 444.448ZM424.696 444.448C420.76 444.448 417.72 441.856 417.72 437.216C417.72 431.84 421.016 427.04 426.456 427.04C430.456 427.04 433.4 429.824 433.4 434.336C433.4 439.584 430.328 444.448 424.696 444.448ZM420.28 437.184C420.28 440.096 421.784 442.304 424.792 442.304C428.728 442.304 430.808 438.56 430.808 434.336C430.808 431.584 429.464 429.152 426.392 429.152C422.328 429.152 420.28 433.088 420.28 437.184ZM440.029 427.456L439.517 430.08H439.581C440.829 428.352 442.429 427.264 444.317 427.264C445.117 427.264 445.373 427.328 445.661 427.456L445.181 429.92H445.085C444.733 429.792 444.413 429.76 443.901 429.76C441.405 429.76 439.165 431.744 438.493 435.264L436.829 444H434.269L437.469 427.456H440.029ZM446.529 429.536L446.945 427.456H449.281L450.305 422.24H452.865L451.841 427.456H455.009L454.593 429.536H451.425L449.409 440.032C449.153 441.312 449.601 441.888 450.849 441.888C451.489 441.888 452.033 441.728 452.321 441.6H452.417L451.969 443.84C451.521 444 450.881 444.096 450.177 444.096C447.617 444.096 446.305 442.688 446.849 439.936L448.865 429.536H446.529ZM469.821 436.352H457.501C457.469 436.672 457.469 436.96 457.469 437.28C457.469 440.224 459.005 442.304 462.045 442.304C464.189 442.304 465.981 441.056 466.717 438.88H469.213C467.933 442.592 465.213 444.448 461.789 444.448C457.949 444.448 454.877 441.76 454.877 437.248C454.877 431.648 458.621 427.04 463.485 427.04C465.245 427.04 466.621 427.488 467.645 428.256C469.725 429.824 470.365 432.8 469.821 436.352ZM463.389 429.056C460.477 429.056 458.493 431.264 457.757 434.4H467.389C467.709 431.328 466.429 429.056 463.389 429.056ZM483.351 444.448C479.255 444.448 476.439 442.016 476.439 437.344C476.439 432.192 479.895 427.04 485.271 427.04C488.983 427.04 491.127 429.12 491.447 432.8H488.855C488.631 430.624 487.543 429.152 485.143 429.152C481.143 429.152 479.031 433.376 479.031 437.408C479.031 440.128 480.215 442.304 483.383 442.304C485.719 442.304 487.543 440.8 488.215 438.176H490.679C489.751 442.176 486.903 444.448 483.351 444.448ZM499.509 444.448C495.573 444.448 492.533 441.856 492.533 437.216C492.533 431.84 495.829 427.04 501.269 427.04C505.269 427.04 508.213 429.824 508.213 434.336C508.213 439.584 505.141 444.448 499.509 444.448ZM495.093 437.184C495.093 440.096 496.597 442.304 499.605 442.304C503.541 442.304 505.621 438.56 505.621 434.336C505.621 431.584 504.277 429.152 501.205 429.152C497.141 429.152 495.093 433.088 495.093 437.184ZM509.177 444L513.593 421.12H516.153L511.737 444H509.177ZM525.412 444L525.828 441.696H525.764C524.42 443.296 522.628 444.384 520.196 444.384C516.964 444.384 515.428 442.336 516.068 438.976L518.308 427.456H520.836L518.596 438.944C518.148 441.216 518.788 442.24 520.804 442.24C523.748 442.24 526.212 439.776 526.82 436.704L528.612 427.456H531.172L527.972 444H525.412ZM531.425 444L534.625 427.456H537.185L536.705 429.984H536.769C538.049 428.448 539.745 427.072 542.145 427.072C543.905 427.072 545.217 428.032 545.569 430.08H545.633C547.265 428.128 549.121 427.072 551.361 427.072C553.825 427.072 555.777 428.48 555.041 432.256L552.769 444H550.241L552.545 432.192C552.961 430.016 552.097 429.216 550.529 429.216C548.193 429.216 545.825 431.392 545.281 434.272L543.393 444H540.833L543.137 432.032C543.489 430.24 542.849 429.216 541.217 429.216C538.913 429.216 536.385 431.584 535.873 434.272L533.985 444H531.425ZM561.872 427.456L561.392 430.016H561.456C562.832 428.224 565.072 427.072 567.536 427.072C570.8 427.072 572.176 429.088 571.568 432.32L569.296 444H566.768L569.04 432.32C569.424 430.272 568.848 429.216 566.864 429.216C563.824 429.216 561.04 431.776 560.464 434.72L558.672 444H556.112L559.312 427.456H561.872ZM585.316 444.16C583.556 444.16 583.044 443.104 583.012 441.888H582.98C581.892 443.296 580.1 444.32 577.764 444.32C574.468 444.32 572.612 442.144 572.612 439.648C572.612 435.424 575.844 434.56 579.14 434.368C583.684 434.112 584.772 433.824 584.772 431.68C584.772 429.632 583.172 429.152 581.38 429.12C578.692 429.088 577.156 430.016 576.708 432.448H574.116C574.692 429.152 577.284 427.104 581.572 427.104C584.772 427.104 587.78 428.608 586.98 432.736L585.476 440.384C585.252 441.6 585.38 442.368 586.916 442.08H587.012L586.628 443.936C586.308 444.032 585.924 444.16 585.316 444.16ZM575.204 439.456C575.204 441.184 576.324 442.336 578.308 442.336C581.508 442.336 583.204 440.128 583.684 437.696L584.132 435.424C583.108 436 581.796 436.096 579.044 436.32C577.764 436.416 575.204 436.608 575.204 439.456ZM588.024 448.096L588.28 446.656C589.048 446.432 589.88 445.984 590.264 444H588.792L589.4 440.832H592.472L591.8 444.256C591.32 446.72 589.944 447.808 588.024 448.096ZM607.57 444.448C603.474 444.448 600.658 442.016 600.658 437.344C600.658 432.192 604.114 427.04 609.49 427.04C613.202 427.04 615.346 429.12 615.666 432.8H613.074C612.85 430.624 611.762 429.152 609.362 429.152C605.362 429.152 603.25 433.376 603.25 437.408C603.25 440.128 604.434 442.304 607.602 442.304C609.938 442.304 611.762 440.8 612.434 438.176H614.898C613.97 442.176 611.122 444.448 607.57 444.448ZM623.12 421.12L621.392 430.048H621.456C622.832 428.256 625.104 427.072 627.568 427.072C630.832 427.072 632.208 429.088 631.6 432.32L629.328 444H626.8L629.072 432.32C629.456 430.272 628.88 429.216 626.896 429.216C623.856 429.216 621.072 431.776 620.496 434.72L618.704 444H616.144L620.56 421.12H623.12ZM645.348 444.16C643.588 444.16 643.076 443.104 643.044 441.888H643.012C641.924 443.296 640.132 444.32 637.796 444.32C634.5 444.32 632.644 442.144 632.644 439.648C632.644 435.424 635.876 434.56 639.172 434.368C643.716 434.112 644.804 433.824 644.804 431.68C644.804 429.632 643.204 429.152 641.412 429.12C638.724 429.088 637.188 430.016 636.74 432.448H634.148C634.724 429.152 637.316 427.104 641.604 427.104C644.804 427.104 647.812 428.608 647.012 432.736L645.508 440.384C645.284 441.6 645.412 442.368 646.948 442.08H647.044L646.66 443.936C646.34 444.032 645.956 444.16 645.348 444.16ZM635.236 439.456C635.236 441.184 636.356 442.336 638.34 442.336C641.54 442.336 643.236 440.128 643.716 437.696L644.164 435.424C643.14 436 641.828 436.096 639.076 436.32C637.796 436.416 635.236 436.608 635.236 439.456ZM648.646 444L653.062 421.12H655.622L651.206 444H648.646ZM667.382 444.448C663.286 444.448 660.47 442.016 660.47 437.344C660.47 432.192 663.926 427.04 669.302 427.04C673.014 427.04 675.158 429.12 675.478 432.8H672.886C672.662 430.624 671.574 429.152 669.174 429.152C665.174 429.152 663.062 433.376 663.062 437.408C663.062 440.128 664.246 442.304 667.414 442.304C669.75 442.304 671.574 440.8 672.246 438.176H674.71C673.782 442.176 670.934 444.448 667.382 444.448ZM688.66 444.16C686.9 444.16 686.388 443.104 686.356 441.888H686.324C685.236 443.296 683.444 444.32 681.108 444.32C677.812 444.32 675.956 442.144 675.956 439.648C675.956 435.424 679.188 434.56 682.484 434.368C687.028 434.112 688.116 433.824 688.116 431.68C688.116 429.632 686.516 429.152 684.724 429.12C682.036 429.088 680.5 430.016 680.052 432.448H677.46C678.036 429.152 680.628 427.104 684.916 427.104C688.116 427.104 691.124 428.608 690.324 432.736L688.82 440.384C688.596 441.6 688.724 442.368 690.26 442.08H690.356L689.972 443.936C689.652 444.032 689.268 444.16 688.66 444.16ZM678.548 439.456C678.548 441.184 679.668 442.336 681.652 442.336C684.852 442.336 686.548 440.128 687.028 437.696L687.476 435.424C686.452 436 685.14 436.096 682.388 436.32C681.108 436.416 678.548 436.608 678.548 439.456ZM699.226 444.448C695.13 444.448 692.314 442.016 692.314 437.344C692.314 432.192 695.77 427.04 701.146 427.04C704.858 427.04 707.002 429.12 707.322 432.8H704.73C704.506 430.624 703.418 429.152 701.018 429.152C697.018 429.152 694.906 433.376 694.906 437.408C694.906 440.128 696.09 442.304 699.258 442.304C701.594 442.304 703.418 440.8 704.09 438.176H706.554C705.626 442.176 702.778 444.448 699.226 444.448ZM714.776 421.12L713.048 430.048H713.112C714.488 428.256 716.76 427.072 719.224 427.072C722.488 427.072 723.864 429.088 723.256 432.32L720.984 444H718.456L720.728 432.32C721.112 430.272 720.536 429.216 718.552 429.216C715.512 429.216 712.728 431.776 712.152 434.72L710.36 444H707.8L712.216 421.12H714.776ZM739.852 436.352H727.532C727.5 436.672 727.5 436.96 727.5 437.28C727.5 440.224 729.036 442.304 732.076 442.304C734.22 442.304 736.012 441.056 736.748 438.88H739.244C737.964 442.592 735.244 444.448 731.82 444.448C727.98 444.448 724.908 441.76 724.908 437.248C724.908 431.648 728.652 427.04 733.516 427.04C735.276 427.04 736.652 427.488 737.676 428.256C739.756 429.824 740.396 432.8 739.852 436.352ZM733.42 429.056C730.508 429.056 728.524 431.264 727.788 434.4H737.42C737.74 431.328 736.46 429.056 733.42 429.056ZM740.769 444L743.969 427.456H746.529L746.049 429.984H746.113C747.393 428.448 749.089 427.072 751.489 427.072C753.249 427.072 754.561 428.032 754.913 430.08H754.977C756.609 428.128 758.465 427.072 760.705 427.072C763.169 427.072 765.121 428.48 764.385 432.256L762.113 444H759.585L761.889 432.192C762.305 430.016 761.441 429.216 759.873 429.216C757.537 429.216 755.169 431.392 754.625 434.272L752.737 444H750.177L752.481 432.032C752.833 430.24 752.193 429.216 750.561 429.216C748.257 429.216 745.729 431.584 745.217 434.272L743.329 444H740.769ZM765.456 444L768.656 427.456H771.216L768.016 444H765.456ZM769.264 424.32L769.872 421.12H772.432L771.824 424.32H769.264ZM777.247 427.456L776.735 430.08H776.799C778.047 428.352 779.647 427.264 781.535 427.264C782.335 427.264 782.591 427.328 782.879 427.456L782.399 429.92H782.303C781.951 429.792 781.631 429.76 781.119 429.76C778.623 429.76 776.383 431.744 775.711 435.264L774.047 444H771.487L774.687 427.456H777.247ZM779.729 444L780.337 440.832H783.409L782.801 444H779.729Z" fill="#141414"/>
<path d="M105.077 176.6V175.4H141.877V176.6C128.677 176.6 126.677 188.6 126.677 209.4V322.6H125.477L39.8766 187.8V291.6C39.8766 308.2 41.8766 319.8 56.8766 319.8V321H18.6766V319.8C33.0766 319.8 36.2766 308.2 36.2766 291.6V197C36.2766 184 32.2766 178.2 18.6766 176.6V175.4H45.2766L123.077 297.8V209.4C123.077 188.6 120.277 176.6 105.077 176.6ZM224.895 297.4L226.095 298.2C219.695 309 207.495 323.4 187.095 323.4C162.095 323.4 145.695 300.6 145.695 270C145.695 236.6 167.295 213.8 191.295 213.8C210.295 213.8 226.895 227.8 225.895 252.6H157.695C156.895 256.8 156.495 261 156.495 265.4C156.495 292.4 168.895 315.8 191.695 315.8C206.895 315.8 218.495 306.8 224.895 297.4ZM190.095 216.6C174.295 216.6 162.695 231 158.295 249.4H212.695C214.095 229.6 206.495 216.6 190.095 216.6ZM281.567 323.4C254.367 323.4 234.367 302.6 234.367 269C234.367 235.8 255.167 213.8 281.967 213.8C309.167 213.8 329.167 234.6 329.167 268.2C329.167 301.4 308.367 323.4 281.567 323.4ZM281.967 320.6C304.567 320.6 317.967 299.6 317.967 268.6C317.967 238.8 304.167 216.6 281.567 216.6C258.967 216.6 245.567 237.6 245.567 268.6C245.567 298.4 259.367 320.6 281.967 320.6ZM380.65 323.4C355.65 323.4 339.25 300.6 339.25 270C339.25 236.6 360.85 213.8 384.85 213.8C398.65 213.8 411.65 221 418.05 231.2L411.85 240.6H410.65C406.25 225.8 398.45 216.6 384.85 216.6C363.45 216.6 350.05 240 350.05 265.4C350.05 292.4 362.45 315.8 385.25 315.8C400.45 315.8 412.05 306.8 418.45 297.4L419.65 298.2C413.25 309 401.05 323.4 380.65 323.4ZM452.173 321H424.573V319.8C432.773 319.8 433.373 313 433.373 300.2V189.8C433.373 177 429.973 172.2 423.173 171V169.8L442.573 164.6H443.373V300.2C443.373 313 443.973 319.8 452.173 319.8V321ZM515.53 169.6C513.93 172 495.73 193.2 488.33 203.8L487.53 203.2C493.73 191.8 504.93 166.4 506.33 163.8C507.33 161.8 509.13 160.8 511.13 160.8C513.93 160.8 516.53 163.2 516.53 166.2C516.53 167.4 516.13 168.6 515.53 169.6ZM539.13 310.6L540.33 311.4C537.13 317.4 531.33 323.4 524.73 323.4C516.13 323.4 514.53 313.4 514.33 306C505.33 316.6 493.33 323.4 482.13 323.4C468.53 323.4 458.93 314.8 458.93 302.6C458.93 288.6 470.13 278.8 494.53 271.8L513.93 266.4V249C513.93 243.2 513.93 220.8 493.13 220.8C479.53 220.8 469.93 230.4 463.33 243L462.13 242.4C464.53 234.4 474.13 213.8 497.33 213.8C515.73 213.8 523.93 227 523.93 244.6V300.2C523.93 308.2 524.33 315.4 530.73 315.4C534.93 315.4 537.93 312.2 539.13 310.6ZM487.73 316.2C497.53 316.2 507.93 309.4 513.93 304.2V269.2L496.53 274.6C476.13 281 469.93 287.4 469.93 299C469.93 309.2 477.13 316.2 487.73 316.2ZM575.486 323.4C564.486 323.4 553.886 320.4 546.886 316.6L545.286 294H546.486C553.286 312.2 562.686 320.6 577.086 320.6C589.886 320.6 601.686 313.8 601.686 299.4C601.686 286.6 593.486 282 577.286 273.2L569.886 269.2C558.086 262.8 548.286 256.4 548.286 241.2C548.286 224.4 561.086 213.8 579.086 213.8C587.286 213.8 597.486 215.8 604.886 220.2V238.8H603.686C599.486 223.8 589.086 216.6 577.886 216.6C565.086 216.6 556.086 224.6 556.086 236.6C556.086 248.2 564.686 254 575.286 259.6L582.686 263.6C597.886 271.8 609.486 277.4 609.486 294.2C609.486 311.8 595.486 323.4 575.486 323.4ZM628.752 195.4C623.952 195.4 619.952 191.4 619.952 186.6C619.952 181.8 623.952 177.8 628.752 177.8C633.552 177.8 637.552 181.8 637.552 186.6C637.552 191.4 633.552 195.4 628.752 195.4ZM645.352 321H617.752V319.8C625.952 319.8 626.552 313 626.552 300.2V241C626.552 228.2 623.152 223.4 616.352 222.2V221L635.752 214.2H636.552V300.2C636.552 313 637.152 319.8 645.352 319.8V321ZM695.494 323.4C670.494 323.4 654.094 300.6 654.094 270C654.094 236.6 675.694 213.8 699.694 213.8C713.494 213.8 726.494 221 732.894 231.2L726.694 240.6H725.494C721.094 225.8 713.294 216.6 699.694 216.6C678.294 216.6 664.894 240 664.894 265.4C664.894 292.4 677.294 315.8 700.094 315.8C715.294 315.8 726.894 306.8 733.294 297.4L734.494 298.2C728.094 309 715.894 323.4 695.494 323.4ZM786.841 323.4C759.641 323.4 739.641 302.6 739.641 269C739.641 235.8 760.441 213.8 787.241 213.8C814.441 213.8 834.441 234.6 834.441 268.2C834.441 301.4 813.641 323.4 786.841 323.4ZM787.241 320.6C809.841 320.6 823.241 299.6 823.241 268.6C823.241 238.8 809.441 216.6 786.841 216.6C764.241 216.6 750.841 237.6 750.841 268.6C750.841 298.4 764.641 320.6 787.241 320.6Z" fill="#B9D6FE"/>
<path d="M623.576 48.5271C623.467 48.4925 623.383 48.4944 623.319 48.5124C623.258 48.5297 623.183 48.5711 623.103 48.6736C622.941 48.879 622.889 49.1977 622.989 49.6365C623.088 50.0685 623.318 50.5327 623.585 50.9187C624.589 52.3683 626.022 53.4286 627.477 54.2957C629.163 55.3004 630.898 56.0546 632.706 56.7146L632.568 57.6833C631.784 57.7358 631.058 57.5864 630.396 57.4832C630.01 57.4231 629.63 57.3259 629.294 57.2498C628.946 57.1709 628.626 57.1092 628.301 57.0935L619.973 56.6912C619.366 56.6619 618.894 56.7107 618.478 56.9919C617.95 57.3483 617.233 57.7258 616.403 57.4636C616.357 57.4491 616.324 57.4423 616.302 57.4382C616.223 57.5317 616.009 57.8059 615.607 57.9529C615.065 58.1514 614.527 58.2566 613.978 58.3152C613.813 58.3327 613.668 58.3783 613.575 58.4343C613.531 58.4608 613.511 58.4826 613.503 58.4929C613.502 58.4945 613.501 58.4959 613.5 58.4968L613.499 58.4988L613.5 58.4978C613.498 58.5176 613.501 58.5265 613.504 58.533C613.508 58.5423 613.521 58.5624 613.555 58.5886C613.627 58.6452 613.759 58.6998 613.929 58.7146C614.268 58.7441 614.711 58.7961 615.128 58.9109C615.53 59.0215 615.995 59.2127 616.295 59.5818C616.298 59.5856 616.303 59.5881 616.306 59.5915C616.675 59.4742 617.011 59.4618 617.327 59.5232C617.664 59.5888 617.953 59.7336 618.192 59.864C618.696 60.1382 619.035 60.3582 619.561 60.3347L628.129 59.9509C628.501 59.9342 628.865 59.8689 629.25 59.7869C629.624 59.7073 630.04 59.6055 630.459 59.5388C631.124 59.433 631.835 59.2955 632.61 59.3347L632.748 60.3064C630.739 61.0002 628.809 61.8792 626.965 63.0691C625.711 63.8782 624.42 64.9519 623.622 66.2771C623.399 66.6478 623.227 67.0971 623.17 67.5037C623.111 67.9241 623.185 68.1994 623.314 68.3445C623.418 68.4603 623.495 68.4889 623.539 68.4968C623.586 68.5052 623.657 68.5008 623.763 68.449C623.993 68.3359 624.275 68.0511 624.54 67.6316C625.296 66.4357 626.128 65.3924 627.101 64.4412C629.377 62.2135 631.99 60.6412 634.817 59.7615L634.826 59.7585L634.835 59.7566L638.476 58.7644L639.206 58.5007C639.167 58.485 639.127 58.4671 639.083 58.4509C638.713 58.3147 638.271 58.2054 637.947 58.1208L635.269 57.4207C632.69 56.7468 630.336 55.3742 628.185 53.5789C626.711 52.349 625.443 50.8919 624.34 49.196C624.096 48.8215 623.806 48.5999 623.576 48.5271Z" fill="#141414" stroke="#141414"/>
<circle cx="20.5" cy="20.5" r="20" transform="matrix(1 8.74228e-08 8.74228e-08 -1 604.999 78.9998)" stroke="#141414"/>
<path d="M233.424 48.5271C233.533 48.4925 233.617 48.4944 233.681 48.5124C233.742 48.5297 233.817 48.5711 233.897 48.6736C234.059 48.879 234.111 49.1977 234.011 49.6365C233.912 50.0685 233.682 50.5327 233.415 50.9187C232.411 52.3683 230.978 53.4286 229.523 54.2957C227.837 55.3004 226.102 56.0546 224.294 56.7146L224.432 57.6833C225.216 57.7358 225.942 57.5864 226.604 57.4832C226.99 57.4231 227.37 57.3259 227.706 57.2498C228.054 57.1709 228.374 57.1092 228.699 57.0935L237.027 56.6912C237.634 56.6619 238.106 56.7107 238.522 56.9919C239.05 57.3483 239.767 57.7258 240.597 57.4636C240.643 57.4491 240.676 57.4423 240.698 57.4382C240.777 57.5317 240.991 57.8059 241.393 57.9529C241.935 58.1514 242.473 58.2566 243.022 58.3152C243.187 58.3327 243.332 58.3783 243.425 58.4343C243.469 58.4608 243.489 58.4826 243.497 58.4929C243.498 58.4945 243.499 58.4959 243.5 58.4968L243.501 58.4988L243.5 58.4978C243.502 58.5176 243.499 58.5265 243.496 58.533C243.492 58.5423 243.479 58.5624 243.445 58.5886C243.373 58.6452 243.241 58.6998 243.071 58.7146C242.732 58.7441 242.289 58.7961 241.872 58.9109C241.47 59.0215 241.005 59.2127 240.705 59.5818C240.702 59.5856 240.697 59.5881 240.694 59.5915C240.325 59.4742 239.989 59.4618 239.673 59.5232C239.336 59.5888 239.047 59.7336 238.808 59.864C238.304 60.1382 237.965 60.3582 237.439 60.3347L228.871 59.9509C228.499 59.9342 228.135 59.8689 227.75 59.7869C227.376 59.7073 226.96 59.6055 226.541 59.5388C225.876 59.433 225.165 59.2955 224.39 59.3347L224.252 60.3064C226.261 61.0002 228.191 61.8792 230.035 63.0691C231.289 63.8782 232.58 64.9519 233.378 66.2771C233.601 66.6478 233.773 67.0971 233.83 67.5037C233.889 67.9241 233.815 68.1994 233.686 68.3445C233.582 68.4603 233.505 68.4889 233.461 68.4968C233.414 68.5052 233.343 68.5008 233.237 68.449C233.007 68.3359 232.725 68.0511 232.46 67.6316C231.704 66.4357 230.872 65.3924 229.899 64.4412C227.623 62.2135 225.01 60.6412 222.183 59.7615L222.174 59.7585L222.165 59.7566L218.524 58.7644L217.794 58.5007C217.833 58.485 217.873 58.4671 217.917 58.4509C218.287 58.3147 218.729 58.2054 219.053 58.1208L221.731 57.4207C224.31 56.7468 226.664 55.3742 228.815 53.5789C230.289 52.349 231.557 50.8919 232.66 49.196C232.904 48.8215 233.194 48.5999 233.424 48.5271Z" fill="#141414" stroke="#141414"/>
<circle cx="231.501" cy="58.4998" r="20" transform="rotate(180 231.501 58.4998)" stroke="#141414"/>
</svg>

