<svg width="856" height="451" viewBox="0 0 856 451" fill="none" xmlns="http://www.w3.org/2000/svg">
<path d="M317.079 28.896L308.503 69.216C307.415 74.4 308.695 75.616 313.047 75.616L312.983 76H297.623L297.687 75.616C302.039 75.616 304.215 74.4 305.303 69.216L311.959 37.92C309.655 39.264 306.583 40.352 303.767 40.8L303.831 40.416C310.487 37.984 313.495 34.528 316.695 28.896H317.079ZM336.209 51.168L337.041 51.616C339.857 53.216 345.425 56.416 345.425 62.816C345.425 70.048 338.769 76.768 329.169 76.768C322.065 76.768 316.241 73.12 316.241 66.016C316.241 58.464 322.769 54.56 330.385 52C327.313 50.08 323.729 46.752 323.729 41.632C323.729 34.464 330.129 28.64 337.809 28.64C343.697 28.64 348.561 32.096 348.561 38.24C348.561 44.96 342.801 48.864 336.209 51.168ZM326.801 40.288C326.801 45.6 331.473 48.48 333.969 49.888L335.505 50.72C341.585 47.904 345.745 43.616 345.745 37.664C345.745 32.928 343.057 29.536 337.873 29.536C331.409 29.536 326.801 34.72 326.801 40.288ZM329.361 75.872C337.233 75.872 342.289 70.432 342.289 64.352C342.289 58.912 337.873 56.288 334.609 54.432L331.537 52.704L331.089 52.448C324.241 55.136 319.121 59.808 319.121 66.592C319.121 72.928 323.537 75.872 329.361 75.872ZM367.791 49.056L365.999 49.952C371.951 51.744 375.663 56.16 375.663 61.472C375.663 69.216 368.495 76.768 359.215 76.768C354.351 76.768 349.807 74.656 347.375 72.48L349.551 65.568H349.935C350.127 72.096 353.775 75.872 359.471 75.872C366.703 75.872 372.207 69.728 372.207 63.136C372.207 57.824 368.751 53.92 361.903 52.384L360.751 52.128L360.687 51.68L362.991 50.592C366.255 49.056 374.895 44.96 374.895 37.536C374.895 33.376 372.207 30.944 367.855 30.944C361.967 30.944 357.807 35.552 356.399 39.392L356.015 39.328C357.871 33.568 362.799 28.64 369.711 28.64C375.151 28.64 378.351 31.648 378.351 36.256C378.351 41.888 373.423 46.24 367.791 49.056ZM393.716 76.768C385.332 76.768 380.98 70.56 380.98 60.768C380.98 46.112 388.98 28.64 401.908 28.64C410.292 28.64 414.644 34.784 414.644 44.576C414.644 59.296 406.708 76.768 393.716 76.768ZM393.78 75.872C404.788 75.872 411.252 56.8 411.252 43.36C411.252 35.232 408.436 29.536 401.844 29.536C390.9 29.536 384.372 48.544 384.372 61.984C384.372 70.176 387.188 75.872 393.78 75.872ZM443.241 57.952H430.249L430.761 55.904H443.753L443.241 57.952ZM476.079 28.896L467.503 69.216C466.415 74.4 467.695 75.616 472.047 75.616L471.983 76H456.623L456.687 75.616C461.039 75.616 463.215 74.4 464.303 69.216L470.959 37.92C468.655 39.264 465.583 40.352 462.767 40.8L462.831 40.416C469.487 37.984 472.495 34.528 475.695 28.896H476.079ZM495.209 51.168L496.041 51.616C498.857 53.216 504.425 56.416 504.425 62.816C504.425 70.048 497.769 76.768 488.169 76.768C481.065 76.768 475.241 73.12 475.241 66.016C475.241 58.464 481.769 54.56 489.385 52C486.313 50.08 482.729 46.752 482.729 41.632C482.729 34.464 489.129 28.64 496.809 28.64C502.697 28.64 507.561 32.096 507.561 38.24C507.561 44.96 501.801 48.864 495.209 51.168ZM485.801 40.288C485.801 45.6 490.473 48.48 492.969 49.888L494.505 50.72C500.585 47.904 504.745 43.616 504.745 37.664C504.745 32.928 502.057 29.536 496.873 29.536C490.409 29.536 485.801 34.72 485.801 40.288ZM488.361 75.872C496.233 75.872 501.289 70.432 501.289 64.352C501.289 58.912 496.873 56.288 493.609 54.432L490.537 52.704L490.089 52.448C483.241 55.136 478.121 59.808 478.121 66.592C478.121 72.928 482.537 75.872 488.361 75.872ZM512.092 37.664L514.908 29.408H541.084V29.664C529.564 44.512 518.94 60.448 516.188 76H511.964C516.508 60.64 526.492 46.24 538.076 32.48H523.292C516.252 32.48 515.548 32.8 512.476 37.664H512.092ZM548.653 76.768C540.269 76.768 535.917 70.56 535.917 60.768C535.917 46.112 543.917 28.64 556.845 28.64C565.229 28.64 569.581 34.784 569.581 44.576C569.581 59.296 561.645 76.768 548.653 76.768ZM548.717 75.872C559.725 75.872 566.189 56.8 566.189 43.36C566.189 35.232 563.373 29.536 556.781 29.536C545.837 29.536 539.309 48.544 539.309 61.984C539.309 70.176 542.125 75.872 548.717 75.872Z" fill="#141414"/>
<path d="M39.1214 407L43.5374 384.12H50.7054C56.8814 384.12 59.7614 387.704 59.7614 393.24C59.7614 400.664 55.5694 407 47.3454 407H39.1214ZM42.4174 404.504H47.2814C53.8094 404.504 56.8494 399.608 56.8494 393.432C56.8494 389.272 55.0574 386.584 50.5454 386.584H45.8734L42.4174 404.504ZM75.9769 399.352H63.6569C63.6249 399.672 63.6249 399.96 63.6249 400.28C63.6249 403.224 65.1609 405.304 68.2009 405.304C70.3449 405.304 72.1369 404.056 72.8729 401.88H75.3689C74.0889 405.592 71.3689 407.448 67.9449 407.448C64.1049 407.448 61.0329 404.76 61.0329 400.248C61.0329 394.648 64.7769 390.04 69.6409 390.04C71.4009 390.04 72.7769 390.488 73.8009 391.256C75.8809 392.824 76.5209 395.8 75.9769 399.352ZM69.5449 392.056C66.6329 392.056 64.6489 394.264 63.9129 397.4H73.5449C73.8649 394.328 72.5849 392.056 69.5449 392.056ZM76.9896 407L81.4056 384.12H83.9656L79.5496 407H76.9896ZM93.9661 390.456L93.4541 393.08H93.5181C94.7661 391.352 96.3661 390.264 98.2541 390.264C99.0541 390.264 99.3101 390.328 99.5981 390.456L99.1181 392.92H99.0221C98.6701 392.792 98.3501 392.76 97.8381 392.76C95.3421 392.76 93.1021 394.744 92.4301 398.264L90.7661 407H88.2061L91.4061 390.456H93.9661ZM113.946 399.352H101.626C101.594 399.672 101.594 399.96 101.594 400.28C101.594 403.224 103.13 405.304 106.17 405.304C108.314 405.304 110.106 404.056 110.842 401.88H113.338C112.058 405.592 109.338 407.448 105.914 407.448C102.074 407.448 99.0016 404.76 99.0016 400.248C99.0016 394.648 102.746 390.04 107.61 390.04C109.37 390.04 110.746 390.488 111.77 391.256C113.85 392.824 114.49 395.8 113.946 399.352ZM107.514 392.056C104.602 392.056 102.618 394.264 101.882 397.4H111.514C111.834 394.328 110.554 392.056 107.514 392.056ZM114.862 407L118.062 390.456H120.622L117.422 407H114.862ZM118.67 387.32L119.278 384.12H121.838L121.23 387.32H118.67ZM126.654 390.456L126.174 393.016H126.238C127.614 391.224 129.854 390.072 132.318 390.072C135.582 390.072 136.958 392.088 136.35 395.32L134.078 407H131.55L133.822 395.32C134.206 393.272 133.63 392.216 131.646 392.216C128.606 392.216 125.822 394.776 125.246 397.72L123.454 407H120.894L124.094 390.456H126.654ZM150.098 407.16C148.338 407.16 147.826 406.104 147.794 404.888H147.762C146.674 406.296 144.882 407.32 142.546 407.32C139.25 407.32 137.394 405.144 137.394 402.648C137.394 398.424 140.626 397.56 143.922 397.368C148.466 397.112 149.554 396.824 149.554 394.68C149.554 392.632 147.954 392.152 146.162 392.12C143.474 392.088 141.938 393.016 141.49 395.448H138.898C139.474 392.152 142.066 390.104 146.354 390.104C149.554 390.104 152.562 391.608 151.762 395.736L150.258 403.384C150.034 404.6 150.162 405.368 151.698 405.08H151.794L151.41 406.936C151.09 407.032 150.706 407.16 150.098 407.16ZM139.986 402.456C139.986 404.184 141.106 405.336 143.09 405.336C146.29 405.336 147.986 403.128 148.466 400.696L148.914 398.424C147.89 399 146.578 399.096 143.826 399.32C142.546 399.416 139.986 399.608 139.986 402.456ZM160.024 407.48C156.28 407.48 153.72 404.984 153.752 400.568C153.784 395.736 156.76 390.072 162.456 390.072C164.632 390.072 166.232 391.064 167.256 392.984H167.32L169.016 384.12H171.576L167.16 407H164.6L164.952 405.208H164.888C163.64 406.616 162.04 407.48 160.024 407.48ZM156.344 400.44C156.344 403.032 157.4 405.336 160.376 405.336C164.6 405.336 166.488 400.888 166.488 396.792C166.488 394.264 165.048 392.248 162.36 392.248C158.296 392.248 156.344 396.952 156.344 400.44ZM178.196 407.448C174.26 407.448 171.22 404.856 171.22 400.216C171.22 394.84 174.516 390.04 179.956 390.04C183.956 390.04 186.9 392.824 186.9 397.336C186.9 402.584 183.828 407.448 178.196 407.448ZM173.78 400.184C173.78 403.096 175.284 405.304 178.292 405.304C182.228 405.304 184.308 401.56 184.308 397.336C184.308 394.584 182.964 392.152 179.892 392.152C175.828 392.152 173.78 396.088 173.78 400.184ZM199.742 407.48C195.998 407.48 193.438 404.984 193.47 400.568C193.502 395.736 196.478 390.072 202.174 390.072C204.35 390.072 205.95 391.064 206.974 392.984H207.038L208.734 384.12H211.294L206.878 407H204.318L204.67 405.208H204.606C203.358 406.616 201.758 407.48 199.742 407.48ZM196.062 400.44C196.062 403.032 197.118 405.336 200.094 405.336C204.318 405.336 206.206 400.888 206.206 396.792C206.206 394.264 204.766 392.248 202.078 392.248C198.014 392.248 196.062 396.952 196.062 400.44ZM225.883 399.352H213.563C213.531 399.672 213.531 399.96 213.531 400.28C213.531 403.224 215.067 405.304 218.107 405.304C220.251 405.304 222.043 404.056 222.779 401.88H225.275C223.995 405.592 221.275 407.448 217.851 407.448C214.011 407.448 210.939 404.76 210.939 400.248C210.939 394.648 214.683 390.04 219.547 390.04C221.307 390.04 222.683 390.488 223.707 391.256C225.787 392.824 226.427 395.8 225.883 399.352ZM219.451 392.056C216.539 392.056 214.555 394.264 213.819 397.4H223.451C223.771 394.328 222.491 392.056 219.451 392.056ZM232.278 407L236.694 384.12H239.51L235.606 404.376H247.094L246.582 407H232.278ZM258.787 407L259.203 404.696H259.139C257.795 406.296 256.003 407.384 253.571 407.384C250.339 407.384 248.803 405.336 249.443 401.976L251.683 390.456H254.211L251.971 401.944C251.523 404.216 252.163 405.24 254.179 405.24C257.123 405.24 259.587 402.776 260.195 399.704L261.987 390.456H264.547L261.347 407H258.787ZM264.8 407L268 390.456H270.56L267.36 407H264.8ZM268.608 387.32L269.216 384.12H271.776L271.168 387.32H268.608ZM277.519 407.48C273.935 407.48 270.639 405.656 270.639 401.624H273.103C273.167 404.088 274.831 405.368 277.711 405.368C279.471 405.368 281.455 404.728 281.455 402.392C281.455 401.08 280.335 400.504 277.647 399.448C274.927 398.392 272.687 397.432 272.687 394.584C272.687 391.704 275.087 390.104 278.415 390.104C281.743 390.104 284.527 391.576 284.751 395.288H282.255C281.999 393.016 280.495 392.088 278.415 392.088C276.719 392.088 275.087 392.6 275.087 394.456C275.087 395.8 276.239 396.312 278.895 397.368C281.807 398.52 283.951 399.48 283.951 402.328C283.951 405.912 280.911 407.48 277.519 407.48ZM289.425 407L298.865 395.128L293.553 384.12H296.721L300.817 393.208H300.881L307.857 384.12H310.961L302.001 395.48L307.569 407H304.433L300.113 397.336H300.049L292.593 407H289.425ZM315.798 407L311.958 384.12H314.87L317.462 401.144C317.622 402.2 317.814 404.216 317.814 404.216H317.878C317.878 404.216 318.806 402.168 319.35 401.144L327.798 384.12H330.806L318.902 407H315.798ZM346.098 407.16C344.338 407.16 343.826 406.104 343.794 404.888H343.762C342.674 406.296 340.882 407.32 338.546 407.32C335.25 407.32 333.394 405.144 333.394 402.648C333.394 398.424 336.626 397.56 339.922 397.368C344.466 397.112 345.554 396.824 345.554 394.68C345.554 392.632 343.954 392.152 342.162 392.12C339.474 392.088 337.938 393.016 337.49 395.448H334.898C335.474 392.152 338.066 390.104 342.354 390.104C345.554 390.104 348.562 391.608 347.762 395.736L346.258 403.384C346.034 404.6 346.162 405.368 347.698 405.08H347.794L347.41 406.936C347.09 407.032 346.706 407.16 346.098 407.16ZM335.986 402.456C335.986 404.184 337.106 405.336 339.09 405.336C342.29 405.336 343.986 403.128 344.466 400.696L344.914 398.424C343.89 399 342.578 399.096 339.826 399.32C338.546 399.416 335.986 399.608 335.986 402.456ZM349.396 407L353.812 384.12H356.372L351.956 407H349.396ZM376.164 399.352H363.844C363.812 399.672 363.812 399.96 363.812 400.28C363.812 403.224 365.348 405.304 368.388 405.304C370.532 405.304 372.324 404.056 373.06 401.88H375.556C374.276 405.592 371.556 407.448 368.132 407.448C364.292 407.448 361.22 404.76 361.22 400.248C361.22 394.648 364.964 390.04 369.828 390.04C371.588 390.04 372.964 390.488 373.988 391.256C376.068 392.824 376.708 395.8 376.164 399.352ZM369.732 392.056C366.82 392.056 364.836 394.264 364.1 397.4H373.732C374.052 394.328 372.772 392.056 369.732 392.056ZM383.769 407.48C380.185 407.48 376.889 405.656 376.889 401.624H379.353C379.417 404.088 381.081 405.368 383.961 405.368C385.721 405.368 387.705 404.728 387.705 402.392C387.705 401.08 386.585 400.504 383.897 399.448C381.177 398.392 378.937 397.432 378.937 394.584C378.937 391.704 381.337 390.104 384.665 390.104C387.993 390.104 390.777 391.576 391.001 395.288H388.505C388.249 393.016 386.745 392.088 384.665 392.088C382.969 392.088 381.337 392.6 381.337 394.456C381.337 395.8 382.489 396.312 385.145 397.368C388.057 398.52 390.201 399.48 390.201 402.328C390.201 405.912 387.161 407.48 383.769 407.48ZM392.716 392.536L393.132 390.456H395.468L396.492 385.24H399.052L398.028 390.456H401.196L400.78 392.536H397.612L395.596 403.032C395.34 404.312 395.788 404.888 397.036 404.888C397.676 404.888 398.22 404.728 398.508 404.6H398.604L398.156 406.84C397.708 407 397.068 407.096 396.364 407.096C393.804 407.096 392.492 405.688 393.036 402.936L395.052 392.536H392.716ZM413.316 407.16C411.556 407.16 411.044 406.104 411.012 404.888H410.98C409.892 406.296 408.1 407.32 405.764 407.32C402.468 407.32 400.612 405.144 400.612 402.648C400.612 398.424 403.844 397.56 407.14 397.368C411.684 397.112 412.772 396.824 412.772 394.68C412.772 392.632 411.172 392.152 409.38 392.12C406.692 392.088 405.156 393.016 404.708 395.448H402.116C402.692 392.152 405.284 390.104 409.572 390.104C412.772 390.104 415.78 391.608 414.98 395.736L413.476 403.384C413.252 404.6 413.38 405.368 414.916 405.08H415.012L414.628 406.936C414.308 407.032 413.924 407.16 413.316 407.16ZM403.204 402.456C403.204 404.184 404.324 405.336 406.308 405.336C409.508 405.336 411.204 403.128 411.684 400.696L412.132 398.424C411.108 399 409.796 399.096 407.044 399.32C405.764 399.416 403.204 399.608 403.204 402.456ZM416.615 407L421.031 384.12H423.591L419.175 407H416.615ZM422.833 407L427.249 384.12H429.809L425.393 407H422.833ZM428.956 407L432.156 390.456H434.716L431.516 407H428.956ZM432.764 387.32L433.372 384.12H435.932L435.324 387.32H432.764ZM441.867 407.48C438.123 407.48 435.563 404.984 435.595 400.568C435.627 395.736 438.603 390.072 444.299 390.072C446.475 390.072 448.075 391.064 449.099 392.984H449.163L450.859 384.12H453.419L449.003 407H446.443L446.795 405.208H446.731C445.483 406.616 443.883 407.48 441.867 407.48ZM438.187 400.44C438.187 403.032 439.243 405.336 442.219 405.336C446.443 405.336 448.331 400.888 448.331 396.792C448.331 394.264 446.891 392.248 444.203 392.248C440.139 392.248 438.187 396.952 438.187 400.44ZM460.04 407.448C456.104 407.448 453.064 404.856 453.064 400.216C453.064 394.84 456.36 390.04 461.8 390.04C465.8 390.04 468.744 392.824 468.744 397.336C468.744 402.584 465.672 407.448 460.04 407.448ZM455.624 400.184C455.624 403.096 457.128 405.304 460.136 405.304C464.072 405.304 466.152 401.56 466.152 397.336C466.152 394.584 464.808 392.152 461.736 392.152C457.672 392.152 455.624 396.088 455.624 400.184ZM481.586 407.48C477.842 407.48 475.282 404.984 475.314 400.568C475.346 395.736 478.322 390.072 484.018 390.072C486.194 390.072 487.794 391.064 488.818 392.984H488.882L490.578 384.12H493.138L488.722 407H486.162L486.514 405.208H486.45C485.202 406.616 483.602 407.48 481.586 407.48ZM477.906 400.44C477.906 403.032 478.962 405.336 481.938 405.336C486.162 405.336 488.05 400.888 488.05 396.792C488.05 394.264 486.61 392.248 483.922 392.248C479.858 392.248 477.906 396.952 477.906 400.44ZM507.727 399.352H495.407C495.375 399.672 495.375 399.96 495.375 400.28C495.375 403.224 496.911 405.304 499.951 405.304C502.095 405.304 503.887 404.056 504.623 401.88H507.119C505.839 405.592 503.119 407.448 499.695 407.448C495.855 407.448 492.783 404.76 492.783 400.248C492.783 394.648 496.527 390.04 501.391 390.04C503.151 390.04 504.527 390.488 505.551 391.256C507.631 392.824 508.271 395.8 507.727 399.352ZM501.295 392.056C498.383 392.056 496.399 394.264 495.663 397.4H505.295C505.615 394.328 504.335 392.056 501.295 392.056ZM513.833 407L518.249 384.12H520.809L516.393 407H513.833ZM532.66 407.16C530.9 407.16 530.388 406.104 530.356 404.888H530.324C529.236 406.296 527.444 407.32 525.108 407.32C521.812 407.32 519.956 405.144 519.956 402.648C519.956 398.424 523.188 397.56 526.484 397.368C531.028 397.112 532.116 396.824 532.116 394.68C532.116 392.632 530.516 392.152 528.724 392.12C526.036 392.088 524.5 393.016 524.052 395.448H521.46C522.036 392.152 524.628 390.104 528.916 390.104C532.116 390.104 535.124 391.608 534.324 395.736L532.82 403.384C532.596 404.6 532.724 405.368 534.26 405.08H534.356L533.972 406.936C533.652 407.032 533.268 407.16 532.66 407.16ZM522.548 402.456C522.548 404.184 523.668 405.336 525.652 405.336C528.852 405.336 530.548 403.128 531.028 400.696L531.476 398.424C530.452 399 529.14 399.096 526.388 399.32C525.108 399.416 522.548 399.608 522.548 402.456ZM541.34 407L545.756 384.12H554.428C556.252 384.12 557.884 384.568 559.036 385.432C560.444 386.488 561.148 388.152 561.148 390.104C561.148 393.24 559.26 395.288 556.7 396.152V396.248C558.716 397.176 559.132 398.584 558.908 401.976C558.652 405.656 559.132 406.584 559.516 406.872V407H556.636C556.22 406.424 555.9 405.528 556.156 401.88C556.38 398.52 555.484 397.304 552.444 397.304H546.012L544.156 407H541.34ZM548.092 386.584L546.46 395H552.892C556.124 395 558.204 393.304 558.204 390.168C558.204 387.8 556.732 386.584 554.012 386.584H548.092ZM576.914 399.352H564.594C564.562 399.672 564.562 399.96 564.562 400.28C564.562 403.224 566.098 405.304 569.138 405.304C571.282 405.304 573.074 404.056 573.81 401.88H576.306C575.026 405.592 572.306 407.448 568.882 407.448C565.042 407.448 561.97 404.76 561.97 400.248C561.97 394.648 565.714 390.04 570.578 390.04C572.338 390.04 573.714 390.488 574.738 391.256C576.818 392.824 577.458 395.8 576.914 399.352ZM570.482 392.056C567.57 392.056 565.586 394.264 564.85 397.4H574.482C574.802 394.328 573.522 392.056 570.482 392.056ZM581.458 407L578.802 390.456H581.49L582.962 400.952C583.186 402.424 583.346 404.504 583.346 404.504H583.41C583.41 404.504 584.242 402.584 585.042 400.952L590.322 390.456H593.042L584.306 407H581.458ZM599.165 407.448C595.229 407.448 592.189 404.856 592.189 400.216C592.189 394.84 595.485 390.04 600.925 390.04C604.925 390.04 607.869 392.824 607.869 397.336C607.869 402.584 604.797 407.448 599.165 407.448ZM594.749 400.184C594.749 403.096 596.253 405.304 599.261 405.304C603.197 405.304 605.277 401.56 605.277 397.336C605.277 394.584 603.933 392.152 600.861 392.152C596.797 392.152 594.749 396.088 594.749 400.184ZM608.833 407L613.249 384.12H615.809L611.393 407H608.833ZM625.068 407L625.484 404.696H625.42C624.076 406.296 622.284 407.384 619.852 407.384C616.62 407.384 615.084 405.336 615.724 401.976L617.964 390.456H620.492L618.252 401.944C617.804 404.216 618.444 405.24 620.46 405.24C623.404 405.24 625.868 402.776 626.476 399.704L628.268 390.456H630.828L627.628 407H625.068ZM638.601 407.448C634.505 407.448 631.689 405.016 631.689 400.344C631.689 395.192 635.145 390.04 640.521 390.04C644.233 390.04 646.377 392.12 646.697 395.8H644.105C643.881 393.624 642.793 392.152 640.393 392.152C636.393 392.152 634.281 396.376 634.281 400.408C634.281 403.128 635.465 405.304 638.633 405.304C640.969 405.304 642.793 403.8 643.465 401.176H645.929C645.001 405.176 642.153 407.448 638.601 407.448ZM647.175 407L650.375 390.456H652.935L649.735 407H647.175ZM650.983 387.32L651.591 384.12H654.151L653.543 387.32H650.983ZM660.79 407.448C656.854 407.448 653.814 404.856 653.814 400.216C653.814 394.84 657.11 390.04 662.55 390.04C666.55 390.04 669.494 392.824 669.494 397.336C669.494 402.584 666.422 407.448 660.79 407.448ZM656.374 400.184C656.374 403.096 657.878 405.304 660.886 405.304C664.822 405.304 666.902 401.56 666.902 397.336C666.902 394.584 665.558 392.152 662.486 392.152C658.422 392.152 656.374 396.088 656.374 400.184ZM661.942 387.864L663.958 383.8H667.094L664.15 387.864H661.942ZM676.122 390.456L675.642 393.016H675.706C677.082 391.224 679.322 390.072 681.786 390.072C685.05 390.072 686.426 392.088 685.818 395.32L683.546 407H681.018L683.29 395.32C683.674 393.272 683.098 392.216 681.114 392.216C678.074 392.216 675.29 394.776 674.714 397.72L672.922 407H670.362L673.562 390.456H676.122ZM686.51 407L687.118 403.832H690.19L689.582 407H686.51ZM698.153 407L702.569 384.12H711.241C713.065 384.12 714.697 384.568 715.849 385.432C717.257 386.488 717.961 388.152 717.961 390.104C717.961 393.24 716.073 395.288 713.513 396.152V396.248C715.529 397.176 715.945 398.584 715.721 401.976C715.465 405.656 715.945 406.584 716.329 406.872V407H713.449C713.033 406.424 712.713 405.528 712.969 401.88C713.193 398.52 712.297 397.304 709.257 397.304H702.825L700.969 407H698.153ZM704.905 386.584L703.273 395H709.705C712.937 395 715.017 393.304 715.017 390.168C715.017 387.8 713.545 386.584 710.825 386.584H704.905ZM725.759 407.448C721.823 407.448 718.783 404.856 718.783 400.216C718.783 394.84 722.079 390.04 727.519 390.04C731.519 390.04 734.463 392.824 734.463 397.336C734.463 402.584 731.391 407.448 725.759 407.448ZM721.343 400.184C721.343 403.096 722.847 405.304 725.855 405.304C729.791 405.304 731.871 401.56 731.871 397.336C731.871 394.584 730.527 392.152 727.455 392.152C723.391 392.152 721.343 396.088 721.343 400.184ZM735.331 407L739.747 384.12H742.307L740.675 392.728H740.739C742.019 391.128 743.875 390.072 746.083 390.072C749.699 390.072 751.907 392.824 751.907 396.92C751.907 401.912 749.187 407.48 743.555 407.48C741.123 407.48 739.395 406.424 738.403 404.568H738.339L737.891 407H735.331ZM739.203 400.344C739.171 403.16 740.515 405.336 743.459 405.336C747.555 405.336 749.283 400.76 749.283 397.08C749.283 394.52 748.323 392.248 745.411 392.248C741.411 392.248 739.235 396.408 739.203 400.344ZM768.383 399.352H756.063C756.031 399.672 756.031 399.96 756.031 400.28C756.031 403.224 757.567 405.304 760.607 405.304C762.751 405.304 764.543 404.056 765.279 401.88H767.775C766.495 405.592 763.775 407.448 760.351 407.448C756.511 407.448 753.439 404.76 753.439 400.248C753.439 394.648 757.183 390.04 762.047 390.04C763.807 390.04 765.183 390.488 766.207 391.256C768.287 392.824 768.927 395.8 768.383 399.352ZM761.951 392.056C759.039 392.056 757.055 394.264 756.319 397.4H765.951C766.271 394.328 764.991 392.056 761.951 392.056ZM787.098 407.16C785.338 407.16 784.826 406.104 784.794 404.888H784.762C783.674 406.296 781.882 407.32 779.546 407.32C776.25 407.32 774.394 405.144 774.394 402.648C774.394 398.424 777.626 397.56 780.922 397.368C785.466 397.112 786.554 396.824 786.554 394.68C786.554 392.632 784.954 392.152 783.162 392.12C780.474 392.088 778.938 393.016 778.49 395.448H775.898C776.474 392.152 779.066 390.104 783.354 390.104C786.554 390.104 789.562 391.608 788.762 395.736L787.258 403.384C787.034 404.6 787.162 405.368 788.698 405.08H788.794L788.41 406.936C788.09 407.032 787.706 407.16 787.098 407.16ZM776.986 402.456C776.986 404.184 778.106 405.336 780.09 405.336C783.29 405.336 784.986 403.128 785.466 400.696L785.914 398.424C784.89 399 783.578 399.096 780.826 399.32C779.546 399.416 776.986 399.608 776.986 402.456ZM782.778 387.864L780.538 383.8H783.578L784.922 387.864H782.778ZM795.49 407L799.906 384.12H802.466L798.05 407H795.49ZM814.316 407.16C812.556 407.16 812.044 406.104 812.012 404.888H811.98C810.892 406.296 809.1 407.32 806.764 407.32C803.468 407.32 801.612 405.144 801.612 402.648C801.612 398.424 804.844 397.56 808.14 397.368C812.684 397.112 813.772 396.824 813.772 394.68C813.772 392.632 812.172 392.152 810.38 392.12C807.692 392.088 806.156 393.016 805.708 395.448H803.116C803.692 392.152 806.284 390.104 810.572 390.104C813.772 390.104 816.78 391.608 815.98 395.736L814.476 403.384C814.252 404.6 814.38 405.368 815.916 405.08H816.012L815.628 406.936C815.308 407.032 814.924 407.16 814.316 407.16ZM804.204 402.456C804.204 404.184 805.324 405.336 807.308 405.336C810.508 405.336 812.204 403.128 812.684 400.696L813.132 398.424C812.108 399 810.796 399.096 808.044 399.32C806.764 399.416 804.204 399.608 804.204 402.456ZM110.591 429.536L111.007 427.456H113.247L113.759 424.8C114.303 422.016 115.711 420.928 118.527 420.928C118.943 420.928 119.583 420.96 119.935 420.992L119.519 423.168C119.071 423.136 118.719 423.136 118.527 423.136C116.863 423.136 116.479 423.776 116.255 424.928L115.775 427.456H118.815L118.399 429.536H115.359L112.575 444H110.047L112.831 429.536H110.591ZM123.841 427.456L123.329 430.08H123.393C124.641 428.352 126.241 427.264 128.129 427.264C128.929 427.264 129.185 427.328 129.473 427.456L128.993 429.92H128.897C128.545 429.792 128.225 429.76 127.713 429.76C125.217 429.76 122.977 431.744 122.305 435.264L120.641 444H118.081L121.281 427.456H123.841ZM141.285 444.16C139.525 444.16 139.013 443.104 138.981 441.888H138.949C137.861 443.296 136.069 444.32 133.733 444.32C130.437 444.32 128.581 442.144 128.581 439.648C128.581 435.424 131.813 434.56 135.109 434.368C139.653 434.112 140.741 433.824 140.741 431.68C140.741 429.632 139.141 429.152 137.349 429.12C134.661 429.088 133.125 430.016 132.677 432.448H130.085C130.661 429.152 133.253 427.104 137.541 427.104C140.741 427.104 143.749 428.608 142.949 432.736L141.445 440.384C141.221 441.6 141.349 442.368 142.885 442.08H142.981L142.597 443.936C142.277 444.032 141.893 444.16 141.285 444.16ZM131.173 439.456C131.173 441.184 132.293 442.336 134.277 442.336C137.477 442.336 139.173 440.128 139.653 437.696L140.101 435.424C139.077 436 137.765 436.096 135.013 436.32C133.733 436.416 131.173 436.608 131.173 439.456ZM150.247 427.456L149.767 430.016H149.831C151.207 428.224 153.447 427.072 155.911 427.072C159.175 427.072 160.551 429.088 159.943 432.32L157.671 444H155.143L157.415 432.32C157.799 430.272 157.223 429.216 155.239 429.216C152.199 429.216 149.415 431.776 148.839 434.72L147.047 444H144.487L147.687 427.456H150.247ZM166.747 450.112C165.083 450.112 164.091 449.632 163.355 449.12L163.899 448.192C164.539 448.512 165.403 448.736 166.203 448.736C166.907 448.736 168.091 448.672 168.091 447.648C168.091 447.136 167.707 446.816 166.971 446.816C166.395 446.816 166.075 446.912 165.691 447.04L165.307 446.304L167.035 444.32C163.739 443.808 161.595 441.44 161.595 437.344C161.595 432.192 165.051 427.04 170.427 427.04C174.139 427.04 176.283 429.12 176.603 432.8H174.011C173.787 430.624 172.699 429.152 170.299 429.152C166.299 429.152 164.187 433.376 164.187 437.408C164.187 440.128 165.371 442.304 168.539 442.304C170.875 442.304 172.699 440.8 173.371 438.176H175.835C174.907 442.112 172.187 444.352 168.731 444.448L167.419 445.6V445.664C168.667 445.44 170.139 445.984 170.139 447.488C170.139 449.248 168.603 450.112 166.747 450.112ZM189.785 444.16C188.025 444.16 187.513 443.104 187.481 441.888H187.449C186.361 443.296 184.569 444.32 182.233 444.32C178.937 444.32 177.081 442.144 177.081 439.648C177.081 435.424 180.313 434.56 183.609 434.368C188.153 434.112 189.241 433.824 189.241 431.68C189.241 429.632 187.641 429.152 185.849 429.12C183.161 429.088 181.625 430.016 181.177 432.448H178.585C179.161 429.152 181.753 427.104 186.041 427.104C189.241 427.104 192.249 428.608 191.449 432.736L189.945 440.384C189.721 441.6 189.849 442.368 191.385 442.08H191.481L191.097 443.936C190.777 444.032 190.393 444.16 189.785 444.16ZM179.673 439.456C179.673 441.184 180.793 442.336 182.777 442.336C185.977 442.336 187.673 440.128 188.153 437.696L188.601 435.424C187.577 436 186.265 436.096 183.513 436.32C182.233 436.416 179.673 436.608 179.673 439.456ZM192.987 444L196.187 427.456H198.747L195.547 444H192.987ZM196.795 424.32L197.403 421.12H199.963L199.355 424.32H196.795ZM205.707 444.48C202.123 444.48 198.827 442.656 198.827 438.624H201.291C201.355 441.088 203.019 442.368 205.899 442.368C207.659 442.368 209.643 441.728 209.643 439.392C209.643 438.08 208.523 437.504 205.835 436.448C203.115 435.392 200.875 434.432 200.875 431.584C200.875 428.704 203.275 427.104 206.603 427.104C209.931 427.104 212.715 428.576 212.939 432.288H210.443C210.187 430.016 208.683 429.088 206.603 429.088C204.907 429.088 203.275 429.6 203.275 431.456C203.275 432.8 204.427 433.312 207.083 434.368C209.995 435.52 212.139 436.48 212.139 439.328C212.139 442.912 209.099 444.48 205.707 444.48ZM229.258 436.352H216.938C216.906 436.672 216.906 436.96 216.906 437.28C216.906 440.224 218.442 442.304 221.482 442.304C223.626 442.304 225.418 441.056 226.154 438.88H228.65C227.37 442.592 224.65 444.448 221.226 444.448C217.386 444.448 214.314 441.76 214.314 437.248C214.314 431.648 218.058 427.04 222.922 427.04C224.682 427.04 226.058 427.488 227.082 428.256C229.162 429.824 229.802 432.8 229.258 436.352ZM222.826 429.056C219.914 429.056 217.93 431.264 217.194 434.4H226.826C227.146 431.328 225.866 429.056 222.826 429.056ZM229.055 448.096L229.311 446.656C230.079 446.432 230.911 445.984 231.295 444H229.823L230.431 440.832H233.503L232.831 444.256C232.351 446.72 230.975 447.808 229.055 448.096ZM240.057 449.312L244.313 427.456H246.873L246.425 429.728H246.489C247.769 428.064 249.625 427.072 251.833 427.072C255.449 427.072 257.657 429.824 257.657 433.92C257.657 438.912 254.937 444.48 249.305 444.48C246.873 444.48 245.113 443.36 244.185 441.504H244.121L242.617 449.312H240.057ZM244.953 437.344C244.921 440.16 246.265 442.336 249.209 442.336C253.305 442.336 255.033 437.76 255.033 434.08C255.033 431.52 254.073 429.248 251.161 429.248C247.161 429.248 244.985 433.408 244.953 437.344ZM271.285 444.16C269.525 444.16 269.013 443.104 268.981 441.888H268.949C267.861 443.296 266.069 444.32 263.733 444.32C260.437 444.32 258.581 442.144 258.581 439.648C258.581 435.424 261.813 434.56 265.109 434.368C269.653 434.112 270.741 433.824 270.741 431.68C270.741 429.632 269.141 429.152 267.349 429.12C264.661 429.088 263.125 430.016 262.677 432.448H260.085C260.661 429.152 263.253 427.104 267.541 427.104C270.741 427.104 273.749 428.608 272.949 432.736L271.445 440.384C271.221 441.6 271.349 442.368 272.885 442.08H272.981L272.597 443.936C272.277 444.032 271.893 444.16 271.285 444.16ZM261.173 439.456C261.173 441.184 262.293 442.336 264.277 442.336C267.477 442.336 269.173 440.128 269.653 437.696L270.101 435.424C269.077 436 267.765 436.096 265.013 436.32C263.733 436.416 261.173 436.608 261.173 439.456ZM280.247 427.456L279.767 430.016H279.831C281.207 428.224 283.447 427.072 285.911 427.072C289.175 427.072 290.551 429.088 289.943 432.32L287.671 444H285.143L287.415 432.32C287.799 430.272 287.223 429.216 285.239 429.216C282.199 429.216 279.415 431.776 278.839 434.72L277.047 444H274.487L277.687 427.456H280.247ZM290.987 444L294.187 427.456H296.747L293.547 444H290.987ZM294.795 424.32L295.403 421.12H297.963L297.355 424.32H294.795ZM312.571 436.352H300.251C300.219 436.672 300.219 436.96 300.219 437.28C300.219 440.224 301.755 442.304 304.795 442.304C306.939 442.304 308.731 441.056 309.467 438.88H311.963C310.683 442.592 307.963 444.448 304.539 444.448C300.699 444.448 297.627 441.76 297.627 437.248C297.627 431.648 301.371 427.04 306.235 427.04C307.995 427.04 309.371 427.488 310.395 428.256C312.475 429.824 313.115 432.8 312.571 436.352ZM306.139 429.056C303.227 429.056 301.243 431.264 300.507 434.4H310.139C310.459 431.328 309.179 429.056 306.139 429.056ZM319.247 427.456L318.735 430.08H318.799C320.047 428.352 321.647 427.264 323.535 427.264C324.335 427.264 324.591 427.328 324.879 427.456L324.399 429.92H324.303C323.951 429.792 323.631 429.76 323.119 429.76C320.623 429.76 318.383 431.744 317.711 435.264L316.047 444H313.487L316.687 427.456H319.247ZM320.961 448.096L321.217 446.656C321.985 446.432 322.817 445.984 323.201 444H321.729L322.337 440.832H325.409L324.737 444.256C324.257 446.72 322.881 447.808 320.961 448.096ZM331.963 449.312L336.219 427.456H338.779L338.331 429.728H338.395C339.675 428.064 341.531 427.072 343.739 427.072C347.355 427.072 349.563 429.824 349.563 433.92C349.563 438.912 346.843 444.48 341.211 444.48C338.779 444.48 337.019 443.36 336.091 441.504H336.027L334.523 449.312H331.963ZM336.859 437.344C336.827 440.16 338.171 442.336 341.115 442.336C345.211 442.336 346.939 437.76 346.939 434.08C346.939 431.52 345.979 429.248 343.067 429.248C339.067 429.248 336.891 433.408 336.859 437.344ZM350.583 444L354.999 421.12H357.559L353.143 444H350.583ZM356.706 444L359.906 427.456H362.466L359.266 444H356.706ZM360.514 424.32L361.122 421.12H363.682L363.074 424.32H360.514ZM378.289 436.352H365.969C365.937 436.672 365.937 436.96 365.937 437.28C365.937 440.224 367.473 442.304 370.513 442.304C372.657 442.304 374.449 441.056 375.185 438.88H377.681C376.401 442.592 373.681 444.448 370.257 444.448C366.417 444.448 363.345 441.76 363.345 437.248C363.345 431.648 367.089 427.04 371.953 427.04C373.713 427.04 375.089 427.488 376.113 428.256C378.193 429.824 378.833 432.8 378.289 436.352ZM371.857 429.056C368.945 429.056 366.961 431.264 366.225 434.4H375.857C376.177 431.328 374.897 429.056 371.857 429.056ZM385.542 449.504C382.342 449.504 379.366 448.288 379.27 444.928H381.798C381.958 446.912 383.59 447.488 385.51 447.488C388.198 447.488 389.798 446.08 390.246 443.776L390.758 441.184H390.726C389.478 442.56 388.006 443.424 385.958 443.424C382.374 443.424 379.846 440.896 379.846 436.832C379.846 431.84 382.822 427.072 388.166 427.072C390.342 427.072 391.942 428.064 392.902 429.856H392.934L393.414 427.456H395.942L392.742 444C392.102 447.36 389.414 449.504 385.542 449.504ZM382.406 436.672C382.406 439.296 383.558 441.28 386.438 441.28C390.438 441.312 392.262 437.312 392.262 433.76C392.262 430.944 390.886 429.248 388.038 429.248C384.166 429.248 382.406 433.024 382.406 436.672ZM406.318 444L406.734 441.696H406.67C405.326 443.296 403.534 444.384 401.102 444.384C397.87 444.384 396.334 442.336 396.974 438.976L399.214 427.456H401.742L399.502 438.944C399.054 441.216 399.694 442.24 401.71 442.24C404.654 442.24 407.118 439.776 407.726 436.704L409.518 427.456H412.078L408.878 444H406.318ZM427.883 436.352H415.563C415.531 436.672 415.531 436.96 415.531 437.28C415.531 440.224 417.067 442.304 420.107 442.304C422.251 442.304 424.043 441.056 424.779 438.88H427.275C425.995 442.592 423.275 444.448 419.851 444.448C416.011 444.448 412.939 441.76 412.939 437.248C412.939 431.648 416.683 427.04 421.547 427.04C423.307 427.04 424.683 427.488 425.707 428.256C427.787 429.824 428.427 432.8 427.883 436.352ZM421.451 429.056C418.539 429.056 416.555 431.264 415.819 434.4H425.451C425.771 431.328 424.491 429.056 421.451 429.056ZM438.598 444L436.774 421.12H439.654L440.582 436C440.71 437.536 440.774 439.872 440.774 439.872H440.838C440.838 439.872 441.798 437.44 442.47 435.936L449.03 421.12H452.102L453.51 435.936C453.67 437.472 453.734 439.872 453.734 439.872H453.798C453.798 439.872 454.758 437.408 455.334 436L461.638 421.12H464.518L454.406 444H451.686L450.278 427.872C450.15 426.496 450.086 424.32 450.086 424.32H450.022C450.022 424.32 449.222 426.4 448.582 427.872L441.414 444H438.598ZM474.129 444.16C472.369 444.16 471.857 443.104 471.825 441.888H471.793C470.705 443.296 468.913 444.32 466.577 444.32C463.281 444.32 461.425 442.144 461.425 439.648C461.425 435.424 464.657 434.56 467.953 434.368C472.497 434.112 473.585 433.824 473.585 431.68C473.585 429.632 471.985 429.152 470.193 429.12C467.505 429.088 465.969 430.016 465.521 432.448H462.929C463.505 429.152 466.097 427.104 470.385 427.104C473.585 427.104 476.593 428.608 475.793 432.736L474.289 440.384C474.065 441.6 474.193 442.368 475.729 442.08H475.825L475.441 443.936C475.121 444.032 474.737 444.16 474.129 444.16ZM464.017 439.456C464.017 441.184 465.137 442.336 467.121 442.336C470.321 442.336 472.017 440.128 472.497 437.696L472.945 435.424C471.921 436 470.609 436.096 467.857 436.32C466.577 436.416 464.017 436.608 464.017 439.456ZM478.466 429.536L478.882 427.456H481.218L482.242 422.24H484.802L483.778 427.456H486.946L486.53 429.536H483.362L481.346 440.032C481.09 441.312 481.538 441.888 482.786 441.888C483.426 441.888 483.97 441.728 484.258 441.6H484.354L483.906 443.84C483.458 444 482.818 444.096 482.114 444.096C479.554 444.096 478.242 442.688 478.786 439.936L480.802 429.536H478.466ZM487.654 429.536L488.07 427.456H490.406L491.43 422.24H493.99L492.966 427.456H496.134L495.718 429.536H492.55L490.534 440.032C490.278 441.312 490.726 441.888 491.974 441.888C492.614 441.888 493.158 441.728 493.446 441.6H493.542L493.094 443.84C492.646 444 492.006 444.096 491.302 444.096C488.742 444.096 487.43 442.688 487.974 439.936L489.99 429.536H487.654ZM510.946 436.352H498.626C498.594 436.672 498.594 436.96 498.594 437.28C498.594 440.224 500.13 442.304 503.17 442.304C505.314 442.304 507.106 441.056 507.842 438.88H510.338C509.058 442.592 506.338 444.448 502.914 444.448C499.074 444.448 496.002 441.76 496.002 437.248C496.002 431.648 499.746 427.04 504.61 427.04C506.37 427.04 507.746 427.488 508.77 428.256C510.85 429.824 511.49 432.8 510.946 436.352ZM504.514 429.056C501.602 429.056 499.618 431.264 498.882 434.4H508.514C508.834 431.328 507.554 429.056 504.514 429.056ZM524.566 444.16C522.806 444.16 522.294 443.104 522.262 441.888H522.23C521.142 443.296 519.35 444.32 517.014 444.32C513.718 444.32 511.862 442.144 511.862 439.648C511.862 435.424 515.094 434.56 518.39 434.368C522.934 434.112 524.022 433.824 524.022 431.68C524.022 429.632 522.422 429.152 520.63 429.12C517.942 429.088 516.406 430.016 515.958 432.448H513.366C513.942 429.152 516.534 427.104 520.822 427.104C524.022 427.104 527.03 428.608 526.23 432.736L524.726 440.384C524.502 441.6 524.63 442.368 526.166 442.08H526.262L525.878 443.936C525.558 444.032 525.174 444.16 524.566 444.16ZM514.454 439.456C514.454 441.184 515.574 442.336 517.558 442.336C520.758 442.336 522.454 440.128 522.934 437.696L523.382 435.424C522.358 436 521.046 436.096 518.294 436.32C517.014 436.416 514.454 436.608 514.454 439.456ZM537.881 444L538.297 441.696H538.233C536.889 443.296 535.097 444.384 532.665 444.384C529.433 444.384 527.897 442.336 528.537 438.976L530.777 427.456H533.305L531.065 438.944C530.617 441.216 531.257 442.24 533.273 442.24C536.217 442.24 538.681 439.776 539.289 436.704L541.081 427.456H543.641L540.441 444H537.881ZM542.774 448.096L543.03 446.656C543.798 446.432 544.63 445.984 545.014 444H543.542L544.15 440.832H547.222L546.55 444.256C546.07 446.72 544.694 447.808 542.774 448.096ZM561.488 444.48C557.904 444.48 554.608 442.656 554.608 438.624H557.072C557.136 441.088 558.8 442.368 561.68 442.368C563.44 442.368 565.424 441.728 565.424 439.392C565.424 438.08 564.304 437.504 561.616 436.448C558.896 435.392 556.656 434.432 556.656 431.584C556.656 428.704 559.056 427.104 562.384 427.104C565.712 427.104 568.496 428.576 568.72 432.288H566.224C565.968 430.016 564.464 429.088 562.384 429.088C560.688 429.088 559.056 429.6 559.056 431.456C559.056 432.8 560.208 433.312 562.864 434.368C565.776 435.52 567.92 436.48 567.92 439.328C567.92 442.912 564.88 444.48 561.488 444.48ZM585.039 436.352H572.719C572.687 436.672 572.687 436.96 572.687 437.28C572.687 440.224 574.223 442.304 577.263 442.304C579.407 442.304 581.199 441.056 581.935 438.88H584.431C583.151 442.592 580.431 444.448 577.007 444.448C573.167 444.448 570.095 441.76 570.095 437.248C570.095 431.648 573.839 427.04 578.703 427.04C580.463 427.04 581.839 427.488 582.863 428.256C584.943 429.824 585.583 432.8 585.039 436.352ZM578.607 429.056C575.695 429.056 573.711 431.264 572.975 434.4H582.607C582.927 431.328 581.647 429.056 578.607 429.056ZM592.836 444.48C589.092 444.48 586.532 441.984 586.564 437.568C586.596 432.736 589.572 427.072 595.268 427.072C597.444 427.072 599.044 428.064 600.068 429.984H600.132L601.828 421.12H604.388L599.972 444H597.412L597.764 442.208H597.7C596.452 443.616 594.852 444.48 592.836 444.48ZM589.156 437.44C589.156 440.032 590.212 442.336 593.188 442.336C597.412 442.336 599.3 437.888 599.3 433.792C599.3 431.264 597.86 429.248 595.172 429.248C591.108 429.248 589.156 433.952 589.156 437.44ZM616.129 444.16C614.369 444.16 613.857 443.104 613.825 441.888H613.793C612.705 443.296 610.913 444.32 608.577 444.32C605.281 444.32 603.425 442.144 603.425 439.648C603.425 435.424 606.657 434.56 609.953 434.368C614.497 434.112 615.585 433.824 615.585 431.68C615.585 429.632 613.985 429.152 612.193 429.12C609.505 429.088 607.969 430.016 607.521 432.448H604.929C605.505 429.152 608.097 427.104 612.385 427.104C615.585 427.104 618.593 428.608 617.793 432.736L616.289 440.384C616.065 441.6 616.193 442.368 617.729 442.08H617.825L617.441 443.936C617.121 444.032 616.737 444.16 616.129 444.16ZM606.017 439.456C606.017 441.184 607.137 442.336 609.121 442.336C612.321 442.336 614.017 440.128 614.497 437.696L614.945 435.424C613.921 436 612.609 436.096 609.857 436.32C608.577 436.416 606.017 436.608 606.017 439.456ZM625.863 444.48C622.279 444.48 618.983 442.656 618.983 438.624H621.447C621.511 441.088 623.175 442.368 626.055 442.368C627.815 442.368 629.799 441.728 629.799 439.392C629.799 438.08 628.679 437.504 625.991 436.448C623.271 435.392 621.031 434.432 621.031 431.584C621.031 428.704 623.431 427.104 626.759 427.104C630.087 427.104 632.871 428.576 633.095 432.288H630.599C630.343 430.016 628.839 429.088 626.759 429.088C625.063 429.088 623.431 429.6 623.431 431.456C623.431 432.8 624.583 433.312 627.239 434.368C630.151 435.52 632.295 436.48 632.295 439.328C632.295 442.912 629.255 444.48 625.863 444.48ZM645.992 444.48C642.248 444.48 639.688 441.984 639.72 437.568C639.752 432.736 642.728 427.072 648.424 427.072C650.6 427.072 652.2 428.064 653.224 429.984H653.288L654.984 421.12H657.544L653.128 444H650.568L650.92 442.208H650.856C649.608 443.616 648.008 444.48 645.992 444.48ZM642.312 437.44C642.312 440.032 643.368 442.336 646.344 442.336C650.568 442.336 652.456 437.888 652.456 433.792C652.456 431.264 651.016 429.248 648.328 429.248C644.264 429.248 642.312 433.952 642.312 437.44ZM672.133 436.352H659.813C659.781 436.672 659.781 436.96 659.781 437.28C659.781 440.224 661.317 442.304 664.357 442.304C666.501 442.304 668.293 441.056 669.029 438.88H671.525C670.245 442.592 667.525 444.448 664.101 444.448C660.261 444.448 657.189 441.76 657.189 437.248C657.189 431.648 660.933 427.04 665.797 427.04C667.557 427.04 668.933 427.488 669.957 428.256C672.037 429.824 672.677 432.8 672.133 436.352ZM665.701 429.056C662.789 429.056 660.805 431.264 660.069 434.4H669.701C670.021 431.328 668.741 429.056 665.701 429.056ZM678.528 444L682.944 421.12H685.76L681.856 441.376H693.344L692.832 444H678.528ZM694.767 449.472C693.903 449.472 693.135 449.344 692.559 449.088L693.007 446.848H693.135C693.455 447.008 693.935 447.2 694.799 447.2C695.855 447.2 696.719 446.784 697.359 445.568L698.447 443.488L694.927 427.456H697.551L699.663 437.696C699.951 439.104 700.143 440.928 700.143 440.928H700.207C700.207 440.928 700.943 439.232 701.679 437.728L706.767 427.456H709.423L699.759 446.048C698.415 448.64 696.783 449.472 694.767 449.472ZM715.54 444.448C711.604 444.448 708.564 441.856 708.564 437.216C708.564 431.84 711.86 427.04 717.3 427.04C721.3 427.04 724.244 429.824 724.244 434.336C724.244 439.584 721.172 444.448 715.54 444.448ZM711.124 437.184C711.124 440.096 712.628 442.304 715.636 442.304C719.572 442.304 721.652 438.56 721.652 434.336C721.652 431.584 720.308 429.152 717.236 429.152C713.172 429.152 711.124 433.088 711.124 437.184ZM730.872 427.456L730.392 430.016H730.456C731.832 428.224 734.072 427.072 736.536 427.072C739.8 427.072 741.176 429.088 740.568 432.32L738.296 444H735.768L738.04 432.32C738.424 430.272 737.848 429.216 735.864 429.216C732.824 429.216 730.04 431.776 729.464 434.72L727.672 444H725.112L728.312 427.456H730.872ZM741.26 444L741.868 440.832H744.94L744.332 444H741.26Z" fill="#141414"/>
<path d="M131.459 323.4C119.859 323.4 103.459 319.6 94.4586 313.8L93.4586 286.4H94.6586C101.659 310.2 116.859 320.6 133.059 320.6C149.859 320.6 166.459 309.2 166.459 288.6C166.459 269.4 152.059 261.4 134.459 252.4L124.659 247.4C109.659 239.8 96.2586 230.6 96.2586 210.8C96.2586 189.2 112.859 173 135.459 173C146.459 173 160.459 176.8 170.059 182.4V203.2H168.859C162.459 183.6 149.259 175.8 135.059 175.8C117.459 175.8 105.259 187.8 105.259 205.6C105.259 224.2 119.059 231 130.459 236.8L140.259 241.8C157.859 250.8 175.459 260.2 175.459 283.4C175.459 306.4 157.659 323.4 131.459 323.4ZM195.255 195.4C190.455 195.4 186.455 191.4 186.455 186.6C186.455 181.8 190.455 177.8 195.255 177.8C200.055 177.8 204.055 181.8 204.055 186.6C204.055 191.4 200.055 195.4 195.255 195.4ZM211.855 321H184.255V319.8C192.455 319.8 193.055 313 193.055 300.2V241C193.055 228.2 189.655 223.4 182.855 222.2V221L202.255 214.2H203.055V300.2C203.055 313 203.655 319.8 211.855 319.8V321ZM238.798 300.6H278.598C299.198 300.6 310.798 308.4 310.798 325.2C310.798 352.8 281.398 369 257.398 369C235.198 369 219.798 356 219.798 337.4C219.798 328.6 223.798 321.4 233.398 315L235.998 313.6H236.798C230.998 318.6 228.398 325.4 228.398 332.8C228.398 350.2 242.798 363 264.598 363C286.598 363 303.598 350.2 303.598 331.8C303.598 319.2 294.998 311.4 278.998 311.4H237.798C227.798 311.4 223.398 306.2 223.398 300.2C223.398 292.6 229.398 288.2 241.598 281.6C229.798 276.2 221.798 264.8 221.798 249.4C221.798 227.8 237.598 213.8 258.198 213.8C266.198 213.8 273.398 215.8 279.198 219.8L311.198 215L307.598 224.2L282.398 222.2C289.598 228.2 293.998 237.4 293.998 249C293.998 270.6 278.598 284.8 257.798 284.8C252.798 284.8 247.998 284 243.798 282.4C235.198 288.4 232.198 291.6 232.198 295.2C232.198 298.4 234.398 300.6 238.798 300.6ZM257.998 216.6C242.398 216.6 232.998 230 232.998 249.2C232.998 268.4 242.198 282 257.998 282C273.598 282 282.798 268.4 282.798 249.2C282.798 230 273.598 216.6 257.998 216.6ZM341.334 321H313.734V319.8C321.934 319.8 322.534 313 322.534 300.2V189.8C322.534 177 319.134 172.2 312.334 171V169.8L331.734 164.6H332.534V300.2C332.534 313 333.134 319.8 341.334 319.8V321ZM397.29 323.4C370.09 323.4 350.09 302.6 350.09 269C350.09 235.8 370.89 213.8 397.69 213.8C424.89 213.8 444.89 234.6 444.89 268.2C444.89 301.4 424.09 323.4 397.29 323.4ZM397.69 320.6C420.29 320.6 433.69 299.6 433.69 268.6C433.69 238.8 419.89 216.6 397.29 216.6C374.69 216.6 361.29 237.6 361.29 268.6C361.29 298.4 375.09 320.6 397.69 320.6ZM552.607 244.2L586.807 298.4C596.207 313.2 602.807 318.6 607.607 319.8V321H574.007V319.8C582.807 319 583.407 313.4 577.007 303.4L545.007 252.8L521.607 293.2C512.207 309.6 510.807 317.8 524.207 319.8V321H488.607V319.8C500.607 319 509.607 306.8 518.607 291.2L542.807 249.4L510.207 198C500.807 183.2 494.207 177.8 489.407 176.6V175.4H523.007V176.6C514.207 177.4 513.607 183 520.007 193L550.407 240.8L572.207 203.2C581.607 186.8 583.807 178.6 570.407 176.6V175.4H604.407V176.6C592.407 177.4 584.207 189.6 575.207 205.2L552.607 244.2ZM649.051 321H609.051V319.8C622.651 319.8 623.451 312.2 623.451 297.4V199C623.451 184.2 622.651 176.6 609.051 176.6V175.4H649.051V176.6C635.451 176.6 634.651 184.2 634.651 199V297.4C634.651 312.2 635.451 319.8 649.051 319.8V321ZM715.498 244.2L749.698 298.4C759.098 313.2 765.698 318.6 770.498 319.8V321H736.898V319.8C745.698 319 746.298 313.4 739.898 303.4L707.898 252.8L684.498 293.2C675.098 309.6 673.698 317.8 687.098 319.8V321H651.498V319.8C663.498 319 672.498 306.8 681.498 291.2L705.698 249.4L673.098 198C663.698 183.2 657.098 177.8 652.298 176.6V175.4H685.898V176.6C677.098 177.4 676.498 183 682.898 193L713.298 240.8L735.098 203.2C744.498 186.8 746.698 178.6 733.298 176.6V175.4H767.298V176.6C755.298 177.4 747.098 189.6 738.098 205.2L715.498 244.2Z" fill="#B9D6FE"/>
<path d="M623.576 48.5271C623.467 48.4925 623.383 48.4944 623.319 48.5124C623.258 48.5297 623.183 48.5711 623.103 48.6736C622.941 48.879 622.889 49.1977 622.989 49.6365C623.088 50.0685 623.318 50.5327 623.585 50.9187C624.589 52.3683 626.022 53.4286 627.477 54.2957C629.163 55.3004 630.898 56.0546 632.706 56.7146L632.568 57.6833C631.784 57.7358 631.058 57.5864 630.396 57.4832C630.01 57.4231 629.63 57.3259 629.294 57.2498C628.946 57.1709 628.626 57.1092 628.301 57.0935L619.973 56.6912C619.366 56.6619 618.894 56.7107 618.478 56.9919C617.95 57.3483 617.233 57.7258 616.403 57.4636C616.357 57.4491 616.324 57.4423 616.302 57.4382C616.223 57.5317 616.009 57.8059 615.607 57.9529C615.065 58.1514 614.527 58.2566 613.978 58.3152C613.813 58.3327 613.668 58.3783 613.575 58.4343C613.531 58.4608 613.511 58.4826 613.503 58.4929C613.502 58.4945 613.501 58.4959 613.5 58.4968L613.499 58.4988L613.5 58.4978C613.498 58.5176 613.501 58.5265 613.504 58.533C613.508 58.5423 613.521 58.5624 613.555 58.5886C613.627 58.6452 613.759 58.6998 613.929 58.7146C614.268 58.7441 614.711 58.7961 615.128 58.9109C615.53 59.0215 615.995 59.2127 616.295 59.5818C616.298 59.5856 616.303 59.5881 616.306 59.5915C616.675 59.4742 617.011 59.4618 617.327 59.5232C617.664 59.5888 617.953 59.7336 618.192 59.864C618.696 60.1382 619.035 60.3582 619.561 60.3347L628.129 59.9509C628.501 59.9342 628.865 59.8689 629.25 59.7869C629.624 59.7073 630.04 59.6055 630.459 59.5388C631.124 59.433 631.835 59.2955 632.61 59.3347L632.748 60.3064C630.739 61.0002 628.809 61.8792 626.965 63.0691C625.711 63.8782 624.42 64.9519 623.622 66.2771C623.399 66.6478 623.227 67.0971 623.17 67.5037C623.111 67.9241 623.185 68.1994 623.314 68.3445C623.418 68.4603 623.495 68.4889 623.539 68.4968C623.586 68.5052 623.657 68.5008 623.763 68.449C623.993 68.3359 624.275 68.0511 624.54 67.6316C625.296 66.4357 626.128 65.3924 627.101 64.4412C629.377 62.2135 631.99 60.6412 634.817 59.7615L634.826 59.7585L634.835 59.7566L638.476 58.7644L639.206 58.5007C639.167 58.485 639.127 58.4671 639.083 58.4509C638.713 58.3147 638.271 58.2054 637.947 58.1208L635.269 57.4207C632.69 56.7468 630.336 55.3742 628.185 53.5789C626.711 52.349 625.443 50.8919 624.34 49.196C624.096 48.8215 623.806 48.5999 623.576 48.5271Z" fill="#141414" stroke="#141414"/>
<circle cx="20.5" cy="20.5" r="20" transform="matrix(1 8.74228e-08 8.74228e-08 -1 604.999 78.9998)" stroke="#141414"/>
<path d="M233.424 48.5271C233.533 48.4925 233.617 48.4944 233.681 48.5124C233.742 48.5297 233.817 48.5711 233.897 48.6736C234.059 48.879 234.111 49.1977 234.011 49.6365C233.912 50.0685 233.682 50.5327 233.415 50.9187C232.411 52.3683 230.978 53.4286 229.523 54.2957C227.837 55.3004 226.102 56.0546 224.294 56.7146L224.432 57.6833C225.216 57.7358 225.942 57.5864 226.604 57.4832C226.99 57.4231 227.37 57.3259 227.706 57.2498C228.054 57.1709 228.374 57.1092 228.699 57.0935L237.027 56.6912C237.634 56.6619 238.106 56.7107 238.522 56.9919C239.05 57.3483 239.767 57.7258 240.597 57.4636C240.643 57.4491 240.676 57.4423 240.698 57.4382C240.777 57.5317 240.991 57.8059 241.393 57.9529C241.935 58.1514 242.473 58.2566 243.022 58.3152C243.187 58.3327 243.332 58.3783 243.425 58.4343C243.469 58.4608 243.489 58.4826 243.497 58.4929C243.498 58.4945 243.499 58.4959 243.5 58.4968L243.501 58.4988L243.5 58.4978C243.502 58.5176 243.499 58.5265 243.496 58.533C243.492 58.5423 243.479 58.5624 243.445 58.5886C243.373 58.6452 243.241 58.6998 243.071 58.7146C242.732 58.7441 242.289 58.7961 241.872 58.9109C241.47 59.0215 241.005 59.2127 240.705 59.5818C240.702 59.5856 240.697 59.5881 240.694 59.5915C240.325 59.4742 239.989 59.4618 239.673 59.5232C239.336 59.5888 239.047 59.7336 238.808 59.864C238.304 60.1382 237.965 60.3582 237.439 60.3347L228.871 59.9509C228.499 59.9342 228.135 59.8689 227.75 59.7869C227.376 59.7073 226.96 59.6055 226.541 59.5388C225.876 59.433 225.165 59.2955 224.39 59.3347L224.252 60.3064C226.261 61.0002 228.191 61.8792 230.035 63.0691C231.289 63.8782 232.58 64.9519 233.378 66.2771C233.601 66.6478 233.773 67.0971 233.83 67.5037C233.889 67.9241 233.815 68.1994 233.686 68.3445C233.582 68.4603 233.505 68.4889 233.461 68.4968C233.414 68.5052 233.343 68.5008 233.237 68.449C233.007 68.3359 232.725 68.0511 232.46 67.6316C231.704 66.4357 230.872 65.3924 229.899 64.4412C227.623 62.2135 225.01 60.6412 222.183 59.7615L222.174 59.7585L222.165 59.7566L218.524 58.7644L217.794 58.5007C217.833 58.485 217.873 58.4671 217.917 58.4509C218.287 58.3147 218.729 58.2054 219.053 58.1208L221.731 57.4207C224.31 56.7468 226.664 55.3742 228.815 53.5789C230.289 52.349 231.557 50.8919 232.66 49.196C232.904 48.8215 233.194 48.5999 233.424 48.5271Z" fill="#141414" stroke="#141414"/>
<circle cx="231.501" cy="58.4998" r="20" transform="rotate(180 231.501 58.4998)" stroke="#141414"/>
</svg>

