<svg width="200" height="46" viewBox="0 0 200 46" fill="none" xmlns="http://www.w3.org/2000/svg">
<path d="M183.811 45.3229L15.6101 45.3211C14.7879 45.3186 14.1549 44.7839 14.1555 44.0821L14.1586 39.6032C10.5883 38.7463 7.45393 36.9713 5.03307 34.5551C-0.0998745 29.4321 -1.40667 22.2004 1.57427 15.9148C3.80979 11.2008 8.43689 7.24512 14.2151 5.82976L14.2325 1.21767C14.2348 0.604402 14.8471 0 15.6169 0L183.598 4.10969e-05C184.452 -0.00310292 185.104 0.56052 185.104 1.28318L185.108 5.84381C186.902 6.24975 188.532 6.86924 190.044 7.73902C195.954 11.1379 199.391 16.8897 199.308 23.05C199.231 28.7746 196.022 34.1267 190.609 37.3924C188.922 38.4101 187.122 39.1557 185.086 39.5877L185.068 44.1428C185.066 44.7323 184.567 45.224 183.811 45.3229ZM183.5 44.4769C183.849 44.4946 184.091 44.3509 184.091 44.0836L184.097 38.9417C185.771 38.6196 187.29 38.1246 188.765 37.3834C194.604 34.4478 198.207 28.9912 198.322 23.1301C198.44 17.1752 195.092 11.5886 189.338 8.35803C187.755 7.46929 186.041 6.85267 184.143 6.50526L184.129 1.20181C184.129 1.01677 183.824 0.839409 183.595 0.861325L15.7087 0.860629C15.394 0.892162 15.2102 1.04475 15.2102 1.2799L15.2098 6.4999C8.6395 7.81262 3.65568 12.5134 1.78253 18.0356C-0.83513 25.7529 3.18744 34.2876 11.5065 37.8308C12.6849 38.3327 13.8272 38.6899 15.1215 38.9352L15.1202 43.9241C15.1202 44.2453 15.2649 44.477 15.7107 44.477L183.5 44.4769Z" fill="#B9D6FE"/>
<path d="M181.691 8.45166L181.693 8.88428L182.12 8.94482C185.684 9.45223 188.824 10.9802 191.25 13.2163C194.227 15.9948 195.726 19.6511 195.502 23.3989L195.501 23.4067V23.4155C195.453 25.2216 194.96 26.8966 194.099 28.5552C191.931 32.7296 187.48 35.7791 182.087 36.5415L181.659 36.6021L181.657 37.0347L181.636 41.4888H18.1165L18.0999 37.0327L18.0979 36.6118L17.6829 36.5415L17.0276 36.4224C15.5132 36.1244 14.0888 35.6877 12.7239 35.0415H12.7249C9.2154 33.3445 6.55842 30.7011 5.21118 27.5015L5.08521 27.1909C3.82356 23.881 4.04664 20.3519 5.67407 17.1567L5.67603 17.1528C7.78989 12.9068 12.2939 9.80131 17.7122 8.94775L18.1331 8.88135L18.134 8.45459L18.1428 3.8335L181.676 3.83252L181.691 8.45166ZM180.791 4.0542L19.0452 4.05518H18.5481L18.5452 4.55322L18.5237 9.06299C12.3505 9.7758 7.27679 13.5322 5.42017 18.6606C3.11991 25.0147 6.32196 31.7872 13.0793 34.9058V34.9067C14.7591 35.7135 16.5941 36.2102 18.5042 36.4253L18.5139 40.7603L18.5149 41.2593H19.0139L180.753 41.2573H181.253V40.7573L181.251 36.4146C189.017 35.6009 194.941 29.9699 195.123 23.1216C195.314 15.9625 189.406 9.9773 181.297 9.05029L181.291 4.55322V4.0542H180.791Z" fill="#B9D6FE" stroke="#B9D6FE"/>
<path d="M181.547 9.20245L181.548 9.65851L182.002 9.69952C189.933 10.4215 195.552 16.2112 195.375 22.9456C195.206 29.3463 189.627 34.7741 182.109 35.4427L181.969 35.4554L181.856 35.5394L181.705 35.6507L181.501 35.8011V36.053L181.502 40.3011L19.5132 40.39L19.5044 36.053L19.5034 35.596L19.0493 35.556L18.6812 35.5189C16.848 35.3167 15.1013 34.8388 13.5151 34.0687H13.5161L13.5083 34.0657L12.9224 33.7776C6.96884 30.7036 4.32841 24.572 6.36279 18.8909C8.11491 13.998 13.0228 10.3534 19.0688 9.80011L19.521 9.75812L19.5229 9.30402L19.5444 4.78937L181.542 4.7005L181.547 9.20245Z" fill="#B9D6FE" stroke="#B9D6FE"/>
<path d="M81.77 27.0009V16.9909H83.8V25.3069H88.504V27.0009H81.77ZM90.4303 27.0009V16.9909H97.7943V18.6989H92.4603V20.9389H97.1363V22.6049H92.4603V25.3069H97.8363V27.0009H90.4303ZM99.9383 27.0009V16.9909H107.302V18.6989H101.968V20.9389H106.644V22.6049H101.968V25.3069H107.344V27.0009H99.9383ZM109.446 27.0009V16.9909H114.038C115.97 16.9909 117.258 18.1109 117.258 19.7769C117.258 20.9529 116.712 21.8489 115.424 22.1989V22.2409C116.348 22.5069 116.824 23.0389 116.95 24.2569C117.09 25.6709 117.034 26.7489 117.384 26.9029V27.0009H115.438C115.186 26.8889 115.158 25.7689 115.074 24.6909C114.99 23.5989 114.374 22.9829 113.114 22.9829H111.476V27.0009H109.446ZM111.476 18.6289V21.4149H113.632C114.738 21.4149 115.284 20.8409 115.284 20.0429C115.284 19.2309 114.766 18.6289 113.688 18.6289H111.476Z" fill="#141414"/>
</svg>

