<svg width="111" height="33" viewBox="0 0 111 33" fill="none" xmlns="http://www.w3.org/2000/svg">
<path d="M102.7 30.4993L8.28067 30.5L8.27612 26.7993C7.43149 26.6606 6.62321 26.2759 5.89076 25.6249C3.14721 23.2848 1.87671 18.2391 2.7959 13.5409C3.5592 9.63929 5.68707 6.76914 8.28376 6.33422L8.29388 2.50029L102.717 2.5L102.719 6.32608C106.121 6.89292 108.575 11.4573 108.498 16.85C108.424 21.9781 105.989 26.2563 102.763 26.7814L102.7 26.8672L102.7 30.4993Z" fill="#520345"/>
<path d="M104.018 32.5L7.02895 32.4976C6.68506 32.4958 6.42032 32.1184 6.42055 31.6229L6.42187 28.4607C4.92858 27.8557 3.61761 26.6025 2.60508 24.8967C0.458227 21.2797 -0.0883405 16.1739 1.15844 11.7361C2.09345 8.40796 4.02874 5.61518 6.44548 4.61591L6.45274 1.35969C6.45371 0.926715 6.7098 0.5 7.03177 0.5L103.929 0.501597C104.286 0.499377 104.558 0.897297 104.559 1.40751L104.56 4.62736C105.311 4.91397 105.992 5.35132 106.625 5.9654C109.097 8.36506 110.534 12.4259 110.499 16.7751C110.467 20.8168 109.125 24.5953 106.861 26.901C106.156 27.6195 105.402 28.1459 104.551 28.451L104.544 31.6669C104.543 32.0831 104.334 32.4302 104.018 32.5ZM103.888 31.9028C104.033 31.9152 104.135 31.8138 104.135 31.6251L104.137 27.9949C104.837 27.7674 105.473 27.4179 106.09 26.8947C108.532 24.8221 110.039 20.9697 110.087 16.8317C110.136 12.6274 108.736 8.68326 106.329 6.40243C105.667 5.77496 104.95 5.33963 104.156 5.09435L104.151 1.35006C104.151 1.21942 104.023 1.0942 103.927 1.10967L7.07018 1.10762C6.93856 1.12989 6.86166 1.23761 6.86166 1.40363L6.86151 5.08904C4.11348 6.01584 2.02899 9.33469 1.24554 13.2335C0.150706 18.682 1.83315 24.7078 5.31261 27.2094C5.80547 27.5637 6.28325 27.8159 6.82457 27.9891L6.82402 31.5113C6.82402 31.7381 6.88458 31.9017 7.07103 31.9017L103.888 31.9028Z" fill="#520345" stroke="#520345"/>
<path d="M14.5191 21.5V11.49H18.4251C21.0991 11.49 22.8211 13.646 22.8211 16.6C22.8211 18.224 22.2751 19.652 21.2251 20.534C20.4831 21.15 19.5171 21.5 18.2571 21.5H14.5191ZM16.5491 19.75H18.1171C20.0211 19.75 20.7631 18.588 20.7631 16.6C20.7631 14.612 19.8951 13.226 18.1731 13.226H16.5491V19.75ZM24.7654 21.5V11.49H32.1294V13.198H26.7954V15.438H31.4714V17.104H26.7954V19.806H32.1714V21.5H24.7654ZM38.083 21.724C35.367 21.724 33.827 20.52 33.757 18.406H35.745C35.885 19.61 36.571 20.086 37.999 20.086C39.035 20.086 39.945 19.722 39.945 18.798C39.945 17.818 38.993 17.622 37.467 17.272C35.675 16.866 34.037 16.39 34.037 14.304C34.037 12.33 35.647 11.308 37.873 11.308C40.127 11.308 41.583 12.414 41.737 14.43H39.791C39.679 13.422 38.895 12.918 37.859 12.918C36.767 12.918 36.053 13.38 36.053 14.094C36.053 14.906 36.753 15.144 38.237 15.466C40.295 15.914 41.975 16.404 41.975 18.56C41.975 20.59 40.337 21.724 38.083 21.724ZM48.4094 21.71C45.5954 21.71 43.5934 19.54 43.5934 16.53C43.5934 13.562 45.4414 11.294 48.3954 11.294C50.8594 11.294 52.3154 12.764 52.5254 14.668H50.5094C50.3274 13.66 49.5714 13.002 48.3954 13.002C46.5474 13.002 45.6654 14.542 45.6654 16.53C45.6654 18.574 46.7294 20.044 48.4094 20.044C49.5994 20.044 50.4394 19.33 50.5654 18.28H52.5534C52.4974 19.162 52.1194 20.016 51.4474 20.646C50.7614 21.29 49.7954 21.71 48.4094 21.71ZM58.3017 21.668C55.7117 21.668 54.3537 20.45 54.3537 18.28V11.49H56.3837V18.28C56.3837 19.316 56.9017 20.044 58.2597 20.044C59.5477 20.044 60.1497 19.288 60.1497 18.252V11.49H62.1797V18.28C62.1797 20.422 60.8637 21.668 58.3017 21.668ZM64.4789 21.5V11.49H68.9589C70.0369 11.49 70.8629 11.756 71.3809 12.218C71.9269 12.708 72.1789 13.31 72.1789 14.094C72.1789 15.116 71.5489 15.774 70.6109 16.096V16.138C71.7169 16.46 72.4729 17.384 72.4729 18.616C72.4729 19.554 72.1789 20.198 71.5909 20.702C71.0169 21.206 70.1349 21.5 69.0709 21.5H64.4789ZM66.5089 17.02V19.82H68.8469C69.8269 19.82 70.4149 19.274 70.4149 18.462C70.4149 17.51 69.7149 17.02 68.7909 17.02H66.5089ZM66.5089 15.522H68.7069C69.5889 15.522 70.1909 15.102 70.1909 14.318C70.1909 13.576 69.6449 13.142 68.7489 13.142H66.5089V15.522ZM74.5064 21.5V11.49H79.0984C81.0304 11.49 82.3184 12.61 82.3184 14.276C82.3184 15.452 81.7724 16.348 80.4844 16.698V16.74C81.4084 17.006 81.8844 17.538 82.0104 18.756C82.1504 20.17 82.0944 21.248 82.4444 21.402V21.5H80.4984C80.2464 21.388 80.2184 20.268 80.1344 19.19C80.0504 18.098 79.4344 17.482 78.1744 17.482H76.5364V21.5H74.5064ZM76.5364 13.128V15.914H78.6924C79.7984 15.914 80.3444 15.34 80.3444 14.542C80.3444 13.73 79.8264 13.128 78.7484 13.128H76.5364ZM84.4795 21.5V11.49H86.5095V21.5H84.4795ZM88.9012 21.5V11.49H93.4932C95.4252 11.49 96.7132 12.61 96.7132 14.276C96.7132 15.452 96.1672 16.348 94.8792 16.698V16.74C95.8032 17.006 96.2792 17.538 96.4052 18.756C96.5452 20.17 96.4892 21.248 96.8392 21.402V21.5H94.8932C94.6412 21.388 94.6132 20.268 94.5292 19.19C94.4452 18.098 93.8292 17.482 92.5692 17.482H90.9312V21.5H88.9012ZM90.9312 13.128V15.914H93.0872C94.1932 15.914 94.7392 15.34 94.7392 14.542C94.7392 13.73 94.2212 13.128 93.1432 13.128H90.9312Z" fill="#F3EEE1"/>
</svg>
