<svg preserveAspectRatio="none" width="100%" height="100%" overflow="visible" style="display: block;" viewBox="0 0 41.0001 41.0001" fill="none" xmlns="http://www.w3.org/2000/svg">
<g id="Group 3244">
<path id="Vector" d="M30.4727 22.423C30.5073 22.532 30.5054 22.6161 30.4874 22.6798C30.4701 22.7407 30.4287 22.8161 30.3262 22.8966C30.1208 23.058 29.8022 23.1098 29.3633 23.0099C28.9313 22.9115 28.4671 22.6816 28.0811 22.4142C26.6315 21.4098 25.5712 19.9775 24.7042 18.5226C23.6994 16.8366 22.9452 15.101 22.2852 13.2931L21.3165 13.4308C21.2641 14.2149 21.4135 14.9411 21.5167 15.6037C21.5767 15.9889 21.6739 16.3692 21.7501 16.7052C21.8289 17.0528 21.8906 17.3734 21.9063 17.6984L22.3087 26.0265C22.3379 26.6331 22.2891 27.1055 22.0079 27.5216C21.6515 28.0487 21.274 28.7659 21.5362 29.5958C21.5507 29.6418 21.5575 29.6751 21.5616 29.6974C21.4682 29.7765 21.1939 29.9903 21.0469 30.3917C20.8485 30.934 20.7432 31.4724 20.6846 32.0216C20.6671 32.1858 20.6215 32.3314 20.5655 32.424C20.539 32.4677 20.5173 32.4885 20.5069 32.4962C20.5054 32.4974 20.5039 32.4986 20.503 32.4992L20.501 32.5001L20.502 32.4992C20.4822 32.5011 20.4734 32.4984 20.4669 32.4953C20.4575 32.4907 20.4374 32.4777 20.4112 32.4445C20.3546 32.3725 20.3 32.2404 20.2852 32.0705C20.2558 31.7307 20.2037 31.2884 20.0889 30.8712C19.9784 30.4694 19.7872 30.0043 19.418 29.7042C19.4142 29.7011 19.4117 29.6964 19.4083 29.6935C19.5256 29.324 19.538 28.9877 19.4766 28.672C19.4111 28.335 19.2662 28.0464 19.1358 27.8068C18.8616 27.3031 18.6416 26.9643 18.6651 26.4386L19.0489 17.8703C19.0656 17.4978 19.1309 17.1342 19.213 16.7492C19.2925 16.3756 19.3943 15.9593 19.461 15.5402C19.5668 14.8749 19.7043 14.1639 19.6651 13.3888L18.6934 13.2511C17.9996 15.2597 17.1206 17.1905 15.9307 19.0343C15.1216 20.2879 14.0479 21.5793 12.7227 22.3771C12.352 22.6002 11.9027 22.7721 11.4962 22.8292C11.0757 22.8882 10.8004 22.8141 10.6553 22.6847C10.5396 22.5814 10.5109 22.5041 10.503 22.4601C10.4947 22.4134 10.499 22.3422 10.5508 22.2365C10.6639 22.0061 10.9488 21.7243 11.3682 21.4591C12.5641 20.7031 13.6074 19.8708 14.5587 18.8986C16.7863 16.6217 18.3586 14.0091 19.2383 11.1818L19.2413 11.173L19.2432 11.1642L20.2354 7.52358L20.4991 6.79311C20.5148 6.83167 20.5327 6.87227 20.5489 6.91615C20.6851 7.28586 20.7944 7.72811 20.879 8.0519L21.5792 10.7306C22.253 13.3094 23.6256 15.6633 25.421 17.8146C26.6508 19.2881 28.1079 20.5561 29.8038 21.6593C30.1783 21.9029 30.3999 22.1935 30.4727 22.423Z" fill="var(--fill-0, #141414)" stroke="var(--stroke-0, #141414)"/>
<circle id="Ellipse 227" cx="20.5001" cy="20.5001" r="20" transform="rotate(-90 20.5001 20.5001)" stroke="var(--stroke-0, #141414)"/>
</g>
</svg>
