<svg preserveAspectRatio="none" width="100%" height="100%" overflow="visible" style="display: block;" viewBox="0 0 679.183 838.712" fill="none" xmlns="http://www.w3.org/2000/svg">
<g id="clippath">
<path id="Vector" d="M444.044 838.696L235.584 838.712C229.352 838.712 223.642 834.737 221.651 829.824C219.424 824.323 220.942 818.794 222.684 813.281C213.257 811.002 204.448 814.715 197.22 820.166C202.629 804.283 195.812 786.835 182.284 776.689L182.117 757.093C152.409 752.929 124.298 742.131 100.294 724.396C81.7025 710.66 68.4791 692.397 62.2531 670.23C61.3801 667.122 61.8162 663.824 63.4024 660.789C72.3926 663.751 81.0067 664.188 89.414 660.473C97.3435 656.969 102.27 650.013 103.5 641.285C105.071 630.137 100.678 618.23 90.4269 612.525C80.1649 606.813 67.1544 607.794 57.2312 613.295C49.2487 617.72 45.2509 624.5 42.5944 632.869L42.4988 577.271C19.8109 575.66 0.232117 560.371 0.00277932 536.948L0.000174641 301.803C0.200845 278.484 19.9117 262.968 42.4815 261.531L42.5822 205.884C45.2387 213.978 49.015 220.702 56.6474 225.13C66.5628 230.882 79.4152 232.015 89.8979 226.528C100.231 221.12 104.88 209.426 103.601 198.279C102.512 188.789 97.0021 181.148 88.2022 177.766C80.0329 174.628 71.9817 175.144 63.4085 177.964C61.9265 175.238 61.3071 172.036 62.0794 169.209C67.977 147.609 80.4924 129.557 98.3278 115.883C122.697 97.2018 151.586 85.9755 182.112 81.6485L182.264 62.0662C195.798 51.9111 202.476 34.6161 197.363 19.0073C205.594 24.2542 213.469 27.7907 222.742 25.4383C220.943 19.9611 219.385 14.4118 221.651 8.92423C223.669 4.03778 229.362 0.0313268 235.576 0.0304581L442.789 5.36437e-05C448.813 -0.000815059 454.503 3.10393 457 7.75757C460.03 13.4041 458.399 19.5641 456.443 25.4504C465.639 27.7412 473.832 24.3011 481.691 18.9664C476.961 35.0253 483.223 51.6375 496.879 62.068L497.081 81.6477C527.588 85.9808 556.507 97.1853 580.86 115.882C598.864 129.704 611.55 148.011 617.269 169.893C617.926 172.405 617.081 175.547 615.746 177.942C607.015 175.069 598.638 174.592 590.38 178.015C582.398 181.323 577.258 188.051 575.821 196.713C573.933 208.084 578.274 220.37 588.725 226.2C599.51 232.216 612.866 230.951 623.083 224.797C630.456 220.357 633.969 213.783 636.624 205.864L636.651 261.394C658.909 263.128 678.865 277.877 679.183 301.806V536.946C678.957 560.331 659.326 575.78 636.664 577.204L636.616 632.888C633.865 624.314 629.664 617.368 621.429 612.987C611.602 607.759 598.797 606.908 588.783 612.507C578.474 618.271 574.093 630.089 575.696 641.29C576.944 650.006 581.824 656.982 589.768 660.475C598.173 664.171 606.799 663.767 615.803 660.786C617.355 663.803 617.811 667.127 616.942 670.225C610.487 693.253 596.432 711.972 576.897 725.87C553.27 742.678 525.966 753.101 497.066 757.095L496.897 776.697C483.233 787.014 476.93 803.877 481.692 819.697C473.765 814.51 465.627 810.991 456.487 813.279C458.197 818.855 459.857 824.298 457.531 829.835C455.67 834.264 450.435 838.696 444.045 838.696H444.044Z" fill="var(--fill-0, black)"/>
</g>
</svg>
