<svg preserveAspectRatio="none" width="100%" height="100%" overflow="visible" style="display: block;" viewBox="0 0 722.582 880" fill="none" xmlns="http://www.w3.org/2000/svg">
<g id="Group">
<path id="Vector" d="M44.751 615.73L44.2227 615.54C20.1727 606.852 3.8355 588.259 0.799805 564.244L0.837891 315.853C3.44878 298.874 11.4121 284.81 25.0576 274.638L25.0664 274.631C30.7081 270.3 37.0697 267.124 44.2295 264.491L44.7539 264.299V263.741L44.7842 68.6953L83.9229 68.6328L84.5361 68.6318L84.6943 68.0391C87.3872 57.9694 90.604 48.9046 95.3154 39.9414L95.3145 39.9404C116.807 0.859716 171.15 -9.93322 207.328 14.6729L207.996 15.127L208.444 14.4541C214.967 4.65387 223.874 3.20903 234.185 0.807617L488.528 0.800781C498.328 2.60862 508.167 5.11897 514.11 14.4922L514.555 15.1914L515.238 14.7236C542.678 -4.06435 579.666 -2.29723 607.025 16.7451C617.135 24.2296 624.392 33.7313 629.881 45.0078L637.95 68.0781L638.138 68.6133L638.704 68.6143L677.856 68.7041L677.82 263.883V264.463L678.371 264.644C700.431 271.867 717.133 289.746 720.892 312.326L720.897 312.36L720.906 312.394L721.781 315.798V564.248C719.657 581.552 709.982 596.88 695.153 607.145L678.249 615.935L677.818 616.158V616.645L677.858 811.303L638.694 811.36L638.128 811.361L637.94 811.896L629.626 835.588C622.985 849.011 613.431 860.214 600.307 867.509H600.306C573.26 882.542 540.654 882.502 515.27 865.317L514.592 864.858L514.148 865.547C509.212 873.212 501.251 876.679 492.517 878.138L492.479 878.145L492.443 878.154L488.497 879.2H234.104L231.716 878.441L231.652 878.422L231.586 878.412C222.043 877.054 213.388 873.366 208.417 865.575L207.976 864.883L207.295 865.342C180.998 883.09 147.348 882.293 120.67 866.563C108.1 859.153 99.0655 848.089 92.6895 835.018L84.6396 811.898L84.4531 811.362L83.8857 811.361L44.7695 811.314L44.751 616.292V615.73ZM674.337 72.0811L673.54 72.0781L635.221 71.9482C632.657 61.9086 629.634 52.6962 625.253 43.5674L625.246 43.5527L625.238 43.5381C617.74 29.4193 606.818 18.6569 592.146 12.1074C566.685 0.743345 535.487 2.31246 512.883 20.6309C511.2 14.8679 507.091 10.8366 501.932 8.22559C496.423 5.4381 489.679 4.24415 483.248 4.24414L239.334 4.23828C232.925 4.23828 226.151 5.43655 220.624 8.2373C215.451 10.8583 211.333 14.907 209.698 20.7012C183.995 -0.296901 146.515 0.501179 119.813 18.0215C109.513 24.7799 102.491 34.0112 96.7217 44.6396L96.707 44.667L96.6943 44.6953C92.7355 53.5635 89.8159 62.3073 87.3516 71.9482L49.0371 72.0615L48.2393 72.0635V72.8613L48.1152 266.518C22.6247 274.857 4.22368 295.278 4.41895 322.732L4.4209 559.009V559.03C5.15797 586.152 23.7779 605.707 48.1172 613.464L48.25 807.212L48.251 808.011L49.0498 808.012L87.3809 808.026C89.8946 818.061 92.8973 827.339 97.3418 836.428L97.3477 836.44L97.3535 836.452C104.964 850.762 116.101 861.643 131.017 868.165C156.201 879.177 187.592 877.6 209.673 859.249C211.28 864.911 215.285 868.958 220.304 871.615C225.68 874.461 232.259 875.74 238.468 875.739L484.111 875.735C490.348 875.735 496.926 874.469 502.293 871.632C507.304 868.982 511.29 864.94 512.888 859.274C535.052 877.575 566.354 879.215 591.556 868.166C605.85 861.899 616.727 851.709 624.317 838.135L624.323 838.125L624.328 838.114C629.303 828.579 632.54 818.675 635.192 808.053L673.525 807.945L674.323 807.943V807.146L674.459 613.344C699.62 605.511 717.916 585.112 718.15 558.147V321.86C717.945 294.829 699.631 274.61 674.437 266.579L674.337 72.8779V72.0811Z" stroke="var(--stroke-0, #520345)" stroke-width="1.6"/>
<g id="Group_2">
<path id="Vector_2" d="M465.739 859.341L257.279 859.357C251.047 859.357 245.337 855.383 243.347 850.469C241.119 844.969 242.637 839.44 244.38 833.927C234.952 831.647 226.144 835.36 218.915 840.811C224.324 824.929 217.507 807.481 203.98 797.334L203.812 777.739C174.104 773.574 145.993 762.776 121.99 745.042C103.398 731.305 90.1745 713.042 83.9485 690.876C83.0754 687.768 83.5115 684.47 85.0978 681.435C94.088 684.397 102.702 684.834 111.109 681.118C119.039 677.614 123.965 670.658 125.195 661.931C126.766 650.783 122.373 638.875 112.122 633.17C101.86 627.459 88.8497 628.439 78.9265 633.94C70.944 638.365 66.9463 645.145 64.2898 653.515L64.1942 597.917C41.5063 596.305 21.9275 581.016 21.6981 557.593L21.6955 322.449C21.8962 299.13 41.6071 283.614 64.1768 282.176L64.2776 226.53C66.9341 234.624 70.7103 241.347 78.3428 245.775C88.2581 251.528 101.111 252.66 111.593 247.174C121.926 241.766 126.575 230.072 125.296 218.924C124.208 209.435 118.697 201.794 109.898 198.412C101.728 195.273 93.6771 195.79 85.1039 198.61C83.6219 195.884 83.0025 192.682 83.7748 189.854C89.6724 168.255 102.188 150.202 120.023 136.529C144.392 117.847 173.282 106.621 203.808 102.294L203.959 82.7118C217.493 72.5567 224.171 55.2617 219.059 39.6528C227.29 44.8998 235.164 48.4363 244.437 46.0838C242.639 40.6067 241.08 35.0574 243.347 29.5698C245.365 24.6833 251.057 20.6769 257.271 20.676L464.485 20.6456C470.508 20.6447 476.198 23.7495 478.696 28.4031C481.726 34.0497 480.094 40.2097 478.139 46.096C487.334 48.3868 495.528 44.9467 503.387 39.612C498.657 55.6708 504.918 72.283 518.574 82.7135L518.777 102.293C549.283 106.626 578.202 117.831 602.555 136.528C620.559 150.35 633.246 168.657 638.964 190.539C639.621 193.051 638.777 196.193 637.441 198.588C628.71 195.714 620.333 195.237 612.075 198.66C604.093 201.969 598.954 208.696 597.516 217.358C595.628 228.729 599.969 241.015 610.421 246.845C621.205 252.862 634.561 251.596 644.779 245.442C652.151 241.002 655.664 234.428 658.319 226.51L658.347 282.04C680.605 283.774 700.561 298.523 700.879 322.451V557.592C700.653 580.977 681.021 596.426 658.359 597.85L658.311 653.534C655.56 644.96 651.36 638.013 643.125 633.633C633.297 628.405 620.492 627.553 610.479 633.152C600.169 638.917 595.788 650.735 597.392 661.936C598.639 670.651 603.52 677.627 611.463 681.12C619.869 684.817 628.494 684.413 637.498 681.431C639.05 684.448 639.506 687.773 638.638 690.871C632.182 713.899 618.128 732.618 598.592 746.515C574.965 763.324 547.661 773.746 518.761 777.741L518.593 797.343C504.928 807.66 498.625 824.522 503.388 840.343C495.461 835.155 487.323 831.637 478.182 833.925C479.892 839.5 481.553 844.944 479.226 850.481C477.366 854.909 472.13 859.341 465.74 859.341H465.739ZM256.839 854.25L465.353 854.283C468.576 854.283 471.96 852.328 473.443 850.761C474.907 849.213 476.112 844.805 475.511 842.792L472.052 831.213C479.51 827.018 487.893 827.469 496.228 831.041C496.44 816.108 503.232 803.748 513.866 794.722L513.974 773.323C544.982 769.676 573.974 758.776 598.538 740.382C616.156 727.189 628.947 709.53 634.479 687.708C624.429 689.597 614.956 689.034 606.739 684.209C597.216 678.619 592.399 669.412 592.096 658.455C591.724 645.02 598.626 632.277 611.373 627.178C625.184 621.653 640.692 624.104 652.034 633.625L653.632 633.64L653.581 592.751C674.347 594.217 696.111 579.373 696.113 558.429L696.134 322.484C696.135 300.506 674.96 286.08 653.592 287.282L653.527 245.452C640.02 256.822 621.611 259.312 606.9 250.527C596.549 244.346 591.916 233.151 592.108 221.599C592.331 208.194 599.929 197.207 612.703 193.117C619.62 190.902 626.656 190.963 634.491 192.266C628.885 170.585 616.159 152.822 598.546 139.667C573.95 121.294 544.996 110.321 513.968 106.747L513.878 85.3214C503.08 76.1661 496.204 63.5005 496.315 48.888C487.936 52.699 479.496 52.9692 471.988 48.8437L475.393 37.296C476.907 32.1603 472.72 25.8144 466.124 25.8135L256.455 25.8057C249.892 25.8057 245.676 32.2028 247.162 37.2743L250.559 48.8637C243.049 52.9466 234.664 52.6425 226.338 49.0209C226.172 63.9539 219.364 76.2878 208.699 85.2945L208.611 106.736C178.397 110.217 150.258 120.725 126.022 138.172C107.48 151.519 93.8282 169.592 88.1296 192.293C96.8539 190.735 104.831 190.93 112.439 194.082C123.591 198.702 129.884 208.655 130.439 220.72C131.027 233.494 125.36 245.854 113.538 251.761C98.9953 259.029 81.7819 256.332 68.9955 245.363L68.9764 287.276C47.0599 286.299 26.4534 300.344 26.4421 323.28L26.3874 432.494L26.377 446.996L26.4908 558.514C26.5116 579.353 48.1606 594.183 68.9582 592.771L69.0285 634.721C82.1294 623.419 100.03 620.884 114.647 628.893C125.864 635.039 130.923 647.006 130.444 659.356C129.941 672.333 122.238 682.868 109.869 686.914C102.97 689.17 95.9027 689.067 88.1096 687.754C93.8448 710.395 107.468 728.52 126.028 741.871C150.257 759.298 178.416 769.865 208.587 773.301L208.785 794.908C219.821 803.926 225.888 816.427 226.418 831.025C234.63 827.438 243.055 827.054 250.555 831.196L247.187 842.731C245.677 847.901 249.778 854.249 256.839 854.25H256.839Z" fill="var(--fill-0, #520345)"/>
<path id="Vector_3" d="M554.337 24.9324C575.143 17.2161 597.979 25.0509 610.581 43.3338C618.387 54.9758 621.451 68.2918 621.006 82.8045L620.981 83.6277L621.804 83.6287L657.929 83.701L657.991 159.327C654.767 151.659 650.771 145.297 645.161 139.166C623.45 115.439 588.174 96.4004 556.105 90.4022C564.26 87.3901 571.08 82.8296 574.74 74.9813C578.792 66.2966 575.836 56.9557 569.353 49.908L568.435 48.91L568.005 50.1971C567.038 53.096 565.573 55.2021 563.708 56.5711C561.847 57.9376 559.522 58.6169 556.749 58.5525C546.455 58.3146 539.385 49.6571 541.318 39.2742C542.542 32.6966 547.705 27.3921 554.337 24.9324ZM612.568 54.1639C603.698 32.5948 580.832 20.7019 558.4 27.1102C552.986 28.6567 547.863 31.7912 545.646 37.0389C543.438 42.264 544.161 48.1929 548.608 52.0301H548.609C550.062 53.2838 552.452 54.5501 554.943 55.0525C557.43 55.5543 560.204 55.3227 562.182 53.2977C563.782 51.659 564.724 49.6075 565.449 47.4363C565.813 46.3498 566.127 45.2151 566.44 44.075C566.624 43.4031 566.808 42.7287 567.001 42.0535L575.795 52.8221C583.656 64.8983 580.253 79.6639 567.814 88.0799L566.407 89.0311L568.036 89.5096C600.281 98.9772 632.434 117.443 653.133 143.265L654.554 145.039L654.557 142.766L654.63 87.7518L654.631 86.952L653.831 86.951L617.65 86.907C617.905 75.4745 617.341 64.5224 612.568 54.1639Z" stroke="var(--stroke-0, #520345)" stroke-width="1.6"/>
<path id="Vector_4" d="M112.021 43.3274C124.425 25.2479 146.947 17.4252 167.623 24.6848C174.297 27.0278 179.608 32.0543 181.135 38.6672C182.375 44.0383 181.049 49.2748 177.735 53.2268C174.67 56.881 169.532 58.81 164.08 58.5051H164.079C159.42 58.2451 156.353 55.1535 154.555 50.2239L154.11 49.0022L153.22 49.9504C146.472 57.1492 143.799 66.7993 148.055 75.5969L148.061 75.6106L148.068 75.6233C151.951 82.9526 158.249 87.2828 166.329 90.4094C134.272 96.5227 98.9538 115.459 76.9916 139.623C71.5215 145.642 67.5944 152.142 64.6029 159.266L64.5834 83.678L100.728 83.5637L101.541 83.5617L101.525 82.7483C101.228 68.0892 104.152 54.9976 112.021 43.3274ZM164.863 27.3049C142.485 20.5302 119.423 32.0893 110.25 53.592C105.356 64.1218 104.534 75.2692 105.023 86.9192L68.7845 86.928H67.9838L67.9847 87.7287L68.0277 142.671L68.0287 144.925L69.4486 143.174C90.7617 116.889 122.527 99.0943 154.39 89.4924L155.954 89.0207L154.622 88.0744C148.256 83.5514 144.435 77.7407 143.12 71.5705C141.806 65.4095 142.978 58.8269 146.709 52.718C149.452 49.0099 152.354 45.5025 155.525 41.926C155.737 42.6499 155.936 43.3679 156.132 44.0803C156.448 45.2271 156.762 46.362 157.124 47.4455C157.849 49.6134 158.785 51.6489 160.405 53.3078C162.364 55.3148 165.149 55.5252 167.635 55.0227C170.129 54.5186 172.527 53.2652 173.965 52.0403C178.134 48.4889 178.966 43.1264 177.346 38.2092L177.182 37.7346C175.215 32.3243 170.287 28.9463 164.863 27.3049Z" stroke="var(--stroke-0, #520345)" stroke-width="1.6"/>
<path id="Vector_5" d="M64.5966 720.75C67.5779 727.953 71.2866 733.987 76.4072 739.768L76.999 740.428C98.7669 764.42 134.135 783.554 166.49 789.643C158.281 792.637 151.534 797.194 147.821 805.081C143.79 813.646 146.769 823.194 153.083 829.906L153.849 830.72L154.372 829.733C155.101 828.361 155.867 826.92 156.773 825.662C157.67 824.419 158.66 823.419 159.81 822.853L159.853 822.832C165.869 819.938 172.624 821.954 176.849 825.972C180.973 829.894 182.634 836.151 180.971 842.037L180.8 842.606C178.779 848.912 173.495 853.425 167.013 855.582C145.547 862.727 122.527 853.908 110.679 834.626C103.804 823.395 101.162 810.88 101.574 797.254L101.6 796.431L100.775 796.43L64.5859 796.407L64.5966 720.75ZM68.0175 737.384L68.0029 792.255V793.057L68.8037 793.056L105.061 793.022C104.35 806.344 105.885 819.138 112.254 830.659C122.842 849.813 144.682 859.258 165.512 852.51C171.119 850.693 176.115 846.839 177.613 841.03C178.927 835.939 177.711 830.871 173.421 827.591H173.42C172.022 826.523 169.683 825.341 167.238 824.918C164.791 824.495 162.061 824.812 160.164 827.01C158.603 828.819 157.697 830.934 156.984 833.051C156.629 834.106 156.314 835.188 155.997 836.23C155.817 836.822 155.631 837.405 155.437 837.978L147.102 827.752C138.902 815.604 142.083 800.469 154.77 791.988L156.188 791.041L154.553 790.557C122.509 781.07 90.7687 763.089 69.4384 736.879L68.0185 735.134L68.0175 737.384Z" stroke="var(--stroke-0, #520345)" stroke-width="1.6"/>
<path id="Vector_6" d="M657.947 796.505L621.793 796.303L620.958 796.298L620.99 797.133C621.503 810.55 618.744 824.024 611.26 835.66C599.165 854.282 576.615 862.586 555.575 855.58C549.317 853.496 544.156 849.216 541.986 843.209C539.881 837.383 541.122 831.053 544.954 826.763L545.332 826.355C549.347 822.183 556.095 820.033 562.283 822.563C563.578 823.093 564.674 824.12 565.646 825.426C566.617 826.733 567.422 828.26 568.164 829.726L568.674 830.735L569.456 829.918C576.256 822.802 578.953 812.606 574.164 803.853C570.231 796.666 563.84 792.479 556.101 789.631C587.456 783.787 621.111 765.699 643.065 743.153C649.566 736.476 654.38 729.421 657.999 720.75L657.947 796.505ZM653.176 736.828L637.969 752.842C617.741 770.294 594.218 782.86 568.101 790.543L566.484 791.019L567.875 791.97C580.452 800.573 583.683 815.621 575.483 827.735L567.029 838.002C566.815 837.27 566.614 836.538 566.414 835.806C566.087 834.611 565.759 833.417 565.373 832.285C564.652 830.165 563.703 828.17 562.079 826.657L561.745 826.361C559.688 824.626 556.99 824.529 554.606 825.07C552.216 825.613 549.967 826.831 548.616 827.991C544.745 831.314 543.611 836.222 545.101 841.391C546.708 846.965 551.325 850.546 556.396 852.277C577.639 859.524 600.063 849.867 610.627 830.083L610.626 830.082C616.788 818.686 618.149 806.125 617.583 793.057L653.823 793.093L654.624 793.094L654.623 792.293L654.557 737.378L654.554 735.377L653.176 736.828Z" stroke="var(--stroke-0, #520345)" stroke-width="1.6"/>
</g>
</g>
</svg>
