<svg width="41" height="41" viewBox="0 0 41 41" fill="none" xmlns="http://www.w3.org/2000/svg">
<path d="M22.4231 10.8701C22.5322 10.8354 22.6163 10.8374 22.6799 10.8554C22.7407 10.8727 22.8161 10.914 22.8967 11.0166C23.0583 11.2224 23.11 11.542 23.01 11.9814C22.9116 12.4139 22.6818 12.8792 22.4143 13.2656C21.4098 14.7164 19.9775 15.7767 18.5227 16.6445C16.8366 17.6502 15.1012 18.4057 13.2932 19.0664L13.4309 20.0351C14.215 20.0876 14.9412 19.9382 15.6038 19.8349C15.989 19.7748 16.3693 19.6778 16.7053 19.6015C17.0529 19.5226 17.3736 19.46 17.6985 19.4443L26.0266 19.0419C26.6332 19.0126 27.1056 19.0612 27.5217 19.3427C28.0487 19.6993 28.7659 20.0777 29.596 19.8154C29.641 19.8011 29.6743 19.7951 29.6965 19.791C29.7759 19.8849 29.9903 20.1578 30.3909 20.3046C30.9333 20.5034 31.4724 20.6083 32.0217 20.6669C32.186 20.6845 32.3315 20.731 32.4241 20.7871C32.4681 20.8138 32.4887 20.8354 32.4963 20.8457C32.4976 20.8474 32.4987 20.8486 32.4993 20.8496L32.5002 20.8515L32.4993 20.8505C32.5012 20.8702 32.4985 20.8791 32.4954 20.8857C32.4908 20.8951 32.478 20.916 32.4446 20.9423C32.3727 20.999 32.2404 21.0535 32.0706 21.0683C31.7308 21.0978 31.2885 21.1488 30.8713 21.2636C30.5197 21.3604 30.12 21.5199 29.8245 21.8056L29.7043 21.9365C29.7013 21.9402 29.6974 21.9429 29.6946 21.9462C29.3247 21.8286 28.9881 21.8154 28.6721 21.8769C28.3351 21.9426 28.0465 22.0882 27.8069 22.2187C27.3031 22.4932 26.9642 22.713 26.4387 22.6894L17.8713 22.3046L17.8704 22.3046C17.4981 22.2879 17.1351 22.2226 16.7502 22.1406C16.3767 22.0609 15.9595 21.9603 15.5403 21.8935C14.8751 21.7876 14.1641 21.6492 13.3889 21.6884L13.2502 22.6601C15.2588 23.3545 17.1897 24.2338 19.0335 25.4248C20.2872 26.2346 21.5793 27.31 22.3772 28.6367C22.6004 29.0078 22.7722 29.4571 22.8294 29.8642C22.8885 30.2854 22.8134 30.5606 22.6838 30.706C22.5807 30.8218 22.5042 30.8504 22.4602 30.8584C22.4136 30.8667 22.3422 30.8633 22.2366 30.8115C22.0062 30.6983 21.7244 30.413 21.4592 29.9931C20.7032 28.7962 19.8709 27.7519 18.8987 26.7998C16.6219 24.5702 14.0093 22.9957 11.1819 22.1152L11.1731 22.1132L11.1653 22.1103L7.52369 21.1181L6.79322 20.8535C6.83181 20.8377 6.87234 20.8199 6.91626 20.8037C7.28597 20.6673 7.72819 20.5573 8.05201 20.4726L10.7307 19.7724C13.3096 19.098 15.6635 17.7237 17.8147 15.9267C19.2881 14.6958 20.5563 13.2373 21.6594 11.54C21.9031 11.1651 22.1937 10.943 22.4231 10.8701Z" fill="#141414" stroke="#141414"/>
<circle cx="20.5" cy="20.5" r="20" transform="rotate(180 20.5 20.5)" stroke="#141414"/>
</svg>
