<svg preserveAspectRatio="none" width="100%" height="100%" overflow="visible" style="display: block;" viewBox="0 0 972.833 873.803" fill="none" xmlns="http://www.w3.org/2000/svg">
<g id="Group">
<path id="Vector" d="M272.013 675.778C277.055 668.541 280.946 660.625 286.892 653.872C299.315 639.758 314.429 630.644 332.493 625.824C347.378 621.852 362.169 622.241 377.031 625.433C381.134 626.315 384.603 628.393 386.699 632.196C389.231 636.789 387.472 642.564 382.342 646.207C378.744 648.761 375.671 651.511 374.052 655.89C371.964 661.534 374.017 666.137 377.12 670.388C379.012 672.978 381.179 675.439 379.846 678.644C378.24 682.509 374.577 683.136 370.743 683.058C363.962 682.922 357.973 681.067 353.28 675.812C351.964 674.338 350.197 671.463 348.151 673.51C346.106 675.558 349.114 677.158 350.426 678.674C361.976 692.031 379.881 694.87 394.845 685.31C410.15 675.532 415.447 656.133 405.068 638.505C394.419 620.417 372.605 611.098 350.911 615.291C347.927 615.867 344.483 617.479 342.359 615.083C340.23 612.681 342.139 609.309 343.178 606.524C351.171 585.076 366.15 570.578 387.182 561.917C401.876 555.865 409.27 542.055 407.84 529.04C405.651 509.109 392.748 499.92 378.487 498.025C375.746 497.661 373.026 497.04 370.22 497.892C369.969 497.969 368.152 497.885 367.838 496.571C367.618 495.649 368.281 495.198 368.796 494.623C369.717 493.593 371.027 493.594 372.179 493.138C396.678 483.438 425.69 500.765 426.881 530.475C427.142 537.009 424.972 542.976 419.496 546.241C414.872 548.999 416.607 550.084 419.068 552.821C425.116 559.547 426.214 567.665 423.397 575.968C420.397 584.812 414.158 590.556 404.618 591.956C399.41 592.721 394.112 592.714 389.113 594.841C384.603 596.76 380.406 599.018 377.028 602.635C376.244 603.474 374.939 604.292 375.649 605.509C376.519 607.004 377.943 606.394 379.471 606.125C385.114 605.135 390.621 603.589 396.385 603.034C422.325 600.537 445.736 607.169 466.501 622.595C477.703 630.917 487.472 640.97 493.081 654.029C498.117 665.753 498.621 678.326 492.979 689.719C484.261 707.327 492.357 725.334 510.162 732.853C515.556 735.132 519.446 739.029 523.128 743.162C526.92 747.418 525.565 750.551 519.803 751.293C513.152 752.151 507.267 754.622 501.889 758.584C487.684 769.051 482.36 783.329 485.613 800.221C488.898 817.279 484.726 832.11 473.18 844.168C458.584 859.407 433.951 863.661 416.211 851.146C405.566 843.636 400.44 833.479 400.254 820.595C400.171 814.837 400.854 809.133 396.512 804.027C391.956 798.669 385.259 795.89 378.004 797.831C371.722 799.51 366.3 806.614 365.878 813.328C365.129 825.259 368.839 835.877 375.13 845.76C375.732 846.706 376.795 847.507 376.034 848.664C374.89 850.405 373.888 848.536 373.207 848.129C358.459 839.312 348.742 826.623 346.714 809.435C344.736 792.675 350.259 777.521 368.324 769.256C372.787 767.214 377.51 766.738 382.359 766.817C393.605 767.001 402.219 757.998 402.841 747.953C403.575 736.093 389.306 722.294 374.133 730.512C354.992 740.88 342.631 756.534 338.438 777.997C336.697 786.915 336.068 796.101 338.8 805.096" stroke="var(--stroke-0, #F3EEE1)" stroke-linecap="round" stroke-linejoin="round"/>
<path id="Vector_2" d="M58.5777 664.638C52.3983 663.462 46.876 660.347 41.7391 657.208C19.7664 643.781 7.24193 623.725 4.54228 598.265C2.31113 577.224 12.3538 558.711 33.407 550.806C34.9141 550.24 36.8897 550.389 35.9072 547.402C28.4752 524.788 44.371 509.408 63.3963 504.717C83.2917 499.811 102.396 501.823 121.542 508.548C135.22 513.352 149.631 515.276 164.088 516.408C165.677 516.532 167.982 516.883 168.233 514.949C168.377 513.839 166.101 513.071 164.583 512.519C154.671 508.912 144.406 506.748 134.08 504.803C124.921 503.078 116.521 499.272 109.004 494.019C102.739 489.64 100.233 483.073 102.126 475.258C103.749 468.559 109.48 463.211 116.661 462.221C123.063 461.338 128.462 464.701 133.52 467.64C150.45 477.478 164.235 490.737 174.191 507.746C174.632 508.499 175.619 508.953 175.636 509.65C175.688 511.693 177.125 511.483 178.088 511.031C179.571 510.333 178.739 509.153 178.119 508.197C169.223 494.461 161.303 480.144 154.032 465.519C146.921 451.213 141.006 436.342 134.908 421.556C124.971 397.465 102.455 384.93 76.9796 386.311C60.5185 387.203 49.0152 396.449 43.1813 411.846C37.6552 426.43 40.6086 439.788 50.8515 451.515C51.683 452.467 52.3915 453.614 53.3188 454.356C54.4039 455.225 55.1483 455.985 54.6846 457.332C54.1261 458.952 52.6675 459.003 51.3239 458.772C36.5209 456.232 26.2111 446.265 28.4896 431.732C29.5999 424.654 28.7511 419.172 26.3892 412.694C21.5417 399.399 24.008 386.529 33.0004 375.545C43.6266 362.564 57.4133 357.327 74.0584 360.995C80.8825 362.499 86.9517 365.622 91.9889 370.628C96.308 374.919 96.337 374.85 99.2399 369.192C105.314 357.349 116.608 351.927 128.759 356.109C139.261 359.723 145.424 370.612 143.184 383.219C140.577 397.894 140.75 412.359 144.215 426.834C144.885 429.63 145.851 432.32 146.607 435.076C146.876 436.059 147.023 437.089 148.108 436.93C149.315 436.753 149.041 435.503 149.09 434.575C149.758 422.17 151.696 410.04 155.806 398.23C161.946 380.586 172.07 365.767 185.286 352.623C198.371 339.608 214.499 331.983 230.898 324.673C245.831 318.017 259.544 309.522 272.027 298.971C290.15 283.653 305.309 265.895 317.051 245.211C328.745 224.608 336.017 202.725 335.331 178.847C334.511 150.267 324.876 124.96 305.956 103.235C297.226 93.2113 287.052 85.0995 275.878 78.1201C270.061 74.4866 265.01 74.8896 260.404 79.0694C255.39 83.6174 254.736 87.8079 257.984 94.5684C263.557 106.17 260.835 117.792 250.724 125.566C245.234 129.788 245.51 132.965 251.695 136.217C258.836 139.972 266.365 139.825 273.925 138.032C274.839 137.815 276.079 137.59 276.796 137.098C278.559 135.893 278.866 137.621 279.763 138.159C278.929 138.617 279.063 139.607 277.93 140.273C271.976 143.774 265.495 144.84 258.959 144.349C239.962 142.923 224.919 131.699 219.98 112.912C216.069 98.0324 219.484 83.8819 231.458 73.3629C242.432 63.7216 257.628 62.3413 271.552 68.8596C280.11 72.8661 287.346 78.744 294.775 84.3846C295.602 85.0133 296.242 86.971 297.618 85.3224C298.484 84.2839 297.4 83.3578 296.721 82.4453C282.505 63.3167 264.617 48.9298 242.509 39.8068C224.953 32.5629 206.659 29.3334 187.811 30.2604C166.754 31.2959 147.265 38.1009 128.738 48.0299C110.388 57.864 94.5007 70.7852 80.9096 86.3898C56.5005 114.414 42.3693 147.217 39.4625 184.19C37.6156 207.676 45.4841 228.803 60.4972 247.154C72.3005 261.582 87.572 270.605 105.055 276.165C123.513 282.034 141.005 273.037 143.318 251.499C143.941 245.693 144.166 239.863 144.639 234.051C145.136 227.95 150.656 224.662 153.925 224.883C158.369 225.183 161.477 229.291 161.662 235.027C162.15 250.147 156.178 262.209 144.199 271.289C143.171 272.068 142.242 272.916 141.383 273.813C140.657 274.571 138.439 274.909 139.937 276.64C140.812 277.651 142.045 277.067 143.295 276.745C152.113 274.468 159.662 269.566 166.375 263.927C176.44 255.472 184.759 245.45 189.347 232.638C193.885 219.966 195.996 207.234 193.639 193.853C191.14 179.659 176.523 168.872 160.732 173.145C144.654 177.496 137.166 194.176 142.297 207.908C142.402 208.191 142.242 208.567 142.321 208.869C143.034 211.585 146.17 214.413 142.733 217.025C140.059 219.06 137.293 216.585 135.119 215.512C123.678 209.868 114.473 202.042 110.784 189.033C108.796 182.021 110.273 176.33 115.163 171.052C120.481 165.313 126.964 164.303 134.07 165.822C139.456 166.974 139.569 167.198 139.375 161.891C138.815 146.525 150.155 130.573 169.425 129.106C179.075 128.371 187.834 132.226 195.021 138.69C208.895 151.172 215.921 166.892 215.844 185.622C215.815 192.823 213.882 199.736 211.397 206.403C210.467 208.895 210.317 212.028 207.648 213.714" stroke="var(--stroke-0, #F3EEE1)" stroke-linecap="round" stroke-linejoin="round"/>
<path id="Vector_3" d="M620.963 532.412C630.932 524.003 642.504 518.934 655.336 517.495C679.538 514.78 699.28 523.614 714.84 542.112C721.033 549.475 724.658 558.18 727.444 567.283C728.289 570.047 728.529 570.071 729.854 570.237C731.918 570.493 732.044 568.685 732.196 567.756C734.337 554.638 741.427 543.473 746.288 531.433C754.441 511.239 759.896 490.441 760.415 468.481C760.669 457.753 753.499 447.374 743.405 444.283C731.108 440.519 720.3 444.153 713.379 453.932C707.601 462.095 706.609 470.554 710.907 479.657C711.199 480.275 711.476 481.169 711.557 482.033C711.631 482.814 712.51 483.572 711.937 484.453C711.03 485.847 709.786 484.664 709.083 484.378C697.956 479.856 690.801 471.846 689.307 459.75C688.391 452.328 688.826 444.904 694.516 438.923C699.96 433.198 706.552 433.762 710.928 436.133C713.693 437.631 714.604 437.394 716.421 434.652C727.289 418.261 751.567 412.759 769.15 424.271C781.511 432.363 790.394 450.341 785.201 468.529C781.791 480.473 776.474 491.128 769.098 500.958C766.739 504.103 764.239 507.303 764.214 511.587C764.207 512.685 763.975 513.987 765.212 514.434C766.203 514.792 767.208 514.481 768.126 513.556C773.13 508.507 776.836 502.373 782.09 497.498C803.203 477.913 827.755 466.176 856.663 464.125C886.537 462.006 908.734 474.545 922.782 500.548C930.259 514.386 933.211 529.575 926.77 544.977C923.284 553.314 917.385 559.659 908.948 563.445C905.701 564.902 905.581 565.779 908.478 567.726C914.411 571.712 917.158 577.484 918.095 584.243C919.56 594.802 915.408 603.055 906.449 608.348C898.436 613.083 889.99 613.436 881.812 607.997C877.822 605.344 877.949 605.503 876.948 610.87C874.483 624.092 868.046 634.167 854.753 639.043C848.337 641.397 842.733 645.327 837.777 650.099C837.365 650.495 836.966 651.412 836.396 650.994C836.095 650.772 835.742 649.927 835.819 649.138C836.761 639.359 833.202 630.915 828.726 622.431C823.522 612.568 821.521 602.277 829.514 592.437C831.166 590.404 830.269 589.408 827.661 588.49C815.856 584.338 809.042 576.12 807.203 563.427C804.896 547.5 818.165 530.451 835.367 530.434C843.241 530.427 850.4 531.818 856.228 537.694C858.422 539.906 856.4 540.224 855.194 540.594C852.056 541.555 848.899 541.98 845.947 543.936C837.408 549.594 832.123 559.486 834.494 568.231C837.507 579.339 844.25 586.45 857.162 587.994C872.213 589.793 882.729 582.836 890.134 569.752C909.038 536.35 889.175 495.003 850.352 489.443C840.449 488.024 830.555 490.288 820.844 492.68C803.61 496.925 788.256 504.482 774.781 516.329C759.605 529.671 749.101 545.872 743.008 564.892C735.455 588.472 736.536 612.005 745.39 635.08C751.709 651.551 761.348 665.746 775.335 676.775C776.937 678.039 778.321 679.601 779.686 681.131C780.37 681.898 782.169 682.447 780.679 684.013C779.683 685.061 778.087 684.82 777.343 684.408C771.343 681.08 764.884 678.505 760.306 672.913C753.265 664.311 747.53 654.651 739.094 647.164C733.302 642.023 727.246 637.397 720.191 634.111C703.14 626.169 684.152 638.34 683.006 657.38C682.642 663.424 686.58 667.955 690.176 672.389" stroke="var(--stroke-0, #F3EEE1)" stroke-linecap="round" stroke-linejoin="round"/>
<path id="Vector_4" d="M235.715 752.304C237.747 746.251 242.576 741.961 245.603 736.435C254.946 719.374 260.463 701.252 262.251 682.066C265.685 645.228 256.959 611.247 235.096 581.43C208.502 545.161 172.151 525.508 127.303 521.763C108.765 520.215 90.685 522.242 73.0885 528.512C52.5512 535.83 38.2689 549.643 30.048 569.717C19.2165 596.168 23.7854 620.785 40.3694 643.192C46.0059 650.807 53.2152 657.53 62.4495 661.248" stroke="var(--stroke-0, #F3EEE1)" stroke-linecap="round" stroke-linejoin="round"/>
<path id="Vector_5" d="M22.2791 72.772C27.1925 78.989 28.2399 85.6846 26.8528 93.6366C25.0979 103.698 28.8148 111.653 40.2087 115.819C41.0382 116.123 41.8716 116.146 42.6663 116.772C43.1609 117.162 44.4173 116.87 44.4861 117.82C44.5674 118.935 43.6237 119.084 42.618 119.318C38.4906 120.283 34.1454 120.807 30.5339 123.184C24.6671 127.045 21.1824 132.964 18.4721 139.155C7.65127 163.874 8.66868 187.773 22.5976 211.391C30.6685 225.076 39.1091 238.31 50.3732 249.533C77.2254 276.288 109.541 291.824 147.138 296.6C157.667 297.937 167.756 298.025 176.661 291.2C184.937 284.856 188.456 276.354 187.81 266.023C187.739 264.898 187.799 263.764 187.8 262.634C187.805 256.293 187.781 256.34 193.612 259.235C211.923 268.324 227.712 264.047 239.534 251.928C245.117 246.205 248.325 239.055 249.751 231.152C250.929 224.62 252.816 218.311 256.578 212.783C258.215 210.378 257.634 209.786 255.073 209.837C249.489 209.948 244.237 208.673 239.083 206.493C229.046 202.248 219.82 204.911 211.031 210.324" stroke="var(--stroke-0, #F3EEE1)" stroke-linecap="round" stroke-linejoin="round"/>
<path id="Vector_6" d="M864.889 161.407C867.802 163.729 871.242 165.345 874.048 167.747C892.472 183.515 899.84 204.082 898.635 227.755C897.883 242.52 887.532 246.382 878.915 244.767C871.175 243.317 864.207 235.81 865.496 226.326C867.529 211.377 866.099 197.178 859.088 183.684C846.856 160.137 821.388 146.401 795.671 149.225C765.002 152.594 737.8 164.058 713.389 182.701C690.351 200.295 674.505 223.254 663.142 249.59C662.862 250.238 662.796 251.378 662.483 251.92C661.699 253.277 661.996 254.235 663.1 254.827C663.935 255.274 664.771 254.679 665.513 253.941C669.419 250.058 673.198 246.131 678.024 243.183C695.198 232.695 712.531 232.088 730.363 241.282C733.021 242.653 735.128 244.532 737.117 246.652" stroke="var(--stroke-0, #F3EEE1)" stroke-linecap="round" stroke-linejoin="round"/>
<path id="Vector_7" d="M840.69 783.301C839.176 774.88 835.385 767.176 831.759 759.675C824.838 745.357 818.459 730.59 807.783 718.396C796.666 705.697 783.824 695.499 768.141 688.743C753.354 682.373 738.123 679.23 722.115 679.674C709.618 680.019 697.731 683.386 685.786 686.816C668.107 691.892 653.118 701.065 641.365 715.073C629.239 729.526 622.581 746.338 621.918 765.381C620.63 802.448 645.01 836.714 679.089 850.014C696.476 856.799 713.834 856.929 729.913 845.376C731.885 843.959 733.852 842.838 734.697 840.455" stroke="var(--stroke-0, #F3EEE1)" stroke-linecap="round" stroke-linejoin="round"/>
<path id="Vector_8" d="M518.359 801.706C519.144 805.328 515.839 806.989 514.369 809.383C501.893 829.71 485.48 846.153 464.611 857.844C452.792 864.464 440.035 867.936 426.406 868.613C403.804 869.737 383.672 863.07 365.44 850.114C354.601 842.412 346.398 832.397 340.221 820.613C334.273 809.267 325.744 800.559 313.135 796.919C298.332 792.645 284.9 795.463 273.497 806.099C268.85 810.435 264.265 814.812 262.736 821.545C261.013 829.131 263.573 836.418 270.591 840.399C277.345 844.231 283.705 843.707 289.887 838.957C291.875 837.431 293.888 835.625 294.673 833.161C295.141 831.692 295.689 830.396 297.132 830.903C298.004 831.21 298.306 832.919 298.136 834.155C296.44 846.519 286.003 856.193 274.431 856.889C263.252 857.563 254.658 853.085 249.814 842.844C244.174 830.918 247.105 818.858 254.141 810.939C257.044 807.67 259.975 804.075 264.302 802.786C267.695 801.776 266.977 799.782 266.161 797.849C259.282 781.557 270.394 760.369 289.423 758.01C299.241 756.793 306.997 760.301 314.117 766.351C324.222 774.94 331.386 785.619 336.382 797.831" stroke="var(--stroke-0, #F3EEE1)" stroke-linecap="round" stroke-linejoin="round"/>
<path id="Vector_9" d="M267.657 439.903C251.439 441.415 239.767 431.056 237.969 417.16C235.942 401.493 250.568 386.143 267.156 388.215C267.976 388.318 269.138 388.475 270.139 388.898C271.431 389.444 272.833 389.731 272.69 386.616C272.116 374.076 279.388 368.062 288.969 366.384C298.761 364.669 308.972 372.468 310.326 382.739C311.338 390.407 309.344 392.56 301.53 391.497C283.5 389.044 273.663 403.369 275.894 416.652C278.83 434.133 288.453 446.416 304.94 452.934C321.012 459.287 336.021 456.908 349.944 446.698C378.951 425.424 382.486 379.14 358.698 351.705C341.294 331.632 319.084 320.663 293.282 317.57C268.812 314.637 246.079 321.423 225.642 334.938C217.595 340.259 214.057 348.232 215.718 358.556C217.651 370.568 211.208 379.991 198.931 381.78" stroke="var(--stroke-0, #F3EEE1)" stroke-linecap="round" stroke-linejoin="round"/>
<path id="Vector_10" d="M619.027 40.3211C602.203 36.9918 587.348 45.2507 579.882 58.2747C577.941 61.6612 577.691 65.6087 578.896 69.3691C580.79 75.2858 586.49 79.1479 593.375 79.0297C604.223 78.8437 615.121 79.0811 625.778 80.6871C648.094 84.0504 666.321 94.9142 679.495 113.478C700.334 142.843 700.493 179.9 678.46 210.741C675.45 214.954 671.201 218.306 667.373 221.893C666.558 222.656 665.233 223.845 664.077 223.316C662.262 222.486 662.873 220.421 663.144 219.058C664.702 211.239 664.298 203.507 662.582 195.795C657.977 175.101 640.301 158.322 621.943 155.042C605.627 152.128 590.76 166.597 590.87 180.779C590.922 187.41 592.236 193.413 596.3 198.683C597.115 199.741 597.387 202.343 599.634 200.594C601.607 199.057 599.103 198.112 598.59 197.317C595.406 192.38 593.703 187.14 594.362 181.265C594.902 176.454 596.242 172.014 600.629 169.145C604.109 166.87 608.038 166.977 611.195 168.822C615.454 171.31 617.565 175.755 616.522 180.761C615.227 186.981 615.491 192.853 618.031 198.711C622.065 208.013 628.962 213.807 638.879 215.6C650.878 217.769 655.667 224.119 654.386 236.48C653.352 246.449 650.764 255.882 646.718 265.099C641.266 277.519 638.851 290.779 637.934 304.287C637.747 307.059 637.882 309.848 636.934 312.519" stroke="var(--stroke-0, #F3EEE1)" stroke-linecap="round" stroke-linejoin="round"/>
<path id="Vector_11" d="M862.469 370.642C866.602 369.979 869.396 373.057 872.574 374.636C897.86 387.196 927.856 378.65 942.921 358.132C946.716 352.964 948.654 340.389 943.278 334.331C940.898 331.649 940.574 329.815 943.689 326.955C960.212 311.778 965.697 292.736 962.156 270.87C957.563 242.504 944.612 218.272 925.931 196.711C913.152 181.961 898.091 170.317 880.839 161.448C871.866 156.835 862.559 152.954 852.801 150.224C851.364 149.822 848.963 149.841 849.087 147.856C849.172 146.525 851.345 146.352 852.768 145.847C861.252 142.834 869.329 144.56 877.489 147.309C885.907 150.146 893.872 150.178 901.778 144.607C909.042 139.488 913.705 127.515 910.222 118.361C908.858 114.778 910.235 114.366 912.804 113.95C923.27 112.256 927.276 104.558 929.175 95.5178C932.179 81.2123 928.659 68.6813 919.221 57.1685C905.275 40.1575 878.159 38.2278 863.828 48.4232C862.695 49.2292 861.525 50.0613 860.587 51.028C859.556 52.0897 859.637 53.6367 860.559 54.8311C861.745 56.3684 862.95 56.1049 864.437 54.8902C868.34 51.7042 872.838 50.0826 877.956 49.9751C888.082 49.7629 898.166 56.3791 900.633 68.4266C903.101 80.4722 894.878 91.4008 885.729 93.7131C876.935 95.9353 868.45 99.1494 860.981 104.69C853.327 110.368 847.96 117.688 843.521 126.011C838.444 135.53 830.455 141.429 819.394 141.403C813.423 141.39 807.471 141.036 801.484 141.519C768.761 144.151 738.884 154.744 711.997 173.583C708.636 175.938 705.043 178.132 702.297 181.289C701.43 182.286 700.299 182.591 699.437 182.107C699.023 181.876 699.126 180.221 699.402 179.34C702.569 169.219 702.791 158.806 702.787 148.33C702.781 133.74 699.151 119.998 693.552 106.679C686.96 90.9969 689.49 76.1131 699.541 63.2228C711.728 47.596 728.353 42.5918 747.774 47.0574C752.312 48.1007 755.538 51.2421 759.379 53.3994" stroke="var(--stroke-0, #F3EEE1)" stroke-linecap="round" stroke-linejoin="round"/>
<path id="Vector_12" d="M268.141 310.099C275.316 302.607 283.94 296.846 291.877 290.267C305.925 278.621 321.476 268.817 334.423 255.831C347.998 242.216 354.694 225.573 355.775 206.452C356.748 189.208 352.603 173.458 343.201 158.957C337.254 149.784 334.474 140.077 339.739 129.425C343.042 122.744 348.452 117.929 354.379 114.08C364.39 107.577 375.414 103.457 387.684 103.741C390.484 103.806 393.509 103.553 395.853 102.215C402.157 98.6204 401.256 90.2268 394.469 86.3172C385.961 81.4156 373.418 82.6207 365.424 89.2435C365.074 89.5332 364.803 89.9187 364.449 90.2025C362.881 91.457 361.53 94.4017 359.219 92.5205C356.356 90.1918 359.49 88.1131 360.649 86.3791C367.018 76.8599 376.062 71.1205 387.211 68.9506C397.279 66.991 406.808 63.6858 415.74 58.699C419.968 56.3383 423.926 53.5756 425.432 48.5549C427.566 41.4419 423.635 33.1393 411.881 32.6298C395.673 31.9265 380.918 36.5888 367.867 46.1701C352.65 57.3428 344.277 72.7091 341.182 91.1712C340.885 92.94 341.322 95.9623 338.811 95.8432C335.869 95.7037 335.624 92.5583 335.483 90.2044C335.349 87.9435 335.844 85.55 336.503 83.4654C338.253 77.9226 338.051 72.5038 336.883 66.9571C335.506 60.4165 332.839 56.8614 328.15 56.3548C322.542 55.7484 319.178 58.9916 316.5 63.5463C311.999 71.2019 312.543 78.9474 315.593 86.8102C316.742 89.7715 318.888 92.3413 319.379 95.5467C319.573 96.8109 320.169 98.755 318.443 99.3149C316.977 99.7905 316.677 98.2203 315.953 97.054C311.395 89.7153 307.3 82.1189 302.103 75.1327C282.25 48.4435 256.223 31.9769 223.646 25.1574C208.405 21.9665 193.117 19.6591 177.636 19.6378C158.646 19.6116 139.846 21.8997 121.481 27.1965C111.659 30.0299 101.846 32.5639 93.3836 38.8148C82.8406 46.603 77.9553 57.2538 76.4995 69.8689C76.3504 71.1631 76.9671 72.9871 75.9265 73.6196C74.6817 74.3762 74.0621 72.4533 73.0971 71.8033C64.0002 65.6696 54.309 63.9861 44.0786 68.4624C37.2254 71.4604 30.2077 72.9057 22.7622 72.2886" stroke="var(--stroke-0, #F3EEE1)" stroke-linecap="round" stroke-linejoin="round"/>
<path id="Vector_13" d="M238.618 746.007C237.974 740.892 239.832 736.003 240.006 730.991C240.316 722.004 240.014 713.02 237.156 704.358C233.477 693.205 222.723 688.44 213.506 691.906C202.755 695.949 195.794 709.309 205.744 721.761C207.585 724.065 209.817 726.081 212.013 728.071C225.064 739.896 227.402 763.595 215.416 780.9C196.386 808.373 172.678 830.579 142.767 845.739C120.563 856.992 97.0348 863.688 72.134 865.72C56.514 866.995 41.0635 866.55 25.6584 863.744C24.7214 863.573 23.4708 863.684 23.3547 862.721C23.2588 861.931 24.5607 861.032 25.2024 860.895C27.5749 860.39 29.4489 859.018 31.4729 857.89" stroke="var(--stroke-0, #F3EEE1)" stroke-linecap="round" stroke-linejoin="round"/>
<path id="Vector_14" d="M733.731 244.229C729.179 245.021 724.741 243.471 720.176 243.68C703.323 244.451 688.605 250.231 676.134 261.662C662.209 274.426 655.178 290.983 649.968 308.637C644.278 327.921 644.14 347.314 648.621 366.752C650.846 376.404 654.87 385.539 656.864 395.327C664.057 430.639 660.032 464.538 644.618 497.027C639.844 507.09 633.942 516.557 626.728 525.11C625.909 526.081 625.74 526.956 625.805 528.054" stroke="var(--stroke-0, #F3EEE1)" stroke-linecap="round" stroke-linejoin="round"/>
<path id="Vector_15" d="M283.629 469.448C286.511 477.865 291.368 483.891 300.527 486.539C313.615 490.323 328.457 479.724 328.183 466.058C328.094 461.612 328.447 461.43 332.016 463.652C344.757 471.587 359.585 470.952 371.143 460.153C391.337 441.286 399.787 417.922 394.322 390.528C391.293 375.348 383.244 362.281 373.607 350.334C364.054 338.49 352.289 329.26 338.807 322.199C324.687 314.804 309.705 310.723 293.799 309.529C284.8 308.853 275.989 309.544 267.173 311.069" stroke="var(--stroke-0, #F3EEE1)" stroke-linecap="round" stroke-linejoin="round"/>
<path id="Vector_16" d="M268.625 685.464C271.792 679.877 271.424 673.597 271.975 667.54C275.132 632.903 265.962 601.789 244.303 574.648C238.502 567.379 231.189 561.319 224.585 554.69C202.788 532.813 185.455 507.631 171.063 480.48C166.737 472.317 161.874 464.119 159.775 454.907C157.342 444.227 162.601 432.635 171.789 426.281C179.535 420.925 188.65 418.378 196.592 413.39C201.497 410.309 205.482 407.139 206.715 401.164C208.574 392.14 202.316 382.055 193.125 381.298" stroke="var(--stroke-0, #F3EEE1)" stroke-linecap="round" stroke-linejoin="round"/>
<path id="Vector_17" d="M610.799 372.095C600.121 361.665 583.856 363.628 575.875 374.459C573.322 377.923 570.889 381.765 567.185 384.115C564.202 386.008 564.12 386.857 567.203 388.63C570.694 390.638 573.332 393.82 575.895 396.846C585.286 407.934 597.209 412.265 611.264 409.763C623.163 407.646 631.455 409.48 638.458 423.4C647.109 440.592 650.143 458.24 643.623 476.682C639.607 488.039 633.016 498.197 625.691 507.623C614.017 522.643 600.465 535.807 584.201 546.005C565.915 557.471 546.347 565.596 525.144 569.745C523.668 570.034 522.173 570.143 520.695 571.015C519.497 571.723 517.835 572.24 518.507 573.504C519.176 574.76 520.143 576.593 522.754 575.622C526.733 574.141 531.01 574.075 535.298 573.981C544.998 573.766 552.138 578.692 557.424 585.794C565.683 596.888 576.161 601.153 589.502 598.742C607.514 595.487 621.206 606.985 624.404 621.035C624.741 622.514 624.829 623.941 624.821 625.406C624.816 626.551 624.798 627.783 626.288 627.783C627.778 627.783 627.608 626.52 627.773 625.411C629.359 614.715 627.986 604.347 622.8 594.948C615.244 581.251 603.867 572.278 588.052 569.711C579.077 568.254 570.367 569.378 561.951 572.698C561.335 572.941 560.571 573.184 559.934 573.478C558.642 574.073 556.593 575.012 555.76 573.507C554.902 571.954 556.721 571.072 558.02 570.155C582.931 552.59 616.137 555.691 637.426 576.48C647.699 586.511 654.415 598.336 655.787 612.815C657.211 627.841 651.984 640.117 639.815 649.108C624.067 660.742 603.055 659.573 588.141 646.133C581.422 640.077 581.673 632.189 585.708 626.428C590.703 619.299 600.099 617.377 606.916 621.55C607.483 621.897 607.835 622.592 608.394 622.961C609.096 623.425 609.884 624.197 610.785 623.452C612.004 622.446 610.953 621.801 610.325 621.038C605.179 614.791 597.695 612.528 589.539 615.807C577.303 620.726 565.607 619.87 554.193 613.744C548.166 610.509 543.517 605.388 538.255 601.124C522.796 588.595 505.18 581.947 485.451 580.332C465.75 578.719 447.634 583.344 430.692 593.329C429.64 593.949 428.774 595.328 427.864 595.255C425.976 595.102 426.75 596.858 425.918 597.316C426.491 598.225 427.426 598.107 428.325 598.335C438.528 600.926 448.614 603.796 458.382 607.882C470.817 613.083 482.154 620.086 492.12 628.917C507.162 642.244 519.706 657.588 528.178 676.201C534.759 690.66 538.512 705.665 540.108 721.311C542.122 741.055 539.168 760.245 532.839 778.932C528.711 791.12 527.201 803.301 531.43 815.753C532.644 819.331 534.716 822.505 536.262 825.927C537.108 827.8 539.034 829.874 536.69 831.659C534.615 833.24 532.702 831.394 530.949 830.275C522.643 824.976 518.419 817.386 518.392 807.519C518.389 806.631 518.066 805.899 517.875 805.098" stroke="var(--stroke-0, #F3EEE1)" stroke-linecap="round" stroke-linejoin="round"/>
<path id="Vector_18" d="M600.636 754.725C597.929 756.261 594.803 755.861 591.915 756.626C576.068 760.823 565.435 776.235 566.81 793.469C567.136 797.557 569.408 798.529 573.51 796.334C579.837 792.948 586.391 791.862 593.376 793.477C605.807 796.351 613.263 808.208 612.763 818.66C612.234 829.697 614.766 839.586 622.313 848.292C632.136 859.624 645.324 862.956 658.212 860.699C662.089 860.02 665.995 858.714 669.344 856.414C671.963 854.616 673.342 855.22 675.263 857.821C682.753 867.97 693.164 873.158 705.66 873.3C720.378 873.467 731.357 866.697 738.029 853.504C740.665 848.292 744.879 843.766 745.345 837.549" stroke="var(--stroke-0, #F3EEE1)" stroke-linecap="round" stroke-linejoin="round"/>
<path id="Vector_19" d="M442.374 292.663C445.789 292.716 448.416 295.416 452.06 295.179C457.554 294.82 463.811 291.273 465.551 286.348C467.529 280.755 467.178 275.331 462.691 270.878C448.54 256.837 426.913 256.287 411.899 269.434C397.196 282.309 394.927 302.075 405.183 320.714C415.69 339.81 432.174 349.879 453.987 351.302C466.94 352.148 478.544 348.459 489.316 341.576C490.807 340.623 493.34 339.327 492.522 337.808C490.983 334.948 489.414 338.132 487.875 338.697C470.762 344.978 452.871 342.843 438.919 329.545C428.942 320.036 424.587 308.548 424.458 295.086C424.434 292.551 425.101 290.176 425.918 287.821C428.874 289.093 427.629 292.006 428.285 294.134C432.185 306.786 443.426 317.139 460.738 314.302C473.798 312.162 483.641 316.771 491.106 326.681C495.28 332.221 499.807 335.351 506.745 334.839C507.992 334.747 509.911 334.136 510.063 336.26C510.191 338.036 508.263 337.759 507.212 338.155C481.795 347.746 467.555 366.375 463.806 392.942C462.452 402.539 463.525 412.467 467.23 421.427C472.134 433.29 481.894 439.574 494.646 440.839C504.749 441.841 513.864 439.012 521.714 432.6C526.361 428.805 529.119 423.65 527.893 417.654C526.722 411.933 522.923 408.24 516.938 406.381C503.972 402.353 496.162 393.71 493.993 379.873C493.245 375.096 495.732 371.195 495.611 366.77" stroke="var(--stroke-0, #F3EEE1)" stroke-linecap="round" stroke-linejoin="round"/>
<path id="Vector_20" d="M81.3248 788.629C87.2197 794.338 88.5865 801.921 88.9592 809.462C90.1072 832.695 75.4406 851.533 50.8215 856.372C48.3357 856.86 45.671 856.397 43.0914 856.454C41.8059 856.483 39.8796 856.827 39.8864 857.889C39.8942 859.126 41.802 859.564 43.0952 859.804C54.2664 861.879 65.4763 861.636 75.9507 857.283C95.1598 849.3 107.642 835.257 111.306 814.295C113.951 799.167 112.222 784.982 100.65 773.65C87.1878 760.469 64.2142 759.563 50.3114 773.575C46.8316 777.082 43.6034 780.712 41.6801 785.256C39.0017 791.583 40.2252 796.842 45.0282 801.222C50.0965 805.845 55.7165 806.313 62.4515 802.675" stroke="var(--stroke-0, #F3EEE1)" stroke-linecap="round" stroke-linejoin="round"/>
<path id="Vector_21" d="M883.281 175.452C884.087 175.615 884.932 175.149 885.717 175.92C897.247 187.238 908.093 198.976 916.326 213.154C927.982 233.225 934.18 254.869 936.379 277.663C938.051 294.993 937.678 312.193 928.363 328.064C916.176 348.831 898.431 360.671 874.566 363.355C871.358 363.716 868.116 364.589 864.889 363.378" stroke="var(--stroke-0, #F3EEE1)" stroke-linecap="round" stroke-linejoin="round"/>
<path id="Vector_22" d="M747.766 64.5382C746.149 67.6506 742.514 69.1414 741.437 72.7604C739.776 78.3323 740.64 83.107 744.835 87.3295C749.028 91.5491 753.888 91.6905 758.878 89.6766C774.414 83.4082 782.759 71.6252 781.046 53.4091C779.65 38.5572 770.29 26.7935 754.521 22.9701C727.068 16.3123 699.389 31.4606 689.529 57.2121C686.153 66.0271 685.804 74.8392 685.779 83.9119C685.776 84.8602 686.544 86.4383 685.307 86.6998C684.032 86.9691 684.173 85.3534 683.86 84.4031C681.05 75.8496 678.491 67.2622 674.29 59.164C660.606 32.7877 639.855 14.4205 612.216 4.0914C592.165 -3.40137 576.182 1.16792 562.885 14.651C562.404 15.1383 561.875 15.5849 561.441 16.1108C559.757 18.1538 559.429 21.922 556.573 22.1651C554.402 22.3501 552.388 19.7821 550.37 18.425C541.584 12.5151 532.006 10.602 521.757 12.2904C512.376 13.8354 503.262 13.5661 494.696 9.22157C492.194 7.95356 491.383 8.18316 491.276 10.7773C491.023 16.881 488.399 22.2503 485.339 27.1761C479.444 36.6663 478.653 46.4481 482.103 56.7743C482.98 59.3984 483.273 60.5579 479.646 60.7691C464.349 61.6603 453.295 71.7133 451.689 87.3149C450.689 97.0231 455.101 105.139 461.763 111.974C464.06 114.33 465.993 116.88 467.537 119.755C468.279 121.137 469.073 122.526 468.024 124.112" stroke="var(--stroke-0, #F3EEE1)" stroke-linecap="round" stroke-linejoin="round"/>
<path id="Vector_23" d="M441.89 291.695C444.916 298.689 452.504 301.427 460.295 298.512C463.083 297.47 465.75 296.154 468.471 294.994C485.28 287.826 502.723 300.885 505.794 313.969C509.366 329.185 518.201 334.414 533.855 331.459C567.041 325.195 596.055 333.371 620.515 357.043C625.323 361.696 629.235 367.051 633.601 372.047C634.138 372.662 634.549 374.485 635.926 373.492C637.123 372.629 636.331 371.297 635.97 370.156C632.451 359.053 626.269 349.692 617.059 342.591C603.094 331.825 594.078 318.345 592.367 300.417C591.723 293.668 594.006 288.325 599.723 285.009C604.867 282.024 610.854 282.362 615.548 285.533C628.11 294.019 636.159 305.641 637.418 321.238" stroke="var(--stroke-0, #F3EEE1)" stroke-linecap="round" stroke-linejoin="round"/>
<path id="Vector_24" d="M840.206 777.489C841.013 769.236 841.153 760.958 843.007 752.765C846.552 737.097 853.543 723.054 864.593 711.805C877.63 698.533 893.275 703.884 899.645 715.062C902.087 719.348 902.508 717.229 903.633 714.536C906.922 706.656 913.019 701.665 921.06 699.627C928.98 697.618 936.503 699.459 942.783 704.87C949.855 710.963 953.358 718.597 951.444 728.071C951.185 729.352 951.313 730.718 950.589 731.982C948.407 735.793 949.288 737.477 953.889 738.912C968.209 743.375 973.574 759.179 968.895 771.173C963.04 786.182 947.535 790.166 935.091 785.177C932.76 784.243 930.788 782.414 928.861 780.777C928.274 780.279 926.129 779.034 929.165 777.323C939.577 771.452 944.134 761.426 942.376 751.325C940.494 740.515 932.805 732.442 919.564 730.612C903 728.323 888.43 733.108 875.99 744.52C863.857 755.649 857.771 769.302 858.142 785.721C858.622 807.006 869.119 822.239 887.19 832.637C888.831 833.58 891.574 832.646 891.992 835.608" stroke="var(--stroke-0, #F3EEE1)" stroke-linecap="round" stroke-linejoin="round"/>
<path id="Vector_25" d="M972.333 865.64C962.166 865.417 951.963 867.091 941.836 864.695C922.171 860.043 908.177 840.7 910.783 820.101C911.9 811.271 911.907 802.294 910.327 793.482C908.712 784.472 903.835 780.344 895.858 779.48C888.864 778.723 882.806 783.32 880.404 791.059C875.613 806.49 880.349 819.874 889.572 832.219" stroke="var(--stroke-0, #F3EEE1)" stroke-linecap="round" stroke-linejoin="round"/>
<path id="Vector_26" d="M613.219 38.8681C607.538 34.9265 600.697 34.5827 594.32 33.7215C573.334 30.8871 552.586 32.097 532.381 39.3137C507.081 48.3506 489.202 64.9615 479.67 90.219C475.555 101.122 473.588 112.425 474.909 124.1C475.048 125.321 474.479 126.372 474.801 127.503" stroke="var(--stroke-0, #F3EEE1)" stroke-linecap="round" stroke-linejoin="round"/>
<path id="Vector_27" d="M608.38 369.189C606.656 364.429 603.209 360.939 599.653 357.58C588.931 347.45 576.181 340.825 561.891 337.831C543.025 333.878 523.003 348.985 528.049 373.062C530.042 382.572 528.785 386.634 522.221 390.483C516.799 393.662 511.368 393.446 503.88 387.544C499.413 384.023 496.811 379.137 495.613 373.548" stroke="var(--stroke-0, #F3EEE1)" stroke-linecap="round" stroke-linejoin="round"/>
<path id="Vector_28" d="M695.496 674.809C690.019 671.851 683.863 672.702 678.056 672.051C657.328 669.729 637.268 673.184 618.083 681.163C599.273 688.987 588.939 703.335 588.649 724.214C588.479 736.326 593.846 746.419 602.573 754.725" stroke="var(--stroke-0, #F3EEE1)" stroke-linecap="round" stroke-linejoin="round"/>
<path id="Vector_29" d="M755.994 51.9453C753.394 52.975 751.183 51.1627 748.739 50.9244C737.834 49.8617 728.509 57.0619 726.574 67.4637C723.825 82.2438 716.561 92.8112 701.835 97.6197C701.003 97.891 699.16 97.9714 698.931 99.4186C698.671 101.07 700.07 101.661 701.296 102.33C709.292 106.692 717.463 107.471 725.468 102.742C733.06 98.2571 737.603 91.6517 737.608 82.4579C737.612 76.8938 737.077 71.4033 741.842 66.8379C744.85 63.9561 748.328 64.4617 751.638 63.5686" stroke="var(--stroke-0, #F3EEE1)" stroke-linecap="round" stroke-linejoin="round"/>
<path id="Vector_30" d="M0.5 865.64C11.0363 865.64 18.0308 860.321 19.807 850.615C20.5552 846.526 18.7123 842.586 18.3183 838.525C16.8141 823.037 30.1235 807.289 48.3938 809.617C55.5722 810.531 61.9801 810.9 66.7473 804.569C68.1712 802.678 69.2223 800.363 69.2049 797.832C69.1972 796.651 68.4819 796.132 67.2884 796.379" stroke="var(--stroke-0, #F3EEE1)" stroke-linecap="round" stroke-linejoin="round"/>
<path id="Vector_31" d="M80.3568 786.207C80.6723 794.552 82.8997 802.823 78.0996 811.004C74.0216 817.955 68.6232 822.2 60.9976 823.984C48.3889 826.934 39.8216 833.942 37.2294 847.224C36.6205 850.343 35.3196 853.321 33.4117 855.953" stroke="var(--stroke-0, #F3EEE1)" stroke-linecap="round" stroke-linejoin="round"/>
<path id="Vector_32" d="M798.584 330.442C792.391 327.824 786.543 324.975 779.182 326.889C767.941 329.813 762.223 339.314 761.964 348.851C761.711 358.159 768.837 368.922 779.699 370.699C781.642 371.017 784.454 370.765 785.312 372.215C786.302 373.888 783.94 375.672 783.069 377.408C777.653 388.201 780.886 402.555 794.197 408.49C804.575 413.117 819.126 408.068 822.811 396.805C823.255 395.448 824.07 394.211 824.719 392.922" stroke="var(--stroke-0, #F3EEE1)" stroke-linecap="round" stroke-linejoin="round"/>
<path id="Vector_33" d="M838.754 330.926C844.676 320.373 839.977 304.558 826.661 299.911C818.193 296.955 810.906 298.837 804.38 304.759C797.447 311.052 796.21 318.976 798.321 327.482C798.724 329.108 798.022 332.187 801.004 332.865" stroke="var(--stroke-0, #F3EEE1)" stroke-linecap="round" stroke-linejoin="round"/>
<path id="Vector_34" d="M71.1612 701.932C65.4647 708.87 64.8366 721.25 70.2504 728.528C74.705 734.517 83.9925 740.305 94.8656 736.773C104.475 733.651 110.041 726.624 110.37 716.462C110.429 714.68 110.032 712.851 110.848 711.135" stroke="var(--stroke-0, #F3EEE1)" stroke-linecap="round" stroke-linejoin="round"/>
<path id="Vector_35" d="M98.7481 647.686C99.9948 639.74 109.51 632.186 118.589 631.672C127.835 631.15 136.694 635.882 140.731 645.316C143.95 652.841 143.305 663.082 135.533 669.967C135.192 670.27 134.911 670.643 134.558 670.928C132.089 672.93 132.042 673.931 135.508 674.886C144.981 677.496 149.681 684.551 151.448 693.708C152.998 701.741 147.659 711.737 139.879 715.964C130.225 721.209 120.781 718.949 114.745 714.01C112.72 712.352 111.051 710.267 108.912 708.713" stroke="var(--stroke-0, #F3EEE1)" stroke-linecap="round" stroke-linejoin="round"/>
<path id="Vector_36" d="M785.033 827.861C786 827.121 787.147 827.541 787.909 827.916C796.334 832.069 804.035 829.754 810.58 824.345C817.724 818.441 820.09 810.13 817.328 801.263C814.822 793.218 808.865 788.248 800.536 786.141C799.616 785.908 798.39 785.73 797.167 785.596C794.161 785.268 791.125 785.822 788.42 787.175C796.935 781.64 801.893 771.016 798.448 761.068C794.442 749.498 785.466 743.696 773.916 745.163C763.565 746.479 757.123 753.05 754.058 762.958" stroke="var(--stroke-0, #F3EEE1)" stroke-linecap="round" stroke-linejoin="round"/>
<path id="Vector_37" d="M452.538 161.891C442.428 163.423 434.858 169.297 432.892 180.331C431.025 190.808 436.134 200.53 446.717 204.549C454.722 207.59 461.851 205.92 468.481 201.084C470.121 199.888 471.413 198.217 472.865 196.764" stroke="var(--stroke-0, #F3EEE1)" stroke-linecap="round" stroke-linejoin="round"/>
<path id="Vector_38" d="M98.7481 643.811C96.9583 636.321 94.2694 629.604 86.6815 625.825C78.0609 621.53 68.7016 623.08 61.983 629.3C54.2935 636.418 53.4563 644.734 56.6428 653.982C57.1626 655.49 59.2156 656.318 58.5777 658.341" stroke="var(--stroke-0, #F3EEE1)" stroke-linecap="round" stroke-linejoin="round"/>
<path id="Vector_39" d="M754.058 764.896C750.732 760.537 746.925 757.1 741.52 755.089C730.95 751.157 720.104 757.109 715.825 763.929C710.113 773.032 711.571 785.71 718.689 791.583C720.46 793.044 722.078 794.685 724.052 795.895" stroke="var(--stroke-0, #F3EEE1)" stroke-linecap="round" stroke-linejoin="round"/>
<path id="Vector_40" d="M857.146 366.767C867.551 373.748 870.484 384.489 867.847 392.938C865.164 401.539 859.18 406.722 850.818 408.222C843.341 409.565 836.304 407.659 830.89 401.257C828.682 398.647 827.398 395.707 825.687 392.921" stroke="var(--stroke-0, #F3EEE1)" stroke-linecap="round" stroke-linejoin="round"/>
<path id="Vector_41" d="M469.961 127.503C464.113 118.135 448.471 115.863 439.954 123.144C426.103 134.985 429.19 153.251 446.236 160.461C447.174 160.857 448.027 161.519 448.666 162.375" stroke="var(--stroke-0, #F3EEE1)" stroke-linecap="round" stroke-linejoin="round"/>
<path id="Vector_42" d="M54.7059 664.638C46.453 666.276 39.7189 670.141 36.3649 678.22C33.1213 686.033 34.4988 693.477 39.75 699.956C45.3583 706.874 52.8532 709.032 61.4748 707.227C63.9635 706.706 66.062 704.866 68.7413 704.837" stroke="var(--stroke-0, #F3EEE1)" stroke-linecap="round" stroke-linejoin="round"/>
<path id="Vector_43" d="M864.889 362.408C868.114 359.823 871.847 358.124 874.685 354.758C882.97 344.931 879.966 324.746 861.492 320.799C853.537 319.099 846.978 322.36 841.173 327.537" stroke="var(--stroke-0, #F3EEE1)" stroke-linecap="round" stroke-linejoin="round"/>
<path id="Vector_44" d="M514.003 140.58C515.668 135.8 518.362 131.477 518.473 126.052C518.678 116.145 510.956 106.191 500.425 104.41C490.571 102.744 481.408 107.546 476.77 117.347C476.354 118.227 476.672 119.488 475.285 119.753" stroke="var(--stroke-0, #F3EEE1)" stroke-linecap="round" stroke-linejoin="round"/>
<path id="Vector_45" d="M781.645 824.955C789.129 831.144 790.563 845.292 784.563 852.575C776.584 862.26 763.68 865.255 752.616 855.94C748.703 852.646 746.631 848.213 745.346 843.36" stroke="var(--stroke-0, #F3EEE1)" stroke-linecap="round" stroke-linejoin="round"/>
<path id="Vector_46" d="M723.567 797.347C716.824 799.391 710.434 801.908 706.61 808.477C702.261 815.948 702.839 823.658 706.78 830.682C711.111 838.401 718.562 842.001 727.431 841.319C733.161 840.878 738.838 839.482 741.958 833.673" stroke="var(--stroke-0, #F3EEE1)" stroke-linecap="round" stroke-linejoin="round"/>
<path id="Vector_47" d="M283.629 464.605C281.182 480.786 266.238 490.6 250.244 483.472C245.696 481.444 241.505 478.619 236.674 477.227C235.083 476.768 234.886 476.34 236.191 475.251C242.968 469.595 246.655 461.903 249.68 453.923C252.068 447.621 257.136 444.264 262.333 440.872" stroke="var(--stroke-0, #F3EEE1)" stroke-linecap="round" stroke-linejoin="round"/>
<path id="Vector_48" d="M537.718 148.814C545.491 159.103 544.217 169.155 538.163 177.361C533.413 183.798 526.562 186.271 518.857 185.49C514.751 185.074 514.971 186.135 516.404 189.025C522.041 200.397 518.965 211.153 508.715 218.128C497.428 225.81 476.701 221.769 473.887 200.632C473.568 198.231 472.977 195.595 474.801 193.373" stroke="var(--stroke-0, #F3EEE1)" stroke-linecap="round" stroke-linejoin="round"/>
<path id="Vector_49" d="M509.648 143.97C514.593 139.194 528.139 140.17 534.815 145.908" stroke="var(--stroke-0, #F3EEE1)" stroke-linecap="round" stroke-linejoin="round"/>
</g>
</svg>
