<svg width="212" height="285" viewBox="0 0 212 285" fill="none" xmlns="http://www.w3.org/2000/svg">
<path d="M210.59 283.244V283.774H210.06L1.05957 283.793H0.529297V283.263L0.530273 49.4093V49.0089L0.916016 48.8995C9.97375 46.323 17.018 39.4979 19.5645 30.3927L19.6729 30.005L20.0752 30.006L33.9834 30.0275C43.9189 16.8745 59.7226 8.58731 75.543 4.40442C104.024 -3.12589 138.209 -0.00200581 162.897 16.6154C168.525 20.4033 173.167 24.9324 177.24 30.1554H189.566C189.815 30.1527 190.173 30.1518 190.467 30.1525C190.614 30.1528 190.746 30.154 190.841 30.1544H190.984C190.988 30.1544 190.99 30.1554 190.992 30.1554H190.995L191.379 30.1573L191.496 30.5236C192.53 33.7525 193.955 36.4953 195.752 39.1105L195.931 39.296L195.939 39.3048L195.947 39.3136L198.891 42.6388C202.119 45.5524 205.828 47.5963 210.202 48.8644L210.584 48.9747V49.3732L210.59 283.244Z" stroke="#B9D6FE" stroke-width="1.06" stroke-miterlimit="10"/>
<path d="M38.126 36.1455C54.2331 14.4701 86.0695 6.55566 111.963 8.15625C130.625 9.30979 149.759 14.8175 164.261 26.9248L164.948 27.5059L164.961 27.5166L164.973 27.5283L170.013 32.4238L170.041 32.4512L170.064 32.4824L172.837 36.1211L185.829 36.1699L186.227 36.1719L186.336 36.5537C188.686 44.7267 194.859 50.9172 202.889 53.7207L203.672 53.9814L204.036 54.0967L204.041 54.4795L204.195 66.0518V66.0635L204.117 74.3936L204.13 147.482L204.202 167.468V167.471L204.181 178.169L204.16 211.444L204.159 217.679L204.225 237.931V237.937L204.168 245.182L204.172 265.084V265.085L204.165 272.329V272.333L204.13 276.569V277.358H203.6L7.4248 277.428H6.89453V276.897L6.99219 54.4023V54L7.37988 53.8916C13.3955 52.2095 18.82 47.918 21.9814 42.7246C23.1413 40.6305 24.0899 38.7372 24.8223 36.5361L24.9434 36.1748L25.3242 36.1738L38.126 36.1455Z" fill="#FD6500" stroke="#B9D6FE" stroke-width="1.06" stroke-miterlimit="10"/>
<path d="M49.4116 103.396C44.7076 103.396 42.2596 100.3 42.2596 95.8356C42.2596 90.6996 45.5956 85.5156 51.3076 85.5156C54.8836 85.5156 57.1876 87.5076 57.4756 90.9876H55.3396C55.0276 88.6836 53.5876 87.3636 51.0916 87.3636C46.7956 87.3636 44.4676 91.4436 44.4676 95.7636C44.4676 98.9076 45.9316 101.524 49.4836 101.524C52.5556 101.524 54.2596 99.2676 54.8116 96.7716H56.9236C56.6116 98.4516 55.8436 100.012 54.6676 101.284C53.4196 102.628 51.5236 103.396 49.4116 103.396ZM63.4842 103.396C60.5322 103.396 58.2522 101.452 58.2522 97.9716C58.2522 93.9396 60.7242 90.3396 64.8042 90.3396C67.8042 90.3396 70.0122 92.4276 70.0122 95.8116C70.0122 99.7476 67.7082 103.396 63.4842 103.396ZM60.1722 97.9476C60.1722 100.132 61.3002 101.788 63.5562 101.788C66.5082 101.788 68.0682 98.9796 68.0682 95.8116C68.0682 93.7476 67.0602 91.9236 64.7562 91.9236C61.7082 91.9236 60.1722 94.8756 60.1722 97.9476ZM76.3034 103.396C73.2314 103.396 71.1194 101.572 71.1194 98.0676C71.1194 94.2036 73.7114 90.3396 77.7434 90.3396C80.5274 90.3396 82.1354 91.8996 82.3754 94.6596H80.4314C80.2634 93.0276 79.4474 91.9236 77.6474 91.9236C74.6474 91.9236 73.0634 95.0916 73.0634 98.1156C73.0634 100.156 73.9514 101.788 76.3274 101.788C78.0794 101.788 79.4474 100.66 79.9514 98.6916H81.7994C81.1034 101.692 78.9674 103.396 76.3034 103.396ZM88.4217 103.396C85.4697 103.396 83.1897 101.452 83.1897 97.9716C83.1897 93.9396 85.6617 90.3396 89.7417 90.3396C92.7417 90.3396 94.9497 92.4276 94.9497 95.8116C94.9497 99.7476 92.6457 103.396 88.4217 103.396ZM85.1097 97.9476C85.1097 100.132 86.2377 101.788 88.4937 101.788C91.4457 101.788 93.0057 98.9796 93.0057 95.8116C93.0057 93.7476 91.9977 91.9236 89.6937 91.9236C86.6457 91.9236 85.1097 94.8756 85.1097 97.9476ZM107.677 103.396C102.973 103.396 100.525 100.3 100.525 95.8356C100.525 90.6996 103.861 85.5156 109.573 85.5156C113.149 85.5156 115.453 87.5076 115.741 90.9876H113.605C113.293 88.6836 111.853 87.3636 109.357 87.3636C105.061 87.3636 102.733 91.4436 102.733 95.7636C102.733 98.9076 104.197 101.524 107.749 101.524C110.821 101.524 112.525 99.2676 113.077 96.7716H115.189C114.877 98.4516 114.109 100.012 112.933 101.284C111.685 102.628 109.789 103.396 107.677 103.396ZM121.059 85.8996L119.763 92.5956H119.811C120.843 91.2516 122.547 90.3636 124.395 90.3636C126.843 90.3636 127.875 91.8756 127.419 94.2996L125.715 103.06H123.819L125.523 94.2996C125.811 92.7636 125.379 91.9716 123.891 91.9716C121.611 91.9716 119.523 93.8916 119.091 96.0996L117.747 103.06H115.827L119.139 85.8996H121.059ZM137.73 103.18C136.41 103.18 136.026 102.388 136.002 101.476H135.978C135.162 102.532 133.818 103.3 132.066 103.3C129.594 103.3 128.202 101.668 128.202 99.7956C128.202 96.6276 130.626 95.9796 133.098 95.8356C136.506 95.6436 137.322 95.4276 137.322 93.8196C137.322 92.2836 136.122 91.9236 134.778 91.8996C132.762 91.8756 131.61 92.5716 131.274 94.3956H129.33C129.762 91.9236 131.706 90.3876 134.922 90.3876C137.322 90.3876 139.578 91.5156 138.978 94.6116L137.85 100.348C137.682 101.26 137.778 101.836 138.93 101.62H139.002L138.714 103.012C138.474 103.084 138.186 103.18 137.73 103.18ZM130.146 99.6516C130.146 100.948 130.986 101.812 132.474 101.812C134.874 101.812 136.146 100.156 136.506 98.3316L136.842 96.6276C136.074 97.0596 135.09 97.1316 133.026 97.2996C132.066 97.3716 130.146 97.5156 130.146 99.6516ZM144.452 90.6516L144.092 92.5716H144.14C145.172 91.2276 146.852 90.3636 148.7 90.3636C151.148 90.3636 152.18 91.8756 151.724 94.2996L150.02 103.06H148.124L149.828 94.2996C150.116 92.7636 149.684 91.9716 148.196 91.9716C145.916 91.9716 143.828 93.8916 143.396 96.0996L142.052 103.06H140.132L142.532 90.6516H144.452ZM164.171 97.3236H154.931C154.907 97.5636 154.907 97.7796 154.907 98.0196C154.907 100.228 156.059 101.788 158.339 101.788C159.947 101.788 161.291 100.852 161.843 99.2196H163.715C162.755 102.004 160.715 103.396 158.147 103.396C155.267 103.396 152.963 101.38 152.963 97.9956C152.963 93.7956 155.771 90.3396 159.419 90.3396C160.739 90.3396 161.771 90.6756 162.539 91.2516C164.099 92.4276 164.579 94.6596 164.171 97.3236ZM159.347 91.8516C157.163 91.8516 155.675 93.5076 155.123 95.8596H162.347C162.587 93.5556 161.627 91.8516 159.347 91.8516ZM164.931 103.06L168.243 85.8996H170.163L166.851 103.06H164.931Z" fill="#B9D6FE"/>
<path d="M66.6076 137.06V130.368H64.4376V129.108C65.6136 129.066 66.6636 128.632 66.8596 127.4H68.5256V137.06H66.6076ZM74.61 137.27C72.44 137.27 70.704 136.22 70.704 134.288C70.704 133.098 71.404 132.174 72.454 131.768V131.726C71.6 131.334 71.11 130.746 71.11 129.822C71.11 128.198 72.524 127.274 74.596 127.274C76.668 127.274 78.012 128.184 78.012 129.794C78.012 130.69 77.508 131.32 76.682 131.712V131.754C77.746 132.132 78.418 133.042 78.418 134.204C78.418 136.178 76.78 137.27 74.61 137.27ZM74.568 135.73C75.688 135.73 76.458 135.128 76.458 134.218C76.458 133.238 75.772 132.594 74.596 132.594C73.42 132.594 72.678 133.238 72.678 134.218C72.678 135.156 73.406 135.73 74.568 135.73ZM74.568 131.264C75.562 131.264 76.15 130.732 76.15 129.976C76.15 129.22 75.562 128.716 74.568 128.716C73.56 128.716 72.972 129.22 72.972 129.976C72.972 130.732 73.56 131.264 74.568 131.264ZM83.8719 137.27C81.7019 137.27 79.9659 136.22 79.9659 134.288C79.9659 133.098 80.6659 132.174 81.7159 131.768V131.726C80.8619 131.334 80.3719 130.746 80.3719 129.822C80.3719 128.198 81.7859 127.274 83.8579 127.274C85.9299 127.274 87.2739 128.184 87.2739 129.794C87.2739 130.69 86.7699 131.32 85.9439 131.712V131.754C87.0079 132.132 87.6799 133.042 87.6799 134.204C87.6799 136.178 86.0419 137.27 83.8719 137.27ZM83.8299 135.73C84.9499 135.73 85.7199 135.128 85.7199 134.218C85.7199 133.238 85.0339 132.594 83.8579 132.594C82.6819 132.594 81.9399 133.238 81.9399 134.218C81.9399 135.156 82.6679 135.73 83.8299 135.73ZM83.8299 131.264C84.8239 131.264 85.4119 130.732 85.4119 129.976C85.4119 129.22 84.8239 128.716 83.8299 128.716C82.8219 128.716 82.2339 129.22 82.2339 129.976C82.2339 130.732 82.8219 131.264 83.8299 131.264ZM92.8274 137.27C90.3494 137.27 89.0754 135.898 89.0474 133.798H90.8674C90.9374 134.946 91.4414 135.744 92.7574 135.744C93.8214 135.744 94.4514 135.17 94.4514 134.19C94.4514 133.266 93.8634 132.706 92.6874 132.706H92.0994V131.264H92.6454C93.5554 131.264 94.1994 130.802 94.1994 129.99C94.1994 129.234 93.6814 128.73 92.8414 128.73C91.7494 128.73 91.2174 129.444 91.1754 130.438H89.3554C89.4254 128.548 90.6154 127.274 92.8414 127.274C94.8434 127.274 96.1314 128.268 96.1314 129.864C96.1314 130.942 95.4454 131.572 94.4934 131.88V131.908C95.7114 132.202 96.4394 132.986 96.4394 134.316C96.4394 136.304 94.8014 137.27 92.8274 137.27ZM102.212 134.316V132.678H113.412V134.316H102.212ZM121.392 137.06V130.368H119.222V129.108C120.398 129.066 121.448 128.632 121.644 127.4H123.31V137.06H121.392ZM129.268 137.27C127.266 137.27 126.118 136.206 125.908 134.764H127.756C127.91 135.338 128.358 135.814 129.212 135.814C129.814 135.814 130.262 135.632 130.598 135.212C130.976 134.736 131.186 133.952 131.2 132.958H131.172C130.668 133.546 129.996 134.008 128.946 134.008C127 134.008 125.516 132.678 125.516 130.634C125.516 128.66 127.07 127.274 129.128 127.274C131.676 127.274 133.104 128.884 133.104 132.132C133.104 135.198 132.082 137.27 129.268 137.27ZM129.212 132.468C130.304 132.468 131.144 131.74 131.144 130.634C131.144 129.542 130.318 128.772 129.226 128.772C128.12 128.772 127.336 129.57 127.336 130.606C127.336 131.698 128.036 132.468 129.212 132.468ZM135.723 137.06C135.849 133.532 137.725 130.634 139.181 129.136V129.108H134.421V127.47H141.253V129.038C139.531 130.788 137.935 133.574 137.795 137.06H135.723ZM144.967 137.06V130.368H142.797V129.108C143.973 129.066 145.023 128.632 145.219 127.4H146.885V137.06H144.967Z" fill="#B9D6FE"/>
<path d="M73.8296 158.06V148.05H80.9976V149.772H75.8596V152.18H80.2136V153.916H75.8596V158.06H73.8296ZM82.9821 158.06V148.05H87.5741C89.5061 148.05 90.7941 149.17 90.7941 150.836C90.7941 152.012 90.2481 152.908 88.9601 153.258V153.3C89.8841 153.566 90.3601 154.098 90.4861 155.316C90.6261 156.73 90.5701 157.808 90.9201 157.962V158.06H88.9741C88.7221 157.948 88.6941 156.828 88.6101 155.75C88.5261 154.658 87.9101 154.042 86.6501 154.042H85.0121V158.06H82.9821ZM85.0121 149.688V152.474H87.1681C88.2741 152.474 88.8201 151.9 88.8201 151.102C88.8201 150.29 88.3021 149.688 87.2241 149.688H85.0121ZM92.2816 158.06L95.7676 148.05H97.8676L101.396 158.06H99.2816L98.6096 155.932H94.9976L94.3396 158.06H92.2816ZM96.3696 151.494L95.4736 154.378H98.1196L97.2236 151.494C97.0556 150.962 96.8176 149.954 96.8176 149.954H96.7896C96.7896 149.954 96.5376 150.962 96.3696 151.494ZM103.078 158.06V148.05H105.136L108.468 153.636C108.79 154.182 109.168 155.036 109.168 155.036H109.196C109.196 155.036 109.14 154 109.14 153.3V148.05H111.142V158.06H109.182L105.766 152.53C105.444 151.998 105.052 151.144 105.052 151.144H105.024C105.024 151.144 105.08 152.194 105.08 152.894V158.06H103.078ZM117.898 158.27C115.084 158.27 113.082 156.1 113.082 153.09C113.082 150.122 114.93 147.854 117.884 147.854C120.348 147.854 121.804 149.324 122.014 151.228H119.998C119.816 150.22 119.06 149.562 117.884 149.562C116.036 149.562 115.154 151.102 115.154 153.09C115.154 155.134 116.218 156.604 117.898 156.604C119.088 156.604 119.928 155.89 120.054 154.84H122.042C121.986 155.722 121.608 156.576 120.936 157.206C120.25 157.85 119.284 158.27 117.898 158.27ZM123.94 158.06V148.05H125.97V158.06H123.94ZM127.634 158.06L131.12 148.05H133.22L136.748 158.06H134.634L133.962 155.932H130.35L129.692 158.06H127.634ZM131.722 151.494L130.826 154.378H133.472L132.576 151.494C132.408 150.962 132.17 149.954 132.17 149.954H132.142C132.142 149.954 131.89 150.962 131.722 151.494Z" fill="#B9D6FE"/>
<path d="M58.8296 179.06V169.05H62.7356C65.4096 169.05 67.1316 171.206 67.1316 174.16C67.1316 175.784 66.5856 177.212 65.5356 178.094C64.7936 178.71 63.8276 179.06 62.5676 179.06H58.8296ZM60.8596 177.31H62.4276C64.3316 177.31 65.0736 176.148 65.0736 174.16C65.0736 172.172 64.2056 170.786 62.4836 170.786H60.8596V177.31ZM69.0898 179.06V169.05H71.1198V179.06H69.0898ZM77.3895 179.284C74.6735 179.284 73.1335 178.08 73.0635 175.966H75.0515C75.1915 177.17 75.8775 177.646 77.3055 177.646C78.3415 177.646 79.2515 177.282 79.2515 176.358C79.2515 175.378 78.2995 175.182 76.7735 174.832C74.9815 174.426 73.3435 173.95 73.3435 171.864C73.3435 169.89 74.9535 168.868 77.1795 168.868C79.4335 168.868 80.8895 169.974 81.0435 171.99H79.0975C78.9855 170.982 78.2015 170.478 77.1655 170.478C76.0735 170.478 75.3595 170.94 75.3595 171.654C75.3595 172.466 76.0595 172.704 77.5435 173.026C79.6015 173.474 81.2815 173.964 81.2815 176.12C81.2815 178.15 79.6435 179.284 77.3895 179.284ZM83.3339 179.06V169.05H90.6979V170.758H85.3639V172.998H90.0399V174.664H85.3639V177.366H90.7399V179.06H83.3339ZM92.8419 179.06V169.05H94.8999L98.2319 174.636C98.5539 175.182 98.9319 176.036 98.9319 176.036H98.9599C98.9599 176.036 98.9039 175 98.9039 174.3V169.05H100.906V179.06H98.9459L95.5299 173.53C95.2079 172.998 94.8159 172.144 94.8159 172.144H94.7879C94.7879 172.144 94.8439 173.194 94.8439 173.894V179.06H92.8419ZM97.7839 168.49C97.1119 168.49 96.6359 168.028 96.2579 168.028C96.0619 168.028 95.9219 168.196 95.8799 168.462H94.8719C94.8719 167.37 95.4319 166.81 96.1319 166.81C96.8179 166.81 97.2799 167.3 97.6579 167.3C97.9239 167.3 98.0079 167.132 98.0639 166.866H99.0719C99.0719 167.818 98.5959 168.49 97.7839 168.49ZM102.552 179.06L106.038 169.05H108.138L111.666 179.06H109.552L108.88 176.932H105.268L104.61 179.06H102.552ZM106.64 172.494L105.744 175.378H108.39L107.494 172.494C107.326 171.962 107.088 170.954 107.088 170.954H107.06C107.06 170.954 106.808 171.962 106.64 172.494ZM113.348 179.06V169.05H117.254C119.928 169.05 121.65 171.206 121.65 174.16C121.65 175.784 121.104 177.212 120.054 178.094C119.312 178.71 118.346 179.06 117.086 179.06H113.348ZM115.378 177.31H116.946C118.85 177.31 119.592 176.148 119.592 174.16C119.592 172.172 118.724 170.786 117.002 170.786H115.378V177.31ZM127.99 179.284C125.036 179.284 123.16 177.072 123.16 174.076C123.16 171.08 125.036 168.854 127.99 168.854C130.944 168.854 132.806 171.08 132.806 174.076C132.806 177.072 130.944 179.284 127.99 179.284ZM128.004 177.618C129.838 177.618 130.734 176.064 130.734 174.076C130.734 172.074 129.838 170.52 128.004 170.52C126.17 170.52 125.232 172.074 125.232 174.076C125.232 176.064 126.17 177.618 128.004 177.618ZM134.757 179.06V169.05H139.349C141.281 169.05 142.569 170.17 142.569 171.836C142.569 173.012 142.023 173.908 140.735 174.258V174.3C141.659 174.566 142.135 175.098 142.261 176.316C142.401 177.73 142.345 178.808 142.695 178.962V179.06H140.749C140.497 178.948 140.469 177.828 140.385 176.75C140.301 175.658 139.685 175.042 138.425 175.042H136.787V179.06H134.757ZM136.787 170.688V173.474H138.943C140.049 173.474 140.595 172.9 140.595 172.102C140.595 171.29 140.077 170.688 138.999 170.688H136.787ZM144.056 179.06L147.542 169.05H149.642L153.17 179.06H151.056L150.384 176.932H146.772L146.114 179.06H144.056ZM148.144 172.494L147.248 175.378H149.894L148.998 172.494C148.83 171.962 148.592 170.954 148.592 170.954H148.564C148.564 170.954 148.312 171.962 148.144 172.494Z" fill="#B9D6FE"/>
<path d="M187.216 241.385L24.9807 241.382C24.4055 241.38 23.9627 240.987 23.963 240.471L23.9652 237.178C21.4674 236.548 19.2745 235.243 17.5808 233.466C13.9897 229.7 13.0754 224.382 15.161 219.761C16.725 216.295 19.9622 213.387 24.0047 212.346L24.0169 208.955C24.0185 208.504 24.4469 208.06 24.9854 208.06L187.068 208.061C187.665 208.059 188.121 208.473 188.121 209.005L188.124 212.358C189.379 212.656 190.519 213.112 191.577 213.751C195.712 216.25 198.116 220.479 198.059 225.009C198.005 229.218 195.76 233.153 191.973 235.554C190.792 236.302 189.533 236.85 188.109 237.168L188.096 240.517C188.095 240.95 187.745 241.312 187.216 241.385ZM186.999 240.763C187.243 240.776 187.412 240.67 187.413 240.474L187.416 236.693C188.588 236.456 189.651 236.092 190.682 235.547C194.767 233.389 197.288 229.377 197.369 225.068C197.451 220.689 195.109 216.582 191.083 214.206C189.975 213.553 188.776 213.1 187.448 212.844L187.439 208.945C187.439 208.809 187.225 208.678 187.065 208.694L25.0497 208.692C24.8295 208.716 24.7009 208.828 24.7009 209.001L24.7006 212.839C20.1039 213.804 16.6172 217.26 15.3067 221.32C13.4753 226.994 16.2896 233.27 22.1098 235.875C22.9342 236.244 23.7334 236.507 24.6388 236.687L24.6379 240.355C24.6379 240.591 24.7392 240.762 25.0511 240.762L186.999 240.763Z" fill="#B9D6FE"/>
<path d="M185.773 238.934L26.3861 238.934L26.3723 235.291C25.1153 235.068 23.9367 234.717 22.8095 234.156C20.2081 232.834 18.2393 230.741 17.2909 228.186C16.3709 225.652 16.5349 222.948 17.7172 220.508C19.254 217.264 22.5114 214.92 26.3964 214.276L26.4034 210.512H185.801L185.812 214.275C188.375 214.659 190.637 215.814 192.387 217.509C194.542 219.622 195.637 222.415 195.474 225.288C195.439 226.681 195.076 227.967 194.453 229.227C192.879 232.414 189.66 234.718 185.788 235.293L185.773 238.934ZM184.806 238.029L184.805 234.576L184.911 234.494C190.311 233.995 194.387 229.928 194.51 225.053C194.641 219.926 190.531 215.587 184.837 215.048L184.833 211.41L27.384 211.41L27.3671 215.055C23.0203 215.469 19.4584 218.197 18.1806 221.906C16.642 226.373 18.7688 231.17 23.3613 233.394C24.5874 234.013 25.9404 234.379 27.3543 234.511L27.3619 238.029L184.806 238.029Z" fill="#B9D6FE"/>
<path d="M185.418 238.127L27.3639 238.128L27.3563 234.571C25.9424 234.437 24.5894 234.068 23.3633 233.442C18.7707 231.193 16.644 226.343 18.1827 221.828C19.4604 218.078 23.0223 215.32 27.3691 214.902L27.386 211.217L185.445 211.216L185.449 214.894C191.143 215.439 195.253 219.825 195.122 225.008C194.999 229.937 190.923 234.049 185.523 234.554L185.417 234.636L185.418 238.127Z" fill="#B9D6FE"/>
<path d="M33.4616 230.06L30.0876 220.05H32.2156L33.9796 225.846C34.1756 226.504 34.4136 227.442 34.4136 227.442H34.4416C34.4416 227.442 34.6796 226.49 34.8756 225.846L36.6256 220.05H38.6836L35.3096 230.06H33.4616ZM40.3239 230.06V220.05H47.6879V221.758H42.3539V223.998H47.0299V225.664H42.3539V228.366H47.7299V230.06H40.3239ZM49.8318 230.06V220.05H54.4238C56.3558 220.05 57.6438 221.17 57.6438 222.836C57.6438 224.012 57.0978 224.908 55.8098 225.258V225.3C56.7338 225.566 57.2098 226.098 57.3358 227.316C57.4758 228.73 57.4198 229.808 57.7698 229.962V230.06H55.8238C55.5718 229.948 55.5438 228.828 55.4598 227.75C55.3758 226.658 54.7598 226.042 53.4998 226.042H51.8618V230.06H49.8318ZM51.8618 221.688V224.474H54.0178C55.1238 224.474 55.6698 223.9 55.6698 223.102C55.6698 222.29 55.1518 221.688 54.0738 221.688H51.8618ZM70.3185 230.06L70.2485 228.716H70.2205C69.5345 229.864 68.5965 230.27 67.4065 230.27C65.8945 230.27 64.7185 229.724 63.8925 228.814C63.0665 227.89 62.5905 226.602 62.5905 225.09C62.5905 223.424 63.1785 221.968 64.2285 221.002C65.0405 220.26 66.1045 219.854 67.4485 219.854C69.9685 219.854 71.4105 221.24 71.7325 223.2H69.7445C69.5205 222.234 68.7785 221.534 67.4905 221.534C65.6005 221.534 64.6625 223.102 64.6625 225.09C64.6625 227.134 65.7405 228.632 67.4625 228.632C69.0165 228.632 70.0385 227.47 70.0385 226.364V226.308H67.6305V224.74H71.8445V230.06H70.3185ZM77.9678 230.228C75.3778 230.228 74.0198 229.01 74.0198 226.84V220.05H76.0498V226.84C76.0498 227.876 76.5678 228.604 77.9258 228.604C79.2138 228.604 79.8158 227.848 79.8158 226.812V220.05H81.8458V226.84C81.8458 228.982 80.5298 230.228 77.9678 230.228ZM83.0615 230.06L86.5475 220.05H88.6475L92.1755 230.06H90.0615L89.3895 227.932H85.7775L85.1195 230.06H83.0615ZM87.1495 223.494L86.2535 226.378H88.8995L88.0035 223.494C87.8355 222.962 87.5975 221.954 87.5975 221.954H87.5695C87.5695 221.954 87.3175 222.962 87.1495 223.494ZM93.858 230.06V220.05H98.45C100.382 220.05 101.67 221.17 101.67 222.836C101.67 224.012 101.124 224.908 99.836 225.258V225.3C100.76 225.566 101.236 226.098 101.362 227.316C101.502 228.73 101.446 229.808 101.796 229.962V230.06H99.85C99.598 229.948 99.57 228.828 99.486 227.75C99.402 226.658 98.786 226.042 97.526 226.042H95.888V230.06H93.858ZM95.888 221.688V224.474H98.044C99.15 224.474 99.696 223.9 99.696 223.102C99.696 222.29 99.178 221.688 98.1 221.688H95.888ZM103.817 230.06V220.05H107.723C110.397 220.05 112.119 222.206 112.119 225.16C112.119 226.784 111.573 228.212 110.523 229.094C109.781 229.71 108.815 230.06 107.555 230.06H103.817ZM105.847 228.31H107.415C109.319 228.31 110.061 227.148 110.061 225.16C110.061 223.172 109.193 221.786 107.471 221.786H105.847V228.31ZM112.775 230.06L116.261 220.05H118.361L121.889 230.06H119.775L119.103 227.932H115.491L114.833 230.06H112.775ZM116.863 223.494L115.967 226.378H118.613L117.717 223.494C117.549 222.962 117.311 221.954 117.311 221.954H117.283C117.283 221.954 117.031 222.962 116.863 223.494ZM123.571 230.06V220.05H128.163C130.095 220.05 131.383 221.17 131.383 222.836C131.383 224.012 130.837 224.908 129.549 225.258V225.3C130.473 225.566 130.949 226.098 131.075 227.316C131.215 228.73 131.159 229.808 131.509 229.962V230.06H129.563C129.311 229.948 129.283 228.828 129.199 227.75C129.115 226.658 128.499 226.042 127.239 226.042H125.601V230.06H123.571ZM125.601 221.688V224.474H127.757C128.863 224.474 129.409 223.9 129.409 223.102C129.409 222.29 128.891 221.688 127.813 221.688H125.601ZM133.531 230.06V220.05H138.123C140.055 220.05 141.343 221.17 141.343 222.836C141.343 224.012 140.797 224.908 139.509 225.258V225.3C140.433 225.566 140.909 226.098 141.035 227.316C141.175 228.73 141.119 229.808 141.469 229.962V230.06H139.523C139.271 229.948 139.243 228.828 139.159 227.75C139.075 226.658 138.459 226.042 137.199 226.042H135.561V230.06H133.531ZM135.561 221.688V224.474H137.717C138.823 224.474 139.369 223.9 139.369 223.102C139.369 222.29 138.851 221.688 137.773 221.688H135.561ZM147.886 230.284C144.932 230.284 143.056 228.072 143.056 225.076C143.056 222.08 144.932 219.854 147.886 219.854C150.84 219.854 152.702 222.08 152.702 225.076C152.702 228.072 150.84 230.284 147.886 230.284ZM147.9 228.618C149.734 228.618 150.63 227.064 150.63 225.076C150.63 223.074 149.734 221.52 147.9 221.52C146.066 221.52 145.128 223.074 145.128 225.076C145.128 227.064 146.066 228.618 147.9 228.618ZM154.652 230.06V220.05H159.048C160.21 220.05 161.078 220.386 161.666 220.988C162.226 221.562 162.562 222.346 162.562 223.27C162.562 225.16 161.316 226.434 159.216 226.434H156.752V230.06H154.652ZM156.752 221.814V224.782H158.852C159.916 224.782 160.476 224.194 160.476 223.284C160.476 222.346 159.888 221.814 158.88 221.814H156.752ZM162.762 230.06L166.248 220.05H168.348L171.876 230.06H169.762L169.09 227.932H165.478L164.82 230.06H162.762ZM166.85 223.494L165.954 226.378H168.6L167.704 223.494C167.536 222.962 167.298 221.954 167.298 221.954H167.27C167.27 221.954 167.018 222.962 166.85 223.494ZM177.3 230.284C174.584 230.284 173.044 229.08 172.974 226.966H174.962C175.102 228.17 175.788 228.646 177.216 228.646C178.252 228.646 179.162 228.282 179.162 227.358C179.162 226.378 178.21 226.182 176.684 225.832C174.892 225.426 173.254 224.95 173.254 222.864C173.254 220.89 174.864 219.868 177.09 219.868C179.344 219.868 180.8 220.974 180.954 222.99H179.008C178.896 221.982 178.112 221.478 177.076 221.478C175.984 221.478 175.27 221.94 175.27 222.654C175.27 223.466 175.97 223.704 177.454 224.026C179.512 224.474 181.192 224.964 181.192 227.12C181.192 229.15 179.554 230.284 177.3 230.284Z" fill="#520345"/>
</svg>
