<svg width="212" height="285" viewBox="0 0 212 285" fill="none" xmlns="http://www.w3.org/2000/svg">
<path d="M210.59 283.244V283.774H210.06L1.05957 283.793H0.529297V283.263L0.530273 49.4093V49.0089L0.916016 48.8995C9.97375 46.323 17.018 39.4979 19.5645 30.3927L19.6729 30.005L20.0752 30.006L33.9834 30.0275C43.9189 16.8745 59.7226 8.58731 75.543 4.40442C104.024 -3.12589 138.209 -0.00200581 162.897 16.6154C168.525 20.4033 173.167 24.9324 177.24 30.1554H189.566C189.815 30.1527 190.173 30.1518 190.467 30.1525C190.614 30.1528 190.746 30.154 190.841 30.1544H190.984C190.988 30.1544 190.99 30.1554 190.992 30.1554H190.995L191.379 30.1573L191.496 30.5236C192.53 33.7525 193.955 36.4953 195.752 39.1105L195.931 39.296L195.939 39.3048L195.947 39.3136L198.891 42.6388C202.119 45.5524 205.828 47.5963 210.202 48.8644L210.584 48.9747V49.3732L210.59 283.244Z" stroke="#B9D6FE" stroke-width="1.06" stroke-miterlimit="10"/>
<path d="M38.126 36.1455C54.2331 14.4701 86.0695 6.55566 111.963 8.15625C130.625 9.30979 149.759 14.8175 164.261 26.9248L164.948 27.5059L164.961 27.5166L164.973 27.5283L170.013 32.4238L170.041 32.4512L170.064 32.4824L172.837 36.1211L185.829 36.1699L186.227 36.1719L186.336 36.5537C188.686 44.7267 194.859 50.9172 202.889 53.7207L203.672 53.9814L204.036 54.0967L204.041 54.4795L204.195 66.0518V66.0635L204.117 74.3936L204.13 147.482L204.202 167.468V167.471L204.181 178.169L204.16 211.444L204.159 217.679L204.225 237.931V237.937L204.168 245.182L204.172 265.084V265.085L204.165 272.329V272.333L204.13 276.569V277.358H203.6L7.4248 277.428H6.89453V276.897L6.99219 54.4023V54L7.37988 53.8916C13.3955 52.2095 18.82 47.918 21.9814 42.7246C23.1413 40.6305 24.0899 38.7372 24.8223 36.5361L24.9434 36.1748L25.3242 36.1738L38.126 36.1455Z" fill="#FD6500" stroke="#B9D6FE" stroke-width="1.06" stroke-miterlimit="10"/>
<path d="M187.216 241.385L24.9807 241.382C24.4055 241.38 23.9627 240.987 23.963 240.471L23.9652 237.178C21.4674 236.548 19.2745 235.243 17.5808 233.466C13.9897 229.7 13.0754 224.382 15.161 219.761C16.725 216.295 19.9622 213.387 24.0047 212.346L24.0169 208.955C24.0185 208.504 24.4469 208.06 24.9854 208.06L187.068 208.061C187.665 208.059 188.121 208.473 188.121 209.005L188.124 212.358C189.379 212.656 190.519 213.112 191.577 213.751C195.712 216.25 198.116 220.479 198.059 225.009C198.005 229.218 195.76 233.153 191.973 235.554C190.792 236.302 189.533 236.85 188.109 237.168L188.096 240.517C188.095 240.95 187.745 241.312 187.216 241.385ZM186.999 240.763C187.243 240.776 187.412 240.67 187.413 240.474L187.416 236.693C188.588 236.456 189.651 236.092 190.682 235.547C194.767 233.389 197.288 229.377 197.369 225.068C197.451 220.689 195.109 216.582 191.083 214.206C189.975 213.553 188.776 213.1 187.448 212.844L187.439 208.945C187.439 208.809 187.225 208.678 187.065 208.694L25.0497 208.692C24.8295 208.716 24.7009 208.828 24.7009 209.001L24.7006 212.839C20.1039 213.804 16.6172 217.26 15.3067 221.32C13.4753 226.994 16.2896 233.27 22.1098 235.875C22.9342 236.244 23.7334 236.507 24.6388 236.687L24.6379 240.355C24.6379 240.591 24.7392 240.762 25.0511 240.762L186.999 240.763Z" fill="#B9D6FE"/>
<path d="M185.773 238.934L26.3861 238.934L26.3723 235.291C25.1153 235.068 23.9367 234.717 22.8095 234.156C20.2081 232.834 18.2393 230.741 17.2909 228.186C16.3709 225.652 16.5349 222.948 17.7172 220.508C19.254 217.264 22.5114 214.92 26.3964 214.276L26.4034 210.512H185.801L185.812 214.275C188.375 214.659 190.637 215.814 192.387 217.509C194.542 219.622 195.637 222.415 195.474 225.288C195.439 226.681 195.076 227.967 194.453 229.227C192.879 232.414 189.66 234.718 185.788 235.293L185.773 238.934ZM184.806 238.029L184.805 234.576L184.911 234.494C190.311 233.995 194.387 229.928 194.51 225.053C194.641 219.926 190.531 215.587 184.837 215.048L184.833 211.41L27.384 211.41L27.3671 215.055C23.0203 215.469 19.4584 218.197 18.1806 221.906C16.642 226.373 18.7688 231.17 23.3613 233.394C24.5874 234.013 25.9404 234.379 27.3543 234.511L27.3619 238.029L184.806 238.029Z" fill="#B9D6FE"/>
<path d="M185.418 238.127L27.3639 238.128L27.3563 234.571C25.9424 234.437 24.5894 234.068 23.3633 233.442C18.7707 231.193 16.644 226.343 18.1827 221.828C19.4604 218.078 23.0223 215.32 27.3691 214.902L27.386 211.217L185.445 211.216L185.449 214.894C191.143 215.439 195.253 219.825 195.122 225.008C194.999 229.937 190.923 234.049 185.523 234.554L185.417 234.636L185.418 238.127Z" fill="#B9D6FE"/>
<path d="M33.4616 230.06L30.0876 220.05H32.2156L33.9796 225.846C34.1756 226.504 34.4136 227.442 34.4136 227.442H34.4416C34.4416 227.442 34.6796 226.49 34.8756 225.846L36.6256 220.05H38.6836L35.3096 230.06H33.4616ZM40.3239 230.06V220.05H47.6879V221.758H42.3539V223.998H47.0299V225.664H42.3539V228.366H47.7299V230.06H40.3239ZM49.8318 230.06V220.05H54.4238C56.3558 220.05 57.6438 221.17 57.6438 222.836C57.6438 224.012 57.0978 224.908 55.8098 225.258V225.3C56.7338 225.566 57.2098 226.098 57.3358 227.316C57.4758 228.73 57.4198 229.808 57.7698 229.962V230.06H55.8238C55.5718 229.948 55.5438 228.828 55.4598 227.75C55.3758 226.658 54.7598 226.042 53.4998 226.042H51.8618V230.06H49.8318ZM51.8618 221.688V224.474H54.0178C55.1238 224.474 55.6698 223.9 55.6698 223.102C55.6698 222.29 55.1518 221.688 54.0738 221.688H51.8618ZM70.3185 230.06L70.2485 228.716H70.2205C69.5345 229.864 68.5965 230.27 67.4065 230.27C65.8945 230.27 64.7185 229.724 63.8925 228.814C63.0665 227.89 62.5905 226.602 62.5905 225.09C62.5905 223.424 63.1785 221.968 64.2285 221.002C65.0405 220.26 66.1045 219.854 67.4485 219.854C69.9685 219.854 71.4105 221.24 71.7325 223.2H69.7445C69.5205 222.234 68.7785 221.534 67.4905 221.534C65.6005 221.534 64.6625 223.102 64.6625 225.09C64.6625 227.134 65.7405 228.632 67.4625 228.632C69.0165 228.632 70.0385 227.47 70.0385 226.364V226.308H67.6305V224.74H71.8445V230.06H70.3185ZM77.9678 230.228C75.3778 230.228 74.0198 229.01 74.0198 226.84V220.05H76.0498V226.84C76.0498 227.876 76.5678 228.604 77.9258 228.604C79.2138 228.604 79.8158 227.848 79.8158 226.812V220.05H81.8458V226.84C81.8458 228.982 80.5298 230.228 77.9678 230.228ZM83.0615 230.06L86.5475 220.05H88.6475L92.1755 230.06H90.0615L89.3895 227.932H85.7775L85.1195 230.06H83.0615ZM87.1495 223.494L86.2535 226.378H88.8995L88.0035 223.494C87.8355 222.962 87.5975 221.954 87.5975 221.954H87.5695C87.5695 221.954 87.3175 222.962 87.1495 223.494ZM93.858 230.06V220.05H98.45C100.382 220.05 101.67 221.17 101.67 222.836C101.67 224.012 101.124 224.908 99.836 225.258V225.3C100.76 225.566 101.236 226.098 101.362 227.316C101.502 228.73 101.446 229.808 101.796 229.962V230.06H99.85C99.598 229.948 99.57 228.828 99.486 227.75C99.402 226.658 98.786 226.042 97.526 226.042H95.888V230.06H93.858ZM95.888 221.688V224.474H98.044C99.15 224.474 99.696 223.9 99.696 223.102C99.696 222.29 99.178 221.688 98.1 221.688H95.888ZM103.817 230.06V220.05H107.723C110.397 220.05 112.119 222.206 112.119 225.16C112.119 226.784 111.573 228.212 110.523 229.094C109.781 229.71 108.815 230.06 107.555 230.06H103.817ZM105.847 228.31H107.415C109.319 228.31 110.061 227.148 110.061 225.16C110.061 223.172 109.193 221.786 107.471 221.786H105.847V228.31ZM112.775 230.06L116.261 220.05H118.361L121.889 230.06H119.775L119.103 227.932H115.491L114.833 230.06H112.775ZM116.863 223.494L115.967 226.378H118.613L117.717 223.494C117.549 222.962 117.311 221.954 117.311 221.954H117.283C117.283 221.954 117.031 222.962 116.863 223.494ZM123.571 230.06V220.05H128.163C130.095 220.05 131.383 221.17 131.383 222.836C131.383 224.012 130.837 224.908 129.549 225.258V225.3C130.473 225.566 130.949 226.098 131.075 227.316C131.215 228.73 131.159 229.808 131.509 229.962V230.06H129.563C129.311 229.948 129.283 228.828 129.199 227.75C129.115 226.658 128.499 226.042 127.239 226.042H125.601V230.06H123.571ZM125.601 221.688V224.474H127.757C128.863 224.474 129.409 223.9 129.409 223.102C129.409 222.29 128.891 221.688 127.813 221.688H125.601ZM133.531 230.06V220.05H138.123C140.055 220.05 141.343 221.17 141.343 222.836C141.343 224.012 140.797 224.908 139.509 225.258V225.3C140.433 225.566 140.909 226.098 141.035 227.316C141.175 228.73 141.119 229.808 141.469 229.962V230.06H139.523C139.271 229.948 139.243 228.828 139.159 227.75C139.075 226.658 138.459 226.042 137.199 226.042H135.561V230.06H133.531ZM135.561 221.688V224.474H137.717C138.823 224.474 139.369 223.9 139.369 223.102C139.369 222.29 138.851 221.688 137.773 221.688H135.561ZM147.886 230.284C144.932 230.284 143.056 228.072 143.056 225.076C143.056 222.08 144.932 219.854 147.886 219.854C150.84 219.854 152.702 222.08 152.702 225.076C152.702 228.072 150.84 230.284 147.886 230.284ZM147.9 228.618C149.734 228.618 150.63 227.064 150.63 225.076C150.63 223.074 149.734 221.52 147.9 221.52C146.066 221.52 145.128 223.074 145.128 225.076C145.128 227.064 146.066 228.618 147.9 228.618ZM154.652 230.06V220.05H159.048C160.21 220.05 161.078 220.386 161.666 220.988C162.226 221.562 162.562 222.346 162.562 223.27C162.562 225.16 161.316 226.434 159.216 226.434H156.752V230.06H154.652ZM156.752 221.814V224.782H158.852C159.916 224.782 160.476 224.194 160.476 223.284C160.476 222.346 159.888 221.814 158.88 221.814H156.752ZM162.762 230.06L166.248 220.05H168.348L171.876 230.06H169.762L169.09 227.932H165.478L164.82 230.06H162.762ZM166.85 223.494L165.954 226.378H168.6L167.704 223.494C167.536 222.962 167.298 221.954 167.298 221.954H167.27C167.27 221.954 167.018 222.962 166.85 223.494ZM177.3 230.284C174.584 230.284 173.044 229.08 172.974 226.966H174.962C175.102 228.17 175.788 228.646 177.216 228.646C178.252 228.646 179.162 228.282 179.162 227.358C179.162 226.378 178.21 226.182 176.684 225.832C174.892 225.426 173.254 224.95 173.254 222.864C173.254 220.89 174.864 219.868 177.09 219.868C179.344 219.868 180.8 220.974 180.954 222.99H179.008C178.896 221.982 178.112 221.478 177.076 221.478C175.984 221.478 175.27 221.94 175.27 222.654C175.27 223.466 175.97 223.704 177.454 224.026C179.512 224.474 181.192 224.964 181.192 227.12C181.192 229.15 179.554 230.284 177.3 230.284Z" fill="#520345"/>
<path d="M36.6756 103.06L35.8116 97.8276H29.0436L26.3316 103.06H24.1236L33.3156 85.8996H35.6916L38.9316 103.06H36.6756ZM32.9796 90.3156L29.9556 96.0996H35.5236L34.5636 90.3156C34.3956 89.3556 34.2276 87.8916 34.2276 87.8916H34.1796C34.1796 87.8916 33.5316 89.2836 32.9796 90.3156ZM47.6927 103.06L48.0047 101.332H47.9567C46.9487 102.532 45.6047 103.348 43.7807 103.348C41.3567 103.348 40.2047 101.812 40.6847 99.2916L42.3647 90.6516H44.2607L42.5807 99.2676C42.2447 100.972 42.7247 101.74 44.2367 101.74C46.4447 101.74 48.2927 99.8916 48.7487 97.5876L50.0927 90.6516H52.0127L49.6127 103.06H47.6927ZM57.3624 103.42C54.5544 103.42 52.6344 101.548 52.6584 98.2356C52.6824 94.6116 54.9144 90.3636 59.1864 90.3636C60.8184 90.3636 62.0184 91.1076 62.7864 92.5476H62.8344L64.1064 85.8996H66.0264L62.7144 103.06H60.7944L61.0584 101.716H61.0104C60.0744 102.772 58.8744 103.42 57.3624 103.42ZM54.6024 98.1396C54.6024 100.084 55.3944 101.812 57.6264 101.812C60.7944 101.812 62.2104 98.4756 62.2104 95.4036C62.2104 93.5076 61.1304 91.9956 59.1144 91.9956C56.0664 91.9956 54.6024 95.5236 54.6024 98.1396ZM69.624 90.6516L69.24 92.6196H69.288C70.224 91.3236 71.424 90.5076 72.84 90.5076C73.44 90.5076 73.632 90.5556 73.848 90.6516L73.488 92.4996H73.416C73.152 92.4036 72.912 92.3796 72.528 92.3796C70.656 92.3796 68.976 93.8676 68.472 96.5076L67.224 103.06H65.304L67.704 90.6516H69.624ZM84.6086 97.3236H75.3686C75.3446 97.5636 75.3446 97.7796 75.3446 98.0196C75.3446 100.228 76.4966 101.788 78.7766 101.788C80.3846 101.788 81.7286 100.852 82.2806 99.2196H84.1526C83.1926 102.004 81.1526 103.396 78.5846 103.396C75.7046 103.396 73.4006 101.38 73.4006 97.9956C73.4006 93.7956 76.2086 90.3396 79.8566 90.3396C81.1766 90.3396 82.2086 90.6756 82.9766 91.2516C84.5366 92.4276 85.0166 94.6596 84.6086 97.3236ZM79.7846 91.8516C77.6006 91.8516 76.1126 93.5076 75.5606 95.8596H82.7846C83.0246 93.5556 82.0646 91.8516 79.7846 91.8516ZM85.9046 107.164C85.2566 107.164 84.6806 107.068 84.2486 106.876L84.5846 105.196H84.6806C84.9206 105.316 85.2806 105.46 85.9286 105.46C86.7206 105.46 87.3686 105.148 87.8486 104.236L88.6646 102.676L86.0246 90.6516H87.9926L89.5766 98.3316C89.7926 99.3876 89.9366 100.756 89.9366 100.756H89.9846C89.9846 100.756 90.5366 99.4836 91.0886 98.3556L94.9046 90.6516H96.8966L89.6486 104.596C88.6406 106.54 87.4166 107.164 85.9046 107.164ZM100.022 103.06L103.334 85.8996H105.446L104.03 93.1956H112.574L113.99 85.8996H116.126L112.814 103.06H110.678L112.238 94.9236H103.694L102.134 103.06H100.022ZM127.359 97.3236H118.119C118.095 97.5636 118.095 97.7796 118.095 98.0196C118.095 100.228 119.247 101.788 121.527 101.788C123.135 101.788 124.479 100.852 125.031 99.2196H126.903C125.943 102.004 123.903 103.396 121.335 103.396C118.455 103.396 116.151 101.38 116.151 97.9956C116.151 93.7956 118.959 90.3396 122.607 90.3396C123.927 90.3396 124.959 90.6756 125.727 91.2516C127.287 92.4276 127.767 94.6596 127.359 97.3236ZM122.535 91.8516C120.351 91.8516 118.863 93.5076 118.311 95.8596H125.535C125.775 93.5556 124.815 91.8516 122.535 91.8516ZM127.278 107.044L130.47 90.6516H132.39L132.054 92.3556H132.102C133.062 91.1076 134.454 90.3636 136.11 90.3636C138.822 90.3636 140.478 92.4276 140.478 95.4996C140.478 99.2436 138.438 103.42 134.214 103.42C132.39 103.42 131.07 102.58 130.374 101.188H130.326L129.198 107.044H127.278ZM130.95 98.0676C130.926 100.18 131.934 101.812 134.142 101.812C137.214 101.812 138.51 98.3796 138.51 95.6196C138.51 93.6996 137.79 91.9956 135.606 91.9956C132.606 91.9956 130.974 95.1156 130.95 98.0676ZM141.171 103.06L144.483 85.8996H146.403L145.179 92.3556H145.227C146.187 91.1556 147.579 90.3636 149.235 90.3636C151.947 90.3636 153.603 92.4276 153.603 95.4996C153.603 99.2436 151.563 103.42 147.339 103.42C145.515 103.42 144.219 102.628 143.475 101.236H143.427L143.091 103.06H141.171ZM144.075 98.0676C144.051 100.18 145.059 101.812 147.267 101.812C150.339 101.812 151.635 98.3796 151.635 95.6196C151.635 93.6996 150.915 91.9956 148.731 91.9956C145.731 91.9956 144.099 95.1156 144.075 98.0676ZM161.88 103.06L162.192 101.332H162.144C161.136 102.532 159.792 103.348 157.968 103.348C155.544 103.348 154.392 101.812 154.872 99.2916L156.552 90.6516H158.448L156.768 99.2676C156.432 100.972 156.912 101.74 158.424 101.74C160.632 101.74 162.48 99.8916 162.936 97.5876L164.28 90.6516H166.2L163.8 103.06H161.88ZM170.71 90.6516L170.326 92.6196H170.374C171.31 91.3236 172.51 90.5076 173.926 90.5076C174.526 90.5076 174.718 90.5556 174.934 90.6516L174.574 92.4996H174.502C174.238 92.4036 173.998 92.3796 173.614 92.3796C171.742 92.3796 170.062 93.8676 169.558 96.5076L168.31 103.06H166.39L168.79 90.6516H170.71ZM178.585 90.6516L178.225 92.5716H178.273C179.305 91.2276 180.985 90.3636 182.833 90.3636C185.281 90.3636 186.313 91.8756 185.857 94.2996L184.153 103.06H182.257L183.961 94.2996C184.249 92.7636 183.817 91.9716 182.329 91.9716C180.049 91.9716 177.961 93.8916 177.529 96.0996L176.185 103.06H174.265L176.665 90.6516H178.585Z" fill="#B9D6FE"/>
<path d="M79.1016 179.06L82.5876 169.05H84.6876L88.2156 179.06H86.1016L85.4296 176.932H81.8176L81.1596 179.06H79.1016ZM83.1896 172.494L82.2936 175.378H84.9396L84.0436 172.494C83.8756 171.962 83.6376 170.954 83.6376 170.954H83.6096C83.6096 170.954 83.3576 171.962 83.1896 172.494ZM93.7195 179.27C90.9055 179.27 88.9035 177.1 88.9035 174.09C88.9035 171.122 90.7515 168.854 93.7055 168.854C96.1695 168.854 97.6255 170.324 97.8355 172.228H95.8195C95.6375 171.22 94.8815 170.562 93.7055 170.562C91.8575 170.562 90.9755 172.102 90.9755 174.09C90.9755 176.134 92.0395 177.604 93.7195 177.604C94.9095 177.604 95.7495 176.89 95.8755 175.84H97.8635C97.8075 176.722 97.4295 177.576 96.7575 178.206C96.0715 178.85 95.1055 179.27 93.7195 179.27ZM98.9564 170.758V169.05H107.006V170.758H103.996V179.06H101.966V170.758H98.9564ZM108.873 179.06V169.05H113.465C115.397 169.05 116.685 170.17 116.685 171.836C116.685 173.012 116.139 173.908 114.851 174.258V174.3C115.775 174.566 116.251 175.098 116.377 176.316C116.517 177.73 116.461 178.808 116.811 178.962V179.06H114.865C114.613 178.948 114.585 177.828 114.501 176.75C114.417 175.658 113.801 175.042 112.541 175.042H110.903V179.06H108.873ZM110.903 170.688V173.474H113.059C114.165 173.474 114.711 172.9 114.711 172.102C114.711 171.29 114.193 170.688 113.115 170.688H110.903ZM118.846 179.06V169.05H120.876V179.06H118.846ZM121.912 166.768L120.582 168.518H119.098L119.686 166.768H121.912ZM122.876 179.06V177.534L128.336 170.786V170.744H123.226V169.05H130.744V170.744L125.466 177.296V177.338H130.842V179.06H122.876Z" fill="#B9D6FE"/>
<path d="M63.6076 137.06V130.368H61.4376V129.108C62.6136 129.066 63.6636 128.632 63.8596 127.4H65.5256V137.06H63.6076ZM71.484 137.27C69.482 137.27 68.334 136.206 68.124 134.764H69.972C70.126 135.338 70.574 135.814 71.428 135.814C72.03 135.814 72.478 135.632 72.814 135.212C73.192 134.736 73.402 133.952 73.416 132.958H73.388C72.884 133.546 72.212 134.008 71.162 134.008C69.216 134.008 67.732 132.678 67.732 130.634C67.732 128.66 69.286 127.274 71.344 127.274C73.892 127.274 75.32 128.884 75.32 132.132C75.32 135.198 74.298 137.27 71.484 137.27ZM71.428 132.468C72.52 132.468 73.36 131.74 73.36 130.634C73.36 129.542 72.534 128.772 71.442 128.772C70.336 128.772 69.552 129.57 69.552 130.606C69.552 131.698 70.252 132.468 71.428 132.468ZM76.8028 137.06C76.8728 135.226 78.0208 134.106 79.1128 133.252C80.3168 132.3 81.6328 131.628 81.6328 130.396C81.6328 129.5 81.1568 128.898 80.3028 128.898C79.3368 128.898 78.7628 129.598 78.7348 130.844H76.9428C76.9428 128.66 78.0628 127.274 80.3448 127.274C82.4308 127.274 83.6068 128.688 83.6068 130.34C83.6068 132.146 82.3748 133 81.1988 133.784C80.4568 134.26 79.5888 134.876 79.2668 135.492H83.6908V137.06H76.8028ZM89.1054 137.27C87.1034 137.27 85.9554 136.206 85.7454 134.764H87.5934C87.7474 135.338 88.1954 135.814 89.0494 135.814C89.6514 135.814 90.0994 135.632 90.4354 135.212C90.8134 134.736 91.0234 133.952 91.0374 132.958H91.0094C90.5054 133.546 89.8334 134.008 88.7834 134.008C86.8374 134.008 85.3534 132.678 85.3534 130.634C85.3534 128.66 86.9074 127.274 88.9654 127.274C91.5134 127.274 92.9414 128.884 92.9414 132.132C92.9414 135.198 91.9194 137.27 89.1054 137.27ZM89.0494 132.468C90.1414 132.468 90.9814 131.74 90.9814 130.634C90.9814 129.542 90.1554 128.772 89.0634 128.772C87.9574 128.772 87.1734 129.57 87.1734 130.606C87.1734 131.698 87.8734 132.468 89.0494 132.468ZM98.7885 134.316V132.678H109.988V134.316H98.7885ZM117.968 137.06V130.368H115.798V129.108C116.974 129.066 118.024 128.632 118.22 127.4H119.886V137.06H117.968ZM125.844 137.27C123.842 137.27 122.694 136.206 122.484 134.764H124.332C124.486 135.338 124.934 135.814 125.788 135.814C126.39 135.814 126.838 135.632 127.174 135.212C127.552 134.736 127.762 133.952 127.776 132.958H127.748C127.244 133.546 126.572 134.008 125.522 134.008C123.576 134.008 122.092 132.678 122.092 130.634C122.092 128.66 123.646 127.274 125.704 127.274C128.252 127.274 129.68 128.884 129.68 132.132C129.68 135.198 128.658 137.27 125.844 137.27ZM125.788 132.468C126.88 132.468 127.72 131.74 127.72 130.634C127.72 129.542 126.894 128.772 125.802 128.772C124.696 128.772 123.912 129.57 123.912 130.606C123.912 131.698 124.612 132.468 125.788 132.468ZM135.038 137.27C133.036 137.27 131.888 136.206 131.678 134.764H133.526C133.68 135.338 134.128 135.814 134.982 135.814C135.584 135.814 136.032 135.632 136.368 135.212C136.746 134.736 136.956 133.952 136.97 132.958H136.942C136.438 133.546 135.766 134.008 134.716 134.008C132.77 134.008 131.286 132.678 131.286 130.634C131.286 128.66 132.84 127.274 134.898 127.274C137.446 127.274 138.874 128.884 138.874 132.132C138.874 135.198 137.852 137.27 135.038 137.27ZM134.982 132.468C136.074 132.468 136.914 131.74 136.914 130.634C136.914 129.542 136.088 128.772 134.996 128.772C133.89 128.772 133.106 129.57 133.106 130.606C133.106 131.698 133.806 132.468 134.982 132.468ZM144.119 137.27C141.641 137.27 140.367 135.898 140.339 133.798H142.159C142.229 134.946 142.733 135.744 144.049 135.744C145.113 135.744 145.743 135.17 145.743 134.19C145.743 133.266 145.155 132.706 143.979 132.706H143.391V131.264H143.937C144.847 131.264 145.491 130.802 145.491 129.99C145.491 129.234 144.973 128.73 144.133 128.73C143.041 128.73 142.509 129.444 142.467 130.438H140.647C140.717 128.548 141.907 127.274 144.133 127.274C146.135 127.274 147.423 128.268 147.423 129.864C147.423 130.942 146.737 131.572 145.785 131.88V131.908C147.003 132.202 147.731 132.986 147.731 134.316C147.731 136.304 146.093 137.27 144.119 137.27Z" fill="#B9D6FE"/>
<path d="M74.8296 158.06V148.05H79.3096C80.3876 148.05 81.2136 148.316 81.7316 148.778C82.2776 149.268 82.5296 149.87 82.5296 150.654C82.5296 151.676 81.8996 152.334 80.9616 152.656V152.698C82.0676 153.02 82.8236 153.944 82.8236 155.176C82.8236 156.114 82.5296 156.758 81.9416 157.262C81.3676 157.766 80.4856 158.06 79.4216 158.06H74.8296ZM76.8596 153.58V156.38H79.1976C80.1776 156.38 80.7656 155.834 80.7656 155.022C80.7656 154.07 80.0656 153.58 79.1416 153.58H76.8596ZM76.8596 152.082H79.0576C79.9396 152.082 80.5416 151.662 80.5416 150.878C80.5416 150.136 79.9956 149.702 79.0996 149.702H76.8596V152.082ZM84.8571 158.06V148.05H92.2211V149.758H86.8871V151.998H91.5631V153.664H86.8871V156.366H92.2631V158.06H84.8571ZM90.6951 145.768L89.3651 147.518H87.8811L88.4691 145.768H90.6951ZM94.365 158.06V148.05H96.395V156.366H101.099V158.06H94.365ZM109.938 158.06L109.868 156.716H109.84C109.154 157.864 108.216 158.27 107.026 158.27C105.514 158.27 104.338 157.724 103.512 156.814C102.686 155.89 102.21 154.602 102.21 153.09C102.21 151.424 102.798 149.968 103.848 149.002C104.66 148.26 105.724 147.854 107.068 147.854C109.588 147.854 111.03 149.24 111.352 151.2H109.364C109.14 150.234 108.398 149.534 107.11 149.534C105.22 149.534 104.282 151.102 104.282 153.09C104.282 155.134 105.36 156.632 107.082 156.632C108.636 156.632 109.658 155.47 109.658 154.364V154.308H107.25V152.74H111.464V158.06H109.938ZM113.737 158.06V148.05H115.767V158.06H113.737ZM122.54 158.27C119.726 158.27 117.724 156.1 117.724 153.09C117.724 150.122 119.572 147.854 122.526 147.854C124.99 147.854 126.446 149.324 126.656 151.228H124.64C124.458 150.22 123.702 149.562 122.526 149.562C120.678 149.562 119.796 151.102 119.796 153.09C119.796 155.134 120.86 156.604 122.54 156.604C123.73 156.604 124.57 155.89 124.696 154.84H126.684C126.628 155.722 126.25 156.576 125.578 157.206C124.892 157.85 123.926 158.27 122.54 158.27ZM127.567 158.06L131.053 148.05H133.153L136.681 158.06H134.567L133.895 155.932H130.283L129.625 158.06H127.567ZM131.655 151.494L130.759 154.378H133.405L132.509 151.494C132.341 150.962 132.103 149.954 132.103 149.954H132.075C132.075 149.954 131.823 150.962 131.655 151.494Z" fill="#B9D6FE"/>
</svg>
