<svg width="437" height="589" viewBox="0 0 437 589" fill="none" xmlns="http://www.w3.org/2000/svg">
<path d="M435.581 587.02V587.55H435.052L1.05957 587.59H0.529297V587.06L0.532227 101.458V101.058L0.916992 100.948C19.9086 95.5462 34.6907 81.231 40.0342 62.1251L40.1426 61.7365L40.5459 61.7374L69.71 61.7843C90.2279 34.4751 123.004 17.247 155.872 8.55676C214.889 -7.04734 285.699 -0.562116 336.801 33.8341C348.509 41.715 358.157 51.1493 366.625 62.047H392.503C393.016 62.0414 393.757 62.0417 394.366 62.0431C394.671 62.0438 394.945 62.0442 395.142 62.045C395.24 62.0455 395.32 62.0457 395.375 62.046C395.402 62.0462 395.423 62.0469 395.438 62.047H395.46L395.844 62.049L395.962 62.4152C398.132 69.1952 401.125 74.9525 404.896 80.4347L405.303 80.8546L405.312 80.8634L405.319 80.8722L411.45 87.7999C418.228 93.9228 426.013 98.2155 435.188 100.875L435.57 100.985V101.384L435.581 587.02Z" stroke="#B9D6FE" stroke-width="1.06" stroke-miterlimit="10"/>
<path d="M78.0967 74.4867C111.323 29.5246 177.33 13.0408 231.1 16.3646C270.389 18.7932 310.634 30.5318 340.787 56.4086L340.8 56.4193L340.812 56.431L351.277 66.597L351.306 66.6244L351.33 66.6556L357.258 74.4359L384.516 74.5375L384.913 74.5385L385.023 74.9203C390.038 92.3585 403.34 105.487 420.573 111.227L421.396 111.495L421.761 111.611L421.767 111.994L422.086 136.023V136.036L421.923 153.332L421.951 305.113H421.95L422.101 346.61V346.613L422.056 368.828L422.014 437.925L422.01 450.871L422.146 492.928V492.934L422.03 507.977L422.037 549.311L422.022 564.354V564.358L421.949 573.154V574.227H421.419L14.0596 574.371H13.5293V573.841L13.7324 111.827V111.424L14.1191 111.316C26.7605 107.781 38.1437 98.7707 44.7793 87.8656C47.1972 83.5006 49.1891 79.5313 50.7275 74.9076L50.8477 74.5463L51.2295 74.5453L78.0967 74.4867Z" fill="#FD6500" stroke="#B9D6FE" stroke-width="1.06" stroke-miterlimit="10"/>
<path d="M333.561 373.384L101.67 373.38C100.847 373.378 100.215 372.843 100.215 372.141L100.218 367.662C96.6479 366.806 93.5135 365.031 91.0926 362.614C85.9597 357.491 84.6529 350.259 87.6338 343.974C89.8694 339.26 94.4965 335.304 100.275 333.889L100.292 329.276C100.294 328.663 100.907 328.059 101.676 328.059L333.348 328.061C334.202 328.058 334.854 328.621 334.854 329.344L334.858 333.905C336.652 334.311 338.281 334.93 339.794 335.8C345.704 339.199 349.141 344.951 349.058 351.111C348.981 356.836 345.772 362.188 340.359 365.453C338.672 366.471 336.871 367.217 334.836 367.649L334.818 372.204C334.816 372.793 334.317 373.285 333.561 373.384ZM333.25 372.538C333.599 372.556 333.841 372.412 333.841 372.145L333.847 367.003C335.521 366.681 337.04 366.186 338.515 365.444C344.354 362.509 347.957 357.052 348.072 351.191C348.19 345.236 344.842 339.65 339.088 336.419C337.505 335.53 335.79 334.914 333.892 334.566L333.879 329.263C333.879 329.078 333.574 328.9 333.345 328.922L101.768 328.919C101.454 328.951 101.27 329.103 101.27 329.339L101.269 334.559C94.6991 335.871 89.7153 340.572 87.8421 346.094C85.2244 353.812 89.247 362.347 97.5661 365.89C98.7445 366.392 99.8868 366.749 101.181 366.994L101.18 371.983C101.18 372.305 101.325 372.536 101.77 372.536L333.25 372.538Z" fill="#B9D6FE"/>
<path d="M331.497 370.051L103.679 370.051L103.659 365.096C101.862 364.793 100.177 364.316 98.5663 363.553C94.848 361.755 92.034 358.907 90.6783 355.433C89.3634 351.986 89.5978 348.308 91.2877 344.991C93.4843 340.578 98.1402 337.389 103.693 336.515L103.703 331.395H331.537L331.554 336.513C335.217 337.034 338.45 338.606 340.952 340.911C344.031 343.785 345.597 347.584 345.364 351.491C345.314 353.385 344.795 355.134 343.905 356.848C341.654 361.183 337.053 364.317 331.52 365.099L331.497 370.051ZM330.116 368.82L330.114 364.123L330.266 364.012C337.985 363.333 343.81 357.802 343.987 351.171C344.173 344.198 338.299 338.296 330.161 337.563L330.154 332.616L105.105 332.616L105.081 337.574C98.8676 338.136 93.7764 341.847 91.9501 346.892C89.7509 352.967 92.7907 359.491 99.355 362.516C101.108 363.358 103.041 363.856 105.062 364.035L105.073 368.82L330.116 368.82Z" fill="#B9D6FE"/>
<path d="M330.989 368.953L105.075 368.954L105.064 364.116C103.043 363.935 101.109 363.432 99.3563 362.581C92.7919 359.522 89.752 352.927 91.9513 346.785C93.7777 341.685 98.8689 337.933 105.082 337.365L105.106 332.353L331.028 332.352L331.034 337.354C339.172 338.095 345.046 344.061 344.86 351.111C344.683 357.814 338.858 363.407 331.139 364.093L330.987 364.205L330.989 368.953Z" fill="#B9D6FE"/>
<path d="M144.462 356.06L141.088 346.05H143.216L144.98 351.846C145.176 352.504 145.414 353.442 145.414 353.442H145.442C145.442 353.442 145.68 352.49 145.876 351.846L147.626 346.05H149.684L146.31 356.06H144.462ZM151.324 356.06V346.05H158.688V347.758H153.354V349.998H158.03V351.664H153.354V354.366H158.73V356.06H151.324ZM160.832 356.06V346.05H165.424C167.356 346.05 168.644 347.17 168.644 348.836C168.644 350.012 168.098 350.908 166.81 351.258V351.3C167.734 351.566 168.21 352.098 168.336 353.316C168.476 354.73 168.42 355.808 168.77 355.962V356.06H166.824C166.572 355.948 166.544 354.828 166.46 353.75C166.376 352.658 165.76 352.042 164.5 352.042H162.862V356.06H160.832ZM162.862 347.688V350.474H165.018C166.124 350.474 166.67 349.9 166.67 349.102C166.67 348.29 166.152 347.688 165.074 347.688H162.862ZM181.319 356.06L181.249 354.716H181.221C180.535 355.864 179.597 356.27 178.407 356.27C176.895 356.27 175.719 355.724 174.893 354.814C174.067 353.89 173.591 352.602 173.591 351.09C173.591 349.424 174.179 347.968 175.229 347.002C176.041 346.26 177.105 345.854 178.449 345.854C180.969 345.854 182.411 347.24 182.733 349.2H180.745C180.521 348.234 179.779 347.534 178.491 347.534C176.601 347.534 175.663 349.102 175.663 351.09C175.663 353.134 176.741 354.632 178.463 354.632C180.017 354.632 181.039 353.47 181.039 352.364V352.308H178.631V350.74H182.845V356.06H181.319ZM188.968 356.228C186.378 356.228 185.02 355.01 185.02 352.84V346.05H187.05V352.84C187.05 353.876 187.568 354.604 188.926 354.604C190.214 354.604 190.816 353.848 190.816 352.812V346.05H192.846V352.84C192.846 354.982 191.53 356.228 188.968 356.228ZM194.061 356.06L197.547 346.05H199.647L203.175 356.06H201.061L200.389 353.932H196.777L196.119 356.06H194.061ZM198.149 349.494L197.253 352.378H199.899L199.003 349.494C198.835 348.962 198.597 347.954 198.597 347.954H198.569C198.569 347.954 198.317 348.962 198.149 349.494ZM204.858 356.06V346.05H209.45C211.382 346.05 212.67 347.17 212.67 348.836C212.67 350.012 212.124 350.908 210.836 351.258V351.3C211.76 351.566 212.236 352.098 212.362 353.316C212.502 354.73 212.446 355.808 212.796 355.962V356.06H210.85C210.598 355.948 210.57 354.828 210.486 353.75C210.402 352.658 209.786 352.042 208.526 352.042H206.888V356.06H204.858ZM206.888 347.688V350.474H209.044C210.15 350.474 210.696 349.9 210.696 349.102C210.696 348.29 210.178 347.688 209.1 347.688H206.888ZM214.817 356.06V346.05H218.723C221.397 346.05 223.119 348.206 223.119 351.16C223.119 352.784 222.573 354.212 221.523 355.094C220.781 355.71 219.815 356.06 218.555 356.06H214.817ZM216.847 354.31H218.415C220.319 354.31 221.061 353.148 221.061 351.16C221.061 349.172 220.193 347.786 218.471 347.786H216.847V354.31ZM223.775 356.06L227.261 346.05H229.361L232.889 356.06H230.775L230.103 353.932H226.491L225.833 356.06H223.775ZM227.863 349.494L226.967 352.378H229.613L228.717 349.494C228.549 348.962 228.311 347.954 228.311 347.954H228.283C228.283 347.954 228.031 348.962 227.863 349.494ZM234.571 356.06V346.05H239.163C241.095 346.05 242.383 347.17 242.383 348.836C242.383 350.012 241.837 350.908 240.549 351.258V351.3C241.473 351.566 241.949 352.098 242.075 353.316C242.215 354.73 242.159 355.808 242.509 355.962V356.06H240.563C240.311 355.948 240.283 354.828 240.199 353.75C240.115 352.658 239.499 352.042 238.239 352.042H236.601V356.06H234.571ZM236.601 347.688V350.474H238.757C239.863 350.474 240.409 349.9 240.409 349.102C240.409 348.29 239.891 347.688 238.813 347.688H236.601ZM244.531 356.06V346.05H249.123C251.055 346.05 252.343 347.17 252.343 348.836C252.343 350.012 251.797 350.908 250.509 351.258V351.3C251.433 351.566 251.909 352.098 252.035 353.316C252.175 354.73 252.119 355.808 252.469 355.962V356.06H250.523C250.271 355.948 250.243 354.828 250.159 353.75C250.075 352.658 249.459 352.042 248.199 352.042H246.561V356.06H244.531ZM246.561 347.688V350.474H248.717C249.823 350.474 250.369 349.9 250.369 349.102C250.369 348.29 249.851 347.688 248.773 347.688H246.561ZM258.886 356.284C255.932 356.284 254.056 354.072 254.056 351.076C254.056 348.08 255.932 345.854 258.886 345.854C261.84 345.854 263.702 348.08 263.702 351.076C263.702 354.072 261.84 356.284 258.886 356.284ZM258.9 354.618C260.734 354.618 261.63 353.064 261.63 351.076C261.63 349.074 260.734 347.52 258.9 347.52C257.066 347.52 256.128 349.074 256.128 351.076C256.128 353.064 257.066 354.618 258.9 354.618ZM265.652 356.06V346.05H270.048C271.21 346.05 272.078 346.386 272.666 346.988C273.226 347.562 273.562 348.346 273.562 349.27C273.562 351.16 272.316 352.434 270.216 352.434H267.752V356.06H265.652ZM267.752 347.814V350.782H269.852C270.916 350.782 271.476 350.194 271.476 349.284C271.476 348.346 270.888 347.814 269.88 347.814H267.752ZM273.762 356.06L277.248 346.05H279.348L282.876 356.06H280.762L280.09 353.932H276.478L275.82 356.06H273.762ZM277.85 349.494L276.954 352.378H279.6L278.704 349.494C278.536 348.962 278.298 347.954 278.298 347.954H278.27C278.27 347.954 278.018 348.962 277.85 349.494ZM288.3 356.284C285.584 356.284 284.044 355.08 283.974 352.966H285.962C286.102 354.17 286.788 354.646 288.216 354.646C289.252 354.646 290.162 354.282 290.162 353.358C290.162 352.378 289.21 352.182 287.684 351.832C285.892 351.426 284.254 350.95 284.254 348.864C284.254 346.89 285.864 345.868 288.09 345.868C290.344 345.868 291.8 346.974 291.954 348.99H290.008C289.896 347.982 289.112 347.478 288.076 347.478C286.984 347.478 286.27 347.94 286.27 348.654C286.27 349.466 286.97 349.704 288.454 350.026C290.512 350.474 292.192 350.964 292.192 353.12C292.192 355.15 290.554 356.284 288.3 356.284Z" fill="#520345"/>
<path d="M123.892 255.06L122.068 232.18H124.948L125.876 247.06C126.004 248.596 126.068 250.932 126.068 250.932H126.132C126.132 250.932 127.092 248.5 127.764 246.996L134.324 232.18H137.396L138.804 246.996C138.964 248.532 139.028 250.932 139.028 250.932H139.092C139.092 250.932 140.052 248.468 140.628 247.06L146.932 232.18H149.812L139.7 255.06H136.98L135.572 238.932C135.444 237.556 135.38 235.38 135.38 235.38H135.316C135.316 235.38 134.516 237.46 133.876 238.932L126.708 255.06H123.892ZM159.423 255.22C157.663 255.22 157.151 254.164 157.119 252.948H157.087C155.999 254.356 154.207 255.38 151.871 255.38C148.575 255.38 146.719 253.204 146.719 250.708C146.719 246.484 149.951 245.62 153.247 245.428C157.791 245.172 158.879 244.884 158.879 242.74C158.879 240.692 157.279 240.212 155.487 240.18C152.799 240.148 151.263 241.076 150.815 243.508H148.223C148.799 240.212 151.391 238.164 155.679 238.164C158.879 238.164 161.887 239.668 161.087 243.796L159.583 251.444C159.359 252.66 159.487 253.428 161.023 253.14H161.119L160.735 254.996C160.415 255.092 160.031 255.22 159.423 255.22ZM149.311 250.516C149.311 252.244 150.431 253.396 152.415 253.396C155.615 253.396 157.311 251.188 157.791 248.756L158.239 246.484C157.215 247.06 155.903 247.156 153.151 247.38C151.871 247.476 149.311 247.668 149.311 250.516ZM162.721 255.06L167.137 232.18H169.697L165.281 255.06H162.721ZM168.94 255.06L173.356 232.18H175.916L171.5 255.06H168.94ZM175.063 255.06L178.263 238.516H180.823L177.623 255.06H175.063ZM178.871 235.38L179.479 232.18H182.039L181.431 235.38H178.871ZM187.782 255.54C184.198 255.54 180.902 253.716 180.902 249.684H183.366C183.43 252.148 185.094 253.428 187.974 253.428C189.734 253.428 191.718 252.788 191.718 250.452C191.718 249.14 190.598 248.564 187.91 247.508C185.19 246.452 182.95 245.492 182.95 242.644C182.95 239.764 185.35 238.164 188.678 238.164C192.006 238.164 194.79 239.636 195.014 243.348H192.518C192.262 241.076 190.758 240.148 188.678 240.148C186.982 240.148 185.35 240.66 185.35 242.516C185.35 243.86 186.502 244.372 189.158 245.428C192.07 246.58 194.214 247.54 194.214 250.388C194.214 253.972 191.174 255.54 187.782 255.54ZM210.151 255.508C205.479 255.508 201.063 253.396 201.223 247.316H203.943C203.943 251.476 206.343 253.172 210.215 253.172C213.703 253.172 215.943 251.54 215.943 248.564C215.943 246.196 213.959 245.428 210.215 244.052C206.343 242.644 203.911 241.204 203.911 237.972C203.911 234.132 207.143 231.732 211.431 231.732C216.071 231.732 219.463 233.716 219.719 238.868H217.031C216.871 235.476 214.887 234.036 211.431 234.036C208.871 234.036 206.567 234.9 206.567 237.716C206.567 239.636 208.423 240.468 211.399 241.556C215.687 243.124 218.727 244.34 218.727 248.244C218.727 252.532 215.527 255.508 210.151 255.508ZM220.281 255.06L223.481 238.516H226.041L222.841 255.06H220.281ZM224.089 235.38L224.697 232.18H227.257L226.649 235.38H224.089ZM226.313 255.06L229.513 238.516H232.073L231.593 241.044H231.657C232.937 239.508 234.633 238.132 237.033 238.132C238.793 238.132 240.105 239.092 240.457 241.14H240.521C242.153 239.188 244.009 238.132 246.249 238.132C248.713 238.132 250.665 239.54 249.929 243.316L247.657 255.06H245.129L247.433 243.252C247.849 241.076 246.985 240.276 245.417 240.276C243.081 240.276 240.713 242.452 240.169 245.332L238.281 255.06H235.721L238.025 243.092C238.377 241.3 237.737 240.276 236.105 240.276C233.801 240.276 231.273 242.644 230.761 245.332L228.873 255.06H226.313ZM249.976 260.372L254.232 238.516H256.792L256.344 240.788H256.408C257.688 239.124 259.544 238.132 261.752 238.132C265.368 238.132 267.576 240.884 267.576 244.98C267.576 249.972 264.856 255.54 259.224 255.54C256.792 255.54 255.032 254.42 254.104 252.564H254.04L252.536 260.372H249.976ZM254.872 248.404C254.84 251.22 256.184 253.396 259.128 253.396C263.224 253.396 264.952 248.82 264.952 245.14C264.952 242.58 263.992 240.308 261.08 240.308C257.08 240.308 254.904 244.468 254.872 248.404ZM275.188 255.54C271.604 255.54 268.308 253.716 268.308 249.684H270.772C270.836 252.148 272.5 253.428 275.38 253.428C277.14 253.428 279.124 252.788 279.124 250.452C279.124 249.14 278.004 248.564 275.316 247.508C272.596 246.452 270.356 245.492 270.356 242.644C270.356 239.764 272.756 238.164 276.084 238.164C279.412 238.164 282.196 239.636 282.42 243.348H279.924C279.668 241.076 278.164 240.148 276.084 240.148C274.388 240.148 272.756 240.66 272.756 242.516C272.756 243.86 273.908 244.372 276.564 245.428C279.476 246.58 281.62 247.54 281.62 250.388C281.62 253.972 278.58 255.54 275.188 255.54ZM290.772 255.508C286.836 255.508 283.796 252.916 283.796 248.276C283.796 242.9 287.092 238.1 292.532 238.1C296.532 238.1 299.476 240.884 299.476 245.396C299.476 250.644 296.404 255.508 290.772 255.508ZM286.356 248.244C286.356 251.156 287.86 253.364 290.868 253.364C294.804 253.364 296.884 249.62 296.884 245.396C296.884 242.644 295.54 240.212 292.468 240.212C288.404 240.212 286.356 244.148 286.356 248.244ZM306.104 238.516L305.624 241.076H305.688C307.064 239.284 309.304 238.132 311.768 238.132C315.032 238.132 316.408 240.148 315.8 243.38L313.528 255.06H311L313.272 243.38C313.656 241.332 313.08 240.276 311.096 240.276C308.056 240.276 305.272 242.836 304.696 245.78L302.904 255.06H300.344L303.544 238.516H306.104Z" fill="#B9D6FE"/>
<path d="M114.608 291.06V284.368H112.438V283.108C113.614 283.066 114.664 282.632 114.86 281.4H116.526V291.06H114.608ZM122.61 291.27C120.44 291.27 118.704 290.22 118.704 288.288C118.704 287.098 119.404 286.174 120.454 285.768V285.726C119.6 285.334 119.11 284.746 119.11 283.822C119.11 282.198 120.524 281.274 122.596 281.274C124.668 281.274 126.012 282.184 126.012 283.794C126.012 284.69 125.508 285.32 124.682 285.712V285.754C125.746 286.132 126.418 287.042 126.418 288.204C126.418 290.178 124.78 291.27 122.61 291.27ZM122.568 289.73C123.688 289.73 124.458 289.128 124.458 288.218C124.458 287.238 123.772 286.594 122.596 286.594C121.42 286.594 120.678 287.238 120.678 288.218C120.678 289.156 121.406 289.73 122.568 289.73ZM122.568 285.264C123.562 285.264 124.15 284.732 124.15 283.976C124.15 283.22 123.562 282.716 122.568 282.716C121.56 282.716 120.972 283.22 120.972 283.976C120.972 284.732 121.56 285.264 122.568 285.264ZM131.609 291.27C129.607 291.27 128.459 290.206 128.249 288.764H130.097C130.251 289.338 130.699 289.814 131.553 289.814C132.155 289.814 132.603 289.632 132.939 289.212C133.317 288.736 133.527 287.952 133.541 286.958H133.513C133.009 287.546 132.337 288.008 131.287 288.008C129.341 288.008 127.857 286.678 127.857 284.634C127.857 282.66 129.411 281.274 131.469 281.274C134.017 281.274 135.445 282.884 135.445 286.132C135.445 289.198 134.423 291.27 131.609 291.27ZM131.553 286.468C132.645 286.468 133.485 285.74 133.485 284.634C133.485 283.542 132.659 282.772 131.567 282.772C130.461 282.772 129.677 283.57 129.677 284.606C129.677 285.698 130.377 286.468 131.553 286.468ZM141.111 291.27C138.367 291.27 137.163 289.016 137.135 286.412C137.121 284.718 137.457 283.346 138.311 282.38C138.927 281.68 139.767 281.274 141.069 281.274C142.987 281.274 144.135 282.324 144.373 283.752H142.539C142.399 283.164 141.979 282.73 141.139 282.73C139.739 282.73 139.067 283.78 139.067 285.474H139.095C139.599 284.886 140.229 284.48 141.349 284.48C143.127 284.48 144.681 285.866 144.681 287.91C144.681 289.884 143.113 291.27 141.111 291.27ZM141.041 289.772C142.077 289.772 142.861 288.974 142.861 287.938C142.861 286.846 142.091 286.02 141.055 286.02C139.879 286.02 139.193 286.818 139.193 287.924C139.193 289.002 139.963 289.772 141.041 289.772ZM146.329 288.414V286.776H150.123V288.414H146.329ZM153.069 291.06V284.368H150.899V283.108C152.075 283.066 153.125 282.632 153.321 281.4H154.987V291.06H153.069ZM160.946 291.27C158.944 291.27 157.796 290.206 157.586 288.764H159.434C159.588 289.338 160.036 289.814 160.89 289.814C161.492 289.814 161.94 289.632 162.276 289.212C162.654 288.736 162.864 287.952 162.878 286.958H162.85C162.346 287.546 161.674 288.008 160.624 288.008C158.678 288.008 157.194 286.678 157.194 284.634C157.194 282.66 158.748 281.274 160.806 281.274C163.354 281.274 164.782 282.884 164.782 286.132C164.782 289.198 163.76 291.27 160.946 291.27ZM160.89 286.468C161.982 286.468 162.822 285.74 162.822 284.634C162.822 283.542 161.996 282.772 160.904 282.772C159.798 282.772 159.014 283.57 159.014 284.606C159.014 285.698 159.714 286.468 160.89 286.468ZM170.265 291.27C168.095 291.27 166.359 290.22 166.359 288.288C166.359 287.098 167.059 286.174 168.109 285.768V285.726C167.255 285.334 166.765 284.746 166.765 283.822C166.765 282.198 168.179 281.274 170.251 281.274C172.323 281.274 173.667 282.184 173.667 283.794C173.667 284.69 173.163 285.32 172.337 285.712V285.754C173.401 286.132 174.073 287.042 174.073 288.204C174.073 290.178 172.435 291.27 170.265 291.27ZM170.223 289.73C171.343 289.73 172.113 289.128 172.113 288.218C172.113 287.238 171.427 286.594 170.251 286.594C169.075 286.594 168.333 287.238 168.333 288.218C168.333 289.156 169.061 289.73 170.223 289.73ZM170.223 285.264C171.217 285.264 171.805 284.732 171.805 283.976C171.805 283.22 171.217 282.716 170.223 282.716C169.215 282.716 168.627 283.22 168.627 283.976C168.627 284.732 169.215 285.264 170.223 285.264ZM179.572 291.27C176.828 291.27 175.624 289.016 175.596 286.412C175.582 284.718 175.918 283.346 176.772 282.38C177.388 281.68 178.228 281.274 179.53 281.274C181.448 281.274 182.596 282.324 182.834 283.752H181C180.86 283.164 180.44 282.73 179.6 282.73C178.2 282.73 177.528 283.78 177.528 285.474H177.556C178.06 284.886 178.69 284.48 179.81 284.48C181.588 284.48 183.142 285.866 183.142 287.91C183.142 289.884 181.574 291.27 179.572 291.27ZM179.502 289.772C180.538 289.772 181.322 288.974 181.322 287.938C181.322 286.846 180.552 286.02 179.516 286.02C178.34 286.02 177.654 286.818 177.654 287.924C177.654 289.002 178.424 289.772 179.502 289.772Z" fill="#B9D6FE"/>
<path d="M197.83 291.06V281.05H205.194V282.758H199.86V284.998H204.536V286.664H199.86V289.366H205.236V291.06H197.83ZM207.338 291.06V281.05H214.702V282.758H209.368V284.998H214.044V286.664H209.368V289.366H214.744V291.06H207.338ZM216.853 291.06V289.03H218.897V291.06H216.853ZM224.598 291.228C222.008 291.228 220.65 290.01 220.65 287.84V281.05H222.68V287.84C222.68 288.876 223.198 289.604 224.556 289.604C225.844 289.604 226.446 288.848 226.446 287.812V281.05H228.476V287.84C228.476 289.982 227.16 291.228 224.598 291.228ZM234.64 291.228C232.05 291.228 230.692 290.01 230.692 287.84V281.05H232.722V287.84C232.722 288.876 233.24 289.604 234.598 289.604C235.886 289.604 236.488 288.848 236.488 287.812V281.05H238.518V287.84C238.518 289.982 237.202 291.228 234.64 291.228ZM240.277 291.06V289.03H242.321V291.06H240.277Z" fill="#B9D6FE"/>
<path d="M254.83 291.06V281.05H258.736C261.41 281.05 263.132 283.206 263.132 286.16C263.132 287.784 262.586 289.212 261.536 290.094C260.794 290.71 259.828 291.06 258.568 291.06H254.83ZM256.86 289.31H258.428C260.332 289.31 261.074 288.148 261.074 286.16C261.074 284.172 260.206 282.786 258.484 282.786H256.86V289.31ZM268.94 291.228C266.35 291.228 264.992 290.01 264.992 287.84V281.05H267.022V287.84C267.022 288.876 267.54 289.604 268.898 289.604C270.186 289.604 270.788 288.848 270.788 287.812V281.05H272.818V287.84C272.818 289.982 271.502 291.228 268.94 291.228ZM283.209 291.648L282.047 290.598C281.333 291.032 280.465 291.284 279.485 291.284C276.531 291.284 274.683 289.072 274.683 286.076C274.683 283.08 276.531 280.854 279.485 280.854C282.439 280.854 284.273 283.08 284.273 286.076C284.273 287.448 283.881 288.652 283.181 289.562L284.245 290.514L283.209 291.648ZM279.499 289.618C279.947 289.618 280.339 289.534 280.675 289.352L279.793 288.54L280.829 287.42L281.739 288.26C282.047 287.658 282.201 286.902 282.201 286.076C282.201 284.074 281.333 282.52 279.499 282.52C277.665 282.52 276.755 284.074 276.755 286.076C276.755 288.064 277.665 289.618 279.499 289.618ZM290.089 291.228C287.499 291.228 286.141 290.01 286.141 287.84V281.05H288.171V287.84C288.171 288.876 288.689 289.604 290.047 289.604C291.335 289.604 291.937 288.848 291.937 287.812V281.05H293.967V287.84C293.967 289.982 292.651 291.228 290.089 291.228ZM296.266 291.06V281.05H303.63V282.758H298.296V284.998H302.972V286.664H298.296V289.366H303.672V291.06H296.266ZM309.583 291.284C306.867 291.284 305.327 290.08 305.257 287.966H307.245C307.385 289.17 308.071 289.646 309.499 289.646C310.535 289.646 311.445 289.282 311.445 288.358C311.445 287.378 310.493 287.182 308.967 286.832C307.175 286.426 305.537 285.95 305.537 283.864C305.537 281.89 307.147 280.868 309.373 280.868C311.627 280.868 313.083 281.974 313.237 283.99H311.291C311.179 282.982 310.395 282.478 309.359 282.478C308.267 282.478 307.553 282.94 307.553 283.654C307.553 284.466 308.253 284.704 309.737 285.026C311.795 285.474 313.475 285.964 313.475 288.12C313.475 290.15 311.837 291.284 309.583 291.284ZM314.663 291.06L318.149 281.05H320.249L323.777 291.06H321.663L320.991 288.932H317.379L316.721 291.06H314.663ZM318.751 284.494L317.855 287.378H320.501L319.605 284.494C319.437 283.962 319.199 282.954 319.199 282.954H319.171C319.171 282.954 318.919 283.962 318.751 284.494Z" fill="#B9D6FE"/>
</svg>
