<svg width="437" height="589" viewBox="0 0 437 589" fill="none" xmlns="http://www.w3.org/2000/svg">
<path d="M435.581 587.02V587.55H435.052L1.05957 587.59H0.529297V587.06L0.532227 101.458V101.058L0.916992 100.948C19.9086 95.5462 34.6907 81.231 40.0342 62.1251L40.1426 61.7365L40.5459 61.7374L69.71 61.7843C90.2279 34.4751 123.004 17.247 155.872 8.55676C214.889 -7.04734 285.699 -0.562116 336.801 33.8341C348.509 41.715 358.157 51.1493 366.625 62.047H392.503C393.016 62.0414 393.757 62.0417 394.366 62.0431C394.671 62.0438 394.945 62.0442 395.142 62.045C395.24 62.0455 395.32 62.0457 395.375 62.046C395.402 62.0462 395.423 62.0469 395.438 62.047H395.46L395.844 62.049L395.962 62.4152C398.132 69.1952 401.125 74.9525 404.896 80.4347L405.303 80.8546L405.312 80.8634L405.319 80.8722L411.45 87.7999C418.228 93.9228 426.013 98.2155 435.188 100.875L435.57 100.985V101.384L435.581 587.02Z" stroke="#B9D6FE" stroke-width="1.06" stroke-miterlimit="10"/>
<path d="M78.3145 74.4866C111.541 29.5245 177.547 13.0407 231.317 16.3645C270.606 18.7931 310.851 30.5317 341.005 56.4084L341.018 56.4192L341.029 56.4309L351.495 66.5969L351.523 66.6243L351.548 66.6555L357.476 74.4358L384.733 74.5374L385.131 74.5383L385.241 74.9202C390.255 92.3584 403.558 105.487 420.791 111.227L421.614 111.495L421.979 111.611L421.984 111.993L422.304 136.023V136.035L422.141 153.332L422.169 305.113H422.168L422.318 346.61V346.613L422.273 368.828L422.231 437.925L422.228 450.871L422.363 492.928V492.934L422.248 507.977L422.255 549.311L422.24 564.354V564.358L422.167 573.154V574.227H421.637L14.2773 574.371H13.7471V573.841L13.9502 111.826V111.424L14.3369 111.316C26.9783 107.781 38.3615 98.7706 44.9971 87.8655C47.415 83.5005 49.4069 79.5312 50.9453 74.9075L51.0654 74.5461L51.4473 74.5452L78.3145 74.4866Z" fill="#FD6500" stroke="#B9D6FE" stroke-width="1.06" stroke-miterlimit="10"/>
<path d="M333.561 373.384L101.67 373.381C100.847 373.378 100.215 372.843 100.215 372.142L100.218 367.663C96.6479 366.806 93.5135 365.031 91.0926 362.614C85.9597 357.491 84.6529 350.259 87.6338 343.974C89.8694 339.26 94.4965 335.304 100.275 333.889L100.292 329.277C100.294 328.663 100.907 328.059 101.676 328.059L333.348 328.061C334.202 328.058 334.854 328.622 334.854 329.344L334.858 333.905C336.652 334.311 338.281 334.93 339.794 335.8C345.704 339.199 349.141 344.951 349.058 351.111C348.981 356.836 345.772 362.188 340.359 365.453C338.672 366.471 336.871 367.217 334.836 367.649L334.818 372.204C334.816 372.793 334.317 373.285 333.561 373.384ZM333.25 372.538C333.599 372.556 333.841 372.412 333.841 372.145L333.847 367.003C335.521 366.681 337.04 366.186 338.515 365.444C344.354 362.509 347.957 357.052 348.072 351.191C348.19 345.236 344.842 339.65 339.088 336.419C337.505 335.53 335.79 334.914 333.892 334.566L333.879 329.263C333.879 329.078 333.574 328.9 333.345 328.922L101.768 328.919C101.454 328.951 101.27 329.104 101.27 329.339L101.269 334.559C94.6991 335.872 89.7153 340.572 87.8421 346.095C85.2244 353.812 89.247 362.347 97.5661 365.89C98.7445 366.392 99.8868 366.749 101.181 366.995L101.18 371.984C101.18 372.305 101.325 372.536 101.77 372.536L333.25 372.538Z" fill="#B9D6FE"/>
<path d="M331.497 370.051L103.679 370.051L103.659 365.096C101.862 364.793 100.177 364.316 98.5663 363.553C94.848 361.755 92.034 358.907 90.6783 355.433C89.3634 351.986 89.5978 348.308 91.2877 344.991C93.4843 340.578 98.1402 337.389 103.693 336.515L103.703 331.395H331.537L331.554 336.513C335.217 337.034 338.45 338.606 340.952 340.911C344.031 343.785 345.597 347.584 345.364 351.491C345.314 353.385 344.795 355.134 343.905 356.848C341.654 361.183 337.053 364.317 331.52 365.099L331.497 370.051ZM330.116 368.82L330.114 364.123L330.266 364.012C337.985 363.333 343.81 357.802 343.987 351.171C344.173 344.198 338.299 338.296 330.161 337.563L330.154 332.616L105.105 332.616L105.081 337.574C98.8676 338.136 93.7764 341.847 91.9501 346.892C89.7509 352.967 92.7907 359.491 99.355 362.516C101.108 363.358 103.041 363.856 105.062 364.035L105.073 368.82L330.116 368.82Z" fill="#B9D6FE"/>
<path d="M330.989 368.953L105.075 368.954L105.064 364.116C103.043 363.935 101.109 363.432 99.3563 362.581C92.7919 359.522 89.752 352.927 91.9513 346.785C93.7777 341.685 98.8689 337.933 105.082 337.365L105.106 332.353L331.028 332.352L331.034 337.354C339.172 338.095 345.046 344.061 344.86 351.111C344.683 357.814 338.858 363.407 331.139 364.093L330.987 364.205L330.989 368.953Z" fill="#B9D6FE"/>
<path d="M144.462 356.06L141.088 346.05H143.216L144.98 351.846C145.176 352.504 145.414 353.442 145.414 353.442H145.442C145.442 353.442 145.68 352.49 145.876 351.846L147.626 346.05H149.684L146.31 356.06H144.462ZM151.324 356.06V346.05H158.688V347.758H153.354V349.998H158.03V351.664H153.354V354.366H158.73V356.06H151.324ZM160.832 356.06V346.05H165.424C167.356 346.05 168.644 347.17 168.644 348.836C168.644 350.012 168.098 350.908 166.81 351.258V351.3C167.734 351.566 168.21 352.098 168.336 353.316C168.476 354.73 168.42 355.808 168.77 355.962V356.06H166.824C166.572 355.948 166.544 354.828 166.46 353.75C166.376 352.658 165.76 352.042 164.5 352.042H162.862V356.06H160.832ZM162.862 347.688V350.474H165.018C166.124 350.474 166.67 349.9 166.67 349.102C166.67 348.29 166.152 347.688 165.074 347.688H162.862ZM181.319 356.06L181.249 354.716H181.221C180.535 355.864 179.597 356.27 178.407 356.27C176.895 356.27 175.719 355.724 174.893 354.814C174.067 353.89 173.591 352.602 173.591 351.09C173.591 349.424 174.179 347.968 175.229 347.002C176.041 346.26 177.105 345.854 178.449 345.854C180.969 345.854 182.411 347.24 182.733 349.2H180.745C180.521 348.234 179.779 347.534 178.491 347.534C176.601 347.534 175.663 349.102 175.663 351.09C175.663 353.134 176.741 354.632 178.463 354.632C180.017 354.632 181.039 353.47 181.039 352.364V352.308H178.631V350.74H182.845V356.06H181.319ZM188.968 356.228C186.378 356.228 185.02 355.01 185.02 352.84V346.05H187.05V352.84C187.05 353.876 187.568 354.604 188.926 354.604C190.214 354.604 190.816 353.848 190.816 352.812V346.05H192.846V352.84C192.846 354.982 191.53 356.228 188.968 356.228ZM194.061 356.06L197.547 346.05H199.647L203.175 356.06H201.061L200.389 353.932H196.777L196.119 356.06H194.061ZM198.149 349.494L197.253 352.378H199.899L199.003 349.494C198.835 348.962 198.597 347.954 198.597 347.954H198.569C198.569 347.954 198.317 348.962 198.149 349.494ZM204.858 356.06V346.05H209.45C211.382 346.05 212.67 347.17 212.67 348.836C212.67 350.012 212.124 350.908 210.836 351.258V351.3C211.76 351.566 212.236 352.098 212.362 353.316C212.502 354.73 212.446 355.808 212.796 355.962V356.06H210.85C210.598 355.948 210.57 354.828 210.486 353.75C210.402 352.658 209.786 352.042 208.526 352.042H206.888V356.06H204.858ZM206.888 347.688V350.474H209.044C210.15 350.474 210.696 349.9 210.696 349.102C210.696 348.29 210.178 347.688 209.1 347.688H206.888ZM214.817 356.06V346.05H218.723C221.397 346.05 223.119 348.206 223.119 351.16C223.119 352.784 222.573 354.212 221.523 355.094C220.781 355.71 219.815 356.06 218.555 356.06H214.817ZM216.847 354.31H218.415C220.319 354.31 221.061 353.148 221.061 351.16C221.061 349.172 220.193 347.786 218.471 347.786H216.847V354.31ZM223.775 356.06L227.261 346.05H229.361L232.889 356.06H230.775L230.103 353.932H226.491L225.833 356.06H223.775ZM227.863 349.494L226.967 352.378H229.613L228.717 349.494C228.549 348.962 228.311 347.954 228.311 347.954H228.283C228.283 347.954 228.031 348.962 227.863 349.494ZM234.571 356.06V346.05H239.163C241.095 346.05 242.383 347.17 242.383 348.836C242.383 350.012 241.837 350.908 240.549 351.258V351.3C241.473 351.566 241.949 352.098 242.075 353.316C242.215 354.73 242.159 355.808 242.509 355.962V356.06H240.563C240.311 355.948 240.283 354.828 240.199 353.75C240.115 352.658 239.499 352.042 238.239 352.042H236.601V356.06H234.571ZM236.601 347.688V350.474H238.757C239.863 350.474 240.409 349.9 240.409 349.102C240.409 348.29 239.891 347.688 238.813 347.688H236.601ZM244.531 356.06V346.05H249.123C251.055 346.05 252.343 347.17 252.343 348.836C252.343 350.012 251.797 350.908 250.509 351.258V351.3C251.433 351.566 251.909 352.098 252.035 353.316C252.175 354.73 252.119 355.808 252.469 355.962V356.06H250.523C250.271 355.948 250.243 354.828 250.159 353.75C250.075 352.658 249.459 352.042 248.199 352.042H246.561V356.06H244.531ZM246.561 347.688V350.474H248.717C249.823 350.474 250.369 349.9 250.369 349.102C250.369 348.29 249.851 347.688 248.773 347.688H246.561ZM258.886 356.284C255.932 356.284 254.056 354.072 254.056 351.076C254.056 348.08 255.932 345.854 258.886 345.854C261.84 345.854 263.702 348.08 263.702 351.076C263.702 354.072 261.84 356.284 258.886 356.284ZM258.9 354.618C260.734 354.618 261.63 353.064 261.63 351.076C261.63 349.074 260.734 347.52 258.9 347.52C257.066 347.52 256.128 349.074 256.128 351.076C256.128 353.064 257.066 354.618 258.9 354.618ZM265.652 356.06V346.05H270.048C271.21 346.05 272.078 346.386 272.666 346.988C273.226 347.562 273.562 348.346 273.562 349.27C273.562 351.16 272.316 352.434 270.216 352.434H267.752V356.06H265.652ZM267.752 347.814V350.782H269.852C270.916 350.782 271.476 350.194 271.476 349.284C271.476 348.346 270.888 347.814 269.88 347.814H267.752ZM273.762 356.06L277.248 346.05H279.348L282.876 356.06H280.762L280.09 353.932H276.478L275.82 356.06H273.762ZM277.85 349.494L276.954 352.378H279.6L278.704 349.494C278.536 348.962 278.298 347.954 278.298 347.954H278.27C278.27 347.954 278.018 348.962 277.85 349.494ZM288.3 356.284C285.584 356.284 284.044 355.08 283.974 352.966H285.962C286.102 354.17 286.788 354.646 288.216 354.646C289.252 354.646 290.162 354.282 290.162 353.358C290.162 352.378 289.21 352.182 287.684 351.832C285.892 351.426 284.254 350.95 284.254 348.864C284.254 346.89 285.864 345.868 288.09 345.868C290.344 345.868 291.8 346.974 291.954 348.99H290.008C289.896 347.982 289.112 347.478 288.076 347.478C286.984 347.478 286.27 347.94 286.27 348.654C286.27 349.466 286.97 349.704 288.454 350.026C290.512 350.474 292.192 350.964 292.192 353.12C292.192 355.15 290.554 356.284 288.3 356.284Z" fill="#520345"/>
<path d="M109.572 255.06L113.988 232.18H117.508L121.028 251.252H121.092L131.684 232.18H135.46L131.044 255.06H128.324L131.972 236.244H131.908C131.908 236.244 131.044 237.972 130.372 239.156L121.444 255.06H119.268L116.228 239.124C115.972 237.844 115.844 236.244 115.844 236.244H115.78L112.132 255.06H109.572ZM147.579 255.22C145.819 255.22 145.307 254.164 145.275 252.948H145.243C144.155 254.356 142.363 255.38 140.027 255.38C136.731 255.38 134.875 253.204 134.875 250.708C134.875 246.484 138.107 245.62 141.403 245.428C145.947 245.172 147.035 244.884 147.035 242.74C147.035 240.692 145.435 240.212 143.643 240.18C140.955 240.148 139.419 241.076 138.971 243.508H136.379C136.955 240.212 139.547 238.164 143.835 238.164C147.035 238.164 150.043 239.668 149.243 243.796L147.739 251.444C147.515 252.66 147.643 253.428 149.179 253.14H149.275L148.891 254.996C148.571 255.092 148.187 255.22 147.579 255.22ZM137.467 250.516C137.467 252.244 138.587 253.396 140.571 253.396C143.771 253.396 145.467 251.188 145.947 248.756L146.395 246.484C145.371 247.06 144.059 247.156 141.307 247.38C140.027 247.476 137.467 247.668 137.467 250.516ZM156.541 238.516L156.029 241.14H156.093C157.341 239.412 158.941 238.324 160.829 238.324C161.629 238.324 161.885 238.388 162.173 238.516L161.693 240.98H161.597C161.245 240.852 160.925 240.82 160.413 240.82C157.917 240.82 155.677 242.804 155.005 246.324L153.341 255.06H150.781L153.981 238.516H156.541ZM161.281 255.06L164.481 238.516H167.041L163.841 255.06H161.281ZM165.089 235.38L165.697 232.18H168.257L167.649 235.38H165.089ZM182.865 247.412H170.545C170.513 247.732 170.513 248.02 170.513 248.34C170.513 251.284 172.049 253.364 175.089 253.364C177.233 253.364 179.025 252.116 179.761 249.94H182.257C180.977 253.652 178.257 255.508 174.833 255.508C170.993 255.508 167.921 252.82 167.921 248.308C167.921 242.708 171.665 238.1 176.529 238.1C178.289 238.1 179.665 238.548 180.689 239.316C182.769 240.884 183.409 243.86 182.865 247.412ZM176.433 240.116C173.521 240.116 171.537 242.324 170.801 245.46H180.433C180.753 242.388 179.473 240.116 176.433 240.116ZM204.235 255.06L203.083 248.084H194.059L190.443 255.06H187.499L199.755 232.18H202.923L207.243 255.06H204.235ZM199.307 238.068L195.275 245.78H202.699L201.419 238.068C201.195 236.788 200.971 234.836 200.971 234.836H200.907C200.907 234.836 200.043 236.692 199.307 238.068ZM215.041 238.516L214.561 241.076H214.625C216.001 239.284 218.241 238.132 220.705 238.132C223.969 238.132 225.345 240.148 224.737 243.38L222.465 255.06H219.937L222.209 243.38C222.593 241.332 222.017 240.276 220.033 240.276C216.993 240.276 214.209 242.836 213.633 245.78L211.841 255.06H209.281L212.481 238.516H215.041ZM227.073 240.596L227.489 238.516H229.825L230.849 233.3H233.409L232.385 238.516H235.553L235.137 240.596H231.969L229.953 251.092C229.697 252.372 230.145 252.948 231.393 252.948C232.033 252.948 232.577 252.788 232.865 252.66H232.961L232.513 254.9C232.065 255.06 231.425 255.156 230.721 255.156C228.161 255.156 226.849 253.748 227.393 250.996L229.409 240.596H227.073ZM242.397 255.508C238.461 255.508 235.421 252.916 235.421 248.276C235.421 242.9 238.717 238.1 244.157 238.1C248.157 238.1 251.101 240.884 251.101 245.396C251.101 250.644 248.029 255.508 242.397 255.508ZM237.981 248.244C237.981 251.156 239.485 253.364 242.493 253.364C246.429 253.364 248.509 249.62 248.509 245.396C248.509 242.644 247.165 240.212 244.093 240.212C240.029 240.212 237.981 244.148 237.981 248.244ZM251.969 255.06L255.169 238.516H257.729L254.529 255.06H251.969ZM255.777 235.38L256.385 232.18H258.945L258.337 235.38H255.777ZM263.76 238.516L263.28 241.076H263.344C264.72 239.284 266.96 238.132 269.424 238.132C272.688 238.132 274.064 240.148 273.456 243.38L271.184 255.06H268.656L270.928 243.38C271.312 241.332 270.736 240.276 268.752 240.276C265.712 240.276 262.928 242.836 262.352 245.78L260.56 255.06H258L261.2 238.516H263.76ZM290.052 247.412H277.732C277.7 247.732 277.7 248.02 277.7 248.34C277.7 251.284 279.236 253.364 282.276 253.364C284.42 253.364 286.212 252.116 286.948 249.94H289.444C288.164 253.652 285.444 255.508 282.02 255.508C278.18 255.508 275.108 252.82 275.108 248.308C275.108 242.708 278.852 238.1 283.716 238.1C285.476 238.1 286.852 238.548 287.876 239.316C289.956 240.884 290.596 243.86 290.052 247.412ZM283.62 240.116C280.708 240.116 278.724 242.324 277.988 245.46H287.62C287.94 242.388 286.66 240.116 283.62 240.116ZM292.26 240.596L292.676 238.516H295.012L296.036 233.3H298.596L297.572 238.516H300.74L300.324 240.596H297.156L295.14 251.092C294.884 252.372 295.332 252.948 296.58 252.948C297.22 252.948 297.764 252.788 298.052 252.66H298.148L297.7 254.9C297.252 255.06 296.612 255.156 295.908 255.156C293.348 255.156 292.036 253.748 292.58 250.996L294.596 240.596H292.26ZM301.448 240.596L301.864 238.516H304.2L305.224 233.3H307.784L306.76 238.516H309.928L309.512 240.596H306.344L304.328 251.092C304.072 252.372 304.52 252.948 305.768 252.948C306.408 252.948 306.952 252.788 307.24 252.66H307.336L306.888 254.9C306.44 255.06 305.8 255.156 305.096 255.156C302.536 255.156 301.224 253.748 301.768 250.996L303.784 240.596H301.448ZM324.74 247.412H312.42C312.388 247.732 312.388 248.02 312.388 248.34C312.388 251.284 313.924 253.364 316.964 253.364C319.108 253.364 320.9 252.116 321.636 249.94H324.132C322.852 253.652 320.132 255.508 316.708 255.508C312.868 255.508 309.796 252.82 309.796 248.308C309.796 242.708 313.54 238.1 318.404 238.1C320.164 238.1 321.54 238.548 322.564 239.316C324.644 240.884 325.284 243.86 324.74 247.412ZM318.308 240.116C315.396 240.116 313.412 242.324 312.676 245.46H322.308C322.628 242.388 321.348 240.116 318.308 240.116Z" fill="#B9D6FE"/>
<path d="M110.608 291.06V284.368H108.438V283.108C109.614 283.066 110.664 282.632 110.86 281.4H112.526V291.06H110.608ZM115.95 291.06C116.076 287.532 117.952 284.634 119.408 283.136V283.108H114.648V281.47H121.48V283.038C119.758 284.788 118.162 287.574 118.022 291.06H115.95ZM126.418 291.27C124.29 291.27 122.736 290.15 122.554 288.288H124.43C124.598 289.226 125.382 289.674 126.376 289.674C127.468 289.674 128.154 288.89 128.154 287.868C128.154 286.734 127.384 286.104 126.376 286.104C125.648 286.104 125.088 286.384 124.808 286.706H122.974L123.898 281.47H129.554V283.052H125.228L124.864 285.124H124.892C125.312 284.76 125.998 284.522 126.88 284.522C128.574 284.522 130.128 285.796 130.128 287.868C130.128 289.87 128.518 291.27 126.418 291.27ZM135.352 291.27C133.224 291.27 131.67 290.15 131.488 288.288H133.364C133.532 289.226 134.316 289.674 135.31 289.674C136.402 289.674 137.088 288.89 137.088 287.868C137.088 286.734 136.318 286.104 135.31 286.104C134.582 286.104 134.022 286.384 133.742 286.706H131.908L132.832 281.47H138.488V283.052H134.162L133.798 285.124H133.826C134.246 284.76 134.932 284.522 135.814 284.522C137.508 284.522 139.062 285.796 139.062 287.868C139.062 289.87 137.452 291.27 135.352 291.27ZM144.831 288.316V286.678H156.031V288.316H144.831ZM164.011 291.06V284.368H161.841V283.108C163.017 283.066 164.067 282.632 164.263 281.4H165.929V291.06H164.011ZM169.353 291.06C169.479 287.532 171.355 284.634 172.811 283.136V283.108H168.051V281.47H174.883V283.038C173.161 284.788 171.565 287.574 171.425 291.06H169.353ZM180.083 291.27C178.081 291.27 176.933 290.206 176.723 288.764H178.571C178.725 289.338 179.173 289.814 180.027 289.814C180.629 289.814 181.077 289.632 181.413 289.212C181.791 288.736 182.001 287.952 182.015 286.958H181.987C181.483 287.546 180.811 288.008 179.761 288.008C177.815 288.008 176.331 286.678 176.331 284.634C176.331 282.66 177.885 281.274 179.943 281.274C182.491 281.274 183.919 282.884 183.919 286.132C183.919 289.198 182.897 291.27 180.083 291.27ZM180.027 286.468C181.119 286.468 181.959 285.74 181.959 284.634C181.959 283.542 181.133 282.772 180.041 282.772C178.935 282.772 178.151 283.57 178.151 284.606C178.151 285.698 178.851 286.468 180.027 286.468ZM189.164 291.27C186.686 291.27 185.412 289.898 185.384 287.798H187.204C187.274 288.946 187.778 289.744 189.094 289.744C190.158 289.744 190.788 289.17 190.788 288.19C190.788 287.266 190.2 286.706 189.024 286.706H188.436V285.264H188.982C189.892 285.264 190.536 284.802 190.536 283.99C190.536 283.234 190.018 282.73 189.178 282.73C188.086 282.73 187.554 283.444 187.512 284.438H185.692C185.762 282.548 186.952 281.274 189.178 281.274C191.18 281.274 192.468 282.268 192.468 283.864C192.468 284.942 191.782 285.572 190.83 285.88V285.908C192.048 286.202 192.776 286.986 192.776 288.316C192.776 290.304 191.138 291.27 189.164 291.27Z" fill="#B9D6FE"/>
<path d="M207.83 291.06V281.05H214.998V282.772H209.86V285.18H214.214V286.916H209.86V291.06H207.83ZM216.982 291.06V281.05H221.574C223.506 281.05 224.794 282.17 224.794 283.836C224.794 285.012 224.248 285.908 222.96 286.258V286.3C223.884 286.566 224.36 287.098 224.486 288.316C224.626 289.73 224.57 290.808 224.92 290.962V291.06H222.974C222.722 290.948 222.694 289.828 222.61 288.75C222.526 287.658 221.91 287.042 220.65 287.042H219.012V291.06H216.982ZM219.012 282.688V285.474H221.168C222.274 285.474 222.82 284.9 222.82 284.102C222.82 283.29 222.302 282.688 221.224 282.688H219.012ZM226.282 291.06L229.768 281.05H231.868L235.396 291.06H233.282L232.61 288.932H228.998L228.34 291.06H226.282ZM230.37 284.494L229.474 287.378H232.12L231.224 284.494C231.056 283.962 230.818 282.954 230.818 282.954H230.79C230.79 282.954 230.538 283.962 230.37 284.494ZM237.078 291.06V281.05H239.136L242.468 286.636C242.79 287.182 243.168 288.036 243.168 288.036H243.196C243.196 288.036 243.14 287 243.14 286.3V281.05H245.142V291.06H243.182L239.766 285.53C239.444 284.998 239.052 284.144 239.052 284.144H239.024C239.024 284.144 239.08 285.194 239.08 285.894V291.06H237.078ZM251.898 291.27C249.084 291.27 247.082 289.1 247.082 286.09C247.082 283.122 248.93 280.854 251.884 280.854C254.348 280.854 255.804 282.324 256.014 284.228H253.998C253.816 283.22 253.06 282.562 251.884 282.562C250.036 282.562 249.154 284.102 249.154 286.09C249.154 288.134 250.218 289.604 251.898 289.604C253.088 289.604 253.928 288.89 254.054 287.84H256.042C255.986 288.722 255.608 289.576 254.936 290.206C254.25 290.85 253.284 291.27 251.898 291.27ZM257.94 291.06V281.05H259.97V291.06H257.94ZM261.634 291.06L265.12 281.05H267.22L270.748 291.06H268.634L267.962 288.932H264.35L263.692 291.06H261.634ZM265.722 284.494L264.826 287.378H267.472L266.576 284.494C266.408 283.962 266.17 282.954 266.17 282.954H266.142C266.142 282.954 265.89 283.962 265.722 284.494Z" fill="#B9D6FE"/>
<path d="M284.83 291.06V281.05H289.422C291.354 281.05 292.642 282.17 292.642 283.836C292.642 285.012 292.096 285.908 290.808 286.258V286.3C291.732 286.566 292.208 287.098 292.334 288.316C292.474 289.73 292.418 290.808 292.768 290.962V291.06H290.822C290.57 290.948 290.542 289.828 290.458 288.75C290.374 287.658 289.758 287.042 288.498 287.042H286.86V291.06H284.83ZM286.86 282.688V285.474H289.016C290.122 285.474 290.668 284.9 290.668 284.102C290.668 283.29 290.15 282.688 289.072 282.688H286.86ZM294.789 291.06V281.05H302.153V282.758H296.819V284.998H301.495V286.664H296.819V289.366H302.195V291.06H294.789ZM304.311 291.06V281.05H306.341V291.06H304.311ZM308.732 291.06V281.05H310.79L314.122 286.636C314.444 287.182 314.822 288.036 314.822 288.036H314.85C314.85 288.036 314.794 287 314.794 286.3V281.05H316.796V291.06H314.836L311.42 285.53C311.098 284.998 310.706 284.144 310.706 284.144H310.678C310.678 284.144 310.734 285.194 310.734 285.894V291.06H308.732ZM318.442 291.06L321.928 281.05H324.028L327.556 291.06H325.442L324.77 288.932H321.158L320.5 291.06H318.442ZM322.53 284.494L321.634 287.378H324.28L323.384 284.494C323.216 283.962 322.978 282.954 322.978 282.954H322.95C322.95 282.954 322.698 283.962 322.53 284.494Z" fill="#B9D6FE"/>
</svg>
